<?xml version="1.0" encoding="utf-8"?>
<!-- Generator: Adobe Illustrator 25.3.0, SVG Export Plug-In . SVG Version: 6.00 Build 0)  -->
<svg version="1.1" id="Capa_1" xmlns="http://www.w3.org/2000/svg" xmlns:xlink="http://www.w3.org/1999/xlink" x="0px" y="0px"
	 viewBox="0 0 250 250" style="enable-background:new 0 0 250 250;" xml:space="preserve">
<style type="text/css">
	.st0{fill:#FFFFFF;stroke:#000000;stroke-miterlimit:10;}
	.st1{fill:#FFFFFF;stroke:#FF0000;stroke-miterlimit:10;}
	.st2{fill:none;stroke:#00FF00;stroke-miterlimit:10;}
	.st3{fill:none;stroke:#0000FF;stroke-miterlimit:10;}
	.st4{fill:none;stroke:#FF0000;stroke-miterlimit:10;}
	.st5{fill:none;}
	.st6{font-family:'MyriadPro-Regular';}
	.st7{font-size:5px;}
	.st8{font-size:4px;}
	.st9{font-size:6px;}
	.st10{fill:none;stroke:#000000;stroke-miterlimit:10;}
</style>
<polyline class="st0" points="36.5,112.5 47.74,112.5 219.5,112.5 "/>
<path class="st0" d="M47.5,71.1v11.95c0.1-4.08,0.16-8.01,0.18-11.93C47.62,71.11,47.56,71.1,47.5,71.1z"/>
<path class="st0" d="M47.67,65.17c-0.03-3.46-0.09-6.98-0.17-10.67v10.69C47.56,65.18,47.61,65.17,47.67,65.17z"/>
<path class="st1" d="M47.74,165.5c0.26-17.7,0.26-34.97,0-53.5"/>
<line class="st2" x1="86.5" y1="113" x2="86.5" y2="89"/>
<line class="st2" x1="114.5" y1="113" x2="114.5" y2="89"/>
<line class="st2" x1="139.5" y1="113" x2="139.5" y2="89"/>
<line class="st2" x1="167.5" y1="113" x2="167.5" y2="89"/>
<path class="st3" d="M63.97,143.5c-1.77-1.86-2.63-4.45-2.47-7"/>
<path class="st3" d="M81.17,139.81c-1.19,2.55-3.12,4.79-5.74,5.95"/>
<path class="st3" d="M84.5,122.5c-0.02,1.78-0.15,3.55-0.34,5.32"/>
<path class="st3" d="M67.5,153.5c-2.65-1.49-3.34-2.46-5-5"/>
<path class="st3" d="M91.85,156.02c-4.11,0.08-8.22,0.2-12.32-0.17"/>
<path class="st3" d="M108.23,146.43c-1.51,2.14-3.34,4.06-5.43,5.65"/>
<path class="st3" d="M113.5,128.5c-0.1,2.04-0.41,4.07-0.81,6.07"/>
<path class="st3" d="M63.73,161.35c-0.98-1.83-1.81-3.8-2.23-5.85"/>
<path class="st3" d="M80.67,175.35c-3.75-1.66-7.34-3.77-10.67-6.35"/>
<path class="st3" d="M100.87,178.36c-2.79,0.19-5.61,0.14-8.39-0.16"/>
<path class="st3" d="M121.36,170.91c-2.66,2.13-5.65,3.83-8.85,5.03"/>
<path class="st3" d="M133.74,153.7c-1.12,2.65-2.44,5.21-3.97,7.65"/>
<path class="st3" d="M138.5,136.5c-0.26,1.62-0.56,3.23-0.91,4.84"/>
<path class="st3" d="M71.36,180.35c-0.72-0.71-1.42-1.45-2.11-2.19"/>
<path class="st3" d="M87.27,192.23c-2.33-1.27-4.59-2.67-6.76-4.2"/>
<path class="st3" d="M108.51,199.06c-3.18-0.36-6.33-1-9.4-1.9"/>
<path class="st3" d="M126.56,197.47c-2.06,0.63-4.16,1.1-6.28,1.41"/>
<path class="st3" d="M143.1,187.98c-1.66,1.65-3.48,3.13-5.43,4.43"/>
<path class="st3" d="M156.68,172.65c-1.58,2.18-3.22,4.31-4.94,6.38"/>
<path class="st3" d="M165.5,154.5c-0.8,2.42-1.79,4.78-2.85,7.1"/>
<line class="st3" x1="62.5" y1="168.5" x2="64.5" y2="172.5"/>
<polygon class="st2" points="89.33,88.5 86.5,85.67 83.67,88.5 "/>
<polygon class="st4" points="44.91,165.5 47.74,168.33 50.56,165.5 "/>
<polygon class="st3" points="65.24,147.78 61.78,145.76 59.76,149.22 "/>
<polygon class="st2" points="117.33,88.5 114.5,85.67 111.67,88.5 "/>
<polygon class="st3" points="64.24,154.8 60.8,152.76 58.76,156.2 "/>
<polygon class="st3" points="65.09,167.36 61.36,165.91 59.91,169.64 "/>
<polygon class="st2" points="142.33,88.5 139.5,85.67 136.67,88.5 "/>
<polygon class="st2" points="170.33,88.5 167.5,85.67 164.67,88.5 "/>
<rect x="6.43" y="132.14" class="st5" width="33.57" height="9.86"/>
<text transform="matrix(1 0 0 1 6.4287 135.6929)" class="st6 st7">VPC= $200.00</text>
<rect x="63.43" y="124.93" class="st5" width="26.57" height="5.36"/>
<text transform="matrix(1 0 0 1 63.4287 127.7686)" class="st6 st8">N = 1 pav</text>
<rect x="83.43" y="142.93" class="st5" width="26.57" height="5.36"/>
<text transform="matrix(1 0 0 1 83.4287 145.7686)" class="st6 st8">N = 2 pav</text>
<rect x="101.43" y="161.93" class="st5" width="26.57" height="5.36"/>
<text transform="matrix(1 0 0 1 101.4287 164.7686)" class="st6 st8">N = 3 pav</text>
<rect x="118.43" y="182.93" class="st5" width="26.57" height="5.36"/>
<text transform="matrix(1 0 0 1 118.4287 185.7686)"><tspan x="0" y="0" class="st6 st8">N </tspan><tspan x="3.48" y="0" class="st6 st8">= 4 pav</tspan></text>
<rect x="225.93" y="109.79" class="st5" width="22.07" height="17.36"/>
<text transform="matrix(1 0 0 1 225.9287 114.0454)" class="st6 st9">pav</text>
<rect x="84.71" y="114.43" class="st5" width="12.29" height="6.57"/>
<text transform="matrix(1 0 0 1 84.7144 117.9785)" class="st6 st7">1</text>
<rect x="112.71" y="114.43" class="st5" width="12.29" height="6.57"/>
<text transform="matrix(1 0 0 1 112.7144 117.9785)" class="st6 st7">2</text>
<rect x="137.71" y="114.43" class="st5" width="12.29" height="6.57"/>
<text transform="matrix(1 0 0 1 137.7144 117.9785)" class="st6 st7">3</text>
<rect x="165.71" y="114.43" class="st5" width="12.29" height="6.57"/>
<text transform="matrix(1 0 0 1 165.7144 117.9785)" class="st6 st7">4</text>
<rect x="77.5" y="75.71" class="st5" width="41.57" height="5.29"/>
<text transform="matrix(1 0 0 1 77.5 79.2642)" class="st6 st7">$90.000</text>
<rect x="104.5" y="75.71" class="st5" width="41.57" height="4.29"/>
<text transform="matrix(1 0 0 1 104.5 79.2642)" class="st6 st7">$90.000</text>
<rect x="129.5" y="75.71" class="st5" width="41.57" height="4.29"/>
<text transform="matrix(1 0 0 1 129.5 79.2642)" class="st6 st7">$90.000</text>
<rect x="159.5" y="75.71" class="st5" width="41.57" height="4.29"/>
<text transform="matrix(1 0 0 1 159.5 79.2642)" class="st6 st7">$90.000</text>
<rect x="204.79" y="149.29" class="st5" width="28.21" height="14.57"/>
<text transform="matrix(1 0 0 1 204.7861 152.8359)" class="st6 st7">j=15% naav</text>
<rect x="35.86" y="104.93" class="st5" width="12.64" height="7.29"/>
<text transform="matrix(1 0 0 1 35.8569 109.1885)" class="st6 st9">0</text>
<rect x="36.43" y="71.36" class="st5" width="9.86" height="12"/>
<text transform="matrix(1 0 0 1 36.4287 75.6167)" class="st6 st9">ff</text>
<line class="st0" x1="47.5" y1="101" x2="47.5" y2="89"/>
<polygon class="st3" points="63.79,135.78 60.33,133.76 58.32,137.21 "/>
<polygon class="st10" points="219.5,115.33 222.33,112.5 219.5,109.67 "/>
</svg>
