<svg xmlns="http://www.w3.org/2000/svg" xmlns:xlink="http://www.w3.org/1999/xlink" xmlns:lucid="lucid" width="575" height="311.06"><g transform="translate(-195 -220)" lucid:page-tab-id="UOJGohTvS3Fz"><path d="M0 0h1870.4v1323.2H0z" fill="#fff"/><path d="M301 461.5h-2v-47.7h2zm0-69.05h-2V381h2z" fill="#5e5e5e"/><path d="M301 381.03h-2V380h2zM300 476.76l-4.64-14.26h9.28z" fill="#5e5e5e"/><path d="M300 480l-6-18.5h12zm-3.26-16.5l3.26 10.03 3.26-10.03z" fill="#5e5e5e"/><use xlink:href="#a" transform="matrix(1,0,0,1,295.0617283950617,392.45390444650377) translate(0.004999999999999893 14.222222222222223)"/><path d="M301 380h328M301.03 380H300" stroke="#5e5e5e" stroke-width="2" fill="none"/><path d="M633 380h-4.03v-1H633z" fill="#5e5e5e"/><path d="M630 379v-60.5" stroke="#5e5e5e" stroke-width="2" fill="none"/><path d="M631 380h-2v-1.03h2z" fill="#5e5e5e"/><path d="M630 303.24l4.64 14.26h-9.28z" stroke="#5e5e5e" stroke-width="2" fill="#5e5e5e"/><path d="M510 246c0-3.3 2.7-6 6-6h228c3.3 0 6 2.7 6 6v48c0 3.3-2.7 6-6 6H516c-3.3 0-6-2.7-6-6z" stroke="#000" stroke-opacity="0" stroke-width="3" fill="#fff" fill-opacity="0"/><use xlink:href="#b" transform="matrix(1,0,0,1,515,245) translate(88.44753086419753 28.069444444444443)"/><path d="M410 406c0-3.3 2.7-6 6-6h128c3.3 0 6 2.7 6 6v8c0 3.3-2.7 6-6 6H416c-3.3 0-6-2.7-6-6z" stroke="#000" stroke-opacity="0" stroke-width="3" fill="#fff" fill-opacity="0"/><use xlink:href="#c" transform="matrix(1,0,0,1,415,405) translate(28.509259259259267 12.444444444444443)"/><use xlink:href="#d" transform="matrix(1,0,0,1,415,405) translate(76.42901234567901 12.444444444444443)"/><use xlink:href="#e" transform="matrix(1,0,0,1,415,405) translate(8.925925925925952 29.33333333333333)"/><use xlink:href="#f" transform="matrix(1,0,0,1,415,405) translate(27.81481481481483 29.33333333333333)"/><use xlink:href="#g" transform="matrix(1,0,0,1,415,405) translate(72.25925925925925 29.33333333333333)"/><use xlink:href="#h" transform="matrix(1,0,0,1,415,405) translate(102.59259259259258 29.33333333333333)"/><path d="M467.5 519.06v2h-3.95v-2zm-13 0h1.15v2h-1.2l-2.8-.13.1-2zm24.9 1.77l-3.95.16-.08-2 3.95-.17zm-35.56-2.23l-.08 2-3.95-.17.1-2zm47.45 1.68l-1.3.1-2.7.12-.08-2 2.65-.1 1.26-.1zm-59.87-2.2h.56l-.1 2-.6-.02-3.37-.28.16-2zm71.68 1.22l-3.93.32-.17-2 3.94-.32zm-82.88-2.18l-.17 2-3.94-.34.18-2zm94.7.72l-3.92.5-.25-2 3.92-.48zm-106.52-1.72l-.17 2-3.94-.34.16-2zm-11.75-1.28l-.25 2-3.92-.5.25-2zm130.05 1.05l-.2.04-3.73.63-.34-1.98 3.68-.63.2-.03zm-141.8-2.55l-.26 1.98-3.92-.5.25-1.98zm153.42-.04l-2.56.67-1.32.28-.42-1.96 1.3-.28 2.5-.64zm-165.2-1.45l-.25 1.98-3.92-.5.25-1.98zm-11.68-1.76l-.33 1.96-3.9-.66.35-1.97zm188.34.02l-3.78 1.14-.58-1.92 3.78-1.14zm-200.03-2.02l-.33 1.97-3.9-.66.33-1.96zm-11.7-2l-.33 1.98-3.9-.66.34-1.97zm223 .03l-3.02 1.2-.72.24-.65-1.9.68-.22 2.97-1.18zm-234.68-2l-.34 1.96-3.9-.67.34-1.97zm-11.63-2.2l-.4 1.95-3.86-.77.4-1.95zm257.2-.63l-2.4 1.2-1.2.53-.8-1.83 1.14-.5 2.38-1.2zm-268.83-1.7l-.38 1.96-1.94-.38.4-1.96zm279.3-4.08l-3.23 1.95-.2.1-.96-1.74.17-.1 3.2-1.92zm9.82-6.85l-1.17.93-2.02 1.47-1.17-1.62 1.98-1.44 1.14-.9zm9-7.9l-.52.52-2.37 2.22-1.37-1.46 2.34-2.2.5-.5zm7.94-8.97l-.46.62-2.06 2.48-1.54-1.27 2.03-2.45.44-.6zm6.74-9.9l-.5.86-1.6 2.54-1.7-1.07 1.6-2.5.47-.83zm5.45-10.67l-.32.76-1.35 2.86-1.8-.85 1.32-2.82.3-.72zm4.13-11.2l-1.22 3.77-1.9-.62 1.22-3.76zm2.88-11.62l-.34 1.83-.5 2.1-1.94-.47.48-2.05.34-1.76zm1.56-9.83l-.1.92-.16 1.07-1.97-.3.14-1.03.1-.88zM633.6 417.75l-9.25-.54 5.46-13.97z" fill="#c92d39"/><path d="M634.93 418.82l-12-.7L630 400zm-9.14-2.53l6.5.37-2.68-10.2zM300.8 501.18l-3.94-.8.08-.38h4.1z" fill="#c92d39"/><path d="M545 386c0-3.3 2.7-6 6-6h158c3.3 0 6 2.7 6 6v8c0 3.3-2.7 6-6 6H551c-3.3 0-6-2.7-6-6z" stroke="#000" stroke-opacity="0" stroke-width="3" fill="#fff" fill-opacity="0"/><g><use xlink:href="#i" transform="matrix(1,0,0,1,550,385) translate(54.12962962962964 10.666666666666664)"/><use xlink:href="#j" transform="matrix(1,0,0,1,550,385) translate(72.64814814814815 10.666666666666664)"/></g><path d="M215 486c0-3.3 2.7-6 6-6h158c3.3 0 6 2.7 6 6v8c0 3.3-2.7 6-6 6H221c-3.3 0-6-2.7-6-6z" stroke="#000" stroke-opacity="0" stroke-width="3" fill="#fff" fill-opacity="0"/><g><use xlink:href="#k" transform="matrix(1,0,0,1,220,485) translate(60.92592592592594 10.666666666666664)"/></g><defs><path fill="#333" d="M101-251c68 0 84 54 84 127C185-50 166 4 99 4S15-52 14-124c-1-75 17-127 87-127zm-1 216c37-5 36-46 36-89s4-89-36-89c-39 0-36 45-36 89 0 43-3 85 36 89" id="l"/><use transform="matrix(0.04938271604938272,0,0,0.04938271604938272,0,0)" xlink:href="#l" id="a"/><path fill="#333" d="M63-220v92h138v28H63V0H30v-248h175v28H63" id="m"/><path fill="#333" d="M18-150v-26h174v26H18zm0 90v-26h174v26H18" id="n"/><path fill="#333" d="M27 0v-27h64v-190l-56 39v-29l58-41h29v221h61V0H27" id="o"/><path fill="#333" d="M101-251c68 0 85 55 85 127S166 4 100 4C33 4 14-52 14-124c0-73 17-127 87-127zm-1 229c47 0 54-49 54-102s-4-102-53-102c-51 0-55 48-55 102 0 53 5 102 54 102" id="p"/><path fill="#333" d="M194-70c0 46-34 64-81 66v29H91V-4C42-5 12-27 4-67l30-6c5 28 25 41 57 43v-87c-38-9-76-20-76-67 1-42 33-58 76-59v-23h22v23c45 0 67 20 76 56l-31 6c-5-23-18-35-45-37v78c41 10 81 20 81 70zm-81 41c51 7 71-66 19-77-6-2-12-4-19-6v83zM91-219c-47-6-63 57-18 69 6 2 12 3 18 5v-74" id="q"/><g id="b"><use transform="matrix(0.04320987654320987,0,0,0.04320987654320987,0,0)" xlink:href="#m"/><use transform="matrix(0.04320987654320987,0,0,0.04320987654320987,9.46296296296296,0)" xlink:href="#n"/><use transform="matrix(0.04320987654320987,0,0,0.04320987654320987,18.53703703703703,0)" xlink:href="#o"/><use transform="matrix(0.04320987654320987,0,0,0.04320987654320987,27.179012345679006,0)" xlink:href="#p"/><use transform="matrix(0.04320987654320987,0,0,0.04320987654320987,35.82098765432098,0)" xlink:href="#p"/><use transform="matrix(0.04320987654320987,0,0,0.04320987654320987,44.462962962962955,0)" xlink:href="#q"/></g><path fill="#333" d="M24-231v-30h32v30H24zM24 0v-190h32V0H24" id="r"/><path fill="#333" d="M126-127c33 6 58 20 58 59 0 88-139 92-164 29-3-8-5-16-6-25l32-3c6 27 21 44 54 44 32 0 52-15 52-46 0-38-36-46-79-43v-28c39 1 72-4 72-42 0-27-17-43-46-43-28 0-47 15-49 41l-32-3c6-42 35-63 81-64 48-1 79 21 79 65 0 36-21 52-52 59" id="s"/><path fill="#333" d="M252-156c43 0 55 33 55 80 0 46-13 78-56 78-42 0-55-33-55-78 0-48 12-80 56-80zM93 0H65l162-248h28zM13-171c-1-47 13-79 56-79s55 33 55 79-13 79-55 79c-43 0-56-33-56-79zM251-17c28 0 30-29 30-59 0-31-1-60-29-60-29 0-31 29-31 60 0 29 2 59 30 59zM69-112c27 0 28-30 29-59 0-31-1-60-29-60-29 0-30 30-30 60s2 59 30 59" id="t"/><g id="c"><use transform="matrix(0.04320987654320987,0,0,0.04320987654320987,0,0)" xlink:href="#r"/><use transform="matrix(0.04320987654320987,0,0,0.04320987654320987,3.4135802469135794,0)" xlink:href="#n"/><use transform="matrix(0.04320987654320987,0,0,0.04320987654320987,12.487654320987652,0)" xlink:href="#s"/><use transform="matrix(0.04320987654320987,0,0,0.04320987654320987,21.129629629629626,0)" xlink:href="#p"/><use transform="matrix(0.04320987654320987,0,0,0.04320987654320987,29.771604938271597,0)" xlink:href="#t"/></g><path fill="#333" d="M115-194c55 1 70 41 70 98S169 2 115 4C84 4 66-9 55-30l1 105H24l-1-265h31l2 30c10-21 28-34 59-34zm-8 174c40 0 45-34 45-75s-6-73-45-74c-42 0-51 32-51 76 0 43 10 73 51 73" id="u"/><path fill="#333" d="M85-194c31 0 48 13 60 33l-1-100h32l1 261h-30c-2-10 0-23-3-31C134-8 116 4 85 4 32 4 16-35 15-94c0-66 23-100 70-100zm9 24c-40 0-46 34-46 75 0 40 6 74 45 74 42 0 51-32 51-76 0-42-9-74-50-73" id="v"/><path fill="#333" d="M108 0H70L1-190h34L89-25l56-165h34" id="w"/><g id="d"><use transform="matrix(0.04320987654320987,0,0,0.04320987654320987,0,0)" xlink:href="#u"/><use transform="matrix(0.04320987654320987,0,0,0.04320987654320987,8.641975308641973,0)" xlink:href="#v"/><use transform="matrix(0.04320987654320987,0,0,0.04320987654320987,17.283950617283946,0)" xlink:href="#w"/></g><path fill="#333" d="M117-194c89-4 53 116 60 194h-32v-121c0-31-8-49-39-48C34-167 62-67 57 0H25l-1-190h30c1 10-1 24 2 32 11-22 29-35 61-36" id="x"/><g id="e"><use transform="matrix(0.03703703703703702,0,0,0.03703703703703702,0,0)" xlink:href="#x"/><use transform="matrix(0.03703703703703702,0,0,0.03703703703703702,7.407407407407404,0)" xlink:href="#n"/></g><path fill="#333" d="M155-56V0h-30v-56H8v-25l114-167h33v167h35v25h-35zm-30-156c-27 46-58 90-88 131h88v-131" id="y"/><path fill="#333" d="M0 4l72-265h28L28 4H0" id="z"/><path fill="#333" d="M110-160c48 1 74 30 74 79 0 53-28 85-80 85-65 0-83-55-86-122-5-90 50-162 133-122 14 7 22 21 27 39l-31 6c-5-40-67-38-82-6-9 19-15 44-15 74 11-20 30-34 60-33zm-7 138c34 0 49-23 49-58s-16-56-50-56c-29 0-50 16-49 49 1 36 15 65 50 65" id="A"/><path fill="#333" d="M54-142c48-35 137-8 131 61C196 18 31 33 14-55l32-4c7 23 22 37 52 37 35-1 51-22 54-58 4-55-73-65-99-34H22l8-134h141v27H59" id="B"/><g id="f"><use transform="matrix(0.03703703703703702,0,0,0.03703703703703702,0,0)" xlink:href="#y"/><use transform="matrix(0.03703703703703702,0,0,0.03703703703703702,7.407407407407404,0)" xlink:href="#p"/><use transform="matrix(0.03703703703703702,0,0,0.03703703703703702,14.814814814814808,0)" xlink:href="#z"/><use transform="matrix(0.03703703703703702,0,0,0.03703703703703702,18.51851851851851,0)" xlink:href="#s"/><use transform="matrix(0.03703703703703702,0,0,0.03703703703703702,25.925925925925913,0)" xlink:href="#A"/><use transform="matrix(0.03703703703703702,0,0,0.03703703703703702,33.333333333333314,0)" xlink:href="#B"/></g><path fill="#333" d="M87 75C49 33 22-17 22-94c0-76 28-126 65-167h31c-38 41-64 92-64 168S80 34 118 75H87" id="C"/><g id="g"><use transform="matrix(0.03703703703703702,0,0,0.03703703703703702,0,0)" xlink:href="#u"/><use transform="matrix(0.03703703703703702,0,0,0.03703703703703702,7.407407407407404,0)" xlink:href="#C"/><use transform="matrix(0.03703703703703702,0,0,0.03703703703703702,11.81481481481481,0)" xlink:href="#y"/><use transform="matrix(0.03703703703703702,0,0,0.03703703703703702,19.222222222222214,0)" xlink:href="#B"/></g><path fill="#333" d="M33-261c38 41 65 92 65 168S71 34 33 75H2C39 34 66-17 66-93S39-220 2-261h31" id="D"/><g id="h"><use transform="matrix(0.03703703703703702,0,0,0.03703703703703702,0,0)" xlink:href="#v"/><use transform="matrix(0.03703703703703702,0,0,0.03703703703703702,7.407407407407404,0)" xlink:href="#D"/><use transform="matrix(0.03703703703703702,0,0,0.03703703703703702,11.81481481481481,0)" xlink:href="#w"/></g><g id="i"><use transform="matrix(0.03703703703703702,0,0,0.03703703703703702,0,0)" xlink:href="#y"/><use transform="matrix(0.03703703703703702,0,0,0.03703703703703702,7.407407407407404,0)" xlink:href="#p"/></g><path fill="#333" d="M141-36C126-15 110 5 73 4 37 3 15-17 15-53c-1-64 63-63 125-63 3-35-9-54-41-54-24 1-41 7-42 31l-33-3c5-37 33-52 76-52 45 0 72 20 72 64v82c-1 20 7 32 28 27v20c-31 9-61-2-59-35zM48-53c0 20 12 33 32 33 41-3 63-29 60-74-43 2-92-5-92 41" id="E"/><path fill="#333" d="M135-143c-3-34-86-38-87 0 15 53 115 12 119 90S17 21 10-45l28-5c4 36 97 45 98 0-10-56-113-15-118-90-4-57 82-63 122-42 12 7 21 19 24 35" id="F"/><g id="j"><use transform="matrix(0.03703703703703702,0,0,0.03703703703703702,0,0)" xlink:href="#C"/><use transform="matrix(0.03703703703703702,0,0,0.03703703703703702,4.407407407407406,0)" xlink:href="#v"/><use transform="matrix(0.03703703703703702,0,0,0.03703703703703702,11.81481481481481,0)" xlink:href="#r"/><use transform="matrix(0.03703703703703702,0,0,0.03703703703703702,14.740740740740735,0)" xlink:href="#E"/><use transform="matrix(0.03703703703703702,0,0,0.03703703703703702,22.148148148148138,0)" xlink:href="#F"/><use transform="matrix(0.03703703703703702,0,0,0.03703703703703702,28.814814814814802,0)" xlink:href="#D"/></g><path fill="#333" d="M30-248c87 1 191-15 191 75 0 78-77 80-158 76V0H30v-248zm33 125c57 0 124 11 124-50 0-59-68-47-124-48v98" id="G"/><path fill="#333" d="M96-169c-40 0-48 33-48 73s9 75 48 75c24 0 41-14 43-38l32 2c-6 37-31 61-74 61-59 0-76-41-82-99-10-93 101-131 147-64 4 7 5 14 7 22l-32 3c-4-21-16-35-41-35" id="H"/><path fill="#333" d="M103-251c84 0 111 97 45 133-19 10-37 24-39 52H78c0-63 77-55 77-114 0-30-21-42-52-43-32 0-53 17-56 46l-32-2c7-45 34-72 88-72zM77 0v-35h34V0H77" id="I"/><g id="k"><use transform="matrix(0.03703703703703702,0,0,0.03703703703703702,0,0)" xlink:href="#G"/><use transform="matrix(0.03703703703703702,0,0,0.03703703703703702,8.888888888888886,0)" xlink:href="#H"/><use transform="matrix(0.03703703703703702,0,0,0.03703703703703702,15.555555555555552,0)" xlink:href="#n"/><use transform="matrix(0.03703703703703702,0,0,0.03703703703703702,23.333333333333325,0)" xlink:href="#q"/><use transform="matrix(0.03703703703703702,0,0,0.03703703703703702,30.740740740740733,0)" xlink:href="#I"/></g></defs></g></svg>