<svg xmlns="http://www.w3.org/2000/svg" xmlns:xlink="http://www.w3.org/1999/xlink" xmlns:lucid="lucid" width="1310" height="741.6"><g transform="translate(-200 0)" lucid:page-tab-id="~TJGzZ2EY.ni"><path d="M0 0h1870.4v1323.2H0z" fill="#fff"/><path d="M1310 320c0 165.7-208.2 300-465 300S380 485.7 380 320 588.2 20 845 20s465 134.3 465 300z" fill="#fff"/><path d="M1309.13 338.2l-.68 6.5-.83 5.57m-2.2 11.95l-1.7 7.18-1.28 4.6m-3.6 11.62l-.15.43-3.14 8.43-1.05 2.5m-4.92 11.1l-1.65 3.52-3.84 7.33m-6.05 10.55l-5.47 8.62-1.1 1.6m-7.05 9.9l-5.16 6.8-2.32 2.8m-7.86 9.26l-6.1 6.78-2.14 2.17m-8.56 8.64l-8.87 8.32m-9.2 7.95l-2.35 2.04-7.1 5.62m-9.66 7.37l-9.25 6.73-.6.4m-10.13 6.72l-4.08 2.7-6.2 3.77m-10.42 6.27l-10.66 5.85m-10.75 5.67l-10.9 5.4m-11.03 5.1l-11.1 4.94m-11.3 4.53l-11.3 4.5m-11.46 4l-11.5 4m-11.62 3.54l-11.64 3.5m-11.75 3.1l-11.78 3.02m-11.85 2.7l-11.9 2.52m-11.93 2.3l-12 2.04M948 612.6l-12.07 1.5m-12.07 1.54l-3.54.44-8.55.72m-12.12 1.02l-8.98.75-3.14.13m-12.15.5l-12.15.52m-12.15.22L845 620l-6.08-.13m-12.15-.25l-12.16-.25m-12.12-.76l-12.14-.75m-12.1-1.02l-12.1-1.27m-12.08-1.32l-12.03-1.77M730 610.7l-3.26-.5-8.7-1.65m-11.95-2.27l-6.73-1.3-5.17-1.2M682.36 601l-9.22-2.16-2.6-.72m-11.7-3.27l-10.7-2.98-1-.33m-11.56-3.75l-11.14-3.63-.42-.15m-11.4-4.24l-10.5-3.9-.87-.37m-11.2-4.7l-8.85-3.72-2.33-1.1m-11-5.16l-6.18-2.9-4.73-2.48m-10.77-5.63l-2.63-1.36-7.96-4.6m-10.48-6.15l-10.27-6.52m-10.08-6.8l-7.6-5.27-2.3-1.75m-9.7-7.34l-1-.75-8.4-6.95m-9.16-8l-5.14-4.63-3.73-3.65m-8.58-8.6l-6.52-6.95-1.73-2m-7.86-9.26l-5.9-7.43-1.57-2.16m-7.03-9.9l-4.05-6.1-2.5-4.14m-6.07-10.54l-1.65-3-3.9-7.82m-4.9-11.12l-2.66-6.73-1.62-4.65m-3.67-11.58l-.15-.5-2.12-8.26-.65-3.04m-2.24-11.95l-.24-1.47-1.04-8.2-.2-2.4m-.76-12.12l-.08-1.95L380 320l.13-6.08m.74-12.13l.68-6.5.83-5.57m2.2-11.95l1.7-7.18 1.28-4.6m3.6-11.62l.15-.43 3.14-8.43 1.05-2.5m4.92-11.1l1.65-3.52 3.84-7.33m6.05-10.55l5.47-8.62 1.1-1.6m7.05-9.9l5.16-6.8 2.32-2.8m7.86-9.26l6.1-6.78 2.14-2.17m8.56-8.64l8.87-8.32m9.2-7.95l2.35-2.04 7.1-5.62m9.66-7.37l9.25-6.73.6-.4m10.13-6.72l4.08-2.7 6.2-3.77m10.42-6.27l10.66-5.85m10.75-5.67l10.9-5.4m11.03-5.1l11.1-4.94m11.3-4.53l11.3-4.5m11.46-4l11.5-4m11.62-3.54l11.64-3.5m11.75-3.1l11.78-3.02m11.85-2.7l11.9-2.52m11.93-2.3l12-2.04M742 27.4l12.07-1.5m12.07-1.54l3.54-.44 8.55-.72m12.12-1.02l8.98-.75 3.14-.13m12.15-.5l12.15-.52m12.15-.22L845 20l6.08.13m12.15.25l12.16.25m12.12.76l12.14.75m12.1 1.02l12.1 1.27m12.08 1.32l12.03 1.77M960 29.3l3.26.5 8.7 1.65m11.95 2.27l6.73 1.3 5.17 1.2m11.84 2.77l9.22 2.16 2.6.72m11.7 3.27l10.7 2.98 1 .33m11.56 3.75l11.14 3.63.42.15m11.4 4.24l10.5 3.9.87.37m11.2 4.7l8.85 3.72 2.33 1.1m11 5.16l6.18 2.9 4.73 2.48m10.77 5.63l2.63 1.36 7.96 4.6m10.48 6.15l10.27 6.52m10.08 6.8l7.6 5.27 2.3 1.75m9.7 7.34l1 .75 8.4 6.95m9.16 8l5.14 4.63 3.73 3.65m8.58 8.6l6.52 6.95 1.73 2m7.86 9.26l5.9 7.43 1.57 2.16m7.03 9.9l4.05 6.1 2.5 4.14m6.07 10.54l1.65 3 3.9 7.82m4.9 11.12l2.66 6.73 1.62 4.65m3.67 11.58l.15.5 2.12 8.26.65 3.04m2.24 11.95l.24 1.47 1.04 8.2.2 2.4m.76 12.12l.08 1.95.04 4.13-.13 6.08" stroke="#c92d39" stroke-width="3" fill="none"/><path d="M380 180c0 33.14-35.82 60-80 60s-80-26.86-80-60 35.82-60 80-60 80 26.86 80 60z" stroke="#5e5e5e" stroke-width="3" fill="#fff"/><use xlink:href="#a" transform="matrix(1,0,0,1,220,120) translate(15.282777777777776 62.77777777777778)"/><use xlink:href="#b" transform="matrix(1,0,0,1,220,120) translate(39.974135802469135 62.77777777777778)"/><path d="M1490 180c0 33.14-40.3 60-90 60s-90-26.86-90-60 40.3-60 90-60 90 26.86 90 60z" stroke="#5e5e5e" stroke-width="3" fill="#fff"/><use xlink:href="#c" transform="matrix(1,0,0,1,1310,120) translate(18.492654320987647 62.77777777777778)"/><path d="M380 661.6c0 33.14-35.82 60-80 60s-80-26.86-80-60 35.82-60 80-60 80 26.86 80 60z" stroke="#5e5e5e" stroke-width="3" fill="#fff"/><use xlink:href="#d" transform="matrix(1,0,0,1,220,601.5999999999999) translate(24.511172839506173 62.77777777777778)"/><use xlink:href="#e" transform="matrix(1,0,0,1,220,601.5999999999999) translate(49.202530864197534 62.77777777777778)"/><path d="M1480 661.6c0 33.14-35.82 60-80 60s-80-26.86-80-60 35.82-60 80-60 80 26.86 80 60z" stroke="#5e5e5e" stroke-width="3" fill="#fff"/><use xlink:href="#f" transform="matrix(1,0,0,1,1320,601.5999999999999) translate(36.17783950617284 62.77777777777778)"/><use xlink:href="#g" transform="matrix(1,0,0,1,1320,601.5999999999999) translate(60.8691975308642 62.77777777777778)"/><path d="M300 581.6V260" stroke="#5e5e5e" stroke-width="2" fill="none"/><path d="M300 596.86l-4.64-14.26h9.28zM300 244.74l4.64 14.26h-9.28z" stroke="#5e5e5e" stroke-width="2" fill="#5e5e5e"/><path d="M1317.5 661.6H400" stroke="#5e5e5e" stroke-width="2" fill="none"/><path d="M1318.5 661.58v.43l.02.6h-1.05v-2h1.06z" fill="#5e5e5e"/><path d="M384.74 661.6l14.26-4.64v9.28z" stroke="#5e5e5e" stroke-width="2" fill="#5e5e5e"/><path d="M1400 242.5v339.1" stroke="#5e5e5e" stroke-width="2" fill="none"/><path d="M1399.98 241.5h1.02v1.03h-2v-1.06z" fill="#5e5e5e"/><path d="M1400 596.86l-4.64-14.26h9.28z" stroke="#5e5e5e" stroke-width="2" fill="#5e5e5e"/><path d="M670 180c0 33.14-40.3 60-90 60s-90-26.86-90-60 40.3-60 90-60 90 26.86 90 60z" stroke="#5e5e5e" stroke-width="3" fill="#fff"/><use xlink:href="#h" transform="matrix(1,0,0,1,490,120) translate(74.57290123456791 24.787777777777777)"/><use xlink:href="#i" transform="matrix(1,0,0,1,490,120) translate(26.579074074074068 51.45444444444445)"/><use xlink:href="#j" transform="matrix(1,0,0,1,490,120) translate(42.504999999999995 78.1211111111111)"/><path d="M935 180c0 33.14-35.82 60-80 60s-80-26.86-80-60 35.82-60 80-60 80 26.86 80 60z" stroke="#5e5e5e" stroke-width="3" fill="#fff"/><use xlink:href="#k" transform="matrix(1,0,0,1,775,120) translate(39.91240740740741 62.77777777777778)"/><use xlink:href="#l" transform="matrix(1,0,0,1,775,120) translate(64.60376543209877 62.77777777777778)"/><path d="M1212.5 180c0 33.14-40.3 60-90 60s-90-26.86-90-60 40.3-60 90-60 90 26.86 90 60z" stroke="#5e5e5e" stroke-width="3" fill="#fff"/><use xlink:href="#m" transform="matrix(1,0,0,1,1032.5,120) translate(74.57290123456791 24.787777777777777)"/><use xlink:href="#i" transform="matrix(1,0,0,1,1032.5,120) translate(26.579074074074068 51.45444444444445)"/><use xlink:href="#n" transform="matrix(1,0,0,1,1032.5,120) translate(34.572901234567894 78.1211111111111)"/><path d="M382.5 180H470" stroke="#c92d39" stroke-width="2" fill="none"/><path d="M382.53 181h-1.06l.03-.98v-.43l-.02-.6h1.05z" fill="#c92d39"/><path d="M485.26 180L471 184.64v-9.28z" stroke="#c92d39" stroke-width="2" fill="#c92d39"/><path d="M672.5 180H755" stroke="#c92d39" stroke-width="2" fill="none"/><path d="M672.53 181h-1.06l.03-.98v-.68l-.02-.34h1.05z" fill="#c92d39"/><path d="M770.26 180L756 184.64v-9.28z" stroke="#c92d39" stroke-width="2" fill="#c92d39"/><path d="M937.5 180h75" stroke="#c92d39" stroke-width="2" fill="none"/><path d="M937.53 181h-1.06l.03-.98v-.43l-.02-.6h1.05z" fill="#c92d39"/><path d="M1027.76 180l-14.26 4.64v-9.28z" stroke="#c92d39" stroke-width="2" fill="#c92d39"/><path d="M1215 180h75" stroke="#c92d39" stroke-width="2" fill="none"/><path d="M1215.03 181h-1.06l.03-.98v-.68l-.02-.34h1.05z" fill="#c92d39"/><path d="M1305.26 180l-14.26 4.64v-9.28z" stroke="#c92d39" stroke-width="2" fill="#c92d39"/><path d="M680 526c0-3.3 2.7-6 6-6h228c3.3 0 6 2.7 6 6v49.6c0 3.3-2.7 6-6 6H686c-3.3 0-6-2.7-6-6z" stroke="#c92d39" stroke-width="3" fill="#fff"/><use xlink:href="#o" transform="matrix(1,0,0,1,685,525) translate(31.820987654320987 30.77777777777778)"/><use xlink:href="#p" transform="matrix(1,0,0,1,685,525) translate(124.29012345679011 30.77777777777778)"/><path d="M500 326c0-3.3 2.7-6 6-6h148c3.3 0 6 2.7 6 6v148c0 3.3-2.7 6-6 6H506c-3.3 0-6-2.7-6-6z" stroke="#5e5e5e" stroke-width="3" fill="#fff"/><use xlink:href="#q" transform="matrix(1,0,0,1,505,325) translate(13.611111111111114 27.15277777777778)"/><use xlink:href="#r" transform="matrix(1,0,0,1,505,325) translate(85.77160493827161 27.15277777777778)"/><use xlink:href="#s" transform="matrix(1,0,0,1,505,325) translate(75 53.81944444444445)"/><use xlink:href="#t" transform="matrix(1,0,0,1,505,325) translate(43.827160493827165 80.48611111111111)"/><use xlink:href="#s" transform="matrix(1,0,0,1,505,325) translate(75 107.1527777777778)"/><use xlink:href="#u" transform="matrix(1,0,0,1,505,325) translate(39.50617283950617 133.81944444444446)"/><path d="M775 326c0-3.3 2.7-6 6-6h148c3.3 0 6 2.7 6 6v148c0 3.3-2.7 6-6 6H781c-3.3 0-6-2.7-6-6z" stroke="#5e5e5e" stroke-width="3" fill="#fff"/><g><use xlink:href="#v" transform="matrix(1,0,0,1,780,325) translate(51.26543209876543 27.15277777777778)"/><use xlink:href="#s" transform="matrix(1,0,0,1,780,325) translate(75 53.81944444444445)"/><use xlink:href="#w" transform="matrix(1,0,0,1,780,325) translate(1.9444444444444287 80.48611111111111)"/><use xlink:href="#s" transform="matrix(1,0,0,1,780,325) translate(75 107.1527777777778)"/><use xlink:href="#x" transform="matrix(1,0,0,1,780,325) translate(41.388888888888886 133.81944444444446)"/></g><path d="M580 242.5V300" stroke="#5e5e5e" stroke-width="2" fill="none"/><path d="M579.98 241.5H581v1.03h-2v-1.06z" fill="#5e5e5e"/><path d="M580 315.26L575.36 301h9.28z" stroke="#5e5e5e" stroke-width="2" fill="#5e5e5e"/><path d="M855 242.5V300" stroke="#5e5e5e" stroke-width="2" fill="none"/><path d="M854.98 241.5H856v1.03h-2v-1.06z" fill="#5e5e5e"/><path d="M855 315.26L850.36 301h9.28z" stroke="#5e5e5e" stroke-width="2" fill="#5e5e5e"/><path d="M300 46c0-3.3 2.7-6 6-6h228c3.3 0 6 2.7 6 6v129.67c0 3.3-2.7 6-6 6H306c-3.3 0-6-2.7-6-6z" stroke="#000" stroke-opacity="0" stroke-width="3" fill="#fff" fill-opacity="0"/><g><use xlink:href="#y" transform="matrix(1,0,0,1,305,45) translate(15.06172839506172 59.02777777777778)"/><use xlink:href="#z" transform="matrix(1,0,0,1,305,45) translate(84.19753086419752 59.02777777777778)"/><use xlink:href="#A" transform="matrix(1,0,0,1,305,45) translate(107.59259259259258 59.02777777777778)"/><use xlink:href="#B" transform="matrix(1,0,0,1,305,45) translate(71.23456790123457 85.69444444444446)"/></g><defs><path fill="#333" d="M126-127c33 6 58 20 58 59 0 88-139 92-164 29-3-8-5-16-6-25l32-3c6 27 21 44 54 44 32 0 52-15 52-46 0-38-36-46-79-43v-28c39 1 72-4 72-42 0-27-17-43-46-43-28 0-47 15-49 41l-32-3c6-42 35-63 81-64 48-1 79 21 79 65 0 36-21 52-52 59" id="C"/><path fill="#333" d="M33 0v-38h34V0H33" id="D"/><g id="a"><use transform="matrix(0.06172839506172839,0,0,0.06172839506172839,0,0)" xlink:href="#C"/><use transform="matrix(0.06172839506172839,0,0,0.06172839506172839,12.345679012345679,0)" xlink:href="#D"/></g><path fill="#333" d="M63-220v92h138v28H63V0H30v-248h175v28H63" id="E"/><path fill="#333" d="M141-36C126-15 110 5 73 4 37 3 15-17 15-53c-1-64 63-63 125-63 3-35-9-54-41-54-24 1-41 7-42 31l-33-3c5-37 33-52 76-52 45 0 72 20 72 64v82c-1 20 7 32 28 27v20c-31 9-61-2-59-35zM48-53c0 20 12 33 32 33 41-3 63-29 60-74-43 2-92-5-92 41" id="F"/><path fill="#333" d="M115-194c53 0 69 39 70 98 0 66-23 100-70 100C84 3 66-7 56-30L54 0H23l1-261h32v101c10-23 28-34 59-34zm-8 174c40 0 45-34 45-75 0-40-5-75-45-74-42 0-51 32-51 76 0 43 10 73 51 73" id="G"/><path fill="#333" d="M114-163C36-179 61-72 57 0H25l-1-190h30c1 12-1 29 2 39 6-27 23-49 58-41v29" id="H"/><path fill="#333" d="M24-231v-30h32v30H24zM24 0v-190h32V0H24" id="I"/><path fill="#333" d="M96-169c-40 0-48 33-48 73s9 75 48 75c24 0 41-14 43-38l32 2c-6 37-31 61-74 61-59 0-76-41-82-99-10-93 101-131 147-64 4 7 5 14 7 22l-32 3c-4-21-16-35-41-35" id="J"/><path fill="#333" d="M117-194c89-4 53 116 60 194h-32v-121c0-31-8-49-39-48C34-167 62-67 57 0H25l-1-190h30c1 10-1 24 2 32 11-22 29-35 61-36" id="K"/><path fill="#333" d="M59-47c-2 24 18 29 38 22v24C64 9 27 4 27-40v-127H5v-23h24l9-43h21v43h35v23H59v120" id="L"/><path fill="#333" d="M100-194c63 0 86 42 84 106H49c0 40 14 67 53 68 26 1 43-12 49-29l28 8c-11 28-37 45-77 45C44 4 14-33 15-96c1-61 26-98 85-98zm52 81c6-60-76-77-97-28-3 7-6 17-6 28h103" id="M"/><g id="b"><use transform="matrix(0.06172839506172839,0,0,0.06172839506172839,0,0)" xlink:href="#E"/><use transform="matrix(0.06172839506172839,0,0,0.06172839506172839,13.518518518518517,0)" xlink:href="#F"/><use transform="matrix(0.06172839506172839,0,0,0.06172839506172839,25.864197530864196,0)" xlink:href="#G"/><use transform="matrix(0.06172839506172839,0,0,0.06172839506172839,38.20987654320987,0)" xlink:href="#H"/><use transform="matrix(0.06172839506172839,0,0,0.06172839506172839,45.55555555555555,0)" xlink:href="#I"/><use transform="matrix(0.06172839506172839,0,0,0.06172839506172839,50.432098765432094,0)" xlink:href="#J"/><use transform="matrix(0.06172839506172839,0,0,0.06172839506172839,61.5432098765432,0)" xlink:href="#F"/><use transform="matrix(0.06172839506172839,0,0,0.06172839506172839,73.88888888888889,0)" xlink:href="#K"/><use transform="matrix(0.06172839506172839,0,0,0.06172839506172839,86.23456790123457,0)" xlink:href="#L"/><use transform="matrix(0.06172839506172839,0,0,0.06172839506172839,92.4074074074074,0)" xlink:href="#M"/></g><path fill="#333" d="M155-56V0h-30v-56H8v-25l114-167h33v167h35v25h-35zm-30-156c-27 46-58 90-88 131h88v-131" id="N"/><path fill="#333" d="M33 0v-248h34V0H33" id="O"/><path fill="#333" d="M108 0H70L1-190h34L89-25l56-165h34" id="P"/><path fill="#333" d="M135-143c-3-34-86-38-87 0 15 53 115 12 119 90S17 21 10-45l28-5c4 36 97 45 98 0-10-56-113-15-118-90-4-57 82-63 122-42 12 7 21 19 24 35" id="Q"/><path fill="#333" d="M100-194c62-1 85 37 85 99 1 63-27 99-86 99S16-35 15-95c0-66 28-99 85-99zM99-20c44 1 53-31 53-75 0-43-8-75-51-75s-53 32-53 75 10 74 51 75" id="R"/><g id="c"><use transform="matrix(0.06172839506172839,0,0,0.06172839506172839,0,0)" xlink:href="#N"/><use transform="matrix(0.06172839506172839,0,0,0.06172839506172839,12.345679012345679,0)" xlink:href="#D"/><use transform="matrix(0.06172839506172839,0,0,0.06172839506172839,18.51851851851852,0)" xlink:href="#O"/><use transform="matrix(0.06172839506172839,0,0,0.06172839506172839,24.691358024691358,0)" xlink:href="#K"/><use transform="matrix(0.06172839506172839,0,0,0.06172839506172839,37.03703703703704,0)" xlink:href="#P"/><use transform="matrix(0.06172839506172839,0,0,0.06172839506172839,48.14814814814815,0)" xlink:href="#M"/><use transform="matrix(0.06172839506172839,0,0,0.06172839506172839,60.49382716049383,0)" xlink:href="#H"/><use transform="matrix(0.06172839506172839,0,0,0.06172839506172839,67.8395061728395,0)" xlink:href="#Q"/><use transform="matrix(0.06172839506172839,0,0,0.06172839506172839,78.95061728395062,0)" xlink:href="#I"/><use transform="matrix(0.06172839506172839,0,0,0.06172839506172839,83.82716049382717,0)" xlink:href="#R"/><use transform="matrix(0.06172839506172839,0,0,0.06172839506172839,96.17283950617285,0)" xlink:href="#K"/><use transform="matrix(0.06172839506172839,0,0,0.06172839506172839,108.51851851851853,0)" xlink:href="#I"/><use transform="matrix(0.06172839506172839,0,0,0.06172839506172839,113.39506172839508,0)" xlink:href="#Q"/><use transform="matrix(0.06172839506172839,0,0,0.06172839506172839,124.50617283950619,0)" xlink:href="#L"/><use transform="matrix(0.06172839506172839,0,0,0.06172839506172839,130.67901234567904,0)" xlink:href="#F"/></g><path fill="#333" d="M101-251c82-7 93 87 43 132L82-64C71-53 59-42 53-27h129V0H18c2-99 128-94 128-182 0-28-16-43-45-43s-46 15-49 41l-32-3c6-41 34-60 81-64" id="S"/><g id="d"><use transform="matrix(0.06172839506172839,0,0,0.06172839506172839,0,0)" xlink:href="#S"/><use transform="matrix(0.06172839506172839,0,0,0.06172839506172839,12.345679012345679,0)" xlink:href="#D"/></g><path fill="#333" d="M205 0l-28-72H64L36 0H1l101-248h38L239 0h-34zm-38-99l-47-123c-12 45-31 82-46 123h93" id="T"/><path fill="#333" d="M24 0v-261h32V0H24" id="U"/><path fill="#333" d="M210-169c-67 3-38 105-44 169h-31v-121c0-29-5-50-35-48C34-165 62-65 56 0H25l-1-190h30c1 10-1 24 2 32 10-44 99-50 107 0 11-21 27-35 58-36 85-2 47 119 55 194h-31v-121c0-29-5-49-35-48" id="V"/><g id="e"><use transform="matrix(0.06172839506172839,0,0,0.06172839506172839,0,0)" xlink:href="#T"/><use transform="matrix(0.06172839506172839,0,0,0.06172839506172839,14.814814814814813,0)" xlink:href="#U"/><use transform="matrix(0.06172839506172839,0,0,0.06172839506172839,19.691358024691354,0)" xlink:href="#V"/><use transform="matrix(0.06172839506172839,0,0,0.06172839506172839,38.14814814814814,0)" xlink:href="#F"/><use transform="matrix(0.06172839506172839,0,0,0.06172839506172839,50.493827160493815,0)" xlink:href="#J"/><use transform="matrix(0.06172839506172839,0,0,0.06172839506172839,61.60493827160492,0)" xlink:href="#M"/><use transform="matrix(0.06172839506172839,0,0,0.06172839506172839,73.9506172839506,0)" xlink:href="#K"/></g><path fill="#333" d="M27 0v-27h64v-190l-56 39v-29l58-41h29v221h61V0H27" id="W"/><g id="f"><use transform="matrix(0.06172839506172839,0,0,0.06172839506172839,0,0)" xlink:href="#W"/><use transform="matrix(0.06172839506172839,0,0,0.06172839506172839,12.345679012345679,0)" xlink:href="#D"/></g><path fill="#333" d="M160-131c35 5 61 23 61 61C221 17 115-2 30 0v-248c76 3 177-17 177 60 0 33-19 50-47 57zm-97-11c50-1 110 9 110-42 0-47-63-36-110-37v79zm0 115c55-2 124 14 124-45 0-56-70-42-124-44v89" id="X"/><g id="g"><use transform="matrix(0.06172839506172839,0,0,0.06172839506172839,0,0)" xlink:href="#X"/><use transform="matrix(0.06172839506172839,0,0,0.06172839506172839,14.814814814814813,0)" xlink:href="#F"/><use transform="matrix(0.06172839506172839,0,0,0.06172839506172839,27.160493827160494,0)" xlink:href="#K"/><use transform="matrix(0.06172839506172839,0,0,0.06172839506172839,39.50617283950617,0)" xlink:href="#J"/><use transform="matrix(0.06172839506172839,0,0,0.06172839506172839,50.61728395061728,0)" xlink:href="#R"/></g><path fill="#333" d="M54-142c48-35 137-8 131 61C196 18 31 33 14-55l32-4c7 23 22 37 52 37 35-1 51-22 54-58 4-55-73-65-99-34H22l8-134h141v27H59" id="Y"/><g id="h"><use transform="matrix(0.06172839506172839,0,0,0.06172839506172839,0,0)" xlink:href="#Y"/><use transform="matrix(0.06172839506172839,0,0,0.06172839506172839,12.345679012345679,0)" xlink:href="#D"/><use transform="matrix(0.06172839506172839,0,0,0.06172839506172839,18.51851851851852,0)" xlink:href="#W"/></g><path fill="#333" d="M212-179c-10-28-35-45-73-45-59 0-87 40-87 99 0 60 29 101 89 101 43 0 62-24 78-52l27 14C228-24 195 4 139 4 59 4 22-46 18-125c-6-104 99-153 187-111 19 9 31 26 39 46" id="Z"/><g id="i"><use transform="matrix(0.06172839506172839,0,0,0.06172839506172839,0,0)" xlink:href="#Z"/><use transform="matrix(0.06172839506172839,0,0,0.06172839506172839,15.987654320987653,0)" xlink:href="#R"/><use transform="matrix(0.06172839506172839,0,0,0.06172839506172839,28.333333333333332,0)" xlink:href="#V"/><use transform="matrix(0.06172839506172839,0,0,0.06172839506172839,46.79012345679012,0)" xlink:href="#I"/><use transform="matrix(0.06172839506172839,0,0,0.06172839506172839,51.666666666666664,0)" xlink:href="#Q"/><use transform="matrix(0.06172839506172839,0,0,0.06172839506172839,62.77777777777777,0)" xlink:href="#I"/><use transform="matrix(0.06172839506172839,0,0,0.06172839506172839,67.65432098765432,0)" xlink:href="#R"/><use transform="matrix(0.06172839506172839,0,0,0.06172839506172839,80,0)" xlink:href="#K"/><use transform="matrix(0.06172839506172839,0,0,0.06172839506172839,92.34567901234568,0)" xlink:href="#I"/><use transform="matrix(0.06172839506172839,0,0,0.06172839506172839,97.22222222222223,0)" xlink:href="#Q"/><use transform="matrix(0.06172839506172839,0,0,0.06172839506172839,108.33333333333334,0)" xlink:href="#L"/><use transform="matrix(0.06172839506172839,0,0,0.06172839506172839,114.50617283950618,0)" xlink:href="#F"/></g><path fill="#333" d="M137 0h-34L2-248h35l83 218 83-218h36" id="aa"/><path fill="#333" d="M85-194c31 0 48 13 60 33l-1-100h32l1 261h-30c-2-10 0-23-3-31C134-8 116 4 85 4 32 4 16-35 15-94c0-66 23-100 70-100zm9 24c-40 0-46 34-46 75 0 40 6 74 45 74 42 0 51-32 51-76 0-42-9-74-50-73" id="ab"/><g id="j"><use transform="matrix(0.06172839506172839,0,0,0.06172839506172839,0,0)" xlink:href="#aa"/><use transform="matrix(0.06172839506172839,0,0,0.06172839506172839,13.580246913580245,0)" xlink:href="#M"/><use transform="matrix(0.06172839506172839,0,0,0.06172839506172839,25.925925925925924,0)" xlink:href="#K"/><use transform="matrix(0.06172839506172839,0,0,0.06172839506172839,38.2716049382716,0)" xlink:href="#ab"/><use transform="matrix(0.06172839506172839,0,0,0.06172839506172839,50.61728395061728,0)" xlink:href="#M"/><use transform="matrix(0.06172839506172839,0,0,0.06172839506172839,62.962962962962955,0)" xlink:href="#ab"/><use transform="matrix(0.06172839506172839,0,0,0.06172839506172839,75.30864197530863,0)" xlink:href="#R"/><use transform="matrix(0.06172839506172839,0,0,0.06172839506172839,87.65432098765432,0)" xlink:href="#H"/></g><g id="k"><use transform="matrix(0.06172839506172839,0,0,0.06172839506172839,0,0)" xlink:href="#Y"/><use transform="matrix(0.06172839506172839,0,0,0.06172839506172839,12.345679012345679,0)" xlink:href="#D"/></g><g id="l"><use transform="matrix(0.06172839506172839,0,0,0.06172839506172839,0,0)" xlink:href="#X"/><use transform="matrix(0.06172839506172839,0,0,0.06172839506172839,14.814814814814813,0)" xlink:href="#R"/><use transform="matrix(0.06172839506172839,0,0,0.06172839506172839,27.160493827160494,0)" xlink:href="#U"/><use transform="matrix(0.06172839506172839,0,0,0.06172839506172839,32.03703703703704,0)" xlink:href="#Q"/><use transform="matrix(0.06172839506172839,0,0,0.06172839506172839,43.14814814814815,0)" xlink:href="#F"/></g><g id="m"><use transform="matrix(0.06172839506172839,0,0,0.06172839506172839,0,0)" xlink:href="#Y"/><use transform="matrix(0.06172839506172839,0,0,0.06172839506172839,12.345679012345679,0)" xlink:href="#D"/><use transform="matrix(0.06172839506172839,0,0,0.06172839506172839,18.51851851851852,0)" xlink:href="#S"/></g><path fill="#333" d="M115-194c55 1 70 41 70 98S169 2 115 4C84 4 66-9 55-30l1 105H24l-1-265h31l2 30c10-21 28-34 59-34zm-8 174c40 0 45-34 45-75s-6-73-45-74c-42 0-51 32-51 76 0 43 10 73 51 73" id="ac"/><g id="n"><use transform="matrix(0.06172839506172839,0,0,0.06172839506172839,0,0)" xlink:href="#Z"/><use transform="matrix(0.06172839506172839,0,0,0.06172839506172839,15.987654320987653,0)" xlink:href="#R"/><use transform="matrix(0.06172839506172839,0,0,0.06172839506172839,28.333333333333332,0)" xlink:href="#V"/><use transform="matrix(0.06172839506172839,0,0,0.06172839506172839,46.79012345679012,0)" xlink:href="#ac"/><use transform="matrix(0.06172839506172839,0,0,0.06172839506172839,59.1358024691358,0)" xlink:href="#H"/><use transform="matrix(0.06172839506172839,0,0,0.06172839506172839,66.48148148148148,0)" xlink:href="#F"/><use transform="matrix(0.06172839506172839,0,0,0.06172839506172839,78.82716049382717,0)" xlink:href="#ab"/><use transform="matrix(0.06172839506172839,0,0,0.06172839506172839,91.17283950617285,0)" xlink:href="#R"/><use transform="matrix(0.06172839506172839,0,0,0.06172839506172839,103.51851851851853,0)" xlink:href="#H"/></g><path fill="#333" d="M240 0l2-218c-23 76-54 145-80 218h-23L58-218 59 0H30v-248h44l77 211c21-75 51-140 76-211h43V0h-30" id="ad"/><g id="o"><use transform="matrix(0.06172839506172839,0,0,0.06172839506172839,0,0)" xlink:href="#ad"/><use transform="matrix(0.06172839506172839,0,0,0.06172839506172839,18.456790123456788,0)" xlink:href="#M"/><use transform="matrix(0.06172839506172839,0,0,0.06172839506172839,30.80246913580247,0)" xlink:href="#H"/><use transform="matrix(0.06172839506172839,0,0,0.06172839506172839,38.148148148148145,0)" xlink:href="#J"/><use transform="matrix(0.06172839506172839,0,0,0.06172839506172839,49.25925925925925,0)" xlink:href="#F"/><use transform="matrix(0.06172839506172839,0,0,0.06172839506172839,61.60493827160493,0)" xlink:href="#ab"/><use transform="matrix(0.06172839506172839,0,0,0.06172839506172839,73.9506172839506,0)" xlink:href="#R"/></g><path fill="#333" d="M84 4C-5 8 30-112 23-190h32v120c0 31 7 50 39 49 72-2 45-101 50-169h31l1 190h-30c-1-10 1-25-2-33-11 22-28 36-60 37" id="ae"/><path fill="#333" d="M141-36C126-15 110 5 73 4 37 3 15-17 15-53c-1-64 63-63 125-63 3-35-9-54-41-54-24 1-41 7-42 31l-33-3c5-37 33-52 76-52 45 0 72 20 72 64v82c-1 20 7 32 28 27v20c-31 9-61-2-59-35zM48-53c0 20 12 33 32 33 41-3 63-29 60-74-43 2-92-5-92 41zm25-158c8-23 27-35 38-54h36v5l-58 49H73" id="af"/><g id="p"><use transform="matrix(0.06172839506172839,0,0,0.06172839506172839,0,0)" xlink:href="#X"/><use transform="matrix(0.06172839506172839,0,0,0.06172839506172839,14.814814814814813,0)" xlink:href="#ae"/><use transform="matrix(0.06172839506172839,0,0,0.06172839506172839,27.160493827160494,0)" xlink:href="#H"/><use transform="matrix(0.06172839506172839,0,0,0.06172839506172839,34.50617283950617,0)" xlink:href="#Q"/><use transform="matrix(0.06172839506172839,0,0,0.06172839506172839,45.61728395061728,0)" xlink:href="#af"/><use transform="matrix(0.06172839506172839,0,0,0.06172839506172839,57.962962962962955,0)" xlink:href="#L"/><use transform="matrix(0.06172839506172839,0,0,0.06172839506172839,64.1358024691358,0)" xlink:href="#I"/><use transform="matrix(0.06172839506172839,0,0,0.06172839506172839,69.01234567901234,0)" xlink:href="#U"/></g><path fill="#333" d="M18-150v-26h174v26H18zm0 90v-26h174v26H18" id="ag"/><g id="q"><use transform="matrix(0.06172839506172839,0,0,0.06172839506172839,0,0)" xlink:href="#J"/><use transform="matrix(0.06172839506172839,0,0,0.06172839506172839,11.11111111111111,0)" xlink:href="#R"/><use transform="matrix(0.06172839506172839,0,0,0.06172839506172839,23.45679012345679,0)" xlink:href="#V"/><use transform="matrix(0.06172839506172839,0,0,0.06172839506172839,41.91358024691358,0)" xlink:href="#P"/><use transform="matrix(0.06172839506172839,0,0,0.06172839506172839,53.0246913580247,0)" xlink:href="#ag"/></g><path fill="#333" d="M101-251c68 0 85 55 85 127S166 4 100 4C33 4 14-52 14-124c0-73 17-127 87-127zm-1 229c47 0 54-49 54-102s-4-102-53-102c-51 0-55 48-55 102 0 53 5 102 54 102" id="ah"/><path fill="#333" d="M68-38c1 34 0 65-14 84H32c9-13 17-26 17-46H33v-38h35" id="ai"/><path fill="#333" d="M252-156c43 0 55 33 55 80 0 46-13 78-56 78-42 0-55-33-55-78 0-48 12-80 56-80zM93 0H65l162-248h28zM13-171c-1-47 13-79 56-79s55 33 55 79-13 79-55 79c-43 0-56-33-56-79zM251-17c28 0 30-29 30-59 0-31-1-60-29-60-29 0-31 29-31 60 0 29 2 59 30 59zM69-112c27 0 28-30 29-59 0-31-1-60-29-60-29 0-30 30-30 60s2 59 30 59" id="aj"/><g id="r"><use transform="matrix(0.06172839506172839,0,0,0.06172839506172839,0,0)" xlink:href="#ah"/><use transform="matrix(0.06172839506172839,0,0,0.06172839506172839,12.345679012345679,0)" xlink:href="#ai"/><use transform="matrix(0.06172839506172839,0,0,0.06172839506172839,18.51851851851852,0)" xlink:href="#Y"/><use transform="matrix(0.06172839506172839,0,0,0.06172839506172839,30.864197530864196,0)" xlink:href="#aj"/></g><path fill="#333" d="M103-251c84 0 111 97 45 133-19 10-37 24-39 52H78c0-63 77-55 77-114 0-30-21-42-52-43-32 0-53 17-56 46l-32-2c7-45 34-72 88-72zM77 0v-35h34V0H77" id="ak"/><g id="t"><use transform="matrix(0.06172839506172839,0,0,0.06172839506172839,0,0)" xlink:href="#O"/><use transform="matrix(0.06172839506172839,0,0,0.06172839506172839,6.172839506172839,0)" xlink:href="#P"/><use transform="matrix(0.06172839506172839,0,0,0.06172839506172839,17.28395061728395,0)" xlink:href="#ag"/><use transform="matrix(0.06172839506172839,0,0,0.06172839506172839,30.24691358024691,0)" xlink:href="#aj"/><use transform="matrix(0.06172839506172839,0,0,0.06172839506172839,50,0)" xlink:href="#ak"/></g><path fill="#333" d="M30-248c87 1 191-15 191 75 0 78-77 80-158 76V0H30v-248zm33 125c57 0 124 11 124-50 0-59-68-47-124-48v98" id="al"/><g id="u"><use transform="matrix(0.06172839506172839,0,0,0.06172839506172839,0,0)" xlink:href="#al"/><use transform="matrix(0.06172839506172839,0,0,0.06172839506172839,14.814814814814813,0)" xlink:href="#P"/><use transform="matrix(0.06172839506172839,0,0,0.06172839506172839,25.925925925925924,0)" xlink:href="#ag"/><use transform="matrix(0.06172839506172839,0,0,0.06172839506172839,38.888888888888886,0)" xlink:href="#aj"/><use transform="matrix(0.06172839506172839,0,0,0.06172839506172839,58.641975308641975,0)" xlink:href="#ak"/></g><g id="v"><use transform="matrix(0.06172839506172839,0,0,0.06172839506172839,0,0)" xlink:href="#al"/><use transform="matrix(0.06172839506172839,0,0,0.06172839506172839,14.814814814814813,0)" xlink:href="#H"/><use transform="matrix(0.06172839506172839,0,0,0.06172839506172839,22.160493827160494,0)" xlink:href="#ag"/><use transform="matrix(0.06172839506172839,0,0,0.06172839506172839,35.123456790123456,0)" xlink:href="#ak"/></g><path fill="#333" d="M87 75C49 33 22-17 22-94c0-76 28-126 65-167h31c-38 41-64 92-64 168S80 34 118 75H87" id="am"/><path fill="#333" d="M99-251c64 0 84 50 84 122C183-37 130 33 47-8c-14-7-20-23-25-40l30-5c6 39 69 39 84 7 9-19 16-44 16-74-10 22-31 35-62 35-49 0-73-33-73-83 0-54 28-83 82-83zm-1 141c31-1 51-18 51-49 0-36-14-67-51-67-34 0-49 23-49 58 0 34 15 58 49 58" id="an"/><path fill="#333" d="M33-261c38 41 65 92 65 168S71 34 33 75H2C39 34 66-17 66-93S39-220 2-261h31" id="ao"/><g id="w"><use transform="matrix(0.06172839506172839,0,0,0.06172839506172839,0,0)" xlink:href="#O"/><use transform="matrix(0.06172839506172839,0,0,0.06172839506172839,6.172839506172839,0)" xlink:href="#H"/><use transform="matrix(0.06172839506172839,0,0,0.06172839506172839,13.518518518518519,0)" xlink:href="#ag"/><use transform="matrix(0.06172839506172839,0,0,0.06172839506172839,26.48148148148148,0)" xlink:href="#C"/><use transform="matrix(0.06172839506172839,0,0,0.06172839506172839,38.82716049382716,0)" xlink:href="#ah"/><use transform="matrix(0.06172839506172839,0,0,0.06172839506172839,51.172839506172835,0)" xlink:href="#aj"/><use transform="matrix(0.06172839506172839,0,0,0.06172839506172839,70.92592592592592,0)" xlink:href="#ac"/><use transform="matrix(0.06172839506172839,0,0,0.06172839506172839,83.27160493827161,0)" xlink:href="#am"/><use transform="matrix(0.06172839506172839,0,0,0.06172839506172839,90.61728395061729,0)" xlink:href="#an"/><use transform="matrix(0.06172839506172839,0,0,0.06172839506172839,102.96296296296298,0)" xlink:href="#ah"/><use transform="matrix(0.06172839506172839,0,0,0.06172839506172839,115.30864197530866,0)" xlink:href="#ab"/><use transform="matrix(0.06172839506172839,0,0,0.06172839506172839,127.65432098765434,0)" xlink:href="#ao"/><use transform="matrix(0.06172839506172839,0,0,0.06172839506172839,135.00000000000003,0)" xlink:href="#P"/></g><g id="x"><use transform="matrix(0.06172839506172839,0,0,0.06172839506172839,0,0)" xlink:href="#al"/><use transform="matrix(0.06172839506172839,0,0,0.06172839506172839,14.814814814814813,0)" xlink:href="#H"/><use transform="matrix(0.06172839506172839,0,0,0.06172839506172839,22.160493827160494,0)" xlink:href="#ag"/><use transform="matrix(0.06172839506172839,0,0,0.06172839506172839,35.123456790123456,0)" xlink:href="#aj"/><use transform="matrix(0.06172839506172839,0,0,0.06172839506172839,54.876543209876544,0)" xlink:href="#ak"/></g><g id="y"><use transform="matrix(0.06172839506172839,0,0,0.06172839506172839,0,0)" xlink:href="#aa"/><use transform="matrix(0.06172839506172839,0,0,0.06172839506172839,13.580246913580245,0)" xlink:href="#M"/><use transform="matrix(0.06172839506172839,0,0,0.06172839506172839,25.925925925925924,0)" xlink:href="#K"/><use transform="matrix(0.06172839506172839,0,0,0.06172839506172839,38.2716049382716,0)" xlink:href="#ab"/><use transform="matrix(0.06172839506172839,0,0,0.06172839506172839,50.61728395061728,0)" xlink:href="#M"/></g><g id="z"><use transform="matrix(0.06172839506172839,0,0,0.06172839506172839,0,0)" xlink:href="#U"/><use transform="matrix(0.06172839506172839,0,0,0.06172839506172839,4.876543209876543,0)" xlink:href="#F"/></g><g id="A"><use transform="matrix(0.06172839506172839,0,0,0.06172839506172839,0,0)" xlink:href="#F"/><use transform="matrix(0.06172839506172839,0,0,0.06172839506172839,12.345679012345679,0)" xlink:href="#J"/><use transform="matrix(0.06172839506172839,0,0,0.06172839506172839,23.45679012345679,0)" xlink:href="#M"/><use transform="matrix(0.06172839506172839,0,0,0.06172839506172839,35.80246913580247,0)" xlink:href="#ac"/><use transform="matrix(0.06172839506172839,0,0,0.06172839506172839,48.148148148148145,0)" xlink:href="#L"/><use transform="matrix(0.06172839506172839,0,0,0.06172839506172839,54.32098765432099,0)" xlink:href="#F"/><use transform="matrix(0.06172839506172839,0,0,0.06172839506172839,66.66666666666667,0)" xlink:href="#J"/><use transform="matrix(0.06172839506172839,0,0,0.06172839506172839,77.77777777777779,0)" xlink:href="#I"/><use transform="matrix(0.06172839506172839,0,0,0.06172839506172839,82.65432098765433,0)" xlink:href="#R"/><use transform="matrix(0.06172839506172839,0,0,0.06172839506172839,95.00000000000001,0)" xlink:href="#K"/></g><g id="B"><use transform="matrix(0.06172839506172839,0,0,0.06172839506172839,0,0)" xlink:href="#X"/><use transform="matrix(0.06172839506172839,0,0,0.06172839506172839,14.814814814814813,0)" xlink:href="#F"/><use transform="matrix(0.06172839506172839,0,0,0.06172839506172839,27.160493827160494,0)" xlink:href="#K"/><use transform="matrix(0.06172839506172839,0,0,0.06172839506172839,39.50617283950617,0)" xlink:href="#J"/><use transform="matrix(0.06172839506172839,0,0,0.06172839506172839,50.61728395061728,0)" xlink:href="#F"/><use transform="matrix(0.06172839506172839,0,0,0.06172839506172839,62.962962962962955,0)" xlink:href="#H"/><use transform="matrix(0.06172839506172839,0,0,0.06172839506172839,70.30864197530863,0)" xlink:href="#I"/><use transform="matrix(0.06172839506172839,0,0,0.06172839506172839,75.18518518518518,0)" xlink:href="#F"/></g></defs></g></svg>