<?xml version="1.0" encoding="utf-8"?>
<!-- Generator: Adobe Illustrator 23.0.1, SVG Export Plug-In . SVG Version: 6.00 Build 0)  -->
<svg version="1.1" id="Capa_1" xmlns:lucid="lucid" xmlns="http://www.w3.org/2000/svg" xmlns:xlink="http://www.w3.org/1999/xlink"
	 x="0px" y="0px" viewBox="0 0 260 260" style="enable-background:new 0 0 260 260;" xml:space="preserve">
<style type="text/css">
	.st0{fill:none;stroke:#5E5E5E;stroke-miterlimit:10;}
	.st1{fill:#5E5E5E;}
	.st2{fill:none;stroke:#5E5E5E;stroke-miterlimit:10;stroke-dasharray:4.9635,4.9635;}
	.st3{fill:none;stroke:#00C100;}
	.st4{fill:#00C100;}
	.st5{fill:none;stroke:#F70000;stroke-width:1.5;}
	.st6{fill:#F70000;}
	.st7{font-family:'MyriadPro-Regular';}
	.st8{font-size:11.4923px;}
	.st9{fill:none;stroke:#3AA6DD;stroke-width:1.5;}
	.st10{fill:none;stroke:#3AA6DD;stroke-width:1.5;stroke-dasharray:4.93,4.93;}
	.st11{fill:#3AA6DD;}
	.st12{font-size:9.5769px;}
	.st13{fill:none;stroke:#3AA6DD;stroke-width:1.5;stroke-dasharray:5.0346,5.0346;}
</style>
<g>
	<g>
		<g>
			<line class="st0" x1="44.9" y1="79" x2="223.6" y2="79"/>
			<g>
				<path class="st1" d="M229.7,79c-2.8,1.1-6.4,2.9-8.5,4.8l1.7-4.8l-1.7-4.8C223.3,76.2,226.8,78,229.7,79z"/>
			</g>
		</g>
	</g>
	<line class="st0" x1="110.4" y1="130.5" x2="206" y2="130.5"/>
	<g>
		<g>
			<line class="st0" x1="44.9" y1="188.3" x2="44.9" y2="185.8"/>
			<line class="st2" x1="44.9" y1="180.8" x2="44.9" y2="84"/>
			<line class="st0" x1="44.9" y1="81.5" x2="44.9" y2="79"/>
		</g>
	</g>
	<g>
		<g>
			<line class="st3" x1="44.9" y1="79" x2="44.9" y2="33.6"/>
			<g>
				<path class="st4" d="M44.9,27.5c1.1,2.8,2.9,6.4,4.8,8.5l-4.8-1.7l-4.8,1.7C42,33.9,43.8,30.4,44.9,27.5z"/>
			</g>
		</g>
	</g>
	<g>
		<g>
			<line class="st5" x1="110.4" y1="79" x2="110.4" y2="121.5"/>
			<g>
				<path class="st6" d="M110.4,130.5c-1.6-4.3-4.3-9.5-7.1-12.8l7.1,2.6l7.1-2.6C114.7,121,112,126.3,110.4,130.5z"/>
			</g>
		</g>
	</g>
	<g>
		<g>
			<line class="st5" x1="142.3" y1="79" x2="142.3" y2="121.5"/>
			<g>
				<path class="st6" d="M142.3,130.5c-1.6-4.3-4.3-9.5-7.1-12.8l7.1,2.6l7.1-2.6C146.6,121,143.9,126.3,142.3,130.5z"/>
			</g>
		</g>
	</g>
	<g>
		<g>
			<line class="st5" x1="174.1" y1="79" x2="174.1" y2="121.5"/>
			<g>
				<path class="st6" d="M174.1,130.5c-1.6-4.3-4.3-9.5-7.1-12.8l7.1,2.6l7.1-2.6C178.4,121,175.7,126.3,174.1,130.5z"/>
			</g>
		</g>
	</g>
	<g>
		<g>
			<polyline class="st5" points="174.1,79 186.6,91.6 186.6,121.5 			"/>
			<g>
				<path class="st6" d="M186.6,130.5c-1.6-4.3-4.3-9.5-7.1-12.8l7.1,2.6l7.1-2.6C190.9,121,188.2,126.3,186.6,130.5z"/>
			</g>
		</g>
	</g>
	<g>
		<g>
			<line class="st5" x1="206" y1="79" x2="206" y2="121.5"/>
			<g>
				<path class="st6" d="M206,130.5c-1.6-4.3-4.3-9.5-7.1-12.8l7.1,2.6l7.1-2.6C210.3,121,207.6,126.3,206,130.5z"/>
			</g>
		</g>
	</g>
	<text transform="matrix(1 0 0 1 12.1111 23.6934)" class="st7 st8">VP=200.000COP</text>
	<text transform="matrix(1 0 0 1 39.4197 200.2891)" class="st7 st8">pf</text>
	<g>
		<g>
			<path class="st9" d="M206,147.5c-0.1,0.8-0.2,1.7-0.4,2.5"/>
			<path class="st10" d="M204.8,154.9C185.6,251.7,71.2,256.6,47.5,156"/>
			<path class="st9" d="M46.9,153.7c-0.2-0.8-0.3-1.6-0.5-2.4"/>
			<g>
				<path class="st11" d="M44.9,142.3c2.3,3.9,5.9,8.7,9.3,11.4l-7.5-1.3l-6.6,3.8C42.3,152.4,44.1,146.8,44.9,142.3z"/>
			</g>
		</g>
	</g>
	<text transform="matrix(1 0 0 1 107.2068 143.8789)" class="st7 st8">R= ? COP</text>
	<text transform="matrix(1 0 0 1 162.7341 143.8789)" class="st7 st8">F= 50.000 COP</text>
	<text transform="matrix(1 0 0 1 158.2107 243.5313)" class="st7 st12">n1=4 ptv</text>
	<text transform="matrix(1 0 0 1 158.2117 232.7148)" class="st7 st12">i1= 8% ptv</text>
	<text transform="matrix(1 0 0 1 231.9153 81.2969)" class="st7 st8">ptv</text>
	<text transform="matrix(1 0 0 1 46.447 77.4004)" class="st7 st8">0</text>
	<text transform="matrix(1 0 0 1 107.2087 77.4004)" class="st7 st8">1</text>
	<text transform="matrix(1 0 0 1 138.8669 77.4014)" class="st7 st8">2</text>
	<text transform="matrix(1 0 0 1 171.6648 77.4014)" class="st7 st8">3</text>
	<text transform="matrix(1 0 0 1 203.1589 77.4014)" class="st7 st8">4</text>
	<g>
		<g>
			<path class="st9" d="M187.8,146.1c-0.1,0.8-0.2,1.7-0.4,2.5"/>
			<path class="st13" d="M186.6,153.6c-17,90.5-106.7,87.5-134.5-8"/>
			<path class="st9" d="M51.4,143.2c-0.2-0.7-0.4-1.3-0.5-2l-0.3-0.4"/>
			<g>
				<path class="st11" d="M44.9,133.8c3.9,2.4,9.3,4.9,13.5,5.7l-7.2,2.4l-4,6.4C47.4,144,46.3,138.2,44.9,133.8z"/>
			</g>
		</g>
	</g>
	<text transform="matrix(1 0 0 1 107.2068 206.5391)" class="st7 st12">n2=3 ptv</text>
	<text transform="matrix(1 0 0 1 107.2068 195.7227)" class="st7 st12">i2= 8% ptv</text>
</g>
</svg>
