<?xml version="1.0" encoding="utf-8"?>
<!-- Generator: Adobe Illustrator 23.0.1, SVG Export Plug-In . SVG Version: 6.00 Build 0)  -->
<svg version="1.1" id="Capa_1" xmlns:lucid="lucid" xmlns="http://www.w3.org/2000/svg" xmlns:xlink="http://www.w3.org/1999/xlink"
	 x="0px" y="0px" viewBox="0 0 250 242.7" style="enable-background:new 0 0 250 242.7;" xml:space="preserve">
<style type="text/css">
	.st0{fill:none;stroke:#5E5E5E;stroke-miterlimit:10;}
	.st1{fill:#5E5E5E;}
	.st2{fill:none;stroke:#5E5E5E;stroke-miterlimit:10;stroke-dasharray:4.9895,4.9895;}
	.st3{fill:none;stroke:#00C100;}
	.st4{fill:#00C100;}
	.st5{fill:none;stroke:#F70000;stroke-width:1.5;}
	.st6{fill:#F70000;}
	.st7{font-family:'MyriadPro-Regular';}
	.st8{font-size:10.4998px;}
	.st9{fill:none;stroke:#3AA6DD;stroke-width:1.5;}
	.st10{fill:none;stroke:#3AA6DD;stroke-width:1.5;stroke-dasharray:4.9349,4.9349;}
	.st11{fill:#3AA6DD;}
</style>
<g>
	<g>
		<g>
			<line class="st0" x1="47.2" y1="86.7" x2="210" y2="86.7"/>
			<g>
				<path class="st1" d="M216.1,86.7c-2.8,1.1-6.4,2.9-8.5,4.8l1.7-4.8l-1.7-4.8C209.7,83.8,213.2,85.6,216.1,86.7z"/>
			</g>
		</g>
	</g>
	<line class="st0" x1="107.1" y1="133.7" x2="194.4" y2="133.7"/>
	<g>
		<g>
			<line class="st0" x1="47.2" y1="186.5" x2="47.2" y2="184"/>
			<line class="st2" x1="47.2" y1="179" x2="47.2" y2="91.7"/>
			<line class="st0" x1="47.2" y1="89.2" x2="47.2" y2="86.7"/>
		</g>
	</g>
	<g>
		<g>
			<line class="st3" x1="47.2" y1="86.7" x2="47.2" y2="45.7"/>
			<g>
				<path class="st4" d="M47.2,39.6c1.1,2.8,2.9,6.4,4.8,8.5l-4.8-1.7l-4.8,1.7C44.4,46,46.2,42.5,47.2,39.6z"/>
			</g>
		</g>
	</g>
	<g>
		<g>
			<line class="st5" x1="107.1" y1="86.7" x2="107.1" y2="124.7"/>
			<g>
				<path class="st6" d="M107.1,133.7c-1.6-4.3-4.3-9.5-7.1-12.8l7.1,2.6l7.1-2.6C111.4,124.2,108.7,129.5,107.1,133.7z"/>
			</g>
		</g>
	</g>
	<g>
		<g>
			<line class="st5" x1="136.2" y1="86.7" x2="136.2" y2="124.7"/>
			<g>
				<path class="st6" d="M136.2,133.7c-1.6-4.3-4.3-9.5-7.1-12.8l7.1,2.6l7.1-2.6C140.5,124.2,137.8,129.5,136.2,133.7z"/>
			</g>
		</g>
	</g>
	<g>
		<g>
			<line class="st5" x1="165.3" y1="86.7" x2="165.3" y2="124.7"/>
			<g>
				<path class="st6" d="M165.3,133.7c-1.6-4.3-4.3-9.5-7.1-12.8l7.1,2.6l7.1-2.6C169.6,124.2,166.9,129.5,165.3,133.7z"/>
			</g>
		</g>
	</g>
	<g>
		<g>
			<line class="st5" x1="194.4" y1="86.7" x2="194.4" y2="124.7"/>
			<g>
				<path class="st6" d="M194.4,133.7c-1.6-4.3-4.3-9.5-7.1-12.8l7.1,2.6l7.1-2.6C198.7,124.2,196,129.5,194.4,133.7z"/>
			</g>
		</g>
	</g>
	<text transform="matrix(1 0 0 1 17.2917 36.1344)" class="st7 st8">VP=200.000COP</text>
	<text transform="matrix(1 0 0 1 42.2419 197.4786)" class="st7 st8">pf</text>
	<g>
		<g>
			<path class="st9" d="M194.4,140.3c-0.4,0.7-0.8,1.5-1.1,2.2"/>
			<path class="st10" d="M191,146.9c-41.7,77.8-96.5,80.5-137.2,9.9"/>
			<path class="st9" d="M52.6,154.7c-0.4-0.7-0.8-1.5-1.2-2.2"/>
			<g>
				<path class="st11" d="M47.2,144.5c3.4,3,8.2,6.5,12.3,8l-7.5,1l-5.1,5.6C47.9,154.9,47.8,149,47.2,144.5z"/>
			</g>
		</g>
	</g>
	<text transform="matrix(1 0 0 1 129.4812 145.733)" class="st7 st8">R= ? COP</text>
	<text transform="matrix(1 0 0 1 101.4119 198.3361)" class="st7 st8">n=4 ptv</text>
	<text transform="matrix(1 0 0 1 100.3728 184.4059)" class="st7 st8">i = 8% ptv</text>
	<text transform="matrix(1 0 0 1 218.1145 88.7633)" class="st7 st8">ptv</text>
	<text transform="matrix(1 0 0 1 48.6619 85.2037)" class="st7 st8">0</text>
	<text transform="matrix(1 0 0 1 104.1755 85.2037)" class="st7 st8">1</text>
	<text transform="matrix(1 0 0 1 133.1013 85.2037)" class="st7 st8">2</text>
	<text transform="matrix(1 0 0 1 163.0662 85.2037)" class="st7 st8">3</text>
	<text transform="matrix(1 0 0 1 191.8396 85.2037)" class="st7 st8">4</text>
</g>
</svg>
