<svg xmlns="http://www.w3.org/2000/svg" xmlns:xlink="http://www.w3.org/1999/xlink" xmlns:lucid="lucid" width="950" height="991.81"><g transform="translate(-260 -3.552713678800501e-15)" lucid:page-tab-id="0_0"><path d="M0 0h1870.4v1323.2H0z" fill="#fff"/><path d="M434.5 267c0-3.3 2.7-6 6-6h228c3.3 0 6 2.7 6 6v48c0 3.3-2.7 6-6 6h-228c-3.3 0-6-2.7-6-6z" fill="none"/><use xlink:href="#a" transform="matrix(1,0,0,1,434.5,261) translate(110.74074074074073 34.44444444444444)"/><use xlink:href="#b" transform="matrix(1,0,0,1,434.5,261) translate(116.91358024691357 34.44444444444444)"/><path d="M897.58 906c0-3.3 2.7-6 6-6h144.17c3.3 0 6 2.7 6 6v48c0 3.3-2.7 6-6 6H903.58c-3.3 0-6-2.7-6-6z" fill="none"/><use xlink:href="#c" transform="matrix(1,0,0,1,897.5833333333333,900) translate(37.3037037037037 33.733333333333334)"/><use xlink:href="#d" transform="matrix(1,0,0,1,897.5833333333333,900) translate(58.04444444444444 33.733333333333334)"/><use xlink:href="#e" transform="matrix(1,0,0,1,897.5833333333333,900) translate(74.11851851851853 33.733333333333334)"/><path d="M840 726c0-3.3 2.7-6 6-6h15.6c3.3 0 6 2.7 6 6v48c0 3.3-2.7 6-6 6H846c-3.3 0-6-2.7-6-6z" fill="none"/><use xlink:href="#f" transform="matrix(1,0,0,1,840,720) translate(9.061728395061731 33.55555555555556)"/><path d="M889 866c0-3.3 2.7-6 6-6h161.33c3.32 0 6 2.7 6 6v48c0 3.3-2.68 6-6 6H895c-3.3 0-6-2.7-6-6z" fill="none"/><use xlink:href="#g" transform="matrix(1,0,0,1,889,860) translate(45.76543209876545 33.55555555555556)"/><use xlink:href="#h" transform="matrix(1,0,0,1,889,860) translate(65.51851851851853 33.55555555555556)"/><path d="M689 327c0-3.3 2.7-6 6-6h228c3.3 0 6 2.7 6 6v48c0 3.3-2.7 6-6 6H695c-3.3 0-6-2.7-6-6z" fill="none"/><use xlink:href="#i" transform="matrix(1,0,0,1,689,321) translate(70.8888888888889 33.55555555555556)"/><use xlink:href="#j" transform="matrix(1,0,0,1,689,321) translate(84.66666666666667 33.55555555555556)"/><use xlink:href="#k" transform="matrix(1,0,0,1,689,321) translate(135.53086419753086 33.55555555555556)"/><path d="M900 826c0-3.3 2.7-6 6-6h158c3.3 0 6 2.7 6 6v48c0 3.3-2.7 6-6 6H906c-3.3 0-6-2.7-6-6z" fill="none"/><use xlink:href="#l" transform="matrix(1,0,0,1,900,820) translate(34.413580246913604 33.55555555555556)"/><use xlink:href="#m" transform="matrix(1,0,0,1,900,820) translate(48.191358024691375 33.55555555555556)"/><use xlink:href="#n" transform="matrix(1,0,0,1,900,820) translate(99.05555555555554 33.55555555555556)"/><path d="M660 746c0-3.3 2.7-6 6-6h28c3.3 0 6 2.7 6 6v48c0 3.3-2.7 6-6 6h-28c-3.3 0-6-2.7-6-6z" fill="none"/><use xlink:href="#o" transform="matrix(1,0,0,1,660,740) translate(15.061728395061731 33.55555555555556)"/><path d="M713.8 354.4c0-3.3 2.7-6 6-6h178.4c3.3 0 6 2.7 6 6v48c0 3.3-2.7 6-6 6H719.8c-3.3 0-6-2.7-6-6z" fill="none"/><use xlink:href="#p" transform="matrix(1,0,0,1,713.8,348.4) translate(41.94135802469137 33.111111111111114)"/><use xlink:href="#q" transform="matrix(1,0,0,1,713.8,348.4) translate(59.22530864197532 33.111111111111114)"/><use xlink:href="#r" transform="matrix(1,0,0,1,713.8,348.4) translate(72.62037037037038 33.111111111111114)"/><path d="M400 746c0-3.3 2.7-6 6-6h28c3.3 0 6 2.7 6 6v28c0 3.3-2.7 6-6 6h-28c-3.3 0-6-2.7-6-6z" fill="none"/><use xlink:href="#s" transform="matrix(1,0,0,1,400,740) translate(13.756172839506174 30.222222222222214)"/><path d="M732.75 286c0-3.3 2.7-6 6-6h228c3.3 0 6 2.7 6 6v48c0 3.3-2.7 6-6 6h-228c-3.3 0-6-2.7-6-6z" fill="none"/><use xlink:href="#t" transform="matrix(1,0,0,1,732.75,280) translate(94.5925925925926 33.55555555555556)"/><use xlink:href="#u" transform="matrix(1,0,0,1,732.75,280) translate(115.28395061728395 33.55555555555556)"/><path d="M600.8 26c0-3.3 2.7-6 6-6H734c3.3 0 6 2.7 6 6v32.4c0 3.3-2.7 6-6 6H606.8c-3.3 0-6-2.7-6-6z" fill="none"/><use xlink:href="#v" transform="matrix(1,0,0,1,600.8,20.000000000000004) translate(36.44444444444446 26.055555555555554)"/><use xlink:href="#w" transform="matrix(1,0,0,1,600.8,20.000000000000004) translate(93.679012345679 26.055555555555554)"/><path d="M540 486c0-3.3 2.7-6 6-6h144c3.3 0 6 2.7 6 6v48c0 3.3-2.7 6-6 6H546c-3.3 0-6-2.7-6-6z" fill="none"/><use xlink:href="#x" transform="matrix(1,0,0,1,540,480) translate(44.44444444444446 33.55555555555556)"/><use xlink:href="#y" transform="matrix(1,0,0,1,540,480) translate(101.679012345679 33.55555555555556)"/><path d="M732.75 266c0-3.3 2.7-6 6-6h22.5c3.3 0 6 2.7 6 6v28c0 3.3-2.7 6-6 6h-22.5c-3.3 0-6-2.7-6-6z" fill="none"/><use xlink:href="#z" transform="matrix(1,0,0,1,732.75,260) translate(11.327160493827162 17.77777777777778)"/><use xlink:href="#A" transform="matrix(1,0,0,1,732.75,260) translate(11.327160493827162 44.44444444444444)"/><path d="M380 266c0-3.3 2.7-6 6-6h48c3.3 0 6 2.7 6 6v28c0 3.3-2.7 6-6 6h-48c-3.3 0-6-2.7-6-6z" fill="none"/><use xlink:href="#B" transform="matrix(1,0,0,1,380,260) translate(20.154320987654323 17.77777777777778)"/><use xlink:href="#A" transform="matrix(1,0,0,1,380,260) translate(23.82716049382716 44.44444444444444)"/><path d="M795.2 157.6c0-3.3 2.7-6 6-6h228c3.3 0 6 2.7 6 6v48c0 3.3-2.7 6-6 6h-228c-3.3 0-6-2.7-6-6z" fill="none"/><use xlink:href="#C" transform="matrix(1,0,0,1,795.2,151.6) translate(113.82716049382717 34.44444444444444)"/><path d="M300 46c0-3.3 2.7-6 6-6h228c3.3 0 6 2.7 6 6v48c0 3.3-2.7 6-6 6H306c-3.3 0-6-2.7-6-6z" fill="none"/><use xlink:href="#D" transform="matrix(1,0,0,1,300,40) translate(72.17283950617286 33.55555555555556)"/><use xlink:href="#E" transform="matrix(1,0,0,1,300,40) translate(93.25925925925927 33.55555555555556)"/><path d="M400 266c0-3.3 2.7-6 6-6h8c3.3 0 6 2.7 6 6v28c0 3.3-2.7 6-6 6h-8c-3.3 0-6-2.7-6-6z" fill="none"/><use xlink:href="#F" transform="matrix(1,0,0,1,400,260) translate(2.654320987654322 35.55555555555555)"/><path d="M780 506c0-3.3 2.7-6 6-6h108c3.3 0 6 2.7 6 6v348c0 3.3-2.7 6-6 6H786c-3.3 0-6-2.7-6-6z" fill="none"/><use xlink:href="#G" transform="matrix(1,0,0,1,780,500) translate(57.42901234567901 35.55555555555571)"/><use xlink:href="#H" transform="matrix(1,0,0,1,780,500) translate(58.16358024691358 48.88888888888904)"/><use xlink:href="#H" transform="matrix(1,0,0,1,780,500) translate(58.16358024691358 62.22222222222236)"/><use xlink:href="#H" transform="matrix(1,0,0,1,780,500) translate(58.16358024691358 75.55555555555569)"/><use xlink:href="#H" transform="matrix(1,0,0,1,780,500) translate(58.16358024691358 88.88888888888901)"/><use xlink:href="#H" transform="matrix(1,0,0,1,780,500) translate(58.16358024691358 102.22222222222234)"/><use xlink:href="#H" transform="matrix(1,0,0,1,780,500) translate(58.16358024691358 115.55555555555567)"/><use xlink:href="#H" transform="matrix(1,0,0,1,780,500) translate(58.16358024691358 128.888888888889)"/><use xlink:href="#H" transform="matrix(1,0,0,1,780,500) translate(58.16358024691358 142.2222222222223)"/><use xlink:href="#H" transform="matrix(1,0,0,1,780,500) translate(58.16358024691358 155.55555555555566)"/><use xlink:href="#H" transform="matrix(1,0,0,1,780,500) translate(58.16358024691358 168.88888888888897)"/><use xlink:href="#H" transform="matrix(1,0,0,1,780,500) translate(58.16358024691358 182.22222222222229)"/><use xlink:href="#H" transform="matrix(1,0,0,1,780,500) translate(58.16358024691358 195.5555555555556)"/><use xlink:href="#H" transform="matrix(1,0,0,1,780,500) translate(58.16358024691358 208.8888888888889)"/><use xlink:href="#H" transform="matrix(1,0,0,1,780,500) translate(58.16358024691358 222.22222222222223)"/><use xlink:href="#H" transform="matrix(1,0,0,1,780,500) translate(58.16358024691358 235.55555555555554)"/><use xlink:href="#H" transform="matrix(1,0,0,1,780,500) translate(58.16358024691358 248.88888888888886)"/><use xlink:href="#H" transform="matrix(1,0,0,1,780,500) translate(58.16358024691358 262.2222222222222)"/><use xlink:href="#H" transform="matrix(1,0,0,1,780,500) translate(58.16358024691358 275.5555555555555)"/><use xlink:href="#H" transform="matrix(1,0,0,1,780,500) translate(58.16358024691358 288.88888888888874)"/><use xlink:href="#H" transform="matrix(1,0,0,1,780,500) translate(58.16358024691358 302.2222222222221)"/><use xlink:href="#H" transform="matrix(1,0,0,1,780,500) translate(58.16358024691358 315.5555555555554)"/><use xlink:href="#I" transform="matrix(1,0,0,1,780,500) translate(60 328.88888888888874)"/><path d="M907.6 246c0-3.3 2.7-6 6-6h43.2c3.3 0 6 2.7 6 6v48c0 3.3-2.7 6-6 6h-43.2c-3.3 0-6-2.7-6-6z" fill="none"/><use xlink:href="#J" transform="matrix(1,0,0,1,907.5999999999999,240) translate(7.012345679012348 34.44444444444444)"/><path d="M820 286c0-3.3 2.7-6 6-6h28c3.3 0 6 2.7 6 6v48c0 3.3-2.7 6-6 6h-28c-3.3 0-6-2.7-6-6z" fill="none"/><use xlink:href="#K" transform="matrix(1,0,0,1,820,280) translate(16.913580246913583 32.22222222222222)"/><path d="M1120 786c0-3.3 2.7-6 6-6h45.33c3.32 0 6 2.7 6 6v28c0 3.3-2.68 6-6 6H1126c-3.3 0-6-2.7-6-6z" fill="none"/><use xlink:href="#L" transform="matrix(1,0,0,1,1120,780) translate(15.172839506172846 23.555555555555554)"/><path d="M421 260h478M421.03 260H420M898.97 260H900" stroke="#333" stroke-width="2" fill="none"/><path d="M420 259V98.5M420 258.97V260" stroke="#5e5e5e" stroke-width="2" fill="none"/><path d="M420 83.24l4.64 14.26h-9.28z" stroke="#5e5e5e" stroke-width="2" fill="#5e5e5e"/><path d="M723.16 261v40.5M723.16 261.03V260" stroke="#5e5e5e" stroke-width="2" fill="none"/><path d="M723.16 316.76l-4.64-14.26h9.27z" stroke="#5e5e5e" stroke-width="2" fill="#5e5e5e"/><path d="M558.95 260.5V221v58.5" stroke="#5e5e5e" fill="none"/><path d="M559.45 261h-1v-.5h1z" fill="#5e5e5e"/><path d="M558.95 279.5v.5" stroke="#5e5e5e" fill="none"/><path d="M740 267c0-3.3 2.7-6 6-6h8c3.3 0 6 2.7 6 6v28c0 3.3-2.7 6-6 6h-8c-3.3 0-6-2.7-6-6z" fill="none"/><use xlink:href="#F" transform="matrix(1,0,0,1,740,261) translate(2.654320987654322 35.55555555555555)"/><path d="M733 321.97l.7 2.9m.92 3.85l.46 1.9 1.13 3.83m1.12 3.8l1.68 5.7m1.27 3.76l1.95 5.63m1.3 3.75l1.7 4.92.3.68m1.47 3.68l2.2 5.52m1.5 3.67l1.28 3.2 1.04 2.27m1.66 3.6l2.5 5.4m1.7 3.58l2.75 5.27m1.83 3.52l.25.47 2.74 4.66m2.03 3.4l3.25 5m2.32 3.2l.9 1.26 1.8 2.27.87 1 .13.13m2.84 2.76l.8.66 1 .77 1.04.72 1.07.68.96.56m3.58 1.7l1.2.46 1.22.4 1.25.36 1.3.3.74.15m3.94.5l.83.07 1.48.03 1.53-.02 1.57-.1.53-.04m3.92-.57l.63-.12 1.83-.43 1.9-.52 1.4-.45m3.7-1.38l1.16-.48 2.3-1.07 1.9-1m3.45-1.96l2.33-1.48 2.63-1.8m3.18-2.4l.14-.1 3.28-2.68 1.14-1.03m2.94-2.66l3.2-3.1 1.02-1.1m2.72-2.87l.3-.32 3.6-4.15m2.53-3.07l3.02-3.8.64-.88m2.34-3.2l2.2-3 1.24-1.85m2.2-3.3l2.2-3.28 1.04-1.7m2.06-3.4l3.08-5.03.02-.05m1.92-3.46l2.88-5.22m1.92-3.46l.04-.08 2.63-5.24m1.78-3.55l2.66-5.32m1.66-3.6l1.22-2.7M733 322l-.25-1" stroke="#c92d39" stroke-width="2" fill="none"/><path d="M898.7 322.96l-1.54 14.92-8.48-3.75z" stroke="#c92d39" stroke-width="2" fill="#c92d39"/><path d="M900 141v178M900 141.03V140M900 318.97V320" stroke="#5e5e5e" stroke-width="2" fill="none"/><path d="M760 354.4c0-3.3 2.7-6 6-6h8c3.3 0 6 2.7 6 6v48c0 3.3-2.7 6-6 6h-8c-3.3 0-6-2.7-6-6z" fill="none"/><use xlink:href="#K" transform="matrix(1,0,0,1,760,348.4) translate(6.913580246913582 32.22222222222222)"/><path d="M760 327c0-3.3 2.7-6 6-6h8c3.3 0 6 2.7 6 6v48c0 3.3-2.7 6-6 6h-8c-3.3 0-6-2.7-6-6z" fill="none"/><use xlink:href="#M" transform="matrix(1,0,0,1,760,321) translate(6.913580246913582 32.22222222222222)"/><path d="M380 46c0-3.3 2.7-6 6-6h8c3.3 0 6 2.7 6 6v48c0 3.3-2.7 6-6 6h-8c-3.3 0-6-2.7-6-6z" fill="none"/><use xlink:href="#N" transform="matrix(1,0,0,1,380,40) translate(6.913580246913582 32.22222222222222)"/><path d="M401 740h698M401.03 740H400M1098.97 740h1.03" stroke="#333" stroke-width="2" fill="none"/><path d="M400 739V578.5M400 738.97V740" stroke="#5e5e5e" stroke-width="2" fill="none"/><path d="M400 563.24l4.64 14.26h-9.28z" stroke="#5e5e5e" stroke-width="2" fill="#5e5e5e"/><path d="M1100 741v100.5M1100 741.03V740" stroke="#5e5e5e" stroke-width="2" fill="none"/><path d="M1100 856.76l-4.64-14.26h9.28z" stroke="#5e5e5e" stroke-width="2" fill="#5e5e5e"/><path d="M840 721v38M840 721.03V720M840 758.97V760" stroke="#5e5e5e" stroke-width="2" fill="none"/><path d="M781.4 550.2c0-3.3 2.7-6 6-6h132.8c3.3 0 6 2.7 6 6v48c0 3.3-2.7 6-6 6H787.4c-3.3 0-6-2.7-6-6z" fill="none"/><g><use xlink:href="#O" transform="matrix(1,0,0,1,781.4,544.2) translate(66.32716049382717 34.44444444444444)"/></g><path d="M1120 786c0-3.3 2.7-6 6-6h8c3.3 0 6 2.7 6 6v28c0 3.3-2.7 6-6 6h-8c-3.3 0-6-2.7-6-6z" fill="none"/><g><use xlink:href="#F" transform="matrix(1,0,0,1,1120,780) translate(2.654320987654322 35.55555555555555)"/></g><path d="M1112.75 786c0-3.3 2.7-6 6-6h22.5c3.3 0 6 2.7 6 6v28c0 3.3-2.7 6-6 6h-22.5c-3.3 0-6-2.7-6-6z" fill="none"/><g><use xlink:href="#z" transform="matrix(1,0,0,1,1112.75,780) translate(11.327160493827162 17.77777777777778)"/><use xlink:href="#A" transform="matrix(1,0,0,1,1112.75,780) translate(11.327160493827162 44.44444444444444)"/></g><path d="M680 721v38M680 721.03V720M680 758.97V760" stroke="#5e5e5e" stroke-width="2" fill="none"/><path d="M400 746c0-3.3 2.7-6 6-6h22.5c3.3 0 6 2.7 6 6v28c0 3.3-2.7 6-6 6H406c-3.3 0-6-2.7-6-6z" fill="none"/><g><use xlink:href="#P" transform="matrix(1,0,0,1,400,740) translate(7.654320987654321 17.77777777777778)"/><use xlink:href="#Q" transform="matrix(1,0,0,1,400,740) translate(11.327160493827162 44.44444444444444)"/></g><path d="M280 526c0-3.3 2.7-6 6-6h228c3.3 0 6 2.7 6 6v48c0 3.3-2.7 6-6 6H286c-3.3 0-6-2.7-6-6z" fill="none"/><g><use xlink:href="#R" transform="matrix(1,0,0,1,280,520) translate(72.17283950617286 33.55555555555556)"/><use xlink:href="#S" transform="matrix(1,0,0,1,280,520) translate(93.25925925925927 33.55555555555556)"/></g><path d="M360 526c0-3.3 2.7-6 6-6h8c3.3 0 6 2.7 6 6v48c0 3.3-2.7 6-6 6h-8c-3.3 0-6-2.7-6-6z" fill="none"/><g><use xlink:href="#T" transform="matrix(1,0,0,1,360,520) translate(6.913580246913582 32.22222222222222)"/></g><path d="M1100 866c0-3.3 2.7-6 6-6h28c3.3 0 6 2.7 6 6v48c0 3.3-2.7 6-6 6h-28c-3.3 0-6-2.7-6-6z" fill="none"/><g><use xlink:href="#T" transform="matrix(1,0,0,1,1100,860) translate(16.913580246913583 32.22222222222222)"/></g><path d="M1070 866c0-3.3 2.7-6 6-6h108c3.3 0 6 2.7 6 6v48c0 3.3-2.7 6-6 6h-108c-3.3 0-6-2.7-6-6z" fill="none"/><g><use xlink:href="#t" transform="matrix(1,0,0,1,1070,860) translate(34.592592592592595 33.55555555555556)"/><use xlink:href="#u" transform="matrix(1,0,0,1,1070,860) translate(55.28395061728395 33.55555555555556)"/></g><path d="M866.96 862.45l1.06 2.82m1.53 3.7l2.35 5.54m1.58 3.7l2.58 5.43m1.7 3.63l1.9 3.98.74 1.43m1.87 3.55l2.8 5.33m1.87 3.54l3 5.2m2.02 3.47l1.96 3.38 1.13 1.78m2.15 3.38l3.23 5.1m2.28 3.3l3.45 4.92m2.38 3.23l3.65 4.8m2.54 3.1l2.87 3.45 1 1.13m2.7 2.98l.84.95 3.33 3.4m2.9 2.76l1.6 1.53 2.9 2.48m3.1 2.52l.52.4 2.85 2.07 1.53 1m3.4 2.12l.18.1 2.3 1.27 2.17 1.06.7.3m3.72 1.52l1.4.5 1.76.52 1.7.43.93.2m3.96.6l5.64.53h.34m4 .2l.3.02 4.1.03 1.62-.05m4-.22l1.74-.14 3.45-.42.78-.13m3.95-.7l1.9-.4 3.25-.8.7-.22m3.82-1.2l1.94-.65 3.24-1.26.45-.2m3.66-1.64l2.46-1.2 2.87-1.57m3.45-2.03l.5-.3 3.54-2.3.98-.72m3.24-2.36l3.2-2.52 1.48-1.26m3.03-2.63l3.5-3.27.87-.87m2.83-2.85l.6-.6 3.47-3.82m2.63-3.03l3.24-3.87.57-.77m2.45-3.17l2.07-2.7 1.5-2.14m2.3-3.3l1.66-2.34 1.7-2.64m2.16-3.37l2-3.14 1.17-1.97m2-3.46l3.05-5.2m1.88-3.53l2.82-5.32m1.88-3.54l.48-.92 2.16-4.5m1.72-3.6l2.6-5.44m1.67-3.64l2.4-5.52m1.6-3.68l1.2-2.76" stroke="#0c7cba" stroke-width="2" fill="none"/><path d="M862.32 847.93l8.76 12.17-8.83 2.83z" stroke="#0c7cba" stroke-width="2" fill="#0c7cba"/><path d="M1097.84 861.34l-1.83-.8.24-.54h2.18z" fill="#0c7cba"/><path d="M940 866c0-3.3 2.7-6 6-6h8c3.3 0 6 2.7 6 6v48c0 3.3-2.7 6-6 6h-8c-3.3 0-6-2.7-6-6z" fill="none"/><g><use xlink:href="#U" transform="matrix(1,0,0,1,940,860) translate(6.913580246913582 32.22222222222222)"/></g><path d="M940 906c0-3.3 2.7-6 6-6h8c3.3 0 6 2.7 6 6v48c0 3.3-2.7 6-6 6h-8c-3.3 0-6-2.7-6-6z" fill="none"/><g><use xlink:href="#U" transform="matrix(1,0,0,1,940,900) translate(6.913580246913582 32.22222222222222)"/></g><path d="M932.75 826c0-3.3 2.7-6 6-6h8c3.3 0 6 2.7 6 6v48c0 3.3-2.7 6-6 6h-8c-3.3 0-6-2.7-6-6z" fill="none"/><g><use xlink:href="#U" transform="matrix(1,0,0,1,932.75,820) translate(6.913580246913582 32.22222222222222)"/></g><defs><path fill="#333" d="M101-251c68 0 85 55 85 127S166 4 100 4C33 4 14-52 14-124c0-73 17-127 87-127zm-1 229c47 0 54-49 54-102s-4-102-53-102c-51 0-55 48-55 102 0 53 5 102 54 102" id="V"/><use transform="matrix(0.06172839506172839,0,0,0.06172839506172839,0,0)" xlink:href="#V" id="b"/><path fill="#202124" d="M67-158c22-48 132-52 116 29L158 0h-32l25-140c3-38-53-32-70-12C52-117 51-52 38 0H6l36-190h30" id="W"/><use transform="matrix(0.05185185185185186,0,0,0.05185185185185186,0,0)" xlink:href="#W" id="c"/><path fill="#202124" d="M18-168v-26h174v26H18zm0 125v-26h174v26H18zm0-62v-26h174v26H18" id="X"/><use transform="matrix(0.05185185185185186,0,0,0.05185185185185186,0,0)" xlink:href="#X" id="d"/><path fill="#202124" d="M40-53c7 41 73 38 88 5 14-18 25-43 30-72-13 20-31 35-60 35-44 0-69-27-69-70 0-57 32-96 91-96 58 0 76 44 72 106C186-56 125 37 35-9c-12-6-19-20-23-36zm62-57c67 0 87-116 17-116-39 0-58 29-58 71 1 27 12 45 41 45" id="Y"/><path fill="#202124" d="M67-162c32-53 139-36 121 50C175-51 163 2 97 4 68 4 52-11 42-31 38 6 28 39 22 75H-9l50-265h29c-1 10 0 20-3 28zm89 36c0-26-10-43-35-43-54 0-67 50-69 103-1 29 14 45 42 46 53 0 62-58 62-106" id="Z"/><path fill="#202124" d="M248-111c6-24 9-61-24-58-72 9-57 108-77 169h-31l26-142c3-37-50-30-64-10C52-115 50-51 37 0H6l36-190h30c-1 10-6 24-4 32 13-43 101-52 105 5 13-22 29-41 61-41 90 0 28 129 23 194h-31" id="aa"/><path fill="#202124" d="M89 0H52L20-190h33L74-25l89-165h34" id="ab"/><g id="e"><use transform="matrix(0.05185185185185186,0,0,0.05185185185185186,0,0)" xlink:href="#Y"/><use transform="matrix(0.05185185185185186,0,0,0.05185185185185186,10.370370370370372,0)" xlink:href="#Z"/><use transform="matrix(0.05185185185185186,0,0,0.05185185185185186,20.740740740740744,0)" xlink:href="#aa"/><use transform="matrix(0.05185185185185186,0,0,0.05185185185185186,36.24444444444445,0)" xlink:href="#ab"/></g><path fill="#333" d="M101-251c82-7 93 87 43 132L82-64C71-53 59-42 53-27h129V0H18c2-99 128-94 128-182 0-28-16-43-45-43s-46 15-49 41l-32-3c6-41 34-60 81-64" id="ac"/><use transform="matrix(0.0493827160493827,0,0,0.0493827160493827,0,0)" xlink:href="#ac" id="f"/><path fill="#333" d="M67-158c22-48 132-52 116 29L158 0h-32l25-140c3-38-53-32-70-12C52-117 51-52 38 0H6l36-190h30" id="ad"/><use transform="matrix(0.0493827160493827,0,0,0.0493827160493827,0,0)" xlink:href="#ad" id="g"/><path fill="#333" d="M23-150v-26h175v26H23zm0 90v-26h175v26H23" id="ae"/><path fill="#333" d="M9 0l6-27h63l36-188-63 39 6-31 66-41h29L110-27h60l-5 27H9" id="af"/><path fill="#333" d="M58-38C53-5 46 26 28 46H7C19 32 27 18 32 0H17l7-38h34" id="ag"/><path fill="#333" d="M151-85c6-55-69-56-94-29H26l34-134h141l-5 27H84l-20 79c41-34 127-11 121 53C199 13 30 38 8-54l29-8C52 0 159-13 151-85" id="ah"/><path fill="#333" d="M67-162c32-53 139-36 121 50C175-51 163 2 97 4 68 4 52-11 42-31 38 6 28 39 22 75H-9l50-265h29c-1 10 0 20-3 28zm89 36c0-26-10-43-35-43-54 0-67 50-69 103-1 29 14 45 42 46 53 0 62-58 62-106" id="ai"/><path fill="#333" d="M55-144c13 50 104 24 104 88C159 21 15 23 1-39l26-10c6 40 102 42 102-4-13-50-104-23-104-87 0-71 143-71 148-8l-29 4c-5-35-85-37-89 0" id="aj"/><path fill="#333" d="M89 0H52L20-190h33L74-25l89-165h34" id="ak"/><g id="h"><use transform="matrix(0.0493827160493827,0,0,0.0493827160493827,0,0)" xlink:href="#ae"/><use transform="matrix(0.0493827160493827,0,0,0.0493827160493827,10.370370370370367,0)" xlink:href="#af"/><use transform="matrix(0.0493827160493827,0,0,0.0493827160493827,20.246913580246904,0)" xlink:href="#ag"/><use transform="matrix(0.0493827160493827,0,0,0.0493827160493827,25.185185185185173,0)" xlink:href="#ah"/><use transform="matrix(0.0493827160493827,0,0,0.0493827160493827,35.061728395061714,0)" xlink:href="#ai"/><use transform="matrix(0.0493827160493827,0,0,0.0493827160493827,44.93827160493825,0)" xlink:href="#aj"/><use transform="matrix(0.0493827160493827,0,0,0.0493827160493827,53.82716049382713,0)" xlink:href="#ak"/></g><path fill="#333" d="M51-231l6-30h31l-6 30H51zM33 24C28 60 2 84-40 72c3-12-1-29 18-22C-5 49-1 37 2 19l41-209h32" id="al"/><use transform="matrix(0.049382716049382706,0,0,0.049382716049382706,0,0)" xlink:href="#al" id="i"/><path fill="#333" d="M123-251c66 0 92 69 53 113C138-94 73-75 39-27h128l-5 27H-2c17-92 123-93 159-163 14-28-1-64-36-62-29 2-46 17-54 41l-30-6c13-36 37-61 86-61" id="am"/><path fill="#333" d="M149-56L138 0h-32l11-56H2l5-25 144-167h35L154-81h33l-5 25h-33zm-4-147L40-81h82" id="an"/><path fill="#333" d="M75 0H46l208-248h30zM26-148c1-56 18-102 70-102 31 0 46 20 45 54-2 54-18 104-70 104-32 0-46-22-45-56zm91-51c0-19-6-32-21-32-40 0-44 48-46 86-1 19 6 33 22 33 38 0 45-51 45-87zm72 145c2-54 18-102 70-102 32 0 46 22 46 55 0 53-18 103-70 103-32 0-47-21-46-56zm91-51c1-20-5-32-21-32-39 0-43 50-46 86-2 19 6 33 22 33 39 0 42-49 45-87" id="ao"/><g id="j"><use transform="matrix(0.049382716049382706,0,0,0.049382716049382706,0,0)" xlink:href="#ae"/><use transform="matrix(0.049382716049382706,0,0,0.049382716049382706,10.370370370370368,0)" xlink:href="#am"/><use transform="matrix(0.049382716049382706,0,0,0.049382716049382706,20.24691358024691,0)" xlink:href="#an"/><use transform="matrix(0.049382716049382706,0,0,0.049382716049382706,30.123456790123452,0)" xlink:href="#ao"/></g><path fill="#333" d="M165-48c-4 18 1 34 23 27l-3 20c-29 8-62 0-52-35h-2C116-14 99 4 63 4 30 4 8-16 8-49c0-68 71-67 138-67 10-26 0-56-31-54-26 1-42 9-47 31l-32-5c8-67 160-71 144 15-5 28-9 54-15 81zM42-50c3 52 80 24 89-6 7-12 7-24 11-38-47 1-103-4-100 44" id="ap"/><path fill="#333" d="M51-54c-9 22 5 41 31 30L79-1C43 14 10-4 19-52l22-115H19l5-23h22l19-43h21l-9 43h35l-4 23H73" id="aq"/><g id="k"><use transform="matrix(0.049382716049382706,0,0,0.049382716049382706,0,0)" xlink:href="#ad"/><use transform="matrix(0.049382716049382706,0,0,0.049382716049382706,9.87654320987654,0)" xlink:href="#ap"/><use transform="matrix(0.049382716049382706,0,0,0.049382716049382706,19.75308641975308,0)" xlink:href="#aq"/><use transform="matrix(0.049382716049382706,0,0,0.049382716049382706,24.691358024691354,0)" xlink:href="#ak"/></g><use transform="matrix(0.0493827160493827,0,0,0.0493827160493827,0,0)" xlink:href="#al" id="l"/><path fill="#333" d="M39-185c1-48 36-66 85-66 42 0 74 18 74 59 0 38-25 57-56 64 23 7 40 22 40 52 0 55-39 80-94 80C40 4 10-17 9-63c-1-44 31-60 63-71-20-7-33-25-33-51zm31 3c0 26 17 39 46 39 34 0 48-18 49-48 0-25-18-36-45-36-32 0-50 15-50 45zm79 105c0-29-19-41-50-41-37 0-57 20-57 55 0 29 19 42 49 42 36 0 58-19 58-56" id="ar"/><g id="m"><use transform="matrix(0.0493827160493827,0,0,0.0493827160493827,0,0)" xlink:href="#ae"/><use transform="matrix(0.0493827160493827,0,0,0.0493827160493827,10.370370370370367,0)" xlink:href="#am"/><use transform="matrix(0.0493827160493827,0,0,0.0493827160493827,20.246913580246904,0)" xlink:href="#ar"/><use transform="matrix(0.0493827160493827,0,0,0.0493827160493827,30.12345679012344,0)" xlink:href="#ao"/></g><g id="n"><use transform="matrix(0.0493827160493827,0,0,0.0493827160493827,0,0)" xlink:href="#ad"/><use transform="matrix(0.0493827160493827,0,0,0.0493827160493827,9.876543209876539,0)" xlink:href="#ap"/><use transform="matrix(0.0493827160493827,0,0,0.0493827160493827,19.753086419753078,0)" xlink:href="#aj"/><use transform="matrix(0.0493827160493827,0,0,0.0493827160493827,28.641975308641964,0)" xlink:href="#ak"/></g><use transform="matrix(0.0493827160493827,0,0,0.0493827160493827,0,0)" xlink:href="#V" id="o"/><use transform="matrix(0.04320987654320987,0,0,0.04320987654320987,0,0)" xlink:href="#ad" id="p"/><use transform="matrix(0.04320987654320987,0,0,0.04320987654320987,0,0)" xlink:href="#ae" id="q"/><path fill="#333" d="M184-94c-4 58-33 98-90 98-50 0-74-35-74-86 0-94 36-181 136-167 24 3 39 21 44 47l-29 6c-8-40-68-34-87-5-13 20-24 43-30 73 28-51 135-39 130 34zm-73-42c-35 2-61 22-60 62 1 30 14 52 44 52 38 0 55-31 56-70 1-26-14-46-40-44" id="as"/><path fill="#333" d="M248-111c6-24 9-61-24-58-72 9-57 108-77 169h-31l26-142c3-37-50-30-64-10C52-115 50-51 37 0H6l36-190h30c-1 10-6 24-4 32 13-43 101-52 105 5 13-22 29-41 61-41 90 0 28 129 23 194h-31" id="at"/><g id="r"><use transform="matrix(0.04320987654320987,0,0,0.04320987654320987,0,0)" xlink:href="#am"/><use transform="matrix(0.04320987654320987,0,0,0.04320987654320987,8.641975308641973,0)" xlink:href="#ai"/><use transform="matrix(0.04320987654320987,0,0,0.04320987654320987,17.283950617283946,0)" xlink:href="#aq"/><use transform="matrix(0.04320987654320987,0,0,0.04320987654320987,21.604938271604933,0)" xlink:href="#ak"/><use transform="matrix(0.04320987654320987,0,0,0.04320987654320987,29.382716049382708,0)" xlink:href="#ae"/><use transform="matrix(0.04320987654320987,0,0,0.04320987654320987,38.456790123456784,0)" xlink:href="#as"/><use transform="matrix(0.04320987654320987,0,0,0.04320987654320987,47.09876543209876,0)" xlink:href="#ai"/><use transform="matrix(0.04320987654320987,0,0,0.04320987654320987,55.740740740740726,0)" xlink:href="#at"/><use transform="matrix(0.04320987654320987,0,0,0.04320987654320987,68.66049382716048,0)" xlink:href="#ak"/></g><path fill="#333" d="M14-72v-43h91v43H14" id="au"/><use transform="matrix(0.10493827160493824,0,0,0.10493827160493824,0,0)" xlink:href="#au" id="s"/><path fill="#333" d="M63-220v92h138v28H63V0H30v-248h175v28H63" id="av"/><use transform="matrix(0.049382716049382706,0,0,0.049382716049382706,0,0)" xlink:href="#av" id="t"/><path fill="#333" d="M18-150v-26h174v26H18zm0 90v-26h174v26H18" id="aw"/><path fill="#333" d="M194-70c0 46-34 64-81 66v29H91V-4C42-5 12-27 4-67l30-6c5 28 25 41 57 43v-87c-38-9-76-20-76-67 1-42 33-58 76-59v-23h22v23c45 0 67 20 76 56l-31 6c-5-23-18-35-45-37v78c41 10 81 20 81 70zm-81 41c51 7 71-66 19-77-6-2-12-4-19-6v83zM91-219c-47-6-63 57-18 69 6 2 12 3 18 5v-74" id="ax"/><path fill="#333" d="M103-251c84 0 111 97 45 133-19 10-37 24-39 52H78c0-63 77-55 77-114 0-30-21-42-52-43-32 0-53 17-56 46l-32-2c7-45 34-72 88-72zM77 0v-35h34V0H77" id="ay"/><g id="u"><use transform="matrix(0.049382716049382706,0,0,0.049382716049382706,0,0)" xlink:href="#aw"/><use transform="matrix(0.049382716049382706,0,0,0.049382716049382706,10.370370370370368,0)" xlink:href="#ax"/><use transform="matrix(0.049382716049382706,0,0,0.049382716049382706,20.24691358024691,0)" xlink:href="#ay"/></g><path fill="#333" d="M30-248c118-7 216 8 213 122C240-48 200 0 122 0H30v-248zM63-27c89 8 146-16 146-99s-60-101-146-95v194" id="az"/><path fill="#333" d="M100-194c63 0 86 42 84 106H49c0 40 14 67 53 68 26 1 43-12 49-29l28 8c-11 28-37 45-77 45C44 4 14-33 15-96c1-61 26-98 85-98zm52 81c6-60-76-77-97-28-3 7-6 17-6 28h103" id="aA"/><path fill="#333" d="M84 4C-5 8 30-112 23-190h32v120c0 31 7 50 39 49 72-2 45-101 50-169h31l1 190h-30c-1-10 1-25-2-33-11 22-28 36-60 37" id="aB"/><path fill="#333" d="M85-194c31 0 48 13 60 33l-1-100h32l1 261h-30c-2-10 0-23-3-31C134-8 116 4 85 4 32 4 16-35 15-94c0-66 23-100 70-100zm9 24c-40 0-46 34-46 75 0 40 6 74 45 74 42 0 51-32 51-76 0-42-9-74-50-73" id="aC"/><path fill="#333" d="M141-36C126-15 110 5 73 4 37 3 15-17 15-53c-1-64 63-63 125-63 3-35-9-54-41-54-24 1-41 7-42 31l-33-3c5-37 33-52 76-52 45 0 72 20 72 64v82c-1 20 7 32 28 27v20c-31 9-61-2-59-35zM48-53c0 20 12 33 32 33 41-3 63-29 60-74-43 2-92-5-92 41" id="aD"/><g id="v"><use transform="matrix(0.0493827160493827,0,0,0.0493827160493827,0,0)" xlink:href="#az"/><use transform="matrix(0.0493827160493827,0,0,0.0493827160493827,12.79012345679012,0)" xlink:href="#aA"/><use transform="matrix(0.0493827160493827,0,0,0.0493827160493827,22.666666666666657,0)" xlink:href="#aB"/><use transform="matrix(0.0493827160493827,0,0,0.0493827160493827,32.543209876543195,0)" xlink:href="#aC"/><use transform="matrix(0.0493827160493827,0,0,0.0493827160493827,42.41975308641973,0)" xlink:href="#aD"/></g><path fill="#333" d="M27 0v-27h64v-190l-56 39v-29l58-41h29v221h61V0H27" id="aE"/><use transform="matrix(0.0493827160493827,0,0,0.0493827160493827,0,0)" xlink:href="#aE" id="w"/><g id="x"><use transform="matrix(0.0493827160493827,0,0,0.0493827160493827,0,0)" xlink:href="#az"/><use transform="matrix(0.0493827160493827,0,0,0.0493827160493827,12.79012345679012,0)" xlink:href="#aA"/><use transform="matrix(0.0493827160493827,0,0,0.0493827160493827,22.666666666666657,0)" xlink:href="#aB"/><use transform="matrix(0.0493827160493827,0,0,0.0493827160493827,32.543209876543195,0)" xlink:href="#aC"/><use transform="matrix(0.0493827160493827,0,0,0.0493827160493827,42.41975308641973,0)" xlink:href="#aD"/></g><use transform="matrix(0.0493827160493827,0,0,0.0493827160493827,0,0)" xlink:href="#ac" id="y"/><path fill="#333" d="M155-56V0h-30v-56H8v-25l114-167h33v167h35v25h-35zm-30-156c-27 46-58 90-88 131h88v-131" id="aF"/><use transform="matrix(0.06172839506172839,0,0,0.06172839506172839,0,0)" xlink:href="#aF" id="z"/><path fill="#333" d="M126-127c33 6 58 20 58 59 0 88-139 92-164 29-3-8-5-16-6-25l32-3c6 27 21 44 54 44 32 0 52-15 52-46 0-38-36-46-79-43v-28c39 1 72-4 72-42 0-27-17-43-46-43-28 0-47 15-49 41l-32-3c6-42 35-63 81-64 48-1 79 21 79 65 0 36-21 52-52 59" id="aG"/><use transform="matrix(0.06172839506172839,0,0,0.06172839506172839,0,0)" xlink:href="#aG" id="A"/><path fill="#333" d="M16-82v-28h88v28H16" id="aH"/><g id="B"><use transform="matrix(0.06172839506172839,0,0,0.06172839506172839,0,0)" xlink:href="#aH"/><use transform="matrix(0.06172839506172839,0,0,0.06172839506172839,7.345679012345679,0)" xlink:href="#ac"/></g><path fill="#333" d="M76-167L44 0H12l33-167H18l4-23h27c3-47 25-81 82-69l-4 24c-35-8-44 15-46 45h37l-5 23H76" id="aI"/><g id="C"><use transform="matrix(0.06172839506172839,0,0,0.06172839506172839,0,0)" xlink:href="#aI"/><use transform="matrix(0.06172839506172839,0,0,0.06172839506172839,6.172839506172839,0)" xlink:href="#aI"/></g><path fill="#333" d="M238-179c0 84-86 86-175 82L45 0H11l48-248c82 0 179-12 179 69zm-34 1c0-53-64-42-116-43l-19 98c63 0 135 9 135-55" id="aJ"/><use transform="matrix(0.0493827160493827,0,0,0.0493827160493827,0,0)" xlink:href="#aJ" id="D"/><path fill="#333" d="M121-140c32 11 67 22 67 65 0 52-40 70-93 71-4 15 0 35-26 29l6-29C29-7 5-27-2-66l29-7c4 27 23 41 53 43l17-87c-33-9-65-20-65-62 0-47 42-62 89-64l5-23h20l-5 24c35 4 58 20 65 51l-28 8c-6-19-19-31-42-34zM100-30c50 8 78-55 32-75-5-2-10-4-16-6zm17-188c-44-7-75 49-31 67 5 2 10 4 16 6" id="aK"/><path fill="#333" d="M14 0l8-38h34L48 0H14" id="aL"/><path fill="#333" d="M16-82c0-90 25-169 113-169 48 0 68 33 68 82C197-79 170 4 84 4 37 4 16-31 16-82zm30 5c0 32 11 55 40 55 69 0 76-79 80-149 2-32-10-55-39-55-69 0-81 81-81 149" id="aM"/><g id="E"><use transform="matrix(0.0493827160493827,0,0,0.0493827160493827,0,0)" xlink:href="#ae"/><use transform="matrix(0.0493827160493827,0,0,0.0493827160493827,10.370370370370367,0)" xlink:href="#aK"/><use transform="matrix(0.0493827160493827,0,0,0.0493827160493827,20.246913580246904,0)" xlink:href="#af"/><use transform="matrix(0.0493827160493827,0,0,0.0493827160493827,30.12345679012344,0)" xlink:href="#ah"/><use transform="matrix(0.0493827160493827,0,0,0.0493827160493827,39.99999999999998,0)" xlink:href="#aL"/><use transform="matrix(0.0493827160493827,0,0,0.0493827160493827,44.93827160493825,0)" xlink:href="#aM"/><use transform="matrix(0.0493827160493827,0,0,0.0493827160493827,54.81481481481479,0)" xlink:href="#aM"/><use transform="matrix(0.0493827160493827,0,0,0.0493827160493827,64.69135802469133,0)" xlink:href="#aM"/></g><use transform="matrix(0.12345679012345677,0,0,0.12345679012345677,0,0)" xlink:href="#aH" id="F"/><g id="G"><use transform="matrix(0.012345679012345658,0,0,0.012345679012345658,0,0)" xlink:href="#au"/><use transform="matrix(0.030864197530864175,0,0,0.030864197530864175,1.4691358024691332,0)" xlink:href="#au"/></g><use transform="matrix(0.030864197530864175,0,0,0.030864197530864175,0,0)" xlink:href="#au" id="H"/><path fill="#333" d="M115-194c55 1 70 41 70 98S169 2 115 4C84 4 66-9 55-30l1 105H24l-1-265h31l2 30c10-21 28-34 59-34zm-8 174c40 0 45-34 45-75s-6-73-45-74c-42 0-51 32-51 76 0 43 10 73 51 73" id="aN"/><path fill="#333" d="M59-47c-2 24 18 29 38 22v24C64 9 27 4 27-40v-127H5v-23h24l9-43h21v43h35v23H59v120" id="aO"/><path fill="#333" d="M108 0H70L1-190h34L89-25l56-165h34" id="aP"/><g id="J"><use transform="matrix(0.06172839506172839,0,0,0.06172839506172839,0,0)" xlink:href="#ac"/><use transform="matrix(0.06172839506172839,0,0,0.06172839506172839,12.345679012345679,0)" xlink:href="#aN"/><use transform="matrix(0.06172839506172839,0,0,0.06172839506172839,24.691358024691358,0)" xlink:href="#aO"/><use transform="matrix(0.06172839506172839,0,0,0.06172839506172839,30.864197530864196,0)" xlink:href="#aP"/></g><use transform="matrix(0.030864197530864182,0,0,0.030864197530864182,0,0)" xlink:href="#aE" id="K"/><path fill="#333" d="M135-143c-3-34-86-38-87 0 15 53 115 12 119 90S17 21 10-45l28-5c4 36 97 45 98 0-10-56-113-15-118-90-4-57 82-63 122-42 12 7 21 19 24 35" id="aQ"/><g id="L"><use transform="matrix(0.0493827160493827,0,0,0.0493827160493827,0,0)" xlink:href="#aN"/><use transform="matrix(0.0493827160493827,0,0,0.0493827160493827,9.876543209876539,0)" xlink:href="#aQ"/><use transform="matrix(0.0493827160493827,0,0,0.0493827160493827,18.765432098765423,0)" xlink:href="#aP"/></g><use transform="matrix(0.030864197530864182,0,0,0.030864197530864182,0,0)" xlink:href="#af" id="M"/><use transform="matrix(0.030864197530864182,0,0,0.030864197530864182,0,0)" xlink:href="#aE" id="N"/><g id="O"><use transform="matrix(0.06172839506172839,0,0,0.06172839506172839,0,0)" xlink:href="#aI"/><use transform="matrix(0.06172839506172839,0,0,0.06172839506172839,6.172839506172839,0)" xlink:href="#aI"/></g><g id="P"><use transform="matrix(0.06172839506172839,0,0,0.06172839506172839,0,0)" xlink:href="#aH"/><use transform="matrix(0.06172839506172839,0,0,0.06172839506172839,7.345679012345679,0)" xlink:href="#aE"/></g><path fill="#333" d="M110-160c48 1 74 30 74 79 0 53-28 85-80 85-65 0-83-55-86-122-5-90 50-162 133-122 14 7 22 21 27 39l-31 6c-5-40-67-38-82-6-9 19-15 44-15 74 11-20 30-34 60-33zm-7 138c34 0 49-23 49-58s-16-56-50-56c-29 0-50 16-49 49 1 36 15 65 50 65" id="aR"/><use transform="matrix(0.06172839506172839,0,0,0.06172839506172839,0,0)" xlink:href="#aR" id="Q"/><use transform="matrix(0.0493827160493827,0,0,0.0493827160493827,0,0)" xlink:href="#aJ" id="R"/><g id="S"><use transform="matrix(0.0493827160493827,0,0,0.0493827160493827,0,0)" xlink:href="#ae"/><use transform="matrix(0.0493827160493827,0,0,0.0493827160493827,10.370370370370367,0)" xlink:href="#aK"/><use transform="matrix(0.0493827160493827,0,0,0.0493827160493827,20.246913580246904,0)" xlink:href="#am"/><use transform="matrix(0.0493827160493827,0,0,0.0493827160493827,30.12345679012344,0)" xlink:href="#ah"/><use transform="matrix(0.0493827160493827,0,0,0.0493827160493827,39.99999999999998,0)" xlink:href="#aL"/><use transform="matrix(0.0493827160493827,0,0,0.0493827160493827,44.93827160493825,0)" xlink:href="#aM"/><use transform="matrix(0.0493827160493827,0,0,0.0493827160493827,54.81481481481479,0)" xlink:href="#aM"/><use transform="matrix(0.0493827160493827,0,0,0.0493827160493827,64.69135802469133,0)" xlink:href="#aM"/></g><use transform="matrix(0.030864197530864182,0,0,0.030864197530864182,0,0)" xlink:href="#ac" id="T"/><use transform="matrix(0.030864197530864182,0,0,0.030864197530864182,0,0)" xlink:href="#ac" id="U"/></defs></g></svg>