<svg xmlns="http://www.w3.org/2000/svg" xmlns:xlink="http://www.w3.org/1999/xlink" xmlns:lucid="lucid" width="1260" height="1117.73"><g transform="translate(-280 -34.76360114147377)" lucid:page-tab-id="0_0"><path d="M0 0h1870.4v1323.2H0z" fill="#fff"/><path d="M701 731.24c0-3.32 2.7-6 6-6h29.33c3.32 0 6 2.68 6 6v48c0 3.3-2.68 6-6 6H707c-3.3 0-6-2.7-6-6z" fill="none"/><use xlink:href="#a" transform="matrix(1,0,0,1,701,725.2363988585262) translate(16.061728395061728 33.55555555555556)"/><path d="M1379 206c0-3.3 2.7-6 6-6h129c3.3 0 6 2.7 6 6v48c0 3.3-2.7 6-6 6h-129c-3.3 0-6-2.7-6-6z" fill="none"/><use xlink:href="#b" transform="matrix(1,0,0,1,1379,200) translate(49.54320987654321 34.44444444444444)"/><path d="M680 166c0-3.3 2.7-6 6-6h29c3.3 0 6 2.7 6 6v48c0 3.3-2.7 6-6 6h-29c-3.3 0-6-2.7-6-6z" fill="none"/><use xlink:href="#c" transform="matrix(1,0,0,1,680,160) translate(15.56172839506173 33.55555555555556)"/><path d="M1160 166c0-3.3 2.7-6 6-6h68c3.3 0 6 2.7 6 6v48c0 3.3-2.7 6-6 6h-68c-3.3 0-6-2.7-6-6z" fill="none"/><use xlink:href="#d" transform="matrix(1,0,0,1,1160,160) translate(35.06172839506173 33.55555555555556)"/><path d="M880 466c0-3.3 2.7-6 6-6h143c3.3 0 6 2.7 6 6v48c0 3.3-2.7 6-6 6H886c-3.3 0-6-2.7-6-6z" fill="none"/><use xlink:href="#e" transform="matrix(1,0,0,1,880,460) translate(36.29629629629631 33.55555555555556)"/><use xlink:href="#f" transform="matrix(1,0,0,1,880,460) translate(56.049382716049394 33.55555555555556)"/><use xlink:href="#g" transform="matrix(1,0,0,1,880,460) translate(71.35802469135803 33.55555555555556)"/><use xlink:href="#h" transform="matrix(1,0,0,1,880,460) translate(86.17283950617283 33.55555555555556)"/><path d="M380 186c0-3.3 2.7-6 6-6h28c3.3 0 6 2.7 6 6v48c0 3.3-2.7 6-6 6h-28c-3.3 0-6-2.7-6-6z" fill="none"/><use xlink:href="#i" transform="matrix(1,0,0,1,380,180) translate(15.061728395061731 33.55555555555556)"/><path d="M580 166c0-3.3 2.7-6 6-6h28c3.3 0 6 2.7 6 6v48c0 3.3-2.7 6-6 6h-28c-3.3 0-6-2.7-6-6z" fill="none"/><use xlink:href="#j" transform="matrix(1,0,0,1,580,160) translate(15.061728395061731 33.55555555555556)"/><path d="M450 266c0-3.3 2.7-6 6-6h158c3.3 0 6 2.7 6 6v48c0 3.3-2.7 6-6 6H456c-3.3 0-6-2.7-6-6z" fill="none"/><use xlink:href="#k" transform="matrix(1,0,0,1,450,260) translate(48.759259259259274 33.55555555555556)"/><path d="M534.33 60.76c0-3.3 2.7-6 6-6h144c3.32 0 6 2.7 6 6v48c0 3.32-2.68 6-6 6h-144c-3.3 0-6-2.68-6-6z" fill="none"/><use xlink:href="#l" transform="matrix(1,0,0,1,534.3333333333334,54.76360114147377) translate(27.25925925925928 33.55555555555556)"/><use xlink:href="#m" transform="matrix(1,0,0,1,534.3333333333334,54.76360114147377) translate(84.49382716049382 33.55555555555556)"/><path d="M400 319v-2.97m0-3.96v-5.94m0-3.96v-5.94m0-3.96v-5.94m0-3.96v-5.94m0-3.96v-5.94m0-3.96v-5.94m0-3.96v-5.94m0-3.96v-5.94m0-3.96v-5.94m0-3.96v-5.94m0-3.96v-5.94m0-3.96v-5.94m0-3.96v-5.94m0-3.96v-5.94m0-3.96v-5.94m0-3.96v-5.94m0-3.96v-5.94m0-3.96v-5.94m0-3.96v-5.94m0-3.96V121M400 318.97V320M400 121.03V120M1200 201v100.5M1200 201.03V200" stroke="#5e5e5e" stroke-width="2" fill="none"/><path d="M1200 316.76l-4.64-14.26h9.28z" stroke="#5e5e5e" stroke-width="2" fill="#5e5e5e"/><path d="M300 106c0-3.3 2.7-6 6-6h132.8c3.3 0 6 2.7 6 6v48c0 3.3-2.7 6-6 6H306c-3.3 0-6-2.7-6-6z" fill="none"/><use xlink:href="#n" transform="matrix(1,0,0,1,300,100) translate(66.32716049382717 34.44444444444444)"/><path d="M500 201v38M500 201.03V200M500 238.97V240" stroke="#5e5e5e" stroke-width="2" fill="none"/><path d="M1200 360.76c0-3.3 2.7-6 6-6h28c3.3 0 6 2.7 6 6v48c0 3.32-2.7 6-6 6h-28c-3.3 0-6-2.68-6-6z" fill="none"/><use xlink:href="#o" transform="matrix(1,0,0,1,1200,354.76360114147377) translate(16.913580246913583 32.22222222222222)"/><path d="M1180 360.76c0-3.3 2.7-6 6-6h128c3.3 0 6 2.7 6 6v48c0 3.32-2.7 6-6 6h-128c-3.3 0-6-2.68-6-6z" fill="none"/><use xlink:href="#p" transform="matrix(1,0,0,1,1180,354.76360114147377) translate(22.370370370370374 33.55555555555556)"/><use xlink:href="#q" transform="matrix(1,0,0,1,1180,354.76360114147377) translate(43.06172839506173 33.55555555555556)"/><path d="M403.84 338.1l.63 2.93m.83 3.9l1.1 5.13.2.72m1.07 3.85l1.62 5.76m1.14 3.82l1.86 5.7m1.24 3.8l.28.84 1.78 4.77m1.4 3.74l1.12 3 1.08 2.57m1.56 3.68l2 4.72.36.78m1.7 3.6l2.56 5.43m1.83 3.55l2.8 5.3m1.93 3.5l3 5.18m2.05 3.43l3.22 5.06m2.17 3.35l3.42 4.92m2.3 3.27l3.62 4.75m2.43 3.17l3.83 4.6m2.56 3.07l4.02 4.43m2.7 2.94l4.2 4.28m2.83 2.8l4.37 4.1m2.96 2.68l4.54 3.9m3.1 2.53l4.7 3.72m3.2 2.38l4.85 3.5m3.3 2.27l.68.47 4.35 2.77m3.37 2.14l.84.54 4.32 2.5m3.46 2l2.12 1.23 3.14 1.64m3.54 1.86l4.85 2.55.45.22m3.6 1.7l5.43 2.56m3.6 1.7l.4.2 5.13 2.14m3.7 1.55l5.5 2.33m3.72 1.46l5.62 2.1m3.74 1.38l5.6 2.1m3.78 1.3l5.7 1.86m3.8 1.23l5.7 1.86m3.8 1.22l1.15.38 4.6 1.3m3.85 1.06l5.77 1.62m3.84 1.07l5.77 1.62m3.86 1l5.82 1.4m3.9.9l5.82 1.37m3.9.92l5.82 1.37m3.9.9l5.87 1.13m3.92.76l5.9 1.12m3.9.76l5.9 1.12m3.9.75l4.66.9 1.25.18m3.95.6l5.93.87m3.95.6l5.92.87m3.95.58l5.93.88m3.95.6l.76.1 5.18.56m3.97.42l5.96.64m3.98.42l5.95.64m3.97.43l3.3.35 2.67.17m3.98.25l5.98.4m4 .26l5.96.4m3.98.16l6 .14m3.98.1l2.56.06 3.43-.06m4-.07l1.06-.02 2.2-.1 2.72-.22m3.98-.33l5.97-.48m3.98-.33l5.97-.48m3.98-.33l.66-.05 5.3-.64m3.96-.48l5.95-.72m3.96-.47l5.95-.72m3.96-.48l5.95-.72m3.95-.48l5.9-.96m3.96-.64l5.92-.96m3.94-.64l5.9-.96m3.95-.64l5.93-.97m3.9-.78l5.88-1.2m3.92-.8l5.87-1.22m3.9-.8l5.87-1.2m3.9-.87l5.8-1.45m3.88-.97l5.8-1.44m3.9-.97l5.44-1.37.34-.1m3.83-1.13l5.75-1.7m3.83-1.13l5.75-1.7m3.8-1.2l5.67-1.93m3.78-1.3l5.67-1.93m3.73-1.4l5.6-2.17m3.7-1.44l2.78-1.1 2.76-1.2m3.65-1.6l5.5-2.4m3.6-1.73l5.37-2.63m3.56-1.8l5.27-2.86m3.5-1.93l5.13-3.1m3.4-2.08l5-3.3m3.3-2.25l4.85-3.5m3.2-2.4l4.7-3.72m3.06-2.56l4.53-3.9m2.94-2.7l4.38-4.1m2.8-2.83l4.2-4.26m2.7-2.95l4.02-4.45m2.56-3.07l3.83-4.6m2.44-3.16l3.64-4.76m2.35-3.23l3.42-4.9m2.28-3.3l3.22-5.04m2.14-3.38l1.43-2.24 1.66-2.88m2-3.45l3-5.2m1.9-3.5l2.8-5.3m1.85-3.54l1.7-3.23 1-2.1m1.7-3.62l2.57-5.4m1.7-3.63l1.97-4.17.53-1.27m1.54-3.68l2.3-5.53m1.55-3.7l2.3-5.52m1.54-3.68l2.3-5.53m1.54-3.7l2.3-5.52m1.5-3.7l2.24-5.55m1.5-3.7l2.23-5.56m1.5-3.7l1.13-2.77" stroke="#0c7cba" stroke-width="2" fill="none"/><path d="M400.67 323.17l7.5 13-9.07 1.9z" stroke="#0c7cba" stroke-width="2" fill="#0c7cba"/><path d="M1199.62 320.95l.38-.95" stroke="#0c7cba" stroke-width="2" fill="none"/><path d="M920 466c0-3.3 2.7-6 6-6h4.15c3.32 0 6 2.7 6 6v48c0 3.3-2.68 6-6 6H926c-3.3 0-6-2.7-6-6z" fill="none"/><use xlink:href="#o" transform="matrix(1,0,0,1,920,460) translate(5.413580246913582 32.22222222222222)"/><path d="M500 305c0-2.76 2.24-5 5-5s5 2.24 5 5v70c0 2.76-2.24 5-5 5s-5-2.24-5-5z" fill="none"/><use xlink:href="#r" transform="matrix(1,0,0,1,500,300) translate(1.9135802469135816 42.22222222222222)"/><path d="M381 220h1038" stroke="#5e5e5e" stroke-width="2" fill="none"/><path d="M381.03 221H380v-2h1.03z" fill="#5e5e5e"/><path d="M1418.97 220h1.03M700 201v100.5M700 201.03V200" stroke="#5e5e5e" stroke-width="2" fill="none"/><path d="M700 316.76l-4.64-14.26h9.28z" stroke="#5e5e5e" stroke-width="2" fill="#5e5e5e"/><path d="M600 201v38M600 201.03V200M600 238.97V240" stroke="#5e5e5e" stroke-width="2" fill="none"/><path d="M480 166c0-3.3 2.7-6 6-6h28c3.3 0 6 2.7 6 6v48c0 3.3-2.7 6-6 6h-28c-3.3 0-6-2.7-6-6z" fill="none"/><use xlink:href="#s" transform="matrix(1,0,0,1,480,160) translate(15.061728395061731 33.55555555555556)"/><path d="M405.46 337.66l1.07 2.84m1.57 3.74l1.64 3.9.8 1.66m1.72 3.66l1.1 2.3 1.63 3.13m1.87 3.57l.42.8 2.58 4.48m2.07 3.48l3.26 5.12m2.3 3.35l2.63 3.8.88 1.15m2.47 3.22l1.08 1.43 2.74 3.3m2.62 3.07l3.5 3.88.6.6m2.83 2.9l1 1 3.4 3.18m3.02 2.7l2.34 2 2.36 1.85m3.2 2.46l3.13 2.26 1.85 1.23m3.4 2.2l3.4 2.05 1.84 1m3.57 1.9l3.24 1.6 2.25 1m3.73 1.58l2.78 1.1 2.92 1m3.86 1.23l2.15.64 3.7.94m3.95.87l1.53.33 4.45.74m4.02.5l1.12.15 4.93.4m4.04.17l1.14.05 4.94-.02m4.04-.15l.84-.03 5.23-.3m4.04-.24l6.06-.36m4.05-.23l6.06-.36m4.04-.28l6.03-.72m4-.6l3.47-.58 2.52-.52m3.95-.84l4.96-1.24.93-.27m3.88-1.15l.4-.1 4.96-1.7.4-.16m3.77-1.47l.62-.24 4.66-2.04.3-.16m3.64-1.78l.63-.3 4.5-2.45.2-.1m3.5-2.1l.75-.45 4.34-2.84m3.3-2.35l1.22-.88 3.6-2.82m3.1-2.6l2.23-1.9 2.3-2.13m2.95-2.8l3.9-3.94.36-.38m2.73-3l1.64-1.8 2.34-2.78m2.6-3.1l3.7-4.83m2.4-3.28l3.48-4.97m2.2-3.4l3.3-5.1m2.05-3.5l3.06-5.24m1.92-3.54l2.85-5.37m1.85-3.6l2.62-5.5m1.74-3.65l1.15-2.4 1.36-3.13m1.6-3.72l1.2-2.78" stroke="#0c7cba" stroke-width="2" fill="none"/><path d="M400.96 323.1l8.64 12.25-8.86 2.74z" stroke="#0c7cba" stroke-width="2" fill="#0c7cba"/><path d="M699.6 320.94l.4-.94" stroke="#0c7cba" stroke-width="2" fill="none"/><path d="M660 386c0-3.3 2.7-6 6-6h148c3.3 0 6 2.7 6 6v48c0 3.3-2.7 6-6 6H666c-3.3 0-6-2.7-6-6z" fill="none"/><use xlink:href="#t" transform="matrix(1,0,0,1,660,380) translate(34.839506172839506 33.55555555555556)"/><use xlink:href="#u" transform="matrix(1,0,0,1,660,380) translate(50.59259259259259 33.55555555555556)"/><path d="M690.33 376c0-3.3 2.7-6 6-6h28c3.32 0 6 2.7 6 6v68c0 3.3-2.68 6-6 6h-28c-3.3 0-6-2.7-6-6z" fill="none"/><use xlink:href="#r" transform="matrix(1,0,0,1,690.3333333333334,370) translate(16.913580246913583 42.22222222222222)"/><path d="M427.4 316c0-3.3 2.7-6 6-6h203.2c3.3 0 6 2.7 6 6v48c0 3.3-2.7 6-6 6H433.4c-3.3 0-6-2.7-6-6z" fill="none"/><use xlink:href="#e" transform="matrix(1,0,0,1,427.4,310) translate(66.2962962962963 33.55555555555556)"/><use xlink:href="#f" transform="matrix(1,0,0,1,427.4,310) translate(86.04938271604938 33.55555555555556)"/><use xlink:href="#g" transform="matrix(1,0,0,1,427.4,310) translate(101.35802469135803 33.55555555555556)"/><use xlink:href="#h" transform="matrix(1,0,0,1,427.4,310) translate(116.17283950617283 33.55555555555556)"/><path d="M865 436c0-3.3 2.7-6 6-6h158c3.3 0 6 2.7 6 6v48c0 3.3-2.7 6-6 6H871c-3.3 0-6-2.7-6-6z" fill="none"/><use xlink:href="#k" transform="matrix(1,0,0,1,865,430) translate(48.759259259259274 33.55555555555556)"/><path d="M620 731.24c0-3.32 2.7-6 6-6h29c3.3 0 6 2.68 6 6v48c0 3.3-2.7 6-6 6h-29c-3.3 0-6-2.7-6-6z" fill="none"/><use xlink:href="#c" transform="matrix(1,0,0,1,620,725.2363988585262) translate(15.56172839506173 33.55555555555556)"/><path d="M1160 731.24c0-3.32 2.7-6 6-6h68c3.3 0 6 2.68 6 6v48c0 3.3-2.7 6-6 6h-68c-3.3 0-6-2.7-6-6z" fill="none"/><use xlink:href="#v" transform="matrix(1,0,0,1,1160,725.2363988585262) translate(30.12345679012346 33.55555555555556)"/><path d="M880 1031.24c0-3.32 2.7-6 6-6h143c3.3 0 6 2.68 6 6v48c0 3.3-2.7 6-6 6H886c-3.3 0-6-2.7-6-6z" fill="none"/><use xlink:href="#e" transform="matrix(1,0,0,1,880,1025.2363988585262) translate(31.35802469135804 33.55555555555556)"/><use xlink:href="#f" transform="matrix(1,0,0,1,880,1025.2363988585262) translate(51.111111111111114 33.55555555555556)"/><use xlink:href="#w" transform="matrix(1,0,0,1,880,1025.2363988585262) translate(66.41975308641975 33.55555555555556)"/><use xlink:href="#h" transform="matrix(1,0,0,1,880,1025.2363988585262) translate(91.1111111111111 33.55555555555556)"/><path d="M450 831.24c0-3.32 2.7-6 6-6h158c3.3 0 6 2.68 6 6v48c0 3.3-2.7 6-6 6H456c-3.3 0-6-2.7-6-6z" fill="none"/><use xlink:href="#k" transform="matrix(1,0,0,1,450,825.2363988585262) translate(48.759259259259274 33.55555555555556)"/><path d="M540 731.24c0-3.32 2.7-6 6-6h28c3.3 0 6 2.68 6 6v48c0 3.3-2.7 6-6 6h-28c-3.3 0-6-2.7-6-6z" fill="none"/><use xlink:href="#x" transform="matrix(1,0,0,1,540,725.2363988585262) translate(15.061728395061731 33.55555555555556)"/><path d="M380 751.24c0-3.32 2.7-6 6-6h28c3.3 0 6 2.68 6 6v48c0 3.3-2.7 6-6 6h-28c-3.3 0-6-2.7-6-6z" fill="none"/><use xlink:href="#y" transform="matrix(1,0,0,1,380,745.2363988585262) translate(15.061728395061731 33.55555555555556)"/><path d="M534.33 626c0-3.3 2.7-6 6-6h144c3.32 0 6 2.7 6 6v48c0 3.3-2.68 6-6 6h-144c-3.3 0-6-2.7-6-6z" fill="none"/><use xlink:href="#l" transform="matrix(1,0,0,1,534.3333333333334,620) translate(4.000000000000028 33.55555555555556)"/><use xlink:href="#z" transform="matrix(1,0,0,1,534.3333333333334,620) translate(61.23456790123457 33.55555555555556)"/><path d="M400 884.24v-2.97m0-3.96v-5.93m0-3.96v-5.93m0-3.96v-5.93m0-3.96v-5.93m0-3.96v-5.93m0-3.96v-5.93m0-3.96v-5.93m0-3.96v-5.93m0-3.96v-5.93m0-3.96v-5.93m0-3.96v-5.93m0-3.96v-5.93m0-3.96v-5.93m0-3.96v-5.93m0-3.96v-5.93m0-3.96v-5.93m0-3.96v-5.93m0-3.96v-5.93m0-3.96v-5.93m0-3.96v-2.96M400 884.2v1.04M400 686.26v-1.02M1200 766.24v100.5M1200 766.26v-1.02" stroke="#5e5e5e" stroke-width="2" fill="none"/><path d="M1200 882l-4.64-14.27h9.28z" stroke="#5e5e5e" stroke-width="2" fill="#5e5e5e"/><path d="M300 671.24c0-3.32 2.7-6 6-6h132.8c3.3 0 6 2.68 6 6v48c0 3.3-2.7 6-6 6H306c-3.3 0-6-2.7-6-6z" fill="none"/><use xlink:href="#A" transform="matrix(1,0,0,1,300,665.2363988585262) translate(66.32716049382717 34.44444444444444)"/><path d="M480 766.24v38M480 766.26v-1.02M480 804.2v1.04" stroke="#5e5e5e" stroke-width="2" fill="none"/><path d="M1200 916c0-3.3 2.7-6 6-6h28c3.3 0 6 2.7 6 6v58c0 3.3-2.7 6-6 6h-28c-3.3 0-6-2.7-6-6z" fill="none"/><use xlink:href="#B" transform="matrix(1,0,0,1,1200,910) translate(16.913580246913583 37.22222222222222)"/><path d="M1180 921c0-3.3 2.7-6 6-6h148c3.3 0 6 2.7 6 6v48c0 3.3-2.7 6-6 6h-148c-3.3 0-6-2.7-6-6z" fill="none"/><use xlink:href="#p" transform="matrix(1,0,0,1,1180,915) translate(27.43209876543211 33.55555555555556)"/><use xlink:href="#C" transform="matrix(1,0,0,1,1180,915) translate(48.12345679012346 33.55555555555556)"/><path d="M403.84 903.33l.63 2.93m.83 3.9l1.1 5.14.2.72m1.07 3.84l1.62 5.77m1.14 3.82l1.86 5.7m1.24 3.8l.28.84 1.78 4.77m1.4 3.74l1.12 3 1.08 2.57m1.56 3.68l2 4.73.36.78m1.7 3.6l2.56 5.42m1.83 3.55l2.8 5.3m1.93 3.5l3 5.18m2.05 3.44l3.22 5.05m2.17 3.35l3.42 4.9m2.3 3.27l3.62 4.77m2.43 3.16l3.83 4.6m2.56 3.07l4.02 4.44m2.7 2.94l4.2 4.28m2.83 2.8l4.37 4.1m2.96 2.68l4.54 3.9m3.1 2.54l4.7 3.7m3.2 2.4l4.85 3.5m3.3 2.27l.68.47 4.35 2.76m3.37 2.14l.84.54 4.32 2.5m3.46 2l2.12 1.23 3.14 1.65m3.54 1.85l4.85 2.54.45.22m3.6 1.7l5.43 2.55m3.6 1.72l.4.2 5.13 2.14m3.7 1.55l5.5 2.33m3.72 1.46l5.62 2.1m3.74 1.38l5.6 2.1m3.78 1.3l5.7 1.85m3.8 1.24l5.7 1.85m3.8 1.24l1.15.38 4.6 1.28m3.85 1.08l5.77 1.6m3.84 1.1l5.77 1.6m3.86 1.02l5.82 1.37m3.9.9l5.82 1.38m3.9.9l5.82 1.38m3.9.9l5.87 1.14m3.92.75l5.9 1.13m3.9.75l5.9 1.13m3.9.75l4.66.9 1.25.2m3.95.58l5.93.88m3.95.6l5.92.87m3.95.6l5.93.87m3.95.6l.76.1 5.18.55m3.97.43l5.96.64m3.98.42l5.95.64m3.97.42l3.3.36 2.67.17m3.98.26l5.98.38m4 .26l5.96.4m3.98.15l6 .14m3.98.1l2.56.05 3.43-.07m4-.07l1.06-.02 2.2-.1 2.72-.23m3.98-.3l5.97-.5m3.98-.32l5.97-.5m3.98-.3l.66-.07 5.3-.62m3.96-.48l5.95-.72m3.96-.48l5.95-.72m3.96-.47l5.95-.7m3.95-.5l5.9-.96m3.96-.64l5.92-.96m3.94-.64l5.9-.97m3.95-.64l5.93-.97m3.9-.77l5.88-1.2m3.92-.8l5.87-1.22m3.9-.8l5.87-1.2m3.9-.87l5.8-1.45m3.88-.97l5.8-1.45m3.9-.97l5.44-1.36.34-.1m3.83-1.14l5.75-1.7m3.83-1.12l5.75-1.7m3.8-1.2l5.67-1.93m3.78-1.3l5.67-1.92m3.73-1.4l5.6-2.18m3.7-1.45l2.78-1.08 2.76-1.2m3.65-1.6l5.5-2.4m3.6-1.73l5.37-2.62m3.56-1.8l5.27-2.86m3.5-1.93l5.13-3.1m3.4-2.1l5-3.3m3.3-2.24l4.85-3.5m3.2-2.4l4.7-3.72m3.06-2.56l4.53-3.9m2.94-2.7l4.38-4.1m2.8-2.83l4.2-4.27m2.7-2.96l4.02-4.44m2.56-3.06l3.83-4.6m2.44-3.16l3.64-4.77m2.35-3.23l3.42-4.9m2.28-3.3l3.22-5.04m2.14-3.37l1.43-2.25 1.66-2.86m2-3.46l3-5.18m1.9-3.5l2.8-5.32m1.85-3.53l1.7-3.25 1-2.1m1.7-3.6l2.57-5.43m1.7-3.6l1.97-4.2.53-1.25m1.54-3.7l2.3-5.52m1.55-3.68l2.3-5.53m1.54-3.7l2.3-5.52m1.54-3.7l2.3-5.52m1.5-3.7l2.24-5.55m1.5-3.7l2.23-5.55m1.5-3.7l1.13-2.8" stroke="#0c7cba" stroke-width="2" fill="none"/><path d="M400.67 888.4l7.5 13-9.07 1.92z" stroke="#0c7cba" stroke-width="2" fill="#0c7cba"/><path d="M1199.62 886.2l.38-.96" stroke="#0c7cba" stroke-width="2" fill="none"/><path d="M920 1031.24c0-3.32 2.7-6 6-6h4.15c3.32 0 6 2.68 6 6v48c0 3.3-2.68 6-6 6H926c-3.3 0-6-2.7-6-6z" fill="none"/><use xlink:href="#B" transform="matrix(1,0,0,1,920,1025.2363988585262) translate(5.413580246913582 32.22222222222222)"/><path d="M500 870.24c0-2.77 2.24-5 5-5s5 2.23 5 5v70c0 2.76-2.24 5-5 5s-5-2.24-5-5z" fill="none"/><use xlink:href="#D" transform="matrix(1,0,0,1,500,865.2363988585262) translate(1.9135802469135816 42.22222222222222)"/><path d="M381 785.24h1038" stroke="#5e5e5e" stroke-width="2" fill="none"/><path d="M381.03 786.24H380v-2h1.03z" fill="#5e5e5e"/><path d="M1418.97 785.24h1.03M720 766.24v100.5M720 766.26v-1.02" stroke="#5e5e5e" stroke-width="2" fill="none"/><path d="M720 882l-4.64-14.27h9.28z" stroke="#5e5e5e" stroke-width="2" fill="#5e5e5e"/><path d="M560 766.24v38M560 766.26v-1.02M560 804.2v1.04" stroke="#5e5e5e" stroke-width="2" fill="none"/><path d="M460 731.24c0-3.32 2.7-6 6-6h28c3.3 0 6 2.68 6 6v48c0 3.3-2.7 6-6 6h-28c-3.3 0-6-2.7-6-6z" fill="none"/><use xlink:href="#s" transform="matrix(1,0,0,1,460,725.2363988585262) translate(15.061728395061731 33.55555555555556)"/><path d="M406.35 902.58l1.27 2.7m1.75 3.57l2.77 5.28m1.93 3.48l3 5.17m2.05 3.4l3.2 5.03m2.17 3.33l3.4 4.9m2.28 3.26l.12.16 3.48 4.58m2.4 3.16l.72.92 3.06 3.7m2.54 3.06l1.1 1.32 2.85 3.15m2.66 2.96l1.18 1.3 2.96 3m2.8 2.85l.83.86 3.47 3.26m2.9 2.72l.08.06 4.45 3.83m3.05 2.55l4.68 3.7m3.22 2.34l2.92 2.12 1.96 1.3m3.32 2.2l.48.3 4.6 2.8m3.47 1.94l3 1.64 2.3 1.14m3.56 1.73l4.64 2.06.83.32m3.7 1.46l.56.22 5 1.73.06.02m3.8 1.14l1.06.3 4.72 1.2m3.9.84l1.05.22 4.76.8h.07m3.94.5l.76.1 4.74.38.45.02m3.98.16H557.4l.9-.03m3.96-.2l5.96-.33m3.97-.23l5.94-.35m3.97-.24l5.97-.34m3.96-.37l5.3-.63.6-.1m3.94-.64l1.82-.3 4.02-.83m3.88-.9l3.12-.78 2.63-.78m3.8-1.2l3.37-1.14 2.24-.88m3.68-1.5l3.2-1.4 2.22-1.08m3.54-1.8l3.03-1.64 2.16-1.3m3.37-2.1l3.1-2.02 1.84-1.32m3.2-2.35l3.63-2.84 1.04-.9m3.03-2.57l.33-.28 4.05-3.76m2.82-2.8l2.13-2.17 1.97-2.17m2.68-2.94l3.83-4.57m2.48-3.12l3.4-4.45.22-.3m2.3-3.24l2.6-3.7.77-1.2m2.15-3.36l2.38-3.7.78-1.35m2-3.43l2.75-4.7.25-.46m1.86-3.52l2.8-5.27m1.78-3.55l2.56-5.4m1.72-3.58l.9-1.88 1.54-3.56m1.58-3.65l1.18-2.73" stroke="#0c7cba" stroke-width="2" fill="none"/><path d="M401.1 888.28l9.27 11.8-8.7 3.2z" stroke="#0c7cba" stroke-width="2" fill="#0c7cba"/><path d="M719.6 900.94l.4-.94" stroke="#0c7cba" stroke-width="2" fill="none"/><path d="M700 916c0-3.3 2.7-6 6-6h148c3.3 0 6 2.7 6 6v48c0 3.3-2.7 6-6 6H706c-3.3 0-6-2.7-6-6z" fill="none"/><g><use xlink:href="#p" transform="matrix(1,0,0,1,700,910) translate(32.370370370370374 33.55555555555556)"/><use xlink:href="#E" transform="matrix(1,0,0,1,700,910) translate(53.06172839506173 33.55555555555556)"/></g><path d="M730.33 906c0-3.3 2.7-6 6-6h28c3.32 0 6 2.7 6 6v68c0 3.3-2.68 6-6 6h-28c-3.3 0-6-2.7-6-6z" fill="none"/><g><use xlink:href="#D" transform="matrix(1,0,0,1,730.3333333333334,900) translate(16.913580246913583 42.22222222222222)"/></g><path d="M420 881.24c0-3.32 2.7-6 6-6h210.6c3.3 0 6 2.68 6 6v48c0 3.3-2.7 6-6 6H426c-3.3 0-6-2.7-6-6z" fill="none"/><g><use xlink:href="#e" transform="matrix(1,0,0,1,420,875.2363988585262) translate(69.7962962962963 33.55555555555556)"/><use xlink:href="#f" transform="matrix(1,0,0,1,420,875.2363988585262) translate(89.54938271604938 33.55555555555556)"/><use xlink:href="#F" transform="matrix(1,0,0,1,420,875.2363988585262) translate(104.85802469135803 33.55555555555556)"/><use xlink:href="#h" transform="matrix(1,0,0,1,420,875.2363988585262) translate(119.67283950617283 33.55555555555556)"/></g><path d="M865 1001.24c0-3.32 2.7-6 6-6h158c3.3 0 6 2.68 6 6v48c0 3.3-2.7 6-6 6H871c-3.3 0-6-2.7-6-6z" fill="none"/><g><use xlink:href="#k" transform="matrix(1,0,0,1,865,995.2363988585262) translate(48.759259259259274 33.55555555555556)"/></g><path d="M640 761v38M640 761.03V760M640 798.97V800" stroke="#5e5e5e" stroke-width="2" fill="none"/><path d="M1379 766c0-3.3 2.7-6 6-6h129c3.3 0 6 2.7 6 6v48c0 3.3-2.7 6-6 6h-129c-3.3 0-6-2.7-6-6z" fill="none"/><g><use xlink:href="#b" transform="matrix(1,0,0,1,1379,760) translate(49.54320987654321 34.44444444444444)"/></g><defs><path fill="#333" d="M155-56V0h-30v-56H8v-25l114-167h33v167h35v25h-35zm-30-156c-27 46-58 90-88 131h88v-131" id="G"/><use transform="matrix(0.049382716049382706,0,0,0.049382716049382706,0,0)" xlink:href="#G" id="a"/><path fill="#333" d="M115-194c55 1 70 41 70 98S169 2 115 4C84 4 66-9 55-30l1 105H24l-1-265h31l2 30c10-21 28-34 59-34zm-8 174c40 0 45-34 45-75s-6-73-45-74c-42 0-51 32-51 76 0 43 10 73 51 73" id="H"/><path fill="#333" d="M210-169c-67 3-38 105-44 169h-31v-121c0-29-5-50-35-48C34-165 62-65 56 0H25l-1-190h30c1 10-1 24 2 32 10-44 99-50 107 0 11-21 27-35 58-36 85-2 47 119 55 194h-31v-121c0-29-5-49-35-48" id="I"/><path fill="#333" d="M108 0H70L1-190h34L89-25l56-165h34" id="J"/><g id="b"><use transform="matrix(0.06172839506172839,0,0,0.06172839506172839,0,0)" xlink:href="#H"/><use transform="matrix(0.06172839506172839,0,0,0.06172839506172839,12.345679012345679,0)" xlink:href="#I"/><use transform="matrix(0.06172839506172839,0,0,0.06172839506172839,30.80246913580247,0)" xlink:href="#J"/></g><path fill="#333" d="M126-127c33 6 58 20 58 59 0 88-139 92-164 29-3-8-5-16-6-25l32-3c6 27 21 44 54 44 32 0 52-15 52-46 0-38-36-46-79-43v-28c39 1 72-4 72-42 0-27-17-43-46-43-28 0-47 15-49 41l-32-3c6-42 35-63 81-64 48-1 79 21 79 65 0 36-21 52-52 59" id="K"/><use transform="matrix(0.049382716049382706,0,0,0.049382716049382706,0,0)" xlink:href="#K" id="c"/><path fill="#333" d="M134-131c28 9 52 24 51 62-1 50-34 73-85 73S17-19 16-69c0-36 21-54 49-61-75-25-45-126 34-121 46 3 78 18 79 63 0 33-17 51-44 57zm-34-11c31 1 46-15 46-44 0-28-17-43-47-42-29 0-46 13-45 42 1 28 16 44 46 44zm1 122c35 0 51-18 51-52 0-30-18-46-53-46-33 0-51 17-51 47 0 34 19 51 53 51" id="L"/><use transform="matrix(0.049382716049382706,0,0,0.049382716049382706,0,0)" xlink:href="#L" id="d"/><path fill="#333" d="M67-158c22-48 132-52 116 29L158 0h-32l25-140c3-38-53-32-70-12C52-117 51-52 38 0H6l36-190h30" id="M"/><use transform="matrix(0.0493827160493827,0,0,0.0493827160493827,0,0)" xlink:href="#M" id="e"/><path fill="#333" d="M23-150v-26h175v26H23zm0 90v-26h175v26H23" id="N"/><use transform="matrix(0.0493827160493827,0,0,0.0493827160493827,0,0)" xlink:href="#N" id="f"/><path fill="#333" d="M39-185c1-48 36-66 85-66 42 0 74 18 74 59 0 38-25 57-56 64 23 7 40 22 40 52 0 55-39 80-94 80C40 4 10-17 9-63c-1-44 31-60 63-71-20-7-33-25-33-51zm31 3c0 26 17 39 46 39 34 0 48-18 49-48 0-25-18-36-45-36-32 0-50 15-50 45zm79 105c0-29-19-41-50-41-37 0-57 20-57 55 0 29 19 42 49 42 36 0 58-19 58-56" id="O"/><use transform="matrix(0.0493827160493827,0,0,0.0493827160493827,0,0)" xlink:href="#O" id="g"/><path fill="#333" d="M67-162c32-53 139-36 121 50C175-51 163 2 97 4 68 4 52-11 42-31 38 6 28 39 22 75H-9l50-265h29c-1 10 0 20-3 28zm89 36c0-26-10-43-35-43-54 0-67 50-69 103-1 29 14 45 42 46 53 0 62-58 62-106" id="P"/><path fill="#333" d="M248-111c6-24 9-61-24-58-72 9-57 108-77 169h-31l26-142c3-37-50-30-64-10C52-115 50-51 37 0H6l36-190h30c-1 10-6 24-4 32 13-43 101-52 105 5 13-22 29-41 61-41 90 0 28 129 23 194h-31" id="Q"/><path fill="#333" d="M89 0H52L20-190h33L74-25l89-165h34" id="R"/><g id="h"><use transform="matrix(0.0493827160493827,0,0,0.0493827160493827,0,0)" xlink:href="#P"/><use transform="matrix(0.0493827160493827,0,0,0.0493827160493827,9.876543209876539,0)" xlink:href="#Q"/><use transform="matrix(0.0493827160493827,0,0,0.0493827160493827,24.641975308641968,0)" xlink:href="#R"/></g><path fill="#333" d="M101-251c68 0 85 55 85 127S166 4 100 4C33 4 14-52 14-124c0-73 17-127 87-127zm-1 229c47 0 54-49 54-102s-4-102-53-102c-51 0-55 48-55 102 0 53 5 102 54 102" id="S"/><use transform="matrix(0.0493827160493827,0,0,0.0493827160493827,0,0)" xlink:href="#S" id="i"/><path fill="#333" d="M101-251c82-7 93 87 43 132L82-64C71-53 59-42 53-27h129V0H18c2-99 128-94 128-182 0-28-16-43-45-43s-46 15-49 41l-32-3c6-41 34-60 81-64" id="T"/><use transform="matrix(0.0493827160493827,0,0,0.0493827160493827,0,0)" xlink:href="#T" id="j"/><path fill="#333" d="M50-231l6-30h32l-6 30H50zM6 0l37-190h31L37 0H6" id="U"/><path fill="#333" d="M28-184c13-41 42-62 95-67 81-7 97 95 38 128-25 14-56 24-63 57H67c6-67 99-52 99-119 0-27-20-37-46-38-33 0-55 19-63 46zM53 0l6-35h35L87 0H53" id="V"/><path fill="#333" d="M75 0H46l208-248h30zM26-148c1-56 18-102 70-102 31 0 46 20 45 54-2 54-18 104-70 104-32 0-46-22-45-56zm91-51c0-19-6-32-21-32-40 0-44 48-46 86-1 19 6 33 22 33 38 0 45-51 45-87zm72 145c2-54 18-102 70-102 32 0 46 22 46 55 0 53-18 103-70 103-32 0-47-21-46-56zm91-51c1-20-5-32-21-32-39 0-43 50-46 86-2 19 6 33 22 33 39 0 42-49 45-87" id="W"/><g id="k"><use transform="matrix(0.0493827160493827,0,0,0.0493827160493827,0,0)" xlink:href="#U"/><use transform="matrix(0.0493827160493827,0,0,0.0493827160493827,3.9012345679012332,0)" xlink:href="#N"/><use transform="matrix(0.0493827160493827,0,0,0.0493827160493827,14.2716049382716,0)" xlink:href="#V"/><use transform="matrix(0.0493827160493827,0,0,0.0493827160493827,24.148148148148138,0)" xlink:href="#W"/><use transform="matrix(0.0493827160493827,0,0,0.0493827160493827,39.950617283950606,0)" xlink:href="#P"/><use transform="matrix(0.0493827160493827,0,0,0.0493827160493827,49.827160493827144,0)" xlink:href="#Q"/><use transform="matrix(0.0493827160493827,0,0,0.0493827160493827,64.59259259259257,0)" xlink:href="#R"/></g><path fill="#333" d="M30-248c118-7 216 8 213 122C240-48 200 0 122 0H30v-248zM63-27c89 8 146-16 146-99s-60-101-146-95v194" id="X"/><path fill="#333" d="M100-194c63 0 86 42 84 106H49c0 40 14 67 53 68 26 1 43-12 49-29l28 8c-11 28-37 45-77 45C44 4 14-33 15-96c1-61 26-98 85-98zm52 81c6-60-76-77-97-28-3 7-6 17-6 28h103" id="Y"/><path fill="#333" d="M84 4C-5 8 30-112 23-190h32v120c0 31 7 50 39 49 72-2 45-101 50-169h31l1 190h-30c-1-10 1-25-2-33-11 22-28 36-60 37" id="Z"/><path fill="#333" d="M85-194c31 0 48 13 60 33l-1-100h32l1 261h-30c-2-10 0-23-3-31C134-8 116 4 85 4 32 4 16-35 15-94c0-66 23-100 70-100zm9 24c-40 0-46 34-46 75 0 40 6 74 45 74 42 0 51-32 51-76 0-42-9-74-50-73" id="aa"/><path fill="#333" d="M141-36C126-15 110 5 73 4 37 3 15-17 15-53c-1-64 63-63 125-63 3-35-9-54-41-54-24 1-41 7-42 31l-33-3c5-37 33-52 76-52 45 0 72 20 72 64v82c-1 20 7 32 28 27v20c-31 9-61-2-59-35zM48-53c0 20 12 33 32 33 41-3 63-29 60-74-43 2-92-5-92 41" id="ab"/><g id="l"><use transform="matrix(0.0493827160493827,0,0,0.0493827160493827,0,0)" xlink:href="#X"/><use transform="matrix(0.0493827160493827,0,0,0.0493827160493827,12.79012345679012,0)" xlink:href="#Y"/><use transform="matrix(0.0493827160493827,0,0,0.0493827160493827,22.666666666666657,0)" xlink:href="#Z"/><use transform="matrix(0.0493827160493827,0,0,0.0493827160493827,32.543209876543195,0)" xlink:href="#aa"/><use transform="matrix(0.0493827160493827,0,0,0.0493827160493827,42.41975308641973,0)" xlink:href="#ab"/></g><path fill="#333" d="M24-231v-30h32v30H24zM24 0v-190h32V0H24" id="ac"/><path fill="#333" d="M117-194c89-4 53 116 60 194h-32v-121c0-31-8-49-39-48C34-167 62-67 57 0H25l-1-190h30c1 10-1 24 2 32 11-22 29-35 61-36" id="ad"/><path fill="#333" d="M96-169c-40 0-48 33-48 73s9 75 48 75c24 0 41-14 43-38l32 2c-6 37-31 61-74 61-59 0-76-41-82-99-10-93 101-131 147-64 4 7 5 14 7 22l-32 3c-4-21-16-35-41-35" id="ae"/><path fill="#333" d="M24 0v-261h32V0H24" id="af"/><g id="m"><use transform="matrix(0.0493827160493827,0,0,0.0493827160493827,0,0)" xlink:href="#ac"/><use transform="matrix(0.0493827160493827,0,0,0.0493827160493827,3.9012345679012332,0)" xlink:href="#ad"/><use transform="matrix(0.0493827160493827,0,0,0.0493827160493827,13.77777777777777,0)" xlink:href="#ac"/><use transform="matrix(0.0493827160493827,0,0,0.0493827160493827,17.679012345679006,0)" xlink:href="#ae"/><use transform="matrix(0.0493827160493827,0,0,0.0493827160493827,26.56790123456789,0)" xlink:href="#ac"/><use transform="matrix(0.0493827160493827,0,0,0.0493827160493827,30.469135802469125,0)" xlink:href="#ab"/><use transform="matrix(0.0493827160493827,0,0,0.0493827160493827,40.34567901234566,0)" xlink:href="#af"/></g><path fill="#333" d="M76-167L44 0H12l33-167H18l4-23h27c3-47 25-81 82-69l-4 24c-35-8-44 15-46 45h37l-5 23H76" id="ag"/><g id="n"><use transform="matrix(0.06172839506172839,0,0,0.06172839506172839,0,0)" xlink:href="#ag"/><use transform="matrix(0.06172839506172839,0,0,0.06172839506172839,6.172839506172839,0)" xlink:href="#ag"/></g><use transform="matrix(0.030864197530864182,0,0,0.030864197530864182,0,0)" xlink:href="#T" id="o"/><path fill="#333" d="M63-220v92h138v28H63V0H30v-248h175v28H63" id="ah"/><use transform="matrix(0.049382716049382706,0,0,0.049382716049382706,0,0)" xlink:href="#ah" id="p"/><path fill="#333" d="M18-150v-26h174v26H18zm0 90v-26h174v26H18" id="ai"/><path fill="#333" d="M194-70c0 46-34 64-81 66v29H91V-4C42-5 12-27 4-67l30-6c5 28 25 41 57 43v-87c-38-9-76-20-76-67 1-42 33-58 76-59v-23h22v23c45 0 67 20 76 56l-31 6c-5-23-18-35-45-37v78c41 10 81 20 81 70zm-81 41c51 7 71-66 19-77-6-2-12-4-19-6v83zM91-219c-47-6-63 57-18 69 6 2 12 3 18 5v-74" id="aj"/><path fill="#333" d="M54-142c48-35 137-8 131 61C196 18 31 33 14-55l32-4c7 23 22 37 52 37 35-1 51-22 54-58 4-55-73-65-99-34H22l8-134h141v27H59" id="ak"/><path fill="#333" d="M33 0v-38h34V0H33" id="al"/><g id="q"><use transform="matrix(0.049382716049382706,0,0,0.049382716049382706,0,0)" xlink:href="#ai"/><use transform="matrix(0.049382716049382706,0,0,0.049382716049382706,10.370370370370368,0)" xlink:href="#aj"/><use transform="matrix(0.049382716049382706,0,0,0.049382716049382706,20.24691358024691,0)" xlink:href="#L"/><use transform="matrix(0.049382716049382706,0,0,0.049382716049382706,30.123456790123452,0)" xlink:href="#ak"/><use transform="matrix(0.049382716049382706,0,0,0.049382716049382706,39.99999999999999,0)" xlink:href="#al"/><use transform="matrix(0.049382716049382706,0,0,0.049382716049382706,44.938271604938265,0)" xlink:href="#S"/><use transform="matrix(0.049382716049382706,0,0,0.049382716049382706,54.8148148148148,0)" xlink:href="#S"/><use transform="matrix(0.049382716049382706,0,0,0.049382716049382706,64.69135802469135,0)" xlink:href="#S"/></g><path fill="#333" d="M27 0v-27h64v-190l-56 39v-29l58-41h29v221h61V0H27" id="am"/><use transform="matrix(0.030864197530864182,0,0,0.030864197530864182,0,0)" xlink:href="#am" id="r"/><use transform="matrix(0.0493827160493827,0,0,0.0493827160493827,0,0)" xlink:href="#am" id="s"/><use transform="matrix(0.049382716049382706,0,0,0.049382716049382706,0,0)" xlink:href="#ah" id="t"/><path fill="#333" d="M64 0c3-98 48-159 88-221H18v-27h164v26C143-157 98-101 97 0H64" id="an"/><g id="u"><use transform="matrix(0.049382716049382706,0,0,0.049382716049382706,0,0)" xlink:href="#ai"/><use transform="matrix(0.049382716049382706,0,0,0.049382716049382706,10.370370370370368,0)" xlink:href="#aj"/><use transform="matrix(0.049382716049382706,0,0,0.049382716049382706,20.24691358024691,0)" xlink:href="#an"/><use transform="matrix(0.049382716049382706,0,0,0.049382716049382706,30.123456790123452,0)" xlink:href="#S"/><use transform="matrix(0.049382716049382706,0,0,0.049382716049382706,39.99999999999999,0)" xlink:href="#al"/><use transform="matrix(0.049382716049382706,0,0,0.049382716049382706,44.938271604938265,0)" xlink:href="#S"/><use transform="matrix(0.049382716049382706,0,0,0.049382716049382706,54.8148148148148,0)" xlink:href="#S"/><use transform="matrix(0.049382716049382706,0,0,0.049382716049382706,64.69135802469135,0)" xlink:href="#S"/></g><g id="v"><use transform="matrix(0.049382716049382706,0,0,0.049382716049382706,0,0)" xlink:href="#am"/><use transform="matrix(0.049382716049382706,0,0,0.049382716049382706,9.87654320987654,0)" xlink:href="#T"/></g><path fill="#333" d="M9 0l6-27h63l36-188-63 39 6-31 66-41h29L110-27h60l-5 27H9" id="ao"/><path fill="#333" d="M123-251c66 0 92 69 53 113C138-94 73-75 39-27h128l-5 27H-2c17-92 123-93 159-163 14-28-1-64-36-62-29 2-46 17-54 41l-30-6c13-36 37-61 86-61" id="ap"/><g id="w"><use transform="matrix(0.0493827160493827,0,0,0.0493827160493827,0,0)" xlink:href="#ao"/><use transform="matrix(0.0493827160493827,0,0,0.0493827160493827,9.876543209876539,0)" xlink:href="#ap"/></g><use transform="matrix(0.0493827160493827,0,0,0.0493827160493827,0,0)" xlink:href="#T" id="x"/><use transform="matrix(0.0493827160493827,0,0,0.0493827160493827,0,0)" xlink:href="#S" id="y"/><path fill="#333" d="M145-31C134-9 116 4 85 4 32 4 16-35 15-94c0-59 17-99 70-100 32-1 48 14 60 33 0-11-1-24 2-32h30l-1 268h-32zM93-21c41 0 51-33 51-76s-8-73-50-73c-40 0-46 35-46 75s5 74 45 74" id="aq"/><path fill="#333" d="M59-47c-2 24 18 29 38 22v24C64 9 27 4 27-40v-127H5v-23h24l9-43h21v43h35v23H59v120" id="ar"/><g id="z"><use transform="matrix(0.0493827160493827,0,0,0.0493827160493827,0,0)" xlink:href="#Y"/><use transform="matrix(0.0493827160493827,0,0,0.0493827160493827,9.876543209876539,0)" xlink:href="#aq"/><use transform="matrix(0.0493827160493827,0,0,0.0493827160493827,19.753086419753078,0)" xlink:href="#Z"/><use transform="matrix(0.0493827160493827,0,0,0.0493827160493827,29.62962962962962,0)" xlink:href="#ac"/><use transform="matrix(0.0493827160493827,0,0,0.0493827160493827,33.53086419753085,0)" xlink:href="#J"/><use transform="matrix(0.0493827160493827,0,0,0.0493827160493827,42.41975308641974,0)" xlink:href="#ab"/><use transform="matrix(0.0493827160493827,0,0,0.0493827160493827,52.296296296296276,0)" xlink:href="#af"/><use transform="matrix(0.0493827160493827,0,0,0.0493827160493827,56.19753086419751,0)" xlink:href="#Y"/><use transform="matrix(0.0493827160493827,0,0,0.0493827160493827,66.07407407407405,0)" xlink:href="#ad"/><use transform="matrix(0.0493827160493827,0,0,0.0493827160493827,75.95061728395059,0)" xlink:href="#ar"/><use transform="matrix(0.0493827160493827,0,0,0.0493827160493827,80.88888888888886,0)" xlink:href="#Y"/></g><g id="A"><use transform="matrix(0.06172839506172839,0,0,0.06172839506172839,0,0)" xlink:href="#ag"/><use transform="matrix(0.06172839506172839,0,0,0.06172839506172839,6.172839506172839,0)" xlink:href="#ag"/></g><use transform="matrix(0.030864197530864182,0,0,0.030864197530864182,0,0)" xlink:href="#G" id="B"/><g id="C"><use transform="matrix(0.049382716049382706,0,0,0.049382716049382706,0,0)" xlink:href="#ai"/><use transform="matrix(0.049382716049382706,0,0,0.049382716049382706,10.370370370370368,0)" xlink:href="#aj"/><use transform="matrix(0.049382716049382706,0,0,0.049382716049382706,20.24691358024691,0)" xlink:href="#am"/><use transform="matrix(0.049382716049382706,0,0,0.049382716049382706,30.123456790123452,0)" xlink:href="#K"/><use transform="matrix(0.049382716049382706,0,0,0.049382716049382706,39.99999999999999,0)" xlink:href="#S"/><use transform="matrix(0.049382716049382706,0,0,0.049382716049382706,49.87654320987653,0)" xlink:href="#al"/><use transform="matrix(0.049382716049382706,0,0,0.049382716049382706,54.8148148148148,0)" xlink:href="#S"/><use transform="matrix(0.049382716049382706,0,0,0.049382716049382706,64.69135802469134,0)" xlink:href="#S"/><use transform="matrix(0.049382716049382706,0,0,0.049382716049382706,74.56790123456788,0)" xlink:href="#S"/></g><use transform="matrix(0.030864197530864182,0,0,0.030864197530864182,0,0)" xlink:href="#K" id="D"/><g id="E"><use transform="matrix(0.049382716049382706,0,0,0.049382716049382706,0,0)" xlink:href="#ai"/><use transform="matrix(0.049382716049382706,0,0,0.049382716049382706,10.370370370370368,0)" xlink:href="#aj"/><use transform="matrix(0.049382716049382706,0,0,0.049382716049382706,20.24691358024691,0)" xlink:href="#ak"/><use transform="matrix(0.049382716049382706,0,0,0.049382716049382706,30.123456790123452,0)" xlink:href="#S"/><use transform="matrix(0.049382716049382706,0,0,0.049382716049382706,39.99999999999999,0)" xlink:href="#al"/><use transform="matrix(0.049382716049382706,0,0,0.049382716049382706,44.938271604938265,0)" xlink:href="#S"/><use transform="matrix(0.049382716049382706,0,0,0.049382716049382706,54.8148148148148,0)" xlink:href="#S"/><use transform="matrix(0.049382716049382706,0,0,0.049382716049382706,64.69135802469135,0)" xlink:href="#S"/></g><path fill="#333" d="M149-56L138 0h-32l11-56H2l5-25 144-167h35L154-81h33l-5 25h-33zm-4-147L40-81h82" id="as"/><use transform="matrix(0.0493827160493827,0,0,0.0493827160493827,0,0)" xlink:href="#as" id="F"/></defs></g></svg>