<svg xmlns="http://www.w3.org/2000/svg" xmlns:xlink="http://www.w3.org/1999/xlink" xmlns:lucid="lucid" width="640" height="375.51"><g transform="translate(-409.33333333333337 -59)" lucid:page-tab-id="0_0"><path d="M0 0h1870.4v1323.2H0z" fill="#fff"/><path d="M540 85c0-3.3 2.7-6 6-6h228c3.3 0 6 2.7 6 6v48c0 3.3-2.7 6-6 6H546c-3.3 0-6-2.7-6-6z" fill="none"/><use xlink:href="#a" transform="matrix(1,0,0,1,540,79) translate(46.000000000000014 33.55555555555556)"/><use xlink:href="#b" transform="matrix(1,0,0,1,540,79) translate(103.23456790123458 33.55555555555556)"/><path d="M909.33 226.83c0-3.32 2.7-6 6-6h89.34c3.3 0 6 2.68 6 6v48c0 3.3-2.7 6-6 6h-89.34c-3.3 0-6-2.7-6-6z" fill="none"/><use xlink:href="#c" transform="matrix(1,0,0,1,909.3333333333334,220.82711055835784) translate(26.82716049382717 33.55555555555556)"/><use xlink:href="#d" transform="matrix(1,0,0,1,909.3333333333334,220.82711055835784) translate(41.641975308641975 33.55555555555556)"/><path d="M447.1 238.83h481.23M447.14 238.83h-1.03M928.3 238.83h1.03M449.33 239.83v60.5M449.33 239.85v-1.02" stroke="#5e5e5e" stroke-width="2" fill="none"/><path d="M449.33 315.6l-4.63-14.27h9.27z" stroke="#5e5e5e" stroke-width="2" fill="#5e5e5e"/><path d="M929.33 239.83v60.5M929.33 239.85v-1.02" stroke="#5e5e5e" stroke-width="2" fill="none"/><path d="M929.33 315.6l-4.63-14.27h9.27z" stroke="#5e5e5e" stroke-width="2" fill="#5e5e5e"/><path d="M449.6 319.8l.17.55.22.6.28.68.35.75.1.18m2.08 3.4l.44.62 1.16 1.52 1.52 1.83.63.7m2.74 2.9l1.37 1.4 2.93 2.74m3 2.64l3.22 2.77 1.37 1.08m3.12 2.47l3.35 2.63 1.4 1m3.23 2.35l4.86 3.5m3.26 2.3l5 3.3m3.33 2.2l5 3.3m3.33 2.18l5.13 3.08m3.42 2.06l5.13 3.1m3.42 2.05l5.13 3.1m3.45 1.98l5.25 2.87m3.5 1.92l5.25 2.88m3.5 1.92l5.25 2.87m3.52 1.9l5.36 2.65m3.58 1.78l5.36 2.66m3.57 1.76l2.37 1.18 3.04 1.36m3.66 1.62l5.46 2.44m3.7 1.5l3.73 1.46 1.87.65m3.8 1.25l.88.27 1.64.4 1.13.25.8.14h.07l1.32.15m3.96.46l1.22.15 4.74.36m3.98.32l5.97.45m3.98.25l6 .2m3.98.16l5.98.2m4 .15l4.77.18h1.2m4-.02l5.98-.03m4-.02l5.98-.03m4-.03h3.5l2.48-.13m3.98-.2l5.98-.27m4-.18l5.97-.3m3.97-.18l.97-.05 5-.44m3.97-.35l5.98-.53m3.97-.36l5.8-.52.16-.02m3.97-.52l5.93-.78m3.96-.52l5.93-.78m3.94-.6l5.9-1.03m3.92-.68l5.9-1.03m3.9-.8l5.86-1.26m3.9-.85l4.5-.97 1.34-.35m3.86-1l5.8-1.53m3.84-1l5.73-1.77m3.8-1.17l3.23-.98 2.46-.87m3.75-1.33l5.2-1.84.44-.18m3.7-1.5l5.54-2.22m3.65-1.62l5.44-2.46m3.58-1.78l4.9-2.46.43-.24m3.5-1.94l3.36-1.88 1.83-1.1m3.4-2.1l1.37-.83 3.64-2.44m3.28-2.27l4.5-3.3.3-.25m3.13-2.5l1.54-1.22 3-2.64m2.97-2.68l2.75-2.62 1.52-1.57m2.76-2.88l3.12-3.5.82-1m2.53-3.1l2.96-3.95.6-.87m2.25-3.3l1.6-2.52M449.57 319.83l-.24-1" stroke="#c92d39" stroke-width="2" fill="none"/><path d="M927.85 321.7l-2.4 14.8-8.25-4.23z" stroke="#c92d39" stroke-width="2" fill="#c92d39"/><path d="M869.33 144.83c0-3.32 2.7-6 6-6h132.8c3.32 0 6 2.68 6 6v48c0 3.3-2.68 6-6 6h-132.8c-3.3 0-6-2.7-6-6z" fill="none"/><use xlink:href="#e" transform="matrix(1,0,0,1,869.3333333333334,138.82711055835784) translate(66.32716049382717 34.44444444444444)"/><path d="M929.33 139.83v1.96m0 7.86v3.93m0 7.86v3.93m0 7.86v3.93m0 7.86V189m0 7.86v3.93m0 7.86v3.93m0 7.86v3.93m0 7.86v3.93m0 7.86V248m0 7.86v1.97M929.33 139.85v-1.02M929.33 257.8v1.03" stroke="#5e5e5e" stroke-width="2" fill="none"/><path d="M429.33 224.83c0-3.32 2.7-6 6-6h89.34c3.3 0 6 2.68 6 6v48c0 3.3-2.7 6-6 6h-89.34c-3.3 0-6-2.7-6-6z" fill="none"/><use xlink:href="#f" transform="matrix(1,0,0,1,429.33333333333337,218.82711055835784) translate(26.82716049382717 33.55555555555556)"/><use xlink:href="#d" transform="matrix(1,0,0,1,429.33333333333337,218.82711055835784) translate(41.641975308641975 33.55555555555556)"/><path d="M909.33 264.83c0-3.32 2.7-6 6-6h108c3.32 0 6 2.68 6 6v48c0 3.3-2.68 6-6 6h-108c-3.3 0-6-2.7-6-6z" fill="none"/><use xlink:href="#g" transform="matrix(1,0,0,1,909.3333333333334,258.82711055835784) translate(34.592592592592595 33.55555555555556)"/><use xlink:href="#h" transform="matrix(1,0,0,1,909.3333333333334,258.82711055835784) translate(55.28395061728395 33.55555555555556)"/><path d="M469.33 264.83c0-3.32 2.7-6 6-6h8c3.32 0 6 2.68 6 6v48c0 3.3-2.68 6-6 6h-8c-3.3 0-6-2.7-6-6z" fill="none"/><use xlink:href="#i" transform="matrix(1,0,0,1,469.33333333333337,258.82711055835784) translate(6.913580246913582 32.22222222222222)"/><path d="M949.33 264.83c0-3.32 2.7-6 6-6h8c3.32 0 6 2.68 6 6v48c0 3.3-2.68 6-6 6h-8c-3.3 0-6-2.7-6-6z" fill="none"/><use xlink:href="#j" transform="matrix(1,0,0,1,949.3333333333334,258.82711055835784) translate(6.913580246913582 32.22222222222222)"/><path d="M429.33 264.83c0-3.32 2.7-6 6-6h108c3.32 0 6 2.68 6 6v48c0 3.3-2.68 6-6 6h-108c-3.3 0-6-2.7-6-6z" fill="none"/><use xlink:href="#g" transform="matrix(1,0,0,1,429.33333333333337,258.82711055835784) translate(34.592592592592595 33.55555555555556)"/><use xlink:href="#h" transform="matrix(1,0,0,1,429.33333333333337,258.82711055835784) translate(55.28395061728395 33.55555555555556)"/><path d="M600 306c0-3.3 2.7-6 6-6h161.33c3.32 0 6 2.7 6 6v48c0 3.3-2.68 6-6 6H606c-3.3 0-6-2.7-6-6z" fill="none"/><use xlink:href="#k" transform="matrix(1,0,0,1,600,300) translate(47.765432098765444 33.55555555555556)"/><use xlink:href="#l" transform="matrix(1,0,0,1,600,300) translate(72.45679012345678 33.55555555555556)"/><path d="M611 266c0-3.3 2.7-6 6-6h158c3.3 0 6 2.7 6 6v48c0 3.3-2.7 6-6 6H617c-3.3 0-6-2.7-6-6z" fill="none"/><g><use xlink:href="#m" transform="matrix(1,0,0,1,611,260) translate(31.47530864197533 33.55555555555556)"/><use xlink:href="#n" transform="matrix(1,0,0,1,611,260) translate(45.2530864197531 33.55555555555556)"/><use xlink:href="#o" transform="matrix(1,0,0,1,611,260) translate(96.11728395061728 33.55555555555556)"/></g><path d="M651 306c0-3.3 2.7-6 6-6h8c3.3 0 6 2.7 6 6v48c0 3.3-2.7 6-6 6h-8c-3.3 0-6-2.7-6-6z" fill="none"/><g><use xlink:href="#p" transform="matrix(1,0,0,1,651,300) translate(6.913580246913582 32.22222222222222)"/></g><path d="M643.75 266c0-3.3 2.7-6 6-6h8c3.3 0 6 2.7 6 6v48c0 3.3-2.7 6-6 6h-8c-3.3 0-6-2.7-6-6z" fill="none"/><g><use xlink:href="#p" transform="matrix(1,0,0,1,643.75,260) translate(6.913580246913582 32.22222222222222)"/></g><defs><path fill="#333" d="M30-248c118-7 216 8 213 122C240-48 200 0 122 0H30v-248zM63-27c89 8 146-16 146-99s-60-101-146-95v194" id="q"/><path fill="#333" d="M100-194c63 0 86 42 84 106H49c0 40 14 67 53 68 26 1 43-12 49-29l28 8c-11 28-37 45-77 45C44 4 14-33 15-96c1-61 26-98 85-98zm52 81c6-60-76-77-97-28-3 7-6 17-6 28h103" id="r"/><path fill="#333" d="M84 4C-5 8 30-112 23-190h32v120c0 31 7 50 39 49 72-2 45-101 50-169h31l1 190h-30c-1-10 1-25-2-33-11 22-28 36-60 37" id="s"/><path fill="#333" d="M85-194c31 0 48 13 60 33l-1-100h32l1 261h-30c-2-10 0-23-3-31C134-8 116 4 85 4 32 4 16-35 15-94c0-66 23-100 70-100zm9 24c-40 0-46 34-46 75 0 40 6 74 45 74 42 0 51-32 51-76 0-42-9-74-50-73" id="t"/><path fill="#333" d="M141-36C126-15 110 5 73 4 37 3 15-17 15-53c-1-64 63-63 125-63 3-35-9-54-41-54-24 1-41 7-42 31l-33-3c5-37 33-52 76-52 45 0 72 20 72 64v82c-1 20 7 32 28 27v20c-31 9-61-2-59-35zM48-53c0 20 12 33 32 33 41-3 63-29 60-74-43 2-92-5-92 41" id="u"/><g id="a"><use transform="matrix(0.049382716049382706,0,0,0.049382716049382706,0,0)" xlink:href="#q"/><use transform="matrix(0.049382716049382706,0,0,0.049382716049382706,12.790123456790122,0)" xlink:href="#r"/><use transform="matrix(0.049382716049382706,0,0,0.049382716049382706,22.666666666666664,0)" xlink:href="#s"/><use transform="matrix(0.049382716049382706,0,0,0.049382716049382706,32.5432098765432,0)" xlink:href="#t"/><use transform="matrix(0.049382716049382706,0,0,0.049382716049382706,42.419753086419746,0)" xlink:href="#u"/></g><path fill="#333" d="M145-31C134-9 116 4 85 4 32 4 16-35 15-94c0-59 17-99 70-100 32-1 48 14 60 33 0-11-1-24 2-32h30l-1 268h-32zM93-21c41 0 51-33 51-76s-8-73-50-73c-40 0-46 35-46 75s5 74 45 74" id="v"/><path fill="#333" d="M24-231v-30h32v30H24zM24 0v-190h32V0H24" id="w"/><path fill="#333" d="M108 0H70L1-190h34L89-25l56-165h34" id="x"/><path fill="#333" d="M24 0v-261h32V0H24" id="y"/><path fill="#333" d="M117-194c89-4 53 116 60 194h-32v-121c0-31-8-49-39-48C34-167 62-67 57 0H25l-1-190h30c1 10-1 24 2 32 11-22 29-35 61-36" id="z"/><path fill="#333" d="M59-47c-2 24 18 29 38 22v24C64 9 27 4 27-40v-127H5v-23h24l9-43h21v43h35v23H59v120" id="A"/><g id="b"><use transform="matrix(0.049382716049382706,0,0,0.049382716049382706,0,0)" xlink:href="#r"/><use transform="matrix(0.049382716049382706,0,0,0.049382716049382706,9.87654320987654,0)" xlink:href="#v"/><use transform="matrix(0.049382716049382706,0,0,0.049382716049382706,19.75308641975308,0)" xlink:href="#s"/><use transform="matrix(0.049382716049382706,0,0,0.049382716049382706,29.629629629629623,0)" xlink:href="#w"/><use transform="matrix(0.049382716049382706,0,0,0.049382716049382706,33.53086419753085,0)" xlink:href="#x"/><use transform="matrix(0.049382716049382706,0,0,0.049382716049382706,42.41975308641974,0)" xlink:href="#u"/><use transform="matrix(0.049382716049382706,0,0,0.049382716049382706,52.296296296296276,0)" xlink:href="#y"/><use transform="matrix(0.049382716049382706,0,0,0.049382716049382706,56.19753086419751,0)" xlink:href="#r"/><use transform="matrix(0.049382716049382706,0,0,0.049382716049382706,66.07407407407405,0)" xlink:href="#z"/><use transform="matrix(0.049382716049382706,0,0,0.049382716049382706,75.95061728395059,0)" xlink:href="#A"/><use transform="matrix(0.049382716049382706,0,0,0.049382716049382706,80.88888888888886,0)" xlink:href="#r"/></g><path fill="#333" d="M184-94c-4 58-33 98-90 98-50 0-74-35-74-86 0-94 36-181 136-167 24 3 39 21 44 47l-29 6c-8-40-68-34-87-5-13 20-24 43-30 73 28-51 135-39 130 34zm-73-42c-35 2-61 22-60 62 1 30 14 52 44 52 38 0 55-31 56-70 1-26-14-46-40-44" id="B"/><use transform="matrix(0.0493827160493827,0,0,0.0493827160493827,0,0)" xlink:href="#B" id="c"/><path fill="#333" d="M67-162c32-53 139-36 121 50C175-51 163 2 97 4 68 4 52-11 42-31 38 6 28 39 22 75H-9l50-265h29c-1 10 0 20-3 28zm89 36c0-26-10-43-35-43-54 0-67 50-69 103-1 29 14 45 42 46 53 0 62-58 62-106" id="C"/><path fill="#333" d="M248-111c6-24 9-61-24-58-72 9-57 108-77 169h-31l26-142c3-37-50-30-64-10C52-115 50-51 37 0H6l36-190h30c-1 10-6 24-4 32 13-43 101-52 105 5 13-22 29-41 61-41 90 0 28 129 23 194h-31" id="D"/><path fill="#333" d="M89 0H52L20-190h33L74-25l89-165h34" id="E"/><g id="d"><use transform="matrix(0.0493827160493827,0,0,0.0493827160493827,0,0)" xlink:href="#C"/><use transform="matrix(0.0493827160493827,0,0,0.0493827160493827,9.876543209876539,0)" xlink:href="#D"/><use transform="matrix(0.0493827160493827,0,0,0.0493827160493827,24.641975308641968,0)" xlink:href="#E"/></g><path fill="#333" d="M76-167L44 0H12l33-167H18l4-23h27c3-47 25-81 82-69l-4 24c-35-8-44 15-46 45h37l-5 23H76" id="F"/><g id="e"><use transform="matrix(0.06172839506172839,0,0,0.06172839506172839,0,0)" xlink:href="#F"/><use transform="matrix(0.06172839506172839,0,0,0.06172839506172839,6.172839506172839,0)" xlink:href="#F"/></g><path fill="#333" d="M16-82c0-90 25-169 113-169 48 0 68 33 68 82C197-79 170 4 84 4 37 4 16-31 16-82zm30 5c0 32 11 55 40 55 69 0 76-79 80-149 2-32-10-55-39-55-69 0-81 81-81 149" id="G"/><use transform="matrix(0.0493827160493827,0,0,0.0493827160493827,0,0)" xlink:href="#G" id="f"/><path fill="#333" d="M63-220v92h138v28H63V0H30v-248h175v28H63" id="H"/><use transform="matrix(0.049382716049382706,0,0,0.049382716049382706,0,0)" xlink:href="#H" id="g"/><path fill="#333" d="M18-150v-26h174v26H18zm0 90v-26h174v26H18" id="I"/><path fill="#333" d="M194-70c0 46-34 64-81 66v29H91V-4C42-5 12-27 4-67l30-6c5 28 25 41 57 43v-87c-38-9-76-20-76-67 1-42 33-58 76-59v-23h22v23c45 0 67 20 76 56l-31 6c-5-23-18-35-45-37v78c41 10 81 20 81 70zm-81 41c51 7 71-66 19-77-6-2-12-4-19-6v83zM91-219c-47-6-63 57-18 69 6 2 12 3 18 5v-74" id="J"/><path fill="#333" d="M103-251c84 0 111 97 45 133-19 10-37 24-39 52H78c0-63 77-55 77-114 0-30-21-42-52-43-32 0-53 17-56 46l-32-2c7-45 34-72 88-72zM77 0v-35h34V0H77" id="K"/><g id="h"><use transform="matrix(0.049382716049382706,0,0,0.049382716049382706,0,0)" xlink:href="#I"/><use transform="matrix(0.049382716049382706,0,0,0.049382716049382706,10.370370370370368,0)" xlink:href="#J"/><use transform="matrix(0.049382716049382706,0,0,0.049382716049382706,20.24691358024691,0)" xlink:href="#K"/></g><path fill="#333" d="M155-56V0h-30v-56H8v-25l114-167h33v167h35v25h-35zm-30-156c-27 46-58 90-88 131h88v-131" id="L"/><use transform="matrix(0.030864197530864182,0,0,0.030864197530864182,0,0)" xlink:href="#L" id="i"/><path fill="#333" d="M54-142c48-35 137-8 131 61C196 18 31 33 14-55l32-4c7 23 22 37 52 37 35-1 51-22 54-58 4-55-73-65-99-34H22l8-134h141v27H59" id="M"/><use transform="matrix(0.030864197530864182,0,0,0.030864197530864182,0,0)" xlink:href="#M" id="j"/><path fill="#333" d="M67-158c22-48 132-52 116 29L158 0h-32l25-140c3-38-53-32-70-12C52-117 51-52 38 0H6l36-190h30" id="N"/><use transform="matrix(0.0493827160493827,0,0,0.0493827160493827,0,0)" xlink:href="#N" id="k"/><path fill="#333" d="M23-150v-26h175v26H23zm0 90v-26h175v26H23" id="O"/><g id="l"><use transform="matrix(0.0493827160493827,0,0,0.0493827160493827,0,0)" xlink:href="#O"/><use transform="matrix(0.0493827160493827,0,0,0.0493827160493827,10.370370370370367,0)" xlink:href="#B"/><use transform="matrix(0.0493827160493827,0,0,0.0493827160493827,20.246913580246904,0)" xlink:href="#C"/><use transform="matrix(0.0493827160493827,0,0,0.0493827160493827,30.12345679012344,0)" xlink:href="#D"/><use transform="matrix(0.0493827160493827,0,0,0.0493827160493827,44.88888888888887,0)" xlink:href="#E"/></g><path fill="#333" d="M51-231l6-30h31l-6 30H51zM33 24C28 60 2 84-40 72c3-12-1-29 18-22C-5 49-1 37 2 19l41-209h32" id="P"/><use transform="matrix(0.0493827160493827,0,0,0.0493827160493827,0,0)" xlink:href="#P" id="m"/><path fill="#333" d="M123-251c66 0 92 69 53 113C138-94 73-75 39-27h128l-5 27H-2c17-92 123-93 159-163 14-28-1-64-36-62-29 2-46 17-54 41l-30-6c13-36 37-61 86-61" id="Q"/><path fill="#333" d="M39-185c1-48 36-66 85-66 42 0 74 18 74 59 0 38-25 57-56 64 23 7 40 22 40 52 0 55-39 80-94 80C40 4 10-17 9-63c-1-44 31-60 63-71-20-7-33-25-33-51zm31 3c0 26 17 39 46 39 34 0 48-18 49-48 0-25-18-36-45-36-32 0-50 15-50 45zm79 105c0-29-19-41-50-41-37 0-57 20-57 55 0 29 19 42 49 42 36 0 58-19 58-56" id="R"/><path fill="#333" d="M75 0H46l208-248h30zM26-148c1-56 18-102 70-102 31 0 46 20 45 54-2 54-18 104-70 104-32 0-46-22-45-56zm91-51c0-19-6-32-21-32-40 0-44 48-46 86-1 19 6 33 22 33 38 0 45-51 45-87zm72 145c2-54 18-102 70-102 32 0 46 22 46 55 0 53-18 103-70 103-32 0-47-21-46-56zm91-51c1-20-5-32-21-32-39 0-43 50-46 86-2 19 6 33 22 33 39 0 42-49 45-87" id="S"/><g id="n"><use transform="matrix(0.0493827160493827,0,0,0.0493827160493827,0,0)" xlink:href="#O"/><use transform="matrix(0.0493827160493827,0,0,0.0493827160493827,10.370370370370367,0)" xlink:href="#Q"/><use transform="matrix(0.0493827160493827,0,0,0.0493827160493827,20.246913580246904,0)" xlink:href="#R"/><use transform="matrix(0.0493827160493827,0,0,0.0493827160493827,30.12345679012344,0)" xlink:href="#S"/></g><path fill="#333" d="M165-48c-4 18 1 34 23 27l-3 20c-29 8-62 0-52-35h-2C116-14 99 4 63 4 30 4 8-16 8-49c0-68 71-67 138-67 10-26 0-56-31-54-26 1-42 9-47 31l-32-5c8-67 160-71 144 15-5 28-9 54-15 81zM42-50c3 52 80 24 89-6 7-12 7-24 11-38-47 1-103-4-100 44" id="T"/><g id="o"><use transform="matrix(0.0493827160493827,0,0,0.0493827160493827,0,0)" xlink:href="#N"/><use transform="matrix(0.0493827160493827,0,0,0.0493827160493827,9.876543209876539,0)" xlink:href="#T"/><use transform="matrix(0.0493827160493827,0,0,0.0493827160493827,19.753086419753078,0)" xlink:href="#D"/><use transform="matrix(0.0493827160493827,0,0,0.0493827160493827,34.518518518518505,0)" xlink:href="#E"/></g><path fill="#333" d="M126-127c33 6 58 20 58 59 0 88-139 92-164 29-3-8-5-16-6-25l32-3c6 27 21 44 54 44 32 0 52-15 52-46 0-38-36-46-79-43v-28c39 1 72-4 72-42 0-27-17-43-46-43-28 0-47 15-49 41l-32-3c6-42 35-63 81-64 48-1 79 21 79 65 0 36-21 52-52 59" id="U"/><use transform="matrix(0.030864197530864182,0,0,0.030864197530864182,0,0)" xlink:href="#U" id="p"/></defs></g></svg>