<svg xmlns="http://www.w3.org/2000/svg" xmlns:xlink="http://www.w3.org/1999/xlink" xmlns:lucid="lucid" width="470" height="231"><g transform="translate(-480 -120)" lucid:page-tab-id="0_0"><path d="M0 0h1870.4v1323.2H0z" fill="#fff"/><path d="M541.7 240.86l1.54 2.58m2.15 3.4l2 3.02 1.38 1.93m2.37 3.23l3.02 3.83.74.86m2.62 3.05l.27.3 3.76 4.06.05.05m2.87 2.8l1.03 1.03 3.38 3.08m3.06 2.6l1.97 1.64 2.75 2.1m3.23 2.37l3.22 2.24 1.76 1.12m3.38 2.15l4.94 2.9.27.13m3.54 1.87l1.6.84 3.8 1.8m3.65 1.65l4.22 1.78 1.34.5m3.76 1.4l1.2.46 4.5 1.48m3.83 1.18l5.26 1.5.53.1m3.9.94l2.9.7 2.97.57m3.93.78l.83.16 5.12.77m3.97.57l5.98.64m4 .35l6 .4m4 .1l5.9.16h.12m4-.07l5.62-.1.4-.02m4-.23l5.7-.34.3-.03m4-.4l5.98-.62m3.97-.57l5.95-.85m3.94-.7l5.9-1.1m3.93-.83l5.86-1.36m3.9-.94l5.8-1.6m3.85-1.07l.24-.06 5.48-1.77m3.82-1.23l1.44-.46 4.23-1.56m3.76-1.38l2.5-.93 3.1-1.28m3.7-1.55l3.38-1.4 2.14-1m3.63-1.7l3.98-1.86 1.45-.75m3.56-1.85l4.24-2.2 1.07-.6m3.48-2l4.16-2.4 1.05-.64m3.4-2.14l3.7-2.33 1.34-.94m3.3-2.28l2.9-2 1.98-1.5m3.2-2.4l1.77-1.34.62-.5" stroke="#c92d39" stroke-width="2" fill="none"/><path d="M542.57 240.37l-1.72 1.03-.84-1.4h2.35z" fill="#c92d39"/><path d="M847.56 249.1l-7.7 12.87-6.1-6.98z" stroke="#c92d39" stroke-width="2" fill="#c92d39"/><path d="M542.18 240H863" stroke="#5e5e5e" stroke-width="2" fill="none"/><path d="M542.2 240h-4.02v-1h4.02zM867 240.8v.2h-4.03v-1H864z" fill="#5e5e5e"/><path d="M860 339v-2.97m0-3.95v-5.94m0-3.95v-5.94m0-3.96v-5.93m0-3.96v-5.92m0-3.96v-5.93m0-3.97v-5.93m0-3.96v-5.93m0-3.94v-5.94m0-3.95v-5.94m0-3.95v-5.94m0-3.95v-5.94m0-3.96v-5.93m0-3.96v-5.92m0-3.96v-5.93m0-3.97v-5.93m0-3.96v-5.93m0-3.94v-5.94m0-3.95V161M860 338.97V340" stroke="#fcc438" stroke-width="2" fill="none"/><path d="M861 161.03h-2V160h2z" fill="#fcc438"/><path d="M850 146c0-3.3 2.7-6 6-6h8c3.3 0 6 2.7 6 6v8c0 3.3-2.7 6-6 6h-8c-3.3 0-6-2.7-6-6z" stroke="#000" stroke-opacity="0" stroke-width="3" fill="#fff" fill-opacity="0"/><use xlink:href="#a" transform="matrix(1,0,0,1,855,145) translate(2.021604938271606 8.888888888888884)"/><path d="M500 286c0-3.3 2.7-6 6-6h68c3.3 0 6 2.7 6 6v8c0 3.3-2.7 6-6 6h-68c-3.3 0-6-2.7-6-6z" stroke="#000" stroke-opacity="0" stroke-width="3" fill="#fff" fill-opacity="0"/><use xlink:href="#b" transform="matrix(1,0,0,1,505,285) translate(17.962962962962973 8.361111111111107)"/><path d="M640 266c0-3.3 2.7-6 6-6h68c3.3 0 6 2.7 6 6v8c0 3.3-2.7 6-6 6h-68c-3.3 0-6-2.7-6-6z" stroke="#000" stroke-opacity="0" stroke-width="3" fill="#fff" fill-opacity="0"/><use xlink:href="#c" transform="matrix(1,0,0,1,645,265) translate(7.425925925925938 10.666666666666664)"/><use xlink:href="#d" transform="matrix(1,0,0,1,645,265) translate(41.09259259259259 10.666666666666664)"/><use xlink:href="#e" transform="matrix(1,0,0,1,645,265) translate(11.111111111111121 26.66666666666666)"/><use xlink:href="#f" transform="matrix(1,0,0,1,645,265) translate(37.407407407407405 26.66666666666666)"/><path d="M860 239v-20.5" stroke="#0c7cba" stroke-width="2" fill="none"/><path d="M861 240h-2v-1.03h2z" fill="#0c7cba"/><path d="M860 203.24l4.64 14.26h-9.28z" stroke="#0c7cba" stroke-width="2" fill="#0c7cba"/><path d="M820 186c0-3.3 2.7-6 6-6h68c3.3 0 6 2.7 6 6v8c0 3.3-2.7 6-6 6h-68c-3.3 0-6-2.7-6-6z" stroke="#000" stroke-opacity="0" stroke-width="3" fill="#fff" fill-opacity="0"/><use xlink:href="#g" transform="matrix(1,0,0,1,825,185) translate(11.543209876543223 8.361111111111107)"/><path d="M551.18 246c0-3.3 2.68-6 6-6h8c3.3 0 6 2.7 6 6v8c0 3.3-2.7 6-6 6h-8c-3.32 0-6-2.7-6-6z" stroke="#000" stroke-opacity="0" stroke-width="3" fill="#fff" fill-opacity="0"/><use xlink:href="#h" transform="matrix(1,0,0,1,556.1785846807398,245) translate(1.9135802469135816 8.888888888888884)"/><path d="M610 246c0-3.3 2.7-6 6-6h8c3.3 0 6 2.7 6 6v8c0 3.3-2.7 6-6 6h-8c-3.3 0-6-2.7-6-6z" stroke="#000" stroke-opacity="0" stroke-width="3" fill="#fff" fill-opacity="0"/><use xlink:href="#i" transform="matrix(1,0,0,1,615,245) translate(1.9135802469135816 8.888888888888884)"/><path d="M670 246c0-3.3 2.7-6 6-6h8c3.3 0 6 2.7 6 6v8c0 3.3-2.7 6-6 6h-8c-3.3 0-6-2.7-6-6z" stroke="#000" stroke-opacity="0" stroke-width="3" fill="#fff" fill-opacity="0"/><use xlink:href="#j" transform="matrix(1,0,0,1,675,245) translate(1.9135802469135816 8.888888888888884)"/><path d="M730 246c0-3.3 2.7-6 6-6h8c3.3 0 6 2.7 6 6v8c0 3.3-2.7 6-6 6h-8c-3.3 0-6-2.7-6-6z" stroke="#000" stroke-opacity="0" stroke-width="3" fill="#fff" fill-opacity="0"/><use xlink:href="#k" transform="matrix(1,0,0,1,735,245) translate(1.9135802469135816 8.888888888888884)"/><path d="M790 246c0-3.3 2.7-6 6-6h8c3.3 0 6 2.7 6 6v8c0 3.3-2.7 6-6 6h-8c-3.3 0-6-2.7-6-6z" stroke="#000" stroke-opacity="0" stroke-width="3" fill="#fff" fill-opacity="0"/><use xlink:href="#l" transform="matrix(1,0,0,1,795,245) translate(1.9135802469135816 8.888888888888884)"/><path d="M850 246c0-3.3 2.7-6 6-6h8c3.3 0 6 2.7 6 6v8c0 3.3-2.7 6-6 6h-8c-3.3 0-6-2.7-6-6z" stroke="#000" stroke-opacity="0" stroke-width="3" fill="#fff" fill-opacity="0"/><use xlink:href="#m" transform="matrix(1,0,0,1,855,245) translate(1.9135802469135816 8.888888888888884)"/><path d="M870 246c0-3.3 2.7-6 6-6h48c3.3 0 6 2.7 6 6v8c0 3.3-2.7 6-6 6h-48c-3.3 0-6-2.7-6-6z" stroke="#000" stroke-opacity="0" stroke-width="3" fill="#fff" fill-opacity="0"/><use xlink:href="#n" transform="matrix(1,0,0,1,875,245) translate(14.259259259259265 10.666666666666664)"/><path d="M541.15 241l-.6 20.5" stroke="#99d2f2" stroke-width="2" fill="none"/><path d="M542.15 241.05l-2-.05.03-1h2z" fill="#99d2f2"/><path d="M540.1 276.77l-4.22-14.4 9.27.27z" stroke="#99d2f2" stroke-width="2" fill="#99d2f2"/><path d="M531.18 246c0-3.3 2.68-6 6-6h8c3.3 0 6 2.7 6 6v8c0 3.3-2.7 6-6 6h-8c-3.32 0-6-2.7-6-6z" stroke="#000" stroke-opacity="0" stroke-width="3" fill="#fff" fill-opacity="0"/><g><use xlink:href="#o" transform="matrix(1,0,0,1,536.1785846807398,245) translate(1.296296296296298 10.666666666666664)"/></g><defs><path fill="#333" d="M101-234c-31-9-42 10-38 44h38v23H63V0H32v-167H5v-23h27c-7-52 17-82 69-68v24" id="p"/><g id="a"><use transform="matrix(0.030864197530864182,0,0,0.030864197530864182,0,0)" xlink:href="#p"/><use transform="matrix(0.030864197530864182,0,0,0.030864197530864182,2.870370370370369,0)" xlink:href="#p"/></g><path fill="#333" d="M111-147c44 9 85 22 84 75-1 49-35 65-84 68v31H91V-4C40-5 12-27 5-72l45-8c4 24 15 38 41 40-2-22 4-51-2-69-39-10-76-22-76-72 0-47 35-60 78-63v-23h20v23c47 1 70 23 78 62l-46 7c-4-18-12-32-32-34v62zm-20-63c-33-4-45 46-13 54 4 1 8 2 13 4v-58zm20 170c39 5 53-51 15-60-7-2-7-2-15-4v64" id="q"/><path fill="#333" d="M23 0v-37h61v-169l-59 37v-38l62-41h46v211h57V0H23" id="r"/><path fill="#333" d="M115-159c48 0 72 30 72 78 0 54-30 85-83 85-64 0-91-50-91-122 0-98 58-163 141-120 15 8 21 24 27 44l-47 6c-5-31-48-31-61-4-7 14-11 33-11 60 9-17 28-27 53-27zM102-35c24 0 36-20 36-45s-11-43-37-43c-23 0-36 14-36 38 0 27 11 50 37 50" id="s"/><path fill="#333" d="M101-251c68 0 84 54 84 127C185-50 166 4 99 4S15-52 14-124c-1-75 17-127 87-127zm-1 216c37-5 36-46 36-89s4-89-36-89c-39 0-36 45-36 89 0 43-3 85 36 89" id="t"/><g id="b"><use transform="matrix(0.024691358024691343,0,0,0.024691358024691343,0,0)" xlink:href="#q"/><use transform="matrix(0.024691358024691343,0,0,0.024691358024691343,4.938271604938269,0)" xlink:href="#r"/><use transform="matrix(0.024691358024691343,0,0,0.024691358024691343,9.382716049382712,0)" xlink:href="#r"/><use transform="matrix(0.024691358024691343,0,0,0.024691358024691343,14.320987654320978,0)" xlink:href="#s"/><use transform="matrix(0.024691358024691343,0,0,0.024691358024691343,19.25925925925925,0)" xlink:href="#t"/><use transform="matrix(0.024691358024691343,0,0,0.024691358024691343,24.197530864197518,0)" xlink:href="#t"/><use transform="matrix(0.024691358024691343,0,0,0.024691358024691343,29.135802469135786,0)" xlink:href="#t"/></g><path fill="#333" d="M24-231v-30h32v30H24zM24 0v-190h32V0H24" id="u"/><path fill="#333" d="M18-150v-26h174v26H18zm0 90v-26h174v26H18" id="v"/><path fill="#333" d="M126-127c33 6 58 20 58 59 0 88-139 92-164 29-3-8-5-16-6-25l32-3c6 27 21 44 54 44 32 0 52-15 52-46 0-38-36-46-79-43v-28c39 1 72-4 72-42 0-27-17-43-46-43-28 0-47 15-49 41l-32-3c6-42 35-63 81-64 48-1 79 21 79 65 0 36-21 52-52 59" id="w"/><path fill="#333" d="M252-156c43 0 55 33 55 80 0 46-13 78-56 78-42 0-55-33-55-78 0-48 12-80 56-80zM93 0H65l162-248h28zM13-171c-1-47 13-79 56-79s55 33 55 79-13 79-55 79c-43 0-56-33-56-79zM251-17c28 0 30-29 30-59 0-31-1-60-29-60-29 0-31 29-31 60 0 29 2 59 30 59zM69-112c27 0 28-30 29-59 0-31-1-60-29-60-29 0-30 30-30 60s2 59 30 59" id="x"/><g id="c"><use transform="matrix(0.03703703703703702,0,0,0.03703703703703702,0,0)" xlink:href="#u"/><use transform="matrix(0.03703703703703702,0,0,0.03703703703703702,2.9259259259259247,0)" xlink:href="#v"/><use transform="matrix(0.03703703703703702,0,0,0.03703703703703702,10.703703703703699,0)" xlink:href="#w"/><use transform="matrix(0.03703703703703702,0,0,0.03703703703703702,18.111111111111104,0)" xlink:href="#x"/></g><path fill="#333" d="M115-194c55 1 70 41 70 98S169 2 115 4C84 4 66-9 55-30l1 105H24l-1-265h31l2 30c10-21 28-34 59-34zm-8 174c40 0 45-34 45-75s-6-73-45-74c-42 0-51 32-51 76 0 43 10 73 51 73" id="y"/><path fill="#333" d="M141-36C126-15 110 5 73 4 37 3 15-17 15-53c-1-64 63-63 125-63 3-35-9-54-41-54-24 1-41 7-42 31l-33-3c5-37 33-52 76-52 45 0 72 20 72 64v82c-1 20 7 32 28 27v20c-31 9-61-2-59-35zM48-53c0 20 12 33 32 33 41-3 63-29 60-74-43 2-92-5-92 41" id="z"/><path fill="#333" d="M108 0H70L1-190h34L89-25l56-165h34" id="A"/><g id="d"><use transform="matrix(0.03703703703703702,0,0,0.03703703703703702,0,0)" xlink:href="#y"/><use transform="matrix(0.03703703703703702,0,0,0.03703703703703702,7.407407407407404,0)" xlink:href="#z"/><use transform="matrix(0.03703703703703702,0,0,0.03703703703703702,14.814814814814808,0)" xlink:href="#A"/></g><path fill="#333" d="M117-194c89-4 53 116 60 194h-32v-121c0-31-8-49-39-48C34-167 62-67 57 0H25l-1-190h30c1 10-1 24 2 32 11-22 29-35 61-36" id="B"/><path fill="#333" d="M110-160c48 1 74 30 74 79 0 53-28 85-80 85-65 0-83-55-86-122-5-90 50-162 133-122 14 7 22 21 27 39l-31 6c-5-40-67-38-82-6-9 19-15 44-15 74 11-20 30-34 60-33zm-7 138c34 0 49-23 49-58s-16-56-50-56c-29 0-50 16-49 49 1 36 15 65 50 65" id="C"/><g id="e"><use transform="matrix(0.03703703703703702,0,0,0.03703703703703702,0,0)" xlink:href="#B"/><use transform="matrix(0.03703703703703702,0,0,0.03703703703703702,7.407407407407404,0)" xlink:href="#v"/><use transform="matrix(0.03703703703703702,0,0,0.03703703703703702,15.185185185185178,0)" xlink:href="#C"/></g><g id="f"><use transform="matrix(0.03703703703703702,0,0,0.03703703703703702,0,0)" xlink:href="#y"/><use transform="matrix(0.03703703703703702,0,0,0.03703703703703702,7.407407407407404,0)" xlink:href="#z"/><use transform="matrix(0.03703703703703702,0,0,0.03703703703703702,14.814814814814808,0)" xlink:href="#A"/></g><path fill="#333" d="M165-50V0h-47v-50H5v-38l105-160h55v161h33v37h-33zm-47-37l2-116L46-87h72" id="D"/><path fill="#333" d="M182-182c0 78-84 86-111 141h115V0H12c-6-101 99-100 120-180 1-22-12-31-33-32-23 0-32 14-35 34l-49-3c5-45 32-70 84-70 51 0 83 22 83 69" id="E"/><path fill="#333" d="M52 0c1-96 47-148 87-207H15v-41h169v40c-36 62-79 113-81 208H52" id="F"/><path fill="#333" d="M128-127c34 4 56 21 59 58 7 91-148 94-172 28-4-9-6-17-7-26l51-5c1 24 16 35 40 36 23 0 39-12 38-36-1-31-31-36-65-34v-40c32 2 59-3 59-33 0-20-13-33-34-33s-33 13-35 32l-50-3c6-44 37-68 86-68 50 0 83 20 83 66 0 35-22 52-53 58" id="G"/><path fill="#333" d="M24 0v-54h51V0H24" id="H"/><path fill="#333" d="M99-251c69 0 84 53 88 123 5 99-61 162-144 118-15-8-21-25-26-45l46-6c4 31 50 33 63 7 7-15 12-36 12-60-9 18-29 28-54 28-48 0-72-32-72-82 0-55 31-83 87-83zm-1 128c24 0 37-16 37-39 0-27-10-51-37-51-25 0-35 19-35 45 0 25 10 45 35 45" id="I"/><g id="g"><use transform="matrix(0.024691358024691343,0,0,0.024691358024691343,0,0)" xlink:href="#q"/><use transform="matrix(0.024691358024691343,0,0,0.024691358024691343,4.938271604938269,0)" xlink:href="#r"/><use transform="matrix(0.024691358024691343,0,0,0.024691358024691343,9.876543209876537,0)" xlink:href="#D"/><use transform="matrix(0.024691358024691343,0,0,0.024691358024691343,14.814814814814806,0)" xlink:href="#E"/><use transform="matrix(0.024691358024691343,0,0,0.024691358024691343,19.753086419753075,0)" xlink:href="#D"/><use transform="matrix(0.024691358024691343,0,0,0.024691358024691343,24.691358024691343,0)" xlink:href="#F"/><use transform="matrix(0.024691358024691343,0,0,0.024691358024691343,29.629629629629612,0)" xlink:href="#G"/><use transform="matrix(0.024691358024691343,0,0,0.024691358024691343,34.567901234567884,0)" xlink:href="#H"/><use transform="matrix(0.024691358024691343,0,0,0.024691358024691343,37.03703703703702,0)" xlink:href="#t"/><use transform="matrix(0.024691358024691343,0,0,0.024691358024691343,41.97530864197529,0)" xlink:href="#I"/></g><path fill="#333" d="M27 0v-27h64v-190l-56 39v-29l58-41h29v221h61V0H27" id="J"/><use transform="matrix(0.030864197530864182,0,0,0.030864197530864182,0,0)" xlink:href="#J" id="h"/><path fill="#333" d="M101-251c82-7 93 87 43 132L82-64C71-53 59-42 53-27h129V0H18c2-99 128-94 128-182 0-28-16-43-45-43s-46 15-49 41l-32-3c6-41 34-60 81-64" id="K"/><use transform="matrix(0.030864197530864182,0,0,0.030864197530864182,0,0)" xlink:href="#K" id="i"/><use transform="matrix(0.030864197530864182,0,0,0.030864197530864182,0,0)" xlink:href="#w" id="j"/><path fill="#333" d="M155-56V0h-30v-56H8v-25l114-167h33v167h35v25h-35zm-30-156c-27 46-58 90-88 131h88v-131" id="L"/><use transform="matrix(0.030864197530864182,0,0,0.030864197530864182,0,0)" xlink:href="#L" id="k"/><path fill="#333" d="M54-142c48-35 137-8 131 61C196 18 31 33 14-55l32-4c7 23 22 37 52 37 35-1 51-22 54-58 4-55-73-65-99-34H22l8-134h141v27H59" id="M"/><use transform="matrix(0.030864197530864182,0,0,0.030864197530864182,0,0)" xlink:href="#M" id="l"/><use transform="matrix(0.030864197530864182,0,0,0.030864197530864182,0,0)" xlink:href="#C" id="m"/><g id="n"><use transform="matrix(0.03703703703703702,0,0,0.03703703703703702,0,0)" xlink:href="#y"/><use transform="matrix(0.03703703703703702,0,0,0.03703703703703702,7.407407407407404,0)" xlink:href="#z"/><use transform="matrix(0.03703703703703702,0,0,0.03703703703703702,14.814814814814808,0)" xlink:href="#A"/></g><path fill="#333" d="M101-251c68 0 85 55 85 127S166 4 100 4C33 4 14-52 14-124c0-73 17-127 87-127zm-1 229c47 0 54-49 54-102s-4-102-53-102c-51 0-55 48-55 102 0 53 5 102 54 102" id="N"/><use transform="matrix(0.03703703703703702,0,0,0.03703703703703702,0,0)" xlink:href="#N" id="o"/></defs></g></svg>