<svg xmlns="http://www.w3.org/2000/svg" xmlns:xlink="http://www.w3.org/1999/xlink" xmlns:lucid="lucid" width="560" height="122"><g transform="translate(20 -29)" lucid:page-tab-id="0_0"><path d="M0 0h1870.4v1323.2H0z" fill="#fff"/><path d="M101 140h316.82M101.03 140H100M417.8 140h1.02" stroke="#5e5e5e" stroke-width="2" fill="none"/><path d="M287.64 106c0-3.3 2.7-6 6-6h8c3.32 0 6 2.7 6 6v8c0 3.3-2.68 6-6 6h-8c-3.3 0-6-2.7-6-6z" stroke="#000" stroke-opacity="0" stroke-width="3" fill="#fff" fill-opacity="0"/><path d="M218.4 139l1.58-98M218.4 138.97V140M219.98 41.03L220 40" stroke="#5e5e5e" stroke-width="2" fill="none"/><path d="M144.88 139.54l6.58-14.93 5.82-11.82 5.07-9.3 4.5-7.47 4.02-6.1 3.64-5.04 3.34-4.23 3.07-3.57 2.86-3.06 2.67-2.63 2.5-2.27 2.4-1.98 2.26-1.73 2.16-1.53 2.1-1.34 2.02-1.18 1.97-1.03 1.93-.92 1.9-.8 1.85-.7 1.84-.6 1.84-.52 1.84-.43 1.84-.36 1.86-.3 1.87-.2 1.92-.1 1.96-.06 2 .04 2.1.12 2.15.22 2.26.33 2.38.45 2.54.6 2.72.75 2.97.95 3.27 1.2 3.67 1.54 4.24 1.98 5.1 2.66 6.7 3.85 11.88 7.56 26 16.98 6.53 3.75 4.92 2.57 4.08 1.9 3.5 1.47 3.12 1.15 2.82.9 2.58.72 2.4.56 2.24.42 2.13.3 2 .22 1.95.12 1.87.03 1.82-.05 1.77-.12 1.75-.2 1.72-.24 1.7-.34 1.68-.4 1.68-.48 1.7-.55 1.7-.64 1.72-.74 1.75-.83 1.8-.94 1.83-1.08 1.9-1.2 1.95-1.38 2.04-1.56 2.14-1.78 2.25-2.03 2.4-2.35 2.53-2.72 2.72-3.17 2.94-3.74 3.2-4.45 3.53-5.35 3.92-6.52 3-5.44M144.88 139.52l-.2.47M399.75 60.45L400 60" stroke="#5e5e5e" fill="none"/><path d="M342.9 139v-29.32M342.9 138.97V140M342.9 109.7v-1.02M439.1 100.45l-22.55 11.28M439.08 100.46l.92-.46" stroke="#5e5e5e" stroke-width="2" fill="none"/><path d="M402.9 118.55l10.68-10.52 4.15 8.3z" stroke="#5e5e5e" stroke-width="2" fill="#5e5e5e"/><path d="M80.9 100.45l22.55 11.28M80.92 100.46L80 100" stroke="#5e5e5e" stroke-width="2" fill="none"/><path d="M117.1 118.55l-14.83-2.23 4.15-8.3z" stroke="#5e5e5e" stroke-width="2" fill="#5e5e5e"/><path d="M0 66c0-3.3 2.7-6 6-6h68c3.3 0 6 2.7 6 6v9c0 3.3-2.7 6-6 6H6c-3.3 0-6-2.7-6-6z" stroke="#000" stroke-opacity="0" stroke-width="3" fill="#fff" fill-opacity="0"/><use xlink:href="#a" transform="matrix(1,0,0,1,5,65) translate(12.175925925925938 8.888888888888884)"/><use xlink:href="#b" transform="matrix(1,0,0,1,5,65) translate(38.07098765432099 8.888888888888884)"/><use xlink:href="#c" transform="matrix(1,0,0,1,5,65) translate(12.515432098765444 22.222222222222207)"/><path d="M440 66c0-3.3 2.7-6 6-6h68c3.3 0 6 2.7 6 6v9c0 3.3-2.7 6-6 6h-68c-3.3 0-6-2.7-6-6z" stroke="#000" stroke-opacity="0" stroke-width="3" fill="#fff" fill-opacity="0"/><g><use xlink:href="#d" transform="matrix(1,0,0,1,445,65) translate(23.595679012345684 8.888888888888884)"/><use xlink:href="#e" transform="matrix(1,0,0,1,445,65) translate(7.253086419753103 22.222222222222207)"/></g><defs><path fill="#333" d="M240-174c0 40-23 61-54 70L253 0h-59l-57-94H76V0H24v-248c93 4 217-23 216 74zM76-134c48-2 112 12 112-38 0-48-66-32-112-35v73" id="f"/><path fill="#333" d="M133-34C117-15 103 5 69 4 32 3 11-16 11-54c-1-60 55-63 116-61 1-26-3-47-28-47-18 1-26 9-28 27l-52-2c7-38 36-58 82-57s74 22 75 68l1 82c-1 14 12 18 25 15v27c-30 8-71 5-69-32zm-48 3c29 0 43-24 42-57-32 0-66-3-65 30 0 17 8 27 23 27" id="g"/><path fill="#333" d="M25 0v-190h50V0H25zm-5-208v-5l45-51h45v8l-60 48H20" id="h"/><path fill="#333" d="M12 0v-35l95-120H19v-35h142v35L67-36h103V0H12" id="i"/><g id="a"><use transform="matrix(0.030864197530864182,0,0,0.030864197530864182,0,0)" xlink:href="#f"/><use transform="matrix(0.030864197530864182,0,0,0.030864197530864182,7.993827160493823,0)" xlink:href="#g"/><use transform="matrix(0.030864197530864182,0,0,0.030864197530864182,14.16666666666666,0)" xlink:href="#h"/><use transform="matrix(0.030864197530864182,0,0,0.030864197530864182,17.253086419753078,0)" xlink:href="#i"/></g><path fill="#333" d="M135-150c-39-12-60 13-60 57V0H25l-1-190h47c2 13-1 29 3 40 6-28 27-53 61-41v41" id="j"/><path fill="#333" d="M185-48c-13 30-37 53-82 52C43 2 14-33 14-96s30-98 90-98c62 0 83 45 84 108H66c0 31 8 55 39 56 18 0 30-7 34-22zm-45-69c5-46-57-63-70-21-2 6-4 13-4 21h74" id="k"/><path fill="#333" d="M25 0v-261h50V0H25" id="l"/><g id="b"><use transform="matrix(0.030864197530864182,0,0,0.030864197530864182,0,0)" xlink:href="#j"/><use transform="matrix(0.030864197530864182,0,0,0.030864197530864182,4.3209876543209855,0)" xlink:href="#k"/><use transform="matrix(0.030864197530864182,0,0,0.030864197530864182,10.493827160493822,0)" xlink:href="#g"/><use transform="matrix(0.030864197530864182,0,0,0.030864197530864182,16.666666666666657,0)" xlink:href="#l"/></g><path fill="#333" d="M135-194c87-1 58 113 63 194h-50c-7-57 23-157-34-157-59 0-34 97-39 157H25l-1-190h47c2 12-1 28 3 38 12-26 28-41 61-42" id="m"/><path fill="#333" d="M195-6C206 82 75 100 31 46c-4-6-6-13-8-21l49-6c3 16 16 24 34 25 40 0 42-37 40-79-11 22-30 35-61 35-53 0-70-43-70-97 0-56 18-96 73-97 30 0 46 14 59 34l2-30h47zm-90-29c32 0 41-27 41-63 0-35-9-62-40-62-32 0-39 29-40 63 0 36 9 62 39 62" id="n"/><path fill="#333" d="M115-3C79 11 28 4 28-45v-112H4v-33h27l15-45h31v45h36v33H77v99c-1 23 16 31 38 25v30" id="o"/><path fill="#333" d="M25-224v-37h50v37H25zM25 0v-190h50V0H25" id="p"/><path fill="#333" d="M128 0H69L1-190h53L99-40l48-150h52" id="q"/><g id="c"><use transform="matrix(0.030864197530864182,0,0,0.030864197530864182,0,0)" xlink:href="#m"/><use transform="matrix(0.030864197530864182,0,0,0.030864197530864182,6.759259259259256,0)" xlink:href="#k"/><use transform="matrix(0.030864197530864182,0,0,0.030864197530864182,12.932098765432093,0)" xlink:href="#n"/><use transform="matrix(0.030864197530864182,0,0,0.030864197530864182,19.691358024691347,0)" xlink:href="#g"/><use transform="matrix(0.030864197530864182,0,0,0.030864197530864182,25.864197530864182,0)" xlink:href="#o"/><use transform="matrix(0.030864197530864182,0,0,0.030864197530864182,29.53703703703702,0)" xlink:href="#p"/><use transform="matrix(0.030864197530864182,0,0,0.030864197530864182,32.62345679012344,0)" xlink:href="#q"/><use transform="matrix(0.030864197530864182,0,0,0.030864197530864182,38.796296296296276,0)" xlink:href="#g"/></g><g id="d"><use transform="matrix(0.030864197530864182,0,0,0.030864197530864182,0,0)" xlink:href="#f"/><use transform="matrix(0.030864197530864182,0,0,0.030864197530864182,7.993827160493823,0)" xlink:href="#g"/><use transform="matrix(0.030864197530864182,0,0,0.030864197530864182,14.16666666666666,0)" xlink:href="#h"/><use transform="matrix(0.030864197530864182,0,0,0.030864197530864182,17.253086419753078,0)" xlink:href="#i"/></g><path fill="#333" d="M220-157c-53 9-28 100-34 157h-49v-107c1-27-5-49-29-50C55-147 81-57 75 0H25l-1-190h47c2 12-1 28 3 38 10-53 101-56 108 0 13-22 24-43 59-42 82 1 51 116 57 194h-49v-107c-1-25-5-48-29-50" id="r"/><g id="e"><use transform="matrix(0.030864197530864182,0,0,0.030864197530864182,0,0)" xlink:href="#p"/><use transform="matrix(0.030864197530864182,0,0,0.030864197530864182,3.0864197530864184,0)" xlink:href="#r"/><use transform="matrix(0.030864197530864182,0,0,0.030864197530864182,12.962962962962955,0)" xlink:href="#g"/><use transform="matrix(0.030864197530864182,0,0,0.030864197530864182,19.13580246913579,0)" xlink:href="#n"/><use transform="matrix(0.030864197530864182,0,0,0.030864197530864182,25.895061728395046,0)" xlink:href="#p"/><use transform="matrix(0.030864197530864182,0,0,0.030864197530864182,28.981481481481463,0)" xlink:href="#m"/><use transform="matrix(0.030864197530864182,0,0,0.030864197530864182,35.74074074074072,0)" xlink:href="#g"/><use transform="matrix(0.030864197530864182,0,0,0.030864197530864182,41.913580246913554,0)" xlink:href="#j"/><use transform="matrix(0.030864197530864182,0,0,0.030864197530864182,46.23456790123454,0)" xlink:href="#p"/><use transform="matrix(0.030864197530864182,0,0,0.030864197530864182,49.32098765432096,0)" xlink:href="#g"/></g></defs></g></svg>