<svg xmlns="http://www.w3.org/2000/svg" xmlns:xlink="http://www.w3.org/1999/xlink" xmlns:lucid="lucid" width="510" height="251.96"><g transform="translate(-440 -100)" lucid:page-tab-id="0_0"><path d="M0 0h1870.4v1323.2H0z" fill="#fff"/><path d="M501 240h362M501.03 240H500" stroke="#5e5e5e" stroke-width="2" fill="none"/><path d="M867 240.8v.2h-4.03v-1H864z" fill="#5e5e5e"/><path d="M500 319v-2.96m0-3.95v-5.94m0-3.95v-5.9m0-3.96v-5.93m0-3.94v-5.92m0-3.95v-5.94m0-3.95v-5.9m0-3.96v-5.93m0-3.94v-5.92m0-3.95v-5.94m0-3.95v-5.9m0-3.96v-5.93m0-3.94v-5.92m0-3.95v-5.94m0-3.95v-5.9m0-3.96v-5.93m0-3.94V161M500 318.97V320" stroke="#fcc438" stroke-width="2" fill="none"/><path d="M501 161.03h-2V160h2z" fill="#fcc438"/><path d="M500 223.8v37.7M500 223.82v-1.03" stroke="#99d2f2" stroke-width="2" fill="none"/><path d="M500 276.76l-4.64-14.26h9.28z" stroke="#99d2f2" stroke-width="2" fill="#99d2f2"/><path d="M480 126c0-3.3 2.7-6 6-6h28c3.3 0 6 2.7 6 6v28c0 3.3-2.7 6-6 6h-28c-3.3 0-6-2.7-6-6z" stroke="#000" stroke-opacity="0" stroke-width="3" fill="#fff" fill-opacity="0"/><use xlink:href="#a" transform="matrix(1,0,0,1,485,125) translate(12.021604938271606 16.388888888888886)"/><path d="M460 286c0-3.3 2.7-6 6-6h68c3.3 0 6 2.7 6 6v8c0 3.3-2.7 6-6 6h-68c-3.3 0-6-2.7-6-6z" stroke="#000" stroke-opacity="0" stroke-width="3" fill="#fff" fill-opacity="0"/><use xlink:href="#b" transform="matrix(1,0,0,1,465,285) translate(13.811728395061742 8.888888888888884)"/><path d="M580 266c0-3.3 2.7-6 6-6h68c3.3 0 6 2.7 6 6v8c0 3.3-2.7 6-6 6h-68c-3.3 0-6-2.7-6-6z" stroke="#000" stroke-opacity="0" stroke-width="3" fill="#fff" fill-opacity="0"/><use xlink:href="#c" transform="matrix(1,0,0,1,585,265) translate(7.425925925925938 10.666666666666664)"/><use xlink:href="#d" transform="matrix(1,0,0,1,585,265) translate(41.09259259259259 10.666666666666664)"/><use xlink:href="#e" transform="matrix(1,0,0,1,585,265) translate(11.111111111111121 26.66666666666666)"/><use xlink:href="#f" transform="matrix(1,0,0,1,585,265) translate(37.407407407407405 26.66666666666666)"/><path d="M561.18 239v-40.5" stroke="#0c7cba" stroke-width="2" fill="none"/><path d="M562.18 240h-2v-1.03h2z" fill="#0c7cba"/><path d="M561.18 183.24l4.63 14.26h-9.26z" stroke="#0c7cba" stroke-width="2" fill="#0c7cba"/><path d="M620 239v-20.5" stroke="#0c7cba" stroke-width="2" fill="none"/><path d="M621 240h-2v-1.03h2z" fill="#0c7cba"/><path d="M620 203.24l4.64 14.26h-9.28z" stroke="#0c7cba" stroke-width="2" fill="#0c7cba"/><path d="M680 239v-20.5" stroke="#0c7cba" stroke-width="2" fill="none"/><path d="M681 240h-2v-1.03h2z" fill="#0c7cba"/><path d="M680 203.24l4.64 14.26h-9.28z" stroke="#0c7cba" stroke-width="2" fill="#0c7cba"/><path d="M740 239v-20.5" stroke="#0c7cba" stroke-width="2" fill="none"/><path d="M741 240h-2v-1.03h2z" fill="#0c7cba"/><path d="M740 203.24l4.64 14.26h-9.28z" stroke="#0c7cba" stroke-width="2" fill="#0c7cba"/><path d="M800 239v-20.5" stroke="#0c7cba" stroke-width="2" fill="none"/><path d="M801 240h-2v-1.03h2z" fill="#0c7cba"/><path d="M800 203.24l4.64 14.26h-9.28z" stroke="#0c7cba" stroke-width="2" fill="#0c7cba"/><path d="M860 239v-20.5" stroke="#0c7cba" stroke-width="2" fill="none"/><path d="M861 240h-2v-1.03h2z" fill="#0c7cba"/><path d="M860 203.24l4.64 14.26h-9.28z" stroke="#0c7cba" stroke-width="2" fill="#0c7cba"/><path d="M521.18 166c0-3.3 2.68-6 6-6h68c3.3 0 6 2.7 6 6v8c0 3.3-2.7 6-6 6h-68c-3.32 0-6-2.7-6-6z" stroke="#000" stroke-opacity="0" stroke-width="3" fill="#fff" fill-opacity="0"/><use xlink:href="#g" transform="matrix(1,0,0,1,526.1785846807398,165) translate(17.716049382716058 8.361111111111107)"/><path d="M580 186c0-3.3 2.7-6 6-6h68c3.3 0 6 2.7 6 6v8c0 3.3-2.7 6-6 6h-68c-3.3 0-6-2.7-6-6z" stroke="#000" stroke-opacity="0" stroke-width="3" fill="#fff" fill-opacity="0"/><use xlink:href="#h" transform="matrix(1,0,0,1,585,185) translate(22.65432098765433 8.361111111111107)"/><path d="M640 186c0-3.3 2.7-6 6-6h68c3.3 0 6 2.7 6 6v8c0 3.3-2.7 6-6 6h-68c-3.3 0-6-2.7-6-6z" stroke="#000" stroke-opacity="0" stroke-width="3" fill="#fff" fill-opacity="0"/><use xlink:href="#h" transform="matrix(1,0,0,1,645,185) translate(22.65432098765433 8.361111111111107)"/><path d="M700 186c0-3.3 2.7-6 6-6h68c3.3 0 6 2.7 6 6v8c0 3.3-2.7 6-6 6h-68c-3.3 0-6-2.7-6-6z" stroke="#000" stroke-opacity="0" stroke-width="3" fill="#fff" fill-opacity="0"/><use xlink:href="#h" transform="matrix(1,0,0,1,705,185) translate(22.65432098765433 8.361111111111107)"/><path d="M760 186c0-3.3 2.7-6 6-6h68c3.3 0 6 2.7 6 6v8c0 3.3-2.7 6-6 6h-68c-3.3 0-6-2.7-6-6z" stroke="#000" stroke-opacity="0" stroke-width="3" fill="#fff" fill-opacity="0"/><use xlink:href="#h" transform="matrix(1,0,0,1,765,185) translate(22.65432098765433 8.361111111111107)"/><path d="M820 186c0-3.3 2.7-6 6-6h68c3.3 0 6 2.7 6 6v8c0 3.3-2.7 6-6 6h-68c-3.3 0-6-2.7-6-6z" stroke="#000" stroke-opacity="0" stroke-width="3" fill="#fff" fill-opacity="0"/><use xlink:href="#h" transform="matrix(1,0,0,1,825,185) translate(22.65432098765433 8.361111111111107)"/><path d="M551.18 246c0-3.3 2.68-6 6-6h8c3.3 0 6 2.7 6 6v8c0 3.3-2.7 6-6 6h-8c-3.32 0-6-2.7-6-6z" stroke="#000" stroke-opacity="0" stroke-width="3" fill="#fff" fill-opacity="0"/><use xlink:href="#i" transform="matrix(1,0,0,1,556.1785846807398,245) translate(1.9135802469135816 8.888888888888884)"/><path d="M610 246c0-3.3 2.7-6 6-6h8c3.3 0 6 2.7 6 6v8c0 3.3-2.7 6-6 6h-8c-3.3 0-6-2.7-6-6z" stroke="#000" stroke-opacity="0" stroke-width="3" fill="#fff" fill-opacity="0"/><use xlink:href="#j" transform="matrix(1,0,0,1,615,245) translate(1.9135802469135816 8.888888888888884)"/><path d="M670 246c0-3.3 2.7-6 6-6h8c3.3 0 6 2.7 6 6v8c0 3.3-2.7 6-6 6h-8c-3.3 0-6-2.7-6-6z" stroke="#000" stroke-opacity="0" stroke-width="3" fill="#fff" fill-opacity="0"/><use xlink:href="#k" transform="matrix(1,0,0,1,675,245) translate(1.9135802469135816 8.888888888888884)"/><path d="M730 246c0-3.3 2.7-6 6-6h8c3.3 0 6 2.7 6 6v8c0 3.3-2.7 6-6 6h-8c-3.3 0-6-2.7-6-6z" stroke="#000" stroke-opacity="0" stroke-width="3" fill="#fff" fill-opacity="0"/><use xlink:href="#l" transform="matrix(1,0,0,1,735,245) translate(1.9135802469135816 8.888888888888884)"/><path d="M790 246c0-3.3 2.7-6 6-6h8c3.3 0 6 2.7 6 6v8c0 3.3-2.7 6-6 6h-8c-3.3 0-6-2.7-6-6z" stroke="#000" stroke-opacity="0" stroke-width="3" fill="#fff" fill-opacity="0"/><use xlink:href="#m" transform="matrix(1,0,0,1,795,245) translate(1.9135802469135816 8.888888888888884)"/><path d="M850 246c0-3.3 2.7-6 6-6h8c3.3 0 6 2.7 6 6v8c0 3.3-2.7 6-6 6h-8c-3.3 0-6-2.7-6-6z" stroke="#000" stroke-opacity="0" stroke-width="3" fill="#fff" fill-opacity="0"/><use xlink:href="#n" transform="matrix(1,0,0,1,855,245) translate(1.9135802469135816 8.888888888888884)"/><path d="M501 279.58l.67.06 1.2.16 1.1.23m3.9 1.03l2.36.75 3.32 1.28m3.74 1.5l5.5 2.47m3.67 1.65l4.68 2.1.8.4m3.62 1.77l5.42 2.66m3.6 1.78l5.42 2.67m3.6 1.77l5.43 2.66m3.6 1.78l5.43 2.66m3.6 1.77l5.43 2.67m3.63 1.77l5.4 2.66m3.63 1.78l.25.12 5.42 1.96m3.78 1.37l5.68 2.05m3.86 1.15l5.78 1.72m3.86 1.15l1.94.58 3.85 1.13m3.86 1.14l5.8 1.7m3.85 1.14l5.8 1.7m3.86 1.14l1.83.54 4.1.52m3.98.5l6 .77m4 .28l6.03.16m4.03.1l6.04.16m4.02.1l6.04.17m4.02-.03l1.7-.03h.36l.78-.08 2.02-.3 1.13-.23m3.95-.8l1.67-.34 4.2-1.08m3.9-1l5.84-1.53m3.9-1l1.87-.5 3.9-1.22m3.85-1.2l5.76-1.82m3.83-1.2l5.76-1.82m3.83-1.23l5.65-2.12m3.78-1.4l5.65-2.13m3.77-1.4l1.46-.56 4.1-1.8m3.7-1.6l5.45-2.4.07-.03m3.58-1.84l3.14-1.62 2.13-1.3m3.43-2.1l1.98-1.2 3.03-2.15m3.28-2.34l2.52-1.78 2.27-1.88m3.1-2.56l4.66-3.84m3.05-2.62l4.5-4.04m2.98-2.7l4.48-4.03m3-2.7l4.5-4.04m2.98-2.68l2-1.8 2.67-1.9.05-.04m3.52-1.94l.54-.23.84-.3.72-.18.62-.12.16-.02M501.03 279.57l-1.03-.03" stroke="#5e5e5e" stroke-width="2" fill="none"/><path d="M863 260.98L859 261v-1H863z" fill="#5e5e5e"/><path d="M500.73 250.33l2.07 1.9m2.76 2.57l4.14 3.83m2.76 2.56l4.14 3.82m2.76 2.55l2 1.7 2.03 1.74.26.23m2.94 2.34l.24.18 2.05 1.3 2 .82.74.1m3.73-.18l5.58-.83m3.72-.55l2.85-.42 1.7-.84.7-.5m2.74-2.55l3.7-4.25m2.47-2.84l.3-.33 1.44-1.88M500.75 250.35l-.75-.7" stroke="#5e5e5e" stroke-width="2" fill="none"/><path d="M561.35 261.42l-1.6-1.2.17-.22h2.52z" fill="#5e5e5e"/><path d="M870 246c0-3.3 2.7-6 6-6h48c3.3 0 6 2.7 6 6v8c0 3.3-2.7 6-6 6h-48c-3.3 0-6-2.7-6-6z" stroke="#000" stroke-opacity="0" stroke-width="3" fill="#fff" fill-opacity="0"/><g><use xlink:href="#o" transform="matrix(1,0,0,1,875,245) translate(14.259259259259265 10.666666666666664)"/></g><defs><path fill="#333" d="M101-234c-31-9-42 10-38 44h38v23H63V0H32v-167H5v-23h27c-7-52 17-82 69-68v24" id="p"/><g id="a"><use transform="matrix(0.030864197530864182,0,0,0.030864197530864182,0,0)" xlink:href="#p"/><use transform="matrix(0.030864197530864182,0,0,0.030864197530864182,2.870370370370369,0)" xlink:href="#p"/></g><path fill="#333" d="M194-70c0 46-34 64-81 66v29H91V-4C42-5 12-27 4-67l30-6c5 28 25 41 57 43v-87c-38-9-76-20-76-67 1-42 33-58 76-59v-23h22v23c45 0 67 20 76 56l-31 6c-5-23-18-35-45-37v78c41 10 81 20 81 70zm-81 41c51 7 71-66 19-77-6-2-12-4-19-6v83zM91-219c-47-6-63 57-18 69 6 2 12 3 18 5v-74" id="q"/><path fill="#333" d="M27 0v-27h64v-190l-56 39v-29l58-41h29v221h61V0H27" id="r"/><path fill="#333" d="M110-160c48 1 74 30 74 79 0 53-28 85-80 85-65 0-83-55-86-122-5-90 50-162 133-122 14 7 22 21 27 39l-31 6c-5-40-67-38-82-6-9 19-15 44-15 74 11-20 30-34 60-33zm-7 138c34 0 49-23 49-58s-16-56-50-56c-29 0-50 16-49 49 1 36 15 65 50 65" id="s"/><path fill="#333" d="M101-251c68 0 85 55 85 127S166 4 100 4C33 4 14-52 14-124c0-73 17-127 87-127zm-1 229c47 0 54-49 54-102s-4-102-53-102c-51 0-55 48-55 102 0 53 5 102 54 102" id="t"/><g id="b"><use transform="matrix(0.030864197530864182,0,0,0.030864197530864182,0,0)" xlink:href="#q"/><use transform="matrix(0.030864197530864182,0,0,0.030864197530864182,6.172839506172837,0)" xlink:href="#r"/><use transform="matrix(0.030864197530864182,0,0,0.030864197530864182,11.512345679012341,0)" xlink:href="#r"/><use transform="matrix(0.030864197530864182,0,0,0.030864197530864182,17.685185185185176,0)" xlink:href="#s"/><use transform="matrix(0.030864197530864182,0,0,0.030864197530864182,23.85802469135801,0)" xlink:href="#t"/><use transform="matrix(0.030864197530864182,0,0,0.030864197530864182,30.030864197530846,0)" xlink:href="#t"/><use transform="matrix(0.030864197530864182,0,0,0.030864197530864182,36.20370370370368,0)" xlink:href="#t"/></g><path fill="#333" d="M24-231v-30h32v30H24zM24 0v-190h32V0H24" id="u"/><path fill="#333" d="M18-150v-26h174v26H18zm0 90v-26h174v26H18" id="v"/><path fill="#333" d="M126-127c33 6 58 20 58 59 0 88-139 92-164 29-3-8-5-16-6-25l32-3c6 27 21 44 54 44 32 0 52-15 52-46 0-38-36-46-79-43v-28c39 1 72-4 72-42 0-27-17-43-46-43-28 0-47 15-49 41l-32-3c6-42 35-63 81-64 48-1 79 21 79 65 0 36-21 52-52 59" id="w"/><path fill="#333" d="M252-156c43 0 55 33 55 80 0 46-13 78-56 78-42 0-55-33-55-78 0-48 12-80 56-80zM93 0H65l162-248h28zM13-171c-1-47 13-79 56-79s55 33 55 79-13 79-55 79c-43 0-56-33-56-79zM251-17c28 0 30-29 30-59 0-31-1-60-29-60-29 0-31 29-31 60 0 29 2 59 30 59zM69-112c27 0 28-30 29-59 0-31-1-60-29-60-29 0-30 30-30 60s2 59 30 59" id="x"/><g id="c"><use transform="matrix(0.03703703703703702,0,0,0.03703703703703702,0,0)" xlink:href="#u"/><use transform="matrix(0.03703703703703702,0,0,0.03703703703703702,2.9259259259259247,0)" xlink:href="#v"/><use transform="matrix(0.03703703703703702,0,0,0.03703703703703702,10.703703703703699,0)" xlink:href="#w"/><use transform="matrix(0.03703703703703702,0,0,0.03703703703703702,18.111111111111104,0)" xlink:href="#x"/></g><path fill="#333" d="M115-194c55 1 70 41 70 98S169 2 115 4C84 4 66-9 55-30l1 105H24l-1-265h31l2 30c10-21 28-34 59-34zm-8 174c40 0 45-34 45-75s-6-73-45-74c-42 0-51 32-51 76 0 43 10 73 51 73" id="y"/><path fill="#333" d="M141-36C126-15 110 5 73 4 37 3 15-17 15-53c-1-64 63-63 125-63 3-35-9-54-41-54-24 1-41 7-42 31l-33-3c5-37 33-52 76-52 45 0 72 20 72 64v82c-1 20 7 32 28 27v20c-31 9-61-2-59-35zM48-53c0 20 12 33 32 33 41-3 63-29 60-74-43 2-92-5-92 41" id="z"/><path fill="#333" d="M108 0H70L1-190h34L89-25l56-165h34" id="A"/><g id="d"><use transform="matrix(0.03703703703703702,0,0,0.03703703703703702,0,0)" xlink:href="#y"/><use transform="matrix(0.03703703703703702,0,0,0.03703703703703702,7.407407407407404,0)" xlink:href="#z"/><use transform="matrix(0.03703703703703702,0,0,0.03703703703703702,14.814814814814808,0)" xlink:href="#A"/></g><path fill="#333" d="M117-194c89-4 53 116 60 194h-32v-121c0-31-8-49-39-48C34-167 62-67 57 0H25l-1-190h30c1 10-1 24 2 32 11-22 29-35 61-36" id="B"/><g id="e"><use transform="matrix(0.03703703703703702,0,0,0.03703703703703702,0,0)" xlink:href="#B"/><use transform="matrix(0.03703703703703702,0,0,0.03703703703703702,7.407407407407404,0)" xlink:href="#v"/><use transform="matrix(0.03703703703703702,0,0,0.03703703703703702,15.185185185185178,0)" xlink:href="#s"/></g><g id="f"><use transform="matrix(0.03703703703703702,0,0,0.03703703703703702,0,0)" xlink:href="#y"/><use transform="matrix(0.03703703703703702,0,0,0.03703703703703702,7.407407407407404,0)" xlink:href="#z"/><use transform="matrix(0.03703703703703702,0,0,0.03703703703703702,14.814814814814808,0)" xlink:href="#A"/></g><g id="g"><use transform="matrix(0.024691358024691343,0,0,0.024691358024691343,0,0)" xlink:href="#q"/><use transform="matrix(0.024691358024691343,0,0,0.024691358024691343,4.938271604938269,0)" xlink:href="#r"/><use transform="matrix(0.024691358024691343,0,0,0.024691358024691343,9.876543209876537,0)" xlink:href="#t"/><use transform="matrix(0.024691358024691343,0,0,0.024691358024691343,14.814814814814806,0)" xlink:href="#t"/><use transform="matrix(0.024691358024691343,0,0,0.024691358024691343,19.753086419753075,0)" xlink:href="#t"/><use transform="matrix(0.024691358024691343,0,0,0.024691358024691343,24.691358024691343,0)" xlink:href="#t"/><use transform="matrix(0.024691358024691343,0,0,0.024691358024691343,29.629629629629612,0)" xlink:href="#t"/></g><path fill="#333" d="M54-142c48-35 137-8 131 61C196 18 31 33 14-55l32-4c7 23 22 37 52 37 35-1 51-22 54-58 4-55-73-65-99-34H22l8-134h141v27H59" id="C"/><g id="h"><use transform="matrix(0.024691358024691343,0,0,0.024691358024691343,0,0)" xlink:href="#q"/><use transform="matrix(0.024691358024691343,0,0,0.024691358024691343,4.938271604938269,0)" xlink:href="#C"/><use transform="matrix(0.024691358024691343,0,0,0.024691358024691343,9.876543209876537,0)" xlink:href="#t"/><use transform="matrix(0.024691358024691343,0,0,0.024691358024691343,14.814814814814806,0)" xlink:href="#t"/><use transform="matrix(0.024691358024691343,0,0,0.024691358024691343,19.753086419753075,0)" xlink:href="#t"/></g><use transform="matrix(0.030864197530864182,0,0,0.030864197530864182,0,0)" xlink:href="#r" id="i"/><path fill="#333" d="M101-251c82-7 93 87 43 132L82-64C71-53 59-42 53-27h129V0H18c2-99 128-94 128-182 0-28-16-43-45-43s-46 15-49 41l-32-3c6-41 34-60 81-64" id="D"/><use transform="matrix(0.030864197530864182,0,0,0.030864197530864182,0,0)" xlink:href="#D" id="j"/><use transform="matrix(0.030864197530864182,0,0,0.030864197530864182,0,0)" xlink:href="#w" id="k"/><path fill="#333" d="M155-56V0h-30v-56H8v-25l114-167h33v167h35v25h-35zm-30-156c-27 46-58 90-88 131h88v-131" id="E"/><use transform="matrix(0.030864197530864182,0,0,0.030864197530864182,0,0)" xlink:href="#E" id="l"/><use transform="matrix(0.030864197530864182,0,0,0.030864197530864182,0,0)" xlink:href="#C" id="m"/><use transform="matrix(0.030864197530864182,0,0,0.030864197530864182,0,0)" xlink:href="#s" id="n"/><g id="o"><use transform="matrix(0.03703703703703702,0,0,0.03703703703703702,0,0)" xlink:href="#y"/><use transform="matrix(0.03703703703703702,0,0,0.03703703703703702,7.407407407407404,0)" xlink:href="#z"/><use transform="matrix(0.03703703703703702,0,0,0.03703703703703702,14.814814814814808,0)" xlink:href="#A"/></g></defs></g></svg>