<svg xmlns="http://www.w3.org/2000/svg" xmlns:xlink="http://www.w3.org/1999/xlink" xmlns:lucid="lucid" width="318.23" height="160"><g transform="translate(-480 -160)" lucid:page-tab-id="0_0"><path d="M0 0h1870.4v1323.2H0z" fill="#fff"/><path d="M737.64 241v20.5" stroke="#7ab648" stroke-width="2" fill="none"/><path d="M738.64 241.03h-2V240h2z" fill="#7ab648"/><path d="M737.64 276.76L733 262.5h9.28z" stroke="#7ab648" stroke-width="2" fill="#7ab648"/><path d="M542.18 240h194.46" stroke="#5e5e5e" stroke-width="2" fill="none"/><path d="M542.2 240h-4.02v-1h4.02z" fill="#5e5e5e"/><path d="M736.62 240h1.02" stroke="#5e5e5e" stroke-width="2" fill="none"/><path d="M500 286c0-3.3 2.7-6 6-6h68c3.3 0 6 2.7 6 6v8c0 3.3-2.7 6-6 6h-68c-3.3 0-6-2.7-6-6z" stroke="#000" stroke-opacity="0" stroke-width="3" fill="#fff" fill-opacity="0"/><use xlink:href="#a" transform="matrix(1,0,0,1,505,285) translate(20.185185185185194 8.361111111111107)"/><path d="M570.6 246c0-3.3 2.68-6 6-6h8c3.3 0 6 2.7 6 6v8c0 3.3-2.7 6-6 6h-8c-3.32 0-6-2.7-6-6z" stroke="#000" stroke-opacity="0" stroke-width="3" fill="#fff" fill-opacity="0"/><use xlink:href="#b" transform="matrix(1,0,0,1,575.5892923403699,245) translate(1.9135802469135816 8.888888888888884)"/><path d="M610 246c0-3.3 2.7-6 6-6h8c3.3 0 6 2.7 6 6v8c0 3.3-2.7 6-6 6h-8c-3.3 0-6-2.7-6-6z" stroke="#000" stroke-opacity="0" stroke-width="3" fill="#fff" fill-opacity="0"/><use xlink:href="#c" transform="matrix(1,0,0,1,615,245) translate(1.9135802469135816 8.888888888888884)"/><path d="M541.15 241l-.6 20.5" stroke="#7ab648" stroke-width="2" fill="none"/><path d="M542.15 241.05l-2-.05.03-1h2z" fill="#7ab648"/><path d="M540.1 276.77l-4.22-14.4 9.27.27z" stroke="#7ab648" stroke-width="2" fill="#7ab648"/><path d="M531.18 246c0-3.3 2.68-6 6-6h8c3.3 0 6 2.7 6 6v8c0 3.3-2.7 6-6 6h-8c-3.32 0-6-2.7-6-6z" stroke="#000" stroke-opacity="0" stroke-width="3" fill="#fff" fill-opacity="0"/><use xlink:href="#d" transform="matrix(1,0,0,1,536.1785846807398,245) translate(1.9135802469135816 8.888888888888884)"/><path d="M649.4 246c0-3.3 2.7-6 6-6h8c3.32 0 6 2.7 6 6v8c0 3.3-2.68 6-6 6h-8c-3.3 0-6-2.7-6-6z" stroke="#000" stroke-opacity="0" stroke-width="3" fill="#fff" fill-opacity="0"/><use xlink:href="#e" transform="matrix(1,0,0,1,654.4107076596301,245) translate(1.9135802469135816 8.888888888888884)"/><path d="M688.82 246c0-3.3 2.7-6 6-6h8c3.32 0 6 2.7 6 6v8c0 3.3-2.68 6-6 6h-8c-3.3 0-6-2.7-6-6z" stroke="#000" stroke-opacity="0" stroke-width="3" fill="#fff" fill-opacity="0"/><use xlink:href="#f" transform="matrix(1,0,0,1,693.8214153192603,245) translate(1.9135802469135816 8.888888888888884)"/><path d="M728.23 246c0-3.3 2.7-6 6-6h8c3.32 0 6 2.7 6 6v8c0 3.3-2.68 6-6 6h-8c-3.3 0-6-2.7-6-6z" stroke="#000" stroke-opacity="0" stroke-width="3" fill="#fff" fill-opacity="0"/><use xlink:href="#g" transform="matrix(1,0,0,1,733.2321229788904,245) translate(1.9135802469135816 8.888888888888884)"/><path d="M698.23 286c0-3.3 2.7-6 6-6h68c3.32 0 6 2.7 6 6v8c0 3.3-2.68 6-6 6h-68c-3.3 0-6-2.7-6-6z" stroke="#000" stroke-opacity="0" stroke-width="3" fill="#fff" fill-opacity="0"/><use xlink:href="#h" transform="matrix(1,0,0,1,703.2321229788904,285) translate(20.185185185185194 8.361111111111107)"/><path d="M620 239v-20.5" stroke="#0c7cba" stroke-width="2" fill="none"/><path d="M621 240h-2v-1.03h2z" fill="#0c7cba"/><path d="M620 203.24l4.64 14.26h-9.28z" stroke="#0c7cba" stroke-width="2" fill="#0c7cba"/><path d="M580 186c0-3.3 2.7-6 6-6h68c3.3 0 6 2.7 6 6v8c0 3.3-2.7 6-6 6h-68c-3.3 0-6-2.7-6-6z" stroke="#000" stroke-opacity="0" stroke-width="3" fill="#fff" fill-opacity="0"/><use xlink:href="#i" transform="matrix(1,0,0,1,585,185) translate(17.716049382716058 8.361111111111107)"/><path d="M570.6 266c0-3.3 2.68-6 6-6h8c3.3 0 6 2.7 6 6v8c0 3.3-2.7 6-6 6h-8c-3.32 0-6-2.7-6-6z" stroke="#000" stroke-opacity="0" stroke-width="3" fill="#fff" fill-opacity="0"/><use xlink:href="#j" transform="matrix(1,0,0,1,575.5892923403699,265) translate(2.021604938271606 8.888888888888884)"/><defs><path fill="#333" d="M111-147c44 9 85 22 84 75-1 49-35 65-84 68v31H91V-4C40-5 12-27 5-72l45-8c4 24 15 38 41 40-2-22 4-51-2-69-39-10-76-22-76-72 0-47 35-60 78-63v-23h20v23c47 1 70 23 78 62l-46 7c-4-18-12-32-32-34v62zm-20-63c-33-4-45 46-13 54 4 1 8 2 13 4v-58zm20 170c39 5 53-51 15-60-7-2-7-2-15-4v64" id="k"/><path fill="#333" d="M165-50V0h-47v-50H5v-38l105-160h55v161h33v37h-33zm-47-37l2-116L46-87h72" id="l"/><path fill="#333" d="M101-251c68 0 84 54 84 127C185-50 166 4 99 4S15-52 14-124c-1-75 17-127 87-127zm-1 216c37-5 36-46 36-89s4-89-36-89c-39 0-36 45-36 89 0 43-3 85 36 89" id="m"/><g id="a"><use transform="matrix(0.024691358024691343,0,0,0.024691358024691343,0,0)" xlink:href="#k"/><use transform="matrix(0.024691358024691343,0,0,0.024691358024691343,4.938271604938269,0)" xlink:href="#l"/><use transform="matrix(0.024691358024691343,0,0,0.024691358024691343,9.876543209876537,0)" xlink:href="#m"/><use transform="matrix(0.024691358024691343,0,0,0.024691358024691343,14.814814814814806,0)" xlink:href="#m"/><use transform="matrix(0.024691358024691343,0,0,0.024691358024691343,19.753086419753075,0)" xlink:href="#m"/><use transform="matrix(0.024691358024691343,0,0,0.024691358024691343,24.691358024691343,0)" xlink:href="#m"/></g><path fill="#333" d="M27 0v-27h64v-190l-56 39v-29l58-41h29v221h61V0H27" id="n"/><use transform="matrix(0.030864197530864182,0,0,0.030864197530864182,0,0)" xlink:href="#n" id="b"/><path fill="#333" d="M101-251c82-7 93 87 43 132L82-64C71-53 59-42 53-27h129V0H18c2-99 128-94 128-182 0-28-16-43-45-43s-46 15-49 41l-32-3c6-41 34-60 81-64" id="o"/><use transform="matrix(0.030864197530864182,0,0,0.030864197530864182,0,0)" xlink:href="#o" id="c"/><path fill="#333" d="M101-251c68 0 85 55 85 127S166 4 100 4C33 4 14-52 14-124c0-73 17-127 87-127zm-1 229c47 0 54-49 54-102s-4-102-53-102c-51 0-55 48-55 102 0 53 5 102 54 102" id="p"/><use transform="matrix(0.030864197530864182,0,0,0.030864197530864182,0,0)" xlink:href="#p" id="d"/><path fill="#333" d="M126-127c33 6 58 20 58 59 0 88-139 92-164 29-3-8-5-16-6-25l32-3c6 27 21 44 54 44 32 0 52-15 52-46 0-38-36-46-79-43v-28c39 1 72-4 72-42 0-27-17-43-46-43-28 0-47 15-49 41l-32-3c6-42 35-63 81-64 48-1 79 21 79 65 0 36-21 52-52 59" id="q"/><use transform="matrix(0.030864197530864182,0,0,0.030864197530864182,0,0)" xlink:href="#q" id="e"/><path fill="#333" d="M155-56V0h-30v-56H8v-25l114-167h33v167h35v25h-35zm-30-156c-27 46-58 90-88 131h88v-131" id="r"/><use transform="matrix(0.030864197530864182,0,0,0.030864197530864182,0,0)" xlink:href="#r" id="f"/><path fill="#333" d="M54-142c48-35 137-8 131 61C196 18 31 33 14-55l32-4c7 23 22 37 52 37 35-1 51-22 54-58 4-55-73-65-99-34H22l8-134h141v27H59" id="s"/><use transform="matrix(0.030864197530864182,0,0,0.030864197530864182,0,0)" xlink:href="#s" id="g"/><path fill="#333" d="M115-159c48 0 72 30 72 78 0 54-30 85-83 85-64 0-91-50-91-122 0-98 58-163 141-120 15 8 21 24 27 44l-47 6c-5-31-48-31-61-4-7 14-11 33-11 60 9-17 28-27 53-27zM102-35c24 0 36-20 36-45s-11-43-37-43c-23 0-36 14-36 38 0 27 11 50 37 50" id="t"/><g id="h"><use transform="matrix(0.024691358024691343,0,0,0.024691358024691343,0,0)" xlink:href="#k"/><use transform="matrix(0.024691358024691343,0,0,0.024691358024691343,4.938271604938269,0)" xlink:href="#t"/><use transform="matrix(0.024691358024691343,0,0,0.024691358024691343,9.876543209876537,0)" xlink:href="#m"/><use transform="matrix(0.024691358024691343,0,0,0.024691358024691343,14.814814814814806,0)" xlink:href="#m"/><use transform="matrix(0.024691358024691343,0,0,0.024691358024691343,19.753086419753075,0)" xlink:href="#m"/><use transform="matrix(0.024691358024691343,0,0,0.024691358024691343,24.691358024691343,0)" xlink:href="#m"/></g><path fill="#333" d="M23 0v-37h61v-169l-59 37v-38l62-41h46v211h57V0H23" id="u"/><g id="i"><use transform="matrix(0.024691358024691343,0,0,0.024691358024691343,0,0)" xlink:href="#k"/><use transform="matrix(0.024691358024691343,0,0,0.024691358024691343,4.938271604938269,0)" xlink:href="#u"/><use transform="matrix(0.024691358024691343,0,0,0.024691358024691343,9.876543209876537,0)" xlink:href="#m"/><use transform="matrix(0.024691358024691343,0,0,0.024691358024691343,14.814814814814806,0)" xlink:href="#m"/><use transform="matrix(0.024691358024691343,0,0,0.024691358024691343,19.753086419753075,0)" xlink:href="#m"/><use transform="matrix(0.024691358024691343,0,0,0.024691358024691343,24.691358024691343,0)" xlink:href="#m"/><use transform="matrix(0.024691358024691343,0,0,0.024691358024691343,29.629629629629612,0)" xlink:href="#m"/></g><path fill="#333" d="M101-234c-31-9-42 10-38 44h38v23H63V0H32v-167H5v-23h27c-7-52 17-82 69-68v24" id="v"/><g id="j"><use transform="matrix(0.030864197530864182,0,0,0.030864197530864182,0,0)" xlink:href="#v"/><use transform="matrix(0.030864197530864182,0,0,0.030864197530864182,2.870370370370369,0)" xlink:href="#v"/></g></defs></g></svg>