<svg xmlns="http://www.w3.org/2000/svg" xmlns:xlink="http://www.w3.org/1999/xlink" xmlns:lucid="lucid" width="308.23" height="160"><g transform="translate(20 20)" lucid:page-tab-id="0_0"><path d="M0 0h1870.4v1323.2H0z" fill="#fff"/><path d="M40 61v20.5" stroke="#7ab648" stroke-width="2" fill="none"/><path d="M41 61.03h-2V60h2z" fill="#7ab648"/><path d="M40 96.76L35.36 82.5h9.28z" stroke="#7ab648" stroke-width="2" fill="#7ab648"/><path d="M227.64 59V38.5" stroke="#0c7cba" stroke-width="2" fill="none"/><path d="M228.64 60h-2v-1.03h2z" fill="#0c7cba"/><path d="M227.64 23.24l4.64 14.26H223z" stroke="#0c7cba" stroke-width="2" fill="#0c7cba"/><path d="M42.18 60h187.16" stroke="#5e5e5e" stroke-width="2" fill="none"/><path d="M42.2 60h-4.02v-1h4.02zM230.34 61h-1.02v-2h1.02z" fill="#5e5e5e"/><path d="M0 106c0-3.3 2.7-6 6-6h68c3.3 0 6 2.7 6 6v8c0 3.3-2.7 6-6 6H6c-3.3 0-6-2.7-6-6z" stroke="#000" stroke-opacity="0" stroke-width="3" fill="#fff" fill-opacity="0"/><use xlink:href="#a" transform="matrix(1,0,0,1,5,105) translate(18.950617283950628 8.361111111111107)"/><path d="M70.6 66c0-3.3 2.68-6 6-6h8c3.3 0 6 2.7 6 6v8c0 3.3-2.7 6-6 6h-8c-3.32 0-6-2.7-6-6z" stroke="#000" stroke-opacity="0" stroke-width="3" fill="#fff" fill-opacity="0"/><use xlink:href="#b" transform="matrix(1,0,0,1,75.58929234036987,65) translate(1.9135802469135816 8.888888888888884)"/><path d="M122.5 66c0-3.3 2.7-6 6-6h8c3.3 0 6 2.7 6 6v8c0 3.3-2.7 6-6 6h-8c-3.3 0-6-2.7-6-6z" stroke="#000" stroke-opacity="0" stroke-width="3" fill="#fff" fill-opacity="0"/><use xlink:href="#c" transform="matrix(1,0,0,1,127.5000000000091,65) translate(1.9135802469135816 8.888888888888884)"/><path d="M31.18 66c0-3.3 2.68-6 6-6h8c3.3 0 6 2.7 6 6v8c0 3.3-2.7 6-6 6h-8c-3.32 0-6-2.7-6-6z" stroke="#000" stroke-opacity="0" stroke-width="3" fill="#fff" fill-opacity="0"/><use xlink:href="#d" transform="matrix(1,0,0,1,36.178584680739846,65) translate(1.9135802469135816 8.888888888888884)"/><path d="M168.82 66c0-3.3 2.7-6 6-6h8c3.32 0 6 2.7 6 6v8c0 3.3-2.68 6-6 6h-8c-3.3 0-6-2.7-6-6z" stroke="#000" stroke-opacity="0" stroke-width="3" fill="#fff" fill-opacity="0"/><use xlink:href="#e" transform="matrix(1,0,0,1,173.82141531926027,65) translate(1.9135802469135816 8.888888888888884)"/><path d="M188.82 66c0-3.3 2.7-6 6-6h8c3.32 0 6 2.7 6 6v8c0 3.3-2.68 6-6 6h-8c-3.3 0-6-2.7-6-6zM218.23 66c0-3.3 2.7-6 6-6h8c3.32 0 6 2.7 6 6v8c0 3.3-2.68 6-6 6h-8c-3.3 0-6-2.7-6-6z" stroke="#000" stroke-opacity="0" stroke-width="3" fill="#fff" fill-opacity="0"/><use xlink:href="#f" transform="matrix(1,0,0,1,223.2321229788904,65) translate(1.9135802469135816 8.888888888888884)"/><path d="M188.23 6c0-3.3 2.7-6 6-6h68c3.32 0 6 2.7 6 6v8c0 3.3-2.68 6-6 6h-68c-3.3 0-6-2.7-6-6z" stroke="#000" stroke-opacity="0" stroke-width="3" fill="#fff" fill-opacity="0"/><use xlink:href="#g" transform="matrix(1,0,0,1,193.2321229788904,5) translate(21.41975308641976 8.361111111111107)"/><path d="M230.34 56c0-3.3 2.7-6 6-6h12.8c3.32 0 6 2.7 6 6v8c0 3.3-2.68 6-6 6h-12.8c-3.3 0-6-2.7-6-6z" stroke="#000" stroke-opacity="0" stroke-width="3" fill="#fff" fill-opacity="0"/><use xlink:href="#h" transform="matrix(1,0,0,1,235.34283063846487,55) translate(3.796296296296298 10.666666666666664)"/><path d="M65 86c0-3.3 2.7-6 6-6h19.18c3.3 0 6 2.7 6 6v8c0 3.3-2.7 6-6 6H71c-3.3 0-6-2.7-6-6z" stroke="#000" stroke-opacity="0" stroke-width="3" fill="#fff" fill-opacity="0"/><use xlink:href="#i" transform="matrix(1,0,0,1,69.99999999998181,85) translate(7.296296296296298 10.666666666666664)"/><path d="M132.5 59V38.5" stroke="#0c7cba" stroke-width="2" fill="none"/><path d="M133.5 60h-2v-1.03h2z" fill="#0c7cba"/><path d="M132.5 23.24l4.64 14.26h-9.28z" stroke="#0c7cba" stroke-width="2" fill="#0c7cba"/><path d="M92.5 6c0-3.3 2.7-6 6-6h68c3.3 0 6 2.7 6 6v8c0 3.3-2.7 6-6 6h-68c-3.3 0-6-2.7-6-6z" stroke="#000" stroke-opacity="0" stroke-width="3" fill="#fff" fill-opacity="0"/><use xlink:href="#j" transform="matrix(1,0,0,1,97.5000000000091,5) translate(21.41975308641976 8.361111111111107)"/><path d="M80.6 59V38.5" stroke="#0c7cba" stroke-width="2" fill="none"/><path d="M81.6 60h-2v-1.03h2z" fill="#0c7cba"/><path d="M80.6 23.24L85.2 37.5h-9.27z" stroke="#0c7cba" stroke-width="2" fill="#0c7cba"/><path d="M178.82 59V38.5" stroke="#0c7cba" stroke-width="2" fill="none"/><path d="M179.82 60h-2v-1.03h2z" fill="#0c7cba"/><path d="M178.82 23.24l4.64 14.26h-9.27z" stroke="#0c7cba" stroke-width="2" fill="#0c7cba"/><path d="M138.82 6c0-3.3 2.7-6 6-6h68c3.32 0 6 2.7 6 6v8c0 3.3-2.68 6-6 6h-68c-3.3 0-6-2.7-6-6z" stroke="#000" stroke-opacity="0" stroke-width="3" fill="#fff" fill-opacity="0"/><use xlink:href="#j" transform="matrix(1,0,0,1,143.82141531926027,5) translate(21.41975308641976 8.361111111111107)"/><path d="M40.6 6c0-3.3 2.68-6 6-6h68c3.3 0 6 2.7 6 6v8c0 3.3-2.7 6-6 6h-68c-3.32 0-6-2.7-6-6z" stroke="#000" stroke-opacity="0" stroke-width="3" fill="#fff" fill-opacity="0"/><use xlink:href="#g" transform="matrix(1,0,0,1,45.589292340369866,5) translate(21.41975308641976 8.361111111111107)"/><defs><path fill="#333" d="M111-147c44 9 85 22 84 75-1 49-35 65-84 68v31H91V-4C40-5 12-27 5-72l45-8c4 24 15 38 41 40-2-22 4-51-2-69-39-10-76-22-76-72 0-47 35-60 78-63v-23h20v23c47 1 70 23 78 62l-46 7c-4-18-12-32-32-34v62zm-20-63c-33-4-45 46-13 54 4 1 8 2 13 4v-58zm20 170c39 5 53-51 15-60-7-2-7-2-15-4v64" id="k"/><path fill="#333" d="M23 0v-37h61v-169l-59 37v-38l62-41h46v211h57V0H23" id="l"/><path fill="#333" d="M101-251c68 0 84 54 84 127C185-50 166 4 99 4S15-52 14-124c-1-75 17-127 87-127zm-1 216c37-5 36-46 36-89s4-89-36-89c-39 0-36 45-36 89 0 43-3 85 36 89" id="m"/><path fill="#333" d="M24 0v-54h51V0H24" id="n"/><g id="a"><use transform="matrix(0.024691358024691343,0,0,0.024691358024691343,0,0)" xlink:href="#k"/><use transform="matrix(0.024691358024691343,0,0,0.024691358024691343,4.938271604938269,0)" xlink:href="#l"/><use transform="matrix(0.024691358024691343,0,0,0.024691358024691343,9.876543209876537,0)" xlink:href="#m"/><use transform="matrix(0.024691358024691343,0,0,0.024691358024691343,14.814814814814806,0)" xlink:href="#n"/><use transform="matrix(0.024691358024691343,0,0,0.024691358024691343,17.283950617283942,0)" xlink:href="#m"/><use transform="matrix(0.024691358024691343,0,0,0.024691358024691343,22.22222222222221,0)" xlink:href="#m"/><use transform="matrix(0.024691358024691343,0,0,0.024691358024691343,27.160493827160476,0)" xlink:href="#m"/></g><path fill="#333" d="M27 0v-27h64v-190l-56 39v-29l58-41h29v221h61V0H27" id="o"/><use transform="matrix(0.030864197530864182,0,0,0.030864197530864182,0,0)" xlink:href="#o" id="b"/><path fill="#333" d="M101-251c82-7 93 87 43 132L82-64C71-53 59-42 53-27h129V0H18c2-99 128-94 128-182 0-28-16-43-45-43s-46 15-49 41l-32-3c6-41 34-60 81-64" id="p"/><use transform="matrix(0.030864197530864182,0,0,0.030864197530864182,0,0)" xlink:href="#p" id="c"/><path fill="#333" d="M101-251c68 0 85 55 85 127S166 4 100 4C33 4 14-52 14-124c0-73 17-127 87-127zm-1 229c47 0 54-49 54-102s-4-102-53-102c-51 0-55 48-55 102 0 53 5 102 54 102" id="q"/><use transform="matrix(0.030864197530864182,0,0,0.030864197530864182,0,0)" xlink:href="#q" id="d"/><path fill="#333" d="M126-127c33 6 58 20 58 59 0 88-139 92-164 29-3-8-5-16-6-25l32-3c6 27 21 44 54 44 32 0 52-15 52-46 0-38-36-46-79-43v-28c39 1 72-4 72-42 0-27-17-43-46-43-28 0-47 15-49 41l-32-3c6-42 35-63 81-64 48-1 79 21 79 65 0 36-21 52-52 59" id="r"/><use transform="matrix(0.030864197530864182,0,0,0.030864197530864182,0,0)" xlink:href="#r" id="e"/><path fill="#333" d="M155-56V0h-30v-56H8v-25l114-167h33v167h35v25h-35zm-30-156c-27 46-58 90-88 131h88v-131" id="s"/><use transform="matrix(0.030864197530864182,0,0,0.030864197530864182,0,0)" xlink:href="#s" id="f"/><path fill="#333" d="M128-127c34 4 56 21 59 58 7 91-148 94-172 28-4-9-6-17-7-26l51-5c1 24 16 35 40 36 23 0 39-12 38-36-1-31-31-36-65-34v-40c32 2 59-3 59-33 0-20-13-33-34-33s-33 13-35 32l-50-3c6-44 37-68 86-68 50 0 83 20 83 66 0 35-22 52-53 58" id="t"/><path fill="#333" d="M139-81c0-46-55-55-73-27H18l9-140h149v37H72l-4 63c44-38 133-4 122 66C201 21 21 35 11-62l49-4c5 18 15 30 39 30 26 0 40-18 40-45" id="u"/><g id="g"><use transform="matrix(0.024691358024691343,0,0,0.024691358024691343,0,0)" xlink:href="#k"/><use transform="matrix(0.024691358024691343,0,0,0.024691358024691343,4.938271604938269,0)" xlink:href="#t"/><use transform="matrix(0.024691358024691343,0,0,0.024691358024691343,9.876543209876537,0)" xlink:href="#n"/><use transform="matrix(0.024691358024691343,0,0,0.024691358024691343,12.345679012345672,0)" xlink:href="#u"/><use transform="matrix(0.024691358024691343,0,0,0.024691358024691343,17.283950617283942,0)" xlink:href="#m"/><use transform="matrix(0.024691358024691343,0,0,0.024691358024691343,22.22222222222221,0)" xlink:href="#m"/></g><path fill="#333" d="M117-194c89-4 53 116 60 194h-32v-121c0-31-8-49-39-48C34-167 62-67 57 0H25l-1-190h30c1 10-1 24 2 32 11-22 29-35 61-36" id="v"/><use transform="matrix(0.03703703703703702,0,0,0.03703703703703702,0,0)" xlink:href="#v" id="h"/><path fill="#333" d="M76-167L44 0H12l33-167H18l4-23h27c3-47 25-81 82-69l-4 24c-35-8-44 15-46 45h37l-5 23H76" id="w"/><g id="i"><use transform="matrix(0.03703703703703702,0,0,0.03703703703703702,0,0)" xlink:href="#w"/><use transform="matrix(0.03703703703703702,0,0,0.03703703703703702,3.703703703703702,0)" xlink:href="#w"/></g><g id="j"><use transform="matrix(0.024691358024691343,0,0,0.024691358024691343,0,0)" xlink:href="#k"/><use transform="matrix(0.024691358024691343,0,0,0.024691358024691343,4.938271604938269,0)" xlink:href="#t"/><use transform="matrix(0.024691358024691343,0,0,0.024691358024691343,9.876543209876537,0)" xlink:href="#n"/><use transform="matrix(0.024691358024691343,0,0,0.024691358024691343,12.345679012345672,0)" xlink:href="#m"/><use transform="matrix(0.024691358024691343,0,0,0.024691358024691343,17.283950617283942,0)" xlink:href="#m"/><use transform="matrix(0.024691358024691343,0,0,0.024691358024691343,22.22222222222221,0)" xlink:href="#m"/></g></defs></g></svg>