<svg xmlns="http://www.w3.org/2000/svg" xmlns:xlink="http://www.w3.org/1999/xlink" xmlns:lucid="lucid" width="470" height="191"><g transform="translate(-480 -140)" lucid:page-tab-id="0_0"><path d="M0 0h1870.4v1323.2H0z" fill="#fff"/><path d="M551.43 255.4l1.86 2.35m2.56 3.08l1.93 2.25 2.07 2.23m2.78 2.9l2.85 2.8 1.5 1.36m2.98 2.68l3.93 3.28.72.54m3.2 2.44l.58.45 4.32 3.02m3.37 2.18l1.92 1.24 3.22 1.86m3.5 1.95l3.86 2.04 1.5.7m3.6 1.73l.6.27 4.94 2.1m3.74 1.46l3.58 1.34 2.08.68m3.8 1.26l.74.24 5.05 1.42m3.88 1l5.4 1.3.46.1m3.94.75l3.33.64 2.6.4m3.96.6l1.56.22 4.4.48m4 .43l.14.02 5.85.37m4 .23l6.02.15m4 .03l6.02-.1m4-.16l6-.36m4-.3l6-.62m3.97-.46l5.95-.86m3.97-.6l5.9-1.1m3.94-.75l.38-.07 5.5-1.26m3.9-.9l1.5-.35 4.3-1.2m3.87-1.07l2.7-.74 3.06-1m3.8-1.22l3.88-1.24 1.83-.68m3.77-1.38l4.9-1.8.73-.3m3.7-1.55l5.56-2.32m3.63-1.67l5.46-2.55m3.57-1.8l5.33-2.78m3.5-1.94l5.23-3m3.42-2.08l5.1-3.2m3.3-2.25l4.97-3.42m3.2-2.4l3.8-2.86.97-.8m3.1-2.54l2.32-1.9 2.25-2.02m2.98-2.67l.6-.53 1.6-1.5" stroke="#c92d39" stroke-width="2" fill="none"/><path d="M542.98 242.7l11.76 9.3-7.7 5.14z" stroke="#c92d39" stroke-width="2" fill="#c92d39"/><path d="M850 246v2.35l-.06.05-1.37-1.45 1.58-1.5z" fill="#c92d39"/><path d="M542.18 240H863" stroke="#5e5e5e" stroke-width="2" fill="none"/><path d="M542.2 240h-4.02v-1h4.02zM867 240.8v.2h-4.03v-1H864z" fill="#5e5e5e"/><path d="M540 319v-2.96m0-3.94v-5.9m0-3.96v-5.9m0-3.95v-5.93m0-3.94v-5.92m0-3.93v-5.9m0-3.96v-5.9m0-3.94v-5.92m0-3.94v-5.9m0-3.96v-5.9m0-3.95v-5.93m0-3.94v-5.92m0-3.93v-5.9m0-3.96v-5.9m0-3.94V181M540 318.97V320" stroke="#fcc438" stroke-width="2" fill="none"/><path d="M541 181.03h-2V180h2z" fill="#fcc438"/><path d="M530 166c0-3.3 2.7-6 6-6h8c3.3 0 6 2.7 6 6v8c0 3.3-2.7 6-6 6h-8c-3.3 0-6-2.7-6-6z" stroke="#000" stroke-opacity="0" stroke-width="3" fill="#fff" fill-opacity="0"/><use xlink:href="#a" transform="matrix(1,0,0,1,535,165) translate(2.021604938271606 8.888888888888884)"/><path d="M500 286c0-3.3 2.7-6 6-6h68c3.3 0 6 2.7 6 6v8c0 3.3-2.7 6-6 6h-68c-3.3 0-6-2.7-6-6z" stroke="#000" stroke-opacity="0" stroke-width="3" fill="#fff" fill-opacity="0"/><use xlink:href="#b" transform="matrix(1,0,0,1,505,285) translate(20.185185185185194 8.361111111111107)"/><path d="M640 266c0-3.3 2.7-6 6-6h68c3.3 0 6 2.7 6 6v8c0 3.3-2.7 6-6 6h-68c-3.3 0-6-2.7-6-6z" stroke="#000" stroke-opacity="0" stroke-width="3" fill="#fff" fill-opacity="0"/><use xlink:href="#c" transform="matrix(1,0,0,1,645,265) translate(5.592592592592606 10.666666666666664)"/><use xlink:href="#d" transform="matrix(1,0,0,1,645,265) translate(39.25925925925925 10.666666666666664)"/><use xlink:href="#e" transform="matrix(1,0,0,1,645,265) translate(5.574074074074087 26.66666666666666)"/><use xlink:href="#f" transform="matrix(1,0,0,1,645,265) translate(39.27777777777777 26.66666666666666)"/><path d="M860 239v-20.5" stroke="#0c7cba" stroke-width="2" fill="none"/><path d="M861 240h-2v-1.03h2z" fill="#0c7cba"/><path d="M860 203.24l4.64 14.26h-9.28z" stroke="#0c7cba" stroke-width="2" fill="#0c7cba"/><path d="M820 186c0-3.3 2.7-6 6-6h68c3.3 0 6 2.7 6 6v8c0 3.3-2.7 6-6 6h-68c-3.3 0-6-2.7-6-6z" stroke="#000" stroke-opacity="0" stroke-width="3" fill="#fff" fill-opacity="0"/><use xlink:href="#g" transform="matrix(1,0,0,1,825,185) translate(22.90123456790124 8.361111111111107)"/><path d="M570.6 246c0-3.3 2.68-6 6-6h8c3.3 0 6 2.7 6 6v8c0 3.3-2.7 6-6 6h-8c-3.32 0-6-2.7-6-6z" stroke="#000" stroke-opacity="0" stroke-width="3" fill="#fff" fill-opacity="0"/><use xlink:href="#h" transform="matrix(1,0,0,1,575.5892923403699,245) translate(1.9135802469135816 8.888888888888884)"/><path d="M610 246c0-3.3 2.7-6 6-6h8c3.3 0 6 2.7 6 6v8c0 3.3-2.7 6-6 6h-8c-3.3 0-6-2.7-6-6z" stroke="#000" stroke-opacity="0" stroke-width="3" fill="#fff" fill-opacity="0"/><use xlink:href="#i" transform="matrix(1,0,0,1,615,245) translate(1.9135802469135816 8.888888888888884)"/><path d="M850 246c0-3.3 2.7-6 6-6h8c3.3 0 6 2.7 6 6v8c0 3.3-2.7 6-6 6h-8c-3.3 0-6-2.7-6-6z" stroke="#000" stroke-opacity="0" stroke-width="3" fill="#fff" fill-opacity="0"/><use xlink:href="#j" transform="matrix(1,0,0,1,855,245) translate(-1.1728395061728367 8.888888888888884)"/><path d="M870 246c0-3.3 2.7-6 6-6h48c3.3 0 6 2.7 6 6v8c0 3.3-2.7 6-6 6h-48c-3.3 0-6-2.7-6-6z" stroke="#000" stroke-opacity="0" stroke-width="3" fill="#fff" fill-opacity="0"/><use xlink:href="#k" transform="matrix(1,0,0,1,875,245) translate(12.425925925925931 10.666666666666664)"/><path d="M541.15 241l-.6 20.5" stroke="#99d2f2" stroke-width="2" fill="none"/><path d="M542.15 241.05l-2-.05.03-1h2z" fill="#99d2f2"/><path d="M540.1 276.77l-4.22-14.4 9.27.27z" stroke="#99d2f2" stroke-width="2" fill="#99d2f2"/><path d="M531.18 246c0-3.3 2.68-6 6-6h8c3.3 0 6 2.7 6 6v8c0 3.3-2.7 6-6 6h-8c-3.32 0-6-2.7-6-6z" stroke="#000" stroke-opacity="0" stroke-width="3" fill="#fff" fill-opacity="0"/><use xlink:href="#l" transform="matrix(1,0,0,1,536.1785846807398,245) translate(1.296296296296298 10.666666666666664)"/><path d="M710 243c0-3.3 2.7-6 6-6h48c3.3 0 6 2.7 6 6v14c0 3.3-2.7 6-6 6h-48c-3.3 0-6-2.7-6-6z" stroke="#000" stroke-opacity="0" stroke-width="3" fill="#fff" fill-opacity="0"/><use xlink:href="#m" transform="matrix(1,0,0,1,715,242) translate(10.185185185185192 12.666666666666664)"/><path d="M623.12 239v-20.5M623.12 238.97V240" stroke="#0c7cba" stroke-width="2" fill="none"/><path d="M623.12 203.24l4.64 14.26h-9.28z" stroke="#0c7cba" stroke-width="2" fill="#0c7cba"/><path d="M583.12 186c0-3.3 2.7-6 6-6h68c3.3 0 6 2.7 6 6v8c0 3.3-2.7 6-6 6h-68c-3.3 0-6-2.7-6-6z" stroke="#000" stroke-opacity="0" stroke-width="3" fill="#fff" fill-opacity="0"/><use xlink:href="#g" transform="matrix(1,0,0,1,588.1199069391557,185) translate(22.90123456790124 8.361111111111107)"/><path d="M580.6 239v-20.5" stroke="#0c7cba" stroke-width="2" fill="none"/><path d="M581.6 240h-2v-1.03h2z" fill="#0c7cba"/><path d="M580.6 203.24l4.62 14.26h-9.27z" stroke="#0c7cba" stroke-width="2" fill="#0c7cba"/><path d="M540.6 186c0-3.3 2.68-6 6-6h68c3.3 0 6 2.7 6 6v8c0 3.3-2.7 6-6 6h-68c-3.32 0-6-2.7-6-6z" stroke="#000" stroke-opacity="0" stroke-width="3" fill="#fff" fill-opacity="0"/><g><use xlink:href="#g" transform="matrix(1,0,0,1,545.5892923403699,185) translate(22.90123456790124 8.361111111111107)"/></g><defs><path fill="#333" d="M101-234c-31-9-42 10-38 44h38v23H63V0H32v-167H5v-23h27c-7-52 17-82 69-68v24" id="n"/><g id="a"><use transform="matrix(0.030864197530864182,0,0,0.030864197530864182,0,0)" xlink:href="#n"/><use transform="matrix(0.030864197530864182,0,0,0.030864197530864182,2.870370370370369,0)" xlink:href="#n"/></g><path fill="#333" d="M111-147c44 9 85 22 84 75-1 49-35 65-84 68v31H91V-4C40-5 12-27 5-72l45-8c4 24 15 38 41 40-2-22 4-51-2-69-39-10-76-22-76-72 0-47 35-60 78-63v-23h20v23c47 1 70 23 78 62l-46 7c-4-18-12-32-32-34v62zm-20-63c-33-4-45 46-13 54 4 1 8 2 13 4v-58zm20 170c39 5 53-51 15-60-7-2-7-2-15-4v64" id="o"/><path fill="#333" d="M182-182c0 78-84 86-111 141h115V0H12c-6-101 99-100 120-180 1-22-12-31-33-32-23 0-32 14-35 34l-49-3c5-45 32-70 84-70 51 0 83 22 83 69" id="p"/><path fill="#333" d="M101-251c68 0 84 54 84 127C185-50 166 4 99 4S15-52 14-124c-1-75 17-127 87-127zm-1 216c37-5 36-46 36-89s4-89-36-89c-39 0-36 45-36 89 0 43-3 85 36 89" id="q"/><g id="b"><use transform="matrix(0.024691358024691343,0,0,0.024691358024691343,0,0)" xlink:href="#o"/><use transform="matrix(0.024691358024691343,0,0,0.024691358024691343,4.938271604938269,0)" xlink:href="#p"/><use transform="matrix(0.024691358024691343,0,0,0.024691358024691343,9.876543209876537,0)" xlink:href="#q"/><use transform="matrix(0.024691358024691343,0,0,0.024691358024691343,14.814814814814806,0)" xlink:href="#q"/><use transform="matrix(0.024691358024691343,0,0,0.024691358024691343,19.753086419753075,0)" xlink:href="#q"/><use transform="matrix(0.024691358024691343,0,0,0.024691358024691343,24.691358024691343,0)" xlink:href="#q"/></g><path fill="#333" d="M24-231v-30h32v30H24zM24 0v-190h32V0H24" id="r"/><path fill="#333" d="M18-150v-26h174v26H18zm0 90v-26h174v26H18" id="s"/><path fill="#333" d="M54-142c48-35 137-8 131 61C196 18 31 33 14-55l32-4c7 23 22 37 52 37 35-1 51-22 54-58 4-55-73-65-99-34H22l8-134h141v27H59" id="t"/><path fill="#333" d="M252-156c43 0 55 33 55 80 0 46-13 78-56 78-42 0-55-33-55-78 0-48 12-80 56-80zM93 0H65l162-248h28zM13-171c-1-47 13-79 56-79s55 33 55 79-13 79-55 79c-43 0-56-33-56-79zM251-17c28 0 30-29 30-59 0-31-1-60-29-60-29 0-31 29-31 60 0 29 2 59 30 59zM69-112c27 0 28-30 29-59 0-31-1-60-29-60-29 0-30 30-30 60s2 59 30 59" id="u"/><g id="c"><use transform="matrix(0.03703703703703702,0,0,0.03703703703703702,0,0)" xlink:href="#r"/><use transform="matrix(0.03703703703703702,0,0,0.03703703703703702,2.9259259259259247,0)" xlink:href="#s"/><use transform="matrix(0.03703703703703702,0,0,0.03703703703703702,10.703703703703699,0)" xlink:href="#t"/><use transform="matrix(0.03703703703703702,0,0,0.03703703703703702,18.111111111111104,0)" xlink:href="#u"/></g><path fill="#333" d="M115-194c55 1 70 41 70 98S169 2 115 4C84 4 66-9 55-30l1 105H24l-1-265h31l2 30c10-21 28-34 59-34zm-8 174c40 0 45-34 45-75s-6-73-45-74c-42 0-51 32-51 76 0 43 10 73 51 73" id="v"/><path fill="#333" d="M210-169c-67 3-38 105-44 169h-31v-121c0-29-5-50-35-48C34-165 62-65 56 0H25l-1-190h30c1 10-1 24 2 32 10-44 99-50 107 0 11-21 27-35 58-36 85-2 47 119 55 194h-31v-121c0-29-5-49-35-48" id="w"/><path fill="#333" d="M108 0H70L1-190h34L89-25l56-165h34" id="x"/><g id="d"><use transform="matrix(0.03703703703703702,0,0,0.03703703703703702,0,0)" xlink:href="#v"/><use transform="matrix(0.03703703703703702,0,0,0.03703703703703702,7.407407407407404,0)" xlink:href="#w"/><use transform="matrix(0.03703703703703702,0,0,0.03703703703703702,18.481481481481474,0)" xlink:href="#x"/></g><path fill="#333" d="M117-194c89-4 53 116 60 194h-32v-121c0-31-8-49-39-48C34-167 62-67 57 0H25l-1-190h30c1 10-1 24 2 32 11-22 29-35 61-36" id="y"/><path fill="#333" d="M27 0v-27h64v-190l-56 39v-29l58-41h29v221h61V0H27" id="z"/><path fill="#333" d="M101-251c68 0 85 55 85 127S166 4 100 4C33 4 14-52 14-124c0-73 17-127 87-127zm-1 229c47 0 54-49 54-102s-4-102-53-102c-51 0-55 48-55 102 0 53 5 102 54 102" id="A"/><g id="e"><use transform="matrix(0.03703703703703702,0,0,0.03703703703703702,0,0)" xlink:href="#y"/><use transform="matrix(0.03703703703703702,0,0,0.03703703703703702,7.407407407407404,0)" xlink:href="#s"/><use transform="matrix(0.03703703703703702,0,0,0.03703703703703702,15.185185185185178,0)" xlink:href="#z"/><use transform="matrix(0.03703703703703702,0,0,0.03703703703703702,22.592592592592585,0)" xlink:href="#A"/></g><g id="f"><use transform="matrix(0.03703703703703702,0,0,0.03703703703703702,0,0)" xlink:href="#v"/><use transform="matrix(0.03703703703703702,0,0,0.03703703703703702,7.407407407407404,0)" xlink:href="#w"/><use transform="matrix(0.03703703703703702,0,0,0.03703703703703702,18.481481481481474,0)" xlink:href="#x"/></g><path fill="#333" d="M128-127c34 4 56 21 59 58 7 91-148 94-172 28-4-9-6-17-7-26l51-5c1 24 16 35 40 36 23 0 39-12 38-36-1-31-31-36-65-34v-40c32 2 59-3 59-33 0-20-13-33-34-33s-33 13-35 32l-50-3c6-44 37-68 86-68 50 0 83 20 83 66 0 35-22 52-53 58" id="B"/><path fill="#333" d="M23 0v-37h61v-169l-59 37v-38l62-41h46v211h57V0H23" id="C"/><path fill="#333" d="M115-159c48 0 72 30 72 78 0 54-30 85-83 85-64 0-91-50-91-122 0-98 58-163 141-120 15 8 21 24 27 44l-47 6c-5-31-48-31-61-4-7 14-11 33-11 60 9-17 28-27 53-27zM102-35c24 0 36-20 36-45s-11-43-37-43c-23 0-36 14-36 38 0 27 11 50 37 50" id="D"/><g id="g"><use transform="matrix(0.024691358024691343,0,0,0.024691358024691343,0,0)" xlink:href="#o"/><use transform="matrix(0.024691358024691343,0,0,0.024691358024691343,4.938271604938269,0)" xlink:href="#B"/><use transform="matrix(0.024691358024691343,0,0,0.024691358024691343,9.876543209876537,0)" xlink:href="#C"/><use transform="matrix(0.024691358024691343,0,0,0.024691358024691343,14.320987654320978,0)" xlink:href="#C"/><use transform="matrix(0.024691358024691343,0,0,0.024691358024691343,19.259259259259245,0)" xlink:href="#D"/></g><use transform="matrix(0.030864197530864182,0,0,0.030864197530864182,0,0)" xlink:href="#z" id="h"/><path fill="#333" d="M101-251c82-7 93 87 43 132L82-64C71-53 59-42 53-27h129V0H18c2-99 128-94 128-182 0-28-16-43-45-43s-46 15-49 41l-32-3c6-41 34-60 81-64" id="E"/><use transform="matrix(0.030864197530864182,0,0,0.030864197530864182,0,0)" xlink:href="#E" id="i"/><g id="j"><use transform="matrix(0.030864197530864182,0,0,0.030864197530864182,0,0)" xlink:href="#z"/><use transform="matrix(0.030864197530864182,0,0,0.030864197530864182,6.172839506172837,0)" xlink:href="#A"/></g><g id="k"><use transform="matrix(0.03703703703703702,0,0,0.03703703703703702,0,0)" xlink:href="#v"/><use transform="matrix(0.03703703703703702,0,0,0.03703703703703702,7.407407407407404,0)" xlink:href="#w"/><use transform="matrix(0.03703703703703702,0,0,0.03703703703703702,18.481481481481474,0)" xlink:href="#x"/></g><use transform="matrix(0.03703703703703702,0,0,0.03703703703703702,0,0)" xlink:href="#A" id="l"/><path fill="#333" d="M33 0v-38h34V0H33" id="F"/><g id="m"><use transform="matrix(0.03703703703703702,0,0,0.03703703703703702,0,0)" xlink:href="#F"/><use transform="matrix(0.03703703703703702,0,0,0.03703703703703702,3.703703703703702,0)" xlink:href="#F"/><use transform="matrix(0.03703703703703702,0,0,0.03703703703703702,7.407407407407404,0)" xlink:href="#F"/><use transform="matrix(0.03703703703703702,0,0,0.03703703703703702,11.111111111111107,0)" xlink:href="#F"/><use transform="matrix(0.03703703703703702,0,0,0.03703703703703702,14.814814814814808,0)" xlink:href="#F"/><use transform="matrix(0.03703703703703702,0,0,0.03703703703703702,18.51851851851851,0)" xlink:href="#F"/><use transform="matrix(0.03703703703703702,0,0,0.03703703703703702,22.222222222222214,0)" xlink:href="#F"/><use transform="matrix(0.03703703703703702,0,0,0.03703703703703702,25.925925925925913,0)" xlink:href="#F"/></g></defs></g></svg>