<svg xmlns="http://www.w3.org/2000/svg" xmlns:xlink="http://www.w3.org/1999/xlink" xmlns:lucid="lucid" width="318.23" height="160"><g transform="translate(-480 -160)" lucid:page-tab-id="0_0"><path d="M0 0h1870.4v1323.2H0z" fill="#fff"/><path d="M540 241v20.5" stroke="#7ab648" stroke-width="2" fill="none"/><path d="M541 241.03h-2V240h2z" fill="#7ab648"/><path d="M540 276.76l-4.64-14.26h9.28z" stroke="#7ab648" stroke-width="2" fill="#7ab648"/><path d="M737.66 239l.3-20.5" stroke="#0c7cba" stroke-width="2" fill="none"/><path d="M738.66 239l-.02 1h-2l.02-1.04z" fill="#0c7cba"/><path d="M738.18 203.24l4.43 14.33-9.26-.14z" stroke="#0c7cba" stroke-width="2" fill="#0c7cba"/><path d="M542.18 240h194.46" stroke="#5e5e5e" stroke-width="2" fill="none"/><path d="M542.2 240h-4.02v-1h4.02z" fill="#5e5e5e"/><path d="M736.62 240h1.02" stroke="#5e5e5e" stroke-width="2" fill="none"/><path d="M500 286c0-3.3 2.7-6 6-6h68c3.3 0 6 2.7 6 6v8c0 3.3-2.7 6-6 6h-68c-3.3 0-6-2.7-6-6z" stroke="#000" stroke-opacity="0" stroke-width="3" fill="#fff" fill-opacity="0"/><use xlink:href="#a" transform="matrix(1,0,0,1,505,285) translate(14.012345679012363 8.361111111111107)"/><path d="M570.6 246c0-3.3 2.68-6 6-6h8c3.3 0 6 2.7 6 6v8c0 3.3-2.7 6-6 6h-8c-3.32 0-6-2.7-6-6z" stroke="#000" stroke-opacity="0" stroke-width="3" fill="#fff" fill-opacity="0"/><use xlink:href="#b" transform="matrix(1,0,0,1,575.5892923403699,245) translate(1.9135802469135816 8.888888888888884)"/><path d="M610 246c0-3.3 2.7-6 6-6h8c3.3 0 6 2.7 6 6v8c0 3.3-2.7 6-6 6h-8c-3.3 0-6-2.7-6-6z" stroke="#000" stroke-opacity="0" stroke-width="3" fill="#fff" fill-opacity="0"/><use xlink:href="#c" transform="matrix(1,0,0,1,615,245) translate(1.9135802469135816 8.888888888888884)"/><path d="M531.18 246c0-3.3 2.68-6 6-6h8c3.3 0 6 2.7 6 6v8c0 3.3-2.7 6-6 6h-8c-3.32 0-6-2.7-6-6z" stroke="#000" stroke-opacity="0" stroke-width="3" fill="#fff" fill-opacity="0"/><use xlink:href="#d" transform="matrix(1,0,0,1,536.1785846807398,245) translate(1.9135802469135816 8.888888888888884)"/><path d="M649.4 246c0-3.3 2.7-6 6-6h8c3.32 0 6 2.7 6 6v8c0 3.3-2.68 6-6 6h-8c-3.3 0-6-2.7-6-6z" stroke="#000" stroke-opacity="0" stroke-width="3" fill="#fff" fill-opacity="0"/><use xlink:href="#e" transform="matrix(1,0,0,1,654.4107076596301,245) translate(1.9135802469135816 8.888888888888884)"/><path d="M688.82 246c0-3.3 2.7-6 6-6h8c3.32 0 6 2.7 6 6v8c0 3.3-2.68 6-6 6h-8c-3.3 0-6-2.7-6-6z" stroke="#000" stroke-opacity="0" stroke-width="3" fill="#fff" fill-opacity="0"/><use xlink:href="#f" transform="matrix(1,0,0,1,693.8214153192603,245) translate(1.9135802469135816 8.888888888888884)"/><path d="M728.23 246c0-3.3 2.7-6 6-6h8c3.32 0 6 2.7 6 6v8c0 3.3-2.68 6-6 6h-8c-3.3 0-6-2.7-6-6z" stroke="#000" stroke-opacity="0" stroke-width="3" fill="#fff" fill-opacity="0"/><use xlink:href="#g" transform="matrix(1,0,0,1,733.2321229788904,245) translate(1.9135802469135816 8.888888888888884)"/><path d="M698.23 186c0-3.3 2.7-6 6-6h68c3.32 0 6 2.7 6 6v8c0 3.3-2.68 6-6 6h-68c-3.3 0-6-2.7-6-6z" stroke="#000" stroke-opacity="0" stroke-width="3" fill="#fff" fill-opacity="0"/><use xlink:href="#h" transform="matrix(1,0,0,1,703.2321229788904,185) translate(17.716049382716058 8.361111111111107)"/><path d="M753.43 236c0-3.3 2.7-6 6-6h12.8c3.32 0 6 2.7 6 6v8c0 3.3-2.68 6-6 6h-12.8c-3.3 0-6-2.7-6-6z" stroke="#000" stroke-opacity="0" stroke-width="3" fill="#fff" fill-opacity="0"/><use xlink:href="#i" transform="matrix(1,0,0,1,758.4321229788438,235) translate(3.796296296296298 10.666666666666664)"/><defs><path fill="#333" d="M111-147c44 9 85 22 84 75-1 49-35 65-84 68v31H91V-4C40-5 12-27 5-72l45-8c4 24 15 38 41 40-2-22 4-51-2-69-39-10-76-22-76-72 0-47 35-60 78-63v-23h20v23c47 1 70 23 78 62l-46 7c-4-18-12-32-32-34v62zm-20-63c-33-4-45 46-13 54 4 1 8 2 13 4v-58zm20 170c39 5 53-51 15-60-7-2-7-2-15-4v64" id="j"/><path fill="#333" d="M139-81c0-46-55-55-73-27H18l9-140h149v37H72l-4 63c44-38 133-4 122 66C201 21 21 35 11-62l49-4c5 18 15 30 39 30 26 0 40-18 40-45" id="k"/><path fill="#333" d="M99-251c69 0 84 53 88 123 5 99-61 162-144 118-15-8-21-25-26-45l46-6c4 31 50 33 63 7 7-15 12-36 12-60-9 18-29 28-54 28-48 0-72-32-72-82 0-55 31-83 87-83zm-1 128c24 0 37-16 37-39 0-27-10-51-37-51-25 0-35 19-35 45 0 25 10 45 35 45" id="l"/><path fill="#333" d="M115-159c48 0 72 30 72 78 0 54-30 85-83 85-64 0-91-50-91-122 0-98 58-163 141-120 15 8 21 24 27 44l-47 6c-5-31-48-31-61-4-7 14-11 33-11 60 9-17 28-27 53-27zM102-35c24 0 36-20 36-45s-11-43-37-43c-23 0-36 14-36 38 0 27 11 50 37 50" id="m"/><path fill="#333" d="M101-251c68 0 84 54 84 127C185-50 166 4 99 4S15-52 14-124c-1-75 17-127 87-127zm-1 216c37-5 36-46 36-89s4-89-36-89c-39 0-36 45-36 89 0 43-3 85 36 89" id="n"/><path fill="#333" d="M76-54c-1 42 2 86-19 110H24C36 42 46 24 48 0H25v-54h51" id="o"/><path fill="#333" d="M138-131c27 9 52 24 51 61 0 53-36 74-89 74S11-19 11-69c0-35 22-54 51-61-78-25-46-121 38-121 51 0 83 19 83 66 0 30-18 49-45 54zm-38-16c24 0 32-13 32-36 1-23-11-34-32-34-22 0-33 12-32 34 0 22 9 36 32 36zm1 116c27 0 37-17 37-43 0-25-13-39-39-39-24 0-37 15-37 40 0 27 11 42 39 42" id="p"/><g id="a"><use transform="matrix(0.024691358024691343,0,0,0.024691358024691343,0,0)" xlink:href="#j"/><use transform="matrix(0.024691358024691343,0,0,0.024691358024691343,4.938271604938269,0)" xlink:href="#k"/><use transform="matrix(0.024691358024691343,0,0,0.024691358024691343,9.876543209876537,0)" xlink:href="#l"/><use transform="matrix(0.024691358024691343,0,0,0.024691358024691343,14.814814814814806,0)" xlink:href="#m"/><use transform="matrix(0.024691358024691343,0,0,0.024691358024691343,19.753086419753075,0)" xlink:href="#m"/><use transform="matrix(0.024691358024691343,0,0,0.024691358024691343,24.691358024691343,0)" xlink:href="#n"/><use transform="matrix(0.024691358024691343,0,0,0.024691358024691343,29.629629629629612,0)" xlink:href="#o"/><use transform="matrix(0.024691358024691343,0,0,0.024691358024691343,32.098765432098745,0)" xlink:href="#p"/><use transform="matrix(0.024691358024691343,0,0,0.024691358024691343,37.03703703703701,0)" xlink:href="#n"/></g><path fill="#333" d="M27 0v-27h64v-190l-56 39v-29l58-41h29v221h61V0H27" id="q"/><use transform="matrix(0.030864197530864182,0,0,0.030864197530864182,0,0)" xlink:href="#q" id="b"/><path fill="#333" d="M101-251c82-7 93 87 43 132L82-64C71-53 59-42 53-27h129V0H18c2-99 128-94 128-182 0-28-16-43-45-43s-46 15-49 41l-32-3c6-41 34-60 81-64" id="r"/><use transform="matrix(0.030864197530864182,0,0,0.030864197530864182,0,0)" xlink:href="#r" id="c"/><path fill="#333" d="M101-251c68 0 85 55 85 127S166 4 100 4C33 4 14-52 14-124c0-73 17-127 87-127zm-1 229c47 0 54-49 54-102s-4-102-53-102c-51 0-55 48-55 102 0 53 5 102 54 102" id="s"/><use transform="matrix(0.030864197530864182,0,0,0.030864197530864182,0,0)" xlink:href="#s" id="d"/><path fill="#333" d="M126-127c33 6 58 20 58 59 0 88-139 92-164 29-3-8-5-16-6-25l32-3c6 27 21 44 54 44 32 0 52-15 52-46 0-38-36-46-79-43v-28c39 1 72-4 72-42 0-27-17-43-46-43-28 0-47 15-49 41l-32-3c6-42 35-63 81-64 48-1 79 21 79 65 0 36-21 52-52 59" id="t"/><use transform="matrix(0.030864197530864182,0,0,0.030864197530864182,0,0)" xlink:href="#t" id="e"/><path fill="#333" d="M155-56V0h-30v-56H8v-25l114-167h33v167h35v25h-35zm-30-156c-27 46-58 90-88 131h88v-131" id="u"/><use transform="matrix(0.030864197530864182,0,0,0.030864197530864182,0,0)" xlink:href="#u" id="f"/><path fill="#333" d="M54-142c48-35 137-8 131 61C196 18 31 33 14-55l32-4c7 23 22 37 52 37 35-1 51-22 54-58 4-55-73-65-99-34H22l8-134h141v27H59" id="v"/><use transform="matrix(0.030864197530864182,0,0,0.030864197530864182,0,0)" xlink:href="#v" id="g"/><path fill="#333" d="M182-182c0 78-84 86-111 141h115V0H12c-6-101 99-100 120-180 1-22-12-31-33-32-23 0-32 14-35 34l-49-3c5-45 32-70 84-70 51 0 83 22 83 69" id="w"/><path fill="#333" d="M23 0v-37h61v-169l-59 37v-38l62-41h46v211h57V0H23" id="x"/><path fill="#333" d="M52 0c1-96 47-148 87-207H15v-41h169v40c-36 62-79 113-81 208H52" id="y"/><g id="h"><use transform="matrix(0.024691358024691343,0,0,0.024691358024691343,0,0)" xlink:href="#j"/><use transform="matrix(0.024691358024691343,0,0,0.024691358024691343,4.938271604938269,0)" xlink:href="#w"/><use transform="matrix(0.024691358024691343,0,0,0.024691358024691343,9.876543209876537,0)" xlink:href="#x"/><use transform="matrix(0.024691358024691343,0,0,0.024691358024691343,14.814814814814806,0)" xlink:href="#l"/><use transform="matrix(0.024691358024691343,0,0,0.024691358024691343,19.753086419753075,0)" xlink:href="#y"/><use transform="matrix(0.024691358024691343,0,0,0.024691358024691343,24.691358024691343,0)" xlink:href="#n"/><use transform="matrix(0.024691358024691343,0,0,0.024691358024691343,29.629629629629612,0)" xlink:href="#n"/></g><path fill="#333" d="M117-194c89-4 53 116 60 194h-32v-121c0-31-8-49-39-48C34-167 62-67 57 0H25l-1-190h30c1 10-1 24 2 32 11-22 29-35 61-36" id="z"/><use transform="matrix(0.03703703703703702,0,0,0.03703703703703702,0,0)" xlink:href="#z" id="i"/></defs></g></svg>