<?xml version="1.0" encoding="UTF-8" standalone="no"?>
<svg
   xmlns:lucid="lucid"
   xmlns:dc="http://purl.org/dc/elements/1.1/"
   xmlns:cc="http://creativecommons.org/ns#"
   xmlns:rdf="http://www.w3.org/1999/02/22-rdf-syntax-ns#"
   xmlns:svg="http://www.w3.org/2000/svg"
   xmlns="http://www.w3.org/2000/svg"
   xmlns:xlink="http://www.w3.org/1999/xlink"
   xmlns:sodipodi="http://sodipodi.sourceforge.net/DTD/sodipodi-0.dtd"
   xmlns:inkscape="http://www.inkscape.org/namespaces/inkscape"
   width="691.7832"
   height="599.77863"
   version="1.1"
   id="svg341"
   sodipodi:docname="capitulo6 ejercicico8.svg"
   inkscape:version="1.0.1 (3bc2e813f5, 2020-09-07)">
  <metadata
     id="metadata347">
    <rdf:RDF>
      <cc:Work
         rdf:about="">
        <dc:format>image/svg+xml</dc:format>
        <dc:type
           rdf:resource="http://purl.org/dc/dcmitype/StillImage" />
        <dc:title></dc:title>
      </cc:Work>
    </rdf:RDF>
  </metadata>
  <defs
     id="defs345">
    <clipPath
       clipPathUnits="userSpaceOnUse"
       id="clipPath1174">
      <rect
         style="fill:#0000ff;fill-rule:evenodd"
         id="rect1176"
         width="691.7832"
         height="599.77863"
         x="327.39999"
         y="140" />
    </clipPath>
  </defs>
  <sodipodi:namedview
     pagecolor="#ffffff"
     bordercolor="#666666"
     borderopacity="1"
     objecttolerance="10"
     gridtolerance="10"
     guidetolerance="10"
     inkscape:pageopacity="0"
     inkscape:pageshadow="2"
     inkscape:window-width="1366"
     inkscape:window-height="768"
     id="namedview343"
     showgrid="false"
     inkscape:zoom="0.22406436"
     inkscape:cx="827.26495"
     inkscape:cy="462.78937"
     inkscape:window-x="0"
     inkscape:window-y="0"
     inkscape:window-maximized="1"
     inkscape:current-layer="svg341" />
  <g
     transform="translate(-327.39999,-140)"
     lucid:page-tab-id="0_0"
     id="g339"
     clip-path="url(#clipPath1174)">
    <path
       d="M 0,0 H 1870.4 V 1323.2 H 0 Z"
       fill="#ffffff"
       id="path2" />
    <path
       d="M 395,320 H 981.5"
       stroke="#000000"
       stroke-width="2"
       fill="none"
       id="path4" />
    <path
       id="path6"
       d="" />
    <path
       d="m 996.76,320 -14.26,4.64 v -9.28 z"
       stroke="#000000"
       stroke-width="2"
       id="path8" />
    <path
       d="m 400,319 v -60.5 m 0,60.47 V 320"
       stroke="#000000"
       stroke-width="2"
       fill="none"
       id="path10" />
    <path
       d="m 400,243.24 4.64,14.26 h -9.28 z"
       stroke="#000000"
       stroke-width="2"
       id="path12" />
    <path
       d="m 500.02,321 1.03,68.5"
       stroke="#000000"
       stroke-width="2"
       fill="none"
       id="path14" />
    <path
       d="m 501.02,321 -2,0.04 L 499,320 h 2 z"
       id="path16" />
    <path
       d="m 501.28,404.76 -4.85,-14.2 9.27,-0.13 z"
       stroke="#000000"
       stroke-width="2"
       id="path18" />
    <path
       d="M 602,321 V 421.5"
       stroke="#000000"
       stroke-width="2"
       fill="none"
       id="path20" />
    <path
       d="m 603,321.03 h -2 V 320 h 2 z"
       id="path22" />
    <path
       d="m 602,436.76 -4.64,-14.26 h 9.28 z"
       stroke="#000000"
       stroke-width="2"
       id="path24" />
    <path
       d="m 703.33,321 v 78.66 c 0,0.2 0.15,0.34 0.34,0.34 0.2,0 0.34,0.15 0.34,0.34 v 61.16"
       stroke="#000000"
       stroke-width="2"
       fill="none"
       id="path26" />
    <path
       d="m 704.33,321.03 h -2 V 320 h 2 z"
       id="path28" />
    <path
       d="m 704,476.76 -4.62,-14.26 h 9.27 z"
       stroke="#000000"
       stroke-width="2"
       id="path30" />
    <path
       d="M 926,321 V 498.16"
       stroke="#000000"
       stroke-width="2"
       fill="none"
       id="path32" />
    <path
       d="m 927,321.03 h -2 V 320 h 2 z"
       id="path34" />
    <path
       d="m 926,513.43 -4.65,-14.27 h 9.27 z"
       stroke="#000000"
       stroke-width="2"
       id="path36" />
    <path
       d="m 583.33,286 c 0,-3.3 2.7,-6 6,-6 h 228 c 3.32,0 6,2.7 6,6 v 28 c 0,3.3 -2.68,6 -6,6 h -228 c -3.3,0 -6,-2.7 -6,-6 z M 450,266 c 0,-3.3 2.7,-6 6,-6 h 88 c 3.3,0 6,2.7 6,6 v 48 c 0,3.3 -2.7,6 -6,6 h -88 c -3.3,0 -6,-2.7 -6,-6 z"
       stroke="#000000"
       stroke-opacity="0"
       stroke-width="3"
       fill-opacity="0"
       id="path38" />
    <use
       xlink:href="#a"
       transform="translate(493.82716,295.27778)"
       id="use40"
       x="0"
       y="0"
       width="100%"
       height="100%" />
    <path
       d="m 543,266 c 0,-3.3 2.7,-6 6,-6 h 106 c 3.3,0 6,2.7 6,6 v 48 c 0,3.3 -2.7,6 -6,6 H 549 c -3.3,0 -6,-2.7 -6,-6 z"
       stroke="#000000"
       stroke-opacity="0"
       stroke-width="3"
       fill-opacity="0"
       id="path42" />
    <use
       xlink:href="#b"
       transform="translate(595.82716,295.27778)"
       id="use44"
       x="0"
       y="0"
       width="100%"
       height="100%" />
    <path
       d="m 876,266 c 0,-3.3 2.67,-6 6,-6 h 88 c 3.3,0 6,2.7 6,6 v 48 c 0,3.3 -2.7,6 -6,6 h -88 c -3.33,0 -6,-2.7 -6,-6 z"
       stroke="#000000"
       stroke-opacity="0"
       stroke-width="3"
       fill-opacity="0"
       id="path46" />
    <use
       xlink:href="#c"
       transform="translate(892.65432,295.27778)"
       id="use48"
       x="0"
       y="0"
       width="100%"
       height="100%" />
    <use
       xlink:href="#d"
       transform="translate(923.51852,295.27778)"
       id="use50"
       x="0"
       y="0"
       width="100%"
       height="100%" />
    <path
       d="m 666.67,266 c 0,-3.3 2.68,-6 6,-6 H 734 c 3.3,0 6,2.7 6,6 v 48 c 0,3.3 -2.7,6 -6,6 h -61.33 c -3.32,0 -6,-2.7 -6,-6 z"
       stroke="#000000"
       stroke-opacity="0"
       stroke-width="3"
       fill-opacity="0"
       id="path52" />
    <use
       xlink:href="#e"
       transform="translate(697.49333,295.27778)"
       id="use54"
       x="0"
       y="0"
       width="100%"
       height="100%" />
    <path
       d="m 280,386 c 0,-3.3 2.7,-6 6,-6 h 228 c 3.3,0 6,2.7 6,6 v 48 c 0,3.3 -2.7,6 -6,6 H 286 c -3.3,0 -6,-2.7 -6,-6 z m 240,173.33 c 0,-3.3 2.7,-6 6,-6 h 311.33 c 3.32,0 6,2.7 6,6 V 664 c 0,3.3 -2.68,6 -6,6 H 526 c -3.3,0 -6,-2.7 -6,-6 z"
       stroke="#000000"
       stroke-opacity="0"
       stroke-width="3"
       fill-opacity="0"
       id="path56" />
    <use
       xlink:href="#f"
       transform="translate(549.12963,576.11111)"
       id="use58"
       x="0"
       y="0"
       width="100%"
       height="100%" />
    <use
       xlink:href="#g"
       transform="translate(567.64815,576.11111)"
       id="use60"
       x="0"
       y="0"
       width="100%"
       height="100%" />
    <use
       xlink:href="#h"
       transform="translate(586.78395,576.11111)"
       id="use62"
       x="0"
       y="0"
       width="100%"
       height="100%" />
    <use
       xlink:href="#i"
       transform="translate(637.40123,576.11111)"
       id="use64"
       x="0"
       y="0"
       width="100%"
       height="100%" />
    <use
       xlink:href="#j"
       transform="translate(732.27778,576.11111)"
       id="use66"
       x="0"
       y="0"
       width="100%"
       height="100%" />
    <use
       xlink:href="#k"
       transform="translate(763.14198,576.11111)"
       id="use68"
       x="0"
       y="0"
       width="100%"
       height="100%" />
    <use
       xlink:href="#l"
       transform="translate(623.69753,602.77778)"
       id="use70"
       x="0"
       y="0"
       width="100%"
       height="100%" />
    <use
       xlink:href="#g"
       transform="translate(634.74691,602.77778)"
       id="use72"
       x="0"
       y="0"
       width="100%"
       height="100%" />
    <use
       xlink:href="#m"
       transform="translate(653.88272,602.77778)"
       id="use74"
       x="0"
       y="0"
       width="100%"
       height="100%" />
    <use
       xlink:href="#n"
       transform="translate(704.5,602.77778)"
       id="use76"
       x="0"
       y="0"
       width="100%"
       height="100%" />
    <use
       xlink:href="#o"
       transform="translate(629.83951,629.44444)"
       id="use78"
       x="0"
       y="0"
       width="100%"
       height="100%" />
    <use
       xlink:href="#g"
       transform="translate(648.35802,629.44444)"
       id="use80"
       x="0"
       y="0"
       width="100%"
       height="100%" />
    <use
       xlink:href="#p"
       transform="translate(667.49383,629.44444)"
       id="use82"
       x="0"
       y="0"
       width="100%"
       height="100%" />
    <use
       xlink:href="#n"
       transform="translate(698.35802,629.44444)"
       id="use84"
       x="0"
       y="0"
       width="100%"
       height="100%" />
    <use
       xlink:href="#q"
       transform="translate(682,656.11111)"
       id="use86"
       x="0"
       y="0"
       width="100%"
       height="100%" />
    <path
       d="m 380,406 c 0,-3.3 2.7,-6 6,-6 h 228 c 3.3,0 6,2.7 6,6 v 48 c 0,3.3 -2.7,6 -6,6 H 386 c -3.3,0 -6,-2.7 -6,-6 z"
       stroke="#000000"
       stroke-opacity="0"
       stroke-width="3"
       fill-opacity="0"
       id="path88" />
    <use
       xlink:href="#r"
       transform="translate(475.30864,435.27778)"
       id="use90"
       x="0"
       y="0"
       width="100%"
       height="100%" />
    <path
       d="m 556,440 h 92 v 36.67 h -92 z"
       fill-opacity="0"
       id="path92" />
    <use
       xlink:href="#s"
       transform="translate(568.06173,462.77778)"
       id="use94"
       x="0"
       y="0"
       width="100%"
       height="100%" />
    <path
       d="M 658.02,480 H 750 v 36.67 h -91.98 z"
       fill-opacity="0"
       id="path96" />
    <use
       xlink:href="#t"
       transform="translate(670.07407,502.77778)"
       id="use98"
       x="0"
       y="0"
       width="100%"
       height="100%" />
    <path
       d="m 880,516.67 h 91.98 v 36.66 H 880 Z"
       fill-opacity="0"
       id="path100" />
    <use
       xlink:href="#u"
       transform="translate(870.44444,539.44444)"
       id="use102"
       x="0"
       y="0"
       width="100%"
       height="100%" />
    <path
       d="m 320,266 c 0,-3.3 2.7,-6 6,-6 h 68 c 3.3,0 6,2.7 6,6 v 48 c 0,3.3 -2.7,6 -6,6 h -68 c -3.3,0 -6,-2.7 -6,-6 z"
       stroke="#000000"
       stroke-opacity="0"
       stroke-width="3"
       fill="#ffffff"
       fill-opacity="0"
       id="path104" />
    <use
       xlink:href="#v"
       transform="translate(354.04321,295.27778)"
       id="use106"
       x="0"
       y="0"
       width="100%"
       height="100%" />
    <path
       d="m 400,459 v -3.9 m 0,-7.82 v -7.82 m 0,-7.8 v -7.83 m 0,-7.8 v -7.83 m 0,-7.8 v -7.83 m 0,-7.8 v -7.83 m 0,-7.8 v -7.83 m 0,-7.8 v -7.8 m 0,-7.83 v -7.8 m 0,-7.83 v -7.8 m 0,-7.83 v -7.8 m 0,-7.82 v -7.8 m 0,-7.83 v -7.8 m 0,-7.83 v -7.8 m 0,-7.83 v -7.82 m 0,-7.82 v -7.8 m 0,-7.83 v -7.8 m 0,-7.83 v -7.8 m 0,-7.83 v -3.9"
       stroke="#5e5e5e"
       stroke-width="2"
       fill="none"
       id="path108" />
    <path
       d="m 401,460 h -2 v -1.03 h 2 z m 0,-282.3 h -2 v -1.03 h 2 z"
       fill="#5e5e5e"
       id="path110" />
    <path
       d="m 925.94,554.33 -0.12,2.26 -0.18,1.72 m -1.05,7.93 -0.04,0.2 -1.4,7.04 -0.15,0.6 m -1.93,7.76 -0.02,0.1 -2.27,7.57 m -2.58,7.57 -1.45,4.1 -1.37,3.4 m -3.1,7.37 -3.36,7.26 m -3.7,7.1 -0.46,0.85 -3.56,6.06 m -4.36,6.7 -3.42,4.72 -1.36,1.7 m -5.18,6.1 -0.03,0.03 -3,3.08 -1.85,1.76 -0.83,0.73 m -6,5.3 -5.98,5.3 m -6,5.3 -0.8,0.72 -5.38,4.36 m -6.2,5.05 -1,0.82 -5.4,4 m -6.5,4.68 -4.35,2.96 -2.32,1.44 m -6.88,4.1 -1.8,1 -4.6,2.35 -0.7,0.33 m -7.35,3.17 -0.26,0.1 -4.04,1.47 -3.27,1.02 m -7.74,2 -3.2,0.73 -4.64,0.82 m -7.9,1.3 -7.9,1.2 m -7.9,1.22 -7.73,1.18 -0.2,0.03 m -7.9,1.18 -0.23,0.04 -7.74,0.75 m -7.98,0.65 -8,0.36 m -8,0.37 -7.98,0.35 m -8,0.08 -8,0.04 m -8,0.03 -8,0.04 m -8,0.05 -8,0.04 m -8,-0.26 -8,-0.4 m -7.96,-0.67 -5.67,-1.1 -2.16,-0.54 m -7.75,-1.93 -1.75,-0.43 -6,-1.55 m -7.7,-2.2 -7.36,-3.1 m -7.38,-3.1 -4.9,-2.05 -2.4,-1.22 m -7.05,-3.8 -2.25,-1.25 -4.6,-2.84 m -6.73,-4.34 -6.08,-4.1 -0.54,-0.4 m -6.44,-4.74 -4.17,-3.07 -2.2,-1.76 m -6.25,-5.02 -4.13,-3.32 -2.03,-1.78 m -6.04,-5.27 -5.5,-4.8 -0.5,-0.5 m -5.8,-5.5 -5.8,-5.52 m -5.63,-5.68 -5.56,-5.75 m -5.5,-5.8 -5.33,-6 m -5.3,-5.97 -0.97,-1.07 -4.15,-5.08 m -5.07,-6.2 -2.56,-3.14 -2.38,-3.16 m -4.8,-6.4 -3.36,-4.5 -1.36,-1.96 m -4.52,-6.6 -3.4,-4.94 -1.06,-1.7 m -4.25,-6.8 -2.73,-4.35 -1.4,-2.48 m -3.97,-6.96 -1.56,-2.74 -2.2,-4.32 m -3.68,-7.1 -0.02,-0.06 -3.34,-7.2 m -3.2,-7.34 -2.7,-6.48 -0.33,-0.93 m -2.74,-7.52 -0.44,-1.17 -2.05,-6.43 m -2.2,-7.7 -1,-3.6 -0.94,-4.15 m -1.62,-7.83 -0.75,-4.05 -0.55,-3.85 m -0.94,-7.94 -0.27,-2.84 -0.07,-1.15"
       stroke="#3aa6dd"
       stroke-width="2"
       fill="none"
       id="path112" />
    <path
       d="m 926.93,554.4 -2,-0.1 0.06,-0.97 h 2 z"
       fill="#3aa6dd"
       id="path114" />
    <path
       d="m 400.05,443.24 4.83,14.2 -9.27,0.13 z"
       stroke="#3aa6dd"
       stroke-width="2"
       fill="#3aa6dd"
       id="path116" />
    <path
       d="m 400,266 c 0,-3.3 2.7,-6 6,-6 h 49 c 3.3,0 6,2.7 6,6 v 48 c 0,3.3 -2.7,6 -6,6 h -49 c -3.3,0 -6,-2.7 -6,-6 z"
       stroke="#000000"
       stroke-opacity="0"
       stroke-width="3"
       fill="#ffffff"
       fill-opacity="0"
       id="path118" />
    <g
       id="g122">
      <use
         xlink:href="#w"
         transform="translate(424.32716,295.27778)"
         id="use120"
         x="0"
         y="0"
         width="100%"
         height="100%" />
    </g>
    <path
       d="m 327.4,140 h 145.2 v 36.67 H 327.4 Z"
       fill="#ffffff"
       fill-opacity="0"
       id="path124" />
    <g
       id="g128">
      <use
         xlink:href="#x"
         transform="translate(366.76543,162.77778)"
         id="use126"
         x="0"
         y="0"
         width="100%"
         height="100%" />
    </g>
    <path
       d="m 502.3,408.25 422.72,108.17 m -422.69,-108.17 -3.9,-1"
       stroke="#3aa6dd"
       stroke-width="2"
       fill="none"
       id="path130" />
    <path
       d="m 929.14,516.44 -0.06,0.23 h -4.15 l 0.3,-1.23 z"
       fill="#3aa6dd"
       id="path132" />
    <path
       d="m 783.33,266 c 0,-3.3 2.7,-6 6,-6 h 48 c 3.32,0 6,2.7 6,6 v 48 c 0,3.3 -2.68,6 -6,6 h -48 c -3.3,0 -6,-2.7 -6,-6 z"
       stroke="#000000"
       stroke-opacity="0"
       stroke-width="3"
       fill="#ffffff"
       fill-opacity="0"
       id="path134" />
    <g
       id="g142">
      <use
         xlink:href="#y"
         transform="translate(797.90173,295.27778)"
         id="use136"
         x="0"
         y="0"
         width="100%"
         height="100%" />
      <use
         xlink:href="#z"
         transform="translate(810.24741,295.27778)"
         id="use138"
         x="0"
         y="0"
         width="100%"
         height="100%" />
      <use
         xlink:href="#A"
         transform="translate(822.59309,295.27778)"
         id="use140"
         x="0"
         y="0"
         width="100%"
         height="100%" />
    </g>
    <defs
       id="defs337">
      <path
         d="m 27,0 v -27 h 64 v -190 l -56,39 v -29 l 58,-41 h 29 v 221 h 61 V 0 H 27"
         id="B" />
      <use
         transform="scale(0.0617284)"
         xlink:href="#B"
         id="a"
         x="0"
         y="0"
         width="100%"
         height="100%" />
      <path
         d="m 101,-251 c 82,-7 93,87 43,132 L 82,-64 C 71,-53 59,-42 53,-27 H 182 V 0 H 18 c 2,-99 128,-94 128,-182 0,-28 -16,-43 -45,-43 -29,0 -46,15 -49,41 l -32,-3 c 6,-41 34,-60 81,-64"
         id="C" />
      <use
         transform="scale(0.0617284)"
         xlink:href="#C"
         id="b"
         x="0"
         y="0"
         width="100%"
         height="100%" />
      <path
         d="m 54,-142 c 48,-35 137,-8 131,61 C 196,18 31,33 14,-55 l 32,-4 c 7,23 22,37 52,37 35,-1 51,-22 54,-58 4,-55 -73,-65 -99,-34 H 22 l 8,-134 h 141 v 27 H 59"
         id="D" />
      <g
         id="c">
        <use
           transform="scale(0.0617284)"
           xlink:href="#B"
           id="use149"
           x="0"
           y="0"
           width="100%"
           height="100%" />
        <use
           transform="matrix(0.0617284,0,0,0.0617284,12.345679,0)"
           xlink:href="#D"
           id="use151"
           x="0"
           y="0"
           width="100%"
           height="100%" />
      </g>
      <path
         d="m 115,-194 c 55,1 70,41 70,98 C 185,-39 169,2 115,4 84,4 66,-9 55,-30 L 56,75 H 24 l -1,-265 h 31 l 2,30 c 10,-21 28,-34 59,-34 z m -8,174 c 40,0 45,-34 45,-75 0,-41 -6,-73 -45,-74 -42,0 -51,32 -51,76 0,43 10,73 51,73"
         id="E" />
      <path
         d="M 141,-36 C 126,-15 110,5 73,4 37,3 15,-17 15,-53 c -1,-64 63,-63 125,-63 3,-35 -9,-54 -41,-54 -24,1 -41,7 -42,31 l -33,-3 c 5,-37 33,-52 76,-52 45,0 72,20 72,64 v 82 c -1,20 7,32 28,27 V -1 C 169,8 139,-3 141,-36 Z M 48,-53 c 0,20 12,33 32,33 41,-3 63,-29 60,-74 -43,2 -92,-5 -92,41"
         id="F" />
      <path
         d="M 108,0 H 70 L 1,-190 h 34 l 54,165 56,-165 h 34"
         id="G" />
      <g
         id="d">
        <use
           transform="scale(0.0617284)"
           xlink:href="#E"
           id="use157"
           x="0"
           y="0"
           width="100%"
           height="100%" />
        <use
           transform="matrix(0.0617284,0,0,0.0617284,12.345679,0)"
           xlink:href="#F"
           id="use159"
           x="0"
           y="0"
           width="100%"
           height="100%" />
        <use
           transform="matrix(0.0617284,0,0,0.0617284,24.691358,0)"
           xlink:href="#G"
           id="use161"
           x="0"
           y="0"
           width="100%"
           height="100%" />
      </g>
      <path
         d="m 126,-127 c 33,6 58,20 58,59 0,88 -139,92 -164,29 -3,-8 -5,-16 -6,-25 l 32,-3 c 6,27 21,44 54,44 32,0 52,-15 52,-46 0,-38 -36,-46 -79,-43 v -28 c 39,1 72,-4 72,-42 0,-27 -17,-43 -46,-43 -28,0 -47,15 -49,41 l -32,-3 c 6,-42 35,-63 81,-64 48,-1 79,21 79,65 0,36 -21,52 -52,59"
         id="H" />
      <use
         transform="scale(0.0617284)"
         xlink:href="#H"
         id="e"
         x="0"
         y="0"
         width="100%"
         height="100%" />
      <path
         d="M 177,-190 C 167,-65 218,103 67,71 44,65 29,51 23,28 L 55,23 C 70,70 155,55 144,-5 V -35 C 133,-14 115,1 83,1 29,1 15,-40 15,-95 c 0,-56 16,-97 71,-98 29,-1 48,16 59,35 1,-10 0,-23 2,-32 z M 94,-22 c 36,0 50,-32 50,-73 0,-42 -14,-75 -50,-75 -39,0 -46,34 -46,75 0,41 6,73 46,73"
         id="I" />
      <use
         transform="scale(0.0617284)"
         xlink:href="#I"
         id="f"
         x="0"
         y="0"
         width="100%"
         height="100%" />
      <path
         d="m 18,-150 v -26 h 174 v 26 z m 0,90 v -26 h 174 v 26 H 18"
         id="J" />
      <use
         transform="scale(0.0617284)"
         xlink:href="#J"
         id="g"
         x="0"
         y="0"
         width="100%"
         height="100%" />
      <path
         d="m 252,-156 c 43,0 55,33 55,80 0,46 -13,78 -56,78 -42,0 -55,-33 -55,-78 0,-48 12,-80 56,-80 z M 93,0 H 65 l 162,-248 h 28 z M 13,-171 c -1,-47 13,-79 56,-79 43,0 55,33 55,79 0,46 -13,79 -55,79 -43,0 -56,-33 -56,-79 z m 238,154 c 28,0 30,-29 30,-59 0,-31 -1,-60 -29,-60 -29,0 -31,29 -31,60 0,29 2,59 30,59 z M 69,-112 c 27,0 28,-30 29,-59 0,-31 -1,-60 -29,-60 -29,0 -30,30 -30,60 0,30 2,59 30,59"
         id="K" />
      <g
         id="h">
        <use
           transform="scale(0.0617284)"
           xlink:href="#C"
           id="use171"
           x="0"
           y="0"
           width="100%"
           height="100%" />
        <use
           transform="matrix(0.0617284,0,0,0.0617284,12.345679,0)"
           xlink:href="#D"
           id="use173"
           x="0"
           y="0"
           width="100%"
           height="100%" />
        <use
           transform="matrix(0.0617284,0,0,0.0617284,24.691358,0)"
           xlink:href="#K"
           id="use175"
           x="0"
           y="0"
           width="100%"
           height="100%" />
      </g>
      <path
         d="M 114,-163 C 36,-179 61,-72 57,0 H 25 l -1,-190 h 30 c 1,12 -1,29 2,39 6,-27 23,-49 58,-41 v 29"
         id="L" />
      <path
         d="m 24,-231 v -30 h 32 v 30 z M 24,0 V -190 H 56 V 0 H 24"
         id="M" />
      <path
         d="m 96,-169 c -40,0 -48,33 -48,73 0,40 9,75 48,75 24,0 41,-14 43,-38 l 32,2 C 165,-20 140,4 97,4 38,4 21,-37 15,-95 c -10,-93 101,-131 147,-64 4,7 5,14 7,22 l -32,3 c -4,-21 -16,-35 -41,-35"
         id="N" />
      <path
         d="m 100,-194 c 62,-1 85,37 85,99 1,63 -27,99 -86,99 -59,0 -83,-39 -84,-99 0,-66 28,-99 85,-99 z m -1,174 c 44,1 53,-31 53,-75 0,-43 -8,-75 -51,-75 -43,0 -53,32 -53,75 0,43 10,74 51,75 z M 76,-211 c 8,-23 27,-35 38,-54 h 36 v 5 l -58,49 H 76"
         id="O" />
      <path
         d="m 117,-194 c 89,-4 53,116 60,194 h -32 v -121 c 0,-31 -8,-49 -39,-48 C 34,-167 62,-67 57,0 H 25 l -1,-190 h 30 c 1,10 -1,24 2,32 11,-22 29,-35 61,-36"
         id="P" />
      <g
         id="i">
        <use
           transform="scale(0.0617284)"
           xlink:href="#G"
           id="use183"
           x="0"
           y="0"
           width="100%"
           height="100%" />
        <use
           transform="matrix(0.0617284,0,0,0.0617284,11.111111,0)"
           xlink:href="#F"
           id="use185"
           x="0"
           y="0"
           width="100%"
           height="100%" />
        <use
           transform="matrix(0.0617284,0,0,0.0617284,23.45679,0)"
           xlink:href="#L"
           id="use187"
           x="0"
           y="0"
           width="100%"
           height="100%" />
        <use
           transform="matrix(0.0617284,0,0,0.0617284,30.802469,0)"
           xlink:href="#M"
           id="use189"
           x="0"
           y="0"
           width="100%"
           height="100%" />
        <use
           transform="matrix(0.0617284,0,0,0.0617284,35.679012,0)"
           xlink:href="#F"
           id="use191"
           x="0"
           y="0"
           width="100%"
           height="100%" />
        <use
           transform="matrix(0.0617284,0,0,0.0617284,48.024691,0)"
           xlink:href="#N"
           id="use193"
           x="0"
           y="0"
           width="100%"
           height="100%" />
        <use
           transform="matrix(0.0617284,0,0,0.0617284,59.135802,0)"
           xlink:href="#M"
           id="use195"
           x="0"
           y="0"
           width="100%"
           height="100%" />
        <use
           transform="matrix(0.0617284,0,0,0.0617284,64.012346,0)"
           xlink:href="#O"
           id="use197"
           x="0"
           y="0"
           width="100%"
           height="100%" />
        <use
           transform="matrix(0.0617284,0,0,0.0617284,76.358025,0)"
           xlink:href="#P"
           id="use199"
           x="0"
           y="0"
           width="100%"
           height="100%" />
      </g>
      <path
         d="m 85,-194 c 31,0 48,13 60,33 l -1,-100 h 32 l 1,261 h -30 c -2,-10 0,-23 -3,-31 C 134,-8 116,4 85,4 32,4 16,-35 15,-94 c 0,-66 23,-100 70,-100 z m 9,24 c -40,0 -46,34 -46,75 0,40 6,74 45,74 42,0 51,-32 51,-76 0,-42 -9,-74 -50,-73"
         id="Q" />
      <path
         d="m 100,-194 c 63,0 86,42 84,106 H 49 c 0,40 14,67 53,68 26,1 43,-12 49,-29 l 28,8 C 168,-13 142,4 102,4 44,4 14,-33 15,-96 c 1,-61 26,-98 85,-98 z m 52,81 c 6,-60 -76,-77 -97,-28 -3,7 -6,17 -6,28 h 103"
         id="R" />
      <g
         id="j">
        <use
           transform="scale(0.0617284)"
           xlink:href="#Q"
           id="use204"
           x="0"
           y="0"
           width="100%"
           height="100%" />
        <use
           transform="matrix(0.0617284,0,0,0.0617284,12.345679,0)"
           xlink:href="#R"
           id="use206"
           x="0"
           y="0"
           width="100%"
           height="100%" />
      </g>
      <path
         d="m 101,-234 c -31,-9 -42,10 -38,44 h 38 v 23 H 63 V 0 H 32 V -167 H 5 v -23 h 27 c -7,-52 17,-82 69,-68 v 24"
         id="S" />
      <path
         d="M 24,0 V -261 H 56 V 0 H 24"
         id="T" />
      <path
         d="M 84,4 C -5,8 30,-112 23,-190 h 32 v 120 c 0,31 7,50 39,49 72,-2 45,-101 50,-169 h 31 l 1,190 h -30 c -1,-10 1,-25 -2,-33 -11,22 -28,36 -60,37"
         id="U" />
      <path
         d="m 24,-231 v -30 h 32 v 30 z M -9,49 C 15,53 24,43 24,19 V -190 H 56 V 24 C 58,64 33,82 -9,73 V 49"
         id="V" />
      <path
         d="m 100,-194 c 62,-1 85,37 85,99 1,63 -27,99 -86,99 -59,0 -83,-39 -84,-99 0,-66 28,-99 85,-99 z m -1,174 c 44,1 53,-31 53,-75 0,-43 -8,-75 -51,-75 -43,0 -53,32 -53,75 0,43 10,74 51,75"
         id="W" />
      <path
         d="m 135,-143 c -3,-34 -86,-38 -87,0 15,53 115,12 119,90 4,78 -150,74 -157,8 l 28,-5 c 4,36 97,45 98,0 -10,-56 -113,-15 -118,-90 -4,-57 82,-63 122,-42 12,7 21,19 24,35"
         id="X" />
      <g
         id="k">
        <use
           transform="scale(0.0617284)"
           xlink:href="#S"
           id="use215"
           x="0"
           y="0"
           width="100%"
           height="100%" />
        <use
           transform="matrix(0.0617284,0,0,0.0617284,6.1728395,0)"
           xlink:href="#T"
           id="use217"
           x="0"
           y="0"
           width="100%"
           height="100%" />
        <use
           transform="matrix(0.0617284,0,0,0.0617284,11.049383,0)"
           xlink:href="#U"
           id="use219"
           x="0"
           y="0"
           width="100%"
           height="100%" />
        <use
           transform="matrix(0.0617284,0,0,0.0617284,23.395062,0)"
           xlink:href="#V"
           id="use221"
           x="0"
           y="0"
           width="100%"
           height="100%" />
        <use
           transform="matrix(0.0617284,0,0,0.0617284,28.271605,0)"
           xlink:href="#W"
           id="use223"
           x="0"
           y="0"
           width="100%"
           height="100%" />
        <use
           transform="matrix(0.0617284,0,0,0.0617284,40.617284,0)"
           xlink:href="#X"
           id="use225"
           x="0"
           y="0"
           width="100%"
           height="100%" />
      </g>
      <use
         transform="scale(0.0617284)"
         xlink:href="#M"
         id="l"
         x="0"
         y="0"
         width="100%"
         height="100%" />
      <path
         d="m 101,-251 c 68,0 85,55 85,127 0,72 -20,128 -86,128 -67,0 -86,-56 -86,-128 0,-73 17,-127 87,-127 z m -1,229 c 47,0 54,-49 54,-102 0,-53 -4,-102 -53,-102 -51,0 -55,48 -55,102 0,53 5,102 54,102"
         id="Y" />
      <g
         id="m">
        <use
           transform="scale(0.0617284)"
           xlink:href="#C"
           id="use230"
           x="0"
           y="0"
           width="100%"
           height="100%" />
        <use
           transform="matrix(0.0617284,0,0,0.0617284,12.345679,0)"
           xlink:href="#Y"
           id="use232"
           x="0"
           y="0"
           width="100%"
           height="100%" />
        <use
           transform="matrix(0.0617284,0,0,0.0617284,24.691358,0)"
           xlink:href="#K"
           id="use234"
           x="0"
           y="0"
           width="100%"
           height="100%" />
      </g>
      <g
         id="n">
        <use
           transform="scale(0.0617284)"
           xlink:href="#E"
           id="use237"
           x="0"
           y="0"
           width="100%"
           height="100%" />
        <use
           transform="matrix(0.0617284,0,0,0.0617284,12.345679,0)"
           xlink:href="#F"
           id="use239"
           x="0"
           y="0"
           width="100%"
           height="100%" />
        <use
           transform="matrix(0.0617284,0,0,0.0617284,24.691358,0)"
           xlink:href="#G"
           id="use241"
           x="0"
           y="0"
           width="100%"
           height="100%" />
      </g>
      <use
         transform="scale(0.0617284)"
         xlink:href="#P"
         id="o"
         x="0"
         y="0"
         width="100%"
         height="100%" />
      <g
         id="p">
        <use
           transform="scale(0.0617284)"
           xlink:href="#B"
           id="use245"
           x="0"
           y="0"
           width="100%"
           height="100%" />
        <use
           transform="matrix(0.0617284,0,0,0.0617284,12.345679,0)"
           xlink:href="#D"
           id="use247"
           x="0"
           y="0"
           width="100%"
           height="100%" />
      </g>
      <path
         d="m 194,-70 c 0,46 -34,64 -81,66 V 25 H 91 V -4 C 42,-5 12,-27 4,-67 l 30,-6 c 5,28 25,41 57,43 v -87 c -38,-9 -76,-20 -76,-67 1,-42 33,-58 76,-59 v -23 h 22 v 23 c 45,0 67,20 76,56 l -31,6 c -5,-23 -18,-35 -45,-37 v 78 c 41,10 81,20 81,70 z m -81,41 c 51,7 71,-66 19,-77 -6,-2 -12,-4 -19,-6 z M 91,-219 c -47,-6 -63,57 -18,69 6,2 12,3 18,5 v -74"
         id="Z" />
      <path
         d="m 134,-131 c 28,9 52,24 51,62 -1,50 -34,73 -85,73 -51,0 -83,-23 -84,-73 0,-36 21,-54 49,-61 -75,-25 -45,-126 34,-121 46,3 78,18 79,63 0,33 -17,51 -44,57 z m -34,-11 c 31,1 46,-15 46,-44 0,-28 -17,-43 -47,-42 -29,0 -46,13 -45,42 1,28 16,44 46,44 z m 1,122 c 35,0 51,-18 51,-52 0,-30 -18,-46 -53,-46 -33,0 -51,17 -51,47 0,34 19,51 53,51"
         id="aa" />
      <g
         id="r">
        <use
           transform="scale(0.0617284)"
           xlink:href="#Z"
           id="use252"
           x="0"
           y="0"
           width="100%"
           height="100%" />
        <use
           transform="matrix(0.0617284,0,0,0.0617284,12.345679,0)"
           xlink:href="#aa"
           id="use254"
           x="0"
           y="0"
           width="100%"
           height="100%" />
        <use
           transform="matrix(0.0617284,0,0,0.0617284,24.691358,0)"
           xlink:href="#Y"
           id="use256"
           x="0"
           y="0"
           width="100%"
           height="100%" />
        <use
           transform="matrix(0.0617284,0,0,0.0617284,37.037037,0)"
           xlink:href="#Y"
           id="use258"
           x="0"
           y="0"
           width="100%"
           height="100%" />
      </g>
      <path
         d="M 33,0 V -38 H 67 V 0 H 33"
         id="ab" />
      <g
         id="s">
        <use
           transform="scale(0.0617284)"
           xlink:href="#Z"
           id="use262"
           x="0"
           y="0"
           width="100%"
           height="100%" />
        <use
           transform="matrix(0.0617284,0,0,0.0617284,12.345679,0)"
           xlink:href="#B"
           id="use264"
           x="0"
           y="0"
           width="100%"
           height="100%" />
        <use
           transform="matrix(0.0617284,0,0,0.0617284,24.691358,0)"
           xlink:href="#ab"
           id="use266"
           x="0"
           y="0"
           width="100%"
           height="100%" />
        <use
           transform="matrix(0.0617284,0,0,0.0617284,30.864198,0)"
           xlink:href="#Y"
           id="use268"
           x="0"
           y="0"
           width="100%"
           height="100%" />
        <use
           transform="matrix(0.0617284,0,0,0.0617284,43.209877,0)"
           xlink:href="#Y"
           id="use270"
           x="0"
           y="0"
           width="100%"
           height="100%" />
        <use
           transform="matrix(0.0617284,0,0,0.0617284,55.555556,0)"
           xlink:href="#Y"
           id="use272"
           x="0"
           y="0"
           width="100%"
           height="100%" />
      </g>
      <g
         id="t">
        <use
           transform="scale(0.0617284)"
           xlink:href="#Z"
           id="use275"
           x="0"
           y="0"
           width="100%"
           height="100%" />
        <use
           transform="matrix(0.0617284,0,0,0.0617284,12.345679,0)"
           xlink:href="#B"
           id="use277"
           x="0"
           y="0"
           width="100%"
           height="100%" />
        <use
           transform="matrix(0.0617284,0,0,0.0617284,24.691358,0)"
           xlink:href="#ab"
           id="use279"
           x="0"
           y="0"
           width="100%"
           height="100%" />
        <use
           transform="matrix(0.0617284,0,0,0.0617284,30.864198,0)"
           xlink:href="#C"
           id="use281"
           x="0"
           y="0"
           width="100%"
           height="100%" />
        <use
           transform="matrix(0.0617284,0,0,0.0617284,43.209877,0)"
           xlink:href="#D"
           id="use283"
           x="0"
           y="0"
           width="100%"
           height="100%" />
        <use
           transform="matrix(0.0617284,0,0,0.0617284,55.555556,0)"
           xlink:href="#Y"
           id="use285"
           x="0"
           y="0"
           width="100%"
           height="100%" />
      </g>
      <path
         d="m 99,-251 c 64,0 84,50 84,122 C 183,-37 130,33 47,-8 33,-15 27,-31 22,-48 l 30,-5 c 6,39 69,39 84,7 9,-19 16,-44 16,-74 -10,22 -31,35 -62,35 -49,0 -73,-33 -73,-83 0,-54 28,-83 82,-83 z m -1,141 c 31,-1 51,-18 51,-49 0,-36 -14,-67 -51,-67 -34,0 -49,23 -49,58 0,34 15,58 49,58"
         id="ac" />
      <path
         d="m 68,-38 c 1,34 0,65 -14,84 H 32 C 41,33 49,20 49,0 H 33 v -38 h 35"
         id="ad" />
      <g
         id="u">
        <use
           transform="scale(0.0617284)"
           xlink:href="#Z"
           id="use290"
           x="0"
           y="0"
           width="100%"
           height="100%" />
        <use
           transform="matrix(0.0617284,0,0,0.0617284,12.345679,0)"
           xlink:href="#B"
           id="use292"
           x="0"
           y="0"
           width="100%"
           height="100%" />
        <use
           transform="matrix(0.0617284,0,0,0.0617284,24.691358,0)"
           xlink:href="#aa"
           id="use294"
           x="0"
           y="0"
           width="100%"
           height="100%" />
        <use
           transform="matrix(0.0617284,0,0,0.0617284,37.037037,0)"
           xlink:href="#ab"
           id="use296"
           x="0"
           y="0"
           width="100%"
           height="100%" />
        <use
           transform="matrix(0.0617284,0,0,0.0617284,43.209877,0)"
           xlink:href="#B"
           id="use298"
           x="0"
           y="0"
           width="100%"
           height="100%" />
        <use
           transform="matrix(0.0617284,0,0,0.0617284,55.555556,0)"
           xlink:href="#aa"
           id="use300"
           x="0"
           y="0"
           width="100%"
           height="100%" />
        <use
           transform="matrix(0.0617284,0,0,0.0617284,67.901235,0)"
           xlink:href="#ac"
           id="use302"
           x="0"
           y="0"
           width="100%"
           height="100%" />
        <use
           transform="matrix(0.0617284,0,0,0.0617284,80.246914,0)"
           xlink:href="#ad"
           id="use304"
           x="0"
           y="0"
           width="100%"
           height="100%" />
        <use
           transform="matrix(0.0617284,0,0,0.0617284,86.419753,0)"
           xlink:href="#ac"
           id="use306"
           x="0"
           y="0"
           width="100%"
           height="100%" />
        <use
           transform="matrix(0.0617284,0,0,0.0617284,98.765432,0)"
           xlink:href="#Y"
           id="use308"
           x="0"
           y="0"
           width="100%"
           height="100%" />
      </g>
      <path
         fill="#333333"
         d="m 101,-234 c -31,-9 -42,10 -38,44 h 38 v 23 H 63 V 0 H 32 V -167 H 5 v -23 h 27 c -7,-52 17,-82 69,-68 v 24"
         id="ae" />
      <g
         id="v">
        <use
           transform="scale(0.0617284)"
           xlink:href="#ae"
           id="use312"
           x="0"
           y="0"
           width="100%"
           height="100%" />
        <use
           transform="matrix(0.0617284,0,0,0.0617284,5.7407407,0)"
           xlink:href="#ae"
           id="use314"
           x="0"
           y="0"
           width="100%"
           height="100%" />
      </g>
      <path
         fill="#333333"
         d="m 101,-251 c 68,0 85,55 85,127 0,72 -20,128 -86,128 -67,0 -86,-56 -86,-128 0,-73 17,-127 87,-127 z m -1,229 c 47,0 54,-49 54,-102 0,-53 -4,-102 -53,-102 -51,0 -55,48 -55,102 0,53 5,102 54,102"
         id="af" />
      <use
         transform="scale(0.0617284)"
         xlink:href="#af"
         id="w"
         x="0"
         y="0"
         width="100%"
         height="100%" />
      <path
         d="M 137,0 H 103 L 2,-248 h 35 l 83,218 83,-218 h 36"
         id="ag" />
      <path
         d="m 30,-248 c 87,1 191,-15 191,75 0,78 -77,80 -158,76 V 0 H 30 Z m 33,125 c 57,0 124,11 124,-50 0,-59 -68,-47 -124,-48 v 98"
         id="ah" />
      <path
         d="m 103,-251 c 84,0 111,97 45,133 -19,10 -37,24 -39,52 H 78 c 0,-63 77,-55 77,-114 0,-30 -21,-42 -52,-43 -32,0 -53,17 -56,46 l -32,-2 c 7,-45 34,-72 88,-72 z M 77,0 v -35 h 34 V 0 H 77"
         id="ai" />
      <g
         id="x">
        <use
           transform="scale(0.0617284)"
           xlink:href="#ag"
           id="use322"
           x="0"
           y="0"
           width="100%"
           height="100%" />
        <use
           transform="matrix(0.0617284,0,0,0.0617284,14.814815,0)"
           xlink:href="#ah"
           id="use324"
           x="0"
           y="0"
           width="100%"
           height="100%" />
        <use
           transform="matrix(0.0617284,0,0,0.0617284,29.62963,0)"
           xlink:href="#J"
           id="use326"
           x="0"
           y="0"
           width="100%"
           height="100%" />
        <use
           transform="matrix(0.0617284,0,0,0.0617284,42.592593,0)"
           xlink:href="#Z"
           id="use328"
           x="0"
           y="0"
           width="100%"
           height="100%" />
        <use
           transform="matrix(0.0617284,0,0,0.0617284,54.938272,0)"
           xlink:href="#ai"
           id="use330"
           x="0"
           y="0"
           width="100%"
           height="100%" />
      </g>
      <path
         d="M 24,0 V -54 H 75 V 0 H 24"
         id="aj" />
      <use
         transform="scale(0.0617284)"
         xlink:href="#aj"
         id="y"
         x="0"
         y="0"
         width="100%"
         height="100%" />
      <use
         transform="scale(0.0617284)"
         xlink:href="#aj"
         id="z"
         x="0"
         y="0"
         width="100%"
         height="100%" />
      <use
         transform="scale(0.0617284)"
         xlink:href="#aj"
         id="A"
         x="0"
         y="0"
         width="100%"
         height="100%" />
    </defs>
  </g>
</svg>
