<svg xmlns="http://www.w3.org/2000/svg" xmlns:xlink="http://www.w3.org/1999/xlink" xmlns:lucid="lucid" width="717.83" height="400"><g transform="translate(-185.9758454106277 -56.666666666666686)" lucid:page-tab-id="0_0"><path d="M0 0h1870.4v1323.2H0z" fill="#fff"/><path d="M256.25 296.67h548.73" stroke="#5e5e5e" stroke-width="2" fill="none"/><path d="M256.28 296.67h-4.03v-1h4.03zM808.98 296.67h-4.03v-1h4.03z" fill="#5e5e5e"/><path d="M432.96 162.67c0-3.32 2.68-6 6-6H545.5c3.32 0 6 2.68 6 6v28c0 3.3-2.68 6-6 6H438.97c-3.32 0-6-2.7-6-6z" stroke="#000" stroke-opacity="0" stroke-width="3" fill="#fff" fill-opacity="0"/><use xlink:href="#a" transform="matrix(1,0,0,1,437.9554715395907,161.66666666666669) translate(8.203703703703695 19.65277777777778)"/><path d="M510.77 215.17v80.5" stroke="#0c7cba" stroke-width="2" fill="none"/><path d="M510.77 199.9l4.64 14.27h-9.26z" stroke="#0c7cba" stroke-width="2" fill="#0c7cba"/><path d="M511.77 296.67h-2v-1.03h2z" fill="#0c7cba"/><path d="M365.25 215.17v80.5" stroke="#0c7cba" stroke-width="2" fill="none"/><path d="M365.25 199.9l4.64 14.27h-9.28z" stroke="#0c7cba" stroke-width="2" fill="#0c7cba"/><path d="M366.25 296.67h-2v-1.03h2z" fill="#0c7cba"/><path d="M305.98 162.67c0-3.32 2.68-6 6-6h106.55c3.3 0 6 2.68 6 6v28c0 3.3-2.7 6-6 6H311.98c-3.32 0-6-2.7-6-6z" stroke="#000" stroke-opacity="0" stroke-width="3" fill="#fff" fill-opacity="0"/><use xlink:href="#a" transform="matrix(1,0,0,1,310.9758454106259,161.66666666666669) translate(8.203703703703695 19.65277777777778)"/><path d="M585.98 162.67c0-3.32 2.68-6 6-6h106.55c3.3 0 6 2.68 6 6v28c0 3.3-2.7 6-6 6H591.98c-3.32 0-6-2.7-6-6z" stroke="#000" stroke-opacity="0" stroke-width="3" fill="#fff" fill-opacity="0"/><use xlink:href="#a" transform="matrix(1,0,0,1,590.9758454106259,161.66666666666669) translate(8.203703703703695 19.65277777777778)"/><path d="M746.7 162.67c0-3.32 2.7-6 6-6h106.55c3.3 0 6 2.68 6 6v28c0 3.3-2.7 6-6 6H752.7c-3.3 0-6-2.7-6-6z" stroke="#000" stroke-opacity="0" stroke-width="3" fill="#fff" fill-opacity="0"/><use xlink:href="#a" transform="matrix(1,0,0,1,751.7004830917858,161.66666666666669) translate(8.203703703703695 19.65277777777778)"/><path d="M746.7 82.67c0-3.32 2.7-6 6-6h106.55c3.3 0 6 2.68 6 6v28c0 3.3-2.7 6-6 6H752.7c-3.3 0-6-2.7-6-6z" stroke="#000" stroke-opacity="0" stroke-width="3" fill="#fff" fill-opacity="0"/><use xlink:href="#b" transform="matrix(1,0,0,1,751.7004830917858,81.66666666666669) translate(-1.0555555555555216 19.444444444444443)"/><path d="M648.53 215.17v80.5" stroke="#0c7cba" stroke-width="2" fill="none"/><path d="M648.53 199.9l4.64 14.27h-9.27z" stroke="#0c7cba" stroke-width="2" fill="#0c7cba"/><path d="M649.53 296.67h-2v-1.03h2z" fill="#0c7cba"/><path d="M205.98 402.67c0-3.32 2.68-6 6-6h106.55c3.3 0 6 2.68 6 6v28c0 3.3-2.7 6-6 6H211.98c-3.32 0-6-2.7-6-6z" stroke="#000" stroke-opacity="0" stroke-width="3" fill="#fff" fill-opacity="0"/><use xlink:href="#c" transform="matrix(1,0,0,1,210.9758454106277,401.6666666666667) translate(-1.0555555555555216 19.444444444444443)"/><path d="M255.25 378.16v-40.5" stroke="#7ab648" stroke-width="2" fill="none"/><path d="M255.25 393.43l-4.63-14.27h9.27z" stroke="#7ab648" stroke-width="2" fill="#7ab648"/><path d="M256.25 337.7h-2v-1.03h2z" fill="#7ab648"/><path d="M245.98 302.67c0-3.32 2.68-6 6-6h6.55c3.3 0 6 2.68 6 6v28c0 3.3-2.7 6-6 6h-6.55c-3.32 0-6-2.7-6-6z" stroke="#000" stroke-opacity="0" stroke-width="3" fill="#fff" fill-opacity="0"/><use xlink:href="#d" transform="matrix(1,0,0,1,250.9758454106277,301.6666666666667) translate(-1.6728395061728367 19.444444444444443)"/><path d="M355.98 302.67c0-3.32 2.68-6 6-6h6.55c3.3 0 6 2.68 6 6v28c0 3.3-2.7 6-6 6h-6.55c-3.32 0-6-2.7-6-6z" stroke="#000" stroke-opacity="0" stroke-width="3" fill="#fff" fill-opacity="0"/><use xlink:href="#e" transform="matrix(1,0,0,1,360.9758454106277,301.6666666666667) translate(-1.6728395061728367 19.444444444444443)"/><path d="M501.5 302.67c0-3.32 2.68-6 6-6h6.55c3.3 0 6 2.68 6 6v28c0 3.3-2.7 6-6 6h-6.55c-3.32 0-6-2.7-6-6z" stroke="#000" stroke-opacity="0" stroke-width="3" fill="#fff" fill-opacity="0"/><use xlink:href="#f" transform="matrix(1,0,0,1,506.4966015325672,301.6666666666667) translate(-1.6728395061728367 19.444444444444443)"/><path d="M639.26 302.67c0-3.32 2.68-6 6-6h6.55c3.32 0 6 2.68 6 6v28c0 3.3-2.68 6-6 6h-6.54c-3.32 0-6-2.7-6-6z" stroke="#000" stroke-opacity="0" stroke-width="3" fill="#fff" fill-opacity="0"/><use xlink:href="#g" transform="matrix(1,0,0,1,644.2574795935352,301.6666666666667) translate(-1.6728395061728367 19.444444444444443)"/><path d="M796.7 302.67c0-3.32 2.7-6 6-6h6.55c3.3 0 6 2.68 6 6v28c0 3.3-2.7 6-6 6h-6.55c-3.3 0-6-2.7-6-6z" stroke="#000" stroke-opacity="0" stroke-width="3" fill="#fff" fill-opacity="0"/><use xlink:href="#h" transform="matrix(1,0,0,1,801.7004830917876,301.6666666666667) translate(-7.845679012345673 19.444444444444443)"/><path d="M806.7 215.17v80.5" stroke="#0c7cba" stroke-width="2" fill="none"/><path d="M806.7 199.9l4.64 14.27h-9.27z" stroke="#0c7cba" stroke-width="2" fill="#0c7cba"/><path d="M807.7 296.67h-2v-1.03h2z" fill="#0c7cba"/><path d="M865.25 302.67c0-3.32 2.7-6 6-6h6.55c3.32 0 6 2.68 6 6v28c0 3.3-2.68 6-6 6h-6.55c-3.3 0-6-2.7-6-6z" stroke="#000" stroke-opacity="0" stroke-width="3" fill="#fff" fill-opacity="0"/><use xlink:href="#i" transform="matrix(1,0,0,1,870.2512077294687,301.6666666666667) translate(-1.6728395061728367 19.444444444444443)"/><path d="M665.98 302.67c0-3.32 2.68-6 6-6h108c3.3 0 6 2.68 6 6v8c0 3.3-2.7 6-6 6h-108c-3.32 0-6-2.7-6-6z" stroke="#000" stroke-opacity="0" stroke-width="3" fill="#fff" fill-opacity="0"/><use xlink:href="#j" transform="matrix(1,0,0,1,670.9758454106277,301.6666666666667) translate(8.70370370370373 17.77777777777777)"/><defs><path fill="#333" d="M194-70c0 46-34 64-81 66v29H91V-4C42-5 12-27 4-67l30-6c5 28 25 41 57 43v-87c-38-9-76-20-76-67 1-42 33-58 76-59v-23h22v23c45 0 67 20 76 56l-31 6c-5-23-18-35-45-37v78c41 10 81 20 81 70zm-81 41c51 7 71-66 19-77-6-2-12-4-19-6v83zM91-219c-47-6-63 57-18 69 6 2 12 3 18 5v-74" id="k"/><path fill="#333" d="M101-251c82-7 93 87 43 132L82-64C71-53 59-42 53-27h129V0H18c2-99 128-94 128-182 0-28-16-43-45-43s-46 15-49 41l-32-3c6-41 34-60 81-64" id="l"/><path fill="#333" d="M101-251c68 0 85 55 85 127S166 4 100 4C33 4 14-52 14-124c0-73 17-127 87-127zm-1 229c47 0 54-49 54-102s-4-102-53-102c-51 0-55 48-55 102 0 53 5 102 54 102" id="m"/><path fill="#333" d="M33 0v-38h34V0H33" id="n"/><g id="a"><use transform="matrix(0.06172839506172839,0,0,0.06172839506172839,0,0)" xlink:href="#k"/><use transform="matrix(0.06172839506172839,0,0,0.06172839506172839,12.345679012345679,0)" xlink:href="#l"/><use transform="matrix(0.06172839506172839,0,0,0.06172839506172839,24.691358024691358,0)" xlink:href="#m"/><use transform="matrix(0.06172839506172839,0,0,0.06172839506172839,37.03703703703704,0)" xlink:href="#m"/><use transform="matrix(0.06172839506172839,0,0,0.06172839506172839,49.382716049382715,0)" xlink:href="#n"/><use transform="matrix(0.06172839506172839,0,0,0.06172839506172839,55.55555555555556,0)" xlink:href="#m"/><use transform="matrix(0.06172839506172839,0,0,0.06172839506172839,67.90123456790124,0)" xlink:href="#m"/><use transform="matrix(0.06172839506172839,0,0,0.06172839506172839,80.24691358024693,0)" xlink:href="#m"/></g><path fill="#333" d="M126-127c33 6 58 20 58 59 0 88-139 92-164 29-3-8-5-16-6-25l32-3c6 27 21 44 54 44 32 0 52-15 52-46 0-38-36-46-79-43v-28c39 1 72-4 72-42 0-27-17-43-46-43-28 0-47 15-49 41l-32-3c6-42 35-63 81-64 48-1 79 21 79 65 0 36-21 52-52 59" id="o"/><g id="b"><use transform="matrix(0.06172839506172837,0,0,0.06172839506172837,0,0)" xlink:href="#k"/><use transform="matrix(0.06172839506172837,0,0,0.06172839506172837,12.345679012345673,0)" xlink:href="#o"/><use transform="matrix(0.06172839506172837,0,0,0.06172839506172837,24.691358024691347,0)" xlink:href="#n"/><use transform="matrix(0.06172839506172837,0,0,0.06172839506172837,30.864197530864182,0)" xlink:href="#m"/><use transform="matrix(0.06172839506172837,0,0,0.06172839506172837,43.20987654320986,0)" xlink:href="#m"/><use transform="matrix(0.06172839506172837,0,0,0.06172839506172837,55.55555555555553,0)" xlink:href="#m"/><use transform="matrix(0.06172839506172837,0,0,0.06172839506172837,67.9012345679012,0)" xlink:href="#n"/><use transform="matrix(0.06172839506172837,0,0,0.06172839506172837,74.07407407407403,0)" xlink:href="#m"/><use transform="matrix(0.06172839506172837,0,0,0.06172839506172837,86.4197530864197,0)" xlink:href="#m"/><use transform="matrix(0.06172839506172837,0,0,0.06172839506172837,98.76543209876537,0)" xlink:href="#m"/></g><path fill="#333" d="M155-56V0h-30v-56H8v-25l114-167h33v167h35v25h-35zm-30-156c-27 46-58 90-88 131h88v-131" id="p"/><g id="c"><use transform="matrix(0.06172839506172837,0,0,0.06172839506172837,0,0)" xlink:href="#k"/><use transform="matrix(0.06172839506172837,0,0,0.06172839506172837,12.345679012345673,0)" xlink:href="#p"/><use transform="matrix(0.06172839506172837,0,0,0.06172839506172837,24.691358024691347,0)" xlink:href="#n"/><use transform="matrix(0.06172839506172837,0,0,0.06172839506172837,30.864197530864182,0)" xlink:href="#m"/><use transform="matrix(0.06172839506172837,0,0,0.06172839506172837,43.20987654320986,0)" xlink:href="#m"/><use transform="matrix(0.06172839506172837,0,0,0.06172839506172837,55.55555555555553,0)" xlink:href="#m"/><use transform="matrix(0.06172839506172837,0,0,0.06172839506172837,67.9012345679012,0)" xlink:href="#n"/><use transform="matrix(0.06172839506172837,0,0,0.06172839506172837,74.07407407407403,0)" xlink:href="#m"/><use transform="matrix(0.06172839506172837,0,0,0.06172839506172837,86.4197530864197,0)" xlink:href="#m"/><use transform="matrix(0.06172839506172837,0,0,0.06172839506172837,98.76543209876537,0)" xlink:href="#m"/></g><use transform="matrix(0.06172839506172837,0,0,0.06172839506172837,0,0)" xlink:href="#m" id="d"/><path fill="#333" d="M27 0v-27h64v-190l-56 39v-29l58-41h29v221h61V0H27" id="q"/><use transform="matrix(0.06172839506172837,0,0,0.06172839506172837,0,0)" xlink:href="#q" id="e"/><use transform="matrix(0.06172839506172837,0,0,0.06172839506172837,0,0)" xlink:href="#l" id="f"/><use transform="matrix(0.06172839506172837,0,0,0.06172839506172837,0,0)" xlink:href="#o" id="g"/><g id="h"><use transform="matrix(0.06172839506172837,0,0,0.06172839506172837,0,0)" xlink:href="#q"/><use transform="matrix(0.06172839506172837,0,0,0.06172839506172837,12.345679012345673,0)" xlink:href="#l"/></g><path fill="#333" d="M117-194c89-4 53 116 60 194h-32v-121c0-31-8-49-39-48C34-167 62-67 57 0H25l-1-190h30c1 10-1 24 2 32 11-22 29-35 61-36" id="r"/><use transform="matrix(0.06172839506172837,0,0,0.06172839506172837,0,0)" xlink:href="#r" id="i"/><g id="j"><use transform="matrix(0.06172839506172837,0,0,0.06172839506172837,0,0)" xlink:href="#n"/><use transform="matrix(0.06172839506172837,0,0,0.06172839506172837,6.172839506172837,0)" xlink:href="#n"/><use transform="matrix(0.06172839506172837,0,0,0.06172839506172837,12.345679012345673,0)" xlink:href="#n"/><use transform="matrix(0.06172839506172837,0,0,0.06172839506172837,18.518518518518512,0)" xlink:href="#n"/><use transform="matrix(0.06172839506172837,0,0,0.06172839506172837,24.691358024691347,0)" xlink:href="#n"/><use transform="matrix(0.06172839506172837,0,0,0.06172839506172837,30.864197530864182,0)" xlink:href="#n"/><use transform="matrix(0.06172839506172837,0,0,0.06172839506172837,37.03703703703702,0)" xlink:href="#n"/><use transform="matrix(0.06172839506172837,0,0,0.06172839506172837,43.20987654320985,0)" xlink:href="#n"/><use transform="matrix(0.06172839506172837,0,0,0.06172839506172837,49.38271604938269,0)" xlink:href="#n"/><use transform="matrix(0.06172839506172837,0,0,0.06172839506172837,55.55555555555552,0)" xlink:href="#n"/><use transform="matrix(0.06172839506172837,0,0,0.06172839506172837,61.72839506172836,0)" xlink:href="#n"/><use transform="matrix(0.06172839506172837,0,0,0.06172839506172837,67.9012345679012,0)" xlink:href="#n"/><use transform="matrix(0.06172839506172837,0,0,0.06172839506172837,74.07407407407403,0)" xlink:href="#n"/><use transform="matrix(0.06172839506172837,0,0,0.06172839506172837,80.24691358024687,0)" xlink:href="#n"/><use transform="matrix(0.06172839506172837,0,0,0.06172839506172837,86.4197530864197,0)" xlink:href="#n"/></g></defs></g></svg>