<svg xmlns="http://www.w3.org/2000/svg" xmlns:xlink="http://www.w3.org/1999/xlink" xmlns:lucid="lucid" width="738.1" height="320"><g transform="translate(-175.83816425120767 -96.66666666666669)" lucid:page-tab-id="0_0"><path d="M0 0h1870.4v1323.2H0z" fill="#fff"/><path d="M207.84 251.67H815.1" stroke="#5e5e5e" stroke-width="2" fill="none"/><path d="M207.86 251.67h-4.02v-1h4.02zM819.1 251.67h-4v-1h4z" fill="#5e5e5e"/><path d="M756.84 122.67c0-3.32 2.68-6 6-6H869.4c3.3 0 6 2.68 6 6v28c0 3.3-2.7 6-6 6H762.83c-3.32 0-6-2.7-6-6z" stroke="#000" stroke-opacity="0" stroke-width="3" fill="#fff" fill-opacity="0"/><use xlink:href="#a" transform="matrix(1,0,0,1,761.8381642512068,121.66666666666669) translate(-1.0555555555555216 19.444444444444443)"/><path d="M197.56 362.67c0-3.32 2.7-6 6-6H310.1c3.33 0 6 2.68 6 6v28c0 3.3-2.67 6-6 6H203.57c-3.3 0-6-2.7-6-6z" stroke="#000" stroke-opacity="0" stroke-width="3" fill="#fff" fill-opacity="0"/><use xlink:href="#b" transform="matrix(1,0,0,1,202.5628019323667,361.6666666666667) translate(-1.0555555555555216 19.444444444444443)"/><path d="M206.84 338.16v-45.5" stroke="#7ab648" stroke-width="2" fill="none"/><path d="M206.84 353.43l-4.64-14.27h9.27z" stroke="#7ab648" stroke-width="2" fill="#7ab648"/><path d="M207.84 292.7h-2v-1.03h2z" fill="#7ab648"/><path d="M197.56 257.67c0-3.32 2.7-6 6-6h6.55c3.33 0 6 2.68 6 6v28c0 3.3-2.67 6-6 6h-6.54c-3.3 0-6-2.7-6-6z" stroke="#000" stroke-opacity="0" stroke-width="3" fill="#fff" fill-opacity="0"/><use xlink:href="#c" transform="matrix(1,0,0,1,202.5628019323667,256.6666666666667) translate(-1.6728395061728367 19.444444444444443)"/><path d="M366.1 257.67c0-3.32 2.7-6 6-6h6.56c3.32 0 6 2.68 6 6v28c0 3.3-2.68 6-6 6h-6.55c-3.3 0-6-2.7-6-6z" stroke="#000" stroke-opacity="0" stroke-width="3" fill="#fff" fill-opacity="0"/><use xlink:href="#d" transform="matrix(1,0,0,1,371.1135265700468,256.6666666666667) translate(-1.6728395061728367 19.444444444444443)"/><path d="M511.63 257.67c0-3.32 2.7-6 6-6h6.56c3.3 0 6 2.68 6 6v28c0 3.3-2.7 6-6 6h-6.57c-3.3 0-6-2.7-6-6z" stroke="#000" stroke-opacity="0" stroke-width="3" fill="#fff" fill-opacity="0"/><use xlink:href="#e" transform="matrix(1,0,0,1,516.6342826919863,256.6666666666667) translate(-1.6728395061728367 19.444444444444443)"/><path d="M649.4 257.67c0-3.32 2.68-6 6-6h6.55c3.3 0 6 2.68 6 6v28c0 3.3-2.7 6-6 6h-6.55c-3.32 0-6-2.7-6-6z" stroke="#000" stroke-opacity="0" stroke-width="3" fill="#fff" fill-opacity="0"/><use xlink:href="#f" transform="matrix(1,0,0,1,654.3951607529543,256.6666666666667) translate(-1.6728395061728367 19.444444444444443)"/><path d="M806.84 257.67c0-3.32 2.68-6 6-6h6.55c3.3 0 6 2.68 6 6v28c0 3.3-2.7 6-6 6h-6.56c-3.32 0-6-2.7-6-6z" stroke="#000" stroke-opacity="0" stroke-width="3" fill="#fff" fill-opacity="0"/><use xlink:href="#g" transform="matrix(1,0,0,1,811.8381642512068,256.6666666666667) translate(-7.845679012345673 19.444444444444443)"/><path d="M816.25 175.17l.58 75.5" stroke="#0c7cba" stroke-width="2" fill="none"/><path d="M816.14 159.9l4.74 14.23-9.27.07z" stroke="#0c7cba" stroke-width="2" fill="#0c7cba"/><path d="M817.84 251.67h-2v-1.02l2-.02z" fill="#0c7cba"/><path d="M875.4 257.67c0-3.32 2.68-6 6-6h6.54c3.3 0 6 2.68 6 6v28c0 3.3-2.7 6-6 6h-6.55c-3.32 0-6-2.7-6-6z" stroke="#000" stroke-opacity="0" stroke-width="3" fill="#fff" fill-opacity="0"/><use xlink:href="#h" transform="matrix(1,0,0,1,880.3888888888887,256.6666666666667) translate(-1.6728395061728367 19.444444444444443)"/><path d="M676.1 257.67c0-3.32 2.7-6 6-6h108c3.33 0 6 2.68 6 6v8c0 3.3-2.67 6-6 6h-108c-3.3 0-6-2.7-6-6z" stroke="#000" stroke-opacity="0" stroke-width="3" fill="#fff" fill-opacity="0"/><use xlink:href="#i" transform="matrix(1,0,0,1,681.1135265700477,256.6666666666667) translate(8.70370370370373 17.77777777777777)"/><path d="M375.4 338.16v-45.5" stroke="#7ab648" stroke-width="2" fill="none"/><path d="M375.4 353.43l-4.65-14.27h9.27z" stroke="#7ab648" stroke-width="2" fill="#7ab648"/><path d="M376.4 292.7h-2v-1.03h2z" fill="#7ab648"/><path d="M520.92 338.16v-45.5" stroke="#7ab648" stroke-width="2" fill="none"/><path d="M520.92 353.43l-4.64-14.26h9.27z" stroke="#7ab648" stroke-width="2" fill="#7ab648"/><path d="M521.9 292.7h-2v-1.03h2z" fill="#7ab648"/><path d="M658.67 338.16v-45.5" stroke="#7ab648" stroke-width="2" fill="none"/><path d="M658.67 353.43l-4.63-14.27h9.27z" stroke="#7ab648" stroke-width="2" fill="#7ab648"/><path d="M659.67 292.7h-2v-1.03h2z" fill="#7ab648"/><path d="M334.66 362.67c0-3.32 2.7-6 6-6H447.2c3.33 0 6 2.68 6 6v28c0 3.3-2.67 6-6 6H340.67c-3.3 0-6-2.7-6-6z" stroke="#000" stroke-opacity="0" stroke-width="3" fill="#fff" fill-opacity="0"/><use xlink:href="#j" transform="matrix(1,0,0,1,339.66425120772874,361.6666666666667) translate(8.20370370370373 19.65277777777777)"/><path d="M461.64 362.67c0-3.32 2.7-6 6-6H574.2c3.3 0 6 2.68 6 6v28c0 3.3-2.7 6-6 6H467.63c-3.3 0-6-2.7-6-6z" stroke="#000" stroke-opacity="0" stroke-width="3" fill="#fff" fill-opacity="0"/><use xlink:href="#j" transform="matrix(1,0,0,1,466.64387733669355,361.6666666666667) translate(8.20370370370373 19.65277777777777)"/><path d="M599.4 362.67c0-3.32 2.68-6 6-6h106.55c3.3 0 6 2.68 6 6v28c0 3.3-2.7 6-6 6H605.4c-3.32 0-6-2.7-6-6z" stroke="#000" stroke-opacity="0" stroke-width="3" fill="#fff" fill-opacity="0"/><use xlink:href="#j" transform="matrix(1,0,0,1,604.3951607529543,361.6666666666667) translate(8.20370370370373 19.65277777777777)"/><defs><path fill="#333" d="M194-70c0 46-34 64-81 66v29H91V-4C42-5 12-27 4-67l30-6c5 28 25 41 57 43v-87c-38-9-76-20-76-67 1-42 33-58 76-59v-23h22v23c45 0 67 20 76 56l-31 6c-5-23-18-35-45-37v78c41 10 81 20 81 70zm-81 41c51 7 71-66 19-77-6-2-12-4-19-6v83zM91-219c-47-6-63 57-18 69 6 2 12 3 18 5v-74" id="k"/><path fill="#333" d="M54-142c48-35 137-8 131 61C196 18 31 33 14-55l32-4c7 23 22 37 52 37 35-1 51-22 54-58 4-55-73-65-99-34H22l8-134h141v27H59" id="l"/><path fill="#333" d="M33 0v-38h34V0H33" id="m"/><path fill="#333" d="M101-251c82-7 93 87 43 132L82-64C71-53 59-42 53-27h129V0H18c2-99 128-94 128-182 0-28-16-43-45-43s-46 15-49 41l-32-3c6-41 34-60 81-64" id="n"/><path fill="#333" d="M27 0v-27h64v-190l-56 39v-29l58-41h29v221h61V0H27" id="o"/><path fill="#333" d="M134-131c28 9 52 24 51 62-1 50-34 73-85 73S17-19 16-69c0-36 21-54 49-61-75-25-45-126 34-121 46 3 78 18 79 63 0 33-17 51-44 57zm-34-11c31 1 46-15 46-44 0-28-17-43-47-42-29 0-46 13-45 42 1 28 16 44 46 44zm1 122c35 0 51-18 51-52 0-30-18-46-53-46-33 0-51 17-51 47 0 34 19 51 53 51" id="p"/><path fill="#333" d="M99-251c64 0 84 50 84 122C183-37 130 33 47-8c-14-7-20-23-25-40l30-5c6 39 69 39 84 7 9-19 16-44 16-74-10 22-31 35-62 35-49 0-73-33-73-83 0-54 28-83 82-83zm-1 141c31-1 51-18 51-49 0-36-14-67-51-67-34 0-49 23-49 58 0 34 15 58 49 58" id="q"/><path fill="#333" d="M101-251c68 0 85 55 85 127S166 4 100 4C33 4 14-52 14-124c0-73 17-127 87-127zm-1 229c47 0 54-49 54-102s-4-102-53-102c-51 0-55 48-55 102 0 53 5 102 54 102" id="r"/><g id="a"><use transform="matrix(0.06172839506172837,0,0,0.06172839506172837,0,0)" xlink:href="#k"/><use transform="matrix(0.06172839506172837,0,0,0.06172839506172837,12.345679012345673,0)" xlink:href="#l"/><use transform="matrix(0.06172839506172837,0,0,0.06172839506172837,24.691358024691347,0)" xlink:href="#m"/><use transform="matrix(0.06172839506172837,0,0,0.06172839506172837,30.864197530864182,0)" xlink:href="#n"/><use transform="matrix(0.06172839506172837,0,0,0.06172839506172837,43.20987654320986,0)" xlink:href="#o"/><use transform="matrix(0.06172839506172837,0,0,0.06172839506172837,55.55555555555553,0)" xlink:href="#p"/><use transform="matrix(0.06172839506172837,0,0,0.06172839506172837,67.9012345679012,0)" xlink:href="#m"/><use transform="matrix(0.06172839506172837,0,0,0.06172839506172837,74.07407407407403,0)" xlink:href="#q"/><use transform="matrix(0.06172839506172837,0,0,0.06172839506172837,86.4197530864197,0)" xlink:href="#r"/><use transform="matrix(0.06172839506172837,0,0,0.06172839506172837,98.76543209876537,0)" xlink:href="#n"/></g><g id="b"><use transform="matrix(0.06172839506172837,0,0,0.06172839506172837,0,0)" xlink:href="#k"/><use transform="matrix(0.06172839506172837,0,0,0.06172839506172837,12.345679012345673,0)" xlink:href="#n"/><use transform="matrix(0.06172839506172837,0,0,0.06172839506172837,24.691358024691347,0)" xlink:href="#m"/><use transform="matrix(0.06172839506172837,0,0,0.06172839506172837,30.864197530864182,0)" xlink:href="#r"/><use transform="matrix(0.06172839506172837,0,0,0.06172839506172837,43.20987654320986,0)" xlink:href="#r"/><use transform="matrix(0.06172839506172837,0,0,0.06172839506172837,55.55555555555553,0)" xlink:href="#r"/><use transform="matrix(0.06172839506172837,0,0,0.06172839506172837,67.9012345679012,0)" xlink:href="#m"/><use transform="matrix(0.06172839506172837,0,0,0.06172839506172837,74.07407407407403,0)" xlink:href="#r"/><use transform="matrix(0.06172839506172837,0,0,0.06172839506172837,86.4197530864197,0)" xlink:href="#r"/><use transform="matrix(0.06172839506172837,0,0,0.06172839506172837,98.76543209876537,0)" xlink:href="#r"/></g><use transform="matrix(0.06172839506172837,0,0,0.06172839506172837,0,0)" xlink:href="#r" id="c"/><use transform="matrix(0.06172839506172837,0,0,0.06172839506172837,0,0)" xlink:href="#o" id="d"/><use transform="matrix(0.06172839506172837,0,0,0.06172839506172837,0,0)" xlink:href="#n" id="e"/><path fill="#333" d="M126-127c33 6 58 20 58 59 0 88-139 92-164 29-3-8-5-16-6-25l32-3c6 27 21 44 54 44 32 0 52-15 52-46 0-38-36-46-79-43v-28c39 1 72-4 72-42 0-27-17-43-46-43-28 0-47 15-49 41l-32-3c6-42 35-63 81-64 48-1 79 21 79 65 0 36-21 52-52 59" id="s"/><use transform="matrix(0.06172839506172837,0,0,0.06172839506172837,0,0)" xlink:href="#s" id="f"/><g id="g"><use transform="matrix(0.06172839506172837,0,0,0.06172839506172837,0,0)" xlink:href="#o"/><use transform="matrix(0.06172839506172837,0,0,0.06172839506172837,12.345679012345673,0)" xlink:href="#n"/></g><path fill="#333" d="M117-194c89-4 53 116 60 194h-32v-121c0-31-8-49-39-48C34-167 62-67 57 0H25l-1-190h30c1 10-1 24 2 32 11-22 29-35 61-36" id="t"/><use transform="matrix(0.06172839506172837,0,0,0.06172839506172837,0,0)" xlink:href="#t" id="h"/><g id="i"><use transform="matrix(0.06172839506172837,0,0,0.06172839506172837,0,0)" xlink:href="#m"/><use transform="matrix(0.06172839506172837,0,0,0.06172839506172837,6.172839506172837,0)" xlink:href="#m"/><use transform="matrix(0.06172839506172837,0,0,0.06172839506172837,12.345679012345673,0)" xlink:href="#m"/><use transform="matrix(0.06172839506172837,0,0,0.06172839506172837,18.518518518518512,0)" xlink:href="#m"/><use transform="matrix(0.06172839506172837,0,0,0.06172839506172837,24.691358024691347,0)" xlink:href="#m"/><use transform="matrix(0.06172839506172837,0,0,0.06172839506172837,30.864197530864182,0)" xlink:href="#m"/><use transform="matrix(0.06172839506172837,0,0,0.06172839506172837,37.03703703703702,0)" xlink:href="#m"/><use transform="matrix(0.06172839506172837,0,0,0.06172839506172837,43.20987654320985,0)" xlink:href="#m"/><use transform="matrix(0.06172839506172837,0,0,0.06172839506172837,49.38271604938269,0)" xlink:href="#m"/><use transform="matrix(0.06172839506172837,0,0,0.06172839506172837,55.55555555555552,0)" xlink:href="#m"/><use transform="matrix(0.06172839506172837,0,0,0.06172839506172837,61.72839506172836,0)" xlink:href="#m"/><use transform="matrix(0.06172839506172837,0,0,0.06172839506172837,67.9012345679012,0)" xlink:href="#m"/><use transform="matrix(0.06172839506172837,0,0,0.06172839506172837,74.07407407407403,0)" xlink:href="#m"/><use transform="matrix(0.06172839506172837,0,0,0.06172839506172837,80.24691358024687,0)" xlink:href="#m"/><use transform="matrix(0.06172839506172837,0,0,0.06172839506172837,86.4197530864197,0)" xlink:href="#m"/></g><g id="j"><use transform="matrix(0.06172839506172837,0,0,0.06172839506172837,0,0)" xlink:href="#k"/><use transform="matrix(0.06172839506172837,0,0,0.06172839506172837,12.345679012345673,0)" xlink:href="#n"/><use transform="matrix(0.06172839506172837,0,0,0.06172839506172837,24.691358024691347,0)" xlink:href="#r"/><use transform="matrix(0.06172839506172837,0,0,0.06172839506172837,37.037037037037024,0)" xlink:href="#r"/><use transform="matrix(0.06172839506172837,0,0,0.06172839506172837,49.382716049382694,0)" xlink:href="#m"/><use transform="matrix(0.06172839506172837,0,0,0.06172839506172837,55.55555555555553,0)" xlink:href="#r"/><use transform="matrix(0.06172839506172837,0,0,0.06172839506172837,67.9012345679012,0)" xlink:href="#r"/><use transform="matrix(0.06172839506172837,0,0,0.06172839506172837,80.24691358024687,0)" xlink:href="#r"/></g></defs></g></svg>