<svg xmlns="http://www.w3.org/2000/svg" xmlns:xlink="http://www.w3.org/1999/xlink" xmlns:lucid="lucid" width="904" height="503.43"><g transform="translate(-900 -80)" lucid:page-tab-id="0_0"><path d="M0 0h1870.4v1323.2H0z" fill="#fff"/><path d="M1264 246c0-3.3 2.7-6 6-6h228c3.3 0 6 2.7 6 6v48c0 3.3-2.7 6-6 6h-228c-3.3 0-6-2.7-6-6z" fill="none"/><use xlink:href="#a" transform="matrix(1,0,0,1,1264,240) translate(113.82716049382717 34.44444444444444)"/><path d="M1300 398.67c0-3.32 2.7-6 6-6h154.67c3.3 0 6 2.68 6 6v48c0 3.3-2.7 6-6 6H1306c-3.3 0-6-2.7-6-6z" fill="none"/><use xlink:href="#b" transform="matrix(1,0,0,1,1300,392.6666666666667) translate(0 21.111111111111114)"/><use xlink:href="#c" transform="matrix(1,0,0,1,1300,392.6666666666667) translate(0 47.777777777777786)"/><use xlink:href="#d" transform="matrix(1,0,0,1,1300,392.6666666666667) translate(28.333333333333332 47.777777777777786)"/><use xlink:href="#e" transform="matrix(1,0,0,1,1300,392.6666666666667) translate(47.46913580246913 47.777777777777786)"/><use xlink:href="#f" transform="matrix(1,0,0,1,1300,392.6666666666667) translate(65.98765432098764 47.777777777777786)"/><path d="M1385.33 486c0-3.3 2.7-6 6-6H1538c3.3 0 6 2.7 6 6v48c0 3.3-2.7 6-6 6h-146.67c-3.3 0-6-2.7-6-6z" fill="none"/><use xlink:href="#g" transform="matrix(1,0,0,1,1385.3333333333333,480) translate(0 17.77777777777778)"/><use xlink:href="#h" transform="matrix(1,0,0,1,1385.3333333333333,480) translate(25.30864197530864 17.77777777777778)"/><use xlink:href="#i" transform="matrix(1,0,0,1,1385.3333333333333,480) translate(75.92592592592592 17.77777777777778)"/><use xlink:href="#j" transform="matrix(1,0,0,1,1385.3333333333333,480) translate(0 44.44444444444444)"/><use xlink:href="#d" transform="matrix(1,0,0,1,1385.3333333333333,480) translate(28.333333333333332 44.44444444444444)"/><use xlink:href="#k" transform="matrix(1,0,0,1,1385.3333333333333,480) translate(47.46913580246913 44.44444444444444)"/><use xlink:href="#f" transform="matrix(1,0,0,1,1385.3333333333333,480) translate(65.98765432098764 44.44444444444444)"/><path d="M1260 140c0-3.3 2.7-6 6-6h228c3.3 0 6 2.7 6 6v48c0 3.3-2.7 6-6 6h-228c-3.3 0-6-2.7-6-6z" fill="none"/><use xlink:href="#l" transform="matrix(1,0,0,1,1260,134) translate(112.65432098765432 34.44444444444444)"/><path d="M946.67 246c0-3.3 2.68-6 6-6h228c3.3 0 6 2.7 6 6v48c0 3.3-2.7 6-6 6h-228c-3.32 0-6-2.7-6-6z" fill="none"/><use xlink:href="#m" transform="matrix(1,0,0,1,946.6666666666667,240) translate(113.82716049382717 34.44444444444444)"/><path d="M1040 246c0-3.3 2.7-6 6-6h228c3.3 0 6 2.7 6 6v48c0 3.3-2.7 6-6 6h-228c-3.3 0-6-2.7-6-6z" fill="none"/><use xlink:href="#n" transform="matrix(1,0,0,1,1040,240) translate(113.82716049382717 34.44444444444444)"/><path d="M1040 386c0-3.3 2.7-6 6-6h228c3.3 0 6 2.7 6 6v48c0 3.3-2.7 6-6 6h-228c-3.3 0-6-2.7-6-6z" fill="none"/><use xlink:href="#o" transform="matrix(1,0,0,1,1040,380) translate(55.49382716049382 34.44444444444444)"/><path d="M1420 388c0-3.3 2.7-6 6-6h228c3.3 0 6 2.7 6 6v48c0 3.3-2.7 6-6 6h-228c-3.3 0-6-2.7-6-6z" fill="none"/><use xlink:href="#p" transform="matrix(1,0,0,1,1420,382) translate(56.14197530864197 34.44444444444444)"/><path d="M1420 246c0-3.3 2.7-6 6-6h228c3.3 0 6 2.7 6 6v48c0 3.3-2.7 6-6 6h-228c-3.3 0-6-2.7-6-6z" fill="none"/><use xlink:href="#q" transform="matrix(1,0,0,1,1420,240) translate(107.65432098765432 34.44444444444444)"/><path d="M1544 298.67c0-3.32 2.7-6 6-6h228c3.3 0 6 2.68 6 6v48c0 3.3-2.7 6-6 6h-228c-3.3 0-6-2.7-6-6z" fill="none"/><use xlink:href="#r" transform="matrix(1,0,0,1,1544,292.6666666666667) translate(81.75925925925927 34.44444444444444)"/><use xlink:href="#s" transform="matrix(1,0,0,1,1544,292.6666666666667) translate(112.62345679012347 34.44444444444444)"/><path d="M920 106c0-3.3 2.7-6 6-6h228c3.3 0 6 2.7 6 6v48c0 3.3-2.7 6-6 6H926c-3.3 0-6-2.7-6-6z" fill="none"/><use xlink:href="#t" transform="matrix(1,0,0,1,920,100) translate(37.92592592592594 35.33333333333333)"/><use xlink:href="#u" transform="matrix(1,0,0,1,920,100) translate(126.5925925925926 35.33333333333333)"/><path d="M1081.5 320h537M1081.54 320H1080M1618.46 320h1.54M1160 281.5v77.88M1160 281.54V280" stroke="#000" stroke-width="3" fill="none"/><path d="M1160 375.15l-4.64-14.27h9.28z" stroke="#000" stroke-width="3"/><path d="M1360 281.5v77.88M1360 281.54V280" stroke="#000" stroke-width="3" fill="none"/><path d="M1360 375.15l-4.64-14.27h9.28z" stroke="#000" stroke-width="3"/><path d="M1540 281.5v77.88M1540 281.54V280" stroke="#000" stroke-width="3" fill="none"/><path d="M1540 375.15l-4.64-14.27h9.28z" stroke="#000" stroke-width="3"/><path d="M1360 161.5v4.4m0 5.84v8.77m0 5.86v8.78m0 5.85v8.76m0 5.85v8.8m0 5.84V239m0 5.86v8.78m0 5.85v8.76m0 5.85v4.4M1360 161.54V160M1360 278.46V280M1554.66 443.5l-.08 14.28m-.08 14.3l-.07 11.83-1 12.74-.5 3.92m-2.42 14.07l-1.1 4.52-1.4 4.7-1.4 3.9-1.38 3.27-1.34 2.77-1.2 2.2-1.78 2.8-1.42 1.94m-10.2 9.92l-2.94 1.98-3.44 1.98-3.94 1.9-4.6 1.86-5.44 1.76-5.8 1.44m-14.1 2.22l-10.1 1.03-8.25.5-9.83.27h-.32m-14.27-.63l-5.74-.48-8.98-1.25-7.97-1.56-5.44-1.38m-13.52-4.52l-4.34-1.9-4.23-2.15-3.76-2.17-3.37-2.2-3.04-2.24-2.74-2.26-2.5-2.3m-8.52-11.38l-1.1-2.17-1.24-2.84-1.17-3.16-1.07-3.5-.98-4-.85-4.58-.68-5.4-.13-1.8m-.36-14.26l.63-12.5.12-1.76" stroke="#000" stroke-width="3" fill="none"/><path d="M1556.16 443.55l-3-.02V442h3z"/><path d="M1366.33 457.5l3.65 14.56-9.25-.64z" stroke="#000" stroke-width="3"/><path d="M1114.7 441.5l.34 14.27m.86 14.24l.38 4.86 1.5 11.43 1.74 9.3.64 2.6m3.93 13.72l1.14 3.22 1.94 4.66 1.94 4.03 1.92 3.5 1.9 3.1 1.9 2.7 1.16 1.54 1.77 2.12m10.52 9.58l.42.33 3.38 2.28 3.78 2.24 4.25 2.2 4.85 2.17 5.58 2.12 3.3 1.05m13.82 3.55l6.63 1.3 12.16 1.66 9.5.75m14.25.84l16.8.56 11.75-.17m14.25-.7l1.25-.07 9.63-1.03 7.92-1.22 6.6-1.32 2.78-.7m13.6-4.3l1.66-.66 3.14-1.43 2.77-1.42 2.47-1.4 2.2-1.4 2-1.4 1.8-1.37 1.62-1.37.9-.8L1335 545l1.64-1.77 1.23-1.5m7.22-12.27l.34-.8 1.32-3.42 1.27-3.9 1.2-4.48 1.1-5.25.97-6.26.36-3.54m.9-14.24v-.28l-.15-14" stroke="#000" stroke-width="3" fill="none"/><path d="M1116.2 441.5l-3 .07-.03-1.57h3z"/><path d="M1352.1 457.52l4.92 14.17-9.27.18z" stroke="#000" stroke-width="3"/><path d="M1160 466c0-3.3 2.7-6 6-6h146.67c3.3 0 6 2.7 6 6v48c0 3.3-2.7 6-6 6H1166c-3.3 0-6-2.7-6-6z" fill="none"/><g><use xlink:href="#g" transform="matrix(1,0,0,1,1160,460) translate(0 17.77777777777778)"/><use xlink:href="#h" transform="matrix(1,0,0,1,1160,460) translate(25.30864197530864 17.77777777777778)"/><use xlink:href="#i" transform="matrix(1,0,0,1,1160,460) translate(75.92592592592592 17.77777777777778)"/><use xlink:href="#v" transform="matrix(1,0,0,1,1160,460) translate(0 44.44444444444444)"/><use xlink:href="#d" transform="matrix(1,0,0,1,1160,460) translate(28.333333333333332 44.44444444444444)"/><use xlink:href="#w" transform="matrix(1,0,0,1,1160,460) translate(47.46913580246913 44.44444444444444)"/><use xlink:href="#f" transform="matrix(1,0,0,1,1160,460) translate(65.98765432098764 44.44444444444444)"/></g><defs><path fill="#333" d="M138-131c27 9 52 24 51 61 0 53-36 74-89 74S11-19 11-69c0-35 22-54 51-61-78-25-46-121 38-121 51 0 83 19 83 66 0 30-18 49-45 54zm-38-16c24 0 32-13 32-36 1-23-11-34-32-34-22 0-33 12-32 34 0 22 9 36 32 36zm1 116c27 0 37-17 37-43 0-25-13-39-39-39-24 0-37 15-37 40 0 27 11 42 39 42" id="x"/><use transform="matrix(0.06172839506172839,0,0,0.06172839506172839,0,0)" xlink:href="#x" id="a"/><path fill="#333" d="M24-248c93 1 206-16 204 79-1 75-69 88-152 82V0H24v-248zm52 121c47 0 100 7 100-41 0-47-54-39-100-39v80" id="y"/><path fill="#333" d="M182-182c0 78-84 86-111 141h115V0H12c-6-101 99-100 120-180 1-22-12-31-33-32-23 0-32 14-35 34l-49-3c5-45 32-70 84-70 51 0 83 22 83 69" id="z"/><path fill="#333" d="M15-148v-39h180v39H15zm0 97v-39h180v39H15" id="A"/><path fill="#333" d="M111-147c44 9 85 22 84 75-1 49-35 65-84 68v31H91V-4C40-5 12-27 5-72l45-8c4 24 15 38 41 40-2-22 4-51-2-69-39-10-76-22-76-72 0-47 35-60 78-63v-23h20v23c47 1 70 23 78 62l-46 7c-4-18-12-32-32-34v62zm-20-63c-33-4-45 46-13 54 4 1 8 2 13 4v-58zm20 170c39 5 53-51 15-60-7-2-7-2-15-4v64" id="B"/><path fill="#333" d="M128-127c34 4 56 21 59 58 7 91-148 94-172 28-4-9-6-17-7-26l51-5c1 24 16 35 40 36 23 0 39-12 38-36-1-31-31-36-65-34v-40c32 2 59-3 59-33 0-20-13-33-34-33s-33 13-35 32l-50-3c6-44 37-68 86-68 50 0 83 20 83 66 0 35-22 52-53 58" id="C"/><path fill="#333" d="M101-251c68 0 84 54 84 127C185-50 166 4 99 4S15-52 14-124c-1-75 17-127 87-127zm-1 216c37-5 36-46 36-89s4-89-36-89c-39 0-36 45-36 89 0 43-3 85 36 89" id="D"/><path fill="#333" d="M24 0v-54h51V0H24" id="E"/><g id="b"><use transform="matrix(0.06172839506172839,0,0,0.06172839506172839,0,0)" xlink:href="#y"/><use transform="matrix(0.043209876543209874,0,0,0.043209876543209874,14.814814814814813,3.1111111111111107)" xlink:href="#z"/><use transform="matrix(0.06172839506172839,0,0,0.06172839506172839,23.456790123456788,0)" xlink:href="#A"/><use transform="matrix(0.06172839506172839,0,0,0.06172839506172839,36.419753086419746,0)" xlink:href="#B"/><use transform="matrix(0.06172839506172839,0,0,0.06172839506172839,48.76543209876542,0)" xlink:href="#C"/><use transform="matrix(0.06172839506172839,0,0,0.06172839506172839,61.1111111111111,0)" xlink:href="#D"/><use transform="matrix(0.06172839506172839,0,0,0.06172839506172839,73.45679012345678,0)" xlink:href="#D"/><use transform="matrix(0.06172839506172839,0,0,0.06172839506172839,85.80246913580247,0)" xlink:href="#E"/><use transform="matrix(0.06172839506172839,0,0,0.06172839506172839,91.9753086419753,0)" xlink:href="#D"/><use transform="matrix(0.06172839506172839,0,0,0.06172839506172839,104.32098765432099,0)" xlink:href="#D"/><use transform="matrix(0.06172839506172839,0,0,0.06172839506172839,116.66666666666667,0)" xlink:href="#D"/></g><path fill="#333" d="M135-194c87-1 58 113 63 194h-50c-7-57 23-157-34-157-59 0-34 97-39 157H25l-1-190h47c2 12-1 28 3 38 12-26 28-41 61-42" id="F"/><g id="c"><use transform="matrix(0.06172839506172839,0,0,0.06172839506172839,0,0)" xlink:href="#F"/><use transform="matrix(0.043209876543209874,0,0,0.043209876543209874,13.518518518518517,3.1111111111111107)" xlink:href="#z"/></g><use transform="matrix(0.06172839506172839,0,0,0.06172839506172839,0,0)" xlink:href="#A" id="d"/><use transform="matrix(0.06172839506172839,0,0,0.06172839506172839,0,0)" xlink:href="#D" id="e"/><path fill="#333" d="M135-194c53 0 70 44 70 98 0 56-19 98-73 100-31 1-45-17-59-34 3 33 2 69 2 105H25l-1-265h48c2 10 0 23 3 31 11-24 29-35 60-35zM114-30c33 0 39-31 40-66 0-38-9-64-40-64-56 0-55 130 0 130" id="G"/><path fill="#333" d="M220-157c-53 9-28 100-34 157h-49v-107c1-27-5-49-29-50C55-147 81-57 75 0H25l-1-190h47c2 12-1 28 3 38 10-53 101-56 108 0 13-22 24-43 59-42 82 1 51 116 57 194h-49v-107c-1-25-5-48-29-50" id="H"/><path fill="#333" d="M128 0H69L1-190h53L99-40l48-150h52" id="I"/><g id="f"><use transform="matrix(0.06172839506172839,0,0,0.06172839506172839,0,0)" xlink:href="#G"/><use transform="matrix(0.06172839506172839,0,0,0.06172839506172839,13.518518518518517,0)" xlink:href="#H"/><use transform="matrix(0.06172839506172839,0,0,0.06172839506172839,33.2716049382716,0)" xlink:href="#I"/></g><path fill="#333" d="M25-224v-37h50v37H25zM75 22c2 45-34 59-81 51V38c22 5 31-5 31-27v-201h50V22" id="J"/><g id="g"><use transform="matrix(0.06172839506172839,0,0,0.06172839506172839,0,0)" xlink:href="#J"/><use transform="matrix(0.06172839506172839,0,0,0.06172839506172839,6.172839506172839,0)" xlink:href="#A"/></g><path fill="#333" d="M115-159c48 0 72 30 72 78 0 54-30 85-83 85-64 0-91-50-91-122 0-98 58-163 141-120 15 8 21 24 27 44l-47 6c-5-31-48-31-61-4-7 14-11 33-11 60 9-17 28-27 53-27zM102-35c24 0 36-20 36-45s-11-43-37-43c-23 0-36 14-36 38 0 27 11 50 37 50" id="K"/><path fill="#333" d="M249-155c45 1 62 31 62 79-1 48-18 79-63 79s-61-32-62-79c0-48 16-79 63-79zM97 0H61l162-248h36zM9-172c0-48 16-79 63-78 46 0 62 31 62 78 0 48-18 79-63 79S9-124 9-172zM249-25c24 0 24-26 24-51 0-26-1-52-24-52-24 0-25 26-25 52 0 25 0 51 25 51zM71-120c23 0 24-25 24-52 0-26 0-51-23-51-25 0-25 25-25 51 0 27 1 52 24 52" id="L"/><g id="h"><use transform="matrix(0.06172839506172839,0,0,0.06172839506172839,0,0)" xlink:href="#C"/><use transform="matrix(0.06172839506172839,0,0,0.06172839506172839,12.345679012345679,0)" xlink:href="#K"/><use transform="matrix(0.06172839506172839,0,0,0.06172839506172839,24.691358024691358,0)" xlink:href="#L"/></g><path fill="#333" d="M133-34C117-15 103 5 69 4 32 3 11-16 11-54c-1-60 55-63 116-61 1-26-3-47-28-47-18 1-26 9-28 27l-52-2c7-38 36-58 82-57s74 22 75 68l1 82c-1 14 12 18 25 15v27c-30 8-71 5-69-32zm-48 3c29 0 43-24 42-57-32 0-66-3-65 30 0 17 8 27 23 27" id="M"/><g id="i"><use transform="matrix(0.06172839506172839,0,0,0.06172839506172839,0,0)" xlink:href="#F"/><use transform="matrix(0.06172839506172839,0,0,0.06172839506172839,13.518518518518517,0)" xlink:href="#M"/><use transform="matrix(0.06172839506172839,0,0,0.06172839506172839,25.864197530864196,0)" xlink:href="#H"/><use transform="matrix(0.06172839506172839,0,0,0.06172839506172839,45.61728395061728,0)" xlink:href="#I"/></g><g id="j"><use transform="matrix(0.06172839506172839,0,0,0.06172839506172839,0,0)" xlink:href="#F"/><use transform="matrix(0.043209876543209874,0,0,0.043209876543209874,13.518518518518517,3.1111111111111107)" xlink:href="#C"/></g><path fill="#333" d="M52 0c1-96 47-148 87-207H15v-41h169v40c-36 62-79 113-81 208H52" id="N"/><use transform="matrix(0.06172839506172839,0,0,0.06172839506172839,0,0)" xlink:href="#N" id="k"/><path fill="#333" d="M121-226c-27-7-43 5-38 36h38v33H83V0H34v-157H6v-33h28c-9-59 32-81 87-68v32" id="O"/><g id="l"><use transform="matrix(0.06172839506172839,0,0,0.06172839506172839,0,0)" xlink:href="#O"/><use transform="matrix(0.06172839506172839,0,0,0.06172839506172839,7.345679012345679,0)" xlink:href="#O"/></g><use transform="matrix(0.06172839506172839,0,0,0.06172839506172839,0,0)" xlink:href="#D" id="m"/><use transform="matrix(0.06172839506172839,0,0,0.06172839506172839,0,0)" xlink:href="#C" id="n"/><path fill="#333" d="M23 0v-37h61v-169l-59 37v-38l62-41h46v211h57V0H23" id="P"/><path fill="#333" d="M139-81c0-46-55-55-73-27H18l9-140h149v37H72l-4 63c44-38 133-4 122 66C201 21 21 35 11-62l49-4c5 18 15 30 39 30 26 0 40-18 40-45" id="Q"/><g id="o"><use transform="matrix(0.06172839506172839,0,0,0.06172839506172839,0,0)" xlink:href="#y"/><use transform="matrix(0.043209876543209874,0,0,0.043209876543209874,14.814814814814813,3.1111111111111107)" xlink:href="#P"/><use transform="matrix(0.06172839506172839,0,0,0.06172839506172839,23.456790123456788,0)" xlink:href="#A"/><use transform="matrix(0.06172839506172839,0,0,0.06172839506172839,36.419753086419746,0)" xlink:href="#B"/><use transform="matrix(0.06172839506172839,0,0,0.06172839506172839,48.76543209876542,0)" xlink:href="#z"/><use transform="matrix(0.06172839506172839,0,0,0.06172839506172839,61.1111111111111,0)" xlink:href="#Q"/><use transform="matrix(0.06172839506172839,0,0,0.06172839506172839,73.45679012345678,0)" xlink:href="#D"/><use transform="matrix(0.06172839506172839,0,0,0.06172839506172839,85.80246913580247,0)" xlink:href="#E"/><use transform="matrix(0.06172839506172839,0,0,0.06172839506172839,91.9753086419753,0)" xlink:href="#D"/><use transform="matrix(0.06172839506172839,0,0,0.06172839506172839,104.32098765432099,0)" xlink:href="#D"/><use transform="matrix(0.06172839506172839,0,0,0.06172839506172839,116.66666666666667,0)" xlink:href="#D"/></g><path fill="#333" d="M76-208v77h127v40H76V0H24v-248h183v40H76" id="R"/><g id="p"><use transform="matrix(0.06172839506172839,0,0,0.06172839506172839,0,0)" xlink:href="#R"/><use transform="matrix(0.043209876543209874,0,0,0.043209876543209874,13.518518518518517,3.1111111111111107)" xlink:href="#C"/><use transform="matrix(0.06172839506172839,0,0,0.06172839506172839,22.160493827160494,0)" xlink:href="#A"/><use transform="matrix(0.06172839506172839,0,0,0.06172839506172839,35.123456790123456,0)" xlink:href="#B"/><use transform="matrix(0.06172839506172839,0,0,0.06172839506172839,47.46913580246913,0)" xlink:href="#P"/><use transform="matrix(0.06172839506172839,0,0,0.06172839506172839,59.81481481481481,0)" xlink:href="#C"/><use transform="matrix(0.06172839506172839,0,0,0.06172839506172839,72.1604938271605,0)" xlink:href="#D"/><use transform="matrix(0.06172839506172839,0,0,0.06172839506172839,84.50617283950618,0)" xlink:href="#E"/><use transform="matrix(0.06172839506172839,0,0,0.06172839506172839,90.67901234567901,0)" xlink:href="#D"/><use transform="matrix(0.06172839506172839,0,0,0.06172839506172839,103.0246913580247,0)" xlink:href="#D"/><use transform="matrix(0.06172839506172839,0,0,0.06172839506172839,115.37037037037038,0)" xlink:href="#D"/></g><g id="q"><use transform="matrix(0.06172839506172839,0,0,0.06172839506172839,0,0)" xlink:href="#P"/><use transform="matrix(0.06172839506172839,0,0,0.06172839506172839,12.345679012345679,0)" xlink:href="#Q"/></g><g id="r"><use transform="matrix(0.06172839506172839,0,0,0.06172839506172839,0,0)" xlink:href="#P"/><use transform="matrix(0.06172839506172839,0,0,0.06172839506172839,12.345679012345679,0)" xlink:href="#x"/></g><g id="s"><use transform="matrix(0.06172839506172839,0,0,0.06172839506172839,0,0)" xlink:href="#G"/><use transform="matrix(0.06172839506172839,0,0,0.06172839506172839,13.518518518518517,0)" xlink:href="#H"/><use transform="matrix(0.06172839506172839,0,0,0.06172839506172839,33.2716049382716,0)" xlink:href="#I"/></g><path fill="#333" d="M24-248c120-7 223 5 221 122C244-46 201 0 124 0H24v-248zM76-40c74 7 117-18 117-86 0-67-45-88-117-82v168" id="S"/><path fill="#333" d="M185-48c-13 30-37 53-82 52C43 2 14-33 14-96s30-98 90-98c62 0 83 45 84 108H66c0 31 8 55 39 56 18 0 30-7 34-22zm-45-69c5-46-57-63-70-21-2 6-4 13-4 21h74" id="T"/><path fill="#333" d="M85 4C-2 5 27-109 22-190h50c7 57-23 150 33 157 60-5 35-97 40-157h50l1 190h-47c-2-12 1-28-3-38-12 25-28 42-61 42" id="U"/><path fill="#333" d="M88-194c31-1 46 15 58 34l-1-101h50l1 261h-48c-2-10 0-23-3-31C134-8 116 4 84 4 32 4 16-41 15-95c0-56 19-97 73-99zm17 164c33 0 40-30 41-66 1-37-9-64-41-64s-38 30-39 65c0 43 13 65 39 65" id="V"/><g id="t"><use transform="matrix(0.07407407407407407,0,0,0.07407407407407407,0,0)" xlink:href="#S"/><use transform="matrix(0.07407407407407407,0,0,0.07407407407407407,19.185185185185183,0)" xlink:href="#T"/><use transform="matrix(0.07407407407407407,0,0,0.07407407407407407,34,0)" xlink:href="#U"/><use transform="matrix(0.07407407407407407,0,0,0.07407407407407407,50.22222222222222,0)" xlink:href="#V"/><use transform="matrix(0.07407407407407407,0,0,0.07407407407407407,66.44444444444444,0)" xlink:href="#M"/></g><path fill="#333" d="M24 0v-248h52V0H24" id="W"/><path fill="#333" d="M25-224v-37h50v37H25zM25 0v-190h50V0H25" id="X"/><path fill="#333" d="M190-63c-7 42-38 67-86 67-59 0-84-38-90-98-12-110 154-137 174-36l-49 2c-2-19-15-32-35-32-30 0-35 28-38 64-6 74 65 87 74 30" id="Y"/><path fill="#333" d="M25 0v-261h50V0H25" id="Z"/><g id="u"><use transform="matrix(0.07407407407407407,0,0,0.07407407407407407,0,0)" xlink:href="#W"/><use transform="matrix(0.07407407407407407,0,0,0.07407407407407407,7.4074074074074066,0)" xlink:href="#F"/><use transform="matrix(0.07407407407407407,0,0,0.07407407407407407,23.629629629629623,0)" xlink:href="#X"/><use transform="matrix(0.07407407407407407,0,0,0.07407407407407407,31.03703703703703,0)" xlink:href="#Y"/><use transform="matrix(0.07407407407407407,0,0,0.07407407407407407,45.85185185185185,0)" xlink:href="#X"/><use transform="matrix(0.07407407407407407,0,0,0.07407407407407407,53.25925925925926,0)" xlink:href="#M"/><use transform="matrix(0.07407407407407407,0,0,0.07407407407407407,68.07407407407406,0)" xlink:href="#Z"/></g><g id="v"><use transform="matrix(0.06172839506172839,0,0,0.06172839506172839,0,0)" xlink:href="#F"/><use transform="matrix(0.043209876543209874,0,0,0.043209876543209874,13.518518518518517,3.1111111111111107)" xlink:href="#P"/></g><use transform="matrix(0.06172839506172839,0,0,0.06172839506172839,0,0)" xlink:href="#Q" id="w"/></defs></g></svg>