<svg xmlns="http://www.w3.org/2000/svg" xmlns:xlink="http://www.w3.org/1999/xlink" xmlns:lucid="lucid" width="962.67" height="526.92"><g transform="translate(-277.33333333333337 -179.6199531653221)" lucid:page-tab-id="0_0"><path d="M0 0h1870.4v1323.2H0z" fill="#fff"/><path d="M782.67 485.62c0-3.3 2.68-6 6-6h188c3.3 0 6 2.7 6 6v48c0 3.3-2.7 6-6 6h-188c-3.32 0-6-2.7-6-6z" fill="none"/><use xlink:href="#a" transform="matrix(1,0,0,1,782.6666666666666,479.61995316532216) translate(33.05555555555554 21.111111111111114)"/><use xlink:href="#b" transform="matrix(1,0,0,1,782.6666666666666,479.61995316532216) translate(74.35185185185185 21.111111111111114)"/><use xlink:href="#c" transform="matrix(1,0,0,1,782.6666666666666,479.61995316532216) translate(36.14197530864199 47.777777777777786)"/><use xlink:href="#d" transform="matrix(1,0,0,1,782.6666666666666,479.61995316532216) translate(105.89506172839506 47.777777777777786)"/><path d="M584 339.62h240v60H584z" fill="none"/><use xlink:href="#e" transform="matrix(1,0,0,1,584,339.6199531653221) translate(115 33.6)"/><path d="M297.33 199.62h240v60h-240z" fill="none"/><use xlink:href="#f" transform="matrix(1,0,0,1,297.33333333333337,199.6199531653221) translate(1.0000000000000142 35.33333333333333)"/><use xlink:href="#g" transform="matrix(1,0,0,1,297.33333333333337,199.6199531653221) translate(89.66666666666667 35.33333333333333)"/><path d="M941.33 619.62H1100v60H941.33z" fill="none"/><use xlink:href="#h" transform="matrix(1,0,0,1,941.3333333333333,619.6199531653222) translate(0 17.77777777777778)"/><use xlink:href="#i" transform="matrix(1,0,0,1,941.3333333333333,619.6199531653222) translate(28.333333333333332 17.77777777777778)"/><use xlink:href="#j" transform="matrix(1,0,0,1,941.3333333333333,619.6199531653222) translate(47.46913580246913 17.77777777777778)"/><use xlink:href="#k" transform="matrix(1,0,0,1,941.3333333333333,619.6199531653222) translate(78.33333333333333 17.77777777777778)"/><path d="M1100 392.3h120v60h-120z" fill="none"/><use xlink:href="#l" transform="matrix(1,0,0,1,1100,392.2866198319888) translate(39.025 33.6)"/><use xlink:href="#m" transform="matrix(1,0,0,1,1100,392.2866198319888) translate(44.025 33.6)"/><path d="M762.67 339.62h240v60h-240z" fill="none"/><use xlink:href="#n" transform="matrix(1,0,0,1,762.6666666666666,339.6199531653221) translate(110 33.6)"/><path d="M360 339.62h240v60H360z" fill="none"/><use xlink:href="#o" transform="matrix(1,0,0,1,360,339.6199531653221) translate(115 33.6)"/><path d="M580 233.62h240v60H580z" fill="none"/><use xlink:href="#p" transform="matrix(1,0,0,1,580,233.6199531653221) translate(114.05 33.6)"/><path d="M980 492.3h240v60H980z" fill="none"/><use xlink:href="#q" transform="matrix(1,0,0,1,980,492.2866198319888) translate(89.20123456790124 21.022222222222222)"/><use xlink:href="#r" transform="matrix(1,0,0,1,980,492.2866198319888) translate(52.386111111111134 47.95555555555555)"/><use xlink:href="#s" transform="matrix(1,0,0,1,980,492.2866198319888) translate(77.94783950617285 47.95555555555555)"/><use xlink:href="#t" transform="matrix(1,0,0,1,980,492.2866198319888) translate(129.07129629629628 47.95555555555555)"/><path d="M380 479.62h240v60H380z" fill="none"/><use xlink:href="#u" transform="matrix(1,0,0,1,380,479.6199531653221) translate(61.666666666666664 21.111111111111114)"/><use xlink:href="#c" transform="matrix(1,0,0,1,380,479.6199531653221) translate(56.14197530864199 47.777777777777786)"/><use xlink:href="#d" transform="matrix(1,0,0,1,380,479.6199531653221) translate(125.89506172839506 47.777777777777786)"/><path d="M458.83 419.62h639.67M458.87 419.62h-1.54" stroke="#000" stroke-width="3" fill="none"/><path d="M1100 421.12h-1.54v-3h1.54z"/><path d="M480 381.12V459M480 381.16v-1.54" stroke="#000" stroke-width="3" fill="none"/><path d="M480 474.77l-4.64-14.27h9.28z" stroke="#000" stroke-width="3"/><path d="M680 381.12V459M680 381.16v-1.54" stroke="#000" stroke-width="3" fill="none"/><path d="M680 474.77l-4.64-14.27h9.28z" stroke="#000" stroke-width="3"/><path d="M1060 381.12V459M1060 381.16v-1.54" stroke="#000" stroke-width="3" fill="none"/><path d="M1060 474.77l-4.64-14.27h9.28z" stroke="#000" stroke-width="3"/><path d="M680 261.12v4.4m0 5.84v8.77m0 5.85v8.78m0 5.85v8.78m0 5.85V324m0 5.86v8.77m0 5.85v8.78m0 5.85v8.78m0 5.85v4.4M680 261.16v-1.54M680 378.08v1.54" stroke="#000" stroke-width="3" fill="none"/><path d="M1114.63 553.8v.47l-.3 4.58-.73 6.8-.45 3.05m-2.67 14.74l-1.56 6.62-2.2 7.86-2.4 7.42-2.5 6.77m-6.15 13.68l-2.4 4.6-3 5.2-3.07 4.83-3.13 4.5-3.18 4.2-1.5 1.8m-10.23 10.92l-1.57 1.48-3.48 3-3.56 2.82-3.63 2.64-3.72 2.47-3.82 2.32-1.38.78-1.1.58-1.34.66-.87.37m-14.35 4.3l-6.9 1.34-10.23 1.56-12.52 1.37m-14.95 1.14l-13.1.88-16.85.43m-14.98.38l-8.26.2-21.72-.33m-15-.23l-20.04-.32-9.9-.55m-14.98-.83l-28.75-1.6-1.18-.1m-14.94-1.3l-3.65-.43-4.1-.66-4.03-.8-3.92-.98-3.84-1.1-3.76-1.3-3.72-1.42-1.86-.8m-13.25-7l-3.06-2-3.63-2.58-3.63-2.83-3.67-3.1-3.7-3.43-3.77-3.76-1.4-1.53m-9.6-11.5l-.62-.8-4-5.68-4.1-6.32-4.2-7.1-2.94-5.5m-6.53-13.5l-3.5-8.1-4.4-11.5-2.8-8.38m-4.37-14.34l-1.44-4.96-3.98-16.28-1.58-7.9m-2.74-14.74l-1.95-12.4-.3-2.42" stroke="#0c7cba" stroke-width="3" fill="none"/><path d="M1116.13 553.86l-3-.07.04-1.5h3z" fill="#0c7cba"/><path d="M680.47 484.45l5.98 13.76-9.23.9z" stroke="#0c7cba" stroke-width="3" fill="#0c7cba"/><path d="M482.83 541.1l.37 1.98 1.42 5.74 2.22 7.4m4.93 14.8l3.67 10.3 7.1 17.1.8 1.65m6.86 14.03l4.22 7.76 4.66 7.58 3.6 5.23 4.38 5.7m10.82 11.25l2.74 2.4 4.32 3.32 4.26 2.85 4.2 2.42 4.14 2.05 4.08 1.7 2.98 1.03m15.3 2.96l1.25.1h3.72l3.66-.2 3.58-.43 3.52-.66 3.4-.88.98-.3 1.04-.35 1.06-.4 1.1-.48 1.16-.56 1.2-.63 1.26-.74 1.33-.86 1.4-1 .05-.03m11.1-10.97l2.37-3.06 2.78-3.9 3.13-4.8 3.56-6.02 4.1-7.6.52-1.1m6.6-14.18l3.16-7.3 6.5-16.93 1.66-4.9m5-14.8l.9-2.7 7.96-27.28m3.8-15.17l3.77-15.17" stroke="#000" stroke-width="3" fill="none"/><path d="M484.2 541.1l-3 .1-.03-1.58h3z"/><path d="M679.55 491.6l1.8 14.9-9.1-1.8z" stroke="#000" stroke-width="3"/><path d="M520 565.62c0-3.3 2.7-6 6-6h146.67c3.3 0 6 2.7 6 6v48c0 3.3-2.7 6-6 6H526c-3.3 0-6-2.7-6-6z" fill="none"/><g><use xlink:href="#v" transform="matrix(1,0,0,1,520,559.6199531653222) translate(0 17.77777777777778)"/><use xlink:href="#w" transform="matrix(1,0,0,1,520,559.6199531653222) translate(28.333333333333332 17.77777777777778)"/><use xlink:href="#x" transform="matrix(1,0,0,1,520,559.6199531653222) translate(47.46913580246913 17.77777777777778)"/><use xlink:href="#y" transform="matrix(1,0,0,1,520,559.6199531653222) translate(65.98765432098764 17.77777777777778)"/></g><path d="M880 381.5v77.88M880 381.54V380" stroke="#000" stroke-width="3" fill="none"/><path d="M880 475.15l-4.64-14.27h9.28z" stroke="#000" stroke-width="3"/><path d="M940 340h240v60H940z" fill="none"/><g><use xlink:href="#z" transform="matrix(1,0,0,1,940,340) translate(110 33.6)"/></g><path d="M884.05 541.12l.2 6.5-.12 5.2-.2 3m-2.1 14.55l-.52 2.42-1.2 4.52-1.36 4.32-1.53 4.12-1.66 3.94-1.8 3.76-1.96 3.6-.4.67m-8.5 12l-.3.35-2.66 2.96-2.83 2.87-3.03 2.78-3.22 2.68-3.43 2.6-3.68 2.52-3.3 2.05m-13.13 6.62l-1.35.6-5.46 2.07-6 1.96-6.58 1.83-7.3 1.66-1.46.26m-14.55 2.14l-1.46.1-2.33.05-2.27-.03-2.24-.13-2.22-.23-2.18-.3-2.17-.4-2.15-.5-2.15-.6-2.15-.7-2.16-.8-2.2-.9-2.2-1.04-.58-.3m-12.25-8.1l-1.38-1.13-2.62-2.34-2.72-2.67-2.84-3-2.97-3.42-3.1-3.9-3.3-4.5-.6-.9m-7.74-12.52l-2.65-4.8-4.1-8.23-4.36-9.72-1.52-3.8m-5.2-13.76l-2.6-7.5-4.82-15.8-1.25-4.8m-3.64-14.26l-3.1-14.37" stroke="#c92d39" stroke-width="3" fill="none"/><path d="M885.55 541.1l-3 .1-.05-1.58h3z" fill="#c92d39"/><path d="M680.8 484.8l6.92 13.3-9.15 1.52z" stroke="#c92d39" stroke-width="3" fill="#c92d39"/><path d="M740 580h158.67v60H740z" fill="none"/><g><use xlink:href="#A" transform="matrix(1,0,0,1,740,580) translate(0 17.77777777777778)"/><use xlink:href="#B" transform="matrix(1,0,0,1,740,580) translate(28.333333333333332 17.77777777777778)"/><use xlink:href="#C" transform="matrix(1,0,0,1,740,580) translate(47.46913580246913 17.77777777777778)"/><use xlink:href="#k" transform="matrix(1,0,0,1,740,580) translate(65.98765432098764 17.77777777777778)"/></g><defs><path d="M76-208v77h127v40H76V0H24v-248h183v40H76" id="D"/><path d="M139-81c0-46-55-55-73-27H18l9-140h149v37H72l-4 63c44-38 133-4 122 66C201 21 21 35 11-62l49-4c5 18 15 30 39 30 26 0 40-18 40-45" id="E"/><path d="M15-148v-39h180v39H15zm0 97v-39h180v39H15" id="F"/><g id="a"><use transform="matrix(0.06172839506172839,0,0,0.06172839506172839,0,0)" xlink:href="#D"/><use transform="matrix(0.043209876543209874,0,0,0.043209876543209874,13.518518518518517,3.1111111111111107)" xlink:href="#E"/><use transform="matrix(0.06172839506172839,0,0,0.06172839506172839,22.160493827160494,0)" xlink:href="#F"/></g><path d="M111-147c44 9 85 22 84 75-1 49-35 65-84 68v31H91V-4C40-5 12-27 5-72l45-8c4 24 15 38 41 40-2-22 4-51-2-69-39-10-76-22-76-72 0-47 35-60 78-63v-23h20v23c47 1 70 23 78 62l-46 7c-4-18-12-32-32-34v62zm-20-63c-33-4-45 46-13 54 4 1 8 2 13 4v-58zm20 170c39 5 53-51 15-60-7-2-7-2-15-4v64" id="G"/><path d="M101-251c68 0 84 54 84 127C185-50 166 4 99 4S15-52 14-124c-1-75 17-127 87-127zm-1 216c37-5 36-46 36-89s4-89-36-89c-39 0-36 45-36 89 0 43-3 85 36 89" id="H"/><path d="M24 0v-54h51V0H24" id="I"/><g id="b"><use transform="matrix(0.06172839506172839,0,0,0.06172839506172839,0,0)" xlink:href="#G"/><use transform="matrix(0.06172839506172839,0,0,0.06172839506172839,12.345679012345679,0)" xlink:href="#E"/><use transform="matrix(0.06172839506172839,0,0,0.06172839506172839,24.691358024691358,0)" xlink:href="#H"/><use transform="matrix(0.06172839506172839,0,0,0.06172839506172839,37.03703703703704,0)" xlink:href="#H"/><use transform="matrix(0.06172839506172839,0,0,0.06172839506172839,49.382716049382715,0)" xlink:href="#I"/><use transform="matrix(0.06172839506172839,0,0,0.06172839506172839,55.55555555555556,0)" xlink:href="#H"/><use transform="matrix(0.06172839506172839,0,0,0.06172839506172839,67.90123456790124,0)" xlink:href="#H"/><use transform="matrix(0.06172839506172839,0,0,0.06172839506172839,80.24691358024693,0)" xlink:href="#H"/></g><path d="M25-224v-37h50v37H25zM75 22c2 45-34 59-81 51V38c22 5 31-5 31-27v-201h50V22" id="J"/><path d="M128-127c34 4 56 21 59 58 7 91-148 94-172 28-4-9-6-17-7-26l51-5c1 24 16 35 40 36 23 0 39-12 38-36-1-31-31-36-65-34v-40c32 2 59-3 59-33 0-20-13-33-34-33s-33 13-35 32l-50-3c6-44 37-68 86-68 50 0 83 20 83 66 0 35-22 52-53 58" id="K"/><path d="M115-159c48 0 72 30 72 78 0 54-30 85-83 85-64 0-91-50-91-122 0-98 58-163 141-120 15 8 21 24 27 44l-47 6c-5-31-48-31-61-4-7 14-11 33-11 60 9-17 28-27 53-27zM102-35c24 0 36-20 36-45s-11-43-37-43c-23 0-36 14-36 38 0 27 11 50 37 50" id="L"/><path d="M249-155c45 1 62 31 62 79-1 48-18 79-63 79s-61-32-62-79c0-48 16-79 63-79zM97 0H61l162-248h36zM9-172c0-48 16-79 63-78 46 0 62 31 62 78 0 48-18 79-63 79S9-124 9-172zM249-25c24 0 24-26 24-51 0-26-1-52-24-52-24 0-25 26-25 52 0 25 0 51 25 51zM71-120c23 0 24-25 24-52 0-26 0-51-23-51-25 0-25 25-25 51 0 27 1 52 24 52" id="M"/><g id="c"><use transform="matrix(0.06172839506172839,0,0,0.06172839506172839,0,0)" xlink:href="#J"/><use transform="matrix(0.06172839506172839,0,0,0.06172839506172839,6.172839506172839,0)" xlink:href="#F"/><use transform="matrix(0.06172839506172839,0,0,0.06172839506172839,19.1358024691358,0)" xlink:href="#K"/><use transform="matrix(0.06172839506172839,0,0,0.06172839506172839,31.48148148148148,0)" xlink:href="#L"/><use transform="matrix(0.06172839506172839,0,0,0.06172839506172839,43.82716049382716,0)" xlink:href="#M"/></g><path d="M135-194c87-1 58 113 63 194h-50c-7-57 23-157-34-157-59 0-34 97-39 157H25l-1-190h47c2 12-1 28 3 38 12-26 28-41 61-42" id="N"/><path d="M133-34C117-15 103 5 69 4 32 3 11-16 11-54c-1-60 55-63 116-61 1-26-3-47-28-47-18 1-26 9-28 27l-52-2c7-38 36-58 82-57s74 22 75 68l1 82c-1 14 12 18 25 15v27c-30 8-71 5-69-32zm-48 3c29 0 43-24 42-57-32 0-66-3-65 30 0 17 8 27 23 27" id="O"/><path d="M220-157c-53 9-28 100-34 157h-49v-107c1-27-5-49-29-50C55-147 81-57 75 0H25l-1-190h47c2 12-1 28 3 38 10-53 101-56 108 0 13-22 24-43 59-42 82 1 51 116 57 194h-49v-107c-1-25-5-48-29-50" id="P"/><path d="M128 0H69L1-190h53L99-40l48-150h52" id="Q"/><g id="d"><use transform="matrix(0.06172839506172839,0,0,0.06172839506172839,0,0)" xlink:href="#N"/><use transform="matrix(0.06172839506172839,0,0,0.06172839506172839,13.518518518518517,0)" xlink:href="#O"/><use transform="matrix(0.06172839506172839,0,0,0.06172839506172839,25.864197530864196,0)" xlink:href="#P"/><use transform="matrix(0.06172839506172839,0,0,0.06172839506172839,45.61728395061728,0)" xlink:href="#Q"/></g><path d="M138-131c27 9 52 24 51 61 0 53-36 74-89 74S11-19 11-69c0-35 22-54 51-61-78-25-46-121 38-121 51 0 83 19 83 66 0 30-18 49-45 54zm-38-16c24 0 32-13 32-36 1-23-11-34-32-34-22 0-33 12-32 34 0 22 9 36 32 36zm1 116c27 0 37-17 37-43 0-25-13-39-39-39-24 0-37 15-37 40 0 27 11 42 39 42" id="R"/><use transform="matrix(0.05,0,0,0.05,0,0)" xlink:href="#R" id="e"/><path d="M24-248c120-7 223 5 221 122C244-46 201 0 124 0H24v-248zM76-40c74 7 117-18 117-86 0-67-45-88-117-82v168" id="S"/><path fill="#333" d="M185-48c-13 30-37 53-82 52C43 2 14-33 14-96s30-98 90-98c62 0 83 45 84 108H66c0 31 8 55 39 56 18 0 30-7 34-22zm-45-69c5-46-57-63-70-21-2 6-4 13-4 21h74" id="T"/><path fill="#333" d="M85 4C-2 5 27-109 22-190h50c7 57-23 150 33 157 60-5 35-97 40-157h50l1 190h-47c-2-12 1-28-3-38-12 25-28 42-61 42" id="U"/><path fill="#333" d="M88-194c31-1 46 15 58 34l-1-101h50l1 261h-48c-2-10 0-23-3-31C134-8 116 4 84 4 32 4 16-41 15-95c0-56 19-97 73-99zm17 164c33 0 40-30 41-66 1-37-9-64-41-64s-38 30-39 65c0 43 13 65 39 65" id="V"/><path fill="#333" d="M133-34C117-15 103 5 69 4 32 3 11-16 11-54c-1-60 55-63 116-61 1-26-3-47-28-47-18 1-26 9-28 27l-52-2c7-38 36-58 82-57s74 22 75 68l1 82c-1 14 12 18 25 15v27c-30 8-71 5-69-32zm-48 3c29 0 43-24 42-57-32 0-66-3-65 30 0 17 8 27 23 27" id="W"/><g id="f"><use transform="matrix(0.07407407407407407,0,0,0.07407407407407407,0,0)" xlink:href="#S"/><use transform="matrix(0.07407407407407407,0,0,0.07407407407407407,19.185185185185183,0)" xlink:href="#T"/><use transform="matrix(0.07407407407407407,0,0,0.07407407407407407,34,0)" xlink:href="#U"/><use transform="matrix(0.07407407407407407,0,0,0.07407407407407407,50.22222222222222,0)" xlink:href="#V"/><use transform="matrix(0.07407407407407407,0,0,0.07407407407407407,66.44444444444444,0)" xlink:href="#W"/></g><path fill="#333" d="M24 0v-248h195v40H76v63h132v40H76v65h150V0H24" id="X"/><path fill="#333" d="M84 4C32 4 15-41 15-95c0-55 18-99 73-99 29 0 47 12 58 34l2-30h48l-1 265h-49V-32C136-9 114 4 84 4zm21-34c32 0 41-29 41-66 0-36-9-64-40-64-33 0-39 30-40 65 0 43 13 65 39 65" id="Y"/><path fill="#333" d="M25-224v-37h50v37H25zM25 0v-190h50V0H25" id="Z"/><path fill="#333" d="M128 0H69L1-190h53L99-40l48-150h52" id="aa"/><path fill="#333" d="M25 0v-261h50V0H25" id="ab"/><path fill="#333" d="M135-194c87-1 58 113 63 194h-50c-7-57 23-157-34-157-59 0-34 97-39 157H25l-1-190h47c2 12-1 28 3 38 12-26 28-41 61-42" id="ac"/><path fill="#333" d="M115-3C79 11 28 4 28-45v-112H4v-33h27l15-45h31v45h36v33H77v99c-1 23 16 31 38 25v30" id="ad"/><g id="g"><use transform="matrix(0.07407407407407407,0,0,0.07407407407407407,0,0)" xlink:href="#X"/><use transform="matrix(0.07407407407407407,0,0,0.07407407407407407,17.77777777777778,0)" xlink:href="#Y"/><use transform="matrix(0.07407407407407407,0,0,0.07407407407407407,34,0)" xlink:href="#U"/><use transform="matrix(0.07407407407407407,0,0,0.07407407407407407,50.22222222222222,0)" xlink:href="#Z"/><use transform="matrix(0.07407407407407407,0,0,0.07407407407407407,57.629629629629626,0)" xlink:href="#aa"/><use transform="matrix(0.07407407407407407,0,0,0.07407407407407407,72.44444444444444,0)" xlink:href="#W"/><use transform="matrix(0.07407407407407407,0,0,0.07407407407407407,87.25925925925925,0)" xlink:href="#ab"/><use transform="matrix(0.07407407407407407,0,0,0.07407407407407407,94.66666666666666,0)" xlink:href="#T"/><use transform="matrix(0.07407407407407407,0,0,0.07407407407407407,109.48148148148145,0)" xlink:href="#ac"/><use transform="matrix(0.07407407407407407,0,0,0.07407407407407407,125.7037037037037,0)" xlink:href="#ad"/><use transform="matrix(0.07407407407407407,0,0,0.07407407407407407,134.5185185185185,0)" xlink:href="#T"/></g><path fill="#0c7cba" d="M135-194c87-1 58 113 63 194h-50c-7-57 23-157-34-157-59 0-34 97-39 157H25l-1-190h47c2 12-1 28 3 38 12-26 28-41 61-42" id="ae"/><path fill="#0c7cba" d="M139-81c0-46-55-55-73-27H18l9-140h149v37H72l-4 63c44-38 133-4 122 66C201 21 21 35 11-62l49-4c5 18 15 30 39 30 26 0 40-18 40-45" id="af"/><g id="h"><use transform="matrix(0.06172839506172839,0,0,0.06172839506172839,0,0)" xlink:href="#ae"/><use transform="matrix(0.043209876543209874,0,0,0.043209876543209874,13.518518518518517,3.1111111111111107)" xlink:href="#af"/></g><path fill="#0c7cba" d="M15-148v-39h180v39H15zm0 97v-39h180v39H15" id="ag"/><use transform="matrix(0.06172839506172839,0,0,0.06172839506172839,0,0)" xlink:href="#ag" id="i"/><path fill="#0c7cba" d="M23 0v-37h61v-169l-59 37v-38l62-41h46v211h57V0H23" id="ah"/><path fill="#0c7cba" d="M101-251c68 0 84 54 84 127C185-50 166 4 99 4S15-52 14-124c-1-75 17-127 87-127zm-1 216c37-5 36-46 36-89s4-89-36-89c-39 0-36 45-36 89 0 43-3 85 36 89" id="ai"/><g id="j"><use transform="matrix(0.06172839506172839,0,0,0.06172839506172839,0,0)" xlink:href="#ah"/><use transform="matrix(0.06172839506172839,0,0,0.06172839506172839,12.345679012345679,0)" xlink:href="#ai"/></g><path fill="#333" d="M135-194c53 0 70 44 70 98 0 56-19 98-73 100-31 1-45-17-59-34 3 33 2 69 2 105H25l-1-265h48c2 10 0 23 3 31 11-24 29-35 60-35zM114-30c33 0 39-31 40-66 0-38-9-64-40-64-56 0-55 130 0 130" id="aj"/><path fill="#333" d="M220-157c-53 9-28 100-34 157h-49v-107c1-27-5-49-29-50C55-147 81-57 75 0H25l-1-190h47c2 12-1 28 3 38 10-53 101-56 108 0 13-22 24-43 59-42 82 1 51 116 57 194h-49v-107c-1-25-5-48-29-50" id="ak"/><g id="k"><use transform="matrix(0.06172839506172839,0,0,0.06172839506172839,0,0)" xlink:href="#aj"/><use transform="matrix(0.06172839506172839,0,0,0.06172839506172839,13.518518518518517,0)" xlink:href="#ak"/><use transform="matrix(0.06172839506172839,0,0,0.06172839506172839,33.2716049382716,0)" xlink:href="#aa"/></g><path d="M135-194c53 0 70 44 70 98 0 56-19 98-73 100-31 1-45-17-59-34 3 33 2 69 2 105H25l-1-265h48c2 10 0 23 3 31 11-24 29-35 60-35zM114-30c33 0 39-31 40-66 0-38-9-64-40-64-56 0-55 130 0 130" id="al"/><g id="m"><use transform="matrix(0.05,0,0,0.05,0,0)" xlink:href="#al"/><use transform="matrix(0.05,0,0,0.05,10.950000000000001,0)" xlink:href="#P"/><use transform="matrix(0.05,0,0,0.05,26.950000000000003,0)" xlink:href="#Q"/></g><path d="M23 0v-37h61v-169l-59 37v-38l62-41h46v211h57V0H23" id="am"/><path d="M182-182c0 78-84 86-111 141h115V0H12c-6-101 99-100 120-180 1-22-12-31-33-32-23 0-32 14-35 34l-49-3c5-45 32-70 84-70 51 0 83 22 83 69" id="an"/><g id="n"><use transform="matrix(0.05,0,0,0.05,0,0)" xlink:href="#am"/><use transform="matrix(0.05,0,0,0.05,10,0)" xlink:href="#an"/></g><use transform="matrix(0.05,0,0,0.05,0,0)" xlink:href="#H" id="o"/><path d="M121-226c-27-7-43 5-38 36h38v33H83V0H34v-157H6v-33h28c-9-59 32-81 87-68v32" id="ao"/><g id="p"><use transform="matrix(0.05,0,0,0.05,0,0)" xlink:href="#ao"/><use transform="matrix(0.05,0,0,0.05,5.95,0)" xlink:href="#ao"/></g><path d="M110-251c83-7 118 89 53 130-17 10-36 21-38 46H78c2-56 65-53 71-103 2-21-15-35-38-34-25 1-41 14-44 38l-50-2c6-48 39-70 93-75zM77 0v-47h51V0H77" id="ap"/><g id="q"><use transform="matrix(0.06234567901234567,0,0,0.06234567901234567,0,0)" xlink:href="#D"/><use transform="matrix(0.043641975308641966,0,0,0.043641975308641966,13.653703703703702,3.1422222222222214)" xlink:href="#L"/><use transform="matrix(0.06234567901234567,0,0,0.06234567901234567,22.382098765432097,0)" xlink:href="#F"/><use transform="matrix(0.06234567901234567,0,0,0.06234567901234567,35.474691358024685,0)" xlink:href="#G"/><use transform="matrix(0.06234567901234567,0,0,0.06234567901234567,47.94382716049382,0)" xlink:href="#ap"/></g><g id="r"><use transform="matrix(0.06234567901234567,0,0,0.06234567901234567,0,0)" xlink:href="#J"/><use transform="matrix(0.06234567901234567,0,0,0.06234567901234567,6.234567901234566,0)" xlink:href="#F"/></g><g id="s"><use transform="matrix(0.06234567901234567,0,0,0.06234567901234567,0,0)" xlink:href="#K"/><use transform="matrix(0.06234567901234567,0,0,0.06234567901234567,12.469135802469133,0)" xlink:href="#L"/><use transform="matrix(0.06234567901234567,0,0,0.06234567901234567,24.938271604938265,0)" xlink:href="#M"/></g><g id="t"><use transform="matrix(0.06234567901234567,0,0,0.06234567901234567,0,0)" xlink:href="#N"/><use transform="matrix(0.06234567901234567,0,0,0.06234567901234567,13.653703703703702,0)" xlink:href="#O"/><use transform="matrix(0.06234567901234567,0,0,0.06234567901234567,26.122839506172834,0)" xlink:href="#P"/><use transform="matrix(0.06234567901234567,0,0,0.06234567901234567,46.073456790123444,0)" xlink:href="#Q"/></g><path d="M24-248c93 1 206-16 204 79-1 75-69 88-152 82V0H24v-248zm52 121c47 0 100 7 100-41 0-47-54-39-100-39v80" id="aq"/><path d="M165-50V0h-47v-50H5v-38l105-160h55v161h33v37h-33zm-47-37l2-116L46-87h72" id="ar"/><g id="u"><use transform="matrix(0.06172839506172839,0,0,0.06172839506172839,0,0)" xlink:href="#aq"/><use transform="matrix(0.043209876543209874,0,0,0.043209876543209874,14.814814814814813,3.1111111111111107)" xlink:href="#ar"/><use transform="matrix(0.06172839506172839,0,0,0.06172839506172839,23.456790123456788,0)" xlink:href="#F"/><use transform="matrix(0.06172839506172839,0,0,0.06172839506172839,36.419753086419746,0)" xlink:href="#G"/><use transform="matrix(0.06172839506172839,0,0,0.06172839506172839,48.76543209876542,0)" xlink:href="#L"/><use transform="matrix(0.06172839506172839,0,0,0.06172839506172839,61.1111111111111,0)" xlink:href="#H"/><use transform="matrix(0.06172839506172839,0,0,0.06172839506172839,73.45679012345678,0)" xlink:href="#I"/><use transform="matrix(0.06172839506172839,0,0,0.06172839506172839,79.62962962962962,0)" xlink:href="#H"/><use transform="matrix(0.06172839506172839,0,0,0.06172839506172839,91.9753086419753,0)" xlink:href="#H"/><use transform="matrix(0.06172839506172839,0,0,0.06172839506172839,104.32098765432099,0)" xlink:href="#H"/></g><g id="v"><use transform="matrix(0.06172839506172839,0,0,0.06172839506172839,0,0)" xlink:href="#N"/><use transform="matrix(0.043209876543209874,0,0,0.043209876543209874,13.518518518518517,3.1111111111111107)" xlink:href="#ar"/></g><use transform="matrix(0.06172839506172839,0,0,0.06172839506172839,0,0)" xlink:href="#F" id="w"/><use transform="matrix(0.06172839506172839,0,0,0.06172839506172839,0,0)" xlink:href="#R" id="x"/><g id="y"><use transform="matrix(0.06172839506172839,0,0,0.06172839506172839,0,0)" xlink:href="#al"/><use transform="matrix(0.06172839506172839,0,0,0.06172839506172839,13.518518518518517,0)" xlink:href="#P"/><use transform="matrix(0.06172839506172839,0,0,0.06172839506172839,33.2716049382716,0)" xlink:href="#Q"/></g><g id="z"><use transform="matrix(0.05,0,0,0.05,0,0)" xlink:href="#am"/><use transform="matrix(0.05,0,0,0.05,10,0)" xlink:href="#R"/></g><path fill="#c92d39" d="M135-194c87-1 58 113 63 194h-50c-7-57 23-157-34-157-59 0-34 97-39 157H25l-1-190h47c2 12-1 28 3 38 12-26 28-41 61-42" id="as"/><path fill="#c92d39" d="M115-159c48 0 72 30 72 78 0 54-30 85-83 85-64 0-91-50-91-122 0-98 58-163 141-120 15 8 21 24 27 44l-47 6c-5-31-48-31-61-4-7 14-11 33-11 60 9-17 28-27 53-27zM102-35c24 0 36-20 36-45s-11-43-37-43c-23 0-36 14-36 38 0 27 11 50 37 50" id="at"/><g id="A"><use transform="matrix(0.06172839506172839,0,0,0.06172839506172839,0,0)" xlink:href="#as"/><use transform="matrix(0.043209876543209874,0,0,0.043209876543209874,13.518518518518517,3.1111111111111107)" xlink:href="#at"/></g><path fill="#c92d39" d="M15-148v-39h180v39H15zm0 97v-39h180v39H15" id="au"/><use transform="matrix(0.06172839506172839,0,0,0.06172839506172839,0,0)" xlink:href="#au" id="B"/><path fill="#c92d39" d="M165-50V0h-47v-50H5v-38l105-160h55v161h33v37h-33zm-47-37l2-116L46-87h72" id="av"/><use transform="matrix(0.06172839506172839,0,0,0.06172839506172839,0,0)" xlink:href="#av" id="C"/></defs></g></svg>