<svg xmlns="http://www.w3.org/2000/svg" xmlns:xlink="http://www.w3.org/1999/xlink" xmlns:lucid="lucid" width="1680" height="826"><g transform="translate(-600 -20)" lucid:page-tab-id="0_0"><path d="M0 0h3676.8v1323.2H0z" fill="#fff"/><path d="M1302 206c0-3.3 2.7-6 6-6h228c3.3 0 6 2.7 6 6v48c0 3.3-2.7 6-6 6h-228c-3.3 0-6-2.7-6-6z" fill="none"/><use xlink:href="#a" transform="matrix(1,0,0,1,1301.9999999999993,200) translate(19.481481481481467 35.333333333333336)"/><path d="M1100 123c0-3.3 2.7-6 6-6h228c3.3 0 6 2.7 6 6v48c0 3.3-2.7 6-6 6h-228c-3.3 0-6-2.7-6-6z" fill="none"/><use xlink:href="#b" transform="matrix(1,0,0,1,1100,117) translate(94.11111111111111 35.333333333333336)"/><path d="M640 606c0-3.3 2.7-6 6-6h408c3.3 0 6 2.7 6 6v214c0 3.3-2.7 6-6 6H646c-3.3 0-6-2.7-6-6z" fill="none"/><use xlink:href="#c" transform="matrix(1,0,0,1,640,600) translate(0 19.555555555555557)"/><use xlink:href="#d" transform="matrix(1,0,0,1,640,600) translate(21.049382716049383 19.555555555555557)"/><use xlink:href="#e" transform="matrix(1,0,0,1,640,600) translate(42.09876543209876 19.555555555555557)"/><use xlink:href="#f" transform="matrix(1,0,0,1,640,600) translate(102.66666666666666 19.555555555555557)"/><use xlink:href="#g" transform="matrix(1,0,0,1,640,600) translate(217.89506172839506 19.555555555555557)"/><use xlink:href="#h" transform="matrix(1,0,0,1,640,600) translate(0 48.88888888888889)"/><use xlink:href="#d" transform="matrix(1,0,0,1,640,600) translate(21.049382716049383 48.88888888888889)"/><use xlink:href="#e" transform="matrix(1,0,0,1,640,600) translate(42.09876543209876 48.88888888888889)"/><use xlink:href="#i" transform="matrix(1,0,0,1,640,600) translate(102.66666666666666 48.88888888888889)"/><use xlink:href="#j" transform="matrix(1,0,0,1,640,600) translate(208.38888888888889 48.88888888888889)"/><use xlink:href="#k" transform="matrix(1,0,0,1,640,600) translate(0 78.22222222222223)"/><use xlink:href="#d" transform="matrix(1,0,0,1,640,600) translate(21.049382716049383 78.22222222222223)"/><use xlink:href="#e" transform="matrix(1,0,0,1,640,600) translate(42.09876543209876 78.22222222222223)"/><use xlink:href="#l" transform="matrix(1,0,0,1,640,600) translate(102.66666666666666 78.22222222222223)"/><use xlink:href="#m" transform="matrix(1,0,0,1,640,600) translate(202.95679012345678 78.22222222222223)"/><use xlink:href="#n" transform="matrix(1,0,0,1,640,600) translate(273.4382716049383 78.22222222222223)"/><use xlink:href="#o" transform="matrix(1,0,0,1,640,600) translate(0 107.55555555555556)"/><use xlink:href="#p" transform="matrix(1,0,0,1,640,600) translate(23.08641975308642 107.55555555555556)"/><use xlink:href="#e" transform="matrix(1,0,0,1,640,600) translate(44.1358024691358 107.55555555555556)"/><use xlink:href="#l" transform="matrix(1,0,0,1,640,600) translate(104.7037037037037 107.55555555555556)"/><use xlink:href="#m" transform="matrix(1,0,0,1,640,600) translate(204.99382716049382 107.55555555555556)"/><use xlink:href="#j" transform="matrix(1,0,0,1,640,600) translate(275.4753086419753 107.55555555555556)"/><use xlink:href="#q" transform="matrix(1,0,0,1,640,600) translate(0 136.8888888888889)"/><use xlink:href="#r" transform="matrix(1,0,0,1,640,600) translate(52.28395061728395 136.8888888888889)"/><use xlink:href="#s" transform="matrix(1,0,0,1,640,600) translate(149.85802469135803 136.8888888888889)"/><use xlink:href="#t" transform="matrix(1,0,0,1,640,600) translate(185.09876543209876 136.8888888888889)"/><use xlink:href="#u" transform="matrix(1,0,0,1,640,600) translate(212.25925925925924 136.8888888888889)"/><use xlink:href="#v" transform="matrix(1,0,0,1,640,600) translate(267.8703703703703 136.8888888888889)"/><use xlink:href="#w" transform="matrix(1,0,0,1,640,600) translate(0 166.22222222222223)"/><use xlink:href="#r" transform="matrix(1,0,0,1,640,600) translate(52.28395061728395 166.22222222222223)"/><use xlink:href="#s" transform="matrix(1,0,0,1,640,600) translate(149.85802469135803 166.22222222222223)"/><use xlink:href="#t" transform="matrix(1,0,0,1,640,600) translate(185.09876543209876 166.22222222222223)"/><use xlink:href="#u" transform="matrix(1,0,0,1,640,600) translate(212.25925925925924 166.22222222222223)"/><use xlink:href="#x" transform="matrix(1,0,0,1,640,600) translate(267.8703703703703 166.22222222222223)"/><path d="M1302 488c0-3.3 2.7-6 6-6h228c3.3 0 6 2.7 6 6v48c0 3.3-2.7 6-6 6h-228c-3.3 0-6-2.7-6-6z" fill="none"/><use xlink:href="#y" transform="matrix(1,0,0,1,1301.9999999999993,482) translate(46.14814814814814 35.333333333333336)"/><path d="M880 488c0-3.3 2.7-6 6-6h228c3.3 0 6 2.7 6 6v48c0 3.3-2.7 6-6 6H886c-3.3 0-6-2.7-6-6z" fill="none"/><use xlink:href="#z" transform="matrix(1,0,0,1,880,482) translate(111.11111111111111 35.333333333333336)"/><path d="M620 157c0-3.3 2.7-6 6-6h228c3.3 0 6 2.7 6 6v48c0 3.3-2.7 6-6 6H626c-3.3 0-6-2.7-6-6z" fill="none"/><use xlink:href="#A" transform="matrix(1,0,0,1,620,151) translate(105.92592592592592 35.333333333333336)"/><path d="M960 480c0 22.1-17.9 40-40 40s-40-17.9-40-40 17.9-40 40-40 40 17.9 40 40z" stroke="#000" stroke-width="5" fill="#fff"/><use xlink:href="#B" transform="matrix(1,0,0,1,885,445) translate(27.59259259259259 41.020833333333336)"/><path d="M1300 260c0 22.1-17.9 40-40 40s-40-17.9-40-40 17.9-40 40-40 40 17.9 40 40z" stroke="#000" stroke-width="5" fill="#fff"/><use xlink:href="#C" transform="matrix(1,0,0,1,1225,225) translate(27.59259259259259 41.020833333333336)"/><path d="M1640 260c0 22.1-17.9 40-40 40s-40-17.9-40-40 17.9-40 40-40 40 17.9 40 40z" stroke="#000" stroke-width="5" fill="#fff"/><use xlink:href="#D" transform="matrix(1,0,0,1,1565,225) translate(27.59259259259259 41.020833333333336)"/><path d="M1980 480c0 22.1-17.9 40-40 40s-40-17.9-40-40 17.9-40 40-40 40 17.9 40 40z" stroke="#000" stroke-width="5" fill="#fff"/><use xlink:href="#E" transform="matrix(1,0,0,1,1905,445) translate(27.59259259259259 41.020833333333336)"/><path d="M780 100c0 22.1-17.9 40-40 40s-40-17.9-40-40 17.9-40 40-40 40 17.9 40 40z" stroke="#000" stroke-width="5" fill="#fff"/><use xlink:href="#F" transform="matrix(1,0,0,1,705,65) translate(27.59259259259259 41.020833333333336)"/><path d="M1120 100c0 22.1-17.9 40-40 40s-40-17.9-40-40 17.9-40 40-40 40 17.9 40 40z" stroke="#000" stroke-width="5" fill="#fff"/><use xlink:href="#G" transform="matrix(1,0,0,1,1045,65) translate(27.59259259259259 41.020833333333336)"/><path d="M1840 100c0 22.1-17.9 40-40 40s-40-17.9-40-40 17.9-40 40-40 40 17.9 40 40z" stroke="#000" stroke-width="5" fill="#fff"/><use xlink:href="#H" transform="matrix(1,0,0,1,1765,65) translate(27.59259259259259 41.020833333333336)"/><path d="M2180 100c0 22.1-17.9 40-40 40s-40-17.9-40-40 17.9-40 40-40 40 17.9 40 40z" stroke="#000" stroke-width="5" fill="#fff"/><use xlink:href="#I" transform="matrix(1,0,0,1,2105,65) translate(27.59259259259259 41.020833333333336)"/><path d="M785 100h227.64" stroke="#000" stroke-width="5" fill="none"/><path d="M785.07 102.5h-2.72l.15-2.47-.1-2.53h2.67z"/><path d="M1029.4 100l-14.26 4.64v-9.28z" stroke="#000" stroke-width="5"/><path d="M1114.34 128.94l91.53 91.93" stroke="#000" stroke-width="5" fill="none"/><path d="M1116.16 127.23l-3.54 3.52-1.65-1.65.14-.13 3.07-3.74z"/><path d="M1217.7 232.75l-13.35-6.84 6.57-6.53z" stroke="#000" stroke-width="5"/><path d="M958.12 456.12l250-153.82" stroke="#000" stroke-width="5" fill="none"/><path d="M959.5 458.2l-2.3 1.4-1.4-2.54-1.25-1.68 2.32-1.43z"/><path d="M1222.4 293.5l-9.72 11.44-4.85-7.9z" stroke="#000" stroke-width="5"/><path d="M1305 260h227.64" stroke="#000" stroke-width="5" fill="none"/><path d="M1305.07 262.5h-2.72l.15-2.47-.1-2.53h2.67z"/><path d="M1549.4 260l-14.26 4.64v-9.28z" stroke="#000" stroke-width="5"/><path d="M1636.62 286.16l245.62 159.3" stroke="#000" stroke-width="5" fill="none"/><path d="M1638.03 284.1l-2.72 4.2-2.37-1.55 1.56-1.9 1.36-2.17z"/><path d="M1896.3 454.6l-14.5-3.88 5.06-7.78z" stroke="#000" stroke-width="5"/><path d="M1632.68 229.2l111.72-91.56" stroke="#000" stroke-width="5" fill="none"/><path d="M1634.3 231.08l-1.83 1.5-3.45-3.63 2.12-1.74z"/><path d="M1757.36 127l-8.1 12.64-5.87-7.17z" stroke="#000" stroke-width="5"/><path d="M1845 100h227.64" stroke="#000" stroke-width="5" fill="none"/><path d="M1845.07 102.5h-2.72l.15-2.47-.1-2.53h2.67z"/><path d="M2089.4 100l-14.26 4.64v-9.28z" stroke="#000" stroke-width="5"/><path d="M1420 457.5v-395M1420 457.44V460M1420 62.56V60" stroke="#5e5e5e" stroke-width="5" fill="none"/><path d="M1900 488c0-3.3 2.7-6 6-6h228c3.3 0 6 2.7 6 6v48c0 3.3-2.7 6-6 6h-228c-3.3 0-6-2.7-6-6z" fill="none"/><g><use xlink:href="#J" transform="matrix(1,0,0,1,1900,482) translate(111.11111111111111 35.333333333333336)"/></g><path d="M1140 306c0-3.3 2.7-6 6-6h228c3.3 0 6 2.7 6 6v48c0 3.3-2.7 6-6 6h-228c-3.3 0-6-2.7-6-6z" fill="none"/><g><use xlink:href="#K" transform="matrix(1,0,0,1,1140,300) translate(111.11111111111111 35.333333333333336)"/></g><path d="M1480 306c0-3.3 2.7-6 6-6h228c3.3 0 6 2.7 6 6v48c0 3.3-2.7 6-6 6h-228c-3.3 0-6-2.7-6-6z" fill="none"/><g><use xlink:href="#L" transform="matrix(1,0,0,1,1480,300) translate(111.11111111111111 35.333333333333336)"/></g><path d="M1060 386c0-3.3 2.7-6 6-6h228c3.3 0 6 2.7 6 6v48c0 3.3-2.7 6-6 6h-228c-3.3 0-6-2.7-6-6z" fill="none"/><g><use xlink:href="#M" transform="matrix(1,0,0,1,1060,380) translate(73.7037037037037 35.333333333333336)"/></g><path d="M1560 366c0-3.3 2.7-6 6-6h228c3.3 0 6 2.7 6 6v48c0 3.3-2.7 6-6 6h-228c-3.3 0-6-2.7-6-6z" fill="none"/><g><use xlink:href="#N" transform="matrix(1,0,0,1,1560,360) translate(73.7037037037037 35.333333333333336)"/><use xlink:href="#O" transform="matrix(1,0,0,1,1560,360) translate(132.22222222222223 35.333333333333336)"/></g><path d="M950.4 157c0-3.3 2.7-6 6-6h228c3.3 0 6 2.7 6 6v48c0 3.3-2.7 6-6 6h-228c-3.3 0-6-2.7-6-6z" fill="none"/><g><use xlink:href="#P" transform="matrix(1,0,0,1,950.3999999999999,151) translate(105.92592592592592 35.333333333333336)"/></g><path d="M800 46c0-3.3 2.7-6 6-6h228c3.3 0 6 2.7 6 6v48c0 3.3-2.7 6-6 6H806c-3.3 0-6-2.7-6-6z" fill="none"/><g><use xlink:href="#Q" transform="matrix(1,0,0,1,800,40) translate(63.33333333333333 35.333333333333336)"/></g><path d="M1080 106c0-3.3 2.7-6 6-6h228c3.3 0 6 2.7 6 6v48c0 3.3-2.7 6-6 6h-228c-3.3 0-6-2.7-6-6z" fill="none"/><g><use xlink:href="#R" transform="matrix(1,0,0,1,1080,100) translate(68.07407407407408 35.333333333333336)"/></g><path d="M1100 86c0-3.3 2.7-6 6-6h228c3.3 0 6 2.7 6 6v48c0 3.3-2.7 6-6 6h-228c-3.3 0-6-2.7-6-6z" fill="none"/><g><use xlink:href="#P" transform="matrix(1,0,0,1,1100,80) translate(105.92592592592592 35.333333333333336)"/></g><path d="M1520 123c0-3.3 2.7-6 6-6h228c3.3 0 6 2.7 6 6v48c0 3.3-2.7 6-6 6h-228c-3.3 0-6-2.7-6-6z" fill="none"/><g><use xlink:href="#S" transform="matrix(1,0,0,1,1520,117) translate(99.29629629629629 35.333333333333336)"/></g><path d="M1500 106c0-3.3 2.7-6 6-6h228c3.3 0 6 2.7 6 6v48c0 3.3-2.7 6-6 6h-228c-3.3 0-6-2.7-6-6z" fill="none"/><g><use xlink:href="#T" transform="matrix(1,0,0,1,1500,100) translate(71.70370370370371 35.333333333333336)"/></g><path d="M1520 86c0-3.3 2.7-6 6-6h228c3.3 0 6 2.7 6 6v48c0 3.3-2.7 6-6 6h-228c-3.3 0-6-2.7-6-6z" fill="none"/><g><use xlink:href="#L" transform="matrix(1,0,0,1,1520,80) translate(111.11111111111111 35.333333333333336)"/></g><path d="M1840 46c0-3.3 2.7-6 6-6h228c3.3 0 6 2.7 6 6v48c0 3.3-2.7 6-6 6h-228c-3.3 0-6-2.7-6-6z" fill="none"/><g><use xlink:href="#U" transform="matrix(1,0,0,1,1840,40) translate(63.33333333333333 35.333333333333336)"/><use xlink:href="#O" transform="matrix(1,0,0,1,1840,40) translate(142.5925925925926 35.333333333333336)"/></g><path d="M2020 157c0-3.3 2.7-6 6-6h228c3.3 0 6 2.7 6 6v48c0 3.3-2.7 6-6 6h-228c-3.3 0-6-2.7-6-6z" fill="none"/><g><use xlink:href="#V" transform="matrix(1,0,0,1,2020,151) translate(105.92592592592592 35.333333333333336)"/></g><path d="M1680 157c0-3.3 2.7-6 6-6h228c3.3 0 6 2.7 6 6v48c0 3.3-2.7 6-6 6h-228c-3.3 0-6-2.7-6-6z" fill="none"/><g><use xlink:href="#W" transform="matrix(1,0,0,1,1680,151) translate(105.92592592592592 35.333333333333336)"/></g><defs><path fill="#333" d="M67-93c0 74 22 123 53 168H70C40 30 18-18 18-93s22-123 52-168h50c-32 44-53 94-53 168" id="X"/><path fill="#333" d="M23 0v-37h61v-169l-59 37v-38l62-41h46v211h57V0H23" id="Y"/><path fill="#333" d="M125-100v72H85v-72H15v-39h70v-72h40v72h71v39h-71" id="Z"/><path fill="#333" d="M25-224v-37h50v37H25zM25 0v-190h50V0H25" id="aa"/><path fill="#333" d="M102-93c0 74-22 123-52 168H0C30 29 54-18 53-93c0-74-22-123-53-168h50c30 45 52 94 52 168" id="ab"/><path fill="#333" d="M220-157c-53 9-28 100-34 157h-49v-107c1-27-5-49-29-50C55-147 81-57 75 0H25l-1-190h47c2 12-1 28 3 38 10-53 101-56 108 0 13-22 24-43 59-42 82 1 51 116 57 194h-49v-107c-1-25-5-48-29-50" id="ac"/><path fill="#333" d="M15-148v-39h180v39H15zm0 97v-39h180v39H15" id="ad"/><path fill="#333" d="M182-182c0 78-84 86-111 141h115V0H12c-6-101 99-100 120-180 1-22-12-31-33-32-23 0-32 14-35 34l-49-3c5-45 32-70 84-70 51 0 83 22 83 69" id="ae"/><g id="a"><use transform="matrix(0.07407407407407408,0,0,0.07407407407407408,0,0)" xlink:href="#X"/><use transform="matrix(0.07407407407407408,0,0,0.07407407407407408,8.814814814814817,0)" xlink:href="#Y"/><use transform="matrix(0.07407407407407408,0,0,0.07407407407407408,23.629629629629633,0)" xlink:href="#Z"/><use transform="matrix(0.07407407407407408,0,0,0.07407407407407408,39.18518518518519,0)" xlink:href="#aa"/><use transform="matrix(0.05185185185185186,0,0,0.05185185185185186,46.592592592592595,3.733333333333334)" xlink:href="#Y"/><use transform="matrix(0.07407407407407408,0,0,0.07407407407407408,56.96296296296297,0)" xlink:href="#ab"/><use transform="matrix(0.05185185185185186,0,0,0.05185185185185186,65.77777777777779,-7.466666666666668)" xlink:href="#ac"/><use transform="matrix(0.05185185185185186,0,0,0.05185185185185186,82.37037037037038,-7.466666666666668)" xlink:href="#Y"/><use transform="matrix(0.07407407407407408,0,0,0.07407407407407408,92.74074074074075,0)" xlink:href="#ad"/><use transform="matrix(0.07407407407407408,0,0,0.07407407407407408,108.2962962962963,0)" xlink:href="#X"/><use transform="matrix(0.07407407407407408,0,0,0.07407407407407408,117.11111111111111,0)" xlink:href="#Y"/><use transform="matrix(0.07407407407407408,0,0,0.07407407407407408,131.92592592592592,0)" xlink:href="#Z"/><use transform="matrix(0.07407407407407408,0,0,0.07407407407407408,147.48148148148147,0)" xlink:href="#aa"/><use transform="matrix(0.05185185185185186,0,0,0.05185185185185186,154.88888888888889,3.733333333333334)" xlink:href="#ae"/><use transform="matrix(0.07407407407407408,0,0,0.07407407407407408,165.2592592592593,0)" xlink:href="#ab"/><use transform="matrix(0.05185185185185186,0,0,0.05185185185185186,174.07407407407408,-7.466666666666668)" xlink:href="#ac"/><use transform="matrix(0.05185185185185186,0,0,0.05185185185185186,190.66666666666669,-7.466666666666668)" xlink:href="#ae"/></g><path fill="#333" d="M14-72v-43h91v43H14" id="af"/><path fill="#333" d="M133-34C117-15 103 5 69 4 32 3 11-16 11-54c-1-60 55-63 116-61 1-26-3-47-28-47-18 1-26 9-28 27l-52-2c7-38 36-58 82-57s74 22 75 68l1 82c-1 14 12 18 25 15v27c-30 8-71 5-69-32zm-48 3c29 0 43-24 42-57-32 0-66-3-65 30 0 17 8 27 23 27" id="ag"/><g id="b"><use transform="matrix(0.07407407407407408,0,0,0.07407407407407408,0,0)" xlink:href="#Y"/><use transform="matrix(0.07407407407407408,0,0,0.07407407407407408,14.814814814814817,0)" xlink:href="#af"/><use transform="matrix(0.07407407407407408,0,0,0.07407407407407408,23.629629629629633,0)" xlink:href="#aa"/><use transform="matrix(0.05185185185185186,0,0,0.05185185185185186,31.037037037037038,3.733333333333334)" xlink:href="#ag"/><use transform="matrix(0.05185185185185186,0,0,0.05185185185185186,41.40740740740741,3.733333333333334)" xlink:href="#Y"/></g><g id="c"><use transform="matrix(0.06790123456790123,0,0,0.06790123456790123,0,0)" xlink:href="#aa"/><use transform="matrix(0.04753086419753086,0,0,0.04753086419753086,6.7901234567901225,3.4222222222222216)" xlink:href="#Y"/></g><use transform="matrix(0.06790123456790123,0,0,0.06790123456790123,0,0)" xlink:href="#ad" id="d"/><path fill="#333" d="M136-208V0H84v-208H4v-40h212v40h-80" id="ah"/><path fill="#333" d="M137-138c1-29-70-34-71-4 15 46 118 7 119 86 1 83-164 76-172 9l43-7c4 19 20 25 44 25 33 8 57-30 24-41C81-84 22-81 20-136c-2-80 154-74 161-7" id="ai"/><g id="e"><use transform="matrix(0.06790123456790123,0,0,0.06790123456790123,0,0)" xlink:href="#ah"/><use transform="matrix(0.06790123456790123,0,0,0.06790123456790123,13.037037037037036,0)" xlink:href="#ag"/><use transform="matrix(0.06790123456790123,0,0,0.06790123456790123,26.617283950617285,0)" xlink:href="#ai"/><use transform="matrix(0.06790123456790123,0,0,0.06790123456790123,40.19753086419753,0)" xlink:href="#ag"/></g><path fill="#333" d="M135-194c53 0 70 44 70 98 0 56-19 98-73 100-31 1-45-17-59-34 3 33 2 69 2 105H25l-1-265h48c2 10 0 23 3 31 11-24 29-35 60-35zM114-30c33 0 39-31 40-66 0-38-9-64-40-64-56 0-55 130 0 130" id="aj"/><path fill="#333" d="M185-48c-13 30-37 53-82 52C43 2 14-33 14-96s30-98 90-98c62 0 83 45 84 108H66c0 31 8 55 39 56 18 0 30-7 34-22zm-45-69c5-46-57-63-70-21-2 6-4 13-4 21h74" id="ak"/><path fill="#333" d="M135-150c-39-12-60 13-60 57V0H25l-1-190h47c2 13-1 29 3 40 6-28 27-53 61-41v41" id="al"/><path fill="#333" d="M110-194c64 0 96 36 96 99 0 64-35 99-97 99-61 0-95-36-95-99 0-62 34-99 96-99zm-1 164c35 0 45-28 45-65 0-40-10-65-43-65-34 0-45 26-45 65 0 36 10 65 43 65zM81-208v-5l45-51h45v8l-60 48H81" id="am"/><path fill="#333" d="M88-194c31-1 46 15 58 34l-1-101h50l1 261h-48c-2-10 0-23-3-31C134-8 116 4 84 4 32 4 16-41 15-95c0-56 19-97 73-99zm17 164c33 0 40-30 41-66 1-37-9-64-41-64s-38 30-39 65c0 43 13 65 39 65" id="an"/><path fill="#333" d="M190-63c-7 42-38 67-86 67-59 0-84-38-90-98-12-110 154-137 174-36l-49 2c-2-19-15-32-35-32-30 0-35 28-38 64-6 74 65 87 74 30" id="ao"/><g id="f"><use transform="matrix(0.06790123456790123,0,0,0.06790123456790123,0,0)" xlink:href="#aj"/><use transform="matrix(0.06790123456790123,0,0,0.06790123456790123,14.87037037037037,0)" xlink:href="#ak"/><use transform="matrix(0.06790123456790123,0,0,0.06790123456790123,28.450617283950617,0)" xlink:href="#al"/><use transform="matrix(0.06790123456790123,0,0,0.06790123456790123,37.95679012345679,0)" xlink:href="#aa"/><use transform="matrix(0.06790123456790123,0,0,0.06790123456790123,44.74691358024691,0)" xlink:href="#am"/><use transform="matrix(0.06790123456790123,0,0,0.06790123456790123,59.61728395061728,0)" xlink:href="#an"/><use transform="matrix(0.06790123456790123,0,0,0.06790123456790123,74.48765432098764,0)" xlink:href="#aa"/><use transform="matrix(0.06790123456790123,0,0,0.06790123456790123,81.27777777777777,0)" xlink:href="#ao"/><use transform="matrix(0.06790123456790123,0,0,0.06790123456790123,94.85802469135803,0)" xlink:href="#ag"/></g><path fill="#333" d="M128 0H69L1-190h53L99-40l48-150h52" id="ap"/><path fill="#333" d="M135-194c87-1 58 113 63 194h-50c-7-57 23-157-34-157-59 0-34 97-39 157H25l-1-190h47c2 12-1 28 3 38 12-26 28-41 61-42" id="aq"/><g id="g"><use transform="matrix(0.06790123456790123,0,0,0.06790123456790123,0,0)" xlink:href="#ap"/><use transform="matrix(0.06790123456790123,0,0,0.06790123456790123,13.580246913580247,0)" xlink:href="#ak"/><use transform="matrix(0.06790123456790123,0,0,0.06790123456790123,27.160493827160494,0)" xlink:href="#aq"/><use transform="matrix(0.06790123456790123,0,0,0.06790123456790123,42.03086419753086,0)" xlink:href="#ao"/><use transform="matrix(0.06790123456790123,0,0,0.06790123456790123,55.61111111111111,0)" xlink:href="#aa"/><use transform="matrix(0.06790123456790123,0,0,0.06790123456790123,62.40123456790122,0)" xlink:href="#an"/><use transform="matrix(0.06790123456790123,0,0,0.06790123456790123,77.2716049382716,0)" xlink:href="#ag"/></g><g id="h"><use transform="matrix(0.06790123456790123,0,0,0.06790123456790123,0,0)" xlink:href="#aa"/><use transform="matrix(0.04753086419753086,0,0,0.04753086419753086,6.7901234567901225,3.4222222222222216)" xlink:href="#ae"/></g><path fill="#333" d="M110-194c64 0 96 36 96 99 0 64-35 99-97 99-61 0-95-36-95-99 0-62 34-99 96-99zm-1 164c35 0 45-28 45-65 0-40-10-65-43-65-34 0-45 26-45 65 0 36 10 65 43 65" id="ar"/><g id="i"><use transform="matrix(0.06790123456790123,0,0,0.06790123456790123,0,0)" xlink:href="#aj"/><use transform="matrix(0.06790123456790123,0,0,0.06790123456790123,14.87037037037037,0)" xlink:href="#ak"/><use transform="matrix(0.06790123456790123,0,0,0.06790123456790123,28.450617283950617,0)" xlink:href="#aa"/><use transform="matrix(0.06790123456790123,0,0,0.06790123456790123,35.24074074074074,0)" xlink:href="#ar"/><use transform="matrix(0.06790123456790123,0,0,0.06790123456790123,50.111111111111114,0)" xlink:href="#an"/><use transform="matrix(0.06790123456790123,0,0,0.06790123456790123,64.98148148148148,0)" xlink:href="#aa"/><use transform="matrix(0.06790123456790123,0,0,0.06790123456790123,71.77160493827161,0)" xlink:href="#ao"/><use transform="matrix(0.06790123456790123,0,0,0.06790123456790123,85.35185185185185,0)" xlink:href="#ag"/></g><path fill="#333" d="M115-3C79 11 28 4 28-45v-112H4v-33h27l15-45h31v45h36v33H77v99c-1 23 16 31 38 25v30" id="as"/><g id="j"><use transform="matrix(0.06790123456790123,0,0,0.06790123456790123,0,0)" xlink:href="#ag"/><use transform="matrix(0.06790123456790123,0,0,0.06790123456790123,13.580246913580247,0)" xlink:href="#aq"/><use transform="matrix(0.06790123456790123,0,0,0.06790123456790123,28.450617283950617,0)" xlink:href="#as"/><use transform="matrix(0.06790123456790123,0,0,0.06790123456790123,36.53086419753086,0)" xlink:href="#aa"/><use transform="matrix(0.06790123456790123,0,0,0.06790123456790123,43.32098765432099,0)" xlink:href="#ao"/><use transform="matrix(0.06790123456790123,0,0,0.06790123456790123,56.901234567901234,0)" xlink:href="#aa"/><use transform="matrix(0.06790123456790123,0,0,0.06790123456790123,63.691358024691354,0)" xlink:href="#aj"/><use transform="matrix(0.06790123456790123,0,0,0.06790123456790123,78.56172839506172,0)" xlink:href="#ag"/><use transform="matrix(0.06790123456790123,0,0,0.06790123456790123,92.14197530864197,0)" xlink:href="#an"/><use transform="matrix(0.06790123456790123,0,0,0.06790123456790123,107.01234567901234,0)" xlink:href="#ag"/></g><path fill="#333" d="M25-224v-37h50v37H25zM75 22c2 45-34 59-81 51V38c22 5 31-5 31-27v-201h50V22" id="at"/><g id="k"><use transform="matrix(0.06790123456790123,0,0,0.06790123456790123,0,0)" xlink:href="#at"/><use transform="matrix(0.04753086419753086,0,0,0.04753086419753086,6.7901234567901225,3.4222222222222216)" xlink:href="#Y"/></g><path fill="#333" d="M25 0v-261h50V0H25" id="au"/><g id="l"><use transform="matrix(0.06790123456790123,0,0,0.06790123456790123,0,0)" xlink:href="#aq"/><use transform="matrix(0.06790123456790123,0,0,0.06790123456790123,14.87037037037037,0)" xlink:href="#ar"/><use transform="matrix(0.06790123456790123,0,0,0.06790123456790123,29.74074074074074,0)" xlink:href="#ac"/><use transform="matrix(0.06790123456790123,0,0,0.06790123456790123,51.46913580246913,0)" xlink:href="#aa"/><use transform="matrix(0.06790123456790123,0,0,0.06790123456790123,58.25925925925926,0)" xlink:href="#aq"/><use transform="matrix(0.06790123456790123,0,0,0.06790123456790123,73.12962962962962,0)" xlink:href="#ag"/><use transform="matrix(0.06790123456790123,0,0,0.06790123456790123,86.70987654320987,0)" xlink:href="#au"/></g><path fill="#333" d="M85 4C-2 5 27-109 22-190h50c7 57-23 150 33 157 60-5 35-97 40-157h50l1 190h-47c-2-12 1-28-3-38-12 25-28 42-61 42" id="av"/><g id="m"><use transform="matrix(0.06790123456790123,0,0,0.06790123456790123,0,0)" xlink:href="#ag"/><use transform="matrix(0.06790123456790123,0,0,0.06790123456790123,13.580246913580247,0)" xlink:href="#aq"/><use transform="matrix(0.06790123456790123,0,0,0.06790123456790123,28.450617283950617,0)" xlink:href="#av"/><use transform="matrix(0.06790123456790123,0,0,0.06790123456790123,43.32098765432099,0)" xlink:href="#ag"/><use transform="matrix(0.06790123456790123,0,0,0.06790123456790123,56.901234567901234,0)" xlink:href="#au"/></g><g id="n"><use transform="matrix(0.06790123456790123,0,0,0.06790123456790123,0,0)" xlink:href="#ap"/><use transform="matrix(0.06790123456790123,0,0,0.06790123456790123,13.580246913580247,0)" xlink:href="#ak"/><use transform="matrix(0.06790123456790123,0,0,0.06790123456790123,27.160493827160494,0)" xlink:href="#aq"/><use transform="matrix(0.06790123456790123,0,0,0.06790123456790123,42.03086419753086,0)" xlink:href="#ao"/><use transform="matrix(0.06790123456790123,0,0,0.06790123456790123,55.61111111111111,0)" xlink:href="#aa"/><use transform="matrix(0.06790123456790123,0,0,0.06790123456790123,62.40123456790122,0)" xlink:href="#an"/><use transform="matrix(0.06790123456790123,0,0,0.06790123456790123,77.2716049382716,0)" xlink:href="#ag"/></g><g id="o"><use transform="matrix(0.06790123456790123,0,0,0.06790123456790123,0,0)" xlink:href="#at"/><use transform="matrix(0.04753086419753086,0,0,0.04753086419753086,6.7901234567901225,3.4222222222222216)" xlink:href="#ae"/></g><use transform="matrix(0.06790123456790123,0,0,0.06790123456790123,0,0)" xlink:href="#ad" id="p"/><g id="q"><use transform="matrix(0.06790123456790123,0,0,0.06790123456790123,0,0)" xlink:href="#ac"/><use transform="matrix(0.04753086419753086,0,0,0.04753086419753086,21.728395061728392,3.4222222222222216)" xlink:href="#Y"/><use transform="matrix(0.06790123456790123,0,0,0.06790123456790123,31.234567901234563,0)" xlink:href="#ad"/></g><path fill="#333" d="M24-248c93 1 206-16 204 79-1 75-69 88-152 82V0H24v-248zm52 121c47 0 100 7 100-41 0-47-54-39-100-39v80" id="aw"/><path fill="#333" d="M25 0v-190h50V0H25zm-5-208v-5l45-51h45v8l-60 48H20" id="ax"/><g id="r"><use transform="matrix(0.06790123456790123,0,0,0.06790123456790123,0,0)" xlink:href="#aw"/><use transform="matrix(0.06790123456790123,0,0,0.06790123456790123,16.296296296296294,0)" xlink:href="#ak"/><use transform="matrix(0.06790123456790123,0,0,0.06790123456790123,29.87654320987654,0)" xlink:href="#al"/><use transform="matrix(0.06790123456790123,0,0,0.06790123456790123,39.382716049382715,0)" xlink:href="#ax"/><use transform="matrix(0.06790123456790123,0,0,0.06790123456790123,46.172839506172835,0)" xlink:href="#ar"/><use transform="matrix(0.06790123456790123,0,0,0.06790123456790123,61.0432098765432,0)" xlink:href="#an"/><use transform="matrix(0.06790123456790123,0,0,0.06790123456790123,75.91358024691358,0)" xlink:href="#ar"/></g><g id="s"><use transform="matrix(0.06790123456790123,0,0,0.06790123456790123,0,0)" xlink:href="#an"/><use transform="matrix(0.06790123456790123,0,0,0.06790123456790123,14.87037037037037,0)" xlink:href="#ak"/></g><g id="t"><use transform="matrix(0.06790123456790123,0,0,0.06790123456790123,0,0)" xlink:href="#au"/><use transform="matrix(0.06790123456790123,0,0,0.06790123456790123,6.790123456790123,0)" xlink:href="#ag"/></g><g id="u"><use transform="matrix(0.06790123456790123,0,0,0.06790123456790123,0,0)" xlink:href="#as"/><use transform="matrix(0.06790123456790123,0,0,0.06790123456790123,8.080246913580247,0)" xlink:href="#ag"/><use transform="matrix(0.06790123456790123,0,0,0.06790123456790123,21.660493827160494,0)" xlink:href="#ai"/><use transform="matrix(0.06790123456790123,0,0,0.06790123456790123,35.24074074074074,0)" xlink:href="#ag"/></g><g id="v"><use transform="matrix(0.06790123456790123,0,0,0.06790123456790123,0,0)" xlink:href="#aa"/><use transform="matrix(0.04753086419753086,0,0,0.04753086419753086,6.7901234567901225,3.4222222222222216)" xlink:href="#Y"/></g><g id="w"><use transform="matrix(0.06790123456790123,0,0,0.06790123456790123,0,0)" xlink:href="#ac"/><use transform="matrix(0.04753086419753086,0,0,0.04753086419753086,21.728395061728392,3.4222222222222216)" xlink:href="#ae"/><use transform="matrix(0.06790123456790123,0,0,0.06790123456790123,31.234567901234563,0)" xlink:href="#ad"/></g><g id="x"><use transform="matrix(0.06790123456790123,0,0,0.06790123456790123,0,0)" xlink:href="#aa"/><use transform="matrix(0.04753086419753086,0,0,0.04753086419753086,6.7901234567901225,3.4222222222222216)" xlink:href="#ae"/></g><path fill="#333" d="M76-208v77h127v40H76V0H24v-248h183v40H76" id="ay"/><path fill="#333" d="M240-174c0 40-23 61-54 70L253 0h-59l-57-94H76V0H24v-248c93 4 217-23 216 74zM76-134c48-2 112 12 112-38 0-48-66-32-112-35v73" id="az"/><path fill="#333" d="M140-251c80 0 125 45 125 126S219 4 139 4C58 4 15-44 15-125s44-126 125-126zm-1 214c52 0 73-35 73-88 0-50-21-86-72-86-52 0-73 35-73 86s22 88 72 88" id="aA"/><path fill="#333" d="M175 0L67-191c6 58 2 128 3 191H24v-248h59L193-55c-6-58-2-129-3-193h46V0h-61" id="aB"/><path fill="#333" d="M24 0v-248h195v40H76v63h132v40H76v65h150V0H24" id="aC"/><path fill="#333" d="M199 0l-22-63H83L61 0H9l90-248h61L250 0h-51zm-33-102l-36-108c-10 38-24 72-36 108h72" id="aD"/><g id="y"><use transform="matrix(0.07407407407407408,0,0,0.07407407407407408,0,0)" xlink:href="#ay"/><use transform="matrix(0.07407407407407408,0,0,0.07407407407407408,16.222222222222225,0)" xlink:href="#az"/><use transform="matrix(0.07407407407407408,0,0,0.07407407407407408,35.40740740740741,0)" xlink:href="#aA"/><use transform="matrix(0.07407407407407408,0,0,0.07407407407407408,56.14814814814815,0)" xlink:href="#aB"/><use transform="matrix(0.07407407407407408,0,0,0.07407407407407408,75.33333333333334,0)" xlink:href="#ah"/><use transform="matrix(0.07407407407407408,0,0,0.07407407407407408,91.55555555555557,0)" xlink:href="#aC"/><use transform="matrix(0.07407407407407408,0,0,0.07407407407407408,109.33333333333334,0)" xlink:href="#az"/><use transform="matrix(0.07407407407407408,0,0,0.07407407407407408,128.51851851851853,0)" xlink:href="#aD"/></g><g id="z"><use transform="matrix(0.07407407407407408,0,0,0.07407407407407408,0,0)" xlink:href="#at"/><use transform="matrix(0.05185185185185186,0,0,0.05185185185185186,7.407407407407408,3.733333333333334)" xlink:href="#Y"/></g><g id="A"><use transform="matrix(0.07407407407407408,0,0,0.07407407407407408,0,0)" xlink:href="#at"/><use transform="matrix(0.05185185185185186,0,0,0.05185185185185186,7.407407407407408,3.733333333333334)" xlink:href="#ag"/><use transform="matrix(0.05185185185185186,0,0,0.05185185185185186,17.77777777777778,3.733333333333334)" xlink:href="#Y"/></g><path fill="#c92d39" d="M23 0v-37h61v-169l-59 37v-38l62-41h46v211h57V0H23" id="aE"/><use transform="matrix(0.07407407407407408,0,0,0.07407407407407408,0,0)" xlink:href="#aE" id="B"/><path fill="#c92d39" d="M182-182c0 78-84 86-111 141h115V0H12c-6-101 99-100 120-180 1-22-12-31-33-32-23 0-32 14-35 34l-49-3c5-45 32-70 84-70 51 0 83 22 83 69" id="aF"/><use transform="matrix(0.07407407407407408,0,0,0.07407407407407408,0,0)" xlink:href="#aF" id="C"/><path fill="#c92d39" d="M128-127c34 4 56 21 59 58 7 91-148 94-172 28-4-9-6-17-7-26l51-5c1 24 16 35 40 36 23 0 39-12 38-36-1-31-31-36-65-34v-40c32 2 59-3 59-33 0-20-13-33-34-33s-33 13-35 32l-50-3c6-44 37-68 86-68 50 0 83 20 83 66 0 35-22 52-53 58" id="aG"/><use transform="matrix(0.07407407407407408,0,0,0.07407407407407408,0,0)" xlink:href="#aG" id="D"/><path fill="#c92d39" d="M165-50V0h-47v-50H5v-38l105-160h55v161h33v37h-33zm-47-37l2-116L46-87h72" id="aH"/><use transform="matrix(0.07407407407407408,0,0,0.07407407407407408,0,0)" xlink:href="#aH" id="E"/><path fill="#c92d39" d="M139-81c0-46-55-55-73-27H18l9-140h149v37H72l-4 63c44-38 133-4 122 66C201 21 21 35 11-62l49-4c5 18 15 30 39 30 26 0 40-18 40-45" id="aI"/><use transform="matrix(0.07407407407407408,0,0,0.07407407407407408,0,0)" xlink:href="#aI" id="F"/><path fill="#c92d39" d="M115-159c48 0 72 30 72 78 0 54-30 85-83 85-64 0-91-50-91-122 0-98 58-163 141-120 15 8 21 24 27 44l-47 6c-5-31-48-31-61-4-7 14-11 33-11 60 9-17 28-27 53-27zM102-35c24 0 36-20 36-45s-11-43-37-43c-23 0-36 14-36 38 0 27 11 50 37 50" id="aJ"/><use transform="matrix(0.07407407407407408,0,0,0.07407407407407408,0,0)" xlink:href="#aJ" id="G"/><path fill="#c92d39" d="M52 0c1-96 47-148 87-207H15v-41h169v40c-36 62-79 113-81 208H52" id="aK"/><use transform="matrix(0.07407407407407408,0,0,0.07407407407407408,0,0)" xlink:href="#aK" id="H"/><path fill="#c92d39" d="M138-131c27 9 52 24 51 61 0 53-36 74-89 74S11-19 11-69c0-35 22-54 51-61-78-25-46-121 38-121 51 0 83 19 83 66 0 30-18 49-45 54zm-38-16c24 0 32-13 32-36 1-23-11-34-32-34-22 0-33 12-32 34 0 22 9 36 32 36zm1 116c27 0 37-17 37-43 0-25-13-39-39-39-24 0-37 15-37 40 0 27 11 42 39 42" id="aL"/><use transform="matrix(0.07407407407407408,0,0,0.07407407407407408,0,0)" xlink:href="#aL" id="I"/><g id="J"><use transform="matrix(0.07407407407407408,0,0,0.07407407407407408,0,0)" xlink:href="#at"/><use transform="matrix(0.05185185185185186,0,0,0.05185185185185186,7.407407407407408,3.733333333333334)" xlink:href="#ae"/></g><g id="K"><use transform="matrix(0.07407407407407408,0,0,0.07407407407407408,0,0)" xlink:href="#aa"/><use transform="matrix(0.05185185185185186,0,0,0.05185185185185186,7.407407407407408,3.733333333333334)" xlink:href="#Y"/></g><g id="L"><use transform="matrix(0.07407407407407408,0,0,0.07407407407407408,0,0)" xlink:href="#aa"/><use transform="matrix(0.05185185185185186,0,0,0.05185185185185186,7.407407407407408,3.733333333333334)" xlink:href="#ae"/></g><path fill="#333" d="M4 7l51-268h42L46 7H4" id="aM"/><g id="M"><use transform="matrix(0.07407407407407408,0,0,0.07407407407407408,0,0)" xlink:href="#aa"/><use transform="matrix(0.05185185185185186,0,0,0.05185185185185186,7.407407407407408,3.733333333333334)" xlink:href="#Y"/><use transform="matrix(0.07407407407407408,0,0,0.07407407407407408,17.77777777777778,0)" xlink:href="#ad"/><use transform="matrix(0.07407407407407408,0,0,0.07407407407407408,33.333333333333336,0)" xlink:href="#at"/><use transform="matrix(0.05185185185185186,0,0,0.05185185185185186,40.74074074074075,3.733333333333334)" xlink:href="#Y"/><use transform="matrix(0.07407407407407408,0,0,0.07407407407407408,51.11111111111112,0)" xlink:href="#aM"/><use transform="matrix(0.07407407407407408,0,0,0.07407407407407408,58.51851851851853,0)" xlink:href="#ac"/><use transform="matrix(0.05185185185185186,0,0,0.05185185185185186,82.22222222222224,3.733333333333334)" xlink:href="#Y"/></g><g id="N"><use transform="matrix(0.07407407407407408,0,0,0.07407407407407408,0,0)" xlink:href="#at"/><use transform="matrix(0.05185185185185186,0,0,0.05185185185185186,7.407407407407408,3.733333333333334)" xlink:href="#ae"/><use transform="matrix(0.07407407407407408,0,0,0.07407407407407408,17.77777777777778,0)" xlink:href="#ad"/><use transform="matrix(0.07407407407407408,0,0,0.07407407407407408,33.333333333333336,0)" xlink:href="#aa"/><use transform="matrix(0.05185185185185186,0,0,0.05185185185185186,40.74074074074075,3.733333333333334)" xlink:href="#ae"/></g><g id="O"><use transform="matrix(0.07407407407407408,0,0,0.07407407407407408,0,0)" xlink:href="#ac"/><use transform="matrix(0.05185185185185186,0,0,0.05185185185185186,23.703703703703706,3.733333333333334)" xlink:href="#ae"/></g><g id="P"><use transform="matrix(0.07407407407407408,0,0,0.07407407407407408,0,0)" xlink:href="#aa"/><use transform="matrix(0.05185185185185186,0,0,0.05185185185185186,7.407407407407408,3.733333333333334)" xlink:href="#ag"/><use transform="matrix(0.05185185185185186,0,0,0.05185185185185186,17.77777777777778,3.733333333333334)" xlink:href="#Y"/></g><g id="Q"><use transform="matrix(0.07407407407407408,0,0,0.07407407407407408,0,0)" xlink:href="#aa"/><use transform="matrix(0.05185185185185186,0,0,0.05185185185185186,7.407407407407408,3.733333333333334)" xlink:href="#ag"/><use transform="matrix(0.05185185185185186,0,0,0.05185185185185186,17.77777777777778,3.733333333333334)" xlink:href="#Y"/><use transform="matrix(0.07407407407407408,0,0,0.07407407407407408,28.148148148148152,0)" xlink:href="#ad"/><use transform="matrix(0.07407407407407408,0,0,0.07407407407407408,43.70370370370371,0)" xlink:href="#at"/><use transform="matrix(0.05185185185185186,0,0,0.05185185185185186,51.111111111111114,3.733333333333334)" xlink:href="#ag"/><use transform="matrix(0.05185185185185186,0,0,0.05185185185185186,61.48148148148149,3.733333333333334)" xlink:href="#Y"/><use transform="matrix(0.07407407407407408,0,0,0.07407407407407408,71.85185185185186,0)" xlink:href="#aM"/><use transform="matrix(0.07407407407407408,0,0,0.07407407407407408,79.25925925925927,0)" xlink:href="#ac"/><use transform="matrix(0.05185185185185186,0,0,0.05185185185185186,102.96296296296298,3.733333333333334)" xlink:href="#Y"/></g><g id="R"><use transform="matrix(0.07407407407407408,0,0,0.07407407407407408,0,0)" xlink:href="#aa"/><use transform="matrix(0.05185185185185186,0,0,0.05185185185185186,7.407407407407408,3.733333333333334)" xlink:href="#Y"/><use transform="matrix(0.07407407407407408,0,0,0.07407407407407408,17.77777777777778,0)" xlink:href="#ad"/><use transform="matrix(0.07407407407407408,0,0,0.07407407407407408,33.333333333333336,0)" xlink:href="#af"/><use transform="matrix(0.07407407407407408,0,0,0.07407407407407408,42.14814814814815,0)" xlink:href="#af"/><use transform="matrix(0.07407407407407408,0,0,0.07407407407407408,50.96296296296297,0)" xlink:href="#af"/><use transform="matrix(0.07407407407407408,0,0,0.07407407407407408,59.777777777777786,0)" xlink:href="#af"/><use transform="matrix(0.07407407407407408,0,0,0.07407407407407408,68.59259259259261,0)" xlink:href="#af"/><use transform="matrix(0.07407407407407408,0,0,0.07407407407407408,77.40740740740742,0)" xlink:href="#af"/><use transform="matrix(0.07407407407407408,0,0,0.07407407407407408,86.22222222222223,0)" xlink:href="#af"/><use transform="matrix(0.07407407407407408,0,0,0.07407407407407408,95.03703703703704,0)" xlink:href="#af"/></g><g id="S"><use transform="matrix(0.07407407407407408,0,0,0.07407407407407408,0,0)" xlink:href="#Y"/><use transform="matrix(0.07407407407407408,0,0,0.07407407407407408,14.814814814814817,0)" xlink:href="#af"/><use transform="matrix(0.07407407407407408,0,0,0.07407407407407408,23.629629629629633,0)" xlink:href="#aa"/><use transform="matrix(0.05185185185185186,0,0,0.05185185185185186,31.037037037037038,3.733333333333334)" xlink:href="#ae"/></g><g id="T"><use transform="matrix(0.07407407407407408,0,0,0.07407407407407408,0,0)" xlink:href="#aa"/><use transform="matrix(0.05185185185185186,0,0,0.05185185185185186,7.407407407407408,3.733333333333334)" xlink:href="#ag"/><use transform="matrix(0.05185185185185186,0,0,0.05185185185185186,17.77777777777778,3.733333333333334)" xlink:href="#ae"/><use transform="matrix(0.07407407407407408,0,0,0.07407407407407408,28.148148148148152,0)" xlink:href="#ad"/><use transform="matrix(0.07407407407407408,0,0,0.07407407407407408,43.70370370370371,0)" xlink:href="#af"/><use transform="matrix(0.07407407407407408,0,0,0.07407407407407408,52.518518518518526,0)" xlink:href="#af"/><use transform="matrix(0.07407407407407408,0,0,0.07407407407407408,61.33333333333334,0)" xlink:href="#af"/><use transform="matrix(0.07407407407407408,0,0,0.07407407407407408,70.14814814814815,0)" xlink:href="#af"/><use transform="matrix(0.07407407407407408,0,0,0.07407407407407408,78.96296296296296,0)" xlink:href="#af"/><use transform="matrix(0.07407407407407408,0,0,0.07407407407407408,87.77777777777777,0)" xlink:href="#af"/></g><g id="U"><use transform="matrix(0.07407407407407408,0,0,0.07407407407407408,0,0)" xlink:href="#at"/><use transform="matrix(0.05185185185185186,0,0,0.05185185185185186,7.407407407407408,3.733333333333334)" xlink:href="#ag"/><use transform="matrix(0.05185185185185186,0,0,0.05185185185185186,17.77777777777778,3.733333333333334)" xlink:href="#ae"/><use transform="matrix(0.07407407407407408,0,0,0.07407407407407408,28.148148148148152,0)" xlink:href="#ad"/><use transform="matrix(0.07407407407407408,0,0,0.07407407407407408,43.70370370370371,0)" xlink:href="#aa"/><use transform="matrix(0.05185185185185186,0,0,0.05185185185185186,51.111111111111114,3.733333333333334)" xlink:href="#ag"/><use transform="matrix(0.05185185185185186,0,0,0.05185185185185186,61.48148148148149,3.733333333333334)" xlink:href="#ae"/></g><g id="V"><use transform="matrix(0.07407407407407408,0,0,0.07407407407407408,0,0)" xlink:href="#at"/><use transform="matrix(0.05185185185185186,0,0,0.05185185185185186,7.407407407407408,3.733333333333334)" xlink:href="#ag"/><use transform="matrix(0.05185185185185186,0,0,0.05185185185185186,17.77777777777778,3.733333333333334)" xlink:href="#ae"/></g><g id="W"><use transform="matrix(0.07407407407407408,0,0,0.07407407407407408,0,0)" xlink:href="#aa"/><use transform="matrix(0.05185185185185186,0,0,0.05185185185185186,7.407407407407408,3.733333333333334)" xlink:href="#ag"/><use transform="matrix(0.05185185185185186,0,0,0.05185185185185186,17.77777777777778,3.733333333333334)" xlink:href="#ae"/></g></defs></g></svg>