<?xml version="1.0" encoding="utf-8"?>
<!-- Generator: Adobe Illustrator 23.0.1, SVG Export Plug-In . SVG Version: 6.00 Build 0)  -->
<svg version="1.1" id="Capa_1" xmlns="http://www.w3.org/2000/svg" xmlns:xlink="http://www.w3.org/1999/xlink" x="0px" y="0px"
	 viewBox="0 0 260 260" style="enable-background:new 0 0 260 260;" xml:space="preserve">
<style type="text/css">
	.st0{fill:none;stroke:#5E5E5E;stroke-miterlimit:10;}
	.st1{fill:#5E5E5E;}
	.st2{fill:none;stroke:#5E5E5E;stroke-miterlimit:10;stroke-dasharray:4.7517,4.7517;}
	.st3{fill:none;stroke:#00C100;}
	.st4{fill:#00C100;}
	.st5{fill:none;stroke:#F70000;stroke-width:1.5;}
	.st6{fill:#F70000;}
	.st7{font-family:'MyriadPro-Regular';}
	.st8{font-size:10.0246px;}
	.st9{font-size:8.3538px;}
	.st10{fill:none;stroke:#3AA6DD;stroke-width:1.5;}
	.st11{fill:none;stroke:#3AA6DD;stroke-width:1.5;stroke-dasharray:5.0573,5.0573;}
	.st12{fill:#3AA6DD;}
</style>
<g>
	<g>
		<g>
			<line class="st0" x1="12.4" y1="94.7" x2="229.3" y2="94.7"/>
			<g>
				<path class="st1" d="M235.3,94.7c-2.8,1.1-6.4,2.9-8.5,4.8l1.7-4.8l-1.7-4.8C228.9,91.8,232.5,93.6,235.3,94.7z"/>
			</g>
		</g>
	</g>
	<line class="st0" x1="36.7" y1="139.6" x2="208.2" y2="139.6"/>
	<g>
		<g>
			<line class="st0" x1="12.4" y1="190" x2="12.4" y2="187.5"/>
			<line class="st2" x1="12.4" y1="182.7" x2="12.4" y2="99.6"/>
			<line class="st0" x1="12.4" y1="97.2" x2="12.4" y2="94.7"/>
		</g>
	</g>
	<g>
		<g>
			<line class="st3" x1="12.4" y1="94.7" x2="12.4" y2="55.8"/>
			<g>
				<path class="st4" d="M12.4,49.8c1.1,2.8,2.9,6.4,4.8,8.5l-4.8-1.7l-4.8,1.7C9.6,56.1,11.4,52.6,12.4,49.8z"/>
			</g>
		</g>
	</g>
	<g>
		<g>
			<line class="st5" x1="36.7" y1="94.7" x2="36.7" y2="130.6"/>
			<g>
				<path class="st6" d="M36.7,139.6c-1.6-4.3-4.3-9.5-7.1-12.8l7.1,2.6l7.1-2.6C41,130.1,38.3,135.4,36.7,139.6z"/>
			</g>
		</g>
	</g>
	<g>
		<g>
			<line class="st5" x1="65.3" y1="94.7" x2="65.3" y2="130.6"/>
			<g>
				<path class="st6" d="M65.3,139.6c-1.6-4.3-4.3-9.5-7.1-12.8l7.1,2.6l7.1-2.6C69.6,130.1,66.9,135.4,65.3,139.6z"/>
			</g>
		</g>
	</g>
	<g>
		<g>
			<line class="st5" x1="93.9" y1="94.7" x2="93.9" y2="130.6"/>
			<g>
				<path class="st6" d="M93.9,139.6c-1.6-4.3-4.3-9.5-7.1-12.8l7.1,2.6l7.1-2.6C98.1,130.1,95.4,135.4,93.9,139.6z"/>
			</g>
		</g>
	</g>
	<g>
		<g>
			<polyline class="st5" points="93.9,94.7 104.8,103.8 104.8,150.4 			"/>
			<g>
				<path class="st6" d="M104.8,159.4c-1.6-4.3-4.3-9.5-7.1-12.8l7.1,2.6l7.1-2.6C109,149.9,106.3,155.2,104.8,159.4z"/>
			</g>
		</g>
	</g>
	<g>
		<g>
			<line class="st5" x1="179.6" y1="94.7" x2="179.6" y2="130.6"/>
			<g>
				<path class="st6" d="M179.6,139.6c-1.6-4.3-4.3-9.5-7.1-12.8l7.1,2.6l7.1-2.6C183.9,130.1,181.2,135.4,179.6,139.6z"/>
			</g>
		</g>
	</g>
	<g>
		<g>
			<line class="st5" x1="208.2" y1="94.7" x2="208.2" y2="130.6"/>
			<g>
				<path class="st6" d="M208.2,139.6c-1.6-4.3-4.3-9.5-7.1-12.8l7.1,2.6l7.1-2.6C212.5,130.1,209.8,135.4,208.2,139.6z"/>
			</g>
		</g>
	</g>
	<g>
		<g>
			<line class="st5" x1="123.9" y1="94.7" x2="123.9" y2="130.6"/>
			<g>
				<path class="st6" d="M123.9,139.6c-1.6-4.3-4.3-9.5-7.1-12.8l7.1,2.6l7.1-2.6C128.2,130.1,125.5,135.4,123.9,139.6z"/>
			</g>
		</g>
	</g>
	<g>
		<g>
			<line class="st5" x1="151.7" y1="94.7" x2="151.7" y2="130.6"/>
			<g>
				<path class="st6" d="M151.7,139.6c-1.6-4.3-4.3-9.5-7.1-12.8l7.1,2.6l7.1-2.6C156,130.1,153.3,135.4,151.7,139.6z"/>
			</g>
		</g>
	</g>
	<g>
		<g>
			<line class="st5" x1="179.5" y1="94.7" x2="179.5" y2="130.6"/>
			<g>
				<path class="st6" d="M179.5,139.6c-1.6-4.3-4.3-9.5-7.1-12.8l7.1,2.6l7.1-2.6C183.7,130.1,181.1,135.4,179.5,139.6z"/>
			</g>
		</g>
	</g>
	<text transform="matrix(1 0 0 1 7.6636 46.4331)" class="st7 st8">VP=600.000COP</text>
	<text transform="matrix(1 0 0 1 7.6641 200.4741)" class="st7 st8">pf</text>
	<text transform="matrix(1 0 0 1 31.7568 150.9204)" class="st7 st8">R= ? COP</text>
	<text transform="matrix(1 0 0 1 80.5894 166.5542)" class="st7 st8">250.000 COP</text>
	<text transform="matrix(1 0 0 1 159.7568 210.3374)" class="st7 st9">n1=7 ptv</text>
	<text transform="matrix(1 0 0 1 159.7568 219.8687)" class="st7 st9">i1= 9% ptv</text>
	<text transform="matrix(1 0 0 1 238.4028 96.6802)" class="st7 st8">ptv</text>
	<text transform="matrix(1 0 0 1 14.0903 93.2817)" class="st7 st8">0</text>
	<text transform="matrix(1 0 0 1 33.7427 93.2817)" class="st7 st8">1</text>
	<text transform="matrix(1 0 0 1 62.5498 93.2817)" class="st7 st8">2</text>
	<text transform="matrix(1 0 0 1 90.5635 93.2822)" class="st7 st8">3</text>
	<text transform="matrix(1 0 0 1 120.7144 93.2817)" class="st7 st8">4</text>
	<g>
		<g>
			<path class="st10" d="M208.2,139.6c-0.1,0.8-0.2,1.7-0.4,2.5"/>
			<path class="st11" d="M206.9,147.1c-18.2,79.9-143,89-190.2,19.5l-1-4.4"/>
			<line class="st10" x1="15" y1="159.7" x2="14.5" y2="157.3"/>
			<g>
				<path class="st12" d="M12.4,148.5c2.5,3.8,6.3,8.3,9.9,10.9l-7.5-0.9l-6.4,4.1C10.4,158.7,11.9,153,12.4,148.5z"/>
			</g>
		</g>
	</g>
	<text transform="matrix(1 0 0 1 149.1504 93.2822)" class="st7 st8">5</text>
	<text transform="matrix(1 0 0 1 176.7676 93.2817)" class="st7 st8">6</text>
	<text transform="matrix(1 0 0 1 205.5508 93.2817)" class="st7 st8">7</text>
</g>
</svg>
