<?xml version="1.0" encoding="utf-8"?>
<!-- Generator: Adobe Illustrator 23.0.1, SVG Export Plug-In . SVG Version: 6.00 Build 0)  -->
<svg version="1.1" id="Capa_1" xmlns="http://www.w3.org/2000/svg" xmlns:xlink="http://www.w3.org/1999/xlink" x="0px" y="0px"
	 viewBox="0 0 260 260" style="enable-background:new 0 0 260 260;" xml:space="preserve">
<style type="text/css">
	.st0{fill:none;stroke:#5E5E5E;stroke-miterlimit:10;}
	.st1{fill:#5E5E5E;}
	.st2{fill:none;stroke:#5E5E5E;stroke-miterlimit:10;stroke-dasharray:4.785,4.785;}
	.st3{fill:none;stroke:#00C100;}
	.st4{fill:#00C100;}
	.st5{fill:none;}
	.st6{fill:none;stroke:#F70000;stroke-width:1.5;}
	.st7{fill:#F70000;}
	.st8{font-family:'MyriadPro-Regular';}
	.st9{font-size:10.0911px;}
	.st10{font-size:8.4093px;}
	.st11{fill:none;stroke:#3AA6DD;stroke-width:1.5;}
	.st12{fill:none;stroke:#3AA6DD;stroke-width:1.5;stroke-dasharray:5.0927,5.0927;}
	.st13{fill:#3AA6DD;}
</style>
<g>
	<g>
		<g>
			<line class="st0" x1="11.6" y1="102.2" x2="230" y2="102.2"/>
			<g>
				<path class="st1" d="M236,102.2c-2.8,1.1-6.4,2.9-8.5,4.8l1.7-4.8l-1.7-4.8C229.6,99.4,233.2,101.2,236,102.2z"/>
			</g>
		</g>
	</g>
	<line class="st0" x1="123.8" y1="147.5" x2="208.7" y2="147.5"/>
	<g>
		<g>
			<line class="st0" x1="11.6" y1="198.2" x2="11.6" y2="195.7"/>
			<line class="st2" x1="11.6" y1="190.9" x2="11.6" y2="107.1"/>
			<line class="st0" x1="11.6" y1="104.7" x2="11.6" y2="102.2"/>
		</g>
	</g>
	<g>
		<g>
			<line class="st3" x1="11.6" y1="102.2" x2="11.6" y2="63.1"/>
			<g>
				<path class="st4" d="M11.6,57c1.1,2.8,2.9,6.4,4.8,8.5l-4.8-1.7l-4.8,1.7C8.8,63.4,10.6,59.9,11.6,57z"/>
			</g>
		</g>
	</g>
	<g>
		<path class="st5" d="M104.6,167.4"/>
	</g>
	<g>
		<g>
			<line class="st6" x1="180" y1="102.2" x2="180" y2="138.4"/>
			<g>
				<path class="st7" d="M180,147.5c-1.6-4.3-4.3-9.5-7.1-12.8l7.1,2.6l7.1-2.6C184.2,137.9,181.5,143.2,180,147.5z"/>
			</g>
		</g>
	</g>
	<g>
		<g>
			<line class="st6" x1="208.7" y1="102.2" x2="208.7" y2="138.4"/>
			<g>
				<path class="st7" d="M208.7,147.5c-1.6-4.3-4.3-9.5-7.1-12.8l7.1,2.6l7.1-2.6C213,137.9,210.3,143.2,208.7,147.5z"/>
			</g>
		</g>
	</g>
	<g>
		<g>
			<line class="st6" x1="123.8" y1="102.2" x2="123.8" y2="138.4"/>
			<g>
				<path class="st7" d="M123.8,147.5c-1.6-4.3-4.3-9.5-7.1-12.8l7.1,2.6l7.1-2.6C128.1,137.9,125.4,143.2,123.8,147.5z"/>
			</g>
		</g>
	</g>
	<g>
		<g>
			<line class="st6" x1="151.8" y1="102.2" x2="151.8" y2="138.4"/>
			<g>
				<path class="st7" d="M151.8,147.5c-1.6-4.3-4.3-9.5-7.1-12.8l7.1,2.6l7.1-2.6C156.1,137.9,153.4,143.2,151.8,147.5z"/>
			</g>
		</g>
	</g>
	<g>
		<g>
			<line class="st6" x1="179.8" y1="102.2" x2="179.8" y2="138.4"/>
			<g>
				<path class="st7" d="M179.8,147.5c-1.6-4.3-4.3-9.5-7.1-12.8l7.1,2.6l7.1-2.6C184.1,137.9,181.4,143.2,179.8,147.5z"/>
			</g>
		</g>
	</g>
	<text transform="matrix(1 0 0 1 6.8516 55.1716)" class="st8 st9">600.000COP</text>
	<text transform="matrix(1 0 0 1 52.0112 69.343)" class="st8 st9">VP = 136.220,97 COP</text>
	<text transform="matrix(1 0 0 1 96.2959 38.1028)" class="st8 st9">Cuota extraordinaria = 250.000 COP</text>
	<text transform="matrix(1 0 0 1 6.8511 208.7185)" class="st8 st9">pf</text>
	<text transform="matrix(1 0 0 1 145.0044 157.3064)" class="st8 st9">R= ? COP</text>
	<text transform="matrix(1 0 0 1 159.9546 218.6462)" class="st8 st10">n1=7 ptv</text>
	<text transform="matrix(1 0 0 1 159.9546 228.241)" class="st8 st10">i1= 9% ptv</text>
	<text transform="matrix(1 0 0 1 239.1226 104.2351)" class="st8 st9">ptv</text>
	<text transform="matrix(1 0 0 1 13.3208 100.8137)" class="st8 st9">0</text>
	<text transform="matrix(1 0 0 1 33.1035 100.8137)" class="st8 st9">1</text>
	<text transform="matrix(1 0 0 1 62.1021 100.8142)" class="st8 st9">2</text>
	<text transform="matrix(1 0 0 1 90.3013 100.8142)" class="st8 st9">3</text>
	<text transform="matrix(1 0 0 1 120.6523 100.8142)" class="st8 st9">4</text>
	<g>
		<g>
			<path class="st11" d="M208.7,147.5c-0.1,0.8-0.2,1.7-0.4,2.5"/>
			<path class="st12" d="M207.4,154.9c-18.3,80.5-144,89.6-191.5,19.6l-1-4.5"/>
			<line class="st11" x1="14.3" y1="167.6" x2="13.7" y2="165.2"/>
			<g>
				<path class="st13" d="M11.6,156.4c2.5,3.8,6.3,8.3,9.9,10.9l-7.5-0.9l-6.4,4.1C9.6,166.6,11.1,160.9,11.6,156.4z"/>
			</g>
		</g>
	</g>
	<text transform="matrix(1 0 0 1 149.2773 100.8142)" class="st8 st9">5</text>
	<text transform="matrix(1 0 0 1 177.0776 100.8137)" class="st8 st9">6</text>
	<text transform="matrix(1 0 0 1 206.0522 100.8142)" class="st8 st9">7</text>
	<g>
		<g>
			<line class="st3" x1="93.6" y1="89.9" x2="93.6" y2="79.8"/>
			<g>
				<path class="st4" d="M93.6,73.8c1.1,2.8,2.9,6.4,4.8,8.5l-4.8-1.7l-4.8,1.7C90.8,80.1,92.6,76.6,93.6,73.8z"/>
			</g>
		</g>
	</g>
</g>
</svg>
