<svg xmlns="http://www.w3.org/2000/svg" xmlns:xlink="http://www.w3.org/1999/xlink" xmlns:lucid="lucid" width="479.98" height="373.02"><g transform="translate(-701.6172839506173 -129)" lucid:page-tab-id="0_0"><path d="M0 0h1870.4v1323.2H0z" fill="#fff"/><path d="M1121.5 241H741v-2h380.5z" fill="#5e5e5e"/><path d="M741.03 241H740v-2h1.03zM1136.76 240l-14.26 4.64v-9.28z" fill="#5e5e5e"/><path d="M1140 240l-18.5 6v-12zm-16.5 3.26l10.03-3.26-10.03-3.26z" fill="#5e5e5e"/><use xlink:href="#a" transform="matrix(1,0,0,1,1109.4074074074074,244.00000000000003) translate(0.004999999999999005 14.222222222222223)"/><use xlink:href="#b" transform="matrix(1,0,0,1,1109.4074074074074,244.00000000000003) translate(24.69635802469136 14.222222222222223)"/><path d="M741 239h-2v-48.33h2z" fill="#5e5e5e"/><path d="M741 240h-2v-1.03h2zM741.98 169.33h-3.96l1.98-6.1z" fill="#5e5e5e"/><path d="M743.03 169.33h-2.1l-.93-2.86-.93 2.86h-2.1L740 160z" fill="#5e5e5e"/><use xlink:href="#c" transform="matrix(1,0,0,1,712.6172839506173,169.33333333333334) translate(0.004999999999999005 14.222222222222223)"/><path d="M740 241v80.5M740 241.03V240" stroke="#5e5e5e" stroke-width="2" fill="none"/><path d="M740 336.76l-4.64-14.26h9.28z" stroke="#5e5e5e" stroke-width="2" fill="#5e5e5e"/><path d="M805 321.5h-2V268h2zm0-74.83h-2V241h2z" fill="#5e5e5e"/><path d="M805 241.03h-2V240h2zM804 336.76l-4.64-14.26h9.28z" fill="#5e5e5e"/><path d="M804 340l-6-18.5h12zm-3.26-16.5l3.26 10.03 3.26-10.03z" fill="#5e5e5e"/><use xlink:href="#d" transform="matrix(1,0,0,1,799.0617283950618,246.66666666666666) translate(0.004999999999999893 14.222222222222223)"/><path d="M881 321.5h-2V264h2zm0-78.83h-2V241h2z" fill="#5e5e5e"/><path d="M881 241.03h-2V240h2zM880 336.76l-4.64-14.26h9.28z" fill="#5e5e5e"/><path d="M880 340l-6-18.5h12zm-3.26-16.5l3.26 10.03 3.26-10.03z" fill="#5e5e5e"/><use xlink:href="#e" transform="matrix(1,0,0,1,875.0617283950618,242.66666666666669) translate(0.004999999999999893 14.222222222222223)"/><path d="M941 321.5h-2v-54.83h2zm0-76.17h-2V241h2z" fill="#5e5e5e"/><path d="M941 241.03h-2V240h2zM940 336.76l-4.64-14.26h9.28z" fill="#5e5e5e"/><path d="M940 340l-6-18.5h12zm-3.26-16.5l3.26 10.03 3.26-10.03z" fill="#5e5e5e"/><use xlink:href="#f" transform="matrix(1,0,0,1,935.0617283950618,245.33333333333334) translate(0.004999999999999893 14.222222222222223)"/><path d="M1083.67 321.5h-2v-54.83h2zm0-76.17h-2V241h2z" fill="#5e5e5e"/><path d="M1083.67 241.03h-2V240h2zM1082.67 336.76l-4.64-14.26h9.27z" fill="#5e5e5e"/><path d="M1082.67 340l-6.02-18.5h12.03zm-3.26-16.5l3.27 10.03 3.26-10.03z" fill="#5e5e5e"/><use xlink:href="#g" transform="matrix(1,0,0,1,1073.283950617284,245.33333333333334) translate(0.005000000000000782 14.222222222222223)"/><path d="M741 340h340.67M741.03 340H740M1081.64 340h1.03" stroke="#5e5e5e" stroke-width="2" fill="none"/><use xlink:href="#h" transform="matrix(1,0,0,1,867.6543209876544,344) translate(0.005000000000002558 14.222222222222223)"/><path d="M741 409.33h-2v-3h2zm0-6.9h-2v-5.86h2zm0-9.75h-2v-5.86h2zm0-9.75h-2v-5.86h2zm0-9.75h-2v-5.86h2zm0-9.75h-2v-5.86h2zm0-9.75h-2v-5.86h2zm0-9.75h-2V341h2z" fill="#5e5e5e"/><path fill="#5e5e5e"/><path d="M741 341.03h-2V340h2z" fill="#5e5e5e"/><use xlink:href="#i" transform="matrix(1,0,0,1,734.2962962962963,409.3333333333333) translate(0.004999999999999893 14.222222222222223)"/><path d="M1083.65 341.02l-.05 1.98-.2 3.08-.32 3.16-.5 3.28-.63 3.4-.83 3.5-1.02 3.66-1.25 3.83-1.48 4-1.77 4.2-2.07 4.4-2.43 4.63-2.82 4.88-3.26 5.16-3.77 5.42-4.34 5.7-4.94 6-5.64 6.25-6.35 6.48-7.1 6.67-7.82 6.75-8.5 6.74-9.08 6.6-9.48 6.3-9.7 5.86-9.68 5.32-9.46 4.7-9.07 4.04-8.55 3.4-7.95 2.75-7.3 2.2-6.7 1.73-6.07 1.3-5.5.93-5 .62-4.55.4h-.43l-50.47 1.7-16.9-.57-7.93-.8-2.26-.33-14.46-3.02-6.93-3.25-7.02-4.58-21.7-17.77-10.5-11.75-14.8-21.6 1.65-1.12 14.73 21.48 10.3 11.55 21.5 17.6 6.83 4.45 6.58 3.1 14.16 2.95 2.15.32 7.82.78 16.76.56 50.37-1.67.4-.02 4.46-.37 4.93-.62 5.43-.9 6-1.3 6.6-1.68 7.22-2.2 7.87-2.73 8.47-3.36 9-4 9.37-4.67 9.6-5.28 9.62-5.84 9.4-6.25 9-6.53 8.45-6.7 7.77-6.7 7.03-6.6 6.3-6.4 5.57-6.2 4.9-5.93 4.3-5.63 3.7-5.35 3.23-5.07 2.78-4.8 2.4-4.57 2.03-4.32 1.73-4.1 1.46-3.93 1.22-3.74 1-3.57.8-3.44.64-3.32.47-3.2.32-3.07.2-3 .03-1.92z" fill="#5e5e5e"/><path d="M1083.67 340.02l-.03 1.03-2-.04.03-1.02zM757.76 423.54l-4.08 8.32-7.98-7.72v-2.32z" fill="#5e5e5e"/><path d="M759.26 422.74l-5.3 10.8-8.26-8v-4.73zm-5.88 7.45l2.87-5.86-10.44-1.5z" fill="#5e5e5e"/><use xlink:href="#j" transform="matrix(1,0,0,1,797.6541585358254,440.44715607393323) translate(0.005000000000002558 14.222222222222223)"/><use xlink:href="#k" transform="matrix(1,0,0,1,797.6541585358254,440.44715607393323) translate(55.80746913580248 14.222222222222223)"/><use xlink:href="#l" transform="matrix(1,0,0,1,797.6541585358254,440.44715607393323) translate(10.400061728395066 35.55555555555556)"/><use xlink:href="#m" transform="matrix(1,0,0,1,797.6541585358254,440.44715607393323) translate(55.28895061728396 35.55555555555556)"/><defs><path fill="#333" d="M23 0v-37h61v-169l-59 37v-38l62-41h46v211h57V0H23" id="n"/><path fill="#333" d="M182-182c0 78-84 86-111 141h115V0H12c-6-101 99-100 120-180 1-22-12-31-33-32-23 0-32 14-35 34l-49-3c5-45 32-70 84-70 51 0 83 22 83 69" id="o"/><g id="a"><use transform="matrix(0.04938271604938272,0,0,0.04938271604938272,0,0)" xlink:href="#n"/><use transform="matrix(0.04938271604938272,0,0,0.04938271604938272,9.876543209876544,0)" xlink:href="#o"/></g><path fill="#333" d="M135-194c53 0 70 44 70 98 0 56-19 98-73 100-31 1-45-17-59-34 3 33 2 69 2 105H25l-1-265h48c2 10 0 23 3 31 11-24 29-35 60-35zM114-30c33 0 39-31 40-66 0-38-9-64-40-64-56 0-55 130 0 130" id="p"/><path fill="#333" d="M220-157c-53 9-28 100-34 157h-49v-107c1-27-5-49-29-50C55-147 81-57 75 0H25l-1-190h47c2 12-1 28 3 38 10-53 101-56 108 0 13-22 24-43 59-42 82 1 51 116 57 194h-49v-107c-1-25-5-48-29-50" id="q"/><path fill="#333" d="M128 0H69L1-190h53L99-40l48-150h52" id="r"/><g id="b"><use transform="matrix(0.04938271604938272,0,0,0.04938271604938272,0,0)" xlink:href="#p"/><use transform="matrix(0.04938271604938272,0,0,0.04938271604938272,10.814814814814815,0)" xlink:href="#q"/><use transform="matrix(0.04938271604938272,0,0,0.04938271604938272,26.617283950617285,0)" xlink:href="#r"/></g><path fill="#333" d="M147 0H94L2-248h55l64 206c17-72 42-137 63-206h54" id="s"/><path fill="#333" d="M24-248c93 1 206-16 204 79-1 75-69 88-152 82V0H24v-248zm52 121c47 0 100 7 100-41 0-47-54-39-100-39v80" id="t"/><path fill="#333" d="M15-148v-39h180v39H15zm0 97v-39h180v39H15" id="u"/><path fill="#333" d="M111-147c44 9 85 22 84 75-1 49-35 65-84 68v31H91V-4C40-5 12-27 5-72l45-8c4 24 15 38 41 40-2-22 4-51-2-69-39-10-76-22-76-72 0-47 35-60 78-63v-23h20v23c47 1 70 23 78 62l-46 7c-4-18-12-32-32-34v62zm-20-63c-33-4-45 46-13 54 4 1 8 2 13 4v-58zm20 170c39 5 53-51 15-60-7-2-7-2-15-4v64" id="v"/><path fill="#333" d="M110-251c83-7 118 89 53 130-17 10-36 21-38 46H78c2-56 65-53 71-103 2-21-15-35-38-34-25 1-41 14-44 38l-50-2c6-48 39-70 93-75zM77 0v-47h51V0H77" id="w"/><g id="c"><use transform="matrix(0.04938271604938272,0,0,0.04938271604938272,0,0)" xlink:href="#s"/><use transform="matrix(0.04938271604938272,0,0,0.04938271604938272,11.851851851851853,0)" xlink:href="#t"/><use transform="matrix(0.04938271604938272,0,0,0.04938271604938272,23.703703703703706,0)" xlink:href="#u"/><use transform="matrix(0.04938271604938272,0,0,0.04938271604938272,34.074074074074076,0)" xlink:href="#v"/><use transform="matrix(0.04938271604938272,0,0,0.04938271604938272,43.95061728395062,0)" xlink:href="#w"/></g><use transform="matrix(0.04938271604938272,0,0,0.04938271604938272,0,0)" xlink:href="#n" id="d"/><use transform="matrix(0.04938271604938272,0,0,0.04938271604938272,0,0)" xlink:href="#o" id="e"/><path fill="#333" d="M128-127c34 4 56 21 59 58 7 91-148 94-172 28-4-9-6-17-7-26l51-5c1 24 16 35 40 36 23 0 39-12 38-36-1-31-31-36-65-34v-40c32 2 59-3 59-33 0-20-13-33-34-33s-33 13-35 32l-50-3c6-44 37-68 86-68 50 0 83 20 83 66 0 35-22 52-53 58" id="x"/><use transform="matrix(0.04938271604938272,0,0,0.04938271604938272,0,0)" xlink:href="#x" id="f"/><g id="g"><use transform="matrix(0.04938271604938272,0,0,0.04938271604938272,0,0)" xlink:href="#n"/><use transform="matrix(0.04938271604938272,0,0,0.04938271604938272,8.88888888888889,0)" xlink:href="#n"/></g><path fill="#333" d="M240-174c0 40-23 61-54 70L253 0h-59l-57-94H76V0H24v-248c93 4 217-23 216 74zM76-134c48-2 112 12 112-38 0-48-66-32-112-35v73" id="y"/><path fill="#333" d="M165-50V0h-47v-50H5v-38l105-160h55v161h33v37h-33zm-47-37l2-116L46-87h72" id="z"/><path fill="#333" d="M101-251c68 0 84 54 84 127C185-50 166 4 99 4S15-52 14-124c-1-75 17-127 87-127zm-1 216c37-5 36-46 36-89s4-89-36-89c-39 0-36 45-36 89 0 43-3 85 36 89" id="A"/><path fill="#333" d="M24 0v-54h51V0H24" id="B"/><g id="h"><use transform="matrix(0.04938271604938272,0,0,0.04938271604938272,0,0)" xlink:href="#y"/><use transform="matrix(0.04938271604938272,0,0,0.04938271604938272,12.790123456790125,0)" xlink:href="#u"/><use transform="matrix(0.04938271604938272,0,0,0.04938271604938272,23.160493827160497,0)" xlink:href="#v"/><use transform="matrix(0.04938271604938272,0,0,0.04938271604938272,33.03703703703704,0)" xlink:href="#z"/><use transform="matrix(0.04938271604938272,0,0,0.04938271604938272,42.91358024691358,0)" xlink:href="#A"/><use transform="matrix(0.04938271604938272,0,0,0.04938271604938272,52.79012345679013,0)" xlink:href="#B"/><use transform="matrix(0.04938271604938272,0,0,0.04938271604938272,57.7283950617284,0)" xlink:href="#A"/><use transform="matrix(0.04938271604938272,0,0,0.04938271604938272,67.60493827160494,0)" xlink:href="#A"/><use transform="matrix(0.04938271604938272,0,0,0.04938271604938272,77.48148148148148,0)" xlink:href="#A"/></g><path fill="#333" d="M93-157L62 0H13l31-157H16l6-33h28c2-54 40-81 100-68l-6 32c-29-8-44 9-45 36h38l-7 33H93" id="C"/><g id="i"><use transform="matrix(0.04938271604938272,0,0,0.04938271604938272,0,0)" xlink:href="#C"/><use transform="matrix(0.04938271604938272,0,0,0.04938271604938272,5.530864197530865,0)" xlink:href="#C"/></g><path fill="#333" d="M25-224v-37h50v37H25zM75 22c2 45-34 59-81 51V38c22 5 31-5 31-27v-201h50V22" id="D"/><path fill="#333" d="M249-155c45 1 62 31 62 79-1 48-18 79-63 79s-61-32-62-79c0-48 16-79 63-79zM97 0H61l162-248h36zM9-172c0-48 16-79 63-78 46 0 62 31 62 78 0 48-18 79-63 79S9-124 9-172zM249-25c24 0 24-26 24-51 0-26-1-52-24-52-24 0-25 26-25 52 0 25 0 51 25 51zM71-120c23 0 24-25 24-52 0-26 0-51-23-51-25 0-25 25-25 51 0 27 1 52 24 52" id="E"/><g id="j"><use transform="matrix(0.04938271604938272,0,0,0.04938271604938272,0,0)" xlink:href="#D"/><use transform="matrix(0.04938271604938272,0,0,0.04938271604938272,4.938271604938272,0)" xlink:href="#u"/><use transform="matrix(0.04938271604938272,0,0,0.04938271604938272,15.308641975308642,0)" xlink:href="#x"/><use transform="matrix(0.04938271604938272,0,0,0.04938271604938272,25.18518518518519,0)" xlink:href="#A"/><use transform="matrix(0.04938271604938272,0,0,0.04938271604938272,35.061728395061735,0)" xlink:href="#E"/></g><path fill="#333" d="M135-194c87-1 58 113 63 194h-50c-7-57 23-157-34-157-59 0-34 97-39 157H25l-1-190h47c2 12-1 28 3 38 12-26 28-41 61-42" id="F"/><path fill="#333" d="M133-34C117-15 103 5 69 4 32 3 11-16 11-54c-1-60 55-63 116-61 1-26-3-47-28-47-18 1-26 9-28 27l-52-2c7-38 36-58 82-57s74 22 75 68l1 82c-1 14 12 18 25 15v27c-30 8-71 5-69-32zm-48 3c29 0 43-24 42-57-32 0-66-3-65 30 0 17 8 27 23 27" id="G"/><g id="k"><use transform="matrix(0.04938271604938272,0,0,0.04938271604938272,0,0)" xlink:href="#F"/><use transform="matrix(0.04938271604938272,0,0,0.04938271604938272,10.814814814814815,0)" xlink:href="#G"/><use transform="matrix(0.04938271604938272,0,0,0.04938271604938272,20.69135802469136,0)" xlink:href="#q"/><use transform="matrix(0.04938271604938272,0,0,0.04938271604938272,36.49382716049383,0)" xlink:href="#r"/></g><g id="l"><use transform="matrix(0.04938271604938272,0,0,0.04938271604938272,0,0)" xlink:href="#F"/><use transform="matrix(0.04938271604938272,0,0,0.04938271604938272,10.814814814814815,0)" xlink:href="#u"/><use transform="matrix(0.04938271604938272,0,0,0.04938271604938272,21.185185185185187,0)" xlink:href="#n"/><use transform="matrix(0.04938271604938272,0,0,0.04938271604938272,30.074074074074076,0)" xlink:href="#n"/></g><g id="m"><use transform="matrix(0.04938271604938272,0,0,0.04938271604938272,0,0)" xlink:href="#p"/><use transform="matrix(0.04938271604938272,0,0,0.04938271604938272,10.814814814814815,0)" xlink:href="#q"/><use transform="matrix(0.04938271604938272,0,0,0.04938271604938272,26.617283950617285,0)" xlink:href="#r"/></g></defs></g></svg>