<svg xmlns="http://www.w3.org/2000/svg" xmlns:xlink="http://www.w3.org/1999/xlink" xmlns:lucid="lucid" width="811" height="456.33"><g transform="translate(-60 -360)" lucid:page-tab-id="0_0"><path d="M0 0h1870.4v1323.2H0z" fill="#fff"/><path d="M201 600h620.5M201.03 600H200" stroke="#000" stroke-width="2" fill="none"/><path d="M836.76 600l-14.26 4.64v-9.28z" stroke="#000" stroke-width="2"/><use xlink:href="#a" transform="matrix(1,0,0,1,196.39506172839506,574.6666666666667) translate(0.004999999999999893 14.222222222222223)"/><use xlink:href="#b" transform="matrix(1,0,0,1,245.72839506172838,574.6666666666667) translate(0.004999999999999893 14.222222222222223)"/><use xlink:href="#c" transform="matrix(1,0,0,1,293.7283950617284,574.6666666666667) translate(0.004999999999999893 14.222222222222223)"/><use xlink:href="#d" transform="matrix(1,0,0,1,344.395061728395,574.6666666666667) translate(0.004999999999999893 14.222222222222223)"/><use xlink:href="#e" transform="matrix(1,0,0,1,396.395061728395,574.6666666666667) translate(0.004999999999999893 14.222222222222223)"/><use xlink:href="#f" transform="matrix(1,0,0,1,444.395061728395,574.6666666666667) translate(0.004999999999999893 14.222222222222223)"/><use xlink:href="#g" transform="matrix(1,0,0,1,491.0617283950617,574.6666666666667) translate(0.004999999999999893 14.222222222222223)"/><use xlink:href="#a" transform="matrix(1,0,0,1,356.395061728395,604) translate(0.004999999999999893 14.222222222222223)"/><use xlink:href="#b" transform="matrix(1,0,0,1,416.395061728395,604) translate(0.004999999999999893 14.222222222222223)"/><use xlink:href="#c" transform="matrix(1,0,0,1,467.0617283950617,604) translate(0.004999999999999893 14.222222222222223)"/><use xlink:href="#d" transform="matrix(1,0,0,1,515.0617283950618,604) translate(0.004999999999999893 14.222222222222223)"/><use xlink:href="#h" transform="matrix(1,0,0,1,595.6543209876543,574.6666666666667) translate(0.005000000000000782 14.222222222222223)"/><use xlink:href="#i" transform="matrix(1,0,0,1,595.6543209876543,574.6666666666667) translate(9.881543209876545 14.222222222222223)"/><use xlink:href="#j" transform="matrix(1,0,0,1,595.6543209876543,574.6666666666667) translate(19.75808641975309 14.222222222222223)"/><use xlink:href="#k" transform="matrix(1,0,0,1,742.3703703703703,574.6666666666667) translate(0.004999999999999005 14.222222222222223)"/><use xlink:href="#l" transform="matrix(1,0,0,1,742.3703703703703,574.6666666666667) translate(24.69635802469136 14.222222222222223)"/><use xlink:href="#m" transform="matrix(1,0,0,1,751.7037037037037,604) translate(0.004999999999999005 14.222222222222223)"/><use xlink:href="#l" transform="matrix(1,0,0,1,751.7037037037037,604) translate(24.69635802469136 14.222222222222223)"/><path d="M200 559V458.5M200 558.97V560" stroke="#000" stroke-width="2" fill="none"/><path d="M200 443.24l4.64 14.26h-9.28z" stroke="#000" stroke-width="2"/><path d="M80 386c0-3.3 2.7-6 6-6h228c3.3 0 6 2.7 6 6v48c0 3.3-2.7 6-6 6H86c-3.3 0-6-2.7-6-6z" fill="#fff" fill-opacity="0"/><use xlink:href="#n" transform="matrix(1,0,0,1,85,385) translate(40.06172839506172 30.27777777777778)"/><use xlink:href="#o" transform="matrix(1,0,0,1,85,385) translate(60.61728395061728 30.27777777777778)"/><use xlink:href="#p" transform="matrix(1,0,0,1,85,385) translate(79.75308641975307 30.27777777777778)"/><path d="M201 639.67h-2v-19.34h2zm0-29h-2V601h2z"/><path d="M201 601.03h-2V600h2z"/><path/><use xlink:href="#q" transform="matrix(1,0,0,1,189.23177083333334,644.4791666666666) translate(0.005000000000000782 24.752604166666664)"/><path d="M400 601v80.5M400 601.03V600" stroke="#000" stroke-width="2" fill="none"/><path d="M400 696.76l-4.64-14.26h9.28z" stroke="#000" stroke-width="2"/><path d="M446.67 601v80.5M446.67 601.03V600" stroke="#000" stroke-width="2" fill="none"/><path d="M446.67 696.76l-4.64-14.26h9.27z" stroke="#000" stroke-width="2"/><path d="M500 601v80.5M500 601.03V600" stroke="#000" stroke-width="2" fill="none"/><path d="M500 696.76l-4.64-14.26h9.28z" stroke="#000" stroke-width="2"/><path d="M739 701H401v-2h338z"/><path d="M401.03 701H400v-2h1.03zM740 701h-1.03v-2H740z"/><use xlink:href="#r" transform="matrix(1,0,0,1,686.6666666666666,687.2) translate(0.005 17.06666666666667)"/><path d="M740 601v80.5M740 601.03V600" stroke="#000" stroke-width="2" fill="none"/><path d="M740 696.76l-4.64-14.26h9.28z" stroke="#000" stroke-width="2"/><path d="M700 700h100v27.44H700z" fill="#fff" fill-opacity="0"/><path d="M718.68 720.54l-.05.42h-4.35l-3.87-8.12c-.25.02-.53.05-.74.05-.36 0-.6-.06-.98-.1l-1.6 6.15c-.04.2-.07.38-.07.6 0 .6.47 1 1.97 1h.5l-.12.4h-8.37l.1-.4h.4c1.97 0 2.5-.73 2.72-1.6l3.2-12.8c.05-.22.12-.45.12-.66 0-.55-.43-.96-1.98-.96h-.5l.1-.4h6.97c4.14 0 5.58 1.7 5.58 3.88 0 2.14-1.83 3.87-4.6 4.4l2.97 5.9c.5 1 1.16 2.1 2.63 2.22m-8.1-15.38l-1.66 6.7c.33.08.6.1.82.1 3.43 0 4.92-1.5 4.92-3.66 0-2.78-1.6-3.22-3.22-3.22-.36 0-.6.03-.87.08M727.7 722.34l-.97 2.5h-7.13v-.22l3.25-3.45c1.7-1.8 2.37-3.18 2.37-4.73 0-1.66-1-2.57-2.54-2.57-1.3 0-1.95.58-2.68 2.37l-.38-.1c.38-2.13 1.55-3.62 3.8-3.62 2.05 0 3.36 1.4 3.36 3.2 0 1.45-.7 2.8-2.33 4.53l-3 3.2h4.26c.77 0 1.16-.2 1.76-1.22M760.8 712.7h-15.2V711h15.2v1.7m0 5.16h-15.2v-1.7h15.2v1.7M782.44 704.54v6.34c3.12 1.68 3.76 2.32 4.46 3.38.36.54.54 1.36.54 2.32 0 2.98-2.04 3.96-5 4.38v2.24h-.88v-2.24c-2.24 0-3.37-.36-4.8-1.32v-3.35h.4c.54 2.57 2.13 3.93 4.4 3.93v-7.26c-3.55-2-4.6-3.07-4.6-5.23 0-2.58 2.2-3.74 4.6-3.9v-1.62h.88v1.62c2.1.13 3.35.57 4.15 1.37v2.87h-.4c-.52-2.14-1.7-3.27-3.76-3.53m-.88 5.93v-5.93c-1.83.36-2.68 1.4-2.68 2.7 0 1.14.52 1.76 2.68 3.23m.88 2.94v6.83c2.1-.43 2.94-1.23 2.94-3.06 0-1.57-.6-2.37-2.94-3.76M794.8 716.73h-.43c.03-1.03.23-2.32 1.13-4.56.67-1.65 1.32-3.27 1.32-4.82 0-1.78-1.24-3.04-2.8-3.04-1.25 0-2.43.78-2.43 1.6 0 .96.97 1.06.97 1.9 0 .66-.42 1.12-1.06 1.12-.7 0-1.23-.64-1.23-1.7 0-2.14 1.75-3.68 4.23-3.68 2.5 0 4.7 1.57 4.7 4.07 0 1.58-.5 2.46-2.72 5.08-.93 1.1-1.4 2.3-1.67 4.05zm1.2 3.07c0 .74-.57 1.36-1.35 1.36-.87 0-1.4-.64-1.4-1.36 0-.78.6-1.37 1.4-1.37.72 0 1.34.64 1.34 1.37"/><path d="M500 720h160v28.1H500z" fill="#fff" fill-opacity="0"/><path d="M509.66 726.16c0 .65-.55 1.15-1.2 1.15-.72 0-1.2-.5-1.2-1.14 0-.62.48-1.24 1.2-1.24.65 0 1.2.62 1.2 1.24m-.52 3.12l-2.7 10.6c-.54 2.2-1.94 5.05-4.63 5.05-1.3 0-1.8-.82-1.8-1.52 0-.54.3-1.28 1.16-1.28.47 0 .87.37.87.94 0 .38-.4.45-.4.85 0 .1.13.26.25.26 1.15 0 1.97-1.9 2.57-4.3l2.3-9.04c0-.3-.26-.54-.8-.54-.2 0-.5.05-.68.12l-.07-.42M518.44 741.6l-.95 2.4h-6.9v-.2l3.13-3.33c1.66-1.75 2.3-3.1 2.3-4.58 0-1.62-.96-2.5-2.46-2.5-1.27 0-1.88.56-2.6 2.3l-.36-.1c.38-2.06 1.5-3.5 3.68-3.5 2 0 3.26 1.35 3.26 3.1 0 1.4-.7 2.7-2.26 4.37l-2.9 3.1h4.12c.74 0 1.1-.2 1.7-1.18M550.44 732.3h-14.68v-1.65h14.68v1.64m0 4.98h-14.68v-1.65h14.68v1.65M566.32 727.56l-.4-.1c.72-2.37 2.3-4.04 4.9-4.04 2.3 0 3.88 1.37 3.88 3.42 0 1.2-.65 2.44-2.32 3.44 1.1.47 1.54.77 2.07 1.32.7.77 1.1 1.92 1.1 3.2 0 1.33-.43 2.55-1.15 3.5-1.2 1.6-3.57 2.32-5.8 2.32-1.8 0-2.78-.52-2.78-1.42 0-.52.45-.9 1.02-.9.43 0 .83.15 1.52.65.93.65 1.45.77 2.15.77 1.85 0 3.25-1.7 3.25-3.8 0-1.9-.87-3.13-2.6-3.63-.54-.18-1.1-.25-2.54-.25v-.35c.96-.33 1.6-.6 2.1-.9 1.23-.7 2.03-1.82 2.03-3.34 0-1.7-1.05-2.54-2.7-2.54-1.54 0-2.7.8-3.7 2.64M588.38 723.22l.05.4c-3.9.65-6.7 3.34-7.38 7.1 1.22-.94 2.07-1.12 3.17-1.12 2.92 0 4.7 2 4.7 5.2 0 1.6-.44 3-1.26 4-.92 1.15-2.32 1.82-3.96 1.82-1.97 0-3.54-.92-4.42-2.52-.7-1.27-1.17-3.04-1.17-4.78 0-2.7.96-5.06 2.73-6.88 2.14-2.25 4.1-2.85 7.55-3.22m-1.7 12.36c0-3.2-1.04-4.83-3.36-4.83-1.42 0-2.9.6-2.9 2.9 0 3.78 1.2 6.27 3.55 6.27 1.8 0 2.72-1.8 2.72-4.34M606.85 734.96c0 3.02-1.94 5.8-4.08 5.8-1.7 0-3.02-1.5-3.02-3.46 0-2.66 2.32-5.25 4.7-5.25 1.53 0 2.4 1.07 2.4 2.9m-.57-.04c0-1.28-.62-2.16-1.57-2.16-.4 0-.9.23-1.2.58-1.1 1.17-1.96 3.36-1.96 5.06 0 .97.6 1.7 1.4 1.7 1.72 0 3.34-2.53 3.34-5.17m-1.05-12.23l-10.72 18.05h-1.16l9.82-16.4c-.92 1.07-1.7 1.42-3 1.42-.66 0-1.1-.08-1.9-.35.07.4.1.7.1 1.1 0 1.73-.8 3.6-2 4.72-.67.65-1.32.92-2.14.92-1.68 0-2.95-1.47-2.95-3.4 0-2.83 2.27-5.32 4.8-5.32.54 0 .84.15 1.5.7.88.72 1.48.97 2.4.97 1.55 0 1.87-.2 4.17-2.43h1.1m-7.5 3.42c0-.74-.08-.9-.6-1.16-.36-.17-.68-.4-1.1-.85-1.03.5-1.3.74-1.8 1.56-.77 1.23-1.2 2.7-1.2 4.07 0 1.04.58 1.74 1.42 1.74 1.77 0 3.3-2.52 3.3-5.38M626.25 737.88l-.13.15c-.7.85-1.9 2.44-3.2 2.44-.8 0-1-.57-1-1.15 0-.32.1-.72.16-1l1.43-5.5c.06-.2.18-.7.18-1.05 0-.47-.15-.95-.6-.95-.95 0-2.52 2.15-3.3 3.32-.9 1.35-1.53 2.52-1.68 3.04l-.83 3.1h-1.92l2.37-9.33c0-.45-.07-.8-.75-.8-.24 0-.52.05-.7.08l-.04-.38 3.96-.57-1.28 4.7h.07c.12 0 1.34-1.74 1.4-1.8 1-1.26 2.48-2.9 3.98-2.9 1.1 0 1.4.72 1.4 1.54 0 .63-.16 1.25-.28 1.75l-1.47 5.76c-.03.05-.03.12-.03.25.03.15.1.35.38.35.6 0 1.2-.9 1.54-1.33M638.8 729.6l-2.28 8.6s-.03.05-.03.28c0 .27.14.42.34.42.25 0 .63-.05 1.6-1.35l.3.3c-.78 1.18-2.12 2.67-3.32 2.67-.82 0-1.05-.57-1.05-1.37 0-.32.15-.85.28-1.25h-.1c-1.8 2.3-3.34 2.62-4.3 2.62-1.58 0-2.23-1.37-2.23-2.97 0-3.3 3.3-8.27 6.88-8.27 1.07 0 1.6.6 1.64 1.14h.03l.22-.82h2m-2.63 2.17c0-1.02-.3-1.77-1.25-1.77-1.7 0-3.2 2.17-4.04 4.26-.44 1.13-.7 2.22-.7 3.1 0 1.32.78 1.64 1.45 1.64 1.72 0 3.47-2.37 4.16-4.74.2-.64.37-1.64.37-2.5M646.6 729.35l-.26.95h-1.75l-1.95 7.98c-.02.07-.05.2-.05.27 0 .15.08.3.4.3 0 0 .57-.05 1.5-1.3l.32.28c-.6.77-1.85 2.67-3.32 2.67-.77 0-.97-.63-.97-1.3 0-.32.05-.65.13-.92l2.02-7.98h-1.92l.12-.72c1.87-.35 3.4-1.27 4.4-3.44h.34l-.78 3.2h1.75M653.52 728.95l-2.22 8.13c-.07.25-.1.52-.1.8 0 .95.5 1.64 1.5 1.64 2.7 0 4.43-2.8 5.23-5.06.2-.6.37-1.22.37-1.84 0-1.85-1.52-1.62-1.52-2.72 0-.85.63-1.05 1.35-1.05 1.05 0 1.17 1.28 1.17 2.07 0 2.47-.97 5-2.42 6.98-1.07 1.5-3 2.6-4.83 2.6-1.6 0-2.9-.5-2.9-2.32 0-.53.08-1.05.23-1.55l1.45-5.23c.05-.2.12-.43.12-.63 0-.5-1.1-.5-1.42-.5v-.37c1.3-.32 2.64-.5 3.9-1.05" fill="#0c7cba"/><path d="M517.6 748.1h124.8v23.82H517.6z" fill="#fff" fill-opacity="0"/><path d="M528.7 763.66l-.13.14c-.66.8-1.8 2.33-3.04 2.33-.76 0-.97-.55-.97-1.1 0-.3.1-.68.16-.95l1.36-5.25c.05-.2.16-.66.16-1 0-.45-.14-.9-.57-.9-.9 0-2.4 2.05-3.13 3.16-.86 1.28-1.48 2.4-1.62 2.9l-.78 2.94h-1.83l2.27-8.9c0-.42-.08-.75-.72-.75-.23 0-.5.04-.66.06l-.06-.35 3.78-.54-1.2 4.5h.06c.12 0 1.28-1.67 1.33-1.74.96-1.2 2.38-2.76 3.8-2.76 1.05 0 1.34.7 1.34 1.47 0 .6-.14 1.2-.26 1.67l-1.4 5.48c-.03.05-.03.12-.03.24.03.14.1.33.36.33.58 0 1.15-.85 1.48-1.25M537.37 767.2l-.9 2.3h-6.58v-.2l2.98-3.18c1.58-1.66 2.2-2.93 2.2-4.36 0-1.53-.92-2.37-2.35-2.37-1.2 0-1.8.53-2.47 2.17l-.35-.08c.36-1.98 1.44-3.35 3.5-3.35 1.9 0 3.1 1.3 3.1 2.95 0 1.33-.65 2.6-2.14 4.17l-2.77 2.95h3.92c.7 0 1.06-.18 1.6-1.12M567.87 758.33h-14v-1.56h14v1.56m0 4.76h-14v-1.58h14v1.57M592.82 762.68l-1.28 3.26h-9.3v-.3l4.23-4.48c2.24-2.35 3.1-4.16 3.1-6.18 0-2.16-1.3-3.35-3.3-3.35-1.72 0-2.55.76-3.5 3.1l-.5-.13c.5-2.78 2.02-4.72 4.94-4.72 2.7 0 4.4 1.83 4.4 4.18 0 1.87-.92 3.66-3.03 5.9l-3.93 4.17h5.56c1 0 1.5-.26 2.3-1.6M604.75 758.1c0 4.08-1.5 8.17-5.37 8.17-4.07 0-5.37-4.42-5.37-8.32 0-4.2 1.65-8.07 5.47-8.07 3.1 0 5.28 3.35 5.28 8.22m-2.3.12c0-4.95-1.03-7.73-3.12-7.73-1.97 0-3.04 2.8-3.04 7.62s1.03 7.53 3.08 7.53c2.02 0 3.08-2.73 3.08-7.43M617.3 757.15l.32-.3c.93-.9 1.86-1.4 2.7-1.4 1.44 0 2.22 1.3 2.22 3.7 0 3.06-2.6 7.07-6.03 7.07-.56 0-1-.1-1.44-.45l-.57 2.38c-.08.3-.13.57-.13.83 0 .52.26 1.02 1.45 1.02h.38l-.07.3h-5.56l.07-.3c1.47-.07 1.64-.78 1.92-1.88l2.78-11.02c0-.45-.02-.8-.73-.8-.18 0-.47.06-.66.1l-.05-.37 3.75-.57-.43 1.64m-.86 3.18l-1.1 4.75c.34.38.82.5 1.1.5 2.4 0 4.2-4.1 4.2-6.77 0-1.5-.68-1.97-1.23-1.97-1.26 0-2.5 1.44-2.97 3.48M629.62 755.53l-.24.9h-1.66l-1.85 7.6c-.03.08-.05.2-.05.27 0 .14.07.28.38.28 0 0 .55-.04 1.43-1.23l.3.26c-.57.75-1.75 2.55-3.16 2.55-.73 0-.92-.6-.92-1.23 0-.3.05-.62.12-.88l1.92-7.6h-1.84l.12-.7c1.78-.33 3.23-1.2 4.2-3.27h.32l-.74 3.06h1.66M636.23 755.15l-2.12 7.75c-.06.23-.08.5-.08.76 0 .9.47 1.56 1.42 1.56 2.57 0 4.23-2.68 5-4.82.18-.57.35-1.16.35-1.76 0-1.75-1.46-1.54-1.46-2.6 0-.8.6-.98 1.28-.98 1 0 1.12 1.2 1.12 1.97 0 2.35-.93 4.75-2.3 6.65-1.03 1.43-2.86 2.47-4.62 2.47-1.52 0-2.75-.47-2.75-2.2 0-.5.07-1 .2-1.48l1.4-5c.04-.18.1-.4.1-.58 0-.5-1.04-.5-1.34-.5v-.35c1.23-.3 2.5-.47 3.7-1" fill="#0c7cba"/><path d="M220 677.62h140.14v26.7H220z" fill="#fff" fill-opacity="0"/><path d="M229.18 683.47c0 .62-.53 1.1-1.14 1.1-.7 0-1.14-.48-1.14-1.1 0-.6.45-1.18 1.14-1.18.6 0 1.14.58 1.14 1.17m-.5 2.96l-2.56 10.07c-.52 2.08-1.85 4.8-4.4 4.8-1.26 0-1.73-.78-1.73-1.44 0-.52.27-1.23 1.1-1.23.45 0 .83.35.83.9 0 .35-.38.42-.38.8 0 .1.12.24.24.24 1.08 0 1.86-1.8 2.43-4.07l2.18-8.6c0-.28-.23-.52-.75-.52-.2 0-.48.05-.64.12l-.06-.4M236.17 700.43h-4.62v-.25c1.24-.07 1.6-.42 1.6-1.34v-7.52c0-.57-.16-.82-.5-.82-.18 0-.46.08-.76.2l-.46.17v-.24l3-1.52.14.06v10c0 .72.34 1.02 1.6 1.02v.25M262 689.3h-13.95v-1.56H262v1.56m0 4.73h-13.95v-1.56H262v1.56M271.16 684.8l-.38-.1c.7-2.24 2.18-3.83 4.64-3.83 2.2 0 3.7 1.3 3.7 3.24 0 1.15-.62 2.33-2.2 3.28 1.03.45 1.46.73 1.96 1.26.66.73 1.04 1.82 1.04 3.05 0 1.25-.4 2.4-1.1 3.3-1.13 1.52-3.38 2.2-5.48 2.2-1.73 0-2.66-.5-2.66-1.34 0-.5.43-.85.98-.85.4 0 .78.15 1.44.62.88.62 1.37.74 2.04.74 1.75 0 3.07-1.62 3.07-3.63 0-1.8-.8-2.96-2.45-3.43-.52-.17-1.06-.24-2.4-.24v-.33c.9-.3 1.5-.57 1.98-.85 1.16-.66 1.9-1.73 1.9-3.17 0-1.6-.98-2.4-2.54-2.4-1.48 0-2.57.75-3.54 2.5M292.1 680.68l.06.38c-3.72.6-6.37 3.17-7 6.75 1.15-.9 1.96-1.06 3-1.06 2.77 0 4.47 1.9 4.47 4.95 0 1.5-.42 2.83-1.2 3.78-.88 1.1-2.2 1.73-3.77 1.73-1.87 0-3.36-.87-4.2-2.38-.65-1.2-1.1-2.9-1.1-4.55 0-2.56.9-4.8 2.58-6.54 2.04-2.13 3.9-2.7 7.17-3.05m-1.6 11.74c0-3.03-1-4.6-3.2-4.6-1.34 0-2.74.58-2.74 2.76 0 3.6 1.14 5.96 3.36 5.96 1.7 0 2.58-1.7 2.58-4.12M309.66 691.83c0 2.87-1.85 5.5-3.88 5.5-1.6 0-2.87-1.42-2.87-3.27 0-2.54 2.2-5 4.5-5 1.43 0 2.26 1.02 2.26 2.77m-.55-.04c0-1.25-.58-2.07-1.48-2.07-.38 0-.87.2-1.16.54-1.04 1.1-1.84 3.2-1.84 4.8 0 .93.56 1.62 1.32 1.62 1.64 0 3.17-2.4 3.17-4.9m-.98-11.64l-10.18 17.14h-1.1l9.32-15.58c-.88 1.02-1.62 1.35-2.87 1.35-.63 0-1.05-.07-1.8-.33.06.4.1.66.1 1.04 0 1.66-.77 3.44-1.9 4.5-.65.62-1.26.88-2.05.88-1.58 0-2.8-1.4-2.8-3.25 0-2.66 2.17-5.03 4.58-5.03.5 0 .78.14 1.42.66.83.7 1.4.93 2.27.93 1.47 0 1.78-.2 3.96-2.3h1.04m-7.1 3.24c0-.68-.1-.85-.6-1.1-.33-.15-.63-.37-1.04-.8-.97.48-1.23.72-1.7 1.5-.74 1.16-1.14 2.56-1.14 3.86 0 1 .55 1.66 1.35 1.66 1.67 0 3.12-2.4 3.12-5.12M328.08 694.6l-.12.14c-.66.8-1.8 2.33-3.03 2.33-.76 0-.97-.55-.97-1.1 0-.3.1-.68.17-.94l1.35-5.23c.04-.2.16-.67.16-1 0-.45-.14-.9-.57-.9-.9 0-2.4 2.04-3.12 3.15-.85 1.28-1.47 2.4-1.6 2.9l-.8 2.93h-1.82l2.25-8.86c0-.43-.07-.76-.7-.76-.24 0-.5.05-.67.07l-.04-.35 3.77-.55-1.2 4.48h.06c.1 0 1.27-1.65 1.32-1.72.94-1.18 2.37-2.75 3.8-2.75 1.03 0 1.3.7 1.3 1.47 0 .6-.13 1.2-.25 1.66l-1.4 5.47c-.02.05-.02.12-.02.24.02.14.1.33.36.33.57 0 1.14-.86 1.47-1.26M340 686.74l-2.16 8.17s-.03.06-.03.27c0 .26.16.4.35.4.23 0 .6-.04 1.5-1.27l.3.28c-.74 1.1-2.02 2.53-3.15 2.53-.8 0-1-.53-1-1.3 0-.3.14-.8.26-1.17h-.1c-1.7 2.18-3.17 2.48-4.1 2.48-1.48 0-2.1-1.3-2.1-2.8 0-3.13 3.13-7.87 6.54-7.87 1.02 0 1.5.57 1.56 1.1h.02l.22-.8h1.9m-2.5 2.07c0-.97-.28-1.68-1.18-1.68-1.6 0-3.03 2.06-3.83 4.05-.44 1.07-.68 2.1-.68 2.94 0 1.26.74 1.57 1.38 1.57 1.63 0 3.3-2.25 3.95-4.5.2-.62.36-1.56.36-2.37M347.4 686.5l-.23.9h-1.66l-1.84 7.58c-.02.07-.05.2-.05.26 0 .14.1.3.4.3 0 0 .54-.06 1.4-1.24l.32.26c-.57.73-1.75 2.53-3.15 2.53-.73 0-.92-.6-.92-1.24 0-.3.05-.62.12-.88l1.92-7.58h-1.84l.12-.68c1.78-.33 3.22-1.2 4.2-3.27h.3l-.73 3.05h1.65M354 686.13l-2.12 7.72c-.07.23-.1.5-.1.75 0 .9.48 1.57 1.42 1.57 2.56 0 4.22-2.68 4.98-4.8.2-.58.35-1.17.35-1.76 0-1.75-1.44-1.53-1.44-2.57 0-.8.58-1 1.27-1 1 0 1.1 1.2 1.1 1.97 0 2.34-.9 4.73-2.3 6.63-1 1.42-2.83 2.46-4.58 2.46-1.53 0-2.76-.48-2.76-2.2 0-.5.07-1 .22-1.48l1.37-4.97c.05-.2.12-.4.12-.6 0-.47-1.04-.47-1.35-.47v-.35c1.23-.3 2.5-.48 3.7-1" fill="#0c7cba"/><path d="M241.56 705.34h102.42v24.14H241.56z" fill="#fff" fill-opacity="0"/><path d="M252.8 721.1l-.1.15c-.68.82-1.84 2.37-3.1 2.37-.76 0-.98-.56-.98-1.1 0-.33.1-.7.17-.98l1.36-5.32c.05-.2.17-.67.17-1 0-.47-.14-.93-.58-.93-.9 0-2.43 2.07-3.18 3.2-.86 1.3-1.5 2.43-1.63 2.94l-.8 2.98h-1.85l2.27-9c0-.44-.07-.78-.72-.78-.24 0-.5.05-.67.08l-.05-.36 3.83-.56-1.23 4.55h.07c.12 0 1.3-1.68 1.35-1.75.96-1.2 2.4-2.8 3.86-2.8 1.06 0 1.35.7 1.35 1.5 0 .6-.14 1.2-.26 1.68l-1.43 5.56c-.03.05-.03.12-.03.24.03.15.1.34.37.34.58 0 1.16-.87 1.5-1.27M260.24 727.04h-4.7v-.26c1.26-.07 1.62-.43 1.62-1.36v-7.65c0-.58-.15-.83-.5-.83-.18 0-.47.08-.78.2l-.46.17v-.23l3.05-1.55.16.06v10.16c0 .73.34 1.04 1.6 1.04v.26M286.5 715.72h-14.18v-1.6h14.18v1.6m0 4.8h-14.18v-1.58h14.18v1.6M295.83 711.14l-.4-.1c.7-2.28 2.23-3.9 4.73-3.9 2.24 0 3.76 1.33 3.76 3.3 0 1.16-.63 2.36-2.24 3.32 1.06.46 1.5.75 2 1.28.67.75 1.06 1.86 1.06 3.1 0 1.28-.4 2.46-1.1 3.38-1.17 1.54-3.46 2.24-5.6 2.24-1.76 0-2.7-.5-2.7-1.37 0-.52.44-.88 1-.88.4 0 .8.14 1.46.63.9.62 1.4.74 2.07.74 1.78 0 3.13-1.65 3.13-3.7 0-1.82-.84-3-2.5-3.48-.53-.17-1.1-.25-2.46-.25v-.33c.92-.32 1.54-.58 2.02-.87 1.18-.67 1.95-1.76 1.95-3.23 0-1.63-1-2.45-2.6-2.45-1.48 0-2.6.76-3.57 2.54M318.5 714.5l.35-.3c.94-.9 1.88-1.4 2.72-1.4 1.47 0 2.26 1.3 2.26 3.73 0 3.1-2.64 7.18-6.1 7.18-.6 0-1.02-.08-1.48-.45l-.58 2.4c-.07.33-.12.6-.12.86 0 .54.27 1.04 1.47 1.04h.38l-.07.3h-5.63l.07-.3c1.5-.07 1.66-.8 1.95-1.9l2.82-11.18c0-.45-.03-.8-.75-.8-.2 0-.5.06-.68.1l-.05-.38 3.8-.58-.43 1.66m-.87 3.23l-1.1 4.8c.33.4.8.5 1.1.5 2.44 0 4.24-4.15 4.24-6.85 0-1.52-.66-2-1.22-2-1.27 0-2.53 1.47-3 3.54M331.04 712.87l-.24.92h-1.7l-1.87 7.7c-.02.07-.05.2-.05.26 0 .15.07.3.4.3 0 0 .54-.06 1.43-1.26l.33.26c-.58.75-1.8 2.58-3.2 2.58-.75 0-.95-.6-.95-1.25 0-.33.05-.64.12-.9l1.95-7.7h-1.85l.12-.7c1.8-.35 3.28-1.24 4.26-3.33h.32l-.75 3.1h1.7M337.7 712.5l-2.14 7.84c-.07.24-.1.5-.1.77 0 .93.5 1.6 1.45 1.6 2.6 0 4.3-2.72 5.07-4.9.2-.57.36-1.17.36-1.77 0-1.78-1.47-1.57-1.47-2.63 0-.82.6-1 1.3-1 1 0 1.13 1.22 1.13 2 0 2.38-.94 4.8-2.34 6.73-1.04 1.45-2.9 2.5-4.67 2.5-1.55 0-2.8-.47-2.8-2.23 0-.5.06-1 .2-1.5l1.4-5.05c.05-.2.13-.4.13-.6 0-.5-1.06-.5-1.38-.5v-.35c1.26-.3 2.56-.48 3.76-1M557.56 803.9l5.1.34 3.75.1h.26l7.75-.16.05 2-7.77.15h-.3l-3.8-.1-5.2-.35-2.58-.28.22-2zM603.8 805l-13.8.86-5.77.12-.04-2 5.7-.1 13.77-.87zm-73.54-5.48l11.32 2.2 3.8.6-.3 1.97-3.84-.58-11.4-2.22-4.03-.96.47-1.95zM633 801.7l-10.1 1.5-9.33.97-.2-2 9.3-.96 10.05-1.47zm28.8-6.2l-4.66 1.3-9.87 2.32-4.6.87-.37-1.97 4.55-.87 9.8-2.3 4.6-1.27zm-158.7-3.07l13.7 3.9-.54 1.9-13.76-3.88-5.03-1.66.63-1.9zm186.34-7.06l-3.15 1.48-6.07 2.54-6.78 2.5-2.28.75-.6-1.9 2.22-.73 6.7-2.5 5.98-2.5 3.1-1.46zm-213.66-2.54l13.07 4.9-.7 1.88-13.1-4.9-5.15-2.2.78-1.83zm238.6-13.2l-2.26 1.9-3.37 2.54-3.67 2.56-4.03 2.55-2.86 1.65-1-1.73 2.8-1.63 3.97-2.5 3.6-2.52 3.3-2.5 2.25-1.85zm-261.5 2.94l8.87 4.2-.86 1.82-8.92-4.24-8.6-4.53.93-1.77zM421.5 753.7l6.32 4.4 7.24 4.63.8.47-1 1.73-.84-.5-7.3-4.66-6.4-4.47-1.77-1.36 1.2-1.6zm311.84-6.72l-.5.9-1.66 2.75-1.8 2.7-1.93 2.67-2.1 2.64-2.24 2.6-1.5 1.6-1.46-1.35 1.48-1.6 2.2-2.54 2.03-2.57 1.9-2.6 1.74-2.64 1.62-2.68.47-.87zM400 734.48l3.26 3.5 3.7 3.67 4.23 3.82.96.8-1.28 1.55-1-.84-4.3-3.88-3.75-3.7-3.33-3.58-1.6-1.87 1.5-1.3zm340.7-5.82l-.3 1.2-.98 3.24-1.1 3.12-.7 1.83-1.87-.74.7-1.77 1.07-3.05.95-3.16.3-1.17zm-352.15-9.85l1.77 2.95 2 3.02.15.22-1.62 1.16-.18-.25-2.05-3.1-1.8-3-1.14-2.08 1.76-.95zM390.56 714.7l-8.67 3.3-.75-14.97z" fill="#0c7cba"/><path d="M392.2 715.16l-11.24 4.27L380 700zm-9.38 1.42l6.1-2.3-6.62-8.23zM740.7 728.7l-1.93-.52.2-.74h2.06z" fill="#0c7cba"/><path d="M306.42 780.45l-5.04.37-14.26.17-.02-2 14.2-.18 4.97-.37zm-45.95-9.33l4.73 2.32 4.3 1.8 3.82 1.36 3.35.97 1.14.26-.44 1.95-1.2-.27-3.45-1-3.93-1.4-4.4-1.84-4.83-2.37-.33-.2 1-1.74zm74.1 2l-2 .92-3.75 1.5-3.86 1.3-4 1.14-4.23.97-.68.12-.35-1.97.63-.1 4.12-.96 3.92-1.1 3.76-1.3 3.65-1.44 1.96-.9zm23.93-16.55l-.67.66-3.65 3.28-3.6 2.93-3.6 2.62-3.56 2.34-.27.15-1-1.73.22-.13 3.48-2.3 3.5-2.55 3.53-2.86 3.58-3.23.63-.62zm-119.37-.2l5.47 4.5 5.46 3.96 1.9 1.23-1.07 1.68-1.96-1.26-5.56-4.03-5.57-4.56-2.22-2.07 1.35-1.47zM376.73 734l-3.46 5.18-4.02 5.43-3.9 4.76-.18.2-1.48-1.34.14-.17 3.83-4.67 3.96-5.34 3.42-5.15zm-157.8.24l4.66 6.07 4.94 5.75 1.56 1.6-1.43 1.4-1.6-1.65-5.03-5.83-4.73-6.16-.92-1.37 1.66-1.12zm-8.3-13.03l2.2 3.7-1.72 1-2.2-3.7-2.48-4.75 1.77-.93zm175.6-4.04l-4.5 8.5-1.75-.93 4.5-8.5zM211.17 714.25l-8.52 3.66-1.37-14.93z" fill="#0c7cba"/><path d="M212.83 714.62l-11.04 4.75L200 700zm-9.3 1.83l5.98-2.58-6.94-7.92zM386.7 716.23l-.46.92-1.8-.88.46-.92z" fill="#0c7cba"/><path d="M360.14 500H540v27.13H360.14z" fill="#fff" fill-opacity="0"/><path d="M378.57 504.08l-1.02 4.08h-.4v-.92c-.06-2-1.6-2.22-2.8-2.22h-3.73l-1.58 6.32h2.1c1.6 0 2.76-.25 3.3-2.42h.4l-1.52 6.17h-.4c.07-.37.12-1.1.12-1.56 0-1.2-1.05-1.28-1.8-1.28h-2.46l-1.58 6.47c-.02.16-.1.36-.1.54 0 .64.48 1.04 2 1.04h.83l-.1.42h-8.72l.1-.4h.47c1.94 0 2.47-.72 2.7-1.6l3.16-12.65c.05-.2.1-.43.1-.6 0-.55-.4-1-1.93-1h-.5l.12-.4h13.25M383 524.56h-5v-.27c1.35-.08 1.73-.46 1.73-1.45v-8.1c0-.6-.17-.87-.55-.87-.18 0-.48.1-.8.2l-.5.2V514l3.23-1.64.17.05v10.76c0 .76.36 1.1 1.72 1.1v.26M410.77 512.57h-15v-1.68h15v1.67m0 5.1h-15v-1.7h15v1.7M444.82 504.08l-.1.4c-1.66.1-2.7 1.1-3.37 1.97l-11.24 14.68h-.6v-14.55c0-1.48-.97-2.1-2.52-2.1l.1-.4h7.5l-.1.4h-.5c-1.65 0-1.78.95-1.78 1.8v9.96l.1.02 7.14-9.32c.48-.62.97-1.35.97-1.9 0-.37-.35-.55-1.32-.55h-.5l.1-.42h6.14M449.94 504.08h6.9c4.34 0 5.92 2.2 5.92 4.08 0 2.5-2.07 5.07-7.27 5.07-.72 0-1.28-.03-1.9-.13-.12 0-.2-.02-.3-.05l-1.42 5.68c-.06.2-.08.4-.08.6 0 .6.46.98 1.96.98h.82l-.1.42h-8.7l.1-.4h.44c1.96 0 2.47-.72 2.7-1.6l3.2-12.65c.04-.2.1-.43.1-.64 0-.53-.44-.94-2-.94h-.48m5.45.6l-1.74 6.98c.4.1 1.02.2 1.53.2 2.6 0 4.62-1.78 4.62-4.38 0-1.52-.76-2.88-3.18-2.88-.43 0-.82.03-1.25.08M468.5 522.1l-.98 2.46h-7.05v-.22l3.2-3.4c1.7-1.8 2.35-3.16 2.35-4.7 0-1.63-.97-2.53-2.5-2.53-1.3 0-1.93.6-2.65 2.36l-.38-.1c.37-2.1 1.52-3.58 3.74-3.58 2.03 0 3.33 1.4 3.33 3.17 0 1.42-.7 2.78-2.3 4.47l-2.98 3.17h4.2c.76 0 1.14-.2 1.74-1.22M501.23 512.57h-15v-1.68h15v1.67m0 5.1h-15v-1.7h15v1.7M522.64 504.5v6.26c3.08 1.65 3.72 2.3 4.4 3.34.36.53.54 1.35.54 2.3 0 2.95-2 3.9-4.94 4.32v2.22h-.87v-2.22c-2.22 0-3.34-.36-4.74-1.3v-3.3h.38c.55 2.54 2.13 3.9 4.37 3.9v-7.2c-3.52-2-4.54-3.03-4.54-5.17 0-2.55 2.17-3.7 4.54-3.85v-1.6h.87v1.6c2.06.13 3.3.56 4.1 1.35v2.83h-.38c-.5-2.1-1.68-3.24-3.72-3.5m-.87 5.87v-5.86c-1.8.35-2.65 1.37-2.65 2.67 0 1.12.5 1.73 2.65 3.18m.87 2.9v6.76c2.06-.43 2.9-1.22 2.9-3.02 0-1.56-.58-2.35-2.9-3.72M534.87 516.54h-.44c.03-1.02.23-2.3 1.13-4.5.66-1.64 1.3-3.24 1.3-4.77 0-1.76-1.23-3-2.78-3-1.22 0-2.4.75-2.4 1.57 0 .94.97 1.05.97 1.9 0 .62-.4 1.08-1.04 1.08-.7 0-1.22-.64-1.22-1.68 0-2.12 1.74-3.64 4.18-3.64 2.47 0 4.64 1.55 4.64 4.02 0 1.56-.48 2.42-2.68 5.02-.9 1.1-1.37 2.27-1.65 4zm1.17 3.03c0 .74-.56 1.36-1.32 1.36-.87 0-1.38-.64-1.38-1.36 0-.76.6-1.35 1.38-1.35.7 0 1.32.64 1.32 1.35"/><defs><path fill="#333" d="M101-251c68 0 84 54 84 127C185-50 166 4 99 4S15-52 14-124c-1-75 17-127 87-127zm-1 216c37-5 36-46 36-89s4-89-36-89c-39 0-36 45-36 89 0 43-3 85 36 89" id="s"/><use transform="matrix(0.04938271604938272,0,0,0.04938271604938272,0,0)" xlink:href="#s" id="a"/><path fill="#333" d="M23 0v-37h61v-169l-59 37v-38l62-41h46v211h57V0H23" id="t"/><use transform="matrix(0.04938271604938272,0,0,0.04938271604938272,0,0)" xlink:href="#t" id="b"/><path fill="#333" d="M182-182c0 78-84 86-111 141h115V0H12c-6-101 99-100 120-180 1-22-12-31-33-32-23 0-32 14-35 34l-49-3c5-45 32-70 84-70 51 0 83 22 83 69" id="u"/><use transform="matrix(0.04938271604938272,0,0,0.04938271604938272,0,0)" xlink:href="#u" id="c"/><path fill="#333" d="M128-127c34 4 56 21 59 58 7 91-148 94-172 28-4-9-6-17-7-26l51-5c1 24 16 35 40 36 23 0 39-12 38-36-1-31-31-36-65-34v-40c32 2 59-3 59-33 0-20-13-33-34-33s-33 13-35 32l-50-3c6-44 37-68 86-68 50 0 83 20 83 66 0 35-22 52-53 58" id="v"/><use transform="matrix(0.04938271604938272,0,0,0.04938271604938272,0,0)" xlink:href="#v" id="d"/><path fill="#333" d="M165-50V0h-47v-50H5v-38l105-160h55v161h33v37h-33zm-47-37l2-116L46-87h72" id="w"/><use transform="matrix(0.04938271604938272,0,0,0.04938271604938272,0,0)" xlink:href="#w" id="e"/><path fill="#333" d="M139-81c0-46-55-55-73-27H18l9-140h149v37H72l-4 63c44-38 133-4 122 66C201 21 21 35 11-62l49-4c5 18 15 30 39 30 26 0 40-18 40-45" id="x"/><use transform="matrix(0.04938271604938272,0,0,0.04938271604938272,0,0)" xlink:href="#x" id="f"/><path fill="#333" d="M115-159c48 0 72 30 72 78 0 54-30 85-83 85-64 0-91-50-91-122 0-98 58-163 141-120 15 8 21 24 27 44l-47 6c-5-31-48-31-61-4-7 14-11 33-11 60 9-17 28-27 53-27zM102-35c24 0 36-20 36-45s-11-43-37-43c-23 0-36 14-36 38 0 27 11 50 37 50" id="y"/><use transform="matrix(0.04938271604938272,0,0,0.04938271604938272,0,0)" xlink:href="#y" id="g"/><path fill="#333" d="M24 0v-54h51V0H24" id="z"/><use transform="matrix(0.04938271604938272,0,0,0.04938271604938272,0,0)" xlink:href="#z" id="h"/><use transform="matrix(0.04938271604938272,0,0,0.04938271604938272,0,0)" xlink:href="#z" id="i"/><use transform="matrix(0.04938271604938272,0,0,0.04938271604938272,0,0)" xlink:href="#z" id="j"/><g id="k"><use transform="matrix(0.04938271604938272,0,0,0.04938271604938272,0,0)" xlink:href="#u"/><use transform="matrix(0.04938271604938272,0,0,0.04938271604938272,9.876543209876544,0)" xlink:href="#v"/></g><path fill="#333" d="M135-194c53 0 70 44 70 98 0 56-19 98-73 100-31 1-45-17-59-34 3 33 2 69 2 105H25l-1-265h48c2 10 0 23 3 31 11-24 29-35 60-35zM114-30c33 0 39-31 40-66 0-38-9-64-40-64-56 0-55 130 0 130" id="A"/><path fill="#333" d="M115-3C79 11 28 4 28-45v-112H4v-33h27l15-45h31v45h36v33H77v99c-1 23 16 31 38 25v30" id="B"/><path fill="#333" d="M128 0H69L1-190h53L99-40l48-150h52" id="C"/><g id="l"><use transform="matrix(0.04938271604938272,0,0,0.04938271604938272,0,0)" xlink:href="#A"/><use transform="matrix(0.04938271604938272,0,0,0.04938271604938272,10.814814814814815,0)" xlink:href="#B"/><use transform="matrix(0.04938271604938272,0,0,0.04938271604938272,16.691358024691358,0)" xlink:href="#C"/></g><g id="m"><use transform="matrix(0.04938271604938272,0,0,0.04938271604938272,0,0)" xlink:href="#u"/><use transform="matrix(0.04938271604938272,0,0,0.04938271604938272,9.876543209876544,0)" xlink:href="#s"/></g><path fill="#333" d="M24-248c93 1 206-16 204 79-1 75-69 88-152 82V0H24v-248zm52 121c47 0 100 7 100-41 0-47-54-39-100-39v80" id="D"/><use transform="matrix(0.06172839506172839,0,0,0.06172839506172839,0,0)" xlink:href="#D" id="n"/><path fill="#333" d="M15-148v-39h180v39H15zm0 97v-39h180v39H15" id="E"/><use transform="matrix(0.06172839506172839,0,0,0.06172839506172839,0,0)" xlink:href="#E" id="o"/><path fill="#333" d="M111-147c44 9 85 22 84 75-1 49-35 65-84 68v31H91V-4C40-5 12-27 5-72l45-8c4 24 15 38 41 40-2-22 4-51-2-69-39-10-76-22-76-72 0-47 35-60 78-63v-23h20v23c47 1 70 23 78 62l-46 7c-4-18-12-32-32-34v62zm-20-63c-33-4-45 46-13 54 4 1 8 2 13 4v-58zm20 170c39 5 53-51 15-60-7-2-7-2-15-4v64" id="F"/><path fill="#333" d="M138-131c27 9 52 24 51 61 0 53-36 74-89 74S11-19 11-69c0-35 22-54 51-61-78-25-46-121 38-121 51 0 83 19 83 66 0 30-18 49-45 54zm-38-16c24 0 32-13 32-36 1-23-11-34-32-34-22 0-33 12-32 34 0 22 9 36 32 36zm1 116c27 0 37-17 37-43 0-25-13-39-39-39-24 0-37 15-37 40 0 27 11 42 39 42" id="G"/><path fill="#333" d="M62-158H24l-5-90h48" id="H"/><g id="p"><use transform="matrix(0.06172839506172839,0,0,0.06172839506172839,0,0)" xlink:href="#F"/><use transform="matrix(0.06172839506172839,0,0,0.06172839506172839,12.345679012345679,0)" xlink:href="#G"/><use transform="matrix(0.06172839506172839,0,0,0.06172839506172839,24.691358024691358,0)" xlink:href="#H"/><use transform="matrix(0.06172839506172839,0,0,0.06172839506172839,29.938271604938272,0)" xlink:href="#s"/><use transform="matrix(0.06172839506172839,0,0,0.06172839506172839,42.28395061728395,0)" xlink:href="#s"/><use transform="matrix(0.06172839506172839,0,0,0.06172839506172839,54.629629629629626,0)" xlink:href="#s"/><use transform="matrix(0.06172839506172839,0,0,0.06172839506172839,66.9753086419753,0)" xlink:href="#z"/><use transform="matrix(0.06172839506172839,0,0,0.06172839506172839,73.14814814814814,0)" xlink:href="#s"/><use transform="matrix(0.06172839506172839,0,0,0.06172839506172839,85.49382716049382,0)" xlink:href="#s"/><use transform="matrix(0.06172839506172839,0,0,0.06172839506172839,97.8395061728395,0)" xlink:href="#s"/></g><path fill="#333" d="M918-1255c-4-93-8-201-95-201-43 0-75 19-99 56-39 60-62 207-83 302h258l-29 140H610L416-43c-72 314-227 541-609 533-32-1-65-8-92-15l25-119c52 16 133 24 182-2C31 296 61 165 92 18l207-976H113l20-97 197-43c49-281 171-481 501-479 136 1 248 29 301 109 41 62 21 139-39 175-41 24-98 38-175 38" id="I"/><g id="q"><use transform="matrix(0.013020833333333332,0,0,0.013020833333333332,0,0)" xlink:href="#I"/><use transform="matrix(0.013020833333333332,0,0,0.013020833333333332,10.768229166666666,0)" xlink:href="#I"/></g></defs></g></svg>