<svg xmlns="http://www.w3.org/2000/svg" xmlns:xlink="http://www.w3.org/1999/xlink" xmlns:lucid="lucid" width="677.79" height="504.33"><g transform="translate(-382.2098765432099 -200)" lucid:page-tab-id="0_0"><path d="M0 0h1870.4v1323.2H0z" fill="#fff"/><path d="M401 400h540.5M401.03 400H400" stroke="#333" stroke-width="2" fill="none"/><path d="M956.76 400l-14.26 4.64v-9.28z" stroke="#333" stroke-width="2" fill="#333"/><use xlink:href="#a" transform="matrix(1,0,0,1,393.2098765432099,404) translate(0.004999999999999893 19.555555555555557)"/><use xlink:href="#b" transform="matrix(1,0,0,1,491.87654320987656,404) translate(0.004999999999999893 19.555555555555557)"/><use xlink:href="#c" transform="matrix(1,0,0,1,598.5432098765433,404) translate(0.004999999999999893 19.555555555555557)"/><use xlink:href="#d" transform="matrix(1,0,0,1,694.5432098765433,404) translate(0.004999999999999893 19.555555555555557)"/><use xlink:href="#e" transform="matrix(1,0,0,1,798.5432098765433,404) translate(0.004999999999999893 19.555555555555557)"/><use xlink:href="#f" transform="matrix(1,0,0,1,891.8765432098766,404) translate(0.004999999999999893 19.555555555555557)"/><path d="M898.67 399V298.5M898.67 398.97V400" stroke="#333" stroke-width="2" fill="none"/><path d="M898.67 283.24l4.63 14.26h-9.27z" stroke="#333" stroke-width="2" fill="#333"/><path d="M500 441v60.5M500 441.03V440" stroke="#333" stroke-width="2" fill="none"/><path d="M500 516.76l-4.64-14.26h9.28z" stroke="#333" stroke-width="2" fill="#333"/><path d="M600 441v60.5M600 441.03V440" stroke="#333" stroke-width="2" fill="none"/><path d="M600 516.76l-4.64-14.26h9.28z" stroke="#333" stroke-width="2" fill="#333"/><path d="M700 441v60.5M700 441.03V440" stroke="#333" stroke-width="2" fill="none"/><path d="M700 516.76l-4.64-14.26h9.28z" stroke="#333" stroke-width="2" fill="#333"/><path d="M800 441v60.5M800 441.03V440" stroke="#333" stroke-width="2" fill="none"/><path d="M800 516.76l-4.64-14.26h9.28z" stroke="#333" stroke-width="2" fill="#333"/><path d="M900 441v60.5M900 441.03V440" stroke="#333" stroke-width="2" fill="none"/><path d="M900 516.76l-4.64-14.26h9.28z" stroke="#333" stroke-width="2" fill="#333"/><path d="M501 520h398M501.03 520H500M898.97 520H900" stroke="#333" stroke-width="2" fill="none"/><use xlink:href="#g" transform="matrix(1,0,0,1,509.72839506172835,524) translate(0.005000000000002558 19.555555555555557)"/><use xlink:href="#h" transform="matrix(1,0,0,1,509.72839506172835,524) translate(24.381543209876543 19.555555555555557)"/><use xlink:href="#i" transform="matrix(1,0,0,1,509.72839506172835,524) translate(45.430925925925926 19.555555555555557)"/><path d="M900 521v9.67m0 9.66v19.34m0 9.66V579M900 521.03V520M900 578.97V580" stroke="#333" stroke-width="2" fill="none"/><use xlink:href="#j" transform="matrix(1,0,0,1,908,564.4791666666666) translate(0.005000000000000782 24.752604166666657)"/><path d="M715.96 693.13l-1.17.17-6.07.64-4.85.3-3.87.1h-.77l-3.82-.1.06-2 3.8.1h.73l3.8-.1 4.76-.3 5.98-.63 1.12-.15zm-43.3-2.68l9.8 1.07 2.85.2-.13 2-2.9-.2-9.87-1.1-7.6-1.15.3-1.97zm73.4-3.62l-3.85 1.07-10.78 2.54-5.35 1.02-.37-1.96 5.3-1.02 10.7-2.52 3.8-1.06zm-104.73-2.53l10.5 2.52 3.28.64-.38 1.96-3.3-.64-10.6-2.54-6-1.7.54-1.93zm133.93-6.95l-7.6 2.83-11.75 3.82-.6-1.9 11.72-3.8 7.55-2.82zm-164.16-3l9.77 3.68 4.77 1.58-.63 1.9-4.8-1.58-9.84-3.7-4.54-1.94.8-1.84zm192.43-9.02l-8.76 4.12-9.95 4.18-.78-1.84 9.92-4.18 8.72-4.1zm-219.48-3.83l8.63 4.56 4.65 2.2-.86 1.82-4.7-2.23-8.7-4.6-4.72-2.76 1-1.74zm246.57-10.73l-.24.15-10.86 6.26-6.82 3.57-.93-1.78 6.78-3.54 10.8-6.22.2-.12zm-270.26-4.43l7.54 5.3 2.8 1.78-1.08 1.68-2.83-1.8-7.62-5.35-6.24-4.78 1.22-1.58zm295.54-13l-7 5.3-8.74 6.07-.92.6-1.07-1.7.88-.55 8.67-6.02 6.97-5.3zm-322.53-10.5l6.3 6.24 6.6 6-1.33 1.48-6.64-6.03-6.37-6.3-1.7-1.83 1.46-1.36zm345.2-10.3l-3.48 3.7-5.43 5.3-5.82 5.25-1.34-1.5 5.8-5.2 5.36-5.25 3.47-3.7zm-362.54-9.96l5.53 7.04 3.3 3.87-1.5 1.3-3.35-3.9-5.57-7.12-3.7-5.15 1.62-1.16zm375.47-6.07l-.2.3-3.37 4.63-2.62 3.3-1.55-1.23 2.6-3.28 3.3-4.55.18-.27zm-385.8-8.95l.97 1.48-1.67 1.1-1-1.5-4.34-7.26 1.7-1.02z" fill="#c92d39"/><path d="M501.4 580.37l-1.73 1.03-.53-.88 1.72-1.03zM895.16 597.45l-8-4.7 11.2-9.96z" fill="#c92d39"/><path d="M895.84 599l-10.37-6.07L900 580zm-7-6.4l5.64 3.3 2.25-10.3z" fill="#c92d39"/><use xlink:href="#k" transform="matrix(1,0,0,1,880.0731991513666,594.7298801069062) translate(0.005 19.555555555555557)"/><path d="M780 226c0-3.3 2.7-6 6-6h228c3.3 0 6 2.7 6 6v48c0 3.3-2.7 6-6 6H786c-3.3 0-6-2.7-6-6z" fill="#fff" fill-opacity="0"/><use xlink:href="#l" transform="matrix(1,0,0,1,785,225) translate(19.947530864197546 29.36111111111111)"/><use xlink:href="#m" transform="matrix(1,0,0,1,785,225) translate(64.80555555555557 29.36111111111111)"/><use xlink:href="#n" transform="matrix(1,0,0,1,785,225) translate(89.6820987654321 29.36111111111111)"/><path d="M960 376c0-3.3 2.7-6 6-6h68c3.3 0 6 2.7 6 6v48c0 3.3-2.7 6-6 6h-68c-3.3 0-6-2.7-6-6z" fill="#fff" fill-opacity="0"/><g><use xlink:href="#o" transform="matrix(1,0,0,1,965,375) translate(15.74074074074074 29.36111111111111)"/></g><path d="M560 556.33c0-3.3 2.7-6 6-6h228c3.3 0 6 2.7 6 6v67.34c0 3.3-2.7 6-6 6H566c-3.3 0-6-2.7-6-6z" fill="#fff" fill-opacity="0"/><g><use xlink:href="#p" transform="matrix(1,0,0,1,565,555.3333333333334) translate(35.19444444444444 23.11111111111111)"/><use xlink:href="#q" transform="matrix(1,0,0,1,565,555.3333333333334) translate(49.55864197530864 23.11111111111111)"/><use xlink:href="#r" transform="matrix(1,0,0,1,565,555.3333333333334) translate(74.43518518518519 23.11111111111111)"/><use xlink:href="#s" transform="matrix(1,0,0,1,565,555.3333333333334) translate(140.23765432098764 23.11111111111111)"/><use xlink:href="#t" transform="matrix(1,0,0,1,565,555.3333333333334) translate(59.22839506172839 57.77777777777777)"/><use xlink:href="#q" transform="matrix(1,0,0,1,565,555.3333333333334) translate(83.30246913580247 57.77777777777777)"/><use xlink:href="#u" transform="matrix(1,0,0,1,565,555.3333333333334) translate(108.17901234567901 57.77777777777777)"/><use xlink:href="#v" transform="matrix(1,0,0,1,565,555.3333333333334) translate(132.2530864197531 57.77777777777777)"/></g><defs><path fill="#333" d="M101-251c68 0 84 54 84 127C185-50 166 4 99 4S15-52 14-124c-1-75 17-127 87-127zm-1 216c37-5 36-46 36-89s4-89-36-89c-39 0-36 45-36 89 0 43-3 85 36 89" id="w"/><use transform="matrix(0.06790123456790123,0,0,0.06790123456790123,0,0)" xlink:href="#w" id="a"/><path fill="#333" d="M23 0v-37h61v-169l-59 37v-38l62-41h46v211h57V0H23" id="x"/><use transform="matrix(0.06790123456790123,0,0,0.06790123456790123,0,0)" xlink:href="#x" id="b"/><path fill="#333" d="M182-182c0 78-84 86-111 141h115V0H12c-6-101 99-100 120-180 1-22-12-31-33-32-23 0-32 14-35 34l-49-3c5-45 32-70 84-70 51 0 83 22 83 69" id="y"/><use transform="matrix(0.06790123456790123,0,0,0.06790123456790123,0,0)" xlink:href="#y" id="c"/><path fill="#333" d="M128-127c34 4 56 21 59 58 7 91-148 94-172 28-4-9-6-17-7-26l51-5c1 24 16 35 40 36 23 0 39-12 38-36-1-31-31-36-65-34v-40c32 2 59-3 59-33 0-20-13-33-34-33s-33 13-35 32l-50-3c6-44 37-68 86-68 50 0 83 20 83 66 0 35-22 52-53 58" id="z"/><use transform="matrix(0.06790123456790123,0,0,0.06790123456790123,0,0)" xlink:href="#z" id="d"/><path fill="#333" d="M165-50V0h-47v-50H5v-38l105-160h55v161h33v37h-33zm-47-37l2-116L46-87h72" id="A"/><use transform="matrix(0.06790123456790123,0,0,0.06790123456790123,0,0)" xlink:href="#A" id="e"/><path fill="#333" d="M139-81c0-46-55-55-73-27H18l9-140h149v37H72l-4 63c44-38 133-4 122 66C201 21 21 35 11-62l49-4c5 18 15 30 39 30 26 0 40-18 40-45" id="B"/><use transform="matrix(0.06790123456790123,0,0,0.06790123456790123,0,0)" xlink:href="#B" id="f"/><path fill="#333" d="M240-174c0 40-23 61-54 70L253 0h-59l-57-94H76V0H24v-248c93 4 217-23 216 74zM76-134c48-2 112 12 112-38 0-48-66-32-112-35v73" id="C"/><use transform="matrix(0.06790123456790123,0,0,0.06790123456790123,0,0)" xlink:href="#C" id="g"/><path fill="#333" d="M15-148v-39h180v39H15zm0 97v-39h180v39H15" id="D"/><use transform="matrix(0.06790123456790123,0,0,0.06790123456790123,0,0)" xlink:href="#D" id="h"/><path fill="#333" d="M111-147c44 9 85 22 84 75-1 49-35 65-84 68v31H91V-4C40-5 12-27 5-72l45-8c4 24 15 38 41 40-2-22 4-51-2-69-39-10-76-22-76-72 0-47 35-60 78-63v-23h20v23c47 1 70 23 78 62l-46 7c-4-18-12-32-32-34v62zm-20-63c-33-4-45 46-13 54 4 1 8 2 13 4v-58zm20 170c39 5 53-51 15-60-7-2-7-2-15-4v64" id="E"/><path fill="#333" d="M110-251c83-7 118 89 53 130-17 10-36 21-38 46H78c2-56 65-53 71-103 2-21-15-35-38-34-25 1-41 14-44 38l-50-2c6-48 39-70 93-75zM77 0v-47h51V0H77" id="F"/><g id="i"><use transform="matrix(0.06790123456790123,0,0,0.06790123456790123,0,0)" xlink:href="#E"/><use transform="matrix(0.06790123456790123,0,0,0.06790123456790123,13.580246913580247,0)" xlink:href="#F"/></g><path fill="#333" d="M918-1255c-4-93-8-201-95-201-43 0-75 19-99 56-39 60-62 207-83 302h258l-29 140H610L416-43c-72 314-227 541-609 533-32-1-65-8-92-15l25-119c52 16 133 24 182-2C31 296 61 165 92 18l207-976H113l20-97 197-43c49-281 171-481 501-479 136 1 248 29 301 109 41 62 21 139-39 175-41 24-98 38-175 38" id="G"/><g id="j"><use transform="matrix(0.013020833333333329,0,0,0.013020833333333329,0,0)" xlink:href="#G"/><use transform="matrix(0.013020833333333329,0,0,0.013020833333333329,10.768229166666663,0)" xlink:href="#G"/></g><path fill="#333" d="M137 0h-34L2-248h35l83 218 83-218h36" id="H"/><path fill="#333" d="M63-220v92h138v28H63V0H30v-248h175v28H63" id="I"/><g id="l"><use transform="matrix(0.08024691358024691,0,0,0.08024691358024691,0,0)" xlink:href="#H"/><use transform="matrix(0.08024691358024691,0,0,0.08024691358024691,19.25925925925926,0)" xlink:href="#I"/></g><path fill="#333" d="M18-150v-26h174v26H18zm0 90v-26h174v26H18" id="J"/><use transform="matrix(0.08024691358024691,0,0,0.08024691358024691,0,0)" xlink:href="#J" id="m"/><path fill="#333" d="M194-70c0 46-34 64-81 66v29H91V-4C42-5 12-27 4-67l30-6c5 28 25 41 57 43v-87c-38-9-76-20-76-67 1-42 33-58 76-59v-23h22v23c45 0 67 20 76 56l-31 6c-5-23-18-35-45-37v78c41 10 81 20 81 70zm-81 41c51 7 71-66 19-77-6-2-12-4-19-6v83zM91-219c-47-6-63 57-18 69 6 2 12 3 18 5v-74" id="K"/><path fill="#333" d="M126-127c33 6 58 20 58 59 0 88-139 92-164 29-3-8-5-16-6-25l32-3c6 27 21 44 54 44 32 0 52-15 52-46 0-38-36-46-79-43v-28c39 1 72-4 72-42 0-27-17-43-46-43-28 0-47 15-49 41l-32-3c6-42 35-63 81-64 48-1 79 21 79 65 0 36-21 52-52 59" id="L"/><path fill="#333" d="M101-251c68 0 85 55 85 127S166 4 100 4C33 4 14-52 14-124c0-73 17-127 87-127zm-1 229c47 0 54-49 54-102s-4-102-53-102c-51 0-55 48-55 102 0 53 5 102 54 102" id="M"/><path fill="#333" d="M33 0v-38h34V0H33" id="N"/><g id="n"><use transform="matrix(0.08024691358024691,0,0,0.08024691358024691,0,0)" xlink:href="#K"/><use transform="matrix(0.08024691358024691,0,0,0.08024691358024691,16.049382716049383,0)" xlink:href="#L"/><use transform="matrix(0.08024691358024691,0,0,0.08024691358024691,32.098765432098766,0)" xlink:href="#M"/><use transform="matrix(0.08024691358024691,0,0,0.08024691358024691,48.14814814814815,0)" xlink:href="#M"/><use transform="matrix(0.08024691358024691,0,0,0.08024691358024691,64.19753086419753,0)" xlink:href="#N"/><use transform="matrix(0.08024691358024691,0,0,0.08024691358024691,72.22222222222223,0)" xlink:href="#M"/><use transform="matrix(0.08024691358024691,0,0,0.08024691358024691,88.2716049382716,0)" xlink:href="#M"/><use transform="matrix(0.08024691358024691,0,0,0.08024691358024691,104.32098765432099,0)" xlink:href="#M"/></g><path fill="#333" d="M115-194c55 1 70 41 70 98S169 2 115 4C84 4 66-9 55-30l1 105H24l-1-265h31l2 30c10-21 28-34 59-34zm-8 174c40 0 45-34 45-75s-6-73-45-74c-42 0-51 32-51 76 0 43 10 73 51 73" id="O"/><path fill="#333" d="M59-47c-2 24 18 29 38 22v24C64 9 27 4 27-40v-127H5v-23h24l9-43h21v43h35v23H59v120" id="P"/><path fill="#333" d="M108 0H70L1-190h34L89-25l56-165h34" id="Q"/><g id="o"><use transform="matrix(0.08024691358024691,0,0,0.08024691358024691,0,0)" xlink:href="#O"/><use transform="matrix(0.08024691358024691,0,0,0.08024691358024691,16.049382716049383,0)" xlink:href="#P"/><use transform="matrix(0.08024691358024691,0,0,0.08024691358024691,24.074074074074076,0)" xlink:href="#Q"/></g><path fill="#c92d39" d="M24-231v-30h32v30H24zM-9 49c24 4 33-6 33-30v-209h32V24c2 40-23 58-65 49V49" id="R"/><use transform="matrix(0.08024691358024691,0,0,0.08024691358024691,0,0)" xlink:href="#R" id="p"/><path fill="#c92d39" d="M18-150v-26h174v26H18zm0 90v-26h174v26H18" id="S"/><use transform="matrix(0.08024691358024691,0,0,0.08024691358024691,0,0)" xlink:href="#S" id="q"/><path fill="#c92d39" d="M126-127c33 6 58 20 58 59 0 88-139 92-164 29-3-8-5-16-6-25l32-3c6 27 21 44 54 44 32 0 52-15 52-46 0-38-36-46-79-43v-28c39 1 72-4 72-42 0-27-17-43-46-43-28 0-47 15-49 41l-32-3c6-42 35-63 81-64 48-1 79 21 79 65 0 36-21 52-52 59" id="T"/><path fill="#c92d39" d="M101-251c82-7 93 87 43 132L82-64C71-53 59-42 53-27h129V0H18c2-99 128-94 128-182 0-28-16-43-45-43s-46 15-49 41l-32-3c6-41 34-60 81-64" id="U"/><path fill="#c92d39" d="M252-156c43 0 55 33 55 80 0 46-13 78-56 78-42 0-55-33-55-78 0-48 12-80 56-80zM93 0H65l162-248h28zM13-171c-1-47 13-79 56-79s55 33 55 79-13 79-55 79c-43 0-56-33-56-79zM251-17c28 0 30-29 30-59 0-31-1-60-29-60-29 0-31 29-31 60 0 29 2 59 30 59zM69-112c27 0 28-30 29-59 0-31-1-60-29-60-29 0-30 30-30 60s2 59 30 59" id="V"/><g id="r"><use transform="matrix(0.08024691358024691,0,0,0.08024691358024691,0,0)" xlink:href="#T"/><use transform="matrix(0.08024691358024691,0,0,0.08024691358024691,16.049382716049383,0)" xlink:href="#U"/><use transform="matrix(0.08024691358024691,0,0,0.08024691358024691,32.098765432098766,0)" xlink:href="#V"/></g><path fill="#c92d39" d="M117-194c89-4 53 116 60 194h-32v-121c0-31-8-49-39-48C34-167 62-67 57 0H25l-1-190h30c1 10-1 24 2 32 11-22 29-35 61-36" id="W"/><path fill="#c92d39" d="M141-36C126-15 110 5 73 4 37 3 15-17 15-53c-1-64 63-63 125-63 3-35-9-54-41-54-24 1-41 7-42 31l-33-3c5-37 33-52 76-52 45 0 72 20 72 64v82c-1 20 7 32 28 27v20c-31 9-61-2-59-35zM48-53c0 20 12 33 32 33 41-3 63-29 60-74-43 2-92-5-92 41" id="X"/><path fill="#c92d39" d="M59-47c-2 24 18 29 38 22v24C64 9 27 4 27-40v-127H5v-23h24l9-43h21v43h35v23H59v120" id="Y"/><path fill="#c92d39" d="M108 0H70L1-190h34L89-25l56-165h34" id="Z"/><g id="s"><use transform="matrix(0.08024691358024691,0,0,0.08024691358024691,0,0)" xlink:href="#W"/><use transform="matrix(0.08024691358024691,0,0,0.08024691358024691,16.049382716049383,0)" xlink:href="#X"/><use transform="matrix(0.08024691358024691,0,0,0.08024691358024691,32.098765432098766,0)" xlink:href="#Y"/><use transform="matrix(0.08024691358024691,0,0,0.08024691358024691,40.123456790123456,0)" xlink:href="#Z"/></g><use transform="matrix(0.08024691358024691,0,0,0.08024691358024691,0,0)" xlink:href="#W" id="t"/><path fill="#c92d39" d="M54-142c48-35 137-8 131 61C196 18 31 33 14-55l32-4c7 23 22 37 52 37 35-1 51-22 54-58 4-55-73-65-99-34H22l8-134h141v27H59" id="aa"/><use transform="matrix(0.08024691358024691,0,0,0.08024691358024691,0,0)" xlink:href="#aa" id="u"/><path fill="#c92d39" d="M115-194c55 1 70 41 70 98S169 2 115 4C84 4 66-9 55-30l1 105H24l-1-265h31l2 30c10-21 28-34 59-34zm-8 174c40 0 45-34 45-75s-6-73-45-74c-42 0-51 32-51 76 0 43 10 73 51 73" id="ab"/><g id="v"><use transform="matrix(0.08024691358024691,0,0,0.08024691358024691,0,0)" xlink:href="#ab"/><use transform="matrix(0.08024691358024691,0,0,0.08024691358024691,16.049382716049383,0)" xlink:href="#Y"/><use transform="matrix(0.08024691358024691,0,0,0.08024691358024691,24.074074074074076,0)" xlink:href="#Z"/></g></defs></g></svg>