<svg xmlns="http://www.w3.org/2000/svg" xmlns:xlink="http://www.w3.org/1999/xlink" xmlns:lucid="lucid" width="760" height="316.67"><g transform="translate(-80 -269)" lucid:page-tab-id="0_0"><path d="M0 0h1870.4v1323.2H0z" fill="#fff"/><path d="M201 400h500.5M201.03 400H200" stroke="#000" stroke-width="2" fill="none"/><path d="M716.76 400l-14.26 4.64v-9.28z" stroke="#000" stroke-width="2"/><use xlink:href="#a" transform="matrix(1,0,0,1,245.20987654320987,366.66666666666663) translate(0.004999999999999893 19.555555555555557)"/><use xlink:href="#b" transform="matrix(1,0,0,1,294.5432098765432,366.66666666666663) translate(0.004999999999999893 19.555555555555557)"/><use xlink:href="#c" transform="matrix(1,0,0,1,343.87654320987656,366.66666666666663) translate(0.004999999999999893 19.555555555555557)"/><use xlink:href="#d" transform="matrix(1,0,0,1,493.2098765432099,366.66666666666663) translate(0.004999999999999893 19.555555555555557)"/><use xlink:href="#e" transform="matrix(1,0,0,1,193.20987654320987,366.66666666666663) translate(0.004999999999999893 19.555555555555557)"/><use xlink:href="#f" transform="matrix(1,0,0,1,585.6913580246913,366.66666666666663) translate(0.004999999999999005 19.555555555555557)"/><use xlink:href="#g" transform="matrix(1,0,0,1,585.6913580246913,366.66666666666663) translate(13.585246913580246 19.555555555555557)"/><use xlink:href="#h" transform="matrix(1,0,0,1,585.6913580246913,366.66666666666663) translate(27.165493827160493 19.555555555555557)"/><path d="M285.33 399v-80.5M285.33 398.97V400" stroke="#000" stroke-width="2" fill="none"/><path d="M285.33 303.24l4.64 14.26h-9.27z" stroke="#000" stroke-width="2"/><path d="M333.33 399v-80.5M333.33 398.97V400" stroke="#000" stroke-width="2" fill="none"/><path d="M333.33 303.24l4.64 14.26h-9.27z" stroke="#000" stroke-width="2"/><path d="M720 380h100v28.28H720z" fill="#fff" fill-opacity="0"/><path d="M749.62 391.85c0 3.36-2.5 7.7-6.87 7.7-2.84 0-4.82-1.84-6.97-5.03-1.56 3.16-3.92 5.03-7.25 5.03-2.98 0-6.1-2.15-6.1-6.94 0-6.37 4.6-7.97 6.62-7.97 2.54 0 4.27.66 7.56 5.1 1.6-2.88 3.2-5.1 6.7-5.1 3.13 0 6.32 2.57 6.32 7.22m-12.3-.8v.1c2.5 4.13 4.4 6.35 6.75 6.35 1.94 0 3.47-1.9 3.47-4.13 0-3.15-1.77-5.82-4.82-5.82-3.1 0-4.4 2.04-5.4 3.5m-2.3 2.22v-.1c-2.5-4.13-4.68-6.5-7.04-6.5-1.94 0-3.47 1.92-3.47 4.14 0 2.96 1.78 5.84 4.83 5.84 3.1 0 4.75-2.12 5.7-3.37M769.57 386.72l.48-.46c1.35-1.28 2.7-2 3.92-2 2.12 0 3.26 1.87 3.26 5.37 0 4.47-3.8 10.34-8.8 10.34-.84 0-1.47-.14-2.12-.66l-.83 3.47c-.1.46-.17.84-.17 1.22 0 .75.38 1.48 2.12 1.48h.55l-.1.42h-8.12l.1-.42c2.15-.1 2.4-1.14 2.8-2.74l4.07-16.1c0-.65-.03-1.14-1.07-1.14-.28 0-.7.07-.97.14l-.07-.56 5.5-.83-.64 2.4m-1.25 4.64l-1.58 6.93c.48.56 1.18.73 1.6.73 3.5 0 6.1-6 6.1-9.9 0-2.17-.97-2.87-1.77-2.87-1.84 0-3.64 2.1-4.34 5.1M800.92 395.84l.45.38c-1.1 1.87-2.9 3.6-4.54 3.6-.76 0-1.35-.34-1.35-1.7 0-.24.03-.58.2-1.28l1.95-7.66c.14-.5.2-.8.2-1.4 0-.68-.2-1.3-.83-1.3-1.87 0-5.7 6.27-6.2 8.4l-1.2 4.67h-2.73l2.68-10.37c.06-.3.17-.87.17-1.4 0-.68-.17-1.3-.8-1.3-1.8 0-5.62 6.27-6.17 8.4l-1.22 4.67h-2.7l3.3-12.97c0-.63-.22-1.08-1.15-1.08-.28 0-.66.04-.94.07l-.07-.5 5.45-.82-1.53 5.86h.2c3.26-4.95 5.34-5.85 6.66-5.85 1.28 0 1.9 1.3 1.9 2.8 0 .6-.1 1.12-.3 1.82l-.35 1.24h.18c1-1.8 2.8-3.94 4.5-5.08.77-.52 1.43-.77 2.13-.77 1.26 0 1.88.9 1.88 2.47 0 .62-.03 1.28-.24 2.1l-2.12 8.02c-.03.1-.07.32-.07.42 0 .28.2.42.52.42.6 0 1.5-.56 2.15-1.84M810.98 383.8l-3.1 11.3c-.1.36-.12.74-.12 1.12 0 1.32.7 2.3 2.08 2.3 3.74 0 6.17-3.93 7.28-7.05.28-.84.52-1.7.52-2.57 0-2.57-2.1-2.25-2.1-3.78 0-1.18.85-1.46 1.86-1.46 1.46 0 1.63 1.77 1.63 2.88 0 3.44-1.35 6.94-3.37 9.7-1.5 2.1-4.16 3.62-6.72 3.62-2.22 0-4.03-.7-4.03-3.22 0-.73.12-1.46.32-2.16l2.02-7.28c.06-.28.17-.6.17-.87 0-.7-1.52-.7-1.97-.7v-.5c1.8-.46 3.68-.7 5.4-1.47"/><path d="M480 399v-80.5M480 398.97V400" stroke="#000" stroke-width="2" fill="none"/><path d="M480 303.24l4.64 14.26h-9.28z" stroke="#000" stroke-width="2"/><path d="M205 439.67h-2v-19.34h2zm0-29h-2V401h2z" fill="#5e5e5e"/><path d="M205 401.03h-2V400h2z" fill="#5e5e5e"/><path fill="#5e5e5e"/><use xlink:href="#i" transform="matrix(1,0,0,1,194.12912326388889,445.77256944444446) translate(0.005000000000000782 22.689887152777775)"/><path d="M100 306c0-3.3 2.7-6 6-6h88c3.3 0 6 2.7 6 6v48c0 3.3-2.7 6-6 6h-88c-3.3 0-6-2.7-6-6z" stroke="#000" stroke-opacity="0" stroke-width="3" fill="#fff" fill-opacity="0"/><use xlink:href="#j" transform="matrix(1,0,0,1,105,305) translate(0.7962962962962976 28.930555555555557)"/><use xlink:href="#k" transform="matrix(1,0,0,1,105,305) translate(39.7037037037037 28.930555555555557)"/><use xlink:href="#l" transform="matrix(1,0,0,1,105,305) translate(60.75308641975308 28.930555555555557)"/><path d="M237.33 399v-80.5M237.33 398.97V400" stroke="#000" stroke-width="2" fill="none"/><path d="M237.33 303.24l4.64 14.26h-9.27z" stroke="#000" stroke-width="2"/><path d="M238.33 300H719M238.36 300h-1.03M718.97 300H720M685.33 399v-80.5M685.33 398.97V400" stroke="#000" stroke-width="2" fill="none"/><path d="M685.33 303.24l4.64 14.26h-9.27z" stroke="#000" stroke-width="2"/><path d="M368.56 575.2l-4.27.27-9.62.2h-2.38l-3.36-.07.04-2 3.34.06h2.34l9.55-.2 4.24-.25zm-48.12-3.06l6.17.66 8.4.54 4.2.08-.04 2-4.23-.1-8.5-.53-6.24-.67-.66-.1.3-1.98zm77.25-1.26l-4.96 1.16-6.04 1.15-6.66.97-1.7.18-.2-2 1.65-.16 6.56-.98 5.97-1.14 4.9-1.14zm-105.6-6.5l3.6 1.55 3.63 1.35 3.68 1.2 3.83 1.08 3.47.82-.46 1.95-3.5-.83-3.9-1.1-3.77-1.23-3.7-1.38-3.7-1.58-.17-.08.86-1.8zm133.1-4.25l-.76.44-3.72 1.94-3.94 1.86-4.17 1.76-4.43 1.65-1.02.33-.62-1.9.98-.32 4.37-1.62 4.1-1.72 3.86-1.82 3.65-1.9.72-.42zm-153.9-8.02l4.84 3.38 4.37 2.8 2.84 1.64-1 1.73-2.87-1.67-4.44-2.83-4.9-3.42-4.07-3.1 1.2-1.6zm177.04-10.25l-2.03 2.17-2.77 2.72-2.87 2.58-2.98 2.47-3.1 2.34-1.05.73-1.14-1.64 1-.7 3.04-2.3 2.9-2.42 2.82-2.52 2.72-2.66 2-2.14zm-196.78-6.38l7.86 7.12.33.26-1.28 1.54-.36-.3-7.9-7.18-6.05-5.95 1.4-1.43zm213.3-18.08l-1.3 2.6-2.26 4.12-2.32 3.84-2.4 3.6-1.93 2.67-1.62-1.18 1.92-2.63 2.34-3.53 2.27-3.78 2.22-4.03 1.27-2.6zm-238.3-7.88l12.18 13.08-1.47 1.36-12.22-13.1-1.08-1.28 1.52-1.3zm248.26-19.88l-1.1 4.27-1.85 6.15-1.96 5.62-1.06 2.7-1.85-.73 1.04-2.67 1.93-5.53 1.83-6.07 1.08-4.22zm-255.68 11.2l-1.52 1.3-6.36-7.42 1.52-1.3zm260.6-40.25l-.1 1.36-1.2 9.36-1.4 8.34-.08.4-1.96-.4.08-.38 1.4-8.25 1.16-9.28.1-1.32zm1.22-19.56l-.42 9.77-2-.08.42-9.76zM214.9 490.3l-7.05 6.02-5.75-13.86z" fill="#c92d39"/><path d="M216.6 490.16l-9.15 7.8L200 480zm-8.35 4.5l4.95-4.23-9-5.5zM481 440.04l-.04 1.03-2-.1.04-1z" fill="#c92d39"/><path d="M260 424.33h180.22v31.93H260z" fill="#fff" fill-opacity="0"/><path d="M270.98 431.33c0 .74-.63 1.3-1.36 1.3-.82 0-1.36-.56-1.36-1.3 0-.7.54-1.42 1.36-1.42.73 0 1.36.72 1.36 1.43m-.6 3.54l-3.06 12.04c-.62 2.5-2.2 5.76-5.27 5.76-1.5 0-2.06-.93-2.06-1.72 0-.63.33-1.48 1.32-1.48.54 0 1 .43 1 1.08 0 .42-.46.5-.46.96 0 .1.14.28.28.28 1.3 0 2.24-2.15 2.92-4.87l2.6-10.27c0-.34-.28-.62-.9-.62-.23 0-.57.06-.77.15l-.1-.48M304.46 438.3h-16.68v-1.87h16.68v1.87m0 5.67h-16.68v-1.87h16.68v1.87M322.5 432.92l-.45-.12c.83-2.7 2.6-4.58 5.56-4.58 2.64 0 4.43 1.55 4.43 3.88 0 1.36-.74 2.77-2.64 3.9 1.24.54 1.75.88 2.34 1.5.8.9 1.25 2.2 1.25 3.66 0 1.5-.5 2.9-1.3 3.97-1.37 1.8-4.06 2.63-6.6 2.63-2.05 0-3.16-.6-3.16-1.6 0-.6.5-1.03 1.16-1.03.48 0 .94.17 1.73.73 1.05.74 1.64.88 2.44.88 2.1 0 3.68-1.92 3.68-4.33 0-2.15-1-3.53-2.95-4.1-.62-.2-1.27-.28-2.9-.28v-.4c1.1-.37 1.83-.68 2.4-1.02 1.38-.8 2.3-2.07 2.3-3.8 0-1.92-1.2-2.9-3.07-2.9-1.76 0-3.06.92-4.22 3.02M336.67 432.92l-.45-.12c.82-2.7 2.6-4.58 5.55-4.58 2.64 0 4.42 1.55 4.42 3.88 0 1.36-.75 2.77-2.64 3.9 1.24.54 1.75.88 2.35 1.5.8.9 1.25 2.2 1.25 3.66 0 1.5-.48 2.9-1.3 3.97-1.36 1.8-4.05 2.63-6.57 2.63-2.07 0-3.17-.6-3.17-1.6 0-.6.52-1.03 1.17-1.03.48 0 .93.17 1.73.73 1.04.74 1.64.88 2.43.88 2.1 0 3.68-1.92 3.68-4.33 0-2.15-.98-3.53-2.93-4.1-.62-.2-1.28-.28-2.9-.28v-.4c1.1-.37 1.82-.68 2.4-1.02 1.38-.8 2.28-2.07 2.28-3.8 0-1.92-1.2-2.9-3.06-2.9-1.76 0-3.07.92-4.23 3.02M368.57 441.33c0 3.43-2.2 6.57-4.65 6.57-1.92 0-3.42-1.7-3.42-3.9 0-3.04 2.63-5.98 5.35-5.98 1.73 0 2.72 1.22 2.72 3.3m-.65-.05c0-1.47-.7-2.46-1.8-2.46-.44 0-1.03.27-1.37.66-1.25 1.33-2.2 3.83-2.2 5.75 0 1.12.67 1.94 1.57 1.94 1.96 0 3.8-2.86 3.8-5.87m-1.2-13.9l-12.17 20.5h-1.33l11.16-18.64c-1.05 1.22-1.93 1.62-3.43 1.62-.74 0-1.25-.1-2.15-.4.08.48.1.8.1 1.25 0 1.98-.9 4.1-2.26 5.38-.76.74-1.5 1.05-2.43 1.05-1.9 0-3.33-1.67-3.33-3.88 0-3.2 2.57-6.03 5.46-6.03.6 0 .94.17 1.7.8 1 .8 1.67 1.1 2.72 1.1 1.76 0 2.13-.23 4.73-2.75h1.25m-8.5 3.88c0-.83-.1-1.02-.7-1.3-.4-.2-.77-.46-1.25-.97-1.17.57-1.48.85-2.04 1.78-.88 1.4-1.36 3.06-1.36 4.62 0 1.2.65 2 1.6 2 2.02 0 3.75-2.88 3.75-6.13M390.64 444.65l-.14.17c-.8.96-2.16 2.77-3.63 2.77-.9 0-1.16-.66-1.16-1.3 0-.38.12-.83.2-1.14l1.62-6.26c.06-.23.2-.8.2-1.2 0-.53-.17-1.07-.68-1.07-1.08 0-2.86 2.44-3.74 3.77-1.02 1.53-1.75 2.86-1.92 3.45l-.94 3.52h-2.18l2.7-10.6c0-.5-.1-.9-.86-.9-.28 0-.6.05-.8.08l-.05-.43 4.5-.65-1.44 5.36h.1c.14 0 1.53-2 1.58-2.07 1.14-1.42 2.83-3.3 4.53-3.3 1.26 0 1.6.83 1.6 1.77 0 .7-.17 1.42-.3 1.98l-1.68 6.56c-.03.05-.03.14-.03.28.02.17.1.4.4.4.7 0 1.37-1.02 1.77-1.5M404.86 435.24l-2.58 9.77s-.03.07-.03.33c0 .3.17.48.4.48.28 0 .7-.05 1.8-1.52l.35.34c-.87 1.33-2.4 3.03-3.76 3.03-.94 0-1.2-.65-1.2-1.56 0-.38.18-.97.32-1.43h-.12c-2.04 2.6-3.8 2.98-4.9 2.98-1.78 0-2.52-1.56-2.52-3.37 0-3.74 3.74-9.4 7.82-9.4 1.22 0 1.8.67 1.87 1.3h.04l.25-.94h2.26m-2.97 2.47c0-1.16-.35-2-1.43-2-1.93 0-3.63 2.46-4.6 4.84-.5 1.27-.78 2.52-.78 3.5 0 1.5.87 1.88 1.63 1.88 1.95 0 3.94-2.7 4.73-5.38.23-.74.43-1.87.43-2.83M424.63 444.33l.37.32c-.9 1.53-2.38 2.94-3.7 2.94-.63 0-1.1-.3-1.1-1.4 0-.2 0-.48.16-1.04l1.58-6.26c.12-.4.17-.66.17-1.14 0-.56-.16-1.07-.67-1.07-1.53 0-4.64 5.1-5.07 6.84l-.96 3.83h-2.24l2.18-8.47c.06-.26.14-.7.14-1.14 0-.56-.14-1.07-.65-1.07-1.47 0-4.6 5.1-5.04 6.84l-1 3.83h-2.2l2.68-10.6c0-.5-.17-.88-.94-.88-.22 0-.53.02-.76.05l-.06-.4 4.45-.68-1.25 4.8h.17c2.66-4.06 4.36-4.8 5.43-4.8 1.05 0 1.56 1.05 1.56 2.3 0 .48-.1.9-.26 1.47l-.3 1.02h.16c.82-1.47 2.3-3.23 3.68-4.16.62-.43 1.16-.63 1.73-.63 1.03 0 1.54.74 1.54 2 0 .52-.03 1.06-.2 1.74l-1.73 6.56c-.02.08-.05.25-.05.34 0 .22.17.34.43.34.48 0 1.22-.46 1.75-1.5M432.85 434.5l-2.52 9.24c-.1.28-.12.6-.12.9 0 1.08.58 1.88 1.7 1.88 3.07 0 5.06-3.2 5.96-5.76.23-.67.43-1.38.43-2.1 0-2.1-1.74-1.83-1.74-3.08 0-.96.7-1.2 1.53-1.2 1.18 0 1.32 1.46 1.32 2.36 0 2.8-1.1 5.67-2.75 7.93-1.2 1.7-3.4 2.95-5.5 2.95-1.8 0-3.28-.57-3.28-2.63 0-.6.08-1.2.25-1.77l1.64-5.95c.05-.23.13-.48.13-.7 0-.57-1.24-.57-1.6-.57v-.42c1.46-.37 3-.57 4.4-1.2" fill="#c92d39"/><path d="M275.54 456.26h149.14V480H275.54z" fill="#fff" fill-opacity="0"/><path d="M289.14 469.88l-.15.17c-.82 1-2.22 2.86-3.74 2.86-.93 0-1.2-.66-1.2-1.33 0-.38.13-.85.2-1.17l1.67-6.43c.06-.24.2-.82.2-1.23 0-.55-.17-1.1-.7-1.1-1.1 0-2.93 2.5-3.84 3.87-1.05 1.58-1.8 2.95-2 3.56l-.95 3.6h-2.24l2.78-10.88c0-.52-.1-.93-.88-.93-.3 0-.6.06-.8.1l-.07-.45 4.63-.67-1.5 5.5h.1c.15 0 1.57-2.03 1.63-2.12 1.16-1.45 2.9-3.37 4.65-3.37 1.28 0 1.63.85 1.63 1.8 0 .73-.17 1.46-.32 2.04l-1.72 6.73c-.02.06-.02.15-.02.3.02.17.1.4.43.4.7 0 1.4-1.05 1.8-1.54M323.94 463.35h-17.16v-1.92h17.16v1.92m0 5.83h-17.16v-1.92h17.16v1.92M365.58 466.2c0 2.83-2.1 6.47-5.77 6.47-2.38 0-4.04-1.54-5.84-4.22-1.3 2.65-3.3 4.22-6.1 4.22-2.5 0-5.1-1.8-5.1-5.82 0-5.36 3.86-6.7 5.55-6.7 2.14 0 3.6.55 6.36 4.28 1.34-2.4 2.68-4.28 5.62-4.28 2.62 0 5.3 2.16 5.3 6.06m-10.34-.66v.1c2.1 3.45 3.7 5.32 5.68 5.32 1.63 0 2.9-1.6 2.9-3.47 0-2.66-1.47-4.9-4.04-4.9-2.6 0-3.7 1.72-4.54 2.94m-1.92 1.86v-.08c-2.1-3.47-3.93-5.45-5.9-5.45-1.64 0-2.93 1.6-2.93 3.46 0 2.48 1.48 4.9 4.04 4.9 2.6 0 4-1.78 4.78-2.83M382.35 461.9l.4-.38c1.14-1.08 2.28-1.7 3.3-1.7 1.78 0 2.74 1.58 2.74 4.52 0 3.76-3.22 8.68-7.4 8.68-.7 0-1.23-.1-1.8-.55l-.68 2.9c-.1.4-.15.7-.15 1.03 0 .64.32 1.25 1.78 1.25h.46l-.08.35h-6.8l.08-.35c1.8-.08 2-.96 2.36-2.3l3.4-13.5c0-.56-.03-.97-.9-.97-.23 0-.58.06-.8.12l-.07-.47 4.6-.7-.54 2m-1.04 3.9l-1.34 5.84c.4.46 1 .6 1.34.6 2.94 0 5.12-5.03 5.12-8.3 0-1.83-.8-2.4-1.48-2.4-1.55 0-3.06 1.77-3.64 4.27M408.65 469.56l.38.32c-.94 1.57-2.45 3.03-3.82 3.03-.63 0-1.12-.28-1.12-1.42 0-.2.02-.5.17-1.08l1.63-6.43c.12-.4.18-.67.18-1.17 0-.58-.18-1.1-.7-1.1-1.58 0-4.78 5.27-5.22 7.04l-1 3.93h-2.3l2.26-8.7c.05-.27.14-.73.14-1.17 0-.58-.14-1.1-.67-1.1-1.5 0-4.72 5.27-5.18 7.04l-1.03 3.93h-2.27l2.76-10.9c0-.5-.17-.9-.96-.9-.23 0-.55.04-.78.07l-.06-.4 4.57-.7-1.28 4.9h.17c2.74-4.15 4.5-4.9 5.6-4.9 1.07 0 1.6 1.07 1.6 2.35 0 .48-.1.92-.27 1.5l-.3 1.05h.16c.85-1.5 2.37-3.32 3.8-4.28.64-.44 1.2-.64 1.77-.64 1.05 0 1.57.76 1.57 2.07 0 .52-.03 1.08-.2 1.77l-1.78 6.73c-.03.1-.06.26-.06.35 0 .23.18.35.44.35.5 0 1.25-.47 1.8-1.54M417.12 459.45l-2.6 9.5c-.08.3-.1.6-.1.93 0 1.1.58 1.92 1.74 1.92 3.15 0 5.18-3.3 6.12-5.9.23-.7.43-1.44.43-2.17 0-2.15-1.76-1.9-1.76-3.17 0-1 .72-1.22 1.57-1.22 1.23 0 1.38 1.48 1.38 2.4 0 2.9-1.14 5.84-2.83 8.17-1.25 1.75-3.5 3.04-5.65 3.04-1.86 0-3.37-.6-3.37-2.7 0-.62.08-1.24.26-1.82l1.68-6.1c.05-.25.14-.5.14-.74 0-.58-1.28-.58-1.66-.58v-.44c1.52-.38 3.1-.58 4.54-1.22" fill="#c92d39"/><path d="M288.86 480h135.82v23.74H288.86z" fill="#fff" fill-opacity="0"/><path d="M306.03 498.88l-.05.38h-4l-3.55-7.46c-.24.02-.5.05-.7.05-.32 0-.56-.05-.9-.1l-1.46 5.66c-.04.2-.07.37-.07.56 0 .56.43.92 1.8.92h.45l-.1.38h-7.7l.1-.38h.38c1.8 0 2.28-.66 2.5-1.47l2.93-11.76c.04-.2.12-.4.12-.6 0-.5-.4-.87-1.83-.87h-.47l.1-.38h6.4c3.8 0 5.13 1.56 5.13 3.57 0 1.97-1.67 3.55-4.2 4.05l2.7 5.42c.46.93 1.08 1.92 2.43 2.04m-7.46-14.14l-1.52 6.16c.3.07.55.1.76.1 3.16 0 4.54-1.38 4.54-3.37 0-2.56-1.47-2.96-2.96-2.96-.34 0-.55.02-.8.07M333.98 491.68h-13.95v-1.56h13.95v1.56m0 4.74h-13.95v-1.57h13.95v1.57M353.87 484.17V490c2.86 1.54 3.46 2.13 4.1 3.1.33.5.5 1.26.5 2.13 0 2.75-1.88 3.65-4.6 4.03v2.06h-.8v-2.06c-2.07 0-3.1-.33-4.4-1.2v-3.1h.34c.5 2.38 1.98 3.64 4.06 3.64v-6.68c-3.26-1.85-4.2-2.82-4.2-4.8 0-2.38 2-3.44 4.2-3.6v-1.48h.8v1.5c1.93.1 3.1.5 3.82 1.25v2.62h-.35c-.48-1.97-1.57-3-3.46-3.25m-.8 5.45v-5.45c-1.7.33-2.47 1.28-2.47 2.5 0 1.03.47 1.6 2.46 2.95m.8 2.7v6.28c1.93-.4 2.7-1.14 2.7-2.82 0-1.45-.54-2.18-2.7-3.46M368.8 499.26h-6.52v-.36c1.75-.1 2.25-.6 2.25-1.9V486.4c0-.8-.22-1.17-.7-1.17-.25 0-.65.13-1.08.3l-.64.24v-.34l4.25-2.15.2.07v14.14c0 1.02.5 1.44 2.26 1.44v.36M382.6 491.44c0 4.08-1.5 8.15-5.36 8.15-4.05 0-5.35-4.4-5.35-8.3 0-4.2 1.62-8.05 5.44-8.05 3.1 0 5.26 3.34 5.26 8.2m-2.28.1c0-4.9-1.04-7.7-3.12-7.7-1.97 0-3.04 2.8-3.04 7.62 0 4.8 1.05 7.5 3.08 7.5 2.02 0 3.08-2.72 3.08-7.4M387.47 498.24c0 .7-.6 1.28-1.32 1.28-.74 0-1.3-.57-1.3-1.3 0-.74.6-1.33 1.32-1.33.7 0 1.3.63 1.3 1.34M400.38 491.44c0 4.08-1.5 8.15-5.35 8.15-4.05 0-5.35-4.4-5.35-8.3 0-4.2 1.63-8.05 5.44-8.05 3.1 0 5.26 3.34 5.26 8.2m-2.27.1c0-4.9-1.03-7.7-3.12-7.7-1.96 0-3.03 2.8-3.03 7.62 0 4.8 1.04 7.5 3.08 7.5 2 0 3.08-2.72 3.08-7.4M412.25 491.44c0 4.08-1.5 8.15-5.36 8.15-4.06 0-5.36-4.4-5.36-8.3 0-4.2 1.64-8.05 5.45-8.05 3.1 0 5.25 3.34 5.25 8.2m-2.28.1c0-4.9-1.04-7.7-3.12-7.7-1.97 0-3.04 2.8-3.04 7.62 0 4.8 1.06 7.5 3.1 7.5 2 0 3.07-2.72 3.07-7.4M424.1 491.44c0 4.08-1.5 8.15-5.37 8.15-4.05 0-5.35-4.4-5.35-8.3 0-4.2 1.64-8.05 5.45-8.05 3.1 0 5.26 3.34 5.26 8.2m-2.3.1c0-4.9-1.03-7.7-3.1-7.7-1.98 0-3.04 2.8-3.04 7.62 0 4.8 1.04 7.5 3.07 7.5 2.02 0 3.08-2.72 3.08-7.4" fill="#c92d39"/><defs><path fill="#333" d="M23 0v-37h61v-169l-59 37v-38l62-41h46v211h57V0H23" id="m"/><use transform="matrix(0.06790123456790123,0,0,0.06790123456790123,0,0)" xlink:href="#m" id="a"/><path fill="#333" d="M182-182c0 78-84 86-111 141h115V0H12c-6-101 99-100 120-180 1-22-12-31-33-32-23 0-32 14-35 34l-49-3c5-45 32-70 84-70 51 0 83 22 83 69" id="n"/><use transform="matrix(0.06790123456790123,0,0,0.06790123456790123,0,0)" xlink:href="#n" id="b"/><path fill="#333" d="M128-127c34 4 56 21 59 58 7 91-148 94-172 28-4-9-6-17-7-26l51-5c1 24 16 35 40 36 23 0 39-12 38-36-1-31-31-36-65-34v-40c32 2 59-3 59-33 0-20-13-33-34-33s-33 13-35 32l-50-3c6-44 37-68 86-68 50 0 83 20 83 66 0 35-22 52-53 58" id="o"/><use transform="matrix(0.06790123456790123,0,0,0.06790123456790123,0,0)" xlink:href="#o" id="c"/><path fill="#333" d="M115-159c48 0 72 30 72 78 0 54-30 85-83 85-64 0-91-50-91-122 0-98 58-163 141-120 15 8 21 24 27 44l-47 6c-5-31-48-31-61-4-7 14-11 33-11 60 9-17 28-27 53-27zM102-35c24 0 36-20 36-45s-11-43-37-43c-23 0-36 14-36 38 0 27 11 50 37 50" id="p"/><use transform="matrix(0.06790123456790123,0,0,0.06790123456790123,0,0)" xlink:href="#p" id="d"/><path fill="#333" d="M101-251c68 0 84 54 84 127C185-50 166 4 99 4S15-52 14-124c-1-75 17-127 87-127zm-1 216c37-5 36-46 36-89s4-89-36-89c-39 0-36 45-36 89 0 43-3 85 36 89" id="q"/><use transform="matrix(0.06790123456790123,0,0,0.06790123456790123,0,0)" xlink:href="#q" id="e"/><path fill="#333" d="M24 0v-54h51V0H24" id="r"/><use transform="matrix(0.06790123456790123,0,0,0.06790123456790123,0,0)" xlink:href="#r" id="f"/><use transform="matrix(0.06790123456790123,0,0,0.06790123456790123,0,0)" xlink:href="#r" id="g"/><use transform="matrix(0.06790123456790123,0,0,0.06790123456790123,0,0)" xlink:href="#r" id="h"/><path fill="#333" d="M918-1255c-4-93-8-201-95-201-43 0-75 19-99 56-39 60-62 207-83 302h258l-29 140H610L416-43c-72 314-227 541-609 533-32-1-65-8-92-15l25-119c52 16 133 24 182-2C31 296 61 165 92 18l207-976H113l20-97 197-43c49-281 171-481 501-479 136 1 248 29 301 109 41 62 21 139-39 175-41 24-98 38-175 38" id="s"/><g id="i"><use transform="matrix(0.011935763888888888,0,0,0.011935763888888888,0,0)" xlink:href="#s"/><use transform="matrix(0.011935763888888888,0,0,0.011935763888888888,9.87087673611111,0)" xlink:href="#s"/></g><path d="M147 0H94L2-248h55l64 206c17-72 42-137 63-206h54" id="t"/><path d="M24-248c93 1 206-16 204 79-1 75-69 88-152 82V0H24v-248zm52 121c47 0 100 7 100-41 0-47-54-39-100-39v80" id="u"/><g id="j"><use transform="matrix(0.06790123456790123,0,0,0.06790123456790123,0,0)" xlink:href="#t"/><use transform="matrix(0.06790123456790123,0,0,0.06790123456790123,16.296296296296294,0)" xlink:href="#u"/></g><path d="M15-148v-39h180v39H15zm0 97v-39h180v39H15" id="v"/><use transform="matrix(0.06790123456790123,0,0,0.06790123456790123,0,0)" xlink:href="#v" id="k"/><path d="M111-147c44 9 85 22 84 75-1 49-35 65-84 68v31H91V-4C40-5 12-27 5-72l45-8c4 24 15 38 41 40-2-22 4-51-2-69-39-10-76-22-76-72 0-47 35-60 78-63v-23h20v23c47 1 70 23 78 62l-46 7c-4-18-12-32-32-34v62zm-20-63c-33-4-45 46-13 54 4 1 8 2 13 4v-58zm20 170c39 5 53-51 15-60-7-2-7-2-15-4v64" id="w"/><path d="M110-251c83-7 118 89 53 130-17 10-36 21-38 46H78c2-56 65-53 71-103 2-21-15-35-38-34-25 1-41 14-44 38l-50-2c6-48 39-70 93-75zM77 0v-47h51V0H77" id="x"/><g id="l"><use transform="matrix(0.06790123456790123,0,0,0.06790123456790123,0,0)" xlink:href="#w"/><use transform="matrix(0.06790123456790123,0,0,0.06790123456790123,13.580246913580247,0)" xlink:href="#x"/></g></defs></g></svg>