<svg xmlns="http://www.w3.org/2000/svg" xmlns:xlink="http://www.w3.org/1999/xlink" xmlns:lucid="lucid" width="825.01" height="441.06"><g transform="translate(-405 -99.99999999999997)" lucid:page-tab-id="0_0"><path d="M0 0h1870.4v1323.2H0z" fill="#fff"/><path d="M1141 236.8l-.92 3.4-2.53 2.54-3.42.93H421v-2h712.87l2.64-.72 1.8-1.77.7-2.65v-80.7h2z" fill="#5e5e5e"/><path d="M421.03 243.67H420v-2h1.03zM1144.64 154.84h-9.28l4.64-14.27z" fill="#5e5e5e"/><path d="M1146 155.84h-12l6-18.5zm-9.26-2h6.52L1140 143.8z" fill="#5e5e5e"/><path d="M526.08 321.5h-2v-51.3h2zm0-72.63h-2v-5.2h2z" fill="#a3d977"/><path d="M526.08 243.7h-2v-1.03h2zM525.08 336.76l-4.63-14.26h9.27z" fill="#a3d977"/><path d="M525.08 340l-6-18.5h12zm-3.26-16.5l3.26 10.03 3.26-10.03z" fill="#a3d977"/><use xlink:href="#a" transform="matrix(1,0,0,1,494.514326882143,248.87111111111105) translate(0.004999999999999005 14.222222222222223)"/><path d="M636.85 321.5h-2v-51.3h2zm0-72.63h-2v-5.2h2z" fill="#a3d977"/><path d="M636.85 243.7h-2v-1.03h2zM635.85 336.76l-4.64-14.26h9.28z" fill="#a3d977"/><path d="M635.85 340l-6-18.5h12zm-3.26-16.5l3.25 10.03 3.26-10.03z" fill="#a3d977"/><use xlink:href="#b" transform="matrix(1,0,0,1,605.2790595799956,248.87111111111105) translate(0.004999999999999005 14.222222222222223)"/><path d="M741.03 321.5h-2v-51.3h2zm0-72.63h-2v-5.2h2z" fill="#a3d977"/><path d="M741.03 243.7h-2v-1.03h2zM740.03 336.76l-4.63-14.26h9.27z" fill="#a3d977"/><path d="M740.03 340l-6-18.5h12.02zm-3.25-16.5l3.25 10.03 3.26-10.03z" fill="#a3d977"/><use xlink:href="#c" transform="matrix(1,0,0,1,704.5278628168958,248.87111111111105) translate(0.005000000000002558 14.222222222222223)"/><path d="M828 321.5h-2v-51.3h2zm0-72.63h-2v-5.2h2z" fill="#a3d977"/><path d="M828 243.7h-2v-1.03h2zM827 336.76l-4.64-14.26h9.28z" fill="#a3d977"/><path d="M827 340l-6-18.5h12zm-3.26-16.5l3.26 10.03 3.26-10.03z" fill="#a3d977"/><use xlink:href="#d" transform="matrix(1,0,0,1,796.4320987654321,248.87111111111105) translate(0.004999999999999005 14.222222222222223)"/><path d="M968 341H501v-2h467z" fill="#a3d977"/><path d="M501.03 341H500v-2h1.03zM969 341h-1.03v-2H969z" fill="#a3d977"/><use xlink:href="#e" transform="matrix(1,0,0,1,624.074074074074,344) translate(0.004999999999999005 14.222222222222223)"/><path d="M1140 419v-2.98m0-3.97v-5.96m0-4v-5.95m0-3.97v-5.96m0-3.97v-5.96m0-4v-5.95m0-3.97v-5.96m0-3.97v-5.96m0-4v-5.95m0-3.97v-5.96m0-3.97v-5.96m0-4v-5.95m0-3.97v-5.96m0-3.97v-5.96m0-4v-5.95m0-3.97v-5.96m0-3.97v-5.96m0-4v-5.95m0-3.97v-5.96m0-3.97v-5.96m0-4v-5.95m0-3.97v-5.96m0-3.97v-5.96m0-4v-5.95m0-3.97v-5.96m0-3.97v-5.96m0-4v-5.95m0-3.97v-5.96m0-3.97v-5.96m0-4v-5.95m0-3.97V121M1140 418.97V420M1140 121.03V120" stroke="#5e5e5e" stroke-width="2" fill="none"/><use xlink:href="#f" transform="matrix(1,0,0,1,1148,365.3333333333333) translate(0.004999999999999893 14.222222222222223)"/><use xlink:href="#g" transform="matrix(1,0,0,1,1147.9999999999998,244) translate(0.005000000000002558 14.222222222222223)"/><use xlink:href="#h" transform="matrix(1,0,0,1,1024.888888888889,130.6666666666667) translate(0.005000000000002558 14.222222222222223)"/><g fill="none"><path d="M431 228c-3.3 0-6-2.7-6-6v-96c0-3.3 2.7-6 6-6h569c3.3 0 6 2.7 6 6v96c0 3.3-2.7 6-6 6z"/><path d="M1006 228c0-5.52-4.48-10-10-10H725.5c-5.52 0-10-4.48-10-10 0 5.52-4.48 10-10 10H435c-5.52 0-10 4.48-10 10" stroke="#c92d39" stroke-width="3"/></g><path d="M595.5 166c0-3.3 2.7-6 6-6h228c3.3 0 6 2.7 6 6v48c0 3.3-2.7 6-6 6h-228c-3.3 0-6-2.7-6-6z" stroke="#000" stroke-opacity="0" stroke-width="3" fill="#fff" fill-opacity="0"/><use xlink:href="#i" transform="matrix(1,0,0,1,600.5,165) translate(69.01234567901236 30.27777777777778)"/><path d="M970 321.5h-2v-50.32h2zm0-71.66h-2v-6.17h2z" fill="#a3d977"/><path d="M970 243.7h-2v-1.03h2zM969 336.76l-4.64-14.26h9.28z" fill="#a3d977"/><path d="M969 340l-6-18.5h12zm-3.26-16.5l3.26 10.03 3.26-10.03z" fill="#a3d977"/><use xlink:href="#j" transform="matrix(1,0,0,1,938.4320987654321,249.84444444444446) translate(0.004999999999999005 14.222222222222223)"/><path d="M807.92 529.06h4.5v2h-4.54l-1.5-.07.1-2zm14.5 2h-6v-2h6zm10 0h-6v-2h6zm10.04-.38l-6 .25-.08-2 6-.25zm-40-1.85l-.07 2-6-.25.08-2zm50 1.43l-6 .25-.1-2 6-.24zm-59.98-1.85l-.08 2-6-.24.08-2zm70 1.32l-2.65.23-3.38.14-.1-2 3.36-.15 2.6-.22zm-79.95-1.76l-.16 2-5.98-.5.15-2zm89.9.93l-5.97.5-.17-2 5.97-.5zm-99.86-1.78l-.17 2-5.98-.5.17-2zm109.84.93l-5.97.5-.17-2 5.98-.5zm-121.8-1.93l2 .17-.16 1.98-2.05-.17-3.97-.5.25-1.97zm131.8.84l-5.97.75-.25-1.97 5.96-.76zm-139.7-1.83l-.24 1.98-5.95-.74.26-1.98zm149.6.57l-5.95.76-.25-2 5.96-.74zm-163.04-2.27l3.53.45-.26 1.98-3.57-.45-2.4-.4.33-1.97zm172.97 1.02l-5.95.75-.25-1.98 5.95-.75zm-179.28-2.08l-.33 1.97-5.92-1 .33-1.97zm189.18.42l-5.9 1-.35-1.98 5.92-1zm-202.53-2.7l3.5.6-.34 1.97-3.53-.6-2.4-.5.4-1.96zm212.4 1.03l-5.92 1-.34-1.97 5.92-1zm-218.68-2.35l-.4 1.96-5.88-1.25.4-1.97zm228.54.5l-3.84.83-2.08.36-.34-1.97 2.04-.36 3.8-.8zm-240.26-3l1.94.42-.42 1.96-1.98-.42-3.9-1 .5-1.94zm250.05.93l-5.87 1.26-.42-1.95 5.87-1.24zm9.78-2.06l-5.87 1.24-.42-1.95 5.87-1.25zm-267.56-.83l-.5 1.95-5.8-1.5.5-1.93zm277.3-1.63l-5.82 1.5-.5-1.95 5.8-1.5zm-286.93-.87l-.58 1.9-5.74-1.72.57-1.9zm296.6-1.62l-5.8 1.5-.5-1.94 5.8-1.5zm-310.58-2.6l4.4 1.33-.57 1.93-4.46-1.34-1.32-.48.66-1.88zm320.24-.15l-5.74 1.74-.58-1.92 5.74-1.73zm-325.3-1.6l-.66 1.88-5.66-1.96.65-1.9zm334.88-1.28l-5.75 1.73-.58-1.92 5.75-1.73zM655.8 502.5l-.73 1.87-5.58-2.2.73-1.87zm353.83-1.05l-4.63 1.6-1.1.34-.57-1.92 1.05-.32 4.6-1.6zM644.4 498l2.1.83-.73 1.86-2.14-.86-3.4-1.5.8-1.84zm374.67.16l-5.67 1.98-.65-1.9 5.66-1.96zm9.4-3.5l-4.86 1.92-.75.27-.66-1.9.72-.24 4.82-1.9zm-395.25-1.63l4.16 1.84-.82 1.83-4.2-1.86-1.3-.65.9-1.8zm404.56-2.05l-5.58 2.2-.74-1.85 5.58-2.2zm-409.4-.36l-.9 1.8-5.37-2.68.9-1.8zm418.62-3.6l-5.48 2.42-.82-1.82 5.5-2.44zm-427.47-.97l-.96 1.75-5.26-2.9.97-1.74zm436.62-3.16l-.9.43-4.6 2.05-.8-1.83 4.55-2.03.87-.43zm-445.28-1.77l-1.03 1.7-5.13-3.1 1.04-1.7zm454.24-2.7l-5.36 2.68-.9-1.78 5.38-2.67zm-467.47-5.77l4.8 3.2-1.1 1.65-4.84-3.2-.2-.14 1.17-1.62zm476.36 1.1l-5.27 2.88-.96-1.76 5.26-2.9zm8.73-4.95l-2.47 1.5-2.77 1.52-.97-1.75 2.74-1.5 2.42-1.47zm-492.16-1.27l3.67 2.66-1.18 1.6-3.7-2.68-1.15-.9 1.25-1.57zm500.73-3.95l-.62.42-4.53 2.74-1.03-1.7 4.48-2.73.6-.38zm-507.22-1.2l2.24 1.78-1.24 1.57-2.27-1.8-2.38-2.05 1.3-1.52zm515.55-4.33l-5 3.32-1.1-1.67 5-3.32zm-521.5-.8l.57.5-1.3 1.5-.6-.5-3.83-3.6 1.37-1.46zm529.64-5.1l-4.86 3.54-1.16-1.63 4.85-3.53zm-540.16-5.18l3.9 3.97-1.43 1.4-3.92-4-.3-.33 1.5-1.33zm548.07-1.07l-.36.3-4.35 3.46-1.25-1.56 4.34-3.44.32-.28zm-552.7-4.1l1.7 1.9-1.5 1.33-1.72-1.92-2.2-2.65 1.54-1.27zm560.25-2.53l-1.47 1.38-3.05 2.63-1.3-1.5 3.02-2.62 1.43-1.34zm-564.94-3.16l-1.6 1.22-3.62-4.78 1.6-1.2zm570.04-1.68l-.84.85-1.35 1.27-1.37-1.46 1.32-1.24.8-.82zm-577.26-8.27l1.34 1.93-1.64 1.14-1.37-1.97-1.96-3.08 1.68-1.07zm-6.47-10.68l2.45 4.26-1.73 1-2.48-4.3-.5-.95 1.77-.93zm-2.86-5.44l.5.98-1.76.93-.53-1-2.08-4.44 1.8-.86zm-4.97-11.17l1.32 3.15-1.85.8-1.34-3.2-.9-2.42 1.88-.7zm-4.06-11.65l1.82 5.56-1.9.62-1.82-5.6-.05-.15 1.93-.53zm-1.68-6.05l.6 2.1-1.94.53-.6-2.13-.87-3.73 1.96-.45zm-2.7-12.7l1 5.15-1.98.37-.98-5.17-.12-.77 1.98-.3zm-.98-6.67l.3 2-1.98.3-.3-2.05-.42-3.95 2-.2zm-.78-7.85l-2 .13-.38-6 2-.12zm-.48-9.94l-2 .03-.06-3 2-.04z" fill="#a3d977"/><path d="M526.02 341l-2 .05-.02-1.02 2-.04zM1131.7 436.1l-6.87-6.22 13-7.48z" fill="#a3d977"/><path d="M1132.05 437.76l-8.92-8.06L1140 420zm-5.53-7.7l4.83 4.37 4.3-9.63z" fill="#a3d977"/><use xlink:href="#k" transform="matrix(1,0,0,1,590.1329697695788,434.41601400357393) translate(5.412407407407407 14.222222222222223)"/><use xlink:href="#l" transform="matrix(1,0,0,1,590.1329697695788,434.41601400357393) translate(61.21487654320988 14.222222222222223)"/><use xlink:href="#m" transform="matrix(1,0,0,1,590.1329697695788,434.41601400357393) translate(0.005000000000002558 35.55555555555556)"/><use xlink:href="#n" transform="matrix(1,0,0,1,590.1329697695788,434.41601400357393) translate(36.00500000000001 35.55555555555556)"/><use xlink:href="#o" transform="matrix(1,0,0,1,590.1329697695788,434.41601400357393) translate(76.49882716049385 35.55555555555556)"/><path d="M860.08 253.45l.92 3.42v104.46h-2v-104.2l-.7-2.64-.73-.73v-2.83z" fill="#5e5e5e"/><path fill="#5e5e5e"/><path d="M860 396.76l-4.58-14.1h9.16z" fill="#5e5e5e"/><path d="M860 400l-5.63-17.33h11.26zm-3.26-16.5l3.26 10.03 3.26-10.03z" fill="#5e5e5e"/><use xlink:href="#p" transform="matrix(1,0,0,1,816.7901234567901,361.3333333333333) translate(0.005000000000002558 14.222222222222223)"/><path d="M860.63 400.07l.16.17.3.4 1.03 1.35.97 1.3m4.84 6.52l2.7 3.65 2.3 2.77m5.3 6.14l1.88 2.1 3.72 3.8m5.88 5.6l4.8 4.14 1.4 1.1m6.46 4.94l1.9 1.38 4.8 3.2m7 4.13l3.07 1.7 4.15 2.05m7.43 3.28l3.7 1.47 3.9 1.36m7.8 2.36l4.26 1.1 3.62.76m8 1.42l5.4.68 2.68.23m8.1.47l1.4.06h6.42l.3-.02m8.13-.4l5.2-.44 2.88-.36m8.04-1.17l4.03-.7 3.95-.83m7.92-1.85l4.78-1.22 3.05-.93m7.76-2.42l7.67-2.67m7.56-2.97l3.27-1.3 4.2-1.87m7.42-3.32l7.27-3.6m7.22-3.73l7.1-3.9m7.05-4.07l3.48-2.1M860.02 398.97L860 400" stroke="#5e5e5e" stroke-width="2" fill="none"/><path d="M1117.26 421.72l-9.63 11.5-4.92-7.85z" stroke="#5e5e5e" stroke-width="2" fill="#5e5e5e"/><use xlink:href="#k" transform="matrix(1,0,0,1,895.3160978198121,404.5206483170241) translate(4.918580246913578 14.222222222222223)"/><use xlink:href="#l" transform="matrix(1,0,0,1,895.3160978198121,404.5206483170241) translate(60.72104938271605 14.222222222222223)"/><use xlink:href="#q" transform="matrix(1,0,0,1,895.3160978198121,404.5206483170241) translate(0.005000000000002558 35.55555555555556)"/><use xlink:href="#r" transform="matrix(1,0,0,1,895.3160978198121,404.5206483170241) translate(36.00500000000001 35.55555555555556)"/><use xlink:href="#o" transform="matrix(1,0,0,1,895.3160978198121,404.5206483170241) translate(75.51117283950617 35.55555555555556)"/><g fill="none"><path d="M1134 280c3.3 0 6 2.7 6 6v68c0 3.3-2.7 6-6 6H986c-3.3 0-6-2.7-6-6v-68c0-3.3 2.7-6 6-6z"/><path d="M980 280c0 5.52 4.48 10 10 10h60c5.52 0 10 4.48 10 10 0-5.52 4.48-10 10-10h60c5.52 0 10-4.48 10-10" stroke="#a3d977" stroke-width="3"/></g><path d="M1000 311c0-3.3 2.7-6 6-6h108c3.3 0 6 2.7 6 6v23c0 3.3-2.7 6-6 6h-108c-3.3 0-6-2.7-6-6z" stroke="#000" stroke-opacity="0" stroke-width="3" fill="#fff" fill-opacity="0"/><g><use xlink:href="#s" transform="matrix(1,0,0,1,1005,310) translate(15.18518518518519 19.34027777777778)"/></g><defs><path fill="#333" d="M23 0v-37h61v-169l-59 37v-38l62-41h46v211h57V0H23" id="t"/><path fill="#333" d="M139-81c0-46-55-55-73-27H18l9-140h149v37H72l-4 63c44-38 133-4 122 66C201 21 21 35 11-62l49-4c5 18 15 30 39 30 26 0 40-18 40-45" id="u"/><path fill="#333" d="M14-72v-43h91v43H14" id="v"/><path fill="#333" d="M165-50V0h-47v-50H5v-38l105-160h55v161h33v37h-33zm-47-37l2-116L46-87h72" id="w"/><path fill="#333" d="M99-251c69 0 84 53 88 123 5 99-61 162-144 118-15-8-21-25-26-45l46-6c4 31 50 33 63 7 7-15 12-36 12-60-9 18-29 28-54 28-48 0-72-32-72-82 0-55 31-83 87-83zm-1 128c24 0 37-16 37-39 0-27-10-51-37-51-25 0-35 19-35 45 0 25 10 45 35 45" id="x"/><path fill="#333" d="M101-251c68 0 84 54 84 127C185-50 166 4 99 4S15-52 14-124c-1-75 17-127 87-127zm-1 216c37-5 36-46 36-89s4-89-36-89c-39 0-36 45-36 89 0 43-3 85 36 89" id="y"/><g id="a"><use transform="matrix(0.04938271604938272,0,0,0.04938271604938272,0,0)" xlink:href="#t"/><use transform="matrix(0.04938271604938272,0,0,0.04938271604938272,9.876543209876544,0)" xlink:href="#u"/><use transform="matrix(0.04938271604938272,0,0,0.04938271604938272,19.75308641975309,0)" xlink:href="#v"/><use transform="matrix(0.04938271604938272,0,0,0.04938271604938272,25.629629629629633,0)" xlink:href="#w"/><use transform="matrix(0.04938271604938272,0,0,0.04938271604938272,35.50617283950618,0)" xlink:href="#v"/><use transform="matrix(0.04938271604938272,0,0,0.04938271604938272,41.38271604938272,0)" xlink:href="#x"/><use transform="matrix(0.04938271604938272,0,0,0.04938271604938272,51.25925925925927,0)" xlink:href="#y"/></g><path fill="#333" d="M52 0c1-96 47-148 87-207H15v-41h169v40c-36 62-79 113-81 208H52" id="z"/><g id="b"><use transform="matrix(0.04938271604938272,0,0,0.04938271604938272,0,0)" xlink:href="#t"/><use transform="matrix(0.04938271604938272,0,0,0.04938271604938272,9.876543209876544,0)" xlink:href="#u"/><use transform="matrix(0.04938271604938272,0,0,0.04938271604938272,19.75308641975309,0)" xlink:href="#v"/><use transform="matrix(0.04938271604938272,0,0,0.04938271604938272,25.629629629629633,0)" xlink:href="#z"/><use transform="matrix(0.04938271604938272,0,0,0.04938271604938272,35.50617283950618,0)" xlink:href="#v"/><use transform="matrix(0.04938271604938272,0,0,0.04938271604938272,41.38271604938272,0)" xlink:href="#x"/><use transform="matrix(0.04938271604938272,0,0,0.04938271604938272,51.25925925925927,0)" xlink:href="#y"/></g><g id="c"><use transform="matrix(0.04938271604938272,0,0,0.04938271604938272,0,0)" xlink:href="#t"/><use transform="matrix(0.04938271604938272,0,0,0.04938271604938272,9.876543209876544,0)" xlink:href="#u"/><use transform="matrix(0.04938271604938272,0,0,0.04938271604938272,19.75308641975309,0)" xlink:href="#v"/><use transform="matrix(0.04938271604938272,0,0,0.04938271604938272,25.629629629629633,0)" xlink:href="#t"/><use transform="matrix(0.04938271604938272,0,0,0.04938271604938272,35.50617283950618,0)" xlink:href="#y"/><use transform="matrix(0.04938271604938272,0,0,0.04938271604938272,45.38271604938272,0)" xlink:href="#v"/><use transform="matrix(0.04938271604938272,0,0,0.04938271604938272,51.25925925925927,0)" xlink:href="#x"/><use transform="matrix(0.04938271604938272,0,0,0.04938271604938272,61.13580246913581,0)" xlink:href="#y"/></g><path fill="#333" d="M128-127c34 4 56 21 59 58 7 91-148 94-172 28-4-9-6-17-7-26l51-5c1 24 16 35 40 36 23 0 39-12 38-36-1-31-31-36-65-34v-40c32 2 59-3 59-33 0-20-13-33-34-33s-33 13-35 32l-50-3c6-44 37-68 86-68 50 0 83 20 83 66 0 35-22 52-53 58" id="A"/><g id="d"><use transform="matrix(0.04938271604938272,0,0,0.04938271604938272,0,0)" xlink:href="#t"/><use transform="matrix(0.04938271604938272,0,0,0.04938271604938272,9.876543209876544,0)" xlink:href="#u"/><use transform="matrix(0.04938271604938272,0,0,0.04938271604938272,19.75308641975309,0)" xlink:href="#v"/><use transform="matrix(0.04938271604938272,0,0,0.04938271604938272,25.629629629629633,0)" xlink:href="#t"/><use transform="matrix(0.04938271604938272,0,0,0.04938271604938272,35.50617283950618,0)" xlink:href="#v"/><use transform="matrix(0.04938271604938272,0,0,0.04938271604938272,41.38271604938272,0)" xlink:href="#x"/><use transform="matrix(0.04938271604938272,0,0,0.04938271604938272,51.25925925925927,0)" xlink:href="#A"/></g><path fill="#333" d="M240-174c0 40-23 61-54 70L253 0h-59l-57-94H76V0H24v-248c93 4 217-23 216 74zM76-134c48-2 112 12 112-38 0-48-66-32-112-35v73" id="B"/><path fill="#333" d="M15-148v-39h180v39H15zm0 97v-39h180v39H15" id="C"/><path fill="#333" d="M111-147c44 9 85 22 84 75-1 49-35 65-84 68v31H91V-4C40-5 12-27 5-72l45-8c4 24 15 38 41 40-2-22 4-51-2-69-39-10-76-22-76-72 0-47 35-60 78-63v-23h20v23c47 1 70 23 78 62l-46 7c-4-18-12-32-32-34v62zm-20-63c-33-4-45 46-13 54 4 1 8 2 13 4v-58zm20 170c39 5 53-51 15-60-7-2-7-2-15-4v64" id="D"/><path fill="#333" d="M110-251c83-7 118 89 53 130-17 10-36 21-38 46H78c2-56 65-53 71-103 2-21-15-35-38-34-25 1-41 14-44 38l-50-2c6-48 39-70 93-75zM77 0v-47h51V0H77" id="E"/><g id="e"><use transform="matrix(0.04938271604938272,0,0,0.04938271604938272,0,0)" xlink:href="#B"/><use transform="matrix(0.04938271604938272,0,0,0.04938271604938272,12.790123456790125,0)" xlink:href="#C"/><use transform="matrix(0.04938271604938272,0,0,0.04938271604938272,23.160493827160497,0)" xlink:href="#D"/><use transform="matrix(0.04938271604938272,0,0,0.04938271604938272,33.03703703703704,0)" xlink:href="#E"/></g><path fill="#333" d="M93-157L62 0H13l31-157H16l6-33h28c2-54 40-81 100-68l-6 32c-29-8-44 9-45 36h38l-7 33H93" id="F"/><g id="f"><use transform="matrix(0.04938271604938272,0,0,0.04938271604938272,0,0)" xlink:href="#F"/><use transform="matrix(0.04938271604938272,0,0,0.04938271604938272,5.530864197530865,0)" xlink:href="#F"/></g><g id="g"><use transform="matrix(0.04938271604938272,0,0,0.04938271604938272,0,0)" xlink:href="#t"/><use transform="matrix(0.04938271604938272,0,0,0.04938271604938272,9.876543209876544,0)" xlink:href="#u"/><use transform="matrix(0.04938271604938272,0,0,0.04938271604938272,19.75308641975309,0)" xlink:href="#v"/><use transform="matrix(0.04938271604938272,0,0,0.04938271604938272,25.629629629629633,0)" xlink:href="#t"/><use transform="matrix(0.04938271604938272,0,0,0.04938271604938272,35.50617283950618,0)" xlink:href="#y"/><use transform="matrix(0.04938271604938272,0,0,0.04938271604938272,45.38271604938272,0)" xlink:href="#v"/><use transform="matrix(0.04938271604938272,0,0,0.04938271604938272,51.25925925925927,0)" xlink:href="#x"/><use transform="matrix(0.04938271604938272,0,0,0.04938271604938272,61.13580246913581,0)" xlink:href="#u"/></g><path fill="#333" d="M147 0H94L2-248h55l64 206c17-72 42-137 63-206h54" id="G"/><path fill="#333" d="M76-208v77h127v40H76V0H24v-248h183v40H76" id="H"/><path fill="#333" d="M24 0v-54h51V0H24" id="I"/><g id="h"><use transform="matrix(0.04938271604938272,0,0,0.04938271604938272,0,0)" xlink:href="#G"/><use transform="matrix(0.04938271604938272,0,0,0.04938271604938272,11.851851851851853,0)" xlink:href="#H"/><use transform="matrix(0.04938271604938272,0,0,0.04938271604938272,22.666666666666668,0)" xlink:href="#C"/><use transform="matrix(0.04938271604938272,0,0,0.04938271604938272,33.03703703703704,0)" xlink:href="#D"/><use transform="matrix(0.04938271604938272,0,0,0.04938271604938272,42.91358024691358,0)" xlink:href="#t"/><use transform="matrix(0.04938271604938272,0,0,0.04938271604938272,52.79012345679013,0)" xlink:href="#y"/><use transform="matrix(0.04938271604938272,0,0,0.04938271604938272,62.66666666666667,0)" xlink:href="#y"/><use transform="matrix(0.04938271604938272,0,0,0.04938271604938272,72.54320987654322,0)" xlink:href="#I"/><use transform="matrix(0.04938271604938272,0,0,0.04938271604938272,77.4814814814815,0)" xlink:href="#y"/><use transform="matrix(0.04938271604938272,0,0,0.04938271604938272,87.35802469135804,0)" xlink:href="#y"/><use transform="matrix(0.04938271604938272,0,0,0.04938271604938272,97.23456790123458,0)" xlink:href="#y"/></g><path fill="#c92d39" d="M117-194c89-4 53 116 60 194h-32v-121c0-31-8-49-39-48C34-167 62-67 57 0H25l-1-190h30c1 10-1 24 2 32 11-22 29-35 61-36" id="J"/><path fill="#c92d39" d="M27 0v-27h64v-190l-56 39v-29l58-41h29v221h61V0H27" id="K"/><path fill="#c92d39" d="M18-150v-26h174v26H18zm0 90v-26h174v26H18" id="L"/><path fill="#c92d39" d="M101-251c82-7 93 87 43 132L82-64C71-53 59-42 53-27h129V0H18c2-99 128-94 128-182 0-28-16-43-45-43s-46 15-49 41l-32-3c6-41 34-60 81-64" id="M"/><path fill="#c92d39" d="M101-251c68 0 85 55 85 127S166 4 100 4C33 4 14-52 14-124c0-73 17-127 87-127zm-1 229c47 0 54-49 54-102s-4-102-53-102c-51 0-55 48-55 102 0 53 5 102 54 102" id="N"/><path fill="#c92d39" d="M115-194c55 1 70 41 70 98S169 2 115 4C84 4 66-9 55-30l1 105H24l-1-265h31l2 30c10-21 28-34 59-34zm-8 174c40 0 45-34 45-75s-6-73-45-74c-42 0-51 32-51 76 0 43 10 73 51 73" id="O"/><path fill="#c92d39" d="M59-47c-2 24 18 29 38 22v24C64 9 27 4 27-40v-127H5v-23h24l9-43h21v43h35v23H59v120" id="P"/><path fill="#c92d39" d="M108 0H70L1-190h34L89-25l56-165h34" id="Q"/><g id="i"><use transform="matrix(0.06172839506172839,0,0,0.06172839506172839,0,0)" xlink:href="#J"/><use transform="matrix(0.06172839506172839,0,0,0.06172839506172839,12.345679012345679,0)" xlink:href="#K"/><use transform="matrix(0.06172839506172839,0,0,0.06172839506172839,24.691358024691358,0)" xlink:href="#L"/><use transform="matrix(0.06172839506172839,0,0,0.06172839506172839,37.654320987654316,0)" xlink:href="#M"/><use transform="matrix(0.06172839506172839,0,0,0.06172839506172839,49.99999999999999,0)" xlink:href="#N"/><use transform="matrix(0.06172839506172839,0,0,0.06172839506172839,62.34567901234567,0)" xlink:href="#O"/><use transform="matrix(0.06172839506172839,0,0,0.06172839506172839,74.69135802469135,0)" xlink:href="#P"/><use transform="matrix(0.06172839506172839,0,0,0.06172839506172839,80.86419753086419,0)" xlink:href="#Q"/></g><g id="j"><use transform="matrix(0.04938271604938272,0,0,0.04938271604938272,0,0)" xlink:href="#t"/><use transform="matrix(0.04938271604938272,0,0,0.04938271604938272,9.876543209876544,0)" xlink:href="#u"/><use transform="matrix(0.04938271604938272,0,0,0.04938271604938272,19.75308641975309,0)" xlink:href="#v"/><use transform="matrix(0.04938271604938272,0,0,0.04938271604938272,25.629629629629633,0)" xlink:href="#w"/><use transform="matrix(0.04938271604938272,0,0,0.04938271604938272,35.50617283950618,0)" xlink:href="#v"/><use transform="matrix(0.04938271604938272,0,0,0.04938271604938272,41.38271604938272,0)" xlink:href="#x"/><use transform="matrix(0.04938271604938272,0,0,0.04938271604938272,51.25925925925927,0)" xlink:href="#u"/></g><path fill="#333" d="M25-224v-37h50v37H25zM75 22c2 45-34 59-81 51V38c22 5 31-5 31-27v-201h50V22" id="R"/><path fill="#333" d="M182-182c0 78-84 86-111 141h115V0H12c-6-101 99-100 120-180 1-22-12-31-33-32-23 0-32 14-35 34l-49-3c5-45 32-70 84-70 51 0 83 22 83 69" id="S"/><path fill="#333" d="M249-155c45 1 62 31 62 79-1 48-18 79-63 79s-61-32-62-79c0-48 16-79 63-79zM97 0H61l162-248h36zM9-172c0-48 16-79 63-78 46 0 62 31 62 78 0 48-18 79-63 79S9-124 9-172zM249-25c24 0 24-26 24-51 0-26-1-52-24-52-24 0-25 26-25 52 0 25 0 51 25 51zM71-120c23 0 24-25 24-52 0-26 0-51-23-51-25 0-25 25-25 51 0 27 1 52 24 52" id="T"/><g id="k"><use transform="matrix(0.04938271604938272,0,0,0.04938271604938272,0,0)" xlink:href="#R"/><use transform="matrix(0.04938271604938272,0,0,0.04938271604938272,4.938271604938272,0)" xlink:href="#C"/><use transform="matrix(0.04938271604938272,0,0,0.04938271604938272,15.308641975308642,0)" xlink:href="#S"/><use transform="matrix(0.04938271604938272,0,0,0.04938271604938272,25.18518518518519,0)" xlink:href="#w"/><use transform="matrix(0.04938271604938272,0,0,0.04938271604938272,35.061728395061735,0)" xlink:href="#T"/></g><path fill="#333" d="M135-194c87-1 58 113 63 194h-50c-7-57 23-157-34-157-59 0-34 97-39 157H25l-1-190h47c2 12-1 28 3 38 12-26 28-41 61-42" id="U"/><path fill="#333" d="M133-34C117-15 103 5 69 4 32 3 11-16 11-54c-1-60 55-63 116-61 1-26-3-47-28-47-18 1-26 9-28 27l-52-2c7-38 36-58 82-57s74 22 75 68l1 82c-1 14 12 18 25 15v27c-30 8-71 5-69-32zm-48 3c29 0 43-24 42-57-32 0-66-3-65 30 0 17 8 27 23 27" id="V"/><path fill="#333" d="M115-3C79 11 28 4 28-45v-112H4v-33h27l15-45h31v45h36v33H77v99c-1 23 16 31 38 25v30" id="W"/><path fill="#333" d="M128 0H69L1-190h53L99-40l48-150h52" id="X"/><g id="l"><use transform="matrix(0.04938271604938272,0,0,0.04938271604938272,0,0)" xlink:href="#U"/><use transform="matrix(0.04938271604938272,0,0,0.04938271604938272,10.814814814814815,0)" xlink:href="#V"/><use transform="matrix(0.04938271604938272,0,0,0.04938271604938272,20.69135802469136,0)" xlink:href="#W"/><use transform="matrix(0.04938271604938272,0,0,0.04938271604938272,26.567901234567902,0)" xlink:href="#X"/></g><g id="m"><use transform="matrix(0.04938271604938272,0,0,0.04938271604938272,0,0)" xlink:href="#U"/><use transform="matrix(0.04938271604938272,0,0,0.04938271604938272,10.814814814814815,0)" xlink:href="#t"/><use transform="matrix(0.04938271604938272,0,0,0.04938271604938272,20.69135802469136,0)" xlink:href="#C"/></g><g id="n"><use transform="matrix(0.04938271604938272,0,0,0.04938271604938272,0,0)" xlink:href="#S"/><use transform="matrix(0.04938271604938272,0,0,0.04938271604938272,9.876543209876544,0)" xlink:href="#y"/><use transform="matrix(0.04938271604938272,0,0,0.04938271604938272,19.75308641975309,0)" xlink:href="#T"/></g><path fill="#333" d="M135-194c53 0 70 44 70 98 0 56-19 98-73 100-31 1-45-17-59-34 3 33 2 69 2 105H25l-1-265h48c2 10 0 23 3 31 11-24 29-35 60-35zM114-30c33 0 39-31 40-66 0-38-9-64-40-64-56 0-55 130 0 130" id="Y"/><g id="o"><use transform="matrix(0.04938271604938272,0,0,0.04938271604938272,0,0)" xlink:href="#Y"/><use transform="matrix(0.04938271604938272,0,0,0.04938271604938272,10.814814814814815,0)" xlink:href="#W"/><use transform="matrix(0.04938271604938272,0,0,0.04938271604938272,16.691358024691358,0)" xlink:href="#X"/></g><path fill="#333" d="M24-248c93 1 206-16 204 79-1 75-69 88-152 82V0H24v-248zm52 121c47 0 100 7 100-41 0-47-54-39-100-39v80" id="Z"/><path fill="#333" d="M138-131c27 9 52 24 51 61 0 53-36 74-89 74S11-19 11-69c0-35 22-54 51-61-78-25-46-121 38-121 51 0 83 19 83 66 0 30-18 49-45 54zm-38-16c24 0 32-13 32-36 1-23-11-34-32-34-22 0-33 12-32 34 0 22 9 36 32 36zm1 116c27 0 37-17 37-43 0-25-13-39-39-39-24 0-37 15-37 40 0 27 11 42 39 42" id="aa"/><g id="p"><use transform="matrix(0.04938271604938272,0,0,0.04938271604938272,0,0)" xlink:href="#Z"/><use transform="matrix(0.04938271604938272,0,0,0.04938271604938272,11.851851851851853,0)" xlink:href="#A"/><use transform="matrix(0.04938271604938272,0,0,0.04938271604938272,21.7283950617284,0)" xlink:href="#C"/><use transform="matrix(0.04938271604938272,0,0,0.04938271604938272,32.09876543209877,0)" xlink:href="#D"/><use transform="matrix(0.04938271604938272,0,0,0.04938271604938272,41.97530864197532,0)" xlink:href="#aa"/><use transform="matrix(0.04938271604938272,0,0,0.04938271604938272,51.851851851851855,0)" xlink:href="#I"/><use transform="matrix(0.04938271604938272,0,0,0.04938271604938272,56.79012345679014,0)" xlink:href="#y"/><use transform="matrix(0.04938271604938272,0,0,0.04938271604938272,66.66666666666669,0)" xlink:href="#y"/><use transform="matrix(0.04938271604938272,0,0,0.04938271604938272,76.54320987654323,0)" xlink:href="#y"/></g><g id="q"><use transform="matrix(0.04938271604938272,0,0,0.04938271604938272,0,0)" xlink:href="#U"/><use transform="matrix(0.04938271604938272,0,0,0.04938271604938272,10.814814814814815,0)" xlink:href="#A"/><use transform="matrix(0.04938271604938272,0,0,0.04938271604938272,20.69135802469136,0)" xlink:href="#C"/></g><g id="r"><use transform="matrix(0.04938271604938272,0,0,0.04938271604938272,0,0)" xlink:href="#t"/><use transform="matrix(0.04938271604938272,0,0,0.04938271604938272,8.88888888888889,0)" xlink:href="#t"/><use transform="matrix(0.04938271604938272,0,0,0.04938271604938272,18.765432098765434,0)" xlink:href="#T"/></g><path fill="#a3d977" d="M117-194c89-4 53 116 60 194h-32v-121c0-31-8-49-39-48C34-167 62-67 57 0H25l-1-190h30c1 10-1 24 2 32 11-22 29-35 61-36" id="ab"/><path fill="#a3d977" d="M101-251c82-7 93 87 43 132L82-64C71-53 59-42 53-27h129V0H18c2-99 128-94 128-182 0-28-16-43-45-43s-46 15-49 41l-32-3c6-41 34-60 81-64" id="ac"/><path fill="#a3d977" d="M18-150v-26h174v26H18zm0 90v-26h174v26H18" id="ad"/><path fill="#a3d977" d="M115-194c55 1 70 41 70 98S169 2 115 4C84 4 66-9 55-30l1 105H24l-1-265h31l2 30c10-21 28-34 59-34zm-8 174c40 0 45-34 45-75s-6-73-45-74c-42 0-51 32-51 76 0 43 10 73 51 73" id="ae"/><path fill="#a3d977" d="M59-47c-2 24 18 29 38 22v24C64 9 27 4 27-40v-127H5v-23h24l9-43h21v43h35v23H59v120" id="af"/><path fill="#a3d977" d="M108 0H70L1-190h34L89-25l56-165h34" id="ag"/><g id="s"><use transform="matrix(0.06172839506172839,0,0,0.06172839506172839,0,0)" xlink:href="#ab"/><use transform="matrix(0.06172839506172839,0,0,0.06172839506172839,12.345679012345679,0)" xlink:href="#ac"/><use transform="matrix(0.06172839506172839,0,0,0.06172839506172839,24.691358024691358,0)" xlink:href="#ad"/><use transform="matrix(0.06172839506172839,0,0,0.06172839506172839,37.654320987654316,0)" xlink:href="#ac"/><use transform="matrix(0.06172839506172839,0,0,0.06172839506172839,49.99999999999999,0)" xlink:href="#ae"/><use transform="matrix(0.06172839506172839,0,0,0.06172839506172839,62.34567901234567,0)" xlink:href="#af"/><use transform="matrix(0.06172839506172839,0,0,0.06172839506172839,68.5185185185185,0)" xlink:href="#ag"/></g></defs></g></svg>