<svg xmlns="http://www.w3.org/2000/svg" xmlns:xlink="http://www.w3.org/1999/xlink" xmlns:lucid="lucid" width="1340" height="520"><g transform="translate(-40 -80)" lucid:page-tab-id="bPOF2-9T8~4g"><path d="M0 0h1870.4v1323.2H0z" fill="#fff"/><path d="M602.5 300H800" stroke="#5e5e5e" stroke-width="2" fill="none"/><path d="M602.53 301h-1.14l.1-.93-.03-1.07h1.06z" fill="#5e5e5e"/><path d="M815.26 300L801 304.64v-9.28z" stroke="#5e5e5e" stroke-width="2" fill="#5e5e5e"/><path d="M600 300c0 11.05-8.95 20-20 20s-20-8.95-20-20 8.95-20 20-20 20 8.95 20 20z" stroke="#5e5e5e" stroke-width="3" fill="#fff"/><use xlink:href="#a" transform="matrix(1,0,0,1,565,285) translate(8.83216049382716 19.65277777777778)"/><path d="M860 300c0 11.05-8.95 20-20 20s-20-8.95-20-20 8.95-20 20-20 20 8.95 20 20z" stroke="#5e5e5e" stroke-width="3" fill="#fff"/><use xlink:href="#b" transform="matrix(1,0,0,1,825,285) translate(8.83216049382716 19.65277777777778)"/><path d="M848.22 279.32L964.86 172.5" stroke="#5e5e5e" stroke-width="2" fill="none"/><path d="M848.9 280.04l-.38.37-2.07-.8 1.1-1.03z" fill="#5e5e5e"/><path d="M976.1 162.2l-7.38 13.04-6.26-6.84z" stroke="#5e5e5e" stroke-width="2" fill="#5e5e5e"/><path d="M1020 160c0 11.05-8.95 20-20 20s-20-8.95-20-20 8.95-20 20-20 20 8.95 20 20z" stroke="#5e5e5e" stroke-width="3" fill="#fff"/><use xlink:href="#c" transform="matrix(1,0,0,1,985,145) translate(8.83216049382716 19.65277777777778)"/><path d="M1022.5 160H1260" stroke="#5e5e5e" stroke-width="2" fill="none"/><path d="M1022.53 161h-1.14l.1-.93-.03-1.07h1.06z" fill="#5e5e5e"/><path d="M1275.26 160l-14.26 4.64v-9.28z" stroke="#5e5e5e" stroke-width="2" fill="#5e5e5e"/><path d="M1320 160c0 11.05-8.95 20-20 20s-20-8.95-20-20 8.95-20 20-20 20 8.95 20 20z" stroke="#5e5e5e" stroke-width="3" fill="#fff"/><use xlink:href="#d" transform="matrix(1,0,0,1,1285,145.00000000000003) translate(8.83216049382716 19.65277777777778)"/><path d="M840.66 322.25L986.2 486.17" stroke="#5e5e5e" stroke-width="2" fill="none"/><path d="M839.93 321.5l1.37-.04.13.14-1.5 1.33-1.42-1.6z" fill="#5e5e5e"/><path d="M996.35 497.58l-12.94-7.6 6.94-6.14z" stroke="#5e5e5e" stroke-width="2" fill="#5e5e5e"/><path d="M1040 500c0 11.05-8.95 20-20 20s-20-8.95-20-20 8.95-20 20-20 20 8.95 20 20z" stroke="#5e5e5e" stroke-width="3" fill="#fff"/><use xlink:href="#e" transform="matrix(1,0,0,1,1005,485) translate(8.83216049382716 19.65277777777778)"/><path d="M402.2 499.3l163.43-164.82" stroke="#5e5e5e" stroke-width="2" fill="none"/><path d="M402.93 499.98l-1.62 1.63.2-1.53-.05-1.44.06-.06z" fill="#5e5e5e"/><path d="M576.38 323.64l-6.76 13.4-6.58-6.53z" stroke="#5e5e5e" stroke-width="2" fill="#5e5e5e"/><path d="M400 500c0 11.05-8.95 20-20 20s-20-8.95-20-20 8.95-20 20-20 20 8.95 20 20z" stroke="#5e5e5e" stroke-width="3" fill="#fff"/><use xlink:href="#f" transform="matrix(1,0,0,1,365,485) translate(8.83216049382716 19.65277777777778)"/><path d="M422.3 160.6l142.88 106.82" stroke="#5e5e5e" stroke-width="2" fill="none"/><path d="M422.92 159.8l-1.2 1.62-.35-.27.13-1.08-.04-1.35z" fill="#5e5e5e"/><path d="M577.4 276.56l-14.2-4.83 5.56-7.42z" stroke="#5e5e5e" stroke-width="2" fill="#5e5e5e"/><path d="M420 160c0 11.05-8.95 20-20 20s-20-8.95-20-20 8.95-20 20-20 20 8.95 20 20z" stroke="#5e5e5e" stroke-width="3" fill="#fff"/><use xlink:href="#g" transform="matrix(1,0,0,1,385,145) translate(8.83216049382716 19.65277777777778)"/><path d="M122.5 160h255" stroke="#5e5e5e" stroke-width="2" fill="none"/><path d="M122.53 161h-1.14l.1-.93-.03-1.07h1.06zM378.5 159.93l.03 1.07h-1.06v-2h1.14z" fill="#5e5e5e"/><path d="M120 160c0 11.05-8.95 20-20 20s-20-8.95-20-20 8.95-20 20-20 20 8.95 20 20z" stroke="#5e5e5e" stroke-width="3" fill="#fff"/><use xlink:href="#h" transform="matrix(1,0,0,1,85,145) translate(8.83216049382716 19.65277777777778)"/><path d="M140 106c0-3.3 2.7-6 6-6h228c3.3 0 6 2.7 6 6v48c0 3.3-2.7 6-6 6H146c-3.3 0-6-2.7-6-6z" stroke="#000" stroke-opacity="0" stroke-width="3" fill="#fff" fill-opacity="0"/><use xlink:href="#i" transform="matrix(1,0,0,1,145,105) translate(64.71600000000001 31.75333333333333)"/><path d="M60 206c0-3.3 2.7-6 6-6h68c3.3 0 6 2.7 6 6v48c0 3.3-2.7 6-6 6H66c-3.3 0-6-2.7-6-6z" stroke="#000" stroke-opacity="0" stroke-width="3" fill="#fff" fill-opacity="0"/><use xlink:href="#j" transform="matrix(1,0,0,1,65,205) translate(24.78666666666667 28.544444444444444)"/><path d="M370 206c0-3.3 2.7-6 6-6h48c3.3 0 6 2.7 6 6v48c0 3.3-2.7 6-6 6h-48c-3.3 0-6-2.7-6-6z" stroke="#000" stroke-opacity="0" stroke-width="3" fill="#fff" fill-opacity="0"/><use xlink:href="#k" transform="matrix(1,0,0,1,375,205) translate(11.578222222222227 30.232777777777773)"/><path d="M490 146c0-3.3 2.7-6 6-6h168c3.3 0 6 2.7 6 6v48c0 3.3-2.7 6-6 6H496c-3.3 0-6-2.7-6-6z" stroke="#000" stroke-opacity="0" stroke-width="3" fill="#fff" fill-opacity="0"/><use xlink:href="#l" transform="matrix(1,0,0,1,495,145.00000000000003) translate(28.836000000000013 31.753333333333327)"/><path d="M580 326c0-3.3 2.7-6 6-6h58c3.3 0 6 2.7 6 6v28c0 3.3-2.7 6-6 6h-58c-3.3 0-6-2.7-6-6z" stroke="#000" stroke-opacity="0" stroke-width="3" fill="#fff" fill-opacity="0"/><use xlink:href="#m" transform="matrix(1,0,0,1,585,325) translate(23.01222222222222 19.794444444444444)"/><path d="M440 426c0-3.3 2.7-6 6-6h158c3.3 0 6 2.7 6 6v48c0 3.3-2.7 6-6 6H446c-3.3 0-6-2.7-6-6z" stroke="#000" stroke-opacity="0" stroke-width="3" fill="#fff" fill-opacity="0"/><use xlink:href="#n" transform="matrix(1,0,0,1,445,425) translate(44.65888888888889 28.544444444444444)"/><path d="M260 526c0-3.3 2.7-6 6-6h228c3.3 0 6 2.7 6 6v48c0 3.3-2.7 6-6 6H266c-3.3 0-6-2.7-6-6z" stroke="#000" stroke-opacity="0" stroke-width="3" fill="#fff" fill-opacity="0"/><use xlink:href="#o" transform="matrix(1,0,0,1,265,525) translate(108.12333333333333 28.544444444444444)"/><path d="M600 246c0-3.3 2.7-6 6-6h188c3.3 0 6 2.7 6 6v48c0 3.3-2.7 6-6 6H606c-3.3 0-6-2.7-6-6z" stroke="#000" stroke-opacity="0" stroke-width="3" fill="#fff" fill-opacity="0"/><use xlink:href="#p" transform="matrix(1,0,0,1,605,245) translate(17.88666666666667 28.544444444444444)"/><path d="M780 326c0-3.3 2.7-6 6-6h48c3.3 0 6 2.7 6 6v48c0 3.3-2.7 6-6 6h-48c-3.3 0-6-2.7-6-6z" stroke="#000" stroke-opacity="0" stroke-width="3" fill="#fff" fill-opacity="0"/><use xlink:href="#q" transform="matrix(1,0,0,1,785,325) translate(18.01222222222222 28.544444444444444)"/><path d="M760 426c0-3.3 2.7-6 6-6h148c3.3 0 6 2.7 6 6v48c0 3.3-2.7 6-6 6H766c-3.3 0-6-2.7-6-6z" stroke="#000" stroke-opacity="0" stroke-width="3" fill="#fff" fill-opacity="0"/><use xlink:href="#r" transform="matrix(1,0,0,1,765,425) translate(43.13666666666667 28.544444444444444)"/><path d="M760 146c0-3.3 2.7-6 6-6h148c3.3 0 6 2.7 6 6v48c0 3.3-2.7 6-6 6H766c-3.3 0-6-2.7-6-6z" stroke="#000" stroke-opacity="0" stroke-width="3" fill="#fff" fill-opacity="0"/><use xlink:href="#s" transform="matrix(1,0,0,1,765,145) translate(29.65555555555556 28.544444444444444)"/><path d="M1050 106c0-3.3 2.7-6 6-6h188c3.3 0 6 2.7 6 6v48c0 3.3-2.7 6-6 6h-188c-3.3 0-6-2.7-6-6z" stroke="#000" stroke-opacity="0" stroke-width="3" fill="#fff" fill-opacity="0"/><use xlink:href="#t" transform="matrix(1,0,0,1,1055,105) translate(48.756 31.75333333333333)"/><path d="M1178.33 100H1147" stroke="#5e5e5e" stroke-width="2" fill="none"/><path d="M1182.33 100h-4.02v-1h4.03zM1147.03 100H1143v-1h4.03z" fill="#5e5e5e"/><path d="M1260 186c0-3.3 2.7-6 6-6h88c3.3 0 6 2.7 6 6v48c0 3.3-2.7 6-6 6h-88c-3.3 0-6-2.7-6-6z" stroke="#000" stroke-opacity="0" stroke-width="3" fill="#fff" fill-opacity="0"/><use xlink:href="#u" transform="matrix(1,0,0,1,1265,185) translate(32.744 31.75333333333333)"/><path d="M980 186c0-3.3 2.7-6 6-6h48c3.3 0 6 2.7 6 6v48c0 3.3-2.7 6-6 6h-48c-3.3 0-6-2.7-6-6z" stroke="#000" stroke-opacity="0" stroke-width="3" fill="#fff" fill-opacity="0"/><use xlink:href="#v" transform="matrix(1,0,0,1,985,185) translate(14.675555555555556 28.544444444444444)"/><path d="M980 526c0-3.3 2.7-6 6-6h68c3.3 0 6 2.7 6 6v48c0 3.3-2.7 6-6 6h-68c-3.3 0-6-2.7-6-6z" stroke="#000" stroke-opacity="0" stroke-width="3" fill="#fff" fill-opacity="0"/><use xlink:href="#w" transform="matrix(1,0,0,1,985,525) translate(28.123333333333335 28.544444444444444)"/><path d="M700 101v398M700 101.03V100" stroke="#5e5e5e" stroke-width="2" fill="none"/><path d="M701 500h-2v-1.03h2z" fill="#5e5e5e"/><path d="M580 506c0-3.3 2.7-6 6-6h228c3.3 0 6 2.7 6 6v48c0 3.3-2.7 6-6 6H586c-3.3 0-6-2.7-6-6z" stroke="#000" stroke-opacity="0" stroke-width="3" fill="#fff" fill-opacity="0"/><use xlink:href="#x" transform="matrix(1,0,0,1,585,505) translate(80.86666666666667 28.544444444444444)"/><defs><path fill="#c92d39" d="M101-251c82-7 93 87 43 132L82-64C71-53 59-42 53-27h129V0H18c2-99 128-94 128-182 0-28-16-43-45-43s-46 15-49 41l-32-3c6-41 34-60 81-64" id="y"/><use transform="matrix(0.06172839506172839,0,0,0.06172839506172839,0,0)" xlink:href="#y" id="a"/><path fill="#c92d39" d="M126-127c33 6 58 20 58 59 0 88-139 92-164 29-3-8-5-16-6-25l32-3c6 27 21 44 54 44 32 0 52-15 52-46 0-38-36-46-79-43v-28c39 1 72-4 72-42 0-27-17-43-46-43-28 0-47 15-49 41l-32-3c6-42 35-63 81-64 48-1 79 21 79 65 0 36-21 52-52 59" id="z"/><use transform="matrix(0.06172839506172839,0,0,0.06172839506172839,0,0)" xlink:href="#z" id="b"/><path fill="#c92d39" d="M64 0c3-98 48-159 88-221H18v-27h164v26C143-157 98-101 97 0H64" id="A"/><use transform="matrix(0.06172839506172839,0,0,0.06172839506172839,0,0)" xlink:href="#A" id="c"/><path fill="#c92d39" d="M134-131c28 9 52 24 51 62-1 50-34 73-85 73S17-19 16-69c0-36 21-54 49-61-75-25-45-126 34-121 46 3 78 18 79 63 0 33-17 51-44 57zm-34-11c31 1 46-15 46-44 0-28-17-43-47-42-29 0-46 13-45 42 1 28 16 44 46 44zm1 122c35 0 51-18 51-52 0-30-18-46-53-46-33 0-51 17-51 47 0 34 19 51 53 51" id="B"/><use transform="matrix(0.06172839506172839,0,0,0.06172839506172839,0,0)" xlink:href="#B" id="d"/><path fill="#c92d39" d="M155-56V0h-30v-56H8v-25l114-167h33v167h35v25h-35zm-30-156c-27 46-58 90-88 131h88v-131" id="C"/><use transform="matrix(0.06172839506172839,0,0,0.06172839506172839,0,0)" xlink:href="#C" id="e"/><path fill="#c92d39" d="M27 0v-27h64v-190l-56 39v-29l58-41h29v221h61V0H27" id="D"/><use transform="matrix(0.06172839506172839,0,0,0.06172839506172839,0,0)" xlink:href="#D" id="f"/><path fill="#c92d39" d="M110-160c48 1 74 30 74 79 0 53-28 85-80 85-65 0-83-55-86-122-5-90 50-162 133-122 14 7 22 21 27 39l-31 6c-5-40-67-38-82-6-9 19-15 44-15 74 11-20 30-34 60-33zm-7 138c34 0 49-23 49-58s-16-56-50-56c-29 0-50 16-49 49 1 36 15 65 50 65" id="E"/><use transform="matrix(0.06172839506172839,0,0,0.06172839506172839,0,0)" xlink:href="#E" id="g"/><path fill="#c92d39" d="M54-142c48-35 137-8 131 61C196 18 31 33 14-55l32-4c7 23 22 37 52 37 35-1 51-22 54-58 4-55-73-65-99-34H22l8-134h141v27H59" id="F"/><use transform="matrix(0.06172839506172839,0,0,0.06172839506172839,0,0)" xlink:href="#F" id="h"/><path fill="#333" d="M208-552c-17 0-27-12-27-33 0-43 24-82 50-82 16 0 28 15 27 36-2 46-23 79-50 79zm-375 752c21-82 78 14 123 14 43 0 72-53 98-182 26-131 54-259 78-392 0-5-4-10-8-10-11 0-22 9-67 55l-12-11c52-62 115-113 140-113 14 0 22 11 22 30 0 130-50 251-73 376-19 96-59 175-115 232-32 33-71 49-116 49-42 0-70-19-70-48" id="G"/><path fill="#333" d="M14-97c0-149 180-355 370-339-23 121-72 249-72 371 0 10 4 16 10 16 9 0 31-20 61-56v26c-59 67-89 92-112 92-17 0-29-20-29-49 0-19 5-56 15-101C156-32 102 13 75 13 43 13 14-40 14-97zm293-286C154-380 80-261 80-120c0 43 15 79 34 79 18 0 59-35 150-128" id="H"/><path fill="#333" d="M303-90c-9 58 10 73 76 73l-3 17H120l4-17c65 0 87 5 101-64l102-504c-64 51-136 94-185 110l6-29c95-40 183-107 236-179h40" id="I"/><path fill="#333" d="M69-398v-33h440v33H69zm0 147v-33h440v33H69" id="J"/><path fill="#333" d="M-45 239h-40l407-947h40" id="K"/><path fill="#333" d="M72 12c-35-1-26-9-21-36 21-111 45-221 67-332 0-5-3-8-7-8-7 0-20 13-55 54l-11-13c54-67 110-115 134-115 16 0 19 21 15 39l-42 205c82-131 196-244 247-244 17 0 29 19 29 47 0 46-25 138-33 188 48-73 89-124 140-170 41-38 81-63 100-63 33 1 34 50 26 87-22 99-42 199-60 298 0 3 2 5 5 5 11 0 28-17 72-70l14 10C638-36 582 12 554 12c-27 0-26-35-21-59 22-110 47-220 66-331 0-5-3-8-7-8-70 26-209 209-215 270-4 35-18 95-27 123-4 5-5 5-31 5-44 0-32-6-28-30 20-121 51-236 71-359 0-6-4-10-9-10-35 0-219 200-223 302l-14 68c-6 29-6 29-44 29" id="L"/><g id="i"><use transform="matrix(0.026666666666666665,0,0,0.026666666666666665,0,0)" xlink:href="#G"/><use transform="matrix(0.018666666666666665,0,0,0.018666666666666665,6.666666666666666,3.369333333333333)" xlink:href="#H"/><use transform="matrix(0.018666666666666665,0,0,0.018666666666666665,14.674666666666665,3.369333333333333)" xlink:href="#I"/><use transform="matrix(0.026666666666666665,0,0,0.026666666666666665,24.511999999999997,0)" xlink:href="#J"/><use transform="matrix(0.026666666666666665,0,0,0.026666666666666665,38.56533333333333,0)" xlink:href="#G"/><use transform="matrix(0.018666666666666665,0,0,0.018666666666666665,45.23199999999999,3.369333333333333)" xlink:href="#H"/><use transform="matrix(0.018666666666666665,0,0,0.018666666666666665,53.239999999999995,3.369333333333333)" xlink:href="#I"/><use transform="matrix(0.026666666666666665,0,0,0.026666666666666665,63.07733333333333,0)" xlink:href="#K"/><use transform="matrix(0.026666666666666665,0,0,0.026666666666666665,71.42399999999999,0)" xlink:href="#L"/><use transform="matrix(0.018666666666666665,0,0,0.018666666666666665,90.73066666666665,3.369333333333333)" xlink:href="#I"/></g><g id="j"><use transform="matrix(0.022222222222222223,0,0,0.022222222222222223,0,0)" xlink:href="#G"/><use transform="matrix(0.015555555555555555,0,0,0.015555555555555555,5.555555555555555,2.8077777777777775)" xlink:href="#H"/><use transform="matrix(0.015555555555555555,0,0,0.015555555555555555,12.22888888888889,2.8077777777777775)" xlink:href="#I"/></g><path fill="#333" d="M199-552c-17 0-27-12-27-33 0-42 24-82 50-82 17 0 28 15 27 36-2 46-23 79-50 79zm-73 185c-12-23-24 10-66 46l-11-14c63-70 105-103 129-103 26 0 22 37 17 61-21 108-63 211-63 322 0 7 4 12 9 12 9 0 37-27 68-66l13 12C182-42 115 13 90 13c-33 1-31-47-24-79 21-100 41-200 60-301" id="M"/><g id="k"><use transform="matrix(0.028888888888888884,0,0,0.028888888888888884,0,0)" xlink:href="#M"/><use transform="matrix(0.020222222222222218,0,0,0.020222222222222218,7.51111111111111,3.6501111111111104)" xlink:href="#H"/><use transform="matrix(0.020222222222222218,0,0,0.020222222222222218,16.18644444444444,3.6501111111111104)" xlink:href="#I"/></g><path fill="#333" d="M50-179l14-67h242l-14 67H50" id="N"/><g id="l"><use transform="matrix(0.02666666666666666,0,0,0.02666666666666666,0,0)" xlink:href="#M"/><use transform="matrix(0.01866666666666666,0,0,0.01866666666666666,6.933333333333332,3.369333333333332)" xlink:href="#I"/><use transform="matrix(0.02666666666666666,0,0,0.02666666666666666,16.770666666666664,0)" xlink:href="#J"/><use transform="matrix(0.02666666666666666,0,0,0.02666666666666666,30.823999999999998,0)" xlink:href="#M"/><use transform="matrix(0.01866666666666666,0,0,0.01866666666666666,37.75733333333333,3.369333333333332)" xlink:href="#H"/><use transform="matrix(0.01866666666666666,0,0,0.01866666666666666,45.765333333333324,3.369333333333332)" xlink:href="#I"/><use transform="matrix(0.02666666666666666,0,0,0.02666666666666666,55.60266666666665,0)" xlink:href="#K"/><use transform="matrix(0.02666666666666666,0,0,0.02666666666666666,63.94933333333332,0)" xlink:href="#I"/><use transform="matrix(0.02666666666666666,0,0,0.02666666666666666,78.00266666666664,0)" xlink:href="#N"/><use transform="matrix(0.02666666666666666,0,0,0.02666666666666666,87.54933333333331,0)" xlink:href="#M"/><use transform="matrix(0.01866666666666666,0,0,0.01866666666666666,94.48266666666666,3.369333333333332)" xlink:href="#H"/><use transform="matrix(0.01866666666666666,0,0,0.01866666666666666,102.49066666666664,3.369333333333332)" xlink:href="#I"/></g><g id="m"><use transform="matrix(0.022222222222222223,0,0,0.022222222222222223,0,0)" xlink:href="#M"/><use transform="matrix(0.015555555555555555,0,0,0.015555555555555555,5.777777777777778,2.8077777777777775)" xlink:href="#I"/></g><g id="n"><use transform="matrix(0.022222222222222223,0,0,0.022222222222222223,0,0)" xlink:href="#M"/><use transform="matrix(0.015555555555555555,0,0,0.015555555555555555,5.777777777777778,2.8077777777777775)" xlink:href="#I"/><use transform="matrix(0.022222222222222223,0,0,0.022222222222222223,13.975555555555555,0)" xlink:href="#J"/><use transform="matrix(0.022222222222222223,0,0,0.022222222222222223,25.68666666666667,0)" xlink:href="#G"/><use transform="matrix(0.015555555555555555,0,0,0.015555555555555555,31.242222222222225,2.8077777777777775)" xlink:href="#I"/><use transform="matrix(0.022222222222222223,0,0,0.022222222222222223,39.44,0)" xlink:href="#K"/><use transform="matrix(0.022222222222222223,0,0,0.022222222222222223,46.39555555555555,0)" xlink:href="#L"/><use transform="matrix(0.015555555555555555,0,0,0.015555555555555555,62.48444444444444,2.8077777777777775)" xlink:href="#I"/></g><g id="o"><use transform="matrix(0.022222222222222223,0,0,0.022222222222222223,0,0)" xlink:href="#G"/><use transform="matrix(0.015555555555555555,0,0,0.015555555555555555,5.555555555555555,2.8077777777777775)" xlink:href="#I"/></g><path fill="#333" d="M172-310c-60 182-55 375 15 552l-17 8C100 85 75-12 75-125c0-161 61-308 194-473 41-51 75-88 114-124l9 16C279-576 230-488 172-310" id="O"/><path fill="#333" d="M273-131v-194H69v-33h204v-194h33v194h203v33H306v194h-33" id="P"/><path fill="#333" d="M-60 234C54 104 100 15 161-161c28-83 40-169 40-263 0-103-10-155-56-290l17-8c72 168 96 262 96 375 0 160-61 308-195 473-40 50-74 86-114 124" id="Q"/><path fill="#333" d="M8 0v-16c101-97 263-260 324-341 48-64 76-129 76-181 0-60-44-100-109-100-74 0-133 47-164 133h-21c20-108 102-179 205-179s174 62 174 152c0 53-22 99-88 169-50 53-232 213-311 291h254c41 6 47-21 55-64h20L399 0H8" id="R"/><g id="p"><use transform="matrix(0.022222222222222223,0,0,0.022222222222222223,0,0)" xlink:href="#O"/><use transform="matrix(0.022222222222222223,0,0,0.022222222222222223,7.2,0)" xlink:href="#I"/><use transform="matrix(0.022222222222222223,0,0,0.022222222222222223,18.91111111111111,0)" xlink:href="#P"/><use transform="matrix(0.022222222222222223,0,0,0.022222222222222223,30.622222222222224,0)" xlink:href="#M"/><use transform="matrix(0.015555555555555555,0,0,0.015555555555555555,36.4,2.8077777777777775)" xlink:href="#I"/><use transform="matrix(0.022222222222222223,0,0,0.022222222222222223,44.59777777777778,0)" xlink:href="#Q"/><use transform="matrix(0.015555555555555555,0,0,0.015555555555555555,51.79777777777778,-5.615555555555555)" xlink:href="#L"/><use transform="matrix(0.015555555555555555,0,0,0.015555555555555555,63.06,-5.615555555555555)" xlink:href="#I"/><use transform="matrix(0.022222222222222223,0,0,0.022222222222222223,71.25777777777778,0)" xlink:href="#J"/><use transform="matrix(0.022222222222222223,0,0,0.022222222222222223,82.96888888888888,0)" xlink:href="#O"/><use transform="matrix(0.022222222222222223,0,0,0.022222222222222223,90.16888888888889,0)" xlink:href="#I"/><use transform="matrix(0.022222222222222223,0,0,0.022222222222222223,101.88,0)" xlink:href="#P"/><use transform="matrix(0.022222222222222223,0,0,0.022222222222222223,113.5911111111111,0)" xlink:href="#M"/><use transform="matrix(0.015555555555555555,0,0,0.015555555555555555,119.36888888888888,2.8077777777777775)" xlink:href="#R"/><use transform="matrix(0.022222222222222223,0,0,0.022222222222222223,127.56666666666665,0)" xlink:href="#Q"/><use transform="matrix(0.015555555555555555,0,0,0.015555555555555555,134.76666666666665,-5.615555555555555)" xlink:href="#L"/><use transform="matrix(0.015555555555555555,0,0,0.015555555555555555,146.02888888888887,-5.615555555555555)" xlink:href="#R"/></g><g id="q"><use transform="matrix(0.022222222222222223,0,0,0.022222222222222223,0,0)" xlink:href="#M"/><use transform="matrix(0.015555555555555555,0,0,0.015555555555555555,5.777777777777778,2.8077777777777775)" xlink:href="#R"/></g><g id="r"><use transform="matrix(0.022222222222222223,0,0,0.022222222222222223,0,0)" xlink:href="#G"/><use transform="matrix(0.015555555555555555,0,0,0.015555555555555555,5.555555555555555,2.8077777777777775)" xlink:href="#R"/><use transform="matrix(0.022222222222222223,0,0,0.022222222222222223,13.75333333333333,0)" xlink:href="#J"/><use transform="matrix(0.022222222222222223,0,0,0.022222222222222223,25.464444444444446,0)" xlink:href="#M"/><use transform="matrix(0.015555555555555555,0,0,0.015555555555555555,31.242222222222225,2.8077777777777775)" xlink:href="#R"/><use transform="matrix(0.022222222222222223,0,0,0.022222222222222223,39.44,0)" xlink:href="#L"/><use transform="matrix(0.015555555555555555,0,0,0.015555555555555555,55.528888888888886,2.8077777777777775)" xlink:href="#R"/></g><g id="s"><use transform="matrix(0.022222222222222223,0,0,0.022222222222222223,0,0)" xlink:href="#M"/><use transform="matrix(0.015555555555555555,0,0,0.015555555555555555,5.777777777777778,2.8077777777777775)" xlink:href="#H"/><use transform="matrix(0.015555555555555555,0,0,0.015555555555555555,12.45111111111111,2.8077777777777775)" xlink:href="#R"/><use transform="matrix(0.022222222222222223,0,0,0.022222222222222223,20.648888888888887,0)" xlink:href="#J"/><use transform="matrix(0.022222222222222223,0,0,0.022222222222222223,32.36,0)" xlink:href="#M"/><use transform="matrix(0.015555555555555555,0,0,0.015555555555555555,38.13777777777778,2.8077777777777775)" xlink:href="#R"/><use transform="matrix(0.022222222222222223,0,0,0.022222222222222223,46.33555555555556,0)" xlink:href="#K"/><use transform="matrix(0.022222222222222223,0,0,0.022222222222222223,53.291111111111114,0)" xlink:href="#I"/><use transform="matrix(0.022222222222222223,0,0,0.022222222222222223,65.00222222222223,0)" xlink:href="#P"/><use transform="matrix(0.022222222222222223,0,0,0.022222222222222223,76.71333333333334,0)" xlink:href="#M"/><use transform="matrix(0.015555555555555555,0,0,0.015555555555555555,82.49111111111111,2.8077777777777775)" xlink:href="#R"/></g><g id="t"><use transform="matrix(0.026666666666666665,0,0,0.026666666666666665,0,0)" xlink:href="#G"/><use transform="matrix(0.018666666666666665,0,0,0.018666666666666665,6.666666666666666,3.369333333333333)" xlink:href="#H"/><use transform="matrix(0.018666666666666665,0,0,0.018666666666666665,14.674666666666665,3.369333333333333)" xlink:href="#R"/><use transform="matrix(0.026666666666666665,0,0,0.026666666666666665,24.511999999999997,0)" xlink:href="#J"/><use transform="matrix(0.026666666666666665,0,0,0.026666666666666665,38.56533333333333,0)" xlink:href="#M"/><use transform="matrix(0.018666666666666665,0,0,0.018666666666666665,45.49866666666666,3.369333333333333)" xlink:href="#H"/><use transform="matrix(0.018666666666666665,0,0,0.018666666666666665,53.50666666666666,3.369333333333333)" xlink:href="#R"/><use transform="matrix(0.026666666666666665,0,0,0.026666666666666665,63.344,0)" xlink:href="#L"/><use transform="matrix(0.018666666666666665,0,0,0.018666666666666665,82.65066666666667,3.369333333333333)" xlink:href="#R"/></g><g id="u"><use transform="matrix(0.026666666666666665,0,0,0.026666666666666665,0,0)" xlink:href="#G"/><use transform="matrix(0.018666666666666665,0,0,0.018666666666666665,6.666666666666666,3.369333333333333)" xlink:href="#H"/><use transform="matrix(0.018666666666666665,0,0,0.018666666666666665,14.674666666666665,3.369333333333333)" xlink:href="#R"/></g><g id="v"><use transform="matrix(0.022222222222222223,0,0,0.022222222222222223,0,0)" xlink:href="#M"/><use transform="matrix(0.015555555555555555,0,0,0.015555555555555555,5.777777777777778,2.8077777777777775)" xlink:href="#H"/><use transform="matrix(0.015555555555555555,0,0,0.015555555555555555,12.45111111111111,2.8077777777777775)" xlink:href="#R"/></g><g id="w"><use transform="matrix(0.022222222222222223,0,0,0.022222222222222223,0,0)" xlink:href="#G"/><use transform="matrix(0.015555555555555555,0,0,0.015555555555555555,5.555555555555555,2.8077777777777775)" xlink:href="#R"/></g><path fill="#333" d="M-2 0c3-6-1-19 8-20 68-7 87-23 100-96 29-161 72-316 96-481 5-37-39-54-88-50l5-20h508l-30 146h-17c3-85-18-119-100-119H298l-58 289h189c51 0 79-20 104-77h19l-39 194h-19c-1-70-18-90-78-90H234c-15 82-38 164-48 248-5 43 40 60 96 56l-5 20H-2" id="S"/><path fill="#333" d="M184-407c-2 46-43 219-61 275 9 12 6 11 20-26 72-200 117-280 162-280 44 1 25 87-5 85-1 0-4-1-22-6-31 6-44 21-76 99-57 141-64 163-86 257-4 15-5 16-32 16-26 0-33-2-32-9 20-119 62-234 62-355 0-10-3-15-10-15-8 0-24 16-56 56l-12-12c63-78 104-116 125-116 11 0 23 15 23 31" id="T"/><path fill="#333" d="M276-438c60 0 98 85 98 157 0 98-42 177-128 239-45 32-97 55-125 55-50 0-96-81-96-168 0-81 43-161 118-220 48-38 101-63 133-63zM168-26c94 0 137-139 137-241 0-73-36-130-83-130-65 0-127 115-127 237 0 77 31 134 73 134" id="U"/><path fill="#333" d="M84 12c-39-1-40 0-37-18 22-116 47-231 70-346 0-5-2-7-5-7-9 1-27 19-60 64l-13-11c40-62 112-132 137-132 10 0 18 9 18 20 0 69-28 142-40 210 124-157 202-230 247-230 48-1 46 78 33 124-25 91-50 180-70 274 0 5 3 9 7 9 12 0 34-21 93-90l12 10C413-30 361 13 327 13c-29 0-33-47-25-78 27-98 52-194 73-296-4-44-35-28-59-5-49 48-126 137-169 196L113-7c-4 19-4 19-29 19" id="V"/><path fill="#333" d="M57-30c0-96 49-258 68-359H70l4-18c53-22 108-77 157-157h18c-20 37-44 103-50 137h84l-8 38h-84c-23 116-69 227-69 347 0 8 5 14 11 14 14 0 46-26 102-80l11 13C189-33 123 13 91 13 70 13 57-4 57-30" id="W"/><path fill="#333" d="M19-133c0-129 107-305 238-305 54 0 85 26 85 70 0 43-32 80-98 116-31 17-75 34-148 57-20 76-1 168 74 168 32 0 72-18 123-56l9 14c-61 49-132 82-177 82C65 13 19-51 19-133zm82-82c81-26 111-39 136-59 26-22 43-59 43-95 0-76-85-45-115-5-23 31-39 68-64 159" id="X"/><g id="x"><use transform="matrix(0.022222222222222223,0,0,0.022222222222222223,0,0)" xlink:href="#S"/><use transform="matrix(0.022222222222222223,0,0,0.022222222222222223,13.133333333333335,0)" xlink:href="#T"/><use transform="matrix(0.022222222222222223,0,0,0.022222222222222223,19.288888888888888,0)" xlink:href="#U"/><use transform="matrix(0.022222222222222223,0,0,0.022222222222222223,28,0)" xlink:href="#V"/><use transform="matrix(0.022222222222222223,0,0,0.022222222222222223,38.77777777777778,0)" xlink:href="#W"/><use transform="matrix(0.022222222222222223,0,0,0.022222222222222223,44.91111111111111,0)" xlink:href="#X"/><use transform="matrix(0.022222222222222223,0,0,0.022222222222222223,52.733333333333334,0)" xlink:href="#T"/><use transform="matrix(0.022222222222222223,0,0,0.022222222222222223,58.733333333333334,0)" xlink:href="#H"/></g></defs></g></svg>