<svg xmlns="http://www.w3.org/2000/svg" xmlns:xlink="http://www.w3.org/1999/xlink" xmlns:lucid="lucid" width="820" height="550.02"><g transform="translate(-160 -120)" lucid:page-tab-id="l2GG-Ku2fh43"><path d="M0 0h1870.4v1323.2H0z" fill="#fff"/><path d="M300 301c0 .37.3.67.67.67H861.5" stroke="#5e5e5e" stroke-width="2" fill="none"/><path d="M301 301.03h-2V300h2z" fill="#5e5e5e"/><path d="M876.76 301.67l-14.26 4.63v-9.27z" stroke="#5e5e5e" stroke-width="2" fill="#5e5e5e"/><path d="M300 301v80.5" stroke="#5e5e5e" stroke-width="2" fill="none"/><path d="M301 301.03h-2V300h2z" fill="#5e5e5e"/><path d="M300 396.76l-4.64-14.26h9.28z" stroke="#5e5e5e" stroke-width="2" fill="#5e5e5e"/><path d="M640 146c0-3.3 2.7-6 6-6h228c3.3 0 6 2.7 6 6v48c0 3.3-2.7 6-6 6H646c-3.3 0-6-2.7-6-6z" stroke="#000" stroke-opacity="0" stroke-width="3" fill="#fff" fill-opacity="0"/><use xlink:href="#a" transform="matrix(1,0,0,1,645,145) translate(47.191358024691354 30.27777777777778)"/><path d="M180 246c0-3.3 2.7-6 6-6h228c3.3 0 6 2.7 6 6v48c0 3.3-2.7 6-6 6H186c-3.3 0-6-2.7-6-6z" stroke="#000" stroke-opacity="0" stroke-width="3" fill="#fff" fill-opacity="0"/><use xlink:href="#b" transform="matrix(1,0,0,1,185,245) translate(108.82716049382717 30.27777777777778)"/><path d="M759.66 300.67V251c0-.1.07-.17.17-.17s.17-.07.17-.17V218.5M759.66 300.64v1.03" stroke="#5e5e5e" stroke-width="2" fill="none"/><path d="M760 203.24l4.64 14.26h-9.28z" stroke="#5e5e5e" stroke-width="2" fill="#5e5e5e"/><path d="M180 406c0-3.3 2.7-6 6-6h228c3.3 0 6 2.7 6 6v48c0 3.3-2.7 6-6 6H186c-3.3 0-6-2.7-6-6z" stroke="#000" stroke-opacity="0" stroke-width="3" fill="#fff" fill-opacity="0"/><use xlink:href="#c" transform="matrix(1,0,0,1,185,405) translate(92.34444444444443 28.544444444444444)"/><path d="M400 306c0-3.3 2.7-6 6-6h228c3.3 0 6 2.7 6 6v111.33c0 3.32-2.7 6-6 6H406c-3.3 0-6-2.68-6-6z" stroke="#000" stroke-opacity="0" stroke-width="3" fill="#fff" fill-opacity="0"/><use xlink:href="#d" transform="matrix(1,0,0,1,405,305) translate(115 30.294444444444444)"/><use xlink:href="#e" transform="matrix(1,0,0,1,405,305) translate(72.02222222222221 52.516666666666666)"/><use xlink:href="#f" transform="matrix(1,0,0,1,405,305) translate(127.75555555555555 52.516666666666666)"/><use xlink:href="#g" transform="matrix(1,0,0,1,405,305) translate(76.37777777777777 74.73888888888888)"/><use xlink:href="#h" transform="matrix(1,0,0,1,405,305) translate(106.13333333333333 74.73888888888888)"/><use xlink:href="#i" transform="matrix(1,0,0,1,405,305) translate(123.39999999999999 74.73888888888888)"/><use xlink:href="#j" transform="matrix(1,0,0,1,405,305) translate(115 96.96111111111111)"/><path d="M390 226c0-3.3 2.7-6 6-6h228c3.3 0 6 2.7 6 6v48c0 3.3-2.7 6-6 6H396c-3.3 0-6-2.7-6-6zM640 335.83c0-2.3 1.87-4.16 4.17-4.16h231.66c2.3 0 4.17 1.86 4.17 4.16s-1.87 4.17-4.17 4.17H644.17c-2.3 0-4.17-1.87-4.17-4.17z" stroke="#000" stroke-opacity="0" stroke-width="3" fill="#fff" fill-opacity="0"/><path d="M762.3 302.67l-.4 20.1m-.9 20.1l-1 15.9-2.53 24.17m-2.9 19.9l-.5 3.33-3.88 20.4-3.68 15.68m-5.3 19.4l-.04.18-4.96 15.3-5.2 13.95-3.5 8.37m-8.47 18.24l-4.6 8.8-5.8 10.07-5.93 9.33-4.35 6.25m-12.3 15.92l-1.82 2.2-6.4 7.13-6.54 6.68-6.7 6.3-6.85 5.9-.14.12m-16.1 12.04l-5.5 3.66-7.73 4.67-8 4.4-5.6 2.83-8.35 3.85m-18.6 7.65l-10.22 3.72-14.2 4.5-13.95 3.77m-19.63 4.35l-12.8 2.35-15.96 2.23-11.05 1.08m-20.06 1.32l-14.62.2-13.82-.4-11.76-.8m-19.95-2.5l-4-.62-9.95-1.97-9.05-2.2-8.2-2.35-7.45-2.48-.33-.12m-18.48-7.93l-4.66-2.5-4.6-2.7-4.2-2.7-3.85-2.7-3.5-2.72-3.24-2.7-2.97-2.7-2.72-2.72-2.3-2.5m-11.44-16.47l-.16-.3-1.4-2.87-1.27-2.9-1.15-2.97-1.03-3.04-.9-3.1-.8-3.2-.1-.5M762.3 302.7l.03-1.03" stroke="#0c7cba" stroke-width="2" fill="none"/><path d="M300.34 563.22l6.1 13.7-9.2.97z" stroke="#0c7cba" stroke-width="2" fill="#0c7cba"/><path d="M220 506c0-3.3 2.7-6 6-6h148c3.3 0 6 2.7 6 6v48c0 3.3-2.7 6-6 6H226c-3.3 0-6-2.7-6-6z" stroke="#000" stroke-opacity="0" stroke-width="3" fill="#fff" fill-opacity="0"/><use xlink:href="#k" transform="matrix(1,0,0,1,225,505) translate(68.44 31.75333333333333)"/><path d="M313.7 605.2l-9.25-18.4M313.68 605.17l.47.9M304.46 586.8l-.46-.9" stroke="#5e5e5e" stroke-width="2" fill="none"/><path d="M180 457.67c0-3.32 2.7-6 6-6h228c3.3 0 6 2.68 6 6v48c0 3.3-2.7 6-6 6H186c-3.3 0-6-2.7-6-6z" stroke="#000" stroke-opacity="0" stroke-width="3" fill="#fff" fill-opacity="0"/><g><use xlink:href="#l" transform="matrix(1,0,0,1,185,456.66666666666663) translate(91.25555555555556 28.544444444444444)"/><use xlink:href="#m" transform="matrix(1,0,0,1,185,456.66666666666663) translate(108.52222222222223 28.544444444444444)"/></g><path d="M880 277.67c0-3.32 2.7-6 6-6h68c3.3 0 6 2.68 6 6v48c0 3.3-2.7 6-6 6h-68c-3.3 0-6-2.7-6-6z" stroke="#000" stroke-opacity="0" stroke-width="3" fill="#fff" fill-opacity="0"/><g><use xlink:href="#n" transform="matrix(1,0,0,1,885,276.66666666662786) translate(19.888888888888886 28.544444444444444)"/></g><defs><path fill="#333" d="M63-220v92h138v28H63V0H30v-248h175v28H63" id="o"/><path fill="#333" d="M18-150v-26h174v26H18zm0 90v-26h174v26H18" id="p"/><path fill="#333" d="M194-70c0 46-34 64-81 66v29H91V-4C42-5 12-27 4-67l30-6c5 28 25 41 57 43v-87c-38-9-76-20-76-67 1-42 33-58 76-59v-23h22v23c45 0 67 20 76 56l-31 6c-5-23-18-35-45-37v78c41 10 81 20 81 70zm-81 41c51 7 71-66 19-77-6-2-12-4-19-6v83zM91-219c-47-6-63 57-18 69 6 2 12 3 18 5v-74" id="q"/><path fill="#333" d="M101-251c82-7 93 87 43 132L82-64C71-53 59-42 53-27h129V0H18c2-99 128-94 128-182 0-28-16-43-45-43s-46 15-49 41l-32-3c6-41 34-60 81-64" id="r"/><path fill="#333" d="M47-170H22l-4-78h33" id="s"/><path fill="#333" d="M101-251c68 0 85 55 85 127S166 4 100 4C33 4 14-52 14-124c0-73 17-127 87-127zm-1 229c47 0 54-49 54-102s-4-102-53-102c-51 0-55 48-55 102 0 53 5 102 54 102" id="t"/><path fill="#333" d="M33 0v-38h34V0H33" id="u"/><g id="a"><use transform="matrix(0.06172839506172839,0,0,0.06172839506172839,0,0)" xlink:href="#o"/><use transform="matrix(0.06172839506172839,0,0,0.06172839506172839,13.518518518518517,0)" xlink:href="#p"/><use transform="matrix(0.06172839506172839,0,0,0.06172839506172839,26.48148148148148,0)" xlink:href="#q"/><use transform="matrix(0.06172839506172839,0,0,0.06172839506172839,38.82716049382716,0)" xlink:href="#r"/><use transform="matrix(0.06172839506172839,0,0,0.06172839506172839,51.172839506172835,0)" xlink:href="#s"/><use transform="matrix(0.06172839506172839,0,0,0.06172839506172839,55.37037037037037,0)" xlink:href="#t"/><use transform="matrix(0.06172839506172839,0,0,0.06172839506172839,67.71604938271605,0)" xlink:href="#t"/><use transform="matrix(0.06172839506172839,0,0,0.06172839506172839,80.06172839506173,0)" xlink:href="#t"/><use transform="matrix(0.06172839506172839,0,0,0.06172839506172839,92.40740740740742,0)" xlink:href="#u"/><use transform="matrix(0.06172839506172839,0,0,0.06172839506172839,98.58024691358025,0)" xlink:href="#t"/><use transform="matrix(0.06172839506172839,0,0,0.06172839506172839,110.92592592592594,0)" xlink:href="#t"/><use transform="matrix(0.06172839506172839,0,0,0.06172839506172839,123.27160493827162,0)" xlink:href="#t"/></g><use transform="matrix(0.06172839506172839,0,0,0.06172839506172839,0,0)" xlink:href="#t" id="b"/><path fill="#333" d="M40 0v-20c38-3 75-4 79-20 8-12 8-12 8-88v-429c0-60-1-64-11-76-11-13-15-14-67-14H23v-20c247-16 533-47 544 179 7 155-168 235-351 197 3 66-8 201 10 241 12 27 64 33 112 30V0H40zm427-490c0-138-103-189-251-162v341c139 35 251-49 251-179" id="v"/><path fill="#333" d="M43-398v-33h440v33H43zm0 147v-33h440v33H43" id="w"/><path fill="#333" d="M187 7C115-8 46-49 46-110c0-19 17-37 36-37 18 0 29 12 40 42 18 51 23 57 65 86-1-102 3-210-2-309-51-35-119-84-119-161 0-64 47-118 121-140v-70h20v66c22-4 66-5 87 1v-67h20v70c79 22 126 58 126 95 0 18-14 33-32 33-16 0-27-8-44-34-16-25-29-40-50-59v248c57 37 152 88 152 187 0 80-56 142-152 166v102h-20V10c-24 4-64 4-87 0v99h-20V7zm20-421c18 17 62 39 87 57v-248c-16-9-61-16-87-9v200zm-20-14v-181c-37 12-63 47-63 84 0 35 19 65 63 97zm20 416c16 7 67 9 87 2v-252c-15-12-50-28-87-53v303zm107-3c90-35 117-132 50-199-7-5-14-12-50-36v235" id="x"/><path fill="#333" d="M148-680c105 0 186 82 186 193 0 93-43 143-146 182-72 27-54 71-6 125h-25c-67-78-83-163 28-202 74-26 123-44 123-121 0-60-41-95-110-95-35 0-143 26-143-31 0-32 35-51 93-51zM111-39c0-28 24-50 55-50 33 0 56 22 56 51 0 30-23 51-56 51-32 0-55-22-55-52" id="y"/><g id="c"><use transform="matrix(0.022222222222222223,0,0,0.022222222222222223,0,0)" xlink:href="#v"/><use transform="matrix(0.022222222222222223,0,0,0.022222222222222223,13.444444444444445,0)" xlink:href="#w"/><use transform="matrix(0.022222222222222223,0,0,0.022222222222222223,25.155555555555555,0)" xlink:href="#x"/><use transform="matrix(0.022222222222222223,0,0,0.022222222222222223,36.866666666666674,0)" xlink:href="#y"/></g><path fill="#333" d="M136-604c-28 0-47-17-47-42 0-23 20-40 47-40s47 17 47 41-20 41-47 41zM18-20c77-11 89-9 89-105v-179c0-56 0-55-56-67l-27-6v-17l139-48h15v317c0 62 1 68 13 83 12 14 26 19 64 22V0H18v-20" id="z"/><path fill="#333" d="M54-161c0-75 52-134 156-176C109-382 63-437 63-510c0-95 89-174 197-174 107 0 193 69 193 155 0 68-46 119-140 157 112 50 160 107 160 190 0 111-92 197-211 197C146 15 54-63 54-161zm243-221c56-30 91-88 91-149 0-77-55-134-129-134-75 0-133 54-133 121 0 79 109 136 171 162zm-66 55c-68 31-110 95-109 163C122-72 183-4 263-4s142-65 142-148c0-92-100-139-174-175" id="A"/><path fill="#333" d="M180 29l521-730h44L224 29h-44zm21-283c-94 0-168-96-168-218 0-114 76-208 168-208 93 0 167 94 167 211 0 119-75 215-167 215zM93-471c0 113 13 203 107 203 93 0 108-93 108-201 0-109-15-197-107-197S93-575 93-471zm464 266c0-115 76-209 168-209 93 0 167 94 167 212 0 119-75 215-167 215-94 0-168-96-168-218zm60 1C617-91 630-1 724-1c93 0 108-93 108-201 0-111-14-198-107-198-91 0-108 91-108 196" id="B"/><g id="e"><use transform="matrix(0.022222222222222223,0,0,0.022222222222222223,0,0)" xlink:href="#z"/><use transform="matrix(0.022222222222222223,0,0,0.022222222222222223,6.2,0)" xlink:href="#w"/><use transform="matrix(0.022222222222222223,0,0,0.022222222222222223,17.91111111111111,0)" xlink:href="#A"/><use transform="matrix(0.022222222222222223,0,0,0.022222222222222223,29.622222222222224,0)" xlink:href="#B"/></g><path fill="#333" d="M90 114c-1-146 1-295-1-440-1-25-2-26-64-41v-21l115-70h21v103c79-57 124-78 167-78 84 0 159 95 159 200C487-70 326 60 161-14c4 59-11 208 16 225 14 18 47 20 83 19v20H7v-20c35 1 59-5 72-23 9-13 11-27 11-93zm71-200c39 36 88 59 128 59 73 0 127-70 127-165 0-106-62-189-141-189-34 0-74 19-114 53v242" id="C"/><path fill="#333" d="M103-41C88-65 87-77 87-154v-224H38v-17c40-19 81-73 102-136h18v106h153l-17 47H158v199c0 77 2 91 16 109 41 51 89 42 121-21l17 15C277 22 157 46 103-41" id="D"/><path fill="#333" d="M226 9L85-316c-33-77-38-82-95-89v-20h219v20c-90 9-78 15-51 81L263-78l102-232c32-59 15-90-62-95v-20h187v20c-50 12-62 26-100 112L258 9h-32" id="E"/><g id="f"><use transform="matrix(0.022222222222222223,0,0,0.022222222222222223,0,0)" xlink:href="#C"/><use transform="matrix(0.022222222222222223,0,0,0.022222222222222223,11.511111111111115,0)" xlink:href="#D"/><use transform="matrix(0.022222222222222223,0,0,0.022222222222222223,19.48888888888889,0)" xlink:href="#E"/></g><path fill="#333" d="M313-387c-24-9-119 47-142 64v189c0 81 1 80 10 94 10 15 27 20 62 20V0H28v-20c24 1 47-9 59-23 23-29 13-170 13-231 0-106 10-71-69-100v-16l124-46h16v93c77-55 147-87 189-87 146 0 113 207 103 365-2 38 28 47 84 45V0H316v-20c46-4 61-12 70-36 8-21 14-117 14-209 0-77-24-117-87-122" id="F"/><g id="g"><use transform="matrix(0.022222222222222223,0,0,0.022222222222222223,0,0)" xlink:href="#F"/><use transform="matrix(0.022222222222222223,0,0,0.022222222222222223,12.488888888888889,0)" xlink:href="#w"/></g><path fill="#333" d="M58-265c0-198 138-358 359-419l12 16c-167 68-255 172-279 331 58-45 99-62 151-62 105 0 190 88 190 197 0 119-95 217-210 217C150 15 58-101 58-265zm80 22C138-96 194-4 284-4c78 0 127-72 127-187 0-110-50-183-126-183-40 0-86 21-142 65-3 19-5 36-5 66" id="G"/><use transform="matrix(0.022222222222222223,0,0,0.022222222222222223,0,0)" xlink:href="#G" id="h"/><g id="i"><use transform="matrix(0.022222222222222223,0,0,0.022222222222222223,0,0)" xlink:href="#C"/><use transform="matrix(0.022222222222222223,0,0,0.022222222222222223,11.511111111111115,0)" xlink:href="#D"/><use transform="matrix(0.022222222222222223,0,0,0.022222222222222223,19.48888888888889,0)" xlink:href="#E"/></g><path fill="#333" d="M-218 201c23-82 90 14 136 14 32 0 69-25 85-60C56 37 86-231 119-390H43l4-20c17-2 64-9 78-15 21-136 102-297 234-297 42 0 77 23 77 51-20 77-85-9-126-13-91 12-97 153-119 259h91l-10 35h-87c-26 129-47 320-85 428C52 173-35 250-136 250c-44 0-82-23-82-49" id="H"/><g id="k"><use transform="matrix(0.026666666666666665,0,0,0.026666666666666665,0,0)" xlink:href="#H"/><use transform="matrix(0.026666666666666665,0,0,0.026666666666666665,6.56,0)" xlink:href="#H"/></g><use transform="matrix(0.022222222222222223,0,0,0.022222222222222223,0,0)" xlink:href="#G" id="l"/><g id="m"><use transform="matrix(0.022222222222222223,0,0,0.022222222222222223,0,0)" xlink:href="#C"/><use transform="matrix(0.022222222222222223,0,0,0.022222222222222223,11.511111111111115,0)" xlink:href="#D"/><use transform="matrix(0.022222222222222223,0,0,0.022222222222222223,19.48888888888889,0)" xlink:href="#E"/></g><g id="n"><use transform="matrix(0.022222222222222223,0,0,0.022222222222222223,0,0)" xlink:href="#C"/><use transform="matrix(0.022222222222222223,0,0,0.022222222222222223,11.511111111111115,0)" xlink:href="#D"/><use transform="matrix(0.022222222222222223,0,0,0.022222222222222223,19.48888888888889,0)" xlink:href="#E"/></g></defs></g></svg>