<svg xmlns="http://www.w3.org/2000/svg" xmlns:xlink="http://www.w3.org/1999/xlink" xmlns:lucid="lucid" width="820" height="479.44"><g transform="translate(-160 -120)" lucid:page-tab-id="0_0"><path d="M0 0h1870.4v1323.2H0z" fill="#fff"/><path d="M300 301c0 .37.3.67.67.67H881.5" stroke="#5e5e5e" stroke-width="2" fill="none"/><path d="M301 301.03h-2V300h2z" fill="#5e5e5e"/><path d="M896.76 301.67l-14.26 4.63v-9.27z" stroke="#5e5e5e" stroke-width="2" fill="#5e5e5e"/><path d="M300 301v80.5" stroke="#5e5e5e" stroke-width="2" fill="none"/><path d="M301 301.03h-2V300h2z" fill="#5e5e5e"/><path d="M300 396.76l-4.64-14.26h9.28z" stroke="#5e5e5e" stroke-width="2" fill="#5e5e5e"/><path d="M640 146c0-3.3 2.7-6 6-6h228c3.3 0 6 2.7 6 6v48c0 3.3-2.7 6-6 6H646c-3.3 0-6-2.7-6-6z" stroke="#000" stroke-opacity="0" stroke-width="3" fill="#fff" fill-opacity="0"/><use xlink:href="#a" transform="matrix(1,0,0,1,645,145) translate(89.41358024691358 30.27777777777778)"/><path d="M180 246c0-3.3 2.7-6 6-6h228c3.3 0 6 2.7 6 6v48c0 3.3-2.7 6-6 6H186c-3.3 0-6-2.7-6-6z" stroke="#000" stroke-opacity="0" stroke-width="3" fill="#fff" fill-opacity="0"/><use xlink:href="#b" transform="matrix(1,0,0,1,185,245) translate(108.82716049382717 30.27777777777778)"/><path d="M760 299v-80.5" stroke="#5e5e5e" stroke-width="2" fill="none"/><path d="M761 300h-2v-1.03h2z" fill="#5e5e5e"/><path d="M760 203.24l4.64 14.26h-9.28z" stroke="#5e5e5e" stroke-width="2" fill="#5e5e5e"/><path d="M180 406c0-3.3 2.7-6 6-6h228c3.3 0 6 2.7 6 6v48c0 3.3-2.7 6-6 6H186c-3.3 0-6-2.7-6-6z" stroke="#000" stroke-opacity="0" stroke-width="3" fill="#fff" fill-opacity="0"/><use xlink:href="#c" transform="matrix(1,0,0,1,185,405) translate(58.333333333333336 28.544444444444444)"/><path d="M400 306c0-3.3 2.7-6 6-6h228c3.3 0 6 2.7 6 6v111.33c0 3.32-2.7 6-6 6H406c-3.3 0-6-2.68-6-6z" stroke="#000" stroke-opacity="0" stroke-width="3" fill="#fff" fill-opacity="0"/><use xlink:href="#d" transform="matrix(1,0,0,1,405,305) translate(115 19.606944444444444)"/><use xlink:href="#e" transform="matrix(1,0,0,1,405,305) translate(62.53444444444444 41.829166666666666)"/><use xlink:href="#f" transform="matrix(1,0,0,1,405,305) translate(137.24333333333334 41.829166666666666)"/><use xlink:href="#g" transform="matrix(1,0,0,1,405,305) translate(64.85666666666667 64.05138888888888)"/><use xlink:href="#h" transform="matrix(1,0,0,1,405,305) translate(133.96555555555557 64.05138888888888)"/><use xlink:href="#i" transform="matrix(1,0,0,1,405,305) translate(115 86.27361111111111)"/><use xlink:href="#j" transform="matrix(1,0,0,1,405,305) translate(70.82222222222222 108.49583333333334)"/><use xlink:href="#k" transform="matrix(1,0,0,1,405,305) translate(81.93333333333334 108.49583333333334)"/><use xlink:href="#l" transform="matrix(1,0,0,1,405,305) translate(111.6888888888889 108.49583333333334)"/><use xlink:href="#m" transform="matrix(1,0,0,1,405,305) translate(128.95555555555558 108.49583333333334)"/><path d="M390 226c0-3.3 2.7-6 6-6h228c3.3 0 6 2.7 6 6v48c0 3.3-2.7 6-6 6H396c-3.3 0-6-2.7-6-6zM640 335.83c0-2.3 1.87-4.16 4.17-4.16h231.66c2.3 0 4.17 1.86 4.17 4.16s-1.87 4.17-4.17 4.17H644.17c-2.3 0-4.17-1.87-4.17-4.17z" stroke="#000" stroke-opacity="0" stroke-width="3" fill="#fff" fill-opacity="0"/><path d="M300.02 461l.07 3.55.27 4.4.45 4.23.6 4.13.52 2.7m5.55 18.24l.83 2 1.7 3.63 1.9 3.6 2.06 3.57 2.25 3.57 2.47 3.56 2.7 3.56 2.95 3.56 3.23 3.58.98 1m14.24 12.72l.98.8 5.08 3.67 5.57 3.7 6.15 3.72 6.77 3.72 7.47 3.7.7.3m17.64 7.3l9.1 3.17 11.06 3.34 12.17 3.13 4.4.93m18.77 3.56l4.55.77 15.5 1.94 16.5 1.38 1.43.06m19.1.66h14.57l18.07-.76 5.54-.46m19.02-1.88l10.97-1.38 16.88-2.86 9.84-2.08m18.57-4.5l2.5-.64 13.8-4.16 12.65-4.4 7.3-2.9m17.48-7.7l6.66-3.3 8.54-4.7 7.72-4.68 6.97-4.62 2.95-2.15m14.85-12l3.98-3.75 4.23-4.3 3.83-4.26 3.47-4.2 3.16-4.14 2.84-4.12 2.6-4.07.25-.45m8.32-17.17l.97-2.6 1.3-4.07 1.16-4.1.97-4.16.66-3.46" stroke="#0c7cba" stroke-width="2" fill="none"/><path d="M301.02 461l-2 .05L299 460h2z" fill="#0c7cba"/><path d="M759.72 443.22l3.38 14.62-9.24-.8z" stroke="#0c7cba" stroke-width="2" fill="#0c7cba"/><path d="M640 386c0-3.3 2.7-6 6-6h228c3.3 0 6 2.7 6 6v48c0 3.3-2.7 6-6 6H646c-3.3 0-6-2.7-6-6z" stroke="#000" stroke-opacity="0" stroke-width="3" fill="#fff" fill-opacity="0"/><g><use xlink:href="#n" transform="matrix(1,0,0,1,645,385) translate(108.44 31.75333333333333)"/></g><path d="M900 277.67c0-3.32 2.7-6 6-6h48c3.3 0 6 2.68 6 6v48c0 3.3-2.7 6-6 6h-48c-3.3 0-6-2.7-6-6z" stroke="#000" stroke-opacity="0" stroke-width="3" fill="#fff" fill-opacity="0"/><g><use xlink:href="#o" transform="matrix(1,0,0,1,905,276.66666666662786) translate(9.41111111111111 28.544444444444444)"/></g><path d="M760 341v4.75m0 9.5v9.5m0 9.5V379" stroke="#5e5e5e" stroke-width="2" fill="none"/><path d="M761 341.03h-2V340h2zM761 380h-2v-1.03h2z" fill="#5e5e5e"/><path d="M640 306c0-3.3 2.7-6 6-6h228c3.3 0 6 2.7 6 6v48c0 3.3-2.7 6-6 6H646c-3.3 0-6-2.7-6-6z" stroke="#000" stroke-opacity="0" stroke-width="3" fill="#fff" fill-opacity="0"/><g><use xlink:href="#p" transform="matrix(1,0,0,1,645,305) translate(88 28.544444444444444)"/><use xlink:href="#q" transform="matrix(1,0,0,1,645,305) translate(110.82222222222222 28.544444444444444)"/></g><defs><path fill="#333" d="M63-220v92h138v28H63V0H30v-248h175v28H63" id="r"/><path fill="#333" d="M18-150v-26h174v26H18zm0 90v-26h174v26H18" id="s"/><path fill="#333" d="M194-70c0 46-34 64-81 66v29H91V-4C42-5 12-27 4-67l30-6c5 28 25 41 57 43v-87c-38-9-76-20-76-67 1-42 33-58 76-59v-23h22v23c45 0 67 20 76 56l-31 6c-5-23-18-35-45-37v78c41 10 81 20 81 70zm-81 41c51 7 71-66 19-77-6-2-12-4-19-6v83zM91-219c-47-6-63 57-18 69 6 2 12 3 18 5v-74" id="t"/><path fill="#333" d="M103-251c84 0 111 97 45 133-19 10-37 24-39 52H78c0-63 77-55 77-114 0-30-21-42-52-43-32 0-53 17-56 46l-32-2c7-45 34-72 88-72zM77 0v-35h34V0H77" id="u"/><g id="a"><use transform="matrix(0.06172839506172839,0,0,0.06172839506172839,0,0)" xlink:href="#r"/><use transform="matrix(0.06172839506172839,0,0,0.06172839506172839,13.518518518518517,0)" xlink:href="#s"/><use transform="matrix(0.06172839506172839,0,0,0.06172839506172839,26.48148148148148,0)" xlink:href="#t"/><use transform="matrix(0.06172839506172839,0,0,0.06172839506172839,38.82716049382716,0)" xlink:href="#u"/></g><path fill="#333" d="M101-251c68 0 85 55 85 127S166 4 100 4C33 4 14-52 14-124c0-73 17-127 87-127zm-1 229c47 0 54-49 54-102s-4-102-53-102c-51 0-55 48-55 102 0 53 5 102 54 102" id="v"/><use transform="matrix(0.06172839506172839,0,0,0.06172839506172839,0,0)" xlink:href="#v" id="b"/><path fill="#333" d="M40 0v-20c38-3 75-4 79-20 8-12 8-12 8-88v-429c0-60-1-64-11-76-11-13-15-14-67-14H23v-20c247-16 533-47 544 179 7 155-168 235-351 197 3 66-8 201 10 241 12 27 64 33 112 30V0H40zm427-490c0-138-103-189-251-162v341c139 35 251-49 251-179" id="w"/><path fill="#333" d="M43-398v-33h440v33H43zm0 147v-33h440v33H43" id="x"/><path fill="#333" d="M187 7C115-8 46-49 46-110c0-19 17-37 36-37 18 0 29 12 40 42 18 51 23 57 65 86-1-102 3-210-2-309-51-35-119-84-119-161 0-64 47-118 121-140v-70h20v66c22-4 66-5 87 1v-67h20v70c79 22 126 58 126 95 0 18-14 33-32 33-16 0-27-8-44-34-16-25-29-40-50-59v248c57 37 152 88 152 187 0 80-56 142-152 166v102h-20V10c-24 4-64 4-87 0v99h-20V7zm20-421c18 17 62 39 87 57v-248c-16-9-61-16-87-9v200zm-20-14v-181c-37 12-63 47-63 84 0 35 19 65 63 97zm20 416c16 7 67 9 87 2v-252c-15-12-50-28-87-53v303zm107-3c90-35 117-132 50-199-7-5-14-12-50-36v235" id="y"/><path fill="#333" d="M351-66c106 1 94-15 114-85h17L461 0H33v-17c31-40 80-92 197-209 98-98 144-179 144-253 0-81-62-144-142-144-76 0-144 58-169 145H46c14-123 101-206 217-206 113 0 198 81 198 189 0 50-18 101-51 142-24 30-25 29-118 107-80 66-92 79-191 180h250" id="z"/><path fill="#333" d="M117-71C-21-248 27-684 263-684c56 0 102 30 146 86C552-417 487 15 263 15c-56 0-103-31-146-86zm146-594c-131 0-143 165-143 327 0 106 13 204 33 252 22 52 63 82 110 82 52 0 93-35 115-95 37-101 37-394-5-485-22-50-63-81-110-81" id="A"/><path fill="#333" d="M84-39c0-28 24-50 55-50 33 0 56 22 56 51 0 30-23 51-56 51-32 0-55-22-55-52" id="B"/><g id="c"><use transform="matrix(0.022222222222222223,0,0,0.022222222222222223,0,0)" xlink:href="#w"/><use transform="matrix(0.022222222222222223,0,0,0.022222222222222223,13.444444444444445,0)" xlink:href="#x"/><use transform="matrix(0.022222222222222223,0,0,0.022222222222222223,25.155555555555555,0)" xlink:href="#y"/><use transform="matrix(0.022222222222222223,0,0,0.022222222222222223,36.866666666666674,0)" xlink:href="#z"/><use transform="matrix(0.022222222222222223,0,0,0.022222222222222223,48.57777777777778,0)" xlink:href="#A"/><use transform="matrix(0.022222222222222223,0,0,0.022222222222222223,60.28888888888889,0)" xlink:href="#A"/><use transform="matrix(0.022222222222222223,0,0,0.022222222222222223,72,0)" xlink:href="#B"/><use transform="matrix(0.022222222222222223,0,0,0.022222222222222223,78.2,0)" xlink:href="#A"/><use transform="matrix(0.022222222222222223,0,0,0.022222222222222223,89.91111111111111,0)" xlink:href="#A"/><use transform="matrix(0.022222222222222223,0,0,0.022222222222222223,101.62222222222222,0)" xlink:href="#A"/></g><path fill="#333" d="M136-604c-28 0-47-17-47-42 0-23 20-40 47-40s47 17 47 41-20 41-47 41zM18-20c77-11 89-9 89-105v-179c0-56 0-55-56-67l-27-6v-17l139-48h15v317c0 62 1 68 13 83 12 14 26 19 64 22V0H18v-20" id="C"/><path fill="#333" d="M140 0v-20h41c57 0 58-1 58-64v-514c-30 27-101 74-134 88l-9-15c52-34 157-128 177-159h37v627c-11 51 58 34 100 37V0H140" id="D"/><path fill="#333" d="M180 29l521-730h44L224 29h-44zm21-283c-94 0-168-96-168-218 0-114 76-208 168-208 93 0 167 94 167 211 0 119-75 215-167 215zM93-471c0 113 13 203 107 203 93 0 108-93 108-201 0-109-15-197-107-197S93-575 93-471zm464 266c0-115 76-209 168-209 93 0 167 94 167 212 0 119-75 215-167 215-94 0-168-96-168-218zm60 1C617-91 630-1 724-1c93 0 108-93 108-201 0-111-14-198-107-198-91 0-108 91-108 196" id="E"/><g id="e"><use transform="matrix(0.022222222222222223,0,0,0.022222222222222223,0,0)" xlink:href="#C"/><use transform="matrix(0.015555555555555555,0,0,0.015555555555555555,6.2,2.8077777777777775)" xlink:href="#D"/><use transform="matrix(0.022222222222222223,0,0,0.022222222222222223,14.397777777777776,0)" xlink:href="#x"/><use transform="matrix(0.022222222222222223,0,0,0.022222222222222223,26.108888888888888,0)" xlink:href="#D"/><use transform="matrix(0.022222222222222223,0,0,0.022222222222222223,36.88666666666667,0)" xlink:href="#A"/><use transform="matrix(0.022222222222222223,0,0,0.022222222222222223,48.59777777777778,0)" xlink:href="#E"/></g><path fill="#333" d="M90 114c-1-146 1-295-1-440-1-25-2-26-64-41v-21l115-70h21v103c79-57 124-78 167-78 84 0 159 95 159 200C487-70 326 60 161-14c4 59-11 208 16 225 14 18 47 20 83 19v20H7v-20c35 1 59-5 72-23 9-13 11-27 11-93zm71-200c39 36 88 59 128 59 73 0 127-70 127-165 0-106-62-189-141-189-34 0-74 19-114 53v242" id="F"/><path fill="#333" d="M103-41C88-65 87-77 87-154v-224H38v-17c40-19 81-73 102-136h18v106h153l-17 47H158v199c0 77 2 91 16 109 41 51 89 42 121-21l17 15C277 22 157 46 103-41" id="G"/><path fill="#333" d="M226 9L85-316c-33-77-38-82-95-89v-20h219v20c-90 9-78 15-51 81L263-78l102-232c32-59 15-90-62-95v-20h187v20c-50 12-62 26-100 112L258 9h-32" id="H"/><g id="f"><use transform="matrix(0.022222222222222223,0,0,0.022222222222222223,0,0)" xlink:href="#F"/><use transform="matrix(0.022222222222222223,0,0,0.022222222222222223,11.511111111111115,0)" xlink:href="#G"/><use transform="matrix(0.022222222222222223,0,0,0.022222222222222223,19.48888888888889,0)" xlink:href="#H"/></g><path fill="#333" d="M212-336c-32 0-56-22-56-51s24-51 56-51 55 22 55 52c0 28-24 50-55 50zm17 586C124 251 43 168 43 58c0-93 43-144 146-182 71-27 54-72 7-125h24c68 79 83 163-28 201C118-22 69-3 69 73c0 60 41 95 110 95 15 0 51-7 83-7 38 0 60 14 60 38 0 32-34 51-93 51" id="I"/><path fill="#333" d="M148-680c105 0 186 82 186 193 0 93-43 143-146 182-72 27-54 71-6 125h-25c-67-78-83-163 28-202 74-26 123-44 123-121 0-60-41-95-110-95-35 0-143 26-143-31 0-32 35-51 93-51zM111-39c0-28 24-50 55-50 33 0 56 22 56 51 0 30-23 51-56 51-32 0-55-22-55-52" id="J"/><g id="g"><use transform="matrix(0.022222222222222223,0,0,0.022222222222222223,0,0)" xlink:href="#C"/><use transform="matrix(0.015555555555555555,0,0,0.015555555555555555,6.2,2.8077777777777775)" xlink:href="#z"/><use transform="matrix(0.022222222222222223,0,0,0.022222222222222223,14.397777777777776,0)" xlink:href="#x"/><use transform="matrix(0.022222222222222223,0,0,0.022222222222222223,26.108888888888888,0)" xlink:href="#I"/><use transform="matrix(0.022222222222222223,0,0,0.022222222222222223,34.553333333333335,0)" xlink:href="#J"/><use transform="matrix(0.022222222222222223,0,0,0.022222222222222223,42.99777777777778,0)" xlink:href="#E"/></g><path fill="#333" d="M255-52c-39 28-89 75-129 65-56 0-95-36-95-88 0-54 33-80 126-105 41-11 68-23 96-41v-85c7-65-33-99-79-99-38 0-82 36-60 72l-73 36c-23-58 109-139 155-139 43 0 88 24 112 56 34 46 3 251 20 323 3 12 12 18 25 18 16 0 29-6 52-23l5 15c-40 36-83 60-106 60-30 0-47-23-49-65zm-92 27c14 8 60-30 90-47v-128c-19 11-32 17-93 42-43 18-60 38-60 70 0 35 28 63 63 63" id="K"/><g id="h"><use transform="matrix(0.022222222222222223,0,0,0.022222222222222223,0,0)" xlink:href="#F"/><use transform="matrix(0.022222222222222223,0,0,0.022222222222222223,11.711111111111112,0)" xlink:href="#K"/><use transform="matrix(0.022222222222222223,0,0,0.022222222222222223,20.444444444444446,0)" xlink:href="#H"/></g><path fill="#333" d="M313-387c-24-9-119 47-142 64v189c0 81 1 80 10 94 10 15 27 20 62 20V0H28v-20c24 1 47-9 59-23 23-29 13-170 13-231 0-106 10-71-69-100v-16l124-46h16v93c77-55 147-87 189-87 146 0 113 207 103 365-2 38 28 47 84 45V0H316v-20c46-4 61-12 70-36 8-21 14-117 14-209 0-77-24-117-87-122" id="L"/><g id="k"><use transform="matrix(0.022222222222222223,0,0,0.022222222222222223,0,0)" xlink:href="#L"/><use transform="matrix(0.022222222222222223,0,0,0.022222222222222223,12.488888888888889,0)" xlink:href="#x"/></g><path fill="#333" d="M39-195v-24l316-465h30v436h108v53H385V15h-71v-210H39zm50-53h225v-333" id="M"/><use transform="matrix(0.022222222222222223,0,0,0.022222222222222223,0,0)" xlink:href="#M" id="l"/><g id="m"><use transform="matrix(0.022222222222222223,0,0,0.022222222222222223,0,0)" xlink:href="#F"/><use transform="matrix(0.022222222222222223,0,0,0.022222222222222223,11.511111111111115,0)" xlink:href="#G"/><use transform="matrix(0.022222222222222223,0,0,0.022222222222222223,19.48888888888889,0)" xlink:href="#H"/></g><path fill="#333" d="M-218 201c23-82 90 14 136 14 32 0 69-25 85-60C56 37 86-231 119-390H43l4-20c17-2 64-9 78-15 21-136 102-297 234-297 42 0 77 23 77 51-20 77-85-9-126-13-91 12-97 153-119 259h91l-10 35h-87c-26 129-47 320-85 428C52 173-35 250-136 250c-44 0-82-23-82-49" id="N"/><g id="n"><use transform="matrix(0.026666666666666665,0,0,0.026666666666666665,0,0)" xlink:href="#N"/><use transform="matrix(0.026666666666666665,0,0,0.026666666666666665,6.56,0)" xlink:href="#N"/></g><g id="o"><use transform="matrix(0.022222222222222223,0,0,0.022222222222222223,0,0)" xlink:href="#F"/><use transform="matrix(0.022222222222222223,0,0,0.022222222222222223,11.711111111111112,0)" xlink:href="#K"/><use transform="matrix(0.022222222222222223,0,0,0.022222222222222223,20.444444444444446,0)" xlink:href="#H"/></g><use transform="matrix(0.022222222222222223,0,0,0.022222222222222223,0,0)" xlink:href="#D" id="p"/><g id="q"><use transform="matrix(0.022222222222222223,0,0,0.022222222222222223,0,0)" xlink:href="#F"/><use transform="matrix(0.022222222222222223,0,0,0.022222222222222223,11.711111111111112,0)" xlink:href="#K"/><use transform="matrix(0.022222222222222223,0,0,0.022222222222222223,20.444444444444446,0)" xlink:href="#H"/></g></defs></g></svg>