<?xml version="1.0" encoding="utf-8"?>
<!-- Generator: Adobe Illustrator 23.0.1, SVG Export Plug-In . SVG Version: 6.00 Build 0)  -->
<svg version="1.1" id="Capa_1" xmlns="http://www.w3.org/2000/svg" xmlns:xlink="http://www.w3.org/1999/xlink" x="0px" y="0px"
	 viewBox="0 0 260 260" style="enable-background:new 0 0 260 260;" xml:space="preserve">
<style type="text/css">
	.st0{fill:none;stroke:#5E5E5E;stroke-miterlimit:10;}
	.st1{fill:#5E5E5E;}
	.st2{fill:none;stroke:#5E5E5E;stroke-miterlimit:10;stroke-dasharray:4.9501,4.9501;}
	.st3{fill:none;stroke:#00C100;}
	.st4{fill:#00C100;}
	.st5{fill:none;}
	.st6{fill:none;stroke:#F70000;stroke-width:1.5;}
	.st7{fill:#F70000;}
	.st8{font-family:'MyriadPro-Regular';}
	.st9{font-size:10.421px;}
	.st10{font-size:8.6842px;}
	.st11{fill:none;stroke:#3AA6DD;stroke-width:1.5;}
	.st12{fill:none;stroke:#3AA6DD;stroke-width:1.5;stroke-dasharray:5.039,5.039;}
	.st13{fill:#3AA6DD;}
	.st14{fill:none;stroke:#3AA6DD;stroke-width:1.5;stroke-dasharray:5.0645,5.0645;}
</style>
<g>
	<g>
		<g>
			<line class="st0" x1="17.9" y1="97.9" x2="220.9" y2="97.9"/>
			<g>
				<path class="st1" d="M226.9,97.9c-2.8,1.1-6.4,2.9-8.5,4.8l1.7-4.8l-1.7-4.8C220.6,95,224.1,96.8,226.9,97.9z"/>
			</g>
		</g>
	</g>
	<line class="st0" x1="128.5" y1="143.9" x2="196.6" y2="143.9"/>
	<g>
		<g>
			<line class="st0" x1="17.9" y1="196.9" x2="17.9" y2="194.4"/>
			<line class="st2" x1="17.9" y1="189.5" x2="17.9" y2="102.8"/>
			<line class="st0" x1="17.9" y1="100.4" x2="17.9" y2="97.9"/>
		</g>
	</g>
	<g>
		<g>
			<line class="st3" x1="17.9" y1="97.9" x2="17.9" y2="57.2"/>
			<g>
				<path class="st4" d="M17.9,51.2c1.1,2.8,2.9,6.4,4.8,8.5L17.9,58l-4.8,1.7C15,57.5,16.8,54,17.9,51.2z"/>
			</g>
		</g>
	</g>
	<g>
		<path class="st5" d="M83.1,97.2"/>
	</g>
	<g>
		<path class="st5" d="M105.8,97.2"/>
	</g>
	<g>
		<g>
			<line class="st6" x1="128.5" y1="97.2" x2="128.5" y2="134.9"/>
			<g>
				<path class="st7" d="M128.5,143.9c-1.6-4.3-4.3-9.5-7.1-12.8l7.1,2.6l7.1-2.6C132.8,134.4,130.1,139.7,128.5,143.9z"/>
			</g>
		</g>
	</g>
	<g>
		<g>
			<line class="st6" x1="151.2" y1="97.2" x2="151.2" y2="134.9"/>
			<g>
				<path class="st7" d="M151.2,143.9c-1.6-4.3-4.3-9.5-7.1-12.8l7.1,2.6l7.1-2.6C155.5,134.4,152.8,139.7,151.2,143.9z"/>
			</g>
		</g>
	</g>
	<g>
		<g>
			<line class="st6" x1="173.9" y1="97.2" x2="173.9" y2="134.9"/>
			<g>
				<path class="st7" d="M173.9,143.9c-1.6-4.3-4.3-9.5-7.1-12.8l7.1,2.6l7.1-2.6C178.2,134.4,175.5,139.7,173.9,143.9z"/>
			</g>
		</g>
	</g>
	<g>
		<g>
			<polyline class="st6" points="173.9,97.2 185.3,107.6 185.3,148.1 			"/>
			<g>
				<path class="st7" d="M185.3,157.1c-1.6-4.3-4.3-9.5-7.1-12.8l7.1,2.6l7.1-2.6C189.5,147.6,186.8,152.9,185.3,157.1z"/>
			</g>
		</g>
	</g>
	<g>
		<g>
			<line class="st6" x1="196.6" y1="97.2" x2="196.6" y2="134.9"/>
			<g>
				<path class="st7" d="M196.6,143.9c-1.6-4.3-4.3-9.5-7.1-12.8l7.1,2.6l7.1-2.6C200.9,134.4,198.2,139.7,196.6,143.9z"/>
			</g>
		</g>
	</g>
	<text transform="matrix(1 0 0 1 12.9365 47.7463)" class="st8 st9">VP = 2.000.000 COP</text>
	<text transform="matrix(1 0 0 1 12.9365 207.8283)" class="st8 st9">pf</text>
	<g>
		<text transform="matrix(1 0 0 1 125.9702 152.6467)" class="st8 st10">R= ? COP</text>
	</g>
	<text transform="matrix(1 0 0 1 168.5693 207.8283)" class="st8 st10">n1=8 ptv</text>
	<text transform="matrix(1 0 0 1 168.5693 217.7365)" class="st8 st10">i1= 5,25% ptv</text>
	<text transform="matrix(1 0 0 1 232.5786 99.9289)" class="st8 st9">ptv</text>
	<text transform="matrix(1 0 0 1 19.6172 96.3957)" class="st8 st9">0</text>
	<text transform="matrix(1 0 0 1 35.3008 96.3952)" class="st8 st9">1</text>
	<text transform="matrix(1 0 0 1 57.8184 96.3957)" class="st8 st9">2</text>
	<text transform="matrix(1 0 0 1 79.9238 96.3957)" class="st8 st9">3</text>
	<text transform="matrix(1 0 0 1 102.5522 96.3957)" class="st8 st9">4</text>
	<g>
		<g>
			<path class="st11" d="M196.6,143.9c-0.1,0.8-0.2,1.7-0.4,2.5"/>
			<path class="st12" d="M195.3,151.4C178,234.8,71.4,244.9,22.3,172.6l-1.2-5.1"/>
			<line class="st11" x1="20.5" y1="165" x2="19.9" y2="162.6"/>
			<g>
				<path class="st13" d="M17.9,153.8c2.5,3.8,6.3,8.3,9.9,10.9l-7.5-0.9l-6.4,4.1C15.9,164,17.3,158.3,17.9,153.8z"/>
			</g>
		</g>
	</g>
	<text transform="matrix(1 0 0 1 125.9702 96.3957)" class="st8 st9">5</text>
	<text transform="matrix(1 0 0 1 148.4888 96.3952)" class="st8 st9">6</text>
	<text transform="matrix(1 0 0 1 171.1621 96.3957)" class="st8 st9">7</text>
	<text transform="matrix(1 0 0 1 193.6812 96.3952)" class="st8 st9">8</text>
	<text transform="matrix(1 0 0 1 89.8008 177.5012)" class="st8 st10">n2=7 ptv</text>
	<text transform="matrix(1 0 0 1 89.8008 187.4104)" class="st8 st10">i2= 5,25% ptv</text>
	<g>
		<g>
			<path class="st11" d="M185.3,166.3c-0.5,0.7-1,1.4-1.5,2"/>
			<path class="st14" d="M180.7,172.3C137.5,225.9,73.9,215,25.1,143.8"/>
			<line class="st11" x1="23.8" y1="141.6" x2="22.5" y2="139.5"/>
			<g>
				<path class="st13" d="M17.9,131.7c3.5,2.9,8.5,6,12.7,7.4l-7.5,1.4l-4.8,5.8C19.1,142.1,18.7,136.2,17.9,131.7z"/>
			</g>
		</g>
	</g>
	<text transform="matrix(1 0 0 1 158.7241 163.8923)" class="st8 st10">F2= 150.000COP</text>
</g>
</svg>
