<?xml version="1.0" encoding="utf-8"?>
<!-- Generator: Adobe Illustrator 25.3.0, SVG Export Plug-In . SVG Version: 6.00 Build 0)  -->
<svg version="1.1" id="Capa_1" xmlns="http://www.w3.org/2000/svg" xmlns:xlink="http://www.w3.org/1999/xlink" x="0px" y="0px"
	 viewBox="0 0 250 250" style="enable-background:new 0 0 250 250;" xml:space="preserve">
<style type="text/css">
	.st0{fill:#FFFFFF;stroke:#000000;stroke-miterlimit:10;}
	.st1{fill:#FFFFFF;stroke:#FF0000;stroke-miterlimit:10;}
	.st2{fill:#FFFFFF;stroke:#00FF00;stroke-miterlimit:10;}
	.st3{fill:none;stroke:#0000FF;stroke-miterlimit:10;}
	.st4{fill:none;}
	.st5{font-family:'MyriadPro-Regular';}
	.st6{font-size:8px;}
	.st7{font-size:5px;}
	.st8{fill:none;stroke:#FF0000;stroke-miterlimit:10;}
	.st9{fill:none;stroke:#00FF00;stroke-miterlimit:10;}
	.st10{fill:none;stroke:#000000;stroke-miterlimit:10;}
	.st11{font-size:6px;}
	.st12{font-size:7px;}
</style>
<path class="st0" d="M64.5,78.36c0-2.62,0-5.24,0-7.86"/>
<path class="st0" d="M64.83,103.27c-0.05-4.22-0.14-8.46-0.33-12.78v12.8C64.61,103.28,64.72,103.27,64.83,103.27z"/>
<path class="st0" d="M64.5,113.21v11.29c0.17-3.8,0.26-7.54,0.31-11.27C64.71,113.23,64.6,113.22,64.5,113.21z"/>
<polyline class="st0" points="51.5,124.5 64.5,124.5 195.5,124.5 "/>
<path class="st0" d="M64.5,124.5"/>
<line class="st1" x1="64.5" y1="124.5" x2="64.5" y2="183.5"/>
<line class="st2" x1="182.5" y1="124.5" x2="182.5" y2="53.5"/>
<path class="st3" d="M88.35,183.56c-2.24-1.71-3.86-4.17-3.85-7.06"/>
<path class="st3" d="M111.08,190.06c-4.01-0.36-8-0.96-11.91-1.91"/>
<path class="st3" d="M139.34,189c-5.33,1.01-10.76,1.47-16.18,1.5"/>
<path class="st3" d="M161.21,180.01c-3.31,2.3-6.88,4.22-10.61,5.73"/>
<path class="st3" d="M175.61,164.82c-1.59,2.61-3.43,5.08-5.48,7.35"/>
<path class="st3" d="M182.5,141.5c-0.08,4.2-0.77,8.39-1.99,12.41"/>
<rect x="89.61" y="133.96" class="st4" width="9" height="9.64"/>
<text transform="matrix(1 0 0 1 89.6069 139.6436)" class="st5 st6">1</text>
<rect x="116.61" y="133.96" class="st4" width="9" height="9.64"/>
<text transform="matrix(1 0 0 1 116.6069 139.6436)" class="st5 st6">2</text>
<rect x="107.61" y="148.96" class="st4" width="42.39" height="9.64"/>
<text transform="matrix(1 0 0 1 107.6069 152.5137)" class="st5 st7">j = 15% naav</text>
<rect x="107.61" y="156.96" class="st4" width="42.39" height="9.64"/>
<text transform="matrix(1 0 0 1 107.6069 160.5137)" class="st5 st7">N = 4 pav</text>
<rect x="141.61" y="133.96" class="st4" width="9" height="9.64"/>
<text transform="matrix(1 0 0 1 141.6069 139.6436)" class="st5 st6">3</text>
<rect x="188.61" y="133.96" class="st4" width="9" height="9.64"/>
<text transform="matrix(1 0 0 1 188.6069 139.6436)" class="st5 st6">4</text>
<polygon class="st3" points="88.04,177 80.96,177 84.5,173.46 "/>
<polygon class="st8" points="60.96,183.5 68.04,183.5 64.5,187.04 "/>
<polygon class="st9" points="186.04,53.5 178.96,53.5 182.5,49.96 "/>
<polygon class="st10" points="195.5,128.04 195.5,120.96 199.04,124.5 "/>
<rect x="68.39" y="116.71" class="st4" width="17.36" height="10.61"/>
<text transform="matrix(1 0 0 1 68.3931 120.9741)" class="st5 st11">0</text>
<rect x="53.39" y="82.71" class="st4" width="17.36" height="10.61"/>
<text transform="matrix(1 0 0 1 53.3931 87.6841)" class="st5 st12">ff</text>
<rect x="203.68" y="121.86" class="st4" width="18.64" height="9"/>
<text transform="matrix(1 0 0 1 203.6787 126.1167)" class="st5 st11">pav</text>
<rect x="165.93" y="38.21" class="st4" width="57.07" height="18"/>
<text transform="matrix(1 0 0 1 165.9287 41.7642)" class="st5 st7">VFC = $200.000</text>
</svg>
