<?xml version="1.0" encoding="utf-8"?>
<!-- Generator: Adobe Illustrator 25.3.0, SVG Export Plug-In . SVG Version: 6.00 Build 0)  -->
<svg version="1.1" id="Capa_1" xmlns="http://www.w3.org/2000/svg" xmlns:xlink="http://www.w3.org/1999/xlink" x="0px" y="0px"
	 viewBox="0 0 250 250" style="enable-background:new 0 0 250 250;" xml:space="preserve">
<style type="text/css">
	.st0{fill:none;stroke:#000000;stroke-miterlimit:10;}
	.st1{fill:none;stroke:#FF0000;stroke-miterlimit:10;}
	.st2{fill:none;stroke:#00FF00;stroke-miterlimit:10;}
	.st3{fill:none;stroke:#0000FF;stroke-miterlimit:10;}
	.st4{fill:none;}
	.st5{font-family:'MyriadPro-Regular';}
	.st6{font-size:8px;}
	.st7{font-size:14px;}
	.st8{font-size:9px;}
</style>
<g>
	<line class="st0" x1="23.5" y1="123.5" x2="220.5" y2="122.5"/>
</g>
<path class="st0" d="M32.16,87.81c0-2.77,0-5.54,0-8.31"/>
<path class="st0" d="M32.16,110.94c0-3.59,0-7.17,0-10.76"/>
<path class="st1" d="M32.16,185.5C32,165,32,144,32.16,122.96"/>
<line class="st2" x1="66.35" y1="122.91" x2="66.35" y2="96.5"/>
<line class="st2" x1="97.11" y1="123.04" x2="97.11" y2="96.63"/>
<line class="st2" x1="125.11" y1="123.04" x2="125.11" y2="96.63"/>
<path class="st3" d="M77.35,170.47c-1.98-1.96-3.9-4.31-4.85-6.97"/>
<path class="st3" d="M97.22,181.58c-3.32-1.07-6.56-2.37-9.67-3.95"/>
<path class="st3" d="M119.86,185.89c-3.77-0.34-7.52-0.84-11.25-1.51"/>
<path class="st3" d="M141.82,186c-3.08,0.28-6.18,0.42-9.27,0.44"/>
<path class="st3" d="M166.21,180.54c-3.88,1.49-7.88,2.65-11.96,3.48"/>
<path class="st3" d="M185.94,169.33c-2.63,2.06-5.39,3.96-8.26,5.66"/>
<path class="st3" d="M199.67,155.53c-1.5,1.92-3.08,3.77-4.74,5.54"/>
<path class="st3" d="M209.5,139.5c-0.86,1.84-1.78,3.64-2.77,5.41"/>
<polygon class="st3" points="74.67,160.5 69.5,160.5 69.5,165.67 "/>
<polygon class="st1" points="28.43,185.55 32.11,189.18 35.74,185.5 "/>
<polygon class="st2" points="69.74,96.5 66.08,92.85 62.43,96.5 "/>
<polygon class="st2" points="128.74,96.5 125.08,92.85 121.43,96.5 "/>
<polygon class="st2" points="100.74,96.5 97.08,92.85 93.43,96.5 "/>
<rect x="63.93" y="127" class="st4" width="8.07" height="9.46"/>
<text transform="matrix(1 0 0 1 63.9287 132.6797)" class="st5 st6">1</text>
<rect x="94.15" y="127.2" class="st4" width="8.07" height="9.46"/>
<text transform="matrix(1 0 0 1 94.153 132.8839)" class="st5 st6">2</text>
<rect x="123.15" y="127.2" class="st4" width="8.07" height="9.46"/>
<text transform="matrix(1 0 0 1 123.153 132.8839)" class="st5 st6">3</text>
<rect x="26.15" y="193.78" class="st4" width="14.85" height="9.46"/>
<text transform="matrix(1 0 0 1 26.153 199.4553)" class="st5 st6">100</text>
<rect x="39.15" y="111.63" class="st4" width="8.07" height="9.46"/>
<text transform="matrix(1 0 0 1 39.153 117.3124)" class="st5 st6">0</text>
<rect x="19.15" y="91.63" class="st4" width="8.07" height="9.46"/>
<text transform="matrix(1 0 0 1 19.1532 97.3124)" class="st5 st6">ff</text>
<rect x="165.79" y="131.93" class="st4" width="27.86" height="8.79"/>
<text transform="matrix(1 0 0 1 165.7861 137.6084)" class="st5 st6">. . . . . . .</text>
<rect x="224.07" y="126.79" class="st4" width="29.57" height="16.29"/>
<text transform="matrix(1 0 0 1 224.0713 136.7256)" class="st5 st7">∞</text>
<rect x="222.89" y="98.92" class="st4" width="29.57" height="16.29"/>
<text transform="matrix(1 0 0 1 222.8928 105.3093)" class="st5 st8">N=∞</text>
<polygon class="st0" points="220.5,126.33 224.15,122.68 220.5,119.03 "/>
</svg>
