<?xml version="1.0" encoding="UTF-8" standalone="no"?>
<!-- Created with Inkscape (http://www.inkscape.org/) -->

<svg
   version="1.1"
   id="svg2"
   width="300"
   height="195.02406"
   viewBox="0 0 300 195.02406"
   sodipodi:docname="9_1.svg"
   inkscape:version="1.2.2 (732a01da63, 2022-12-09)"
   xmlns:inkscape="http://www.inkscape.org/namespaces/inkscape"
   xmlns:sodipodi="http://sodipodi.sourceforge.net/DTD/sodipodi-0.dtd"
   xmlns="http://www.w3.org/2000/svg"
   xmlns:svg="http://www.w3.org/2000/svg">
  <defs
     id="defs6">
    <clipPath
       clipPathUnits="userSpaceOnUse"
       id="clipPath24">
      <path
         d="M 0,0 H 226 V 147 H 0 Z"
         id="path22" />
    </clipPath>
  </defs>
  <sodipodi:namedview
     id="namedview4"
     pagecolor="#ffffff"
     bordercolor="#000000"
     borderopacity="0.25"
     inkscape:showpageshadow="2"
     inkscape:pageopacity="0.0"
     inkscape:pagecheckerboard="0"
     inkscape:deskcolor="#d1d1d1"
     showgrid="false"
     inkscape:zoom="4.1738439"
     inkscape:cx="152.37753"
     inkscape:cy="80.860715"
     inkscape:window-width="1920"
     inkscape:window-height="1001"
     inkscape:window-x="-9"
     inkscape:window-y="-9"
     inkscape:window-maximized="1"
     inkscape:current-layer="g10">
    <inkscape:page
       x="0"
       y="0"
       id="page8"
       width="300"
       height="195.02406" />
  </sodipodi:namedview>
  <g
     id="g10"
     inkscape:groupmode="layer"
     inkscape:label="Page 1"
     transform="matrix(1.3333333,0,0,1.3333333,0,2.2089349e-6)">
    <g
       id="g12" />
    <g
       id="g14"
       inkscape:export-filename="9_1.pdf"
       inkscape:export-xdpi="96"
       inkscape:export-ydpi="96">
      <g
         id="g16">
        <g
           id="g18">
          <g
             id="g20"
             clip-path="url(#clipPath24)">
            <g
               id="g26">
              <path
                 d="M 0,0 H 225 V 146.27 H 0 Z"
                 style="fill:#ffffff;fill-opacity:1;fill-rule:nonzero;stroke:none"
                 id="path28" />
              <path
                 d="m 145.914,11.609 v -0.504 h 0.531 v 0.504 z m 0,3.86 v -3.176 h 0.531 v 3.176 h -0.531"
                 style="fill:#000000;fill-opacity:1;fill-rule:nonzero;stroke:none"
                 id="path30" />
              <path
                 d="m 147.133,12.961 v -0.434 h 2.91 v 0.434 z m 0,1.504 v -0.434 h 2.91 v 0.434 h -2.91"
                 style="fill:#000000;fill-opacity:1;fill-rule:nonzero;stroke:none"
                 id="path32" />
              <path
                 d="m 150.793,15.469 v -0.453 h 1.07 V 11.84 l -0.937,0.652 v -0.484 l 0.972,-0.684 h 0.485 v 3.692 h 1.019 v 0.453 h -2.609"
                 style="fill:#000000;fill-opacity:1;fill-rule:nonzero;stroke:none"
                 id="path34" />
              <path
                 d="m 155.375,11.273 c 1.137,0 1.422,0.918 1.422,2.125 0,1.204 -0.336,2.137 -1.438,2.137 -1.121,0 -1.437,-0.933 -1.437,-2.137 0,-1.222 0.285,-2.125 1.453,-2.125 z m -0.016,3.829 c 0.786,0 0.903,-0.821 0.903,-1.704 0,-0.886 -0.067,-1.707 -0.887,-1.707 -0.852,0 -0.918,0.801 -0.918,1.707 0,0.883 0.082,1.704 0.902,1.704"
                 style="fill:#000000;fill-opacity:1;fill-rule:nonzero;stroke:none"
                 id="path36" />
              <path
                 d="m 161.246,12.859 c 0.715,0 0.918,0.555 0.918,1.34 0,0.77 -0.219,1.305 -0.937,1.305 -0.7,0 -0.918,-0.555 -0.918,-1.305 0,-0.801 0.199,-1.34 0.937,-1.34 z m -2.66,2.61 h -0.469 l 2.707,-4.145 h 0.469 z m -1.34,-2.86 c -0.016,-0.785 0.219,-1.32 0.938,-1.32 0.718,0 0.921,0.551 0.921,1.32 0,0.77 -0.218,1.321 -0.921,1.321 -0.719,0 -0.938,-0.551 -0.938,-1.321 z m 3.981,2.575 c 0.468,0 0.503,-0.485 0.503,-0.985 0,-0.519 -0.015,-1.004 -0.484,-1.004 -0.488,0 -0.519,0.485 -0.519,1.004 0,0.485 0.031,0.985 0.5,0.985 z m -3.043,-1.586 c 0.453,0 0.468,-0.504 0.488,-0.989 0,-0.519 -0.02,-1 -0.488,-1 -0.485,0 -0.5,0.5 -0.5,1 0,0.504 0.031,0.989 0.5,0.989"
                 style="fill:#000000;fill-opacity:1;fill-rule:nonzero;stroke:none"
                 id="path38" />
              <path
                 d="m 165.977,12.227 c 0.918,0.015 1.168,0.683 1.168,1.636 0,0.953 -0.266,1.641 -1.168,1.672 -0.52,0 -0.821,-0.215 -1.004,-0.566 l 0.019,1.754 h -0.539 l -0.015,-4.43 h 0.519 l 0.035,0.5 c 0.164,-0.352 0.465,-0.566 0.985,-0.566 z m -0.133,2.906 c 0.668,0 0.75,-0.567 0.75,-1.254 0,-0.684 -0.098,-1.219 -0.75,-1.234 -0.703,0 -0.852,0.535 -0.852,1.269 0,0.719 0.164,1.219 0.852,1.219"
                 style="fill:#000000;fill-opacity:1;fill-rule:nonzero;stroke:none"
                 id="path40" />
              <path
                 d="m 169.754,14.867 c -0.25,0.352 -0.516,0.688 -1.137,0.668 -0.601,-0.015 -0.969,-0.351 -0.969,-0.953 -0.015,-1.066 1.055,-1.051 2.09,-1.051 0.051,-0.586 -0.152,-0.902 -0.683,-0.902 -0.403,0.016 -0.688,0.113 -0.703,0.516 l -0.551,-0.051 c 0.082,-0.617 0.551,-0.867 1.269,-0.867 0.754,0 1.203,0.332 1.203,1.07 v 1.371 c -0.015,0.332 0.118,0.535 0.469,0.449 v 0.336 c -0.519,0.149 -1.019,-0.035 -0.988,-0.586 z m -1.555,-0.285 c 0,0.336 0.199,0.551 0.535,0.551 0.688,-0.047 1.055,-0.481 1.004,-1.235 -0.718,0.032 -1.539,-0.085 -1.539,0.684"
                 style="fill:#000000;fill-opacity:1;fill-rule:nonzero;stroke:none"
                 id="path42" />
              <path
                 d="m 172.547,15.469 h -0.637 l -1.152,-3.176 h 0.566 l 0.906,2.758 0.934,-2.758 h 0.57"
                 style="fill:#000000;fill-opacity:1;fill-rule:nonzero;stroke:none"
                 id="path44" />
              <path
                 d="m 144.844,22.691 v -4.144 h 0.551 v 3.695 h 2.089 v 0.449 h -2.64"
                 style="fill:#000000;fill-opacity:1;fill-rule:nonzero;stroke:none"
                 id="path46" />
              <path
                 d="M 147.984,20.184 V 19.75 h 2.911 v 0.434 z m 0,1.504 v -0.434 h 2.911 v 0.434 h -2.911"
                 style="fill:#000000;fill-opacity:1;fill-rule:nonzero;stroke:none"
                 id="path48" />
              <path
                 d="m 151.461,20.855 h 1.473 v 0.465 h -1.473 z"
                 style="fill:#000000;fill-opacity:1;fill-rule:nonzero;stroke:none"
                 id="path50" />
              <path
                 d="m 156.43,21.523 c 0,0.77 -0.571,1.071 -1.356,1.102 v 0.484 h -0.367 v -0.484 c -0.82,-0.016 -1.32,-0.383 -1.453,-1.055 l 0.5,-0.097 c 0.082,0.468 0.418,0.683 0.953,0.718 v -1.453 c -0.637,-0.152 -1.269,-0.336 -1.269,-1.121 0.015,-0.703 0.55,-0.972 1.269,-0.988 v -0.383 h 0.367 v 0.383 c 0.754,0 1.121,0.336 1.27,0.937 l -0.516,0.098 c -0.086,-0.383 -0.301,-0.582 -0.754,-0.617 v 1.305 c 0.684,0.168 1.356,0.336 1.356,1.171 z m -1.356,0.684 c 0.852,0.117 1.188,-1.102 0.321,-1.285 -0.102,-0.035 -0.204,-0.067 -0.321,-0.102 z m -0.367,-3.176 c -0.785,-0.101 -1.055,0.953 -0.301,1.153 0.098,0.035 0.199,0.05 0.301,0.086 v -1.239"
                 style="fill:#000000;fill-opacity:1;fill-rule:nonzero;stroke:none"
                 id="path52" />
              <path
                 d="m 158.219,18.496 c 1.371,-0.117 1.554,1.453 0.719,2.207 l -1.04,0.918 c -0.183,0.184 -0.382,0.371 -0.484,0.621 h 2.16 v 0.449 h -2.742 c 0.031,-1.652 2.137,-1.57 2.137,-3.043 0,-0.468 -0.266,-0.718 -0.75,-0.718 -0.485,0 -0.77,0.25 -0.821,0.687 l -0.535,-0.051 c 0.102,-0.687 0.567,-1.003 1.356,-1.07"
                 style="fill:#000000;fill-opacity:1;fill-rule:nonzero;stroke:none"
                 id="path54" />
              <path
                 d="m 161.563,18.496 c 1.136,0 1.421,0.918 1.421,2.125 0,1.203 -0.336,2.141 -1.437,2.141 -1.121,0 -1.438,-0.938 -1.438,-2.141 0,-1.223 0.282,-2.125 1.454,-2.125 z m -0.016,3.828 c 0.785,0 0.902,-0.82 0.902,-1.703 0,-0.887 -0.066,-1.707 -0.886,-1.707 -0.856,0 -0.922,0.805 -0.922,1.707 0,0.883 0.086,1.703 0.906,1.703"
                 style="fill:#000000;fill-opacity:1;fill-rule:nonzero;stroke:none"
                 id="path56" />
              <path
                 d="m 163.77,22.059 h 0.566 v 0.633 h -0.566 z"
                 style="fill:#000000;fill-opacity:1;fill-rule:nonzero;stroke:none"
                 id="path58" />
              <path
                 d="m 166.578,18.496 c 1.137,0 1.422,0.918 1.422,2.125 0,1.203 -0.336,2.141 -1.437,2.141 -1.122,0 -1.442,-0.938 -1.442,-2.141 0,-1.223 0.285,-2.125 1.457,-2.125 z m -0.015,3.828 c 0.785,0 0.902,-0.82 0.902,-1.703 0,-0.887 -0.067,-1.707 -0.887,-1.707 -0.851,0 -0.918,0.805 -0.918,1.707 0,0.883 0.082,1.703 0.903,1.703"
                 style="fill:#000000;fill-opacity:1;fill-rule:nonzero;stroke:none"
                 id="path60" />
              <path
                 d="m 169.922,18.496 c 1.137,0 1.422,0.918 1.422,2.125 0,1.203 -0.336,2.141 -1.438,2.141 -1.121,0 -1.437,-0.938 -1.437,-2.141 0,-1.223 0.281,-2.125 1.453,-2.125 z m -0.016,3.828 c 0.785,0 0.903,-0.82 0.903,-1.703 0,-0.887 -0.067,-1.707 -0.887,-1.707 -0.852,0 -0.918,0.805 -0.918,1.707 0,0.883 0.082,1.703 0.902,1.703"
                 style="fill:#000000;fill-opacity:1;fill-rule:nonzero;stroke:none"
                 id="path62" />
              <path
                 d="m 173.266,18.496 c 1.136,0 1.422,0.918 1.422,2.125 0,1.203 -0.333,2.141 -1.438,2.141 -1.121,0 -1.437,-0.938 -1.437,-2.141 0,-1.223 0.285,-2.125 1.453,-2.125 z m -0.016,3.828 c 0.785,0 0.902,-0.82 0.902,-1.703 0,-0.887 -0.066,-1.707 -0.886,-1.707 -0.852,0 -0.918,0.805 -0.918,1.707 0,0.883 0.082,1.703 0.902,1.703"
                 style="fill:#000000;fill-opacity:1;fill-rule:nonzero;stroke:none"
                 id="path64" />
              <path
                 d="m 32.773,63.113 h 177.418 v 0.539 H 32.773 Z"
                 style="fill:#5e5e5e;fill-opacity:1;fill-rule:nonzero;stroke:none"
                 id="path66" />
              <path
                 d="m 32.781,63.652 h -0.277 v -0.539 h 0.277 z m 181.543,-0.269 -3.863,1.258 v -2.516 z"
                 style="fill:#5e5e5e;fill-opacity:1;fill-rule:nonzero;stroke:none"
                 id="path68" />
              <path
                 d="m 215.203,63.383 -5.012,1.625 v -3.25 z m -4.469,0.883 2.707,-0.883 -2.714,-0.883 z"
                 style="fill:#5e5e5e;fill-opacity:1;fill-rule:nonzero;stroke:none"
                 id="path70" />
              <g
                 id="g72">
                <path
                   d="m 86.676,63.652 v 38.059"
                   style="fill:none;stroke:#f70000;stroke-width:0.541734;stroke-linecap:butt;stroke-linejoin:miter;stroke-miterlimit:4;stroke-dasharray:none;stroke-opacity:1"
                   id="path74" />
              </g>
              <path
                 d="m 86.406,63.383 h 0.543 v 0.277 h -0.543 z"
                 style="fill:#5e5e5e;fill-opacity:1;fill-rule:nonzero;stroke:none"
                 id="path76" />
              <g
                 id="g78">
                <path
                   d="m 86.676,105.844 -1.254,-3.864 h 2.512 z"
                   style="fill:#f70000;fill-opacity:1;fill-rule:nonzero;stroke:#f70000;stroke-width:0.541734;stroke-linecap:butt;stroke-linejoin:miter;stroke-miterlimit:4;stroke-dasharray:none;stroke-opacity:1"
                   id="path80" />
              </g>
              <g
                 id="g82">
                <path
                   d="M 140.852,63.652 V 90.875"
                   style="fill:none;stroke:#f70000;stroke-width:0.541734;stroke-linecap:butt;stroke-linejoin:miter;stroke-miterlimit:4;stroke-dasharray:none;stroke-opacity:1"
                   id="path84" />
              </g>
              <path
                 d="m 140.578,63.383 h 0.543 v 0.277 h -0.543 z"
                 style="fill:#5e5e5e;fill-opacity:1;fill-rule:nonzero;stroke:none"
                 id="path86" />
              <g
                 id="g88">
                <path
                   d="m 140.852,95.008 -1.258,-3.86 h 2.515 z"
                   style="fill:#f70000;fill-opacity:1;fill-rule:nonzero;stroke:#f70000;stroke-width:0.541734;stroke-linecap:butt;stroke-linejoin:miter;stroke-miterlimit:4;stroke-dasharray:none;stroke-opacity:1"
                   id="path90" />
              </g>
              <g
                 id="g92">
                <path
                   d="M 195.023,63.652 V 74.625"
                   style="fill:none;stroke:#f70000;stroke-width:0.541734;stroke-linecap:butt;stroke-linejoin:miter;stroke-miterlimit:4;stroke-dasharray:none;stroke-opacity:1"
                   id="path94" />
              </g>
              <path
                 d="m 194.754,63.383 h 0.543 v 0.277 h -0.543 z"
                 style="fill:#5e5e5e;fill-opacity:1;fill-rule:nonzero;stroke:none"
                 id="path96" />
              <g
                 id="g98">
                <path
                   d="m 195.023,78.758 -1.257,-3.863 h 2.515 z"
                   style="fill:#f70000;fill-opacity:1;fill-rule:nonzero;stroke:#f70000;stroke-width:0.541734;stroke-linecap:butt;stroke-linejoin:miter;stroke-miterlimit:4;stroke-dasharray:none;stroke-opacity:1"
                   id="path100" />
              </g>
              <g
                 id="g102">
                <path
                   d="m 32.504,63.652 v 10.973 m 0,-10.965 v -0.277"
                   style="fill:none;stroke:#5e5e5e;stroke-width:0.541734;stroke-linecap:butt;stroke-linejoin:miter;stroke-miterlimit:4;stroke-dasharray:none;stroke-opacity:1"
                   id="path104" />
              </g>
              <g
                 id="g106">
                <path
                   d="m 32.504,78.758 -1.258,-3.863 h 2.516 z"
                   style="fill:#5e5e5e;fill-opacity:1;fill-rule:nonzero;stroke:#5e5e5e;stroke-width:0.541734;stroke-linecap:butt;stroke-linejoin:miter;stroke-miterlimit:4;stroke-dasharray:none;stroke-opacity:1"
                   id="path108" />
              </g>
              <g
                 id="g110">
                <path
                   d="m 32.773,63.113 h -0.539 v -2.98 h 0.539 z m 0,-8.758 H 32.234 V 19.637 h 0.539 z"
                   style="fill:#00c100;fill-opacity:1;fill-rule:nonzero;stroke:#00c100;stroke-width:0.361156;stroke-linecap:butt;stroke-linejoin:miter;stroke-miterlimit:4;stroke-dasharray:none;stroke-opacity:1"
                   id="path112" />
              </g>
              <path
                 d="m 33.762,19.367 h -2.516 l 1.258,-3.863 z"
                 style="fill:#00c100;fill-opacity:1;fill-rule:nonzero;stroke:none"
                 id="path114" />
              <g
                 id="g116">
                <path
                   d="m 34.129,19.637 h -3.25 l 1.625,-5.012 z m -2.508,-0.539 h 1.766 l -0.883,-2.719 z"
                   style="fill:#00c100;fill-opacity:1;fill-rule:nonzero;stroke:#00c100;stroke-width:0.361156;stroke-linecap:butt;stroke-linejoin:miter;stroke-miterlimit:4;stroke-dasharray:none;stroke-opacity:1"
                   id="path118" />
              </g>
              <path
                 d="m 32.52,54.848 c 0.91,0 1.121,0.722 1.121,1.699 0,0.992 -0.254,1.715 -1.149,1.715 -0.898,0 -1.125,-0.75 -1.137,-1.715 -0.015,-1.004 0.227,-1.699 1.165,-1.699 z m -0.016,2.89 c 0.496,-0.066 0.484,-0.613 0.484,-1.191 0,-0.574 0.051,-1.192 -0.484,-1.192 -0.52,0 -0.481,0.606 -0.481,1.192 0,0.578 -0.039,1.137 0.481,1.191"
                 style="fill:#000000;fill-opacity:1;fill-rule:nonzero;stroke:none"
                 id="path120" />
              <path
                 d="m 85.699,56.57 v -0.359 h 0.86 v -2.543 l -0.75,0.52 v -0.387 l 0.777,-0.547 h 0.387 v 2.957 h 0.816 v 0.359 h -2.09"
                 style="fill:#000000;fill-opacity:1;fill-rule:nonzero;stroke:none"
                 id="path122" />
              <path
                 d="m 140.863,53.211 c 1.098,-0.094 1.246,1.164 0.575,1.766 l -0.829,0.738 c -0.148,0.144 -0.308,0.293 -0.386,0.496 h 1.722 v 0.359 h -2.191 c 0.027,-1.324 1.711,-1.257 1.711,-2.433 0,-0.375 -0.215,-0.578 -0.602,-0.578 -0.386,0 -0.613,0.203 -0.656,0.55 l -0.426,-0.039 c 0.078,-0.55 0.453,-0.804 1.082,-0.859"
                 style="fill:#000000;fill-opacity:1;fill-rule:nonzero;stroke:none"
                 id="path124" />
              <path
                 d="m 195.371,54.871 c 0.442,0.078 0.777,0.266 0.777,0.789 0,1.176 -1.859,1.231 -2.195,0.387 -0.039,-0.106 -0.066,-0.215 -0.078,-0.332 l 0.426,-0.043 c 0.082,0.363 0.281,0.59 0.722,0.59 0.43,0 0.696,-0.199 0.696,-0.617 0,-0.508 -0.481,-0.614 -1.055,-0.575 v -0.375 c 0.52,0.016 0.961,-0.05 0.961,-0.558 0,-0.364 -0.227,-0.578 -0.613,-0.578 -0.375,0 -0.629,0.203 -0.657,0.55 L 193.93,54.07 c 0.078,-0.562 0.465,-0.843 1.082,-0.859 0.64,-0.012 1.054,0.281 1.054,0.871 0,0.481 -0.281,0.695 -0.695,0.789"
                 style="fill:#000000;fill-opacity:1;fill-rule:nonzero;stroke:none"
                 id="path126" />
              <path
                 d="M 16.484,7.93 H 15.918 L 14.23,3.785 h 0.586 L 16.199,7.43 17.59,3.785 h 0.601"
                 style="fill:#000000;fill-opacity:1;fill-rule:nonzero;stroke:none"
                 id="path128" />
              <path
                 d="m 18.711,3.785 c 1.453,0.016 3.191,-0.254 3.191,1.254 0,1.301 -1.285,1.336 -2.64,1.27 V 7.93 h -0.551 z m 0.551,2.09 c 0.953,0 2.074,0.184 2.074,-0.836 0,-0.988 -1.137,-0.789 -2.074,-0.805 v 1.641"
                 style="fill:#000000;fill-opacity:1;fill-rule:nonzero;stroke:none"
                 id="path130" />
              <path
                 d="M 22.52,5.422 V 4.988 h 2.914 v 0.434 z m 0,1.504 V 6.492 h 2.914 V 6.926 H 22.52"
                 style="fill:#000000;fill-opacity:1;fill-rule:nonzero;stroke:none"
                 id="path132" />
              <path
                 d="m 28.977,6.762 c 0,0.769 -0.571,1.066 -1.356,1.101 V 8.348 H 27.254 V 7.863 C 26.434,7.848 25.934,7.477 25.797,6.809 l 0.504,-0.098 c 0.082,0.469 0.418,0.684 0.953,0.719 V 5.973 C 26.617,5.824 25.984,5.641 25.984,4.855 26,4.152 26.535,3.883 27.254,3.867 V 3.484 h 0.367 v 0.383 c 0.754,0 1.121,0.336 1.27,0.938 L 28.375,4.902 C 28.289,4.52 28.074,4.316 27.621,4.285 V 5.59 c 0.688,0.168 1.356,0.332 1.356,1.172 z M 27.621,7.445 C 28.477,7.563 28.809,6.34 27.938,6.156 27.84,6.125 27.738,6.09 27.621,6.059 Z M 27.254,4.27 c -0.785,-0.102 -1.055,0.953 -0.301,1.152 0.098,0.035 0.199,0.051 0.301,0.086 V 4.27"
                 style="fill:#000000;fill-opacity:1;fill-rule:nonzero;stroke:none"
                 id="path134" />
              <path
                 d="m 29.98,5.555 c 0.801,-0.582 2.29,-0.133 2.188,1.019 0.184,1.656 -2.574,1.906 -2.859,0.438 l 0.539,-0.067 c 0.117,0.383 0.363,0.618 0.867,0.618 0.586,-0.016 0.851,-0.368 0.902,-0.969 0.067,-0.922 -1.219,-1.086 -1.652,-0.571 h -0.52 l 0.133,-2.238 h 2.36 v 0.449 h -1.875"
                 style="fill:#000000;fill-opacity:1;fill-rule:nonzero;stroke:none"
                 id="path136" />
              <path
                 d="m 34.109,3.734 c 1.137,0 1.422,0.918 1.422,2.125 0,1.204 -0.336,2.137 -1.437,2.137 -1.121,0 -1.438,-0.933 -1.438,-2.137 0,-1.222 0.282,-2.125 1.453,-2.125 z m -0.015,3.829 c 0.785,0 0.902,-0.821 0.902,-1.704 0,-0.886 -0.066,-1.707 -0.887,-1.707 -0.851,0 -0.918,0.801 -0.918,1.707 0,0.883 0.082,1.704 0.903,1.704"
                 style="fill:#000000;fill-opacity:1;fill-rule:nonzero;stroke:none"
                 id="path138" />
              <path
                 d="m 37.453,3.734 c 1.137,0 1.422,0.918 1.422,2.125 0,1.204 -0.336,2.137 -1.437,2.137 C 36.316,7.996 36,7.063 36,5.859 36,4.637 36.285,3.734 37.453,3.734 Z m -0.015,3.829 c 0.785,0 0.902,-0.821 0.902,-1.704 0,-0.886 -0.067,-1.707 -0.887,-1.707 -0.851,0 -0.922,0.801 -0.922,1.707 0,0.883 0.086,1.704 0.907,1.704"
                 style="fill:#000000;fill-opacity:1;fill-rule:nonzero;stroke:none"
                 id="path140" />
              <path
                 d="m 39.66,7.297 h 0.57 V 7.93 h -0.57 z"
                 style="fill:#000000;fill-opacity:1;fill-rule:nonzero;stroke:none"
                 id="path142" />
              <path
                 d="m 42.469,3.734 c 1.136,0 1.422,0.918 1.422,2.125 0,1.204 -0.336,2.137 -1.438,2.137 -1.121,0 -1.437,-0.933 -1.437,-2.137 0,-1.222 0.285,-2.125 1.453,-2.125 z m -0.016,3.829 c 0.785,0 0.902,-0.821 0.902,-1.704 0,-0.886 -0.066,-1.707 -0.886,-1.707 -0.852,0 -0.918,0.801 -0.918,1.707 0,0.883 0.082,1.704 0.902,1.704"
                 style="fill:#000000;fill-opacity:1;fill-rule:nonzero;stroke:none"
                 id="path144" />
              <path
                 d="m 45.813,3.734 c 1.136,0 1.421,0.918 1.421,2.125 0,1.204 -0.336,2.137 -1.437,2.137 -1.121,0 -1.438,-0.933 -1.438,-2.137 0,-1.222 0.282,-2.125 1.454,-2.125 z m -0.016,3.829 c 0.785,0 0.902,-0.821 0.902,-1.704 0,-0.886 -0.066,-1.707 -0.886,-1.707 -0.852,0 -0.918,0.801 -0.918,1.707 0,0.883 0.082,1.704 0.902,1.704"
                 style="fill:#000000;fill-opacity:1;fill-rule:nonzero;stroke:none"
                 id="path146" />
              <path
                 d="m 49.156,3.734 c 1.137,0 1.422,0.918 1.422,2.125 0,1.204 -0.332,2.137 -1.437,2.137 -1.121,0 -1.438,-0.933 -1.438,-2.137 0,-1.222 0.285,-2.125 1.453,-2.125 z m -0.015,3.829 c 0.785,0 0.902,-0.821 0.902,-1.704 0,-0.886 -0.066,-1.707 -0.887,-1.707 -0.851,0 -0.918,0.801 -0.918,1.707 0,0.883 0.082,1.704 0.903,1.704"
                 style="fill:#000000;fill-opacity:1;fill-rule:nonzero;stroke:none"
                 id="path148" />
              <g
                 id="g150">
                <path
                   d="m 32.504,79.906 v 2.688 m 0,2.679 v 5.379 m 0,2.68 v 5.379 m 0,2.68 v 5.379 m 0,2.679 v 2.692 m -4.063,-0.274 h 8.125"
                   style="fill:none;stroke:#5e5e5e;stroke-width:0.541734;stroke-linecap:butt;stroke-linejoin:miter;stroke-miterlimit:4;stroke-dasharray:none;stroke-opacity:1"
                   id="path152" />
              </g>
              <path
                 d="m 32.578,117.781 c -0.515,-0.148 -0.699,0.168 -0.633,0.735 h 0.633 v 0.386 h -0.633 v 2.793 h -0.519 v -2.793 h -0.449 v -0.386 h 0.449 c -0.117,-0.868 0.285,-1.368 1.152,-1.133 v 0.398"
                 style="fill:#000000;fill-opacity:1;fill-rule:nonzero;stroke:none"
                 id="path154" />
              <path
                 d="m 34.137,117.781 c -0.52,-0.148 -0.703,0.168 -0.637,0.735 h 0.637 v 0.386 H 33.5 v 2.793 h -0.52 v -2.793 h -0.453 v -0.386 h 0.453 c -0.117,-0.868 0.286,-1.368 1.157,-1.133 v 0.398"
                 style="fill:#000000;fill-opacity:1;fill-rule:nonzero;stroke:none"
                 id="path156" />
              <path
                 d="m 208.352,69.695 c 0.918,0.016 1.168,0.684 1.168,1.641 0,0.949 -0.266,1.637 -1.168,1.668 -0.52,0 -0.821,-0.215 -1.004,-0.566 l 0.015,1.753 h -0.535 l -0.015,-4.429 h 0.519 l 0.031,0.5 c 0.168,-0.352 0.469,-0.567 0.989,-0.567 z m -0.137,2.907 c 0.672,0 0.754,-0.567 0.754,-1.254 0,-0.684 -0.102,-1.219 -0.754,-1.235 -0.703,0 -0.852,0.535 -0.852,1.27 0,0.719 0.168,1.219 0.852,1.219"
                 style="fill:#000000;fill-opacity:1;fill-rule:nonzero;stroke:none"
                 id="path158" />
              <path
                 d="m 212.129,72.336 c -0.25,0.352 -0.52,0.687 -1.137,0.668 -0.601,-0.016 -0.969,-0.348 -0.969,-0.953 -0.019,-1.067 1.051,-1.051 2.09,-1.051 0.047,-0.586 -0.152,-0.902 -0.687,-0.902 -0.403,0.015 -0.684,0.113 -0.703,0.515 l -0.551,-0.05 c 0.086,-0.618 0.551,-0.868 1.273,-0.868 0.75,0 1.203,0.332 1.203,1.071 v 1.371 c -0.019,0.332 0.118,0.535 0.469,0.449 v 0.336 c -0.519,0.148 -1.019,-0.035 -0.988,-0.586 z m -1.555,-0.285 c 0,0.336 0.199,0.551 0.535,0.551 0.684,-0.047 1.051,-0.481 1.004,-1.235 -0.718,0.031 -1.539,-0.086 -1.539,0.684"
                 style="fill:#000000;fill-opacity:1;fill-rule:nonzero;stroke:none"
                 id="path160" />
              <path
                 d="m 214.922,72.938 h -0.637 l -1.152,-3.176 h 0.57 l 0.902,2.758 0.934,-2.758 h 0.57"
                 style="fill:#000000;fill-opacity:1;fill-rule:nonzero;stroke:none"
                 id="path162" />
              <g
                 id="g164">
                <path
                   d="M 87.313,106.656 194.711,79.699 m -107.391,26.953 -0.273,0.071"
                   style="fill:none;stroke:#5e5e5e;stroke-width:0.541734;stroke-linecap:butt;stroke-linejoin:miter;stroke-miterlimit:4;stroke-dasharray:none;stroke-opacity:1"
                   id="path166" />
              </g>
              <path
                 d="m 195.832,79.699 -1.059,0.266 -0.085,-0.328 h 1.128 z"
                 style="fill:#5e5e5e;fill-opacity:1;fill-rule:nonzero;stroke:none"
                 id="path168" />
              <g
                 id="g170">
                <path
                   d="m 86.594,106.98 -0.645,2.145 -0.121,0.359 m -0.867,2.469 -1.141,2.875 -0.871,1.965 m -1.117,2.367 -0.949,1.922 -1.488,2.711 m -1.344,2.246 -0.531,0.875 -1.684,2.543 -0.688,0.945 m -1.57,2.094 -0.933,1.176 -1.469,1.703 -1.02,1.09 m -1.867,1.84 -0.973,0.875 -1.117,0.929 -1.047,0.793 -0.949,0.661 m -2.254,1.335 -0.398,0.207 -0.789,0.372 -0.742,0.312 -0.715,0.27 -0.602,0.195 -0.191,0.055 -0.188,0.046 -0.199,0.04 -0.199,0.027 -0.207,0.027 -0.211,0.008 -0.215,0.008 h -0.227 l -0.054,-0.008 m -2.524,-0.637 -0.011,-0.007 -0.391,-0.18 -0.422,-0.219 -0.461,-0.262 -0.5,-0.316 -0.555,-0.379 -0.613,-0.461 -0.676,-0.558 -0.66,-0.583 m -1.84,-1.859 -0.07,-0.07 -1.074,-1.235 -1.203,-1.5 -0.934,-1.277 m -1.488,-2.16 -0.367,-0.547 -1.543,-2.527 -0.789,-1.414 m -1.235,-2.309 -1.117,-2.219 -1.137,-2.511 m -1.004,-2.418 -0.566,-1.411 -1.059,-2.98 -0.16,-0.535 m -0.761,-2.508 -0.555,-2.113 -0.465,-2.145 -0.144,-0.844 m -0.391,-2.593 -0.004,-0.067 -0.129,-1.422 -0.051,-1.125 m 54.481,5.922 0.082,-0.265"
                   style="fill:none;stroke:#3aa6dd;stroke-width:0.541734;stroke-linecap:butt;stroke-linejoin:miter;stroke-miterlimit:4;stroke-dasharray:none;stroke-opacity:1"
                   id="path172" />
              </g>
              <g
                 id="g174">
                <path
                   d="m 32.434,96.977 0.937,3.953 -2.5,-0.203 z"
                   style="fill:#3aa6dd;fill-opacity:1;fill-rule:nonzero;stroke:#3aa6dd;stroke-width:0.541734;stroke-linecap:butt;stroke-linejoin:miter;stroke-miterlimit:4;stroke-dasharray:none;stroke-opacity:1"
                   id="path176" />
              </g>
              <path
                 d="m 79.328,112.203 -0.012,0.11 h -1.164 l -1.031,-2.168 c -0.066,0.011 -0.144,0.015 -0.199,0.015 -0.094,0 -0.164,-0.012 -0.262,-0.027 l -0.426,1.644 c -0.015,0.055 -0.019,0.106 -0.019,0.161 0,0.16 0.125,0.269 0.523,0.269 h 0.133 l -0.027,0.109 h -2.239 l 0.028,-0.109 h 0.109 c 0.524,0 0.664,-0.195 0.727,-0.43 l 0.851,-3.418 c 0.012,-0.054 0.032,-0.117 0.032,-0.171 0,-0.141 -0.118,-0.254 -0.532,-0.254 h -0.132 l 0.027,-0.106 h 1.859 c 1.102,0 1.489,0.449 1.489,1.035 0,0.571 -0.489,1.032 -1.227,1.18 l 0.793,1.57 c 0.129,0.274 0.309,0.563 0.703,0.598 m -2.168,-4.109 -0.441,1.785 c 0.086,0.023 0.156,0.027 0.218,0.027 0.914,0 1.313,-0.394 1.313,-0.976 0,-0.743 -0.43,-0.856 -0.859,-0.856 -0.098,0 -0.161,0.008 -0.235,0.02 m 4.192,5.246 h -1.344 v -0.071 c 0.359,-0.015 0.461,-0.117 0.461,-0.386 v -2.184 c 0,-0.16 -0.043,-0.234 -0.145,-0.234 -0.051,0 -0.133,0.027 -0.219,0.054 l -0.132,0.055 v -0.07 l 0.871,-0.442 0.047,0.012 v 2.898 c 0,0.211 0.093,0.297 0.461,0.297 v 0.075 m 7.5,-3.239 h -4.055 v -0.453 h 4.055 v 0.453 m 0,1.375 h -4.055 v -0.453 h 4.055 v 0.453 m 4.058,-3.554 v 1.691 c 0.828,0.445 1,0.625 1.188,0.902 0.097,0.145 0.144,0.364 0.144,0.618 0,0.8 -0.539,1.054 -1.332,1.171 v 0.594 h -0.234 v -0.594 c -0.598,0 -0.903,-0.097 -1.281,-0.355 v -0.891 h 0.101 c 0.149,0.688 0.57,1.055 1.18,1.055 v -1.941 c -0.949,-0.536 -1.227,-0.821 -1.227,-1.399 0,-0.687 0.586,-0.996 1.227,-1.035 v -0.437 h 0.234 v 0.437 c 0.555,0.031 0.891,0.148 1.11,0.359 v 0.762 h -0.11 c -0.137,-0.566 -0.453,-0.871 -1,-0.941 m -0.234,1.586 v -1.586 c -0.488,0.097 -0.719,0.375 -0.719,0.722 0,0.305 0.137,0.469 0.719,0.864 m 0.234,0.785 v 1.82 c 0.555,-0.117 0.781,-0.332 0.781,-0.82 0,-0.418 -0.16,-0.633 -0.781,-1 m 3.301,0.89 h -0.117 c 0.004,-0.281 0.058,-0.625 0.297,-1.218 0.179,-0.442 0.351,-0.875 0.351,-1.289 0,-0.477 -0.324,-0.813 -0.746,-0.813 -0.332,0 -0.648,0.207 -0.648,0.426 0,0.254 0.265,0.281 0.265,0.508 0,0.172 -0.109,0.3 -0.285,0.3 -0.187,0 -0.328,-0.171 -0.328,-0.457 0,-0.566 0.469,-0.984 1.125,-0.984 0.672,0 1.254,0.422 1.254,1.09 0,0.418 -0.133,0.648 -0.723,1.351 -0.25,0.301 -0.371,0.614 -0.445,1.086 z m 0.316,0.813 c 0,0.199 -0.152,0.363 -0.359,0.363 -0.234,0 -0.375,-0.168 -0.375,-0.359 0,-0.203 0.164,-0.363 0.375,-0.363 0.191,0 0.359,0.171 0.359,0.363"
                 style="fill:#000000;fill-opacity:1;fill-rule:nonzero;stroke:none"
                 id="path178" />
              <path
                 d="m 132.715,104.879 -0.016,0.109 h -1.164 l -1.031,-2.168 c -0.07,0.012 -0.145,0.016 -0.199,0.016 -0.098,0 -0.164,-0.012 -0.262,-0.023 l -0.426,1.64 c -0.015,0.055 -0.023,0.106 -0.023,0.156 0,0.168 0.125,0.274 0.523,0.274 h 0.137 l -0.027,0.109 h -2.239 l 0.028,-0.109 h 0.109 c 0.523,0 0.66,-0.192 0.723,-0.426 l 0.855,-3.418 c 0.012,-0.055 0.031,-0.113 0.031,-0.172 0,-0.144 -0.117,-0.254 -0.531,-0.254 h -0.133 l 0.028,-0.109 h 1.859 c 1.106,0 1.488,0.453 1.488,1.039 0,0.566 -0.488,1.031 -1.222,1.176 l 0.789,1.578 c 0.133,0.273 0.312,0.558 0.707,0.59 m -2.168,-4.106 -0.446,1.789 c 0.09,0.02 0.165,0.028 0.223,0.028 0.914,0 1.313,-0.395 1.313,-0.977 0,-0.742 -0.426,-0.859 -0.86,-0.859 -0.093,0 -0.156,0.008 -0.234,0.019 m 4.578,4.582 -0.266,0.664 h -1.902 v -0.054 l 0.867,-0.922 c 0.457,-0.481 0.633,-0.852 0.633,-1.266 0,-0.445 -0.266,-0.683 -0.676,-0.683 -0.355,0 -0.523,0.152 -0.718,0.628 l -0.106,-0.027 c 0.106,-0.566 0.418,-0.961 1.016,-0.961 0.55,0 0.898,0.371 0.898,0.852 0,0.386 -0.191,0.75 -0.625,1.207 l -0.801,0.859 h 1.137 c 0.207,0 0.313,-0.055 0.469,-0.324 m 7.179,-2.547 h -4.05 v -0.453 h 4.05 v 0.457 m 0,1.375 h -4.05 v -0.453 h 4.05 v 0.449 m 4.059,-3.555 v 1.692 c 0.832,0.445 1.004,0.621 1.195,0.902 0.094,0.149 0.141,0.367 0.141,0.625 0,0.793 -0.543,1.055 -1.336,1.164 v 0.598 h -0.234 v -0.594 c -0.594,0 -0.899,-0.098 -1.278,-0.351 v -0.895 h 0.102 c 0.144,0.688 0.574,1.051 1.18,1.051 v -1.938 c -0.95,-0.539 -1.227,-0.82 -1.227,-1.398 0,-0.688 0.586,-0.996 1.227,-1.039 v -0.434 h 0.234 v 0.434 c 0.555,0.035 0.895,0.152 1.105,0.367 v 0.758 h -0.105 c -0.133,-0.571 -0.449,-0.867 -1,-0.942 m -0.234,1.586 v -1.586 c -0.489,0.102 -0.715,0.375 -0.715,0.723 0,0.305 0.14,0.469 0.715,0.863 m 0.238,0.785 v 1.821 c 0.555,-0.117 0.785,-0.332 0.785,-0.817 0,-0.421 -0.164,-0.632 -0.785,-1.004 m 3.293,0.883 h -0.117 c 0.007,-0.273 0.062,-0.621 0.304,-1.218 0.176,-0.438 0.352,-0.872 0.352,-1.286 0,-0.476 -0.332,-0.812 -0.754,-0.812 -0.328,0 -0.648,0.207 -0.648,0.426 0,0.254 0.265,0.281 0.265,0.511 0,0.168 -0.109,0.297 -0.281,0.297 -0.199,0 -0.332,-0.172 -0.332,-0.457 0,-0.566 0.465,-0.984 1.125,-0.984 0.668,0 1.254,0.418 1.254,1.09 0,0.418 -0.129,0.648 -0.723,1.351 -0.246,0.301 -0.375,0.614 -0.445,1.086 z m 0.316,0.821 c 0,0.195 -0.152,0.363 -0.355,0.363 -0.235,0 -0.371,-0.172 -0.371,-0.363 0,-0.207 0.16,-0.364 0.371,-0.364 0.187,0 0.355,0.172 0.355,0.364"
                 style="fill:#000000;fill-opacity:1;fill-rule:nonzero;stroke:none"
                 id="path180" />
              <path
                 d="m 186.887,89.582 -0.016,0.106 h -1.164 l -1.031,-2.165 c -0.071,0.012 -0.145,0.016 -0.199,0.016 -0.098,0 -0.161,-0.016 -0.258,-0.027 l -0.43,1.644 c -0.012,0.055 -0.023,0.102 -0.023,0.157 0,0.164 0.125,0.269 0.523,0.269 h 0.137 l -0.028,0.109 h -2.238 l 0.028,-0.109 h 0.109 c 0.523,0 0.664,-0.191 0.726,-0.426 l 0.852,-3.418 c 0.016,-0.054 0.035,-0.117 0.035,-0.175 0,-0.145 -0.121,-0.258 -0.531,-0.258 h -0.137 l 0.028,-0.106 h 1.859 c 1.105,0 1.492,0.449 1.492,1.035 0,0.571 -0.488,1.032 -1.226,1.18 l 0.793,1.57 c 0.128,0.274 0.308,0.563 0.703,0.598 m -2.168,-4.109 -0.446,1.789 c 0.09,0.019 0.164,0.023 0.223,0.023 0.914,0 1.316,-0.394 1.316,-0.972 0,-0.743 -0.429,-0.86 -0.863,-0.86 -0.094,0 -0.156,0 -0.23,0.016 m 2.562,2.781 -0.078,-0.02 c 0.141,-0.46 0.445,-0.785 0.953,-0.785 0.453,0 0.758,0.266 0.758,0.664 0,0.231 -0.121,0.477 -0.453,0.668 0.219,0.094 0.305,0.153 0.406,0.258 0.137,0.153 0.215,0.379 0.215,0.629 0,0.258 -0.082,0.496 -0.219,0.684 -0.234,0.312 -0.699,0.453 -1.133,0.453 -0.351,0 -0.539,-0.102 -0.539,-0.278 0,-0.101 0.082,-0.171 0.196,-0.171 0.082,0 0.164,0.027 0.297,0.125 0.179,0.125 0.281,0.148 0.417,0.148 0.356,0 0.629,-0.328 0.629,-0.742 0,-0.367 -0.171,-0.606 -0.507,-0.707 -0.106,-0.031 -0.215,-0.043 -0.493,-0.043 v -0.07 c 0.184,-0.063 0.309,-0.118 0.407,-0.176 0.242,-0.133 0.394,-0.352 0.394,-0.649 0,-0.332 -0.203,-0.496 -0.523,-0.496 -0.305,0 -0.528,0.153 -0.727,0.516 m 9.117,-0.77 h -4.047 v -0.453 h 4.047 v 0.453 m 0,1.379 h -4.047 v -0.453 h 4.047 v 0.453 m 4.063,-3.558 V 87 c 0.828,0.449 1,0.625 1.191,0.906 0.094,0.141 0.141,0.36 0.141,0.617 0,0.801 -0.543,1.059 -1.332,1.172 v 0.594 h -0.238 v -0.594 c -0.594,0 -0.899,-0.093 -1.278,-0.351 v -0.895 h 0.106 c 0.144,0.688 0.57,1.055 1.175,1.055 v -1.941 c -0.949,-0.536 -1.222,-0.817 -1.222,-1.399 0,-0.687 0.586,-0.996 1.222,-1.035 v -0.434 h 0.235 v 0.434 c 0.558,0.035 0.894,0.152 1.105,0.363 v 0.766 h -0.101 c -0.137,-0.57 -0.453,-0.871 -1.004,-0.942 m -0.235,1.582 v -1.582 c -0.488,0.094 -0.714,0.372 -0.714,0.723 0,0.301 0.14,0.469 0.718,0.859 m 0.235,0.786 v 1.82 c 0.554,-0.113 0.785,-0.328 0.785,-0.816 0,-0.422 -0.164,-0.633 -0.785,-1.004 m 3.293,0.882 h -0.117 c 0.011,-0.277 0.062,-0.625 0.304,-1.218 0.176,-0.442 0.352,-0.875 0.352,-1.289 0,-0.473 -0.332,-0.813 -0.75,-0.813 -0.332,0 -0.653,0.211 -0.653,0.43 0,0.254 0.266,0.281 0.266,0.508 0,0.171 -0.109,0.3 -0.281,0.3 -0.195,0 -0.332,-0.175 -0.332,-0.457 0,-0.57 0.469,-0.988 1.129,-0.988 0.664,0 1.25,0.422 1.25,1.09 0,0.422 -0.129,0.652 -0.719,1.355 -0.25,0.297 -0.375,0.614 -0.449,1.082 z m 0.316,0.817 c 0,0.195 -0.148,0.359 -0.355,0.359 -0.235,0 -0.371,-0.168 -0.371,-0.363 0,-0.207 0.16,-0.367 0.371,-0.367 0.187,0 0.355,0.176 0.355,0.367"
                 style="fill:#000000;fill-opacity:1;fill-rule:nonzero;stroke:none"
                 id="path182" />
            </g>
          </g>
        </g>
      </g>
      <g
         id="g184"
         transform="scale(1,-1)">
        <path
           d="M 24.918,-2.18 H 52.223 V -9.844 H 24.918 Z"
           style="fill:#ffffff;fill-opacity:1;fill-rule:nonzero;stroke:#ffffff;stroke-width:0.253376;stroke-linecap:butt;stroke-linejoin:miter;stroke-miterlimit:10;stroke-dasharray:none;stroke-opacity:1"
           id="path186" />
      </g>
      <g
         id="g188"
         transform="scale(1,-1)">
        <path
           d="m 151.324,-17.824 h 27.617 v -7.188 h -27.617 z"
           style="fill:#ffffff;fill-opacity:1;fill-rule:nonzero;stroke:#ffffff;stroke-width:0.253376;stroke-linecap:butt;stroke-linejoin:miter;stroke-miterlimit:10;stroke-dasharray:none;stroke-opacity:1"
           id="path190" />
      </g>
      <g
         id="g192"
         transform="scale(1,-1)">
        <path
           d="m 26.004,-117.207 h 9.09 v -8.93 h -9.09 z"
           style="fill:#ffffff;fill-opacity:1;fill-rule:nonzero;stroke:#ffffff;stroke-width:0.253376;stroke-linecap:butt;stroke-linejoin:miter;stroke-miterlimit:10;stroke-dasharray:none;stroke-opacity:1"
           id="path194" />
      </g>
      <g
         id="g196"
         transform="scale(1,-1)">
        <path
           d="m 91.371,-106.984 h 9.406 v -6.875 h -9.406 z"
           style="fill:#ffffff;fill-opacity:1;fill-rule:nonzero;stroke:#ffffff;stroke-width:0.253376;stroke-linecap:butt;stroke-linejoin:miter;stroke-miterlimit:10;stroke-dasharray:none;stroke-opacity:1"
           id="path198" />
      </g>
      <g
         id="g200"
         transform="scale(1,-1)">
        <path
           d="m 144.824,-98.406 h 9.883 v -7.508 h -9.883 z"
           style="fill:#ffffff;fill-opacity:1;fill-rule:nonzero;stroke:#ffffff;stroke-width:0.253376;stroke-linecap:butt;stroke-linejoin:miter;stroke-miterlimit:10;stroke-dasharray:none;stroke-opacity:1"
           id="path202" />
      </g>
      <g
         id="g204"
         transform="scale(1,-1)">
        <path
           d="m 199.719,-83.891 h 7.98 v -8.297 h -7.98 z"
           style="fill:#ffffff;fill-opacity:1;fill-rule:nonzero;stroke:#ffffff;stroke-width:0.253376;stroke-linecap:butt;stroke-linejoin:miter;stroke-miterlimit:10;stroke-dasharray:none;stroke-opacity:1"
           id="path206" />
      </g>
      <text
         xml:space="preserve"
         style="font-variant:normal;font-weight:normal;font-size:5.77849px;font-family:Arial;-inkscape-font-specification:ArialMT;writing-mode:lr-tb;fill:#212121;fill-opacity:1;fill-rule:nonzero;stroke:none"
         id="text220"
         x="26.364367"
         y="8.4002295"><tspan
           x="26.364367 29.578087 32.791809 36.005531 37.610981 40.824699 44.038422 47.252144 48.857594 53.030636 57.52533"
           y="8.4002295"
           sodipodi:role="line"
           id="tspan208">500.000 COP</tspan><tspan
           x="151.68539 153.60968 156.82339 160.03711 161.64256 164.85628 168.07001 171.28372 172.88918 177.06223 181.55692"
           y="22.846457"
           sodipodi:role="line"
           id="tspan210">-20.000 COP</tspan><tspan
           x="28.892456 32.106178"
           y="118.55271"
           sodipodi:role="line"
           id="tspan212">pf</tspan><tspan
           sodipodi:role="line"
           id="tspan214"
           y="112.77422"
           x="92.094696 96.267738 100.76244">COP</tspan><tspan
           x="145.54575 149.7188 154.21349"
           y="105.18996"
           sodipodi:role="line"
           id="tspan216">COP</tspan><tspan
           x="199.7191 203.89214 208.38683"
           y="90.021416"
           sodipodi:role="line"
           id="tspan218">COP</tspan></text>
    </g>
    <text
       xml:space="preserve"
       style="font-style:normal;font-variant:normal;font-weight:normal;font-stretch:normal;font-size:6px;font-family:Arial;-inkscape-font-specification:Arial;fill:#000000;stroke-width:0.75"
       x="88.946785"
       y="112.66592"
       id="text611"><tspan
         sodipodi:role="line"
         id="tspan609"
         style="font-style:normal;font-variant:normal;font-weight:normal;font-stretch:normal;font-size:6px;font-family:Arial;-inkscape-font-specification:Arial;stroke-width:0.75"
         x="88.946785"
         y="112.66592">?</tspan></text>
    <text
       xml:space="preserve"
       style="font-style:normal;font-variant:normal;font-weight:normal;font-stretch:normal;font-size:6px;font-family:Arial;-inkscape-font-specification:Arial;fill:#000000;stroke-width:0.75"
       x="142.28267"
       y="105.14673"
       id="text611-6"><tspan
         sodipodi:role="line"
         id="tspan609-8"
         style="font-style:normal;font-variant:normal;font-weight:normal;font-stretch:normal;font-size:6px;font-family:Arial;-inkscape-font-specification:Arial;stroke-width:0.75"
         x="142.28267"
         y="105.14673">?</tspan></text>
    <text
       xml:space="preserve"
       style="font-style:normal;font-variant:normal;font-weight:normal;font-stretch:normal;font-size:6px;font-family:Arial;-inkscape-font-specification:Arial;fill:#000000;stroke-width:0.75"
       x="196.72888"
       y="89.873039"
       id="text611-5"><tspan
         sodipodi:role="line"
         id="tspan609-85"
         style="font-style:normal;font-variant:normal;font-weight:normal;font-stretch:normal;font-size:6px;font-family:Arial;-inkscape-font-specification:Arial;stroke-width:0.75"
         x="196.72888"
         y="89.873039">?</tspan></text>
  </g>
</svg>
