<svg xmlns="http://www.w3.org/2000/svg" xmlns:xlink="http://www.w3.org/1999/xlink" xmlns:lucid="lucid" width="1032.71" height="443.17"><g transform="translate(1520 784.7555555555554)" lucid:page-tab-id="0_0"><path d="M-1806.4-1259.2H64V64h-1870.4z" fill="#fff"/><path d="M-753.07-518.76c0-3.3 2.7-6 6-6h228c3.32 0 6 2.7 6 6v48c0 3.32-2.68 6-6 6h-228c-3.3 0-6-2.68-6-6z" fill="none"/><use xlink:href="#a" transform="matrix(1,0,0,1,-753.0666666666666,-524.7555555555554) translate(114.04320987654322 34.44444444444444)"/><path d="M-760.18-758.76c0-3.3 2.7-6 6-6h228c3.32 0 6 2.7 6 6v48c0 3.32-2.68 6-6 6h-228c-3.3 0-6-2.68-6-6z" fill="none"/><use xlink:href="#b" transform="matrix(1,0,0,1,-760.1777777777777,-764.7555555555554) translate(53.05555555555556 34.44444444444444)"/><path d="M-560-614c0-3.3 2.7-6 6-6h40.7c3.32 0 6 2.7 6 6v48c0 3.3-2.68 6-6 6H-554c-3.3 0-6-2.7-6-6z" fill="none"/><use xlink:href="#c" transform="matrix(1,0,0,1,-560,-620) translate(11.685185185185185 34.44444444444444)"/><path d="M-1500-634c0-3.3 2.7-6 6-6h228c3.3 0 6 2.7 6 6v48c0 3.3-2.7 6-6 6h-228c-3.3 0-6-2.7-6-6z" fill="none"/><use xlink:href="#d" transform="matrix(1,0,0,1,-1500,-640) translate(75.61728395061728 34.44444444444444)"/><path d="M-1399-600h820.5M-1398.97-600h-1.03" stroke="#5e5e5e" stroke-width="2" fill="none"/><path d="M-563.24-600l-14.26 4.64v-9.28z" stroke="#5e5e5e" stroke-width="2" fill="#5e5e5e"/><path d="M-1380-634c0-3.3 2.7-6 6-6h228c3.3 0 6 2.7 6 6v48c0 3.3-2.7 6-6 6h-228c-3.3 0-6-2.7-6-6z" fill="none"/><use xlink:href="#e" transform="matrix(1,0,0,1,-1380,-640) translate(75.61728395061728 34.44444444444444)"/><path d="M-1260-634c0-3.3 2.7-6 6-6h228c3.3 0 6 2.7 6 6v48c0 3.3-2.7 6-6 6h-228c-3.3 0-6-2.7-6-6z" fill="none"/><use xlink:href="#f" transform="matrix(1,0,0,1,-1260,-640) translate(75.61728395061728 34.44444444444444)"/><path d="M-1140-634c0-3.3 2.7-6 6-6h228c3.3 0 6 2.7 6 6v48c0 3.3-2.7 6-6 6h-228c-3.3 0-6-2.7-6-6z" fill="none"/><use xlink:href="#g" transform="matrix(1,0,0,1,-1140,-640) translate(75.61728395061728 34.44444444444444)"/><path d="M-1020-634c0-3.3 2.7-6 6-6h228c3.3 0 6 2.7 6 6v48c0 3.3-2.7 6-6 6h-228c-3.3 0-6-2.7-6-6z" fill="none"/><use xlink:href="#h" transform="matrix(1,0,0,1,-1020,-640) translate(75.61728395061728 34.44444444444444)"/><path d="M-900-634c0-3.3 2.7-6 6-6h228c3.3 0 6 2.7 6 6v48c0 3.3-2.7 6-6 6h-228c-3.3 0-6-2.7-6-6z" fill="none"/><use xlink:href="#i" transform="matrix(1,0,0,1,-900,-640) translate(75.61728395061728 34.44444444444444)"/><path d="M-700-634c0-3.3 2.7-6 6-6h88c3.3 0 6 2.7 6 6v48c0 3.3-2.7 6-6 6h-88c-3.3 0-6-2.7-6-6z" fill="none"/><use xlink:href="#j" transform="matrix(1,0,0,1,-700,-640) translate(5.617283950617278 34.44444444444444)"/><path d="M-640-601v-80.5M-640-601.03v1.03" stroke="#5e5e5e" stroke-width="2" fill="none"/><path d="M-640-696.76l4.64 14.26h-9.28z" stroke="#5e5e5e" stroke-width="2" fill="#5e5e5e"/><path d="M-900-599v60.5" stroke="#5e5e5e" stroke-width="2" fill="none"/><path fill="#5e5e5e"/><path d="M-900-523.24l-4.64-14.26h9.28z" stroke="#5e5e5e" stroke-width="2" fill="#5e5e5e"/><path d="M-1020-596.78v58.28" stroke="#5e5e5e" stroke-width="2" fill="none"/><path fill="#5e5e5e"/><path d="M-1020-523.24l-4.64-14.26h9.28z" stroke="#5e5e5e" stroke-width="2" fill="#5e5e5e"/><path d="M-1140-595.1v56.6" stroke="#5e5e5e" stroke-width="2" fill="none"/><path fill="#5e5e5e"/><path d="M-1140-523.24l-4.64-14.26h9.28z" stroke="#5e5e5e" stroke-width="2" fill="#5e5e5e"/><path d="M-1260-599.45v54.28" stroke="#5e5e5e" stroke-width="2" fill="none"/><path fill="#5e5e5e"/><path d="M-1260-529.9l-4.64-14.27h9.28z" stroke="#5e5e5e" stroke-width="2" fill="#5e5e5e"/><path d="M-1259.5-526.67h359M-1259.5-526.67h-.5M-900.5-526.67h.5" stroke="#5e5e5e" fill="none"/><path d="M-1300-520h85.84v27.04H-1300z" fill="#fff" fill-opacity="0"/><path d="M-1281.6-499.76l-.04.4h-4.3l-3.8-8c-.25.04-.53.06-.74.06-.35 0-.6-.05-.96-.1l-1.58 6.07c-.05.2-.07.38-.07.58 0 .6.46 1 1.94 1h.48l-.1.4h-8.26l.1-.4h.4c1.94 0 2.45-.72 2.68-1.58l3.15-12.62c.04-.2.12-.43.12-.64 0-.52-.44-.93-1.96-.93h-.5l.1-.4h6.88c4.06 0 5.48 1.67 5.48 3.83 0 2.1-1.8 3.8-4.52 4.35l2.92 5.8c.48 1 1.14 2.07 2.6 2.2m-8-15.17l-1.63 6.6c.32.08.57.1.8.1 3.38 0 4.85-1.46 4.85-3.6 0-2.74-1.58-3.17-3.18-3.17-.35 0-.58.03-.86.08M-1274.13-495.53h-4.95v-.26c1.32-.07 1.7-.44 1.7-1.43v-8.06c0-.6-.16-.87-.54-.87-.18 0-.48.1-.8.2l-.5.2v-.26l3.22-1.63.17.05v10.7c0 .78.35 1.1 1.7 1.1v.27M-1246.44-507.48h-14.96v-1.67h14.96v1.67m0 5.08h-14.96v-1.67h14.96v1.67M-1231.46-515.53v6.25c3.07 1.65 3.7 2.3 4.4 3.33.35.53.53 1.34.53 2.28 0 2.95-2 3.9-4.93 4.32v2.2h-.86v-2.2c-2.2 0-3.33-.36-4.73-1.3v-3.3h.38c.54 2.54 2.1 3.9 4.35 3.9v-7.17c-3.5-1.98-4.52-3.02-4.52-5.16 0-2.54 2.15-3.68 4.52-3.83v-1.6h.86v1.6c2.06.12 3.3.55 4.1 1.33v2.82h-.4c-.5-2.1-1.67-3.22-3.7-3.48m-.86 5.85v-5.85c-1.8.36-2.65 1.38-2.65 2.67 0 1.12.5 1.73 2.65 3.18m.86 2.9v6.72c2.06-.43 2.9-1.22 2.9-3.02 0-1.55-.6-2.34-2.9-3.7M-1219.27-503.5h-.43c.02-1.03.22-2.3 1.1-4.5.67-1.63 1.3-3.23 1.3-4.76 0-1.75-1.2-3-2.76-3-1.22 0-2.4.77-2.4 1.58 0 .94.98 1.04.98 1.88 0 .63-.4 1.1-1.04 1.1-.7 0-1.22-.64-1.22-1.68 0-2.1 1.73-3.64 4.16-3.64 2.47 0 4.62 1.55 4.62 4.02 0 1.55-.48 2.4-2.66 5-.92 1.1-1.37 2.26-1.65 4zm1.17 3c0 .74-.56 1.35-1.32 1.35-.87 0-1.38-.63-1.38-1.34 0-.75.6-1.34 1.38-1.34.7 0 1.32.64 1.32 1.35"/><path d="M-1182.92-520h85.84v27.04h-85.84z" fill="#fff" fill-opacity="0"/><path d="M-1164.5-499.76l-.06.4h-4.3l-3.8-8c-.26.04-.54.06-.74.06-.36 0-.6-.05-.96-.1l-1.58 6.07c-.05.2-.08.38-.08.58 0 .6.46 1 1.93 1h.5l-.1.4h-8.26l.1-.4h.4c1.94 0 2.45-.72 2.68-1.58l3.15-12.62c.05-.2.12-.43.12-.64 0-.52-.44-.93-1.96-.93h-.5l.1-.4h6.87c4.08 0 5.5 1.67 5.5 3.83 0 2.1-1.8 3.8-4.52 4.35l2.92 5.8c.48 1 1.14 2.07 2.6 2.2m-8-15.17l-1.64 6.6c.33.08.6.1.82.1 3.37 0 4.85-1.46 4.85-3.6 0-2.74-1.58-3.17-3.18-3.17-.35 0-.58.03-.86.08M-1155.6-498l-.98 2.47h-7.02v-.2l3.2-3.4c1.68-1.78 2.33-3.15 2.33-4.67 0-1.64-.97-2.53-2.5-2.53-1.3 0-1.92.57-2.64 2.33l-.4-.1c.4-2.1 1.54-3.56 3.75-3.56 2.03 0 3.32 1.38 3.32 3.16 0 1.42-.7 2.76-2.3 4.45l-2.96 3.16h4.2c.76 0 1.14-.2 1.73-1.2M-1129.37-507.48h-14.95v-1.67h14.95v1.67m0 5.08h-14.95v-1.67h14.95v1.67M-1114.38-515.53v6.25c3.07 1.65 3.7 2.3 4.4 3.33.35.53.52 1.34.52 2.28 0 2.95-2 3.9-4.92 4.32v2.2h-.87v-2.2c-2.2 0-3.32-.36-4.72-1.3v-3.3h.38c.54 2.54 2.12 3.9 4.35 3.9v-7.17c-3.5-1.98-4.52-3.02-4.52-5.16 0-2.54 2.16-3.68 4.52-3.83v-1.6h.87v1.6c2.05.12 3.3.55 4.08 1.33v2.82h-.38c-.5-2.1-1.67-3.22-3.7-3.48m-.87 5.85v-5.85c-1.8.36-2.64 1.38-2.64 2.67 0 1.12.52 1.73 2.65 3.18m.87 2.9v6.72c2.05-.43 2.9-1.22 2.9-3.02 0-1.55-.6-2.34-2.9-3.7M-1102.2-503.5h-.43c.03-1.03.23-2.3 1.12-4.5.65-1.63 1.3-3.23 1.3-4.76 0-1.75-1.23-3-2.78-3-1.22 0-2.4.77-2.4 1.58 0 .94.98 1.04.98 1.88 0 .63-.4 1.1-1.04 1.1-.72 0-1.22-.64-1.22-1.68 0-2.1 1.72-3.64 4.16-3.64 2.46 0 4.62 1.55 4.62 4.02 0 1.55-.48 2.4-2.66 5-.92 1.1-1.38 2.26-1.65 4zm1.17 3c0 .74-.56 1.35-1.32 1.35-.86 0-1.37-.63-1.37-1.34 0-.75.6-1.34 1.37-1.34.7 0 1.32.64 1.32 1.35"/><path d="M-1062.92-520h85.84v27.04h-85.84z" fill="#fff" fill-opacity="0"/><path d="M-1044.5-499.76l-.06.4h-4.3l-3.8-8c-.26.04-.54.06-.74.06-.36 0-.6-.05-.96-.1l-1.58 6.07c-.05.2-.08.38-.08.58 0 .6.46 1 1.93 1h.5l-.1.4h-8.26l.1-.4h.4c1.94 0 2.45-.72 2.68-1.58l3.15-12.62c.05-.2.12-.43.12-.64 0-.52-.44-.93-1.96-.93h-.5l.1-.4h6.87c4.08 0 5.5 1.67 5.5 3.83 0 2.1-1.8 3.8-4.52 4.35l2.92 5.8c.48 1 1.14 2.07 2.6 2.2m-8-15.17l-1.64 6.6c.33.08.6.1.82.1 3.37 0 4.85-1.46 4.85-3.6 0-2.74-1.58-3.17-3.18-3.17-.35 0-.58.03-.86.08M-1043.03-504.68l-.3-.07c.53-1.7 1.66-2.9 3.53-2.9 1.67 0 2.8.98 2.8 2.45 0 .86-.46 1.76-1.67 2.48.8.34 1.12.55 1.5.95.5.55.78 1.38.78 2.3 0 .96-.3 1.84-.8 2.53-.87 1.15-2.58 1.67-4.18 1.67-1.3 0-2-.38-2-1.03 0-.37.3-.64.73-.64.3 0 .6.1 1.1.46.66.47 1.03.56 1.54.56 1.3 0 2.32-1.22 2.32-2.75 0-1.36-.63-2.24-1.87-2.6-.4-.13-.8-.18-1.83-.18v-.25c.68-.23 1.15-.43 1.5-.65.9-.5 1.46-1.3 1.46-2.4 0-1.22-.75-1.83-1.93-1.83-1.12 0-1.94.57-2.68 1.9M-1009.37-507.48h-14.95v-1.67h14.95v1.67m0 5.08h-14.95v-1.67h14.95v1.67M-994.38-515.53v6.25c3.07 1.65 3.7 2.3 4.4 3.33.35.53.52 1.34.52 2.28 0 2.95-2 3.9-4.92 4.32v2.2h-.87v-2.2c-2.2 0-3.32-.36-4.72-1.3v-3.3h.38c.54 2.54 2.12 3.9 4.35 3.9v-7.17c-3.5-1.98-4.52-3.02-4.52-5.16 0-2.54 2.16-3.68 4.52-3.83v-1.6h.87v1.6c2.05.12 3.3.55 4.08 1.33v2.82h-.38c-.5-2.1-1.67-3.22-3.7-3.48m-.87 5.85v-5.85c-1.8.36-2.64 1.38-2.64 2.67 0 1.12.52 1.73 2.65 3.18m.87 2.9v6.72c2.05-.43 2.9-1.22 2.9-3.02 0-1.55-.6-2.34-2.9-3.7M-982.2-503.5h-.43c.03-1.03.23-2.3 1.12-4.5.65-1.63 1.3-3.23 1.3-4.76 0-1.75-1.23-3-2.78-3-1.22 0-2.4.77-2.4 1.58 0 .94.98 1.04.98 1.88 0 .63-.4 1.1-1.04 1.1-.72 0-1.22-.64-1.22-1.68 0-2.1 1.72-3.64 4.16-3.64 2.46 0 4.62 1.55 4.62 4.02 0 1.55-.48 2.4-2.66 5-.92 1.1-1.38 2.26-1.65 4zm1.17 3c0 .74-.56 1.35-1.32 1.35-.86 0-1.37-.63-1.37-1.34 0-.75.6-1.34 1.37-1.34.7 0 1.32.64 1.32 1.35"/><path d="M-942.92-520h85.84v27.04h-85.84z" fill="#fff" fill-opacity="0"/><path d="M-924.5-499.76l-.06.4h-4.3l-3.8-8c-.26.04-.54.06-.74.06-.36 0-.6-.05-.96-.1l-1.58 6.07c-.05.2-.08.38-.08.58 0 .6.46 1 1.93 1h.5l-.1.4h-8.26l.1-.4h.4c1.94 0 2.45-.72 2.68-1.58l3.15-12.62c.05-.2.12-.43.12-.64 0-.52-.44-.93-1.96-.93h-.5l.1-.4h6.87c4.08 0 5.5 1.67 5.5 3.83 0 2.1-1.8 3.8-4.52 4.35l2.92 5.8c.48 1 1.14 2.07 2.6 2.2m-8-15.17l-1.64 6.6c.33.08.6.1.82.1 3.37 0 4.85-1.46 4.85-3.6 0-2.74-1.58-3.17-3.18-3.17-.35 0-.58.03-.86.08M-915.63-498.52h-1.85v3h-1.4v-3h-5.03v-1.15l5.63-8h.8v8h1.84v1.15m-3.25-1.15v-6.16l-4.3 6.16h4.3M-889.37-507.48h-14.95v-1.67h14.95v1.67m0 5.08h-14.95v-1.67h14.95v1.67M-874.38-515.53v6.25c3.07 1.65 3.7 2.3 4.4 3.33.35.53.52 1.34.52 2.28 0 2.95-2 3.9-4.92 4.32v2.2h-.87v-2.2c-2.2 0-3.32-.36-4.72-1.3v-3.3h.38c.54 2.54 2.12 3.9 4.35 3.9v-7.17c-3.5-1.98-4.52-3.02-4.52-5.16 0-2.54 2.16-3.68 4.52-3.83v-1.6h.87v1.6c2.05.12 3.3.55 4.08 1.33v2.82h-.38c-.5-2.1-1.67-3.22-3.7-3.48m-.87 5.85v-5.85c-1.8.36-2.64 1.38-2.64 2.67 0 1.12.52 1.73 2.65 3.18m.87 2.9v6.72c2.05-.43 2.9-1.22 2.9-3.02 0-1.55-.6-2.34-2.9-3.7M-862.2-503.5h-.43c.03-1.03.23-2.3 1.12-4.5.65-1.63 1.3-3.23 1.3-4.76 0-1.75-1.23-3-2.78-3-1.22 0-2.4.77-2.4 1.58 0 .94.98 1.04.98 1.88 0 .63-.4 1.1-1.04 1.1-.72 0-1.22-.64-1.22-1.68 0-2.1 1.72-3.64 4.16-3.64 2.46 0 4.62 1.55 4.62 4.02 0 1.55-.48 2.4-2.66 5-.92 1.1-1.38 2.26-1.65 4zm1.17 3c0 .74-.56 1.35-1.32 1.35-.86 0-1.37-.63-1.37-1.34 0-.75.6-1.34 1.37-1.34.7 0 1.32.64 1.32 1.35"/><path d="M-636.62-599v8.67m0 8.66v17.34m0 8.66v17.34m0 8.66v8.67M-636.62-598.97V-600M-636.62-521.03v1.03" stroke="#5e5e5e" stroke-width="2" fill="none"/><path d="M-1256.5-492.14l5.74 8.22m5.93 8.07l4.66 6.13 7.88 9.5m6.7 7.43l1.67 1.85 8.06 8.2 4.42 4.14m7.46 6.68l4.45 3.83 8.4 6.64 2.8 2.04m8.2 5.77l6.6 4.38 9.38 5.65 1.02.56m8.78 4.8l.08.05 10.52 5.18 7.52 3.33m9.25 3.84l6.75 2.66 12.07 4.18m9.58 2.93l6.8 2.05 12.54 3.2m9.76 2.23l14.28 3 5.37.9m9.88 1.65l8 1.33 11.83 1.47m9.94 1.23l6.75.83 13.2 1.06m9.98.82l13.55 1.1 6.43.34m10 .53l.8.04 19.24.5m10 .28l20.04.54m10 .27l4.62.1 15.42-.24m10.02-.16l11.04-.18 8.98-.53m10-.6l7.23-.42 12.72-1.3m9.95-1.08l14.7-2.12 5.1-.95m9.84-1.87l11.78-2.7 7.67-2.12m9.58-2.93l3.5-1.1 8.85-3.27 6.4-2.66m9.1-4.16l.08-.02 6.94-3.6 6.48-3.72 3.95-2.48m8.3-5.62l5.1-3.85 5.24-4.3 5.02-4.48.08-.1m7.08-7.08l2.32-2.45 4.5-5.2 4.4-5.5 1.6-2.22m5.74-8.2l1.1-1.66 4.08-6.68.1-.2" stroke="#c92d39" stroke-width="2" fill="none"/><path d="M-1255.66-492.7l-1.64 1.16-1-1.42h2.45z" fill="#c92d39"/><path d="M-634.56-461.88l-2.47 14.8-8.23-4.3z" stroke="#c92d39" stroke-width="2" fill="#c92d39"/><defs><path fill="#333" d="M101-234c-31-9-42 10-38 44h38v23H63V0H32v-167H5v-23h27c-7-52 17-82 69-68v24" id="k"/><g id="a"><use transform="matrix(0.06172839506172839,0,0,0.06172839506172839,0,0)" xlink:href="#k"/><use transform="matrix(0.06172839506172839,0,0,0.06172839506172839,5.7407407407407405,0)" xlink:href="#k"/></g><path fill="#333" d="M137 0h-34L2-248h35l83 218 83-218h36" id="l"/><path fill="#333" d="M63-220v92h138v28H63V0H30v-248h175v28H63" id="m"/><path fill="#333" d="M18-150v-26h174v26H18zm0 90v-26h174v26H18" id="n"/><path fill="#333" d="M194-70c0 46-34 64-81 66v29H91V-4C42-5 12-27 4-67l30-6c5 28 25 41 57 43v-87c-38-9-76-20-76-67 1-42 33-58 76-59v-23h22v23c45 0 67 20 76 56l-31 6c-5-23-18-35-45-37v78c41 10 81 20 81 70zm-81 41c51 7 71-66 19-77-6-2-12-4-19-6v83zM91-219c-47-6-63 57-18 69 6 2 12 3 18 5v-74" id="o"/><path fill="#333" d="M99-251c64 0 84 50 84 122C183-37 130 33 47-8c-14-7-20-23-25-40l30-5c6 39 69 39 84 7 9-19 16-44 16-74-10 22-31 35-62 35-49 0-73-33-73-83 0-54 28-83 82-83zm-1 141c31-1 51-18 51-49 0-36-14-67-51-67-34 0-49 23-49 58 0 34 15 58 49 58" id="p"/><path fill="#333" d="M101-251c68 0 85 55 85 127S166 4 100 4C33 4 14-52 14-124c0-73 17-127 87-127zm-1 229c47 0 54-49 54-102s-4-102-53-102c-51 0-55 48-55 102 0 53 5 102 54 102" id="q"/><path fill="#333" d="M33 0v-38h34V0H33" id="r"/><g id="b"><use transform="matrix(0.06172839506172839,0,0,0.06172839506172839,0,0)" xlink:href="#l"/><use transform="matrix(0.06172839506172839,0,0,0.06172839506172839,14.814814814814813,0)" xlink:href="#m"/><use transform="matrix(0.06172839506172839,0,0,0.06172839506172839,28.33333333333333,0)" xlink:href="#n"/><use transform="matrix(0.06172839506172839,0,0,0.06172839506172839,41.29629629629629,0)" xlink:href="#o"/><use transform="matrix(0.06172839506172839,0,0,0.06172839506172839,53.64197530864197,0)" xlink:href="#p"/><use transform="matrix(0.06172839506172839,0,0,0.06172839506172839,65.98765432098764,0)" xlink:href="#q"/><use transform="matrix(0.06172839506172839,0,0,0.06172839506172839,78.33333333333333,0)" xlink:href="#q"/><use transform="matrix(0.06172839506172839,0,0,0.06172839506172839,90.67901234567901,0)" xlink:href="#r"/><use transform="matrix(0.06172839506172839,0,0,0.06172839506172839,96.85185185185185,0)" xlink:href="#q"/><use transform="matrix(0.06172839506172839,0,0,0.06172839506172839,109.19753086419753,0)" xlink:href="#q"/><use transform="matrix(0.06172839506172839,0,0,0.06172839506172839,121.54320987654322,0)" xlink:href="#q"/></g><path fill="#333" d="M115-194c55 1 70 41 70 98S169 2 115 4C84 4 66-9 55-30l1 105H24l-1-265h31l2 30c10-21 28-34 59-34zm-8 174c40 0 45-34 45-75s-6-73-45-74c-42 0-51 32-51 76 0 43 10 73 51 73" id="s"/><path fill="#333" d="M59-47c-2 24 18 29 38 22v24C64 9 27 4 27-40v-127H5v-23h24l9-43h21v43h35v23H59v120" id="t"/><path fill="#333" d="M108 0H70L1-190h34L89-25l56-165h34" id="u"/><g id="c"><use transform="matrix(0.06172839506172839,0,0,0.06172839506172839,0,0)" xlink:href="#s"/><use transform="matrix(0.06172839506172839,0,0,0.06172839506172839,12.345679012345679,0)" xlink:href="#t"/><use transform="matrix(0.06172839506172839,0,0,0.06172839506172839,18.51851851851852,0)" xlink:href="#u"/></g><path fill="#333" d="M27 0v-27h64v-190l-56 39v-29l58-41h29v221h61V0H27" id="v"/><path fill="#333" d="M54-142c48-35 137-8 131 61C196 18 31 33 14-55l32-4c7 23 22 37 52 37 35-1 51-22 54-58 4-55-73-65-99-34H22l8-134h141v27H59" id="w"/><path fill="#333" d="M16-82v-28h88v28H16" id="x"/><path fill="#333" d="M110-160c48 1 74 30 74 79 0 53-28 85-80 85-65 0-83-55-86-122-5-90 50-162 133-122 14 7 22 21 27 39l-31 6c-5-40-67-38-82-6-9 19-15 44-15 74 11-20 30-34 60-33zm-7 138c34 0 49-23 49-58s-16-56-50-56c-29 0-50 16-49 49 1 36 15 65 50 65" id="y"/><g id="d"><use transform="matrix(0.06172839506172839,0,0,0.06172839506172839,0,0)" xlink:href="#v"/><use transform="matrix(0.06172839506172839,0,0,0.06172839506172839,12.345679012345679,0)" xlink:href="#w"/><use transform="matrix(0.06172839506172839,0,0,0.06172839506172839,24.691358024691358,0)" xlink:href="#x"/><use transform="matrix(0.06172839506172839,0,0,0.06172839506172839,32.03703703703704,0)" xlink:href="#v"/><use transform="matrix(0.06172839506172839,0,0,0.06172839506172839,44.382716049382715,0)" xlink:href="#q"/><use transform="matrix(0.06172839506172839,0,0,0.06172839506172839,56.72839506172839,0)" xlink:href="#x"/><use transform="matrix(0.06172839506172839,0,0,0.06172839506172839,64.07407407407408,0)" xlink:href="#p"/><use transform="matrix(0.06172839506172839,0,0,0.06172839506172839,76.41975308641976,0)" xlink:href="#y"/></g><path fill="#333" d="M64 0c3-98 48-159 88-221H18v-27h164v26C143-157 98-101 97 0H64" id="z"/><g id="e"><use transform="matrix(0.06172839506172839,0,0,0.06172839506172839,0,0)" xlink:href="#v"/><use transform="matrix(0.06172839506172839,0,0,0.06172839506172839,12.345679012345679,0)" xlink:href="#w"/><use transform="matrix(0.06172839506172839,0,0,0.06172839506172839,24.691358024691358,0)" xlink:href="#x"/><use transform="matrix(0.06172839506172839,0,0,0.06172839506172839,32.03703703703704,0)" xlink:href="#q"/><use transform="matrix(0.06172839506172839,0,0,0.06172839506172839,44.382716049382715,0)" xlink:href="#v"/><use transform="matrix(0.06172839506172839,0,0,0.06172839506172839,56.72839506172839,0)" xlink:href="#x"/><use transform="matrix(0.06172839506172839,0,0,0.06172839506172839,64.07407407407408,0)" xlink:href="#p"/><use transform="matrix(0.06172839506172839,0,0,0.06172839506172839,76.41975308641976,0)" xlink:href="#z"/></g><path fill="#333" d="M155-56V0h-30v-56H8v-25l114-167h33v167h35v25h-35zm-30-156c-27 46-58 90-88 131h88v-131" id="A"/><g id="f"><use transform="matrix(0.06172839506172839,0,0,0.06172839506172839,0,0)" xlink:href="#v"/><use transform="matrix(0.06172839506172839,0,0,0.06172839506172839,12.345679012345679,0)" xlink:href="#w"/><use transform="matrix(0.06172839506172839,0,0,0.06172839506172839,24.691358024691358,0)" xlink:href="#x"/><use transform="matrix(0.06172839506172839,0,0,0.06172839506172839,32.03703703703704,0)" xlink:href="#q"/><use transform="matrix(0.06172839506172839,0,0,0.06172839506172839,44.382716049382715,0)" xlink:href="#A"/><use transform="matrix(0.06172839506172839,0,0,0.06172839506172839,56.72839506172839,0)" xlink:href="#x"/><use transform="matrix(0.06172839506172839,0,0,0.06172839506172839,64.07407407407408,0)" xlink:href="#p"/><use transform="matrix(0.06172839506172839,0,0,0.06172839506172839,76.41975308641976,0)" xlink:href="#z"/></g><g id="g"><use transform="matrix(0.06172839506172839,0,0,0.06172839506172839,0,0)" xlink:href="#v"/><use transform="matrix(0.06172839506172839,0,0,0.06172839506172839,12.345679012345679,0)" xlink:href="#w"/><use transform="matrix(0.06172839506172839,0,0,0.06172839506172839,24.691358024691358,0)" xlink:href="#x"/><use transform="matrix(0.06172839506172839,0,0,0.06172839506172839,32.03703703703704,0)" xlink:href="#q"/><use transform="matrix(0.06172839506172839,0,0,0.06172839506172839,44.382716049382715,0)" xlink:href="#z"/><use transform="matrix(0.06172839506172839,0,0,0.06172839506172839,56.72839506172839,0)" xlink:href="#x"/><use transform="matrix(0.06172839506172839,0,0,0.06172839506172839,64.07407407407408,0)" xlink:href="#p"/><use transform="matrix(0.06172839506172839,0,0,0.06172839506172839,76.41975308641976,0)" xlink:href="#z"/></g><g id="h"><use transform="matrix(0.06172839506172839,0,0,0.06172839506172839,0,0)" xlink:href="#v"/><use transform="matrix(0.06172839506172839,0,0,0.06172839506172839,12.345679012345679,0)" xlink:href="#w"/><use transform="matrix(0.06172839506172839,0,0,0.06172839506172839,24.691358024691358,0)" xlink:href="#x"/><use transform="matrix(0.06172839506172839,0,0,0.06172839506172839,32.03703703703704,0)" xlink:href="#v"/><use transform="matrix(0.06172839506172839,0,0,0.06172839506172839,44.382716049382715,0)" xlink:href="#q"/><use transform="matrix(0.06172839506172839,0,0,0.06172839506172839,56.72839506172839,0)" xlink:href="#x"/><use transform="matrix(0.06172839506172839,0,0,0.06172839506172839,64.07407407407408,0)" xlink:href="#p"/><use transform="matrix(0.06172839506172839,0,0,0.06172839506172839,76.41975308641976,0)" xlink:href="#z"/></g><path fill="#333" d="M134-131c28 9 52 24 51 62-1 50-34 73-85 73S17-19 16-69c0-36 21-54 49-61-75-25-45-126 34-121 46 3 78 18 79 63 0 33-17 51-44 57zm-34-11c31 1 46-15 46-44 0-28-17-43-47-42-29 0-46 13-45 42 1 28 16 44 46 44zm1 122c35 0 51-18 51-52 0-30-18-46-53-46-33 0-51 17-51 47 0 34 19 51 53 51" id="B"/><g id="i"><use transform="matrix(0.06172839506172839,0,0,0.06172839506172839,0,0)" xlink:href="#v"/><use transform="matrix(0.06172839506172839,0,0,0.06172839506172839,12.345679012345679,0)" xlink:href="#w"/><use transform="matrix(0.06172839506172839,0,0,0.06172839506172839,24.691358024691358,0)" xlink:href="#x"/><use transform="matrix(0.06172839506172839,0,0,0.06172839506172839,32.03703703703704,0)" xlink:href="#q"/><use transform="matrix(0.06172839506172839,0,0,0.06172839506172839,44.382716049382715,0)" xlink:href="#v"/><use transform="matrix(0.06172839506172839,0,0,0.06172839506172839,56.72839506172839,0)" xlink:href="#x"/><use transform="matrix(0.06172839506172839,0,0,0.06172839506172839,64.07407407407408,0)" xlink:href="#p"/><use transform="matrix(0.06172839506172839,0,0,0.06172839506172839,76.41975308641976,0)" xlink:href="#B"/></g><g id="j"><use transform="matrix(0.06172839506172839,0,0,0.06172839506172839,0,0)" xlink:href="#v"/><use transform="matrix(0.06172839506172839,0,0,0.06172839506172839,12.345679012345679,0)" xlink:href="#w"/><use transform="matrix(0.06172839506172839,0,0,0.06172839506172839,24.691358024691358,0)" xlink:href="#x"/><use transform="matrix(0.06172839506172839,0,0,0.06172839506172839,32.03703703703704,0)" xlink:href="#q"/><use transform="matrix(0.06172839506172839,0,0,0.06172839506172839,44.382716049382715,0)" xlink:href="#A"/><use transform="matrix(0.06172839506172839,0,0,0.06172839506172839,56.72839506172839,0)" xlink:href="#x"/><use transform="matrix(0.06172839506172839,0,0,0.06172839506172839,64.07407407407408,0)" xlink:href="#p"/><use transform="matrix(0.06172839506172839,0,0,0.06172839506172839,76.41975308641976,0)" xlink:href="#B"/></g></defs></g></svg>