<svg xmlns="http://www.w3.org/2000/svg" xmlns:xlink="http://www.w3.org/1999/xlink" xmlns:lucid="lucid" width="1580" height="1470.35"><g transform="translate(64.66666666666652 401.1774861473277)" lucid:page-tab-id="0_0"><path d="M-1806.4-1259.2h3676.8v2582.4h-3676.8z" fill="#fff"/><path d="M424.67-333.18c0-3.3 2.68-6 6-6h228c3.3 0 6 2.7 6 6v48c0 3.32-2.7 6-6 6h-228c-3.32 0-6-2.68-6-6z" fill="none"/><use xlink:href="#a" transform="matrix(1,0,0,1,424.66666666666674,-339.1774861473277) translate(68.48765432098766 34.44444444444444)"/><use xlink:href="#b" transform="matrix(1,0,0,1,424.66666666666674,-339.1774861473277) translate(136.94444444444446 34.44444444444444)"/><path d="M155.33-75.18c0-3.3 2.7-6 6-6h228c3.32 0 6 2.7 6 6v48c0 3.32-2.68 6-6 6h-228c-3.3 0-6-2.68-6-6z" fill="none"/><use xlink:href="#c" transform="matrix(1,0,0,1,155.33333333333348,-81.17748614732773) translate(64.44444444444443 34.44444444444444)"/><path d="M1351.5-140.18H76.33v-2H1351.5z" fill="#5e5e5e"/><path d="M76.36-140.18h-1.03v-2h1.03zM1366.76-141.18l-14.26 4.64v-9.27z" fill="#5e5e5e"/><path d="M1370-141.18l-18.5 6v-12zm-16.5 3.26l10.03-3.26-10.03-3.26z" fill="#5e5e5e"/><path d="M275.33-140.18v40.5" stroke="#5e5e5e" stroke-width="2" fill="none"/><path d="M276.33-140.15h-2v-1.03h2z" fill="#5e5e5e"/><path d="M275.33-84.4L270.7-98.7h9.27z" stroke="#5e5e5e" stroke-width="2" fill="#5e5e5e"/><path d="M475.33-140.18v40.5" stroke="#5e5e5e" stroke-width="2" fill="none"/><path d="M476.33-140.15h-2v-1.03h2z" fill="#5e5e5e"/><path d="M475.33-84.4L470.7-98.7h9.27z" stroke="#5e5e5e" stroke-width="2" fill="#5e5e5e"/><path d="M675.33-140.18v40.5" stroke="#5e5e5e" stroke-width="2" fill="none"/><path d="M676.33-140.15h-2v-1.03h2z" fill="#5e5e5e"/><path d="M675.33-84.4L670.7-98.7h9.27z" stroke="#5e5e5e" stroke-width="2" fill="#5e5e5e"/><path d="M875.33-140.18v40.5" stroke="#5e5e5e" stroke-width="2" fill="none"/><path d="M876.33-140.15h-2v-1.03h2z" fill="#5e5e5e"/><path d="M875.33-84.4L870.7-98.7h9.27z" stroke="#5e5e5e" stroke-width="2" fill="#5e5e5e"/><path d="M75.33-140.18v40.5M75.33-140.15v-1.03" stroke="#5e5e5e" stroke-width="2" fill="none"/><path d="M75.33-84.4L70.7-98.7h9.27z" stroke="#5e5e5e" stroke-width="2" fill="#5e5e5e"/><path d="M76.33-142.18h-2v-11h2zm0-32.33h-2v-128.17h2z" fill="#5e5e5e"/><path fill="#5e5e5e"/><path d="M79.97-303.67H70.7l4.63-14.27z" fill="#5e5e5e"/><path d="M81.35-302.67H69.32l6-18.5zm-9.28-2h6.52l-3.27-10.03z" fill="#5e5e5e"/><use xlink:href="#d" transform="matrix(1,0,0,1,70.3950617283952,-174.50981948066106) translate(0.004999999999999893 14.222222222222223)"/><path d="M-44.67-75.18c0-3.3 2.7-6 6-6h228c3.32 0 6 2.7 6 6v48c0 3.32-2.68 6-6 6h-228c-3.3 0-6-2.68-6-6zM355.33-75.18c0-3.3 2.7-6 6-6h228c3.32 0 6 2.7 6 6v48c0 3.32-2.68 6-6 6h-228c-3.3 0-6-2.68-6-6z" stroke="#000" stroke-opacity="0" stroke-width="3" fill="#fff" fill-opacity="0"/><use xlink:href="#c" transform="matrix(1,0,0,1,360.3333333333335,-76.17748614732773) translate(59.444444444444436 30.27777777777778)"/><path d="M555.33-75.18c0-3.3 2.7-6 6-6h228c3.32 0 6 2.7 6 6v48c0 3.32-2.68 6-6 6h-228c-3.3 0-6-2.68-6-6z" stroke="#000" stroke-opacity="0" stroke-width="3" fill="#fff" fill-opacity="0"/><use xlink:href="#e" transform="matrix(1,0,0,1,560.3333333333335,-76.17748614732773) translate(59.444444444444436 30.27777777777778)"/><path d="M755.33-75.18c0-3.3 2.7-6 6-6h228c3.32 0 6 2.7 6 6v48c0 3.32-2.68 6-6 6h-228c-3.3 0-6-2.68-6-6z" stroke="#000" stroke-opacity="0" stroke-width="3" fill="#fff" fill-opacity="0"/><use xlink:href="#e" transform="matrix(1,0,0,1,760.3333333333335,-76.17748614732773) translate(59.444444444444436 30.27777777777778)"/><path d="M155.33-195.18c0-3.3 2.7-6 6-6h228c3.32 0 6 2.7 6 6v48c0 3.32-2.68 6-6 6h-228c-3.3 0-6-2.68-6-6z" stroke="#000" stroke-opacity="0" stroke-width="3" fill="#fff" fill-opacity="0"/><use xlink:href="#f" transform="matrix(1,0,0,1,160.33333333333348,-196.17748614732773) translate(110.06172839506173 29.84722222222222)"/><path d="M355.33-195.18c0-3.3 2.7-6 6-6h228c3.32 0 6 2.7 6 6v48c0 3.32-2.68 6-6 6h-228c-3.3 0-6-2.68-6-6z" stroke="#000" stroke-opacity="0" stroke-width="3" fill="#fff" fill-opacity="0"/><use xlink:href="#g" transform="matrix(1,0,0,1,360.3333333333335,-196.17748614732773) translate(110.06172839506173 29.84722222222222)"/><path d="M555.33-195.18c0-3.3 2.7-6 6-6h228c3.32 0 6 2.7 6 6v48c0 3.32-2.68 6-6 6h-228c-3.3 0-6-2.68-6-6z" stroke="#000" stroke-opacity="0" stroke-width="3" fill="#fff" fill-opacity="0"/><use xlink:href="#h" transform="matrix(1,0,0,1,560.3333333333335,-196.17748614732773) translate(110.06172839506173 29.84722222222222)"/><path d="M755.33-195.18c0-3.3 2.7-6 6-6h228c3.32 0 6 2.7 6 6v48c0 3.32-2.68 6-6 6h-228c-3.3 0-6-2.68-6-6z" stroke="#000" stroke-opacity="0" stroke-width="3" fill="#fff" fill-opacity="0"/><use xlink:href="#i" transform="matrix(1,0,0,1,760.3333333333335,-196.17748614732773) translate(110.06172839506173 29.84722222222222)"/><path d="M-44.67-375.18c0-3.3 2.7-6 6-6h228c3.32 0 6 2.7 6 6v48c0 3.32-2.68 6-6 6h-228c-3.3 0-6-2.68-6-6z" stroke="#000" stroke-opacity="0" stroke-width="3" fill="#fff" fill-opacity="0"/><use xlink:href="#j" transform="matrix(1,0,0,1,-39.666666666666515,-376.1774861473277) translate(47.407407407407405 30.27777777777778)"/><path d="M75.33-80.18v9.6m0 9.6v19.17m0 9.58v19.2m0 9.58v19.2m0 9.58v19.2m0 9.58V73.3m0 9.6v19.18m0 9.6v19.18m0 9.6v19.18m0 9.6v9.58M60.33 177.82h30" stroke="#5e5e5e" stroke-width="2" fill="none"/><path d="M-44.67 184.82c0-3.3 2.7-6 6-6h228c3.32 0 6 2.7 6 6v48c0 3.32-2.68 6-6 6h-228c-3.3 0-6-2.68-6-6z" stroke="#000" stroke-opacity="0" stroke-width="3" fill="#fff" fill-opacity="0"/><use xlink:href="#k" transform="matrix(1,0,0,1,-39.666666666666515,183.82251385267227) translate(109.04320987654322 30.27777777777778)"/><path d="M76-2.68l.3 4.88.54 5.05m1.2 9.9l1.05 7.16L81.12 35l.4 1.74m2.32 9.7l2.63 9.4 3.14 9.66m3.45 9.34l.48 1.28 4.2 10 3.3 6.98m4.48 8.9l2.1 4 5.7 9.9 2.14 3.34m5.42 8.36l5.65 8.15 6.05 7.97m6.27 7.74l3.6 4.34 9.12 10.14.44.46m6.97 7.1l2.62 2.67 11 10.34.84.72m7.54 6.5l3.74 3.24 11.75 9.3m8 5.92l8.27 6 8.08 5.38m8.3 5.5l17.05 10.3m8.72 4.84l11.8 6.48 5.78 2.87m8.93 4.43l7.18 3.56 10.9 4.84m9.1 4.05l4.2 1.88 14.24 5.64m9.27 3.66l3.24 1.28 15.53 5.4m9.4 3.28l4.52 1.56 14.5 4.38m9.53 2.87l8.27 2.5 10.94 2.8m9.65 2.48l14.68 3.76 4.65 1m9.75 2.07l19.5 4.14m9.77 1.85l19.65 3.32m9.82 1.65l6.06 1.03 13.67 1.72m9.88 1.25l19.77 2.5m9.93.83l19.85 1.66m9.93.84l5.8.5 14.1.58m9.95.4l19.9.85m9.97.1h19.92m9.97 0h9.84l10.08-.42m9.95-.4l19.9-.85m9.95-.55l19.86-1.67m9.93-.83l12.3-1.03 7.53-.95m9.88-1.25l19.78-2.5m9.86-1.4l19.64-3.3m9.83-1.67l7.94-1.34 11.62-2.46m9.74-2.07l16.84-3.58 2.63-.68m9.65-2.47l19.3-4.96m9.57-2.73l19.07-5.75m9.5-2.97l18.82-6.55m9.4-3.3l18.5-7.34m9.24-3.75l18.2-8.1m9-4.25l16.94-8.4.9-.5m8.73-4.8l10.18-5.58 7.1-4.3m8.54-5.17l2.27-1.37 14.37-9.55m8.12-5.78l8.4-6.1 7.47-5.93m7.74-6.27l10.23-8.82 4.68-4.4m7.24-6.85l9.12-9.32 4.6-5.1m6.57-7.5l6.28-7.58 6.1-8.02m5.77-8.12l2.64-3.8 6.3-9.9 1.78-3.1m4.9-8.66l4.23-8.07 4.6-9.8m3.88-9.17l.42-1 3.75-10.08 2.5-7.7m2.78-9.55l.9-3.27 2.48-10.5 1.08-5.64m1.67-9.82l.9-6.16 1.18-11.2.15-2.43m.6-9.95l.2-9.96" stroke="#0c7cba" stroke-width="2" fill="none"/><path d="M75.45-17.93l5.14 14.1-9.27.32z" stroke="#0c7cba" stroke-width="2" fill="#0c7cba"/><path d="M1274.98-20.13l-2-.04.02-1h2z" fill="#0c7cba"/><path d="M76.95-2.7l.48 4.53.78 5.27m1.8 9.72l1.5 6.4 1.92 6.87 1.87 5.76m3.46 9.25l2.17 5.16 3.1 6.62 3.2 6.08m4.98 8.54l3.3 5.18 4.6 6.62 3.37 4.43m6.2 7.7l1.02 1.2 6.07 6.76 6.36 6.5m7.2 6.77l.44.42 8.07 6.94 6.67 5.3m7.93 5.9l4.07 2.94 10.8 7.17 1.52.92m8.46 5.12l1.94 1.16 13.2 7.25 2.18 1.1m8.86 4.4l3.52 1.74 14.47 6.43m9.16 3.7l10.3 4.08 8.22 2.86m9.34 3.26l2.04.7 16.86 5.1m9.52 2.64l18.6 4.77.55.12m9.67 2.04l15.23 3.23 4.14.7m9.74 1.65l13.43 2.26 6.1.78m9.82 1.23l13 1.63 6.64.56m9.84.8l13.7 1.16 6.02.25m9.87.43l15.15.63h4.6m9.9 0h16.8l2.96-.13m9.87-.4l18.22-.77 1.54-.13m9.85-.83l18.82-1.58.88-.1m9.8-1.25l18.24-2.3 1.37-.23m9.76-1.65l16.17-2.74 3.3-.7m9.66-2.05l12.46-2.64 6.8-1.74m9.58-2.46l7.1-1.82 11.9-3.6m9.47-2.85l.15-.05 18.53-6.45m9.2-3.6l9.66-3.8 8.58-3.83m9-4.08l13.1-6.5 4.5-2.48m8.67-4.76l11.93-7.23 4.84-3.2m8.17-5.58l7.57-5.5 8.17-6.46m7.5-6.44l1.27-1.1 7.33-6.87 5.63-5.76m6.66-7.3l.46-.5 5.54-6.7 5.05-6.66 1.18-1.67m5.5-8.2l2.13-3.34 3.8-6.6 3.46-6.6.32-.67m4.08-9l1.52-3.62 2.5-6.72 2.2-6.8.42-1.48m2.48-9.56l.66-2.8 1.36-7.13 1.07-7.28.24-2.27m.85-9.85l.2-3 .13-6.88" stroke="#0c7cba" stroke-width="2" fill="none"/><path d="M76.17-17.94l5.36 14-9.26.5z" stroke="#0c7cba" stroke-width="2" fill="#0c7cba"/><path d="M874.98-20.13l-2-.04.02-1h2z" fill="#0c7cba"/><path d="M76.53-2.8l.07.34.82 3.5.96 3.44.87 2.66m3.88 9.54l.57 1.2 1.72 3.3 1.9 3.3 2.1 3.3 2.3 3.32 2.3 3.03m6.78 7.77l2.6 2.67L107.1 48l4.04 3.5 4.44 3.5.68.5m8.47 5.9l1.16.75 5.96 3.62 6.6 3.62 4.24 2.1m9.36 4.3l1.76.8 8.9 3.52 8.6 3m9.86 3.02l2.12.64 11.75 3 6.15 1.3m10.1 2l10.15 1.72 10.25 1.3m10.25 1.03l9.1.76 11.47.47m10.3.17h9.42l11.18-.47m10.3-.68l9.15-.78 11.33-1.43m10.18-1.6l6.6-1.1 12.74-2.72.87-.22m10-2.56l.88-.23 10.76-3.25 7.98-2.77m9.6-3.72l1.12-.44 8.07-3.6 7.3-3.62 2.14-1.18m8.93-5.15l1.5-.9 5.4-3.6 4.9-3.55 4.43-3.52.5-.43m7.64-6.93l2.9-2.97 3.04-3.38 2.78-3.35 2.52-3.32 1.94-2.8m5.27-8.84l.82-1.58 1.56-3.32 1.4-3.33 1.26-3.36 1.1-3.4.95-3.44.2-.8M473.3-9.9l.38-3.5.24-3.83.06-2.95" stroke="#0c7cba" stroke-width="2" fill="none"/><path d="M75-17.95l6.05 13.72-9.22.94z" stroke="#0c7cba" stroke-width="2" fill="#0c7cba"/><path d="M474.98-20.13l-2-.04.02-1h2z" fill="#0c7cba"/><path d="M258.17 38.82H368.3v27.04H258.16z" fill="#fff" fill-opacity="0"/><path d="M270.48 57.9h-5.28l.03-.4c1.27-.1 1.57-.6 1.57-2.28v-5.05c0-1.8-.6-2.57-1.85-2.57-.84 0-1.45.3-2.62 1.45v7c0 1 .36 1.36 1.65 1.46v.4h-5.36v-.4c1.3-.1 1.58-.5 1.58-2v-6.17c0-1.24-.18-1.65-.9-1.65-.27 0-.55.03-.73.1v-.43c1.4-.4 2.24-.7 3.48-1.14l.2.08v1.98h.03c1.32-1.5 2.5-2.05 3.66-2.05 1.93 0 3 1.4 3 3.92v5.6c0 1.38.3 1.66 1.54 1.8v.37M277.93 61.7h-4.95v-.26c1.33-.07 1.7-.45 1.7-1.43v-8.05c0-.6-.16-.88-.53-.88-.18 0-.5.1-.8.2l-.5.2v-.26l3.22-1.62.16.05v10.72c0 .77.36 1.1 1.7 1.1v.26M305.63 49.76h-14.96V48.1h14.96v1.66m0 5.08h-14.96v-1.67h14.96v1.67M325.94 54.4l-1.37 3.5h-9.93v-.32l4.52-4.8c2.4-2.5 3.3-4.44 3.3-6.6 0-2.3-1.37-3.58-3.53-3.58-1.82 0-2.7.8-3.73 3.3l-.53-.12c.53-2.98 2.16-5.06 5.28-5.06 2.87 0 4.7 1.96 4.7 4.47 0 2-1 3.9-3.25 6.3l-4.2 4.46h5.95c1.07 0 1.6-.28 2.44-1.7M337 46.26v1.95c1.1-1.38 2.22-2 3.65-2 2.46 0 4.24 2.27 4.24 5.42 0 3.68-2.32 6.52-5.35 6.52-1.06 0-1.65-.25-2.56-1.1v4c0 1.6.32 1.88 2.22 1.9v.46h-6.14v-.43c1.5-.16 1.78-.43 1.78-1.75v-11.9c0-1.18-.18-1.44-1.04-1.44-.23 0-.4 0-.64.03v-.4c1.4-.43 2.3-.76 3.66-1.3m.15 3.2v6.25c0 .77 1.44 1.68 2.63 1.68 1.83 0 3.07-1.9 3.07-4.7 0-2.97-1.24-4.9-3.12-4.9-1.17 0-2.6.9-2.6 1.68M349.64 50.24l2.64 1.6c1.62 1 2.23 1.68 2.23 3.13 0 1.7-1.6 3.17-3.54 3.17-.54 0-1.27-.02-1.86-.23-.6-.2-.9-.2-1.17-.2-.3 0-.45.04-.6.3H347v-4h.4c.53 2.47 1.47 3.58 3.23 3.58 1.3 0 2.1-.83 2.1-1.88 0-.78-.5-1.44-1.34-1.9l-1.38-.76c-2.1-1.17-3.05-2.4-3.05-3.68 0-2 1.42-3.13 3.5-3.13.6 0 1.17.03 1.7.28.3.14.54.22.72.22.1 0 .2-.03.4-.26h.27l.13 3.45h-.38c-.6-2.27-1.35-3.1-2.87-3.1-1.1 0-1.9.52-1.9 1.72 0 .56.38 1.3 1.1 1.72M367.67 46.46v.38c-.77.08-.97.28-1.65 1.98l-3.25 8.15c-.4.94-.56 1.27-.72 1.27-.15 0-.28-.2-.45-.66-.08-.12-.1-.3-.2-.53l-3.05-7.3c-1.1-2.6-1.35-2.86-2.3-2.9v-.4H361v.4c-.85.07-1.16.25-1.16.68 0 .25.08.58.23.96l2.6 6.5 2.5-6.58c.1-.26.16-.5.16-.77 0-.48-.38-.73-1.2-.8v-.4h3.54"/><path d="M567.5 138.82h110.12v27.04H567.5z" fill="#fff" fill-opacity="0"/><path d="M579.82 157.9h-5.3l.04-.4c1.27-.1 1.57-.6 1.57-2.28v-5.05c0-1.8-.6-2.57-1.85-2.57-.84 0-1.45.3-2.62 1.45v7c0 1 .36 1.36 1.66 1.46v.4h-5.36v-.4c1.3-.1 1.57-.5 1.57-2v-6.17c0-1.24-.18-1.65-.9-1.65-.27 0-.55.03-.72.1v-.43c1.4-.4 2.24-.7 3.5-1.14l.2.08v1.98c1.33-1.5 2.5-2.05 3.67-2.05 1.93 0 3 1.4 3 3.92v5.6c0 1.38.3 1.66 1.55 1.8v.37M588.7 159.25l-.97 2.46h-7.02v-.2l3.2-3.4c1.7-1.77 2.34-3.14 2.34-4.66 0-1.64-.97-2.54-2.5-2.54-1.28 0-1.9.58-2.63 2.34l-.37-.1c.38-2.1 1.53-3.56 3.74-3.56 2.02 0 3.32 1.38 3.32 3.16 0 1.4-.7 2.76-2.3 4.45l-2.97 3.15h4.2c.75 0 1.13-.2 1.72-1.2M614.96 149.76H600v-1.67h14.96v1.66m0 5.08H600v-1.67h14.96v1.67M635.25 153.65h-2.6v4.24h-2v-4.25h-7.1v-1.63l7.97-11.3h1.12v11.3h2.6v1.63m-4.58-1.63v-8.7l-6.1 8.7h6.1M646.32 146.26v1.95c1.12-1.38 2.24-2 3.66-2 2.46 0 4.24 2.27 4.24 5.42 0 3.68-2.3 6.52-5.33 6.52-1.08 0-1.66-.25-2.58-1.1v4c0 1.6.33 1.88 2.24 1.9v.46h-6.15v-.43c1.5-.16 1.8-.43 1.8-1.75v-11.9c0-1.18-.2-1.44-1.05-1.44-.23 0-.4 0-.64.03v-.4c1.4-.43 2.33-.76 3.67-1.3m.15 3.2v6.25c0 .77 1.45 1.68 2.64 1.68 1.83 0 3.08-1.9 3.08-4.7 0-2.97-1.25-4.9-3.13-4.9-1.15 0-2.58.9-2.58 1.68M658.97 150.24l2.64 1.6c1.64 1 2.25 1.68 2.25 3.13 0 1.7-1.63 3.17-3.56 3.17-.54 0-1.28-.02-1.86-.23-.6-.2-.9-.2-1.17-.2-.3 0-.46.04-.6.3h-.34v-4h.4c.54 2.47 1.48 3.58 3.23 3.58 1.3 0 2.1-.83 2.1-1.88 0-.78-.5-1.44-1.34-1.9l-1.37-.76c-2.1-1.17-3.05-2.4-3.05-3.68 0-2 1.43-3.13 3.5-3.13.62 0 1.18.03 1.7.28.3.14.54.22.72.22.1 0 .2-.03.4-.26h.3l.1 3.45h-.37c-.58-2.27-1.34-3.1-2.87-3.1-1.1 0-1.9.52-1.9 1.72 0 .56.38 1.3 1.1 1.72M677 146.46v.38c-.76.08-.97.28-1.65 1.98l-3.25 8.15c-.38.94-.56 1.27-.7 1.27-.16 0-.3-.2-.47-.66-.08-.12-.1-.3-.2-.53l-3.05-7.3c-1.1-2.6-1.35-2.86-2.3-2.9v-.4h4.97v.4c-.87.07-1.17.25-1.17.68 0 .25.07.58.23.96l2.6 6.5 2.5-6.58c.1-.26.16-.5.16-.77 0-.48-.38-.73-1.2-.8v-.4H677"/><path d="M898.17 234.26h110.12v27.04H898.16z" fill="#fff" fill-opacity="0"/><path d="M910.48 253.33h-5.28l.03-.38c1.27-.1 1.57-.6 1.57-2.3v-5.04c0-1.8-.6-2.56-1.85-2.56-.84 0-1.45.3-2.62 1.45v7c0 1 .36 1.35 1.65 1.45v.38h-5.36v-.38c1.3-.1 1.58-.5 1.58-2v-6.18c0-1.24-.18-1.65-.9-1.65-.27 0-.55.03-.73.1v-.43c1.4-.42 2.24-.7 3.48-1.15l.2.07v1.98h.03c1.32-1.5 2.5-2.05 3.66-2.05 1.93 0 3 1.4 3 3.9v5.62c0 1.37.3 1.65 1.54 1.78v.38M911.96 248l-.3-.08c.53-1.7 1.66-2.9 3.53-2.9 1.66 0 2.8.98 2.8 2.46 0 .86-.48 1.76-1.68 2.47.8.34 1.1.56 1.5.96.5.56.78 1.4.78 2.32 0 .95-.3 1.83-.83 2.5-.86 1.16-2.57 1.68-4.16 1.68-1.3 0-2-.37-2-1.02 0-.38.32-.65.73-.65.3 0 .6.1 1.1.47.66.47 1.04.56 1.54.56 1.33 0 2.34-1.22 2.34-2.75 0-1.35-.62-2.23-1.86-2.6-.4-.12-.8-.17-1.83-.17v-.25c.7-.24 1.16-.43 1.5-.65.9-.5 1.47-1.3 1.47-2.4 0-1.23-.75-1.84-1.94-1.84-1.1 0-1.94.57-2.67 1.9M945.63 245.2h-14.96v-1.67h14.96v1.67m0 5.08h-14.96v-1.67h14.96v1.68M965.23 235.96l.05.4c-3.98.67-6.83 3.4-7.5 7.24 1.23-.96 2.1-1.14 3.2-1.14 2.98 0 4.8 2.03 4.8 5.3 0 1.63-.45 3.05-1.28 4.07-.94 1.17-2.37 1.85-4.04 1.85-2 0-3.6-.94-4.5-2.56-.7-1.3-1.2-3.1-1.2-4.88 0-2.74.98-5.15 2.78-7 2.18-2.3 4.2-2.9 7.7-3.28m-1.73 12.6c0-3.26-1.06-4.93-3.42-4.93-1.45 0-2.95.6-2.95 2.94 0 3.86 1.22 6.4 3.6 6.4 1.84 0 2.78-1.82 2.78-4.42M977 241.7v1.95c1.1-1.4 2.22-2 3.65-2 2.46 0 4.24 2.26 4.24 5.4 0 3.7-2.32 6.53-5.35 6.53-1.06 0-1.65-.25-2.56-1.1v4c0 1.6.32 1.88 2.22 1.9v.46h-6.14v-.43c1.5-.14 1.78-.42 1.78-1.74v-11.9c0-1.18-.18-1.44-1.04-1.44-.23 0-.4 0-.64.03v-.4c1.4-.44 2.3-.77 3.66-1.3m.15 3.2v6.24c0 .76 1.44 1.67 2.63 1.67 1.83 0 3.07-1.9 3.07-4.7 0-2.97-1.24-4.9-3.12-4.9-1.17 0-2.6.92-2.6 1.68M989.64 245.7l2.64 1.6c1.62.98 2.23 1.66 2.23 3.1 0 1.7-1.6 3.18-3.54 3.18-.54 0-1.27-.02-1.86-.23-.6-.2-.9-.22-1.17-.22-.3 0-.45.05-.6.3H987v-4h.4c.53 2.48 1.47 3.6 3.23 3.6 1.3 0 2.1-.84 2.1-1.88 0-.8-.5-1.45-1.34-1.9l-1.38-.77c-2.1-1.17-3.05-2.4-3.05-3.68 0-2 1.42-3.13 3.5-3.13.6 0 1.17.03 1.7.28.3.13.54.2.72.2.1 0 .2-.02.4-.25h.27l.13 3.46h-.38c-.6-2.3-1.35-3.13-2.87-3.13-1.1 0-1.9.53-1.9 1.73 0 .56.38 1.3 1.1 1.73M1007.67 241.9v.38c-.77.08-.97.28-1.65 1.98l-3.25 8.15c-.4.95-.56 1.28-.72 1.28-.15 0-.28-.2-.45-.66-.08-.12-.1-.3-.2-.53l-3.05-7.3c-1.1-2.6-1.35-2.87-2.3-2.92v-.38h4.96v.38c-.85.08-1.16.26-1.16.7 0 .24.08.57.23.95l2.6 6.5 2.5-6.57c.1-.26.16-.5.16-.76 0-.5-.38-.74-1.2-.82v-.38h3.54"/><path d="M1075.33-140.18v40.5" stroke="#5e5e5e" stroke-width="2" fill="none"/><path d="M1076.33-140.15h-2v-1.03h2z" fill="#5e5e5e"/><path d="M1075.33-84.4l-4.63-14.28h9.27z" stroke="#5e5e5e" stroke-width="2" fill="#5e5e5e"/><path d="M1275.33-140.18v40.5" stroke="#5e5e5e" stroke-width="2" fill="none"/><path d="M1276.33-140.15h-2v-1.03h2z" fill="#5e5e5e"/><path d="M1275.33-84.4l-4.63-14.28h9.27z" stroke="#5e5e5e" stroke-width="2" fill="#5e5e5e"/><path d="M955.33-195.18c0-3.3 2.7-6 6-6h228c3.32 0 6 2.7 6 6v48c0 3.32-2.68 6-6 6h-228c-3.3 0-6-2.68-6-6z" stroke="#000" stroke-opacity="0" stroke-width="3" fill="#fff" fill-opacity="0"/><use xlink:href="#l" transform="matrix(1,0,0,1,960.3333333333335,-196.17748614732773) translate(110.06172839506173 29.84722222222222)"/><path d="M1155.33-195.18c0-3.3 2.7-6 6-6h228c3.32 0 6 2.7 6 6v48c0 3.32-2.68 6-6 6h-228c-3.3 0-6-2.68-6-6z" stroke="#000" stroke-opacity="0" stroke-width="3" fill="#fff" fill-opacity="0"/><use xlink:href="#m" transform="matrix(1,0,0,1,1160.3333333333335,-196.17748614732773) translate(110.06172839506173 29.84722222222222)"/><path d="M1155.33-75.18c0-3.3 2.7-6 6-6h228c3.32 0 6 2.7 6 6v48c0 3.32-2.68 6-6 6h-228c-3.3 0-6-2.68-6-6z" stroke="#000" stroke-opacity="0" stroke-width="3" fill="#fff" fill-opacity="0"/><use xlink:href="#n" transform="matrix(1,0,0,1,1160.3333333333335,-76.17748614732773) translate(53.271604938271594 30.27777777777778)"/><path d="M955.33-75.18c0-3.3 2.7-6 6-6h228c3.32 0 6 2.7 6 6v48c0 3.32-2.68 6-6 6h-228c-3.3 0-6-2.68-6-6z" stroke="#000" stroke-opacity="0" stroke-width="3" fill="#fff" fill-opacity="0"/><use xlink:href="#o" transform="matrix(1,0,0,1,960.3333333333335,-76.17748614732773) translate(59.444444444444436 30.27777777777778)"/><path d="M437.62 386.82c0-3.3 2.7-6 6-6h228c3.32 0 6 2.7 6 6v48c0 3.32-2.68 6-6 6h-228c-3.3 0-6-2.68-6-6z" fill="none"/><use xlink:href="#p" transform="matrix(1,0,0,1,437.6216802454768,380.8225138526723) translate(52.43827160493828 21.111111111111114)"/><use xlink:href="#q" transform="matrix(1,0,0,1,437.6216802454768,380.8225138526723) translate(151.75925925925927 21.111111111111114)"/><use xlink:href="#r" transform="matrix(1,0,0,1,437.6216802454768,380.8225138526723) translate(85.12345679012347 47.777777777777786)"/><path d="M1351.5 579.82H76.33v-2H1351.5z" fill="#5e5e5e"/><path d="M76.36 579.82h-1.03v-2h1.03zM1366.76 578.82l-14.26 4.64v-9.27z" fill="#5e5e5e"/><path d="M1370 578.82l-18.5 6v-12zm-16.5 3.26l10.03-3.26-10.03-3.26z" fill="#5e5e5e"/><path d="M475.33 579.82v40.5" stroke="#5e5e5e" stroke-width="2" fill="none"/><path d="M476.33 579.85h-2v-1.03h2z" fill="#5e5e5e"/><path d="M475.33 635.6l-4.63-14.28h9.27z" stroke="#5e5e5e" stroke-width="2" fill="#5e5e5e"/><path d="M875.33 579.82v40.5" stroke="#5e5e5e" stroke-width="2" fill="none"/><path d="M876.33 579.85h-2v-1.03h2z" fill="#5e5e5e"/><path d="M875.33 635.6l-4.63-14.28h9.27z" stroke="#5e5e5e" stroke-width="2" fill="#5e5e5e"/><path d="M75.33 579.82v40.5M75.33 579.85v-1.03" stroke="#5e5e5e" stroke-width="2" fill="none"/><path d="M75.33 635.6L70.7 621.3h9.27z" stroke="#5e5e5e" stroke-width="2" fill="#5e5e5e"/><path d="M76.33 577.82h-2v-11h2zm0-32.33h-2V417.32h2z" fill="#5e5e5e"/><path fill="#5e5e5e"/><path d="M79.97 416.33H70.7l4.63-14.27z" fill="#5e5e5e"/><path d="M81.35 417.33H69.32l6-18.5zm-9.28-2h6.52l-3.27-10.03z" fill="#5e5e5e"/><use xlink:href="#d" transform="matrix(1,0,0,1,70.3950617283952,545.490180519339) translate(0.004999999999999893 14.222222222222223)"/><path d="M-44.67 644.82c0-3.3 2.7-6 6-6h228c3.32 0 6 2.7 6 6v48c0 3.32-2.68 6-6 6h-228c-3.3 0-6-2.68-6-6zM355.33 644.82c0-3.3 2.7-6 6-6h228c3.32 0 6 2.7 6 6v48c0 3.32-2.68 6-6 6h-228c-3.3 0-6-2.68-6-6zM755.33 644.82c0-3.3 2.7-6 6-6h228c3.32 0 6 2.7 6 6v48c0 3.32-2.68 6-6 6h-228c-3.3 0-6-2.68-6-6zM355.33 524.82c0-3.3 2.7-6 6-6h228c3.32 0 6 2.7 6 6v48c0 3.32-2.68 6-6 6h-228c-3.3 0-6-2.68-6-6z" stroke="#000" stroke-opacity="0" stroke-width="3" fill="#fff" fill-opacity="0"/><use xlink:href="#f" transform="matrix(1,0,0,1,360.3333333333335,523.8225138526723) translate(110.06172839506173 29.84722222222222)"/><path d="M755.33 524.82c0-3.3 2.7-6 6-6h228c3.32 0 6 2.7 6 6v48c0 3.32-2.68 6-6 6h-228c-3.3 0-6-2.68-6-6z" stroke="#000" stroke-opacity="0" stroke-width="3" fill="#fff" fill-opacity="0"/><use xlink:href="#g" transform="matrix(1,0,0,1,760.3333333333335,523.8225138526723) translate(110.06172839506173 29.84722222222222)"/><path d="M-44.67 344.82c0-3.3 2.7-6 6-6h228c3.32 0 6 2.7 6 6v48c0 3.32-2.68 6-6 6h-228c-3.3 0-6-2.68-6-6z" stroke="#000" stroke-opacity="0" stroke-width="3" fill="#fff" fill-opacity="0"/><use xlink:href="#j" transform="matrix(1,0,0,1,-39.666666666666515,343.8225138526723) translate(47.407407407407405 30.27777777777778)"/><path d="M75.33 639.82v9.6m0 9.6v19.17m0 9.58v19.2m0 9.58v19.2m0 9.58v19.2m0 9.58v19.18m0 9.6v19.18m0 9.6v19.18m0 9.6v19.18m0 9.6v9.58M60.33 897.82h30" stroke="#5e5e5e" stroke-width="2" fill="none"/><path d="M-44.67 904.82c0-3.3 2.7-6 6-6h228c3.32 0 6 2.7 6 6v48c0 3.32-2.68 6-6 6h-228c-3.3 0-6-2.68-6-6z" stroke="#000" stroke-opacity="0" stroke-width="3" fill="#fff" fill-opacity="0"/><use xlink:href="#k" transform="matrix(1,0,0,1,-39.666666666666515,903.8225138526723) translate(109.04320987654322 30.27777777777778)"/><path d="M76 717.32l.3 4.88.54 5.05m1.2 9.9l1.05 7.16 2.03 10.7.4 1.74m2.32 9.7l2.63 9.4 3.14 9.66m3.45 9.34l.48 1.28 4.2 10 3.3 6.98m4.48 8.9l2.1 4 5.7 9.9 2.14 3.34m5.42 8.36l5.65 8.15 6.05 7.97m6.27 7.74l3.6 4.34 9.12 10.14.44.46m6.97 7.1l2.62 2.67 11 10.34.84.72m7.54 6.5l3.74 3.24 11.75 9.3m8 5.92l8.27 6 8.08 5.38m8.3 5.5l17.05 10.3m8.72 4.84l11.8 6.48 5.78 2.87m8.93 4.43l7.18 3.56 10.9 4.84m9.1 4.05l4.2 1.88 14.24 5.64m9.27 3.66l3.24 1.28 15.53 5.4m9.4 3.28l4.52 1.56 14.5 4.38m9.53 2.87l8.27 2.5 10.94 2.8m9.65 2.48l14.68 3.76 4.65 1m9.75 2.07l19.5 4.14m9.77 1.85l19.65 3.32m9.82 1.65l6.06 1.03 13.67 1.72m9.88 1.25l19.77 2.5m9.93.83l19.85 1.66m9.93.84l5.8.5 14.1.58m9.95.4l19.9.85m9.97.1h19.92m9.97 0h9.84l10.08-.42m9.95-.4l19.9-.85m9.95-.55l19.86-1.67m9.93-.83l12.3-1.03 7.53-.95m9.88-1.25l19.78-2.5m9.86-1.4l19.64-3.3m9.83-1.67l7.94-1.34 11.62-2.46m9.74-2.07l16.84-3.58 2.63-.68m9.65-2.47l19.3-4.96m9.57-2.73l19.07-5.75m9.5-2.97l18.82-6.55m9.4-3.3l18.5-7.34m9.24-3.75l18.2-8.1m9-4.25l16.94-8.4.9-.5m8.73-4.8l10.18-5.58 7.1-4.3m8.54-5.17l2.27-1.37 14.37-9.55m8.12-5.78l8.4-6.1 7.47-5.93m7.74-6.27l10.23-8.82 4.68-4.4m7.24-6.85l9.12-9.32 4.6-5.1m6.57-7.5l6.28-7.58 6.1-8.02m5.77-8.12l2.64-3.8 6.3-9.9 1.78-3.1m4.9-8.66l4.23-8.07 4.6-9.8m3.88-9.17l.42-1 3.75-10.08 2.5-7.7m2.78-9.55l.9-3.27 2.48-10.5 1.08-5.64m1.67-9.82l.9-6.16 1.18-11.2.15-2.43m.6-9.95l.2-9.96" stroke="#0c7cba" stroke-width="2" fill="none"/><path d="M75.45 702.07l5.14 14.1-9.27.32z" stroke="#0c7cba" stroke-width="2" fill="#0c7cba"/><path d="M1274.98 699.87l-2-.04.02-1h2z" fill="#0c7cba"/><path d="M76.95 717.3l.48 4.53.78 5.27m1.8 9.72l1.5 6.4 1.92 6.87 1.87 5.76m3.46 9.25l2.17 5.16 3.1 6.62 3.2 6.08m4.98 8.54l3.3 5.18 4.6 6.62 3.37 4.43m6.2 7.7l1.02 1.2 6.07 6.76 6.36 6.5m7.2 6.77l.44.42 8.07 6.94 6.67 5.3m7.93 5.9l4.07 2.94 10.8 7.17 1.52.92m8.46 5.12l1.94 1.16 13.2 7.25 2.18 1.1m8.86 4.4l3.52 1.74 14.47 6.43m9.16 3.7l10.3 4.08 8.22 2.86m9.34 3.26l2.04.7 16.86 5.1m9.52 2.64l18.6 4.77.55.12m9.67 2.04l15.23 3.23 4.14.7m9.74 1.65l13.43 2.26 6.1.78m9.82 1.23l13 1.63 6.64.56m9.84.8l13.7 1.16 6.02.25m9.87.43l15.15.63h4.6m9.9 0h16.8l2.96-.13m9.87-.4l18.22-.77 1.54-.13m9.85-.83l18.82-1.58.88-.1m9.8-1.25l18.24-2.3 1.37-.23m9.76-1.65l16.17-2.74 3.3-.7m9.66-2.05l12.46-2.64 6.8-1.74m9.58-2.46l7.1-1.82 11.9-3.6m9.47-2.85l.15-.05 18.53-6.45m9.2-3.6l9.66-3.8 8.58-3.83m9-4.08l13.1-6.5 4.5-2.48m8.67-4.76l11.93-7.23 4.84-3.2m8.17-5.58l7.57-5.5 8.17-6.46m7.5-6.44l1.27-1.1 7.33-6.87 5.63-5.76m6.66-7.3l.46-.5 5.54-6.7 5.05-6.66 1.18-1.67m5.5-8.2l2.13-3.34 3.8-6.6 3.46-6.6.32-.67m4.08-9l1.52-3.62 2.5-6.72 2.2-6.8.42-1.48m2.48-9.56l.66-2.8 1.36-7.13 1.07-7.28.24-2.27m.85-9.85l.2-3 .13-6.88" stroke="#0c7cba" stroke-width="2" fill="none"/><path d="M76.17 702.06l5.36 14-9.26.5z" stroke="#0c7cba" stroke-width="2" fill="#0c7cba"/><path d="M874.98 699.87l-2-.04.02-1h2z" fill="#0c7cba"/><path d="M76.53 717.2l.07.34.82 3.5.96 3.44.87 2.66m3.88 9.54l.57 1.2 1.72 3.3 1.9 3.3 2.1 3.3 2.3 3.32 2.3 3.03m6.78 7.77l2.6 2.67 3.68 3.44 4.04 3.5 4.44 3.5.68.5m8.47 5.9l1.16.75 5.96 3.62 6.6 3.62 4.24 2.1m9.36 4.3l1.76.8 8.9 3.52 8.6 3m9.86 3.02l2.12.64 11.75 3 6.15 1.3m10.1 2l10.15 1.72 10.25 1.3m10.25 1.03l9.1.76 11.47.47m10.3.17h9.42l11.18-.47m10.3-.68l9.15-.78 11.33-1.43m10.18-1.6l6.6-1.1 12.74-2.72.87-.22m10-2.56l.88-.23 10.76-3.25 7.98-2.77m9.6-3.72l1.12-.44 8.07-3.6 7.3-3.62 2.14-1.18m8.93-5.15l1.5-.9 5.4-3.6 4.9-3.55 4.43-3.52.5-.43m7.64-6.93l2.9-2.97 3.04-3.38 2.78-3.35 2.52-3.32 1.94-2.8m5.27-8.84l.82-1.58 1.56-3.32 1.4-3.33 1.26-3.36 1.1-3.4.95-3.44.2-.8m1.86-10.13l.38-3.5.24-3.83.06-2.95" stroke="#0c7cba" stroke-width="2" fill="none"/><path d="M75 702.05l6.05 13.72-9.22.94z" stroke="#0c7cba" stroke-width="2" fill="#0c7cba"/><path d="M474.98 699.87l-2-.04.02-1h2z" fill="#0c7cba"/><path d="M258.17 758.82H369.7v27.04H258.16z" fill="#fff" fill-opacity="0"/><path d="M270.48 777.9h-5.28l.03-.4c1.27-.1 1.57-.6 1.57-2.28v-5.05c0-1.8-.6-2.57-1.85-2.57-.84 0-1.45.3-2.62 1.45v7c0 1 .36 1.36 1.65 1.46v.4h-5.36v-.4c1.3-.1 1.58-.5 1.58-2v-6.17c0-1.24-.18-1.65-.9-1.65-.27 0-.55.03-.73.1v-.43c1.4-.4 2.24-.7 3.48-1.14l.2.08v1.98h.03c1.32-1.5 2.5-2.05 3.66-2.05 1.93 0 3 1.4 3 3.92v5.6c0 1.38.3 1.66 1.54 1.8v.37M277.93 781.7h-4.95v-.26c1.33-.07 1.7-.45 1.7-1.43v-8.05c0-.6-.16-.88-.53-.88-.18 0-.5.1-.8.2l-.5.2v-.26l3.22-1.62.16.05v10.72c0 .77.36 1.1 1.7 1.1v.26M305.63 769.76h-14.96v-1.67h14.96v1.66m0 5.08h-14.96v-1.67h14.96v1.67M323.9 777.9h-7v-.4c1.88-.1 2.42-.63 2.42-2.02v-11.4c0-.87-.23-1.25-.77-1.25-.25 0-.68.13-1.14.3l-.67.26v-.37l4.54-2.3.23.07v15.16c0 1.1.5 1.55 2.4 1.55v.4M337 766.26v1.95c1.1-1.38 2.22-2 3.65-2 2.46 0 4.24 2.27 4.24 5.42 0 3.68-2.32 6.52-5.35 6.52-1.06 0-1.65-.25-2.56-1.1v4c0 1.6.32 1.88 2.22 1.9v.46h-6.14v-.43c1.5-.16 1.78-.43 1.78-1.75v-11.9c0-1.18-.18-1.44-1.04-1.44-.23 0-.4 0-.64.03v-.4c1.4-.43 2.3-.76 3.66-1.3m.15 3.2v6.25c0 .77 1.44 1.68 2.63 1.68 1.83 0 3.07-1.9 3.07-4.7 0-2.97-1.24-4.9-3.12-4.9-1.17 0-2.6.9-2.6 1.68M356.9 776.2v.72c-.76.97-1.42 1.22-2.3 1.22-.93 0-1.48-.5-1.6-1.85h-.04c-1.34 1.5-2.6 1.84-3.68 1.84-1.57 0-2.67-.96-2.67-2.64 0-1.32.8-2.3 1.8-2.97.75-.5 1.7-1 4.56-2.06v-1.37c0-1.57-.84-2.28-1.98-2.28-1 0-1.78.56-1.78 1.24 0 .46.16.53.16 1.07 0 .48-.5 1.04-1.17 1.04-.54 0-1.1-.48-1.1-1.17 0-.66.4-1.47 1.3-2.03.7-.46 1.77-.76 2.9-.76 1.43 0 2.4.4 3 1.15.62.74.72 1.27.72 2.82v4.85c0 1.17.33 1.67.8 1.67.4 0 .65-.13 1.08-.5m-3.94-1.54v-3.58c-1.57.56-2.6 1.1-3.25 1.68-.6.56-.85 1.17-.85 1.95 0 1.36.76 1.97 1.75 1.97.5 0 1.04-.13 1.47-.4.74-.5.9-.87.9-1.6M369.06 766.46v.38c-.76.08-.96.28-1.65 1.98l-3.24 8.15c-.38.94-.56 1.27-.7 1.27-.16 0-.3-.2-.47-.66-.08-.12-.1-.3-.2-.53l-3.06-7.3c-1.1-2.6-1.34-2.86-2.3-2.9v-.4h4.97v.4c-.85.07-1.16.25-1.16.68 0 .25.08.58.23.96l2.6 6.5 2.5-6.58c.1-.26.16-.5.16-.77 0-.48-.38-.73-1.2-.8v-.4h3.53"/><path d="M567.5 858.82h111.52v27.04H567.5z" fill="#fff" fill-opacity="0"/><path d="M579.82 877.9h-5.3l.04-.4c1.27-.1 1.57-.6 1.57-2.28v-5.05c0-1.8-.6-2.57-1.85-2.57-.84 0-1.45.3-2.62 1.45v7c0 1 .36 1.36 1.66 1.46v.4h-5.36v-.4c1.3-.1 1.57-.5 1.57-2v-6.17c0-1.24-.18-1.65-.9-1.65-.27 0-.55.03-.72.1v-.43c1.4-.4 2.24-.7 3.5-1.14l.2.08v1.98c1.33-1.5 2.5-2.05 3.67-2.05 1.93 0 3 1.4 3 3.92v5.6c0 1.38.3 1.66 1.55 1.8v.37M588.7 879.25l-.97 2.46h-7.02v-.2l3.2-3.4c1.7-1.77 2.34-3.14 2.34-4.66 0-1.64-.97-2.54-2.5-2.54-1.28 0-1.9.58-2.63 2.34l-.37-.1c.38-2.1 1.53-3.56 3.74-3.56 2.02 0 3.32 1.38 3.32 3.16 0 1.4-.7 2.76-2.3 4.45l-2.97 3.15h4.2c.75 0 1.13-.2 1.72-1.2M614.96 869.76H600v-1.67h14.96v1.66m0 5.08H600v-1.67h14.96v1.67M635.28 874.4l-1.37 3.5H624v-.32l4.52-4.8c2.38-2.5 3.3-4.44 3.3-6.6 0-2.3-1.37-3.58-3.53-3.58-1.83 0-2.72.8-3.73 3.3l-.54-.12c.54-2.98 2.16-5.06 5.28-5.06 2.87 0 4.7 1.96 4.7 4.47 0 2-1 3.9-3.25 6.3l-4.2 4.46h5.95c1.07 0 1.6-.28 2.44-1.7M646.32 866.26v1.95c1.12-1.38 2.24-2 3.66-2 2.46 0 4.24 2.27 4.24 5.42 0 3.68-2.3 6.52-5.33 6.52-1.08 0-1.66-.25-2.58-1.1v4c0 1.6.33 1.88 2.24 1.9v.46h-6.15v-.43c1.5-.16 1.8-.43 1.8-1.75v-11.9c0-1.18-.2-1.44-1.05-1.44-.23 0-.4 0-.64.03v-.4c1.4-.43 2.33-.76 3.67-1.3m.15 3.2v6.25c0 .77 1.45 1.68 2.64 1.68 1.83 0 3.08-1.9 3.08-4.7 0-2.97-1.25-4.9-3.13-4.9-1.15 0-2.58.9-2.58 1.68M666.23 876.2v.72c-.76.97-1.42 1.22-2.28 1.22-.94 0-1.5-.5-1.63-1.85h-.02c-1.35 1.5-2.6 1.84-3.7 1.84-1.56 0-2.65-.96-2.65-2.64 0-1.32.8-2.3 1.78-2.97.76-.5 1.7-1 4.57-2.06v-1.37c0-1.57-.84-2.28-1.98-2.28-1.02 0-1.78.56-1.78 1.24 0 .46.15.53.15 1.07 0 .48-.52 1.04-1.18 1.04-.53 0-1.1-.48-1.1-1.17 0-.66.42-1.47 1.3-2.03.72-.46 1.78-.76 2.93-.76 1.42 0 2.38.4 3 1.15.6.74.7 1.27.7 2.82v4.85c0 1.17.33 1.67.8 1.67.4 0 .65-.13 1.08-.5m-3.93-1.54v-3.58c-1.58.56-2.62 1.1-3.25 1.68-.6.56-.87 1.17-.87 1.95 0 1.36.76 1.97 1.75 1.97.5 0 1.05-.13 1.48-.4.74-.5.9-.87.9-1.6M678.4 866.46v.38c-.77.08-.97.28-1.65 1.98l-3.25 8.15c-.4.94-.56 1.27-.72 1.27-.15 0-.28-.2-.45-.66-.08-.12-.1-.3-.2-.53l-3.05-7.3c-1.1-2.6-1.35-2.86-2.3-2.9v-.4h4.96v.4c-.86.07-1.17.25-1.17.68 0 .25.08.58.23.96l2.6 6.5 2.5-6.58c.1-.26.16-.5.16-.77 0-.48-.38-.73-1.2-.8v-.4h3.54"/><path d="M898.17 954.26h111.52v27.04H898.16z" fill="#fff" fill-opacity="0"/><path d="M910.48 973.33h-5.28l.03-.38c1.27-.1 1.57-.6 1.57-2.3v-5.04c0-1.8-.6-2.56-1.85-2.56-.84 0-1.45.3-2.62 1.45v7c0 1 .36 1.35 1.65 1.45v.38h-5.36v-.38c1.3-.1 1.58-.5 1.58-2v-6.18c0-1.24-.18-1.65-.9-1.65-.27 0-.55.03-.73.1v-.43c1.4-.42 2.24-.7 3.48-1.15l.2.07v1.98h.03c1.32-1.5 2.5-2.05 3.66-2.05 1.93 0 3 1.4 3 3.9v5.62c0 1.37.3 1.65 1.54 1.78v.38M911.96 968l-.3-.08c.53-1.7 1.66-2.9 3.53-2.9 1.66 0 2.8.98 2.8 2.46 0 .86-.48 1.76-1.68 2.47.8.34 1.1.56 1.5.96.5.56.78 1.4.78 2.32 0 .95-.3 1.83-.83 2.5-.86 1.16-2.57 1.68-4.16 1.68-1.3 0-2-.37-2-1.02 0-.38.32-.65.73-.65.3 0 .6.1 1.1.47.66.47 1.04.56 1.54.56 1.33 0 2.34-1.22 2.34-2.75 0-1.35-.62-2.23-1.86-2.6-.4-.12-.8-.17-1.83-.17v-.25c.7-.24 1.16-.43 1.5-.65.9-.5 1.47-1.3 1.47-2.4 0-1.23-.75-1.84-1.94-1.84-1.1 0-1.94.57-2.67 1.9M945.63 965.2h-14.96v-1.67h14.96v1.67m0 5.08h-14.96v-1.67h14.96v1.68M955.46 960.38l-.4-.1c.73-2.42 2.33-4.12 4.97-4.12 2.36 0 3.96 1.4 3.96 3.48 0 1.22-.67 2.5-2.37 3.5 1.1.5 1.57.8 2.1 1.35.72.78 1.12 1.95 1.12 3.27 0 1.34-.43 2.6-1.17 3.55-1.22 1.63-3.63 2.36-5.9 2.36-1.84 0-2.83-.53-2.83-1.44 0-.54.46-.92 1.04-.92.42 0 .83.16 1.54.66.94.66 1.47.8 2.18.8 1.88 0 3.3-1.74 3.3-3.9 0-1.93-.9-3.17-2.64-3.68-.56-.17-1.14-.25-2.6-.25v-.36c.98-.34 1.64-.62 2.15-.92 1.24-.7 2.05-1.85 2.05-3.4 0-1.73-1.06-2.6-2.74-2.6-1.57 0-2.74.82-3.78 2.7M977 961.7v1.95c1.1-1.4 2.22-2 3.65-2 2.46 0 4.24 2.26 4.24 5.4 0 3.7-2.32 6.53-5.35 6.53-1.06 0-1.65-.25-2.56-1.1v4c0 1.6.32 1.88 2.22 1.9v.46h-6.14v-.43c1.5-.14 1.78-.42 1.78-1.74v-11.9c0-1.18-.18-1.44-1.04-1.44-.23 0-.4 0-.64.03v-.4c1.4-.44 2.3-.77 3.66-1.3m.15 3.2v6.24c0 .76 1.44 1.67 2.63 1.67 1.83 0 3.07-1.9 3.07-4.7 0-2.97-1.24-4.9-3.12-4.9-1.17 0-2.6.92-2.6 1.68M996.9 971.65v.7c-.76.98-1.42 1.23-2.3 1.23-.93 0-1.48-.5-1.6-1.85h-.04c-1.34 1.52-2.6 1.85-3.68 1.85-1.57 0-2.67-.96-2.67-2.64 0-1.32.8-2.3 1.8-2.97.75-.5 1.7-1 4.56-2.06v-1.36c0-1.57-.84-2.28-1.98-2.28-1 0-1.78.56-1.78 1.24 0 .46.16.53.16 1.07 0 .48-.5 1.04-1.17 1.04-.54 0-1.1-.47-1.1-1.16 0-.66.4-1.47 1.3-2.03.7-.45 1.77-.75 2.9-.75 1.43 0 2.4.4 3 1.14.62.73.72 1.26.72 2.8v4.86c0 1.17.33 1.68.8 1.68.4 0 .65-.13 1.08-.5m-3.94-1.54v-3.58c-1.57.56-2.6 1.1-3.25 1.68-.6.56-.85 1.17-.85 1.95 0 1.35.76 1.96 1.75 1.96.5 0 1.04-.12 1.47-.4.74-.5.9-.86.9-1.6M1009.06 961.9v.38c-.76.08-.96.28-1.65 1.98l-3.24 8.15c-.38.95-.56 1.28-.7 1.28-.16 0-.3-.2-.47-.66-.08-.12-.1-.3-.2-.53l-3.06-7.3c-1.1-2.6-1.34-2.87-2.3-2.92v-.38h4.97v.38c-.85.08-1.16.26-1.16.7 0 .24.08.57.23.95l2.6 6.5 2.5-6.57c.1-.26.16-.5.16-.76 0-.5-.38-.74-1.2-.82v-.38h3.53"/><path d="M1275.33 579.82v40.5" stroke="#5e5e5e" stroke-width="2" fill="none"/><path d="M1276.33 579.85h-2v-1.03h2z" fill="#5e5e5e"/><path d="M1275.33 635.6l-4.63-14.28h9.27z" stroke="#5e5e5e" stroke-width="2" fill="#5e5e5e"/><path d="M1155.33 524.82c0-3.3 2.7-6 6-6h228c3.32 0 6 2.7 6 6v48c0 3.32-2.68 6-6 6h-228c-3.3 0-6-2.68-6-6z" stroke="#000" stroke-opacity="0" stroke-width="3" fill="#fff" fill-opacity="0"/><use xlink:href="#h" transform="matrix(1,0,0,1,1160.3333333333335,523.8225138526723) translate(110.06172839506173 29.84722222222222)"/><path d="M1155.33 644.82c0-3.3 2.7-6 6-6h228c3.32 0 6 2.7 6 6v48c0 3.32-2.68 6-6 6h-228c-3.3 0-6-2.68-6-6zM1235.33-135.18c0-3.3 2.7-6 6-6h228c3.32 0 6 2.7 6 6v48c0 3.32-2.68 6-6 6h-228c-3.3 0-6-2.68-6-6z" stroke="#000" stroke-opacity="0" stroke-width="3" fill="#fff" fill-opacity="0"/><use xlink:href="#s" transform="matrix(1,0,0,1,1240.3333333333335,-136.17748614732773) translate(97.71604938271605 30.27777777777778)"/><path d="M1255.33 584.82c0-3.3 2.7-6 6-6h228c3.32 0 6 2.7 6 6v48c0 3.32-2.68 6-6 6h-228c-3.3 0-6-2.68-6-6z" stroke="#000" stroke-opacity="0" stroke-width="3" fill="#fff" fill-opacity="0"/><use xlink:href="#t" transform="matrix(1,0,0,1,1260.3333333333335,583.8225138526723) translate(97.09876543209876 30.27777777777778)"/><path d="M419.57 655.3h84v27.04h-84z" fill="#fff" fill-opacity="0"/><path d="M436.33 675.95h-4.1l-6.05-7.82-1.43.05v4.93c0 1.94.3 2.24 2.26 2.37v.48h-7v-.48c1.9-.15 2.16-.43 2.16-2.67v-10.84c0-1.88-.2-2.18-2.15-2.34v-.48h6.9c2.43 0 4.23.6 5.32 1.5.84.7 1.24 1.93 1.24 3.05 0 2.2-1.42 3.67-4.6 4.15l5.1 6.43c.72.94 1.26 1.1 2.37 1.2v.47m-11.58-14.8v6.1c2.44-.06 3.33-.24 4.5-.87.9-.5 1.45-1.63 1.45-2.9 0-2.28-1.5-3.4-4.65-3.4-.86 0-1.3.18-1.3 1.07M443.58 679.78h-4.96v-.27c1.33-.06 1.7-.44 1.7-1.43V670c0-.6-.15-.87-.53-.87-.2 0-.5.1-.82.22l-.48.18v-.26l3.2-1.63.17.05v10.7c0 .78.36 1.1 1.7 1.1v.28M471.28 667.83h-14.96v-1.68h14.96v1.68m0 5.08h-14.96v-1.67h14.96v1.68M486.26 659.78v6.24c3.07 1.65 3.7 2.3 4.4 3.33.35.53.53 1.35.53 2.3 0 2.93-2.02 3.9-4.94 4.3v2.2h-.86v-2.2c-2.2 0-3.33-.35-4.73-1.3v-3.3h.38c.54 2.55 2.1 3.9 4.35 3.9v-7.17c-3.5-1.98-4.52-3.02-4.52-5.15 0-2.54 2.15-3.7 4.52-3.84v-1.6h.86v1.6c2.06.12 3.3.55 4.1 1.34v2.82h-.4c-.5-2.1-1.67-3.23-3.7-3.48m-.86 5.84v-5.84c-1.8.35-2.65 1.37-2.65 2.66 0 1.12.5 1.73 2.65 3.18m.86 2.9v6.72c2.06-.43 2.9-1.22 2.9-3.02 0-1.55-.6-2.34-2.9-3.7M498.45 671.8h-.43c.02-1.03.23-2.3 1.1-4.5.67-1.63 1.3-3.23 1.3-4.75 0-1.76-1.2-3-2.76-3-1.22 0-2.4.76-2.4 1.57 0 .94.98 1.04.98 1.88 0 .64-.4 1.1-1.04 1.1-.7 0-1.22-.64-1.22-1.68 0-2.1 1.73-3.63 4.16-3.63 2.47 0 4.63 1.54 4.63 4 0 1.55-.5 2.4-2.67 5-.92 1.1-1.37 2.26-1.65 4zm1.17 3c0 .75-.56 1.36-1.32 1.36-.87 0-1.38-.64-1.38-1.35 0-.75.6-1.34 1.38-1.34.7 0 1.32.64 1.32 1.35"/><path d="M833.34 655.3h84v27.04h-84z" fill="#fff" fill-opacity="0"/><path d="M850.1 675.95h-4.12l-6.04-7.82-1.42.05v4.93c0 1.94.3 2.24 2.26 2.37v.48h-7v-.48c1.9-.15 2.15-.43 2.15-2.67v-10.84c0-1.88-.2-2.18-2.16-2.34v-.48h6.9c2.42 0 4.22.6 5.3 1.5.85.7 1.26 1.93 1.26 3.05 0 2.2-1.42 3.67-4.6 4.15l5.08 6.43c.75.94 1.28 1.1 2.4 1.2v.47m-11.58-14.8v6.1c2.44-.06 3.32-.24 4.5-.87.9-.5 1.44-1.63 1.44-2.9 0-2.28-1.5-3.4-4.65-3.4-.85 0-1.28.18-1.28 1.07M858.78 677.32l-.97 2.46h-7v-.22l3.18-3.4c1.7-1.77 2.34-3.13 2.34-4.66 0-1.63-.97-2.53-2.5-2.53-1.3 0-1.92.57-2.64 2.33l-.37-.1c.38-2.1 1.53-3.56 3.74-3.56 2.03 0 3.32 1.38 3.32 3.16 0 1.42-.7 2.77-2.3 4.45l-2.96 3.16h4.2c.76 0 1.13-.18 1.73-1.2M885.04 667.83h-14.96v-1.68h14.96v1.68m0 5.08h-14.96v-1.67h14.96v1.68M900.02 659.78v6.24c3.08 1.65 3.7 2.3 4.4 3.33.35.53.53 1.35.53 2.3 0 2.93-2 3.9-4.93 4.3v2.2h-.86v-2.2c-2.2 0-3.33-.35-4.72-1.3v-3.3h.38c.53 2.55 2.1 3.9 4.34 3.9v-7.17c-3.5-1.98-4.52-3.02-4.52-5.15 0-2.54 2.16-3.7 4.52-3.84v-1.6h.86v1.6c2.06.12 3.3.55 4.1 1.34v2.82h-.4c-.5-2.1-1.67-3.23-3.7-3.48m-.86 5.84v-5.84c-1.8.35-2.64 1.37-2.64 2.66 0 1.12.5 1.73 2.64 3.18m.86 2.9v6.72c2.06-.43 2.9-1.22 2.9-3.02 0-1.55-.6-2.34-2.9-3.7M912.2 671.8h-.42c.03-1.03.23-2.3 1.12-4.5.66-1.63 1.3-3.23 1.3-4.75 0-1.76-1.23-3-2.78-3-1.2 0-2.38.76-2.38 1.57 0 .94.96 1.04.96 1.88 0 .64-.4 1.1-1.04 1.1-.7 0-1.22-.64-1.22-1.68 0-2.1 1.73-3.63 4.17-3.63 2.47 0 4.63 1.54 4.63 4 0 1.55-.48 2.4-2.67 5-.9 1.1-1.37 2.26-1.65 4zm1.18 3c0 .75-.56 1.36-1.32 1.36-.86 0-1.37-.64-1.37-1.35 0-.75.57-1.34 1.36-1.34.7 0 1.32.64 1.32 1.35"/><path d="M1233.34 655.3h84v27.04h-84z" fill="#fff" fill-opacity="0"/><path d="M1250.1 675.95h-4.12l-6.04-7.82-1.42.05v4.93c0 1.94.3 2.24 2.26 2.37v.48h-7v-.48c1.9-.15 2.15-.43 2.15-2.67v-10.84c0-1.88-.2-2.18-2.16-2.34v-.48h6.9c2.42 0 4.22.6 5.3 1.5.85.7 1.26 1.93 1.26 3.05 0 2.2-1.42 3.67-4.6 4.15l5.08 6.43c.75.94 1.28 1.1 2.4 1.2v.47m-11.58-14.8v6.1c2.44-.06 3.32-.24 4.5-.87.9-.5 1.44-1.63 1.44-2.9 0-2.28-1.5-3.4-4.65-3.4-.85 0-1.28.18-1.28 1.07M1251.36 670.62l-.28-.07c.52-1.7 1.65-2.9 3.5-2.9 1.68 0 2.82.98 2.82 2.45 0 .86-.47 1.76-1.67 2.48.8.34 1.1.55 1.5.95.5.56.78 1.38.78 2.32 0 .95-.3 1.83-.82 2.5-.86 1.16-2.57 1.68-4.17 1.68-1.3 0-2-.38-2-1.02 0-.37.33-.64.74-.64.3 0 .6.1 1.1.47.66.46 1.04.55 1.54.55 1.33 0 2.33-1.22 2.33-2.74 0-1.37-.6-2.25-1.85-2.6-.4-.13-.8-.2-1.84-.2v-.24c.7-.23 1.16-.43 1.52-.65.88-.5 1.46-1.3 1.46-2.4 0-1.22-.76-1.83-1.94-1.83-1.1 0-1.94.57-2.68 1.9M1285.04 667.83h-14.96v-1.68h14.96v1.68m0 5.08h-14.96v-1.67h14.96v1.68M1300.02 659.78v6.24c3.08 1.65 3.7 2.3 4.4 3.33.35.53.53 1.35.53 2.3 0 2.93-2 3.9-4.93 4.3v2.2h-.86v-2.2c-2.2 0-3.33-.35-4.72-1.3v-3.3h.38c.53 2.55 2.1 3.9 4.34 3.9v-7.17c-3.5-1.98-4.52-3.02-4.52-5.15 0-2.54 2.16-3.7 4.52-3.84v-1.6h.86v1.6c2.06.12 3.3.55 4.1 1.34v2.82h-.4c-.5-2.1-1.67-3.23-3.7-3.48m-.86 5.84v-5.84c-1.8.35-2.64 1.37-2.64 2.66 0 1.12.5 1.73 2.64 3.18m.86 2.9v6.72c2.06-.43 2.9-1.22 2.9-3.02 0-1.55-.6-2.34-2.9-3.7M1312.2 671.8h-.42c.03-1.03.23-2.3 1.12-4.5.66-1.63 1.3-3.23 1.3-4.75 0-1.76-1.23-3-2.78-3-1.2 0-2.38.76-2.38 1.57 0 .94.96 1.04.96 1.88 0 .64-.4 1.1-1.04 1.1-.7 0-1.22-.64-1.22-1.68 0-2.1 1.73-3.63 4.17-3.63 2.47 0 4.63 1.54 4.63 4 0 1.55-.48 2.4-2.67 5-.9 1.1-1.37 2.26-1.65 4zm1.18 3c0 .75-.56 1.36-1.32 1.36-.86 0-1.37-.64-1.37-1.35 0-.75.57-1.34 1.36-1.34.7 0 1.32.64 1.32 1.35"/><defs><path fill="#333" d="M24-231v-30h32v30H24zM24 0v-190h32V0H24" id="u"/><path fill="#333" d="M18-150v-26h174v26H18zm0 90v-26h174v26H18" id="v"/><path fill="#333" d="M27 0v-27h64v-190l-56 39v-29l58-41h29v221h61V0H27" id="w"/><path fill="#333" d="M110-160c48 1 74 30 74 79 0 53-28 85-80 85-65 0-83-55-86-122-5-90 50-162 133-122 14 7 22 21 27 39l-31 6c-5-40-67-38-82-6-9 19-15 44-15 74 11-20 30-34 60-33zm-7 138c34 0 49-23 49-58s-16-56-50-56c-29 0-50 16-49 49 1 36 15 65 50 65" id="x"/><path fill="#333" d="M252-156c43 0 55 33 55 80 0 46-13 78-56 78-42 0-55-33-55-78 0-48 12-80 56-80zM93 0H65l162-248h28zM13-171c-1-47 13-79 56-79s55 33 55 79-13 79-55 79c-43 0-56-33-56-79zM251-17c28 0 30-29 30-59 0-31-1-60-29-60-29 0-31 29-31 60 0 29 2 59 30 59zM69-112c27 0 28-30 29-59 0-31-1-60-29-60-29 0-30 30-30 60s2 59 30 59" id="y"/><g id="a"><use transform="matrix(0.06172839506172839,0,0,0.06172839506172839,0,0)" xlink:href="#u"/><use transform="matrix(0.06172839506172839,0,0,0.06172839506172839,4.876543209876543,0)" xlink:href="#v"/><use transform="matrix(0.06172839506172839,0,0,0.06172839506172839,17.839506172839506,0)" xlink:href="#w"/><use transform="matrix(0.06172839506172839,0,0,0.06172839506172839,30.185185185185183,0)" xlink:href="#x"/><use transform="matrix(0.06172839506172839,0,0,0.06172839506172839,42.53086419753086,0)" xlink:href="#y"/></g><path fill="#333" d="M115-194c55 1 70 41 70 98S169 2 115 4C84 4 66-9 55-30l1 105H24l-1-265h31l2 30c10-21 28-34 59-34zm-8 174c40 0 45-34 45-75s-6-73-45-74c-42 0-51 32-51 76 0 43 10 73 51 73" id="z"/><path fill="#333" d="M135-143c-3-34-86-38-87 0 15 53 115 12 119 90S17 21 10-45l28-5c4 36 97 45 98 0-10-56-113-15-118-90-4-57 82-63 122-42 12 7 21 19 24 35" id="A"/><path fill="#333" d="M108 0H70L1-190h34L89-25l56-165h34" id="B"/><g id="b"><use transform="matrix(0.06172839506172839,0,0,0.06172839506172839,0,0)" xlink:href="#z"/><use transform="matrix(0.06172839506172839,0,0,0.06172839506172839,12.345679012345679,0)" xlink:href="#A"/><use transform="matrix(0.06172839506172839,0,0,0.06172839506172839,23.45679012345679,0)" xlink:href="#B"/></g><path fill="#333" d="M194-70c0 46-34 64-81 66v29H91V-4C42-5 12-27 4-67l30-6c5 28 25 41 57 43v-87c-38-9-76-20-76-67 1-42 33-58 76-59v-23h22v23c45 0 67 20 76 56l-31 6c-5-23-18-35-45-37v78c41 10 81 20 81 70zm-81 41c51 7 71-66 19-77-6-2-12-4-19-6v83zM91-219c-47-6-63 57-18 69 6 2 12 3 18 5v-74" id="C"/><path fill="#333" d="M33 0v-38h34V0H33" id="D"/><path fill="#333" d="M99-251c64 0 84 50 84 122C183-37 130 33 47-8c-14-7-20-23-25-40l30-5c6 39 69 39 84 7 9-19 16-44 16-74-10 22-31 35-62 35-49 0-73-33-73-83 0-54 28-83 82-83zm-1 141c31-1 51-18 51-49 0-36-14-67-51-67-34 0-49 23-49 58 0 34 15 58 49 58" id="E"/><path fill="#333" d="M126-127c33 6 58 20 58 59 0 88-139 92-164 29-3-8-5-16-6-25l32-3c6 27 21 44 54 44 32 0 52-15 52-46 0-38-36-46-79-43v-28c39 1 72-4 72-42 0-27-17-43-46-43-28 0-47 15-49 41l-32-3c6-42 35-63 81-64 48-1 79 21 79 65 0 36-21 52-52 59" id="F"/><path fill="#333" d="M155-56V0h-30v-56H8v-25l114-167h33v167h35v25h-35zm-30-156c-27 46-58 90-88 131h88v-131" id="G"/><path fill="#333" d="M68-38c1 34 0 65-14 84H32c9-13 17-26 17-46H33v-38h35" id="H"/><path fill="#333" d="M134-131c28 9 52 24 51 62-1 50-34 73-85 73S17-19 16-69c0-36 21-54 49-61-75-25-45-126 34-121 46 3 78 18 79 63 0 33-17 51-44 57zm-34-11c31 1 46-15 46-44 0-28-17-43-47-42-29 0-46 13-45 42 1 28 16 44 46 44zm1 122c35 0 51-18 51-52 0-30-18-46-53-46-33 0-51 17-51 47 0 34 19 51 53 51" id="I"/><g id="c"><use transform="matrix(0.06172839506172839,0,0,0.06172839506172839,0,0)" xlink:href="#C"/><use transform="matrix(0.06172839506172839,0,0,0.06172839506172839,12.345679012345679,0)" xlink:href="#x"/><use transform="matrix(0.06172839506172839,0,0,0.06172839506172839,24.691358024691358,0)" xlink:href="#x"/><use transform="matrix(0.06172839506172839,0,0,0.06172839506172839,37.03703703703704,0)" xlink:href="#D"/><use transform="matrix(0.06172839506172839,0,0,0.06172839506172839,43.20987654320988,0)" xlink:href="#E"/><use transform="matrix(0.06172839506172839,0,0,0.06172839506172839,55.55555555555556,0)" xlink:href="#F"/><use transform="matrix(0.06172839506172839,0,0,0.06172839506172839,67.90123456790124,0)" xlink:href="#G"/><use transform="matrix(0.06172839506172839,0,0,0.06172839506172839,80.24691358024693,0)" xlink:href="#H"/><use transform="matrix(0.06172839506172839,0,0,0.06172839506172839,86.41975308641976,0)" xlink:href="#G"/><use transform="matrix(0.06172839506172839,0,0,0.06172839506172839,98.76543209876544,0)" xlink:href="#I"/></g><path fill="#333" d="M101-251c68 0 84 54 84 127C185-50 166 4 99 4S15-52 14-124c-1-75 17-127 87-127zm-1 216c37-5 36-46 36-89s4-89-36-89c-39 0-36 45-36 89 0 43-3 85 36 89" id="J"/><use transform="matrix(0.04938271604938272,0,0,0.04938271604938272,0,0)" xlink:href="#J" id="d"/><path fill="#333" d="M64 0c3-98 48-159 88-221H18v-27h164v26C143-157 98-101 97 0H64" id="K"/><g id="e"><use transform="matrix(0.06172839506172839,0,0,0.06172839506172839,0,0)" xlink:href="#C"/><use transform="matrix(0.06172839506172839,0,0,0.06172839506172839,12.345679012345679,0)" xlink:href="#I"/><use transform="matrix(0.06172839506172839,0,0,0.06172839506172839,24.691358024691358,0)" xlink:href="#F"/><use transform="matrix(0.06172839506172839,0,0,0.06172839506172839,37.03703703703704,0)" xlink:href="#D"/><use transform="matrix(0.06172839506172839,0,0,0.06172839506172839,43.20987654320988,0)" xlink:href="#x"/><use transform="matrix(0.06172839506172839,0,0,0.06172839506172839,55.55555555555556,0)" xlink:href="#K"/><use transform="matrix(0.06172839506172839,0,0,0.06172839506172839,67.90123456790124,0)" xlink:href="#G"/><use transform="matrix(0.06172839506172839,0,0,0.06172839506172839,80.24691358024693,0)" xlink:href="#H"/><use transform="matrix(0.06172839506172839,0,0,0.06172839506172839,86.41975308641976,0)" xlink:href="#F"/><use transform="matrix(0.06172839506172839,0,0,0.06172839506172839,98.76543209876544,0)" xlink:href="#G"/></g><use transform="matrix(0.049382716049382706,0,0,0.049382716049382706,0,0)" xlink:href="#w" id="f"/><path fill="#333" d="M101-251c82-7 93 87 43 132L82-64C71-53 59-42 53-27h129V0H18c2-99 128-94 128-182 0-28-16-43-45-43s-46 15-49 41l-32-3c6-41 34-60 81-64" id="L"/><use transform="matrix(0.049382716049382706,0,0,0.049382716049382706,0,0)" xlink:href="#L" id="g"/><use transform="matrix(0.049382716049382706,0,0,0.049382716049382706,0,0)" xlink:href="#F" id="h"/><use transform="matrix(0.049382716049382706,0,0,0.049382716049382706,0,0)" xlink:href="#G" id="i"/><path fill="#333" d="M137 0h-34L2-248h35l83 218 83-218h36" id="M"/><path fill="#333" d="M30-248c87 1 191-15 191 75 0 78-77 80-158 76V0H30v-248zm33 125c57 0 124 11 124-50 0-59-68-47-124-48v98" id="N"/><path fill="#333" d="M101-251c68 0 85 55 85 127S166 4 100 4C33 4 14-52 14-124c0-73 17-127 87-127zm-1 229c47 0 54-49 54-102s-4-102-53-102c-51 0-55 48-55 102 0 53 5 102 54 102" id="O"/><g id="j"><use transform="matrix(0.06172839506172839,0,0,0.06172839506172839,0,0)" xlink:href="#M"/><use transform="matrix(0.06172839506172839,0,0,0.06172839506172839,14.814814814814813,0)" xlink:href="#N"/><use transform="matrix(0.06172839506172839,0,0,0.06172839506172839,29.629629629629626,0)" xlink:href="#v"/><use transform="matrix(0.06172839506172839,0,0,0.06172839506172839,42.59259259259259,0)" xlink:href="#C"/><use transform="matrix(0.06172839506172839,0,0,0.06172839506172839,54.938271604938265,0)" xlink:href="#F"/><use transform="matrix(0.06172839506172839,0,0,0.06172839506172839,67.28395061728395,0)" xlink:href="#O"/><use transform="matrix(0.06172839506172839,0,0,0.06172839506172839,79.62962962962963,0)" xlink:href="#O"/><use transform="matrix(0.06172839506172839,0,0,0.06172839506172839,91.97530864197532,0)" xlink:href="#D"/><use transform="matrix(0.06172839506172839,0,0,0.06172839506172839,98.14814814814815,0)" xlink:href="#O"/><use transform="matrix(0.06172839506172839,0,0,0.06172839506172839,110.49382716049384,0)" xlink:href="#O"/><use transform="matrix(0.06172839506172839,0,0,0.06172839506172839,122.83950617283952,0)" xlink:href="#O"/></g><path fill="#333" d="M101-234c-31-9-42 10-38 44h38v23H63V0H32v-167H5v-23h27c-7-52 17-82 69-68v24" id="P"/><g id="k"><use transform="matrix(0.06172839506172839,0,0,0.06172839506172839,0,0)" xlink:href="#P"/><use transform="matrix(0.06172839506172839,0,0,0.06172839506172839,5.7407407407407405,0)" xlink:href="#P"/></g><path fill="#333" d="M54-142c48-35 137-8 131 61C196 18 31 33 14-55l32-4c7 23 22 37 52 37 35-1 51-22 54-58 4-55-73-65-99-34H22l8-134h141v27H59" id="Q"/><use transform="matrix(0.049382716049382706,0,0,0.049382716049382706,0,0)" xlink:href="#Q" id="l"/><use transform="matrix(0.049382716049382706,0,0,0.049382716049382706,0,0)" xlink:href="#x" id="m"/><g id="n"><use transform="matrix(0.06172839506172839,0,0,0.06172839506172839,0,0)" xlink:href="#C"/><use transform="matrix(0.06172839506172839,0,0,0.06172839506172839,12.345679012345679,0)" xlink:href="#w"/><use transform="matrix(0.06172839506172839,0,0,0.06172839506172839,24.691358024691358,0)" xlink:href="#O"/><use transform="matrix(0.06172839506172839,0,0,0.06172839506172839,37.03703703703704,0)" xlink:href="#G"/><use transform="matrix(0.06172839506172839,0,0,0.06172839506172839,49.382716049382715,0)" xlink:href="#D"/><use transform="matrix(0.06172839506172839,0,0,0.06172839506172839,55.55555555555556,0)" xlink:href="#Q"/><use transform="matrix(0.06172839506172839,0,0,0.06172839506172839,67.90123456790124,0)" xlink:href="#E"/><use transform="matrix(0.06172839506172839,0,0,0.06172839506172839,80.24691358024693,0)" xlink:href="#L"/><use transform="matrix(0.06172839506172839,0,0,0.06172839506172839,92.59259259259261,0)" xlink:href="#H"/><use transform="matrix(0.06172839506172839,0,0,0.06172839506172839,98.76543209876544,0)" xlink:href="#E"/><use transform="matrix(0.06172839506172839,0,0,0.06172839506172839,111.11111111111113,0)" xlink:href="#F"/></g><g id="o"><use transform="matrix(0.06172839506172839,0,0,0.06172839506172839,0,0)" xlink:href="#w"/><use transform="matrix(0.06172839506172839,0,0,0.06172839506172839,12.345679012345679,0)" xlink:href="#O"/><use transform="matrix(0.06172839506172839,0,0,0.06172839506172839,24.691358024691358,0)" xlink:href="#G"/><use transform="matrix(0.06172839506172839,0,0,0.06172839506172839,37.03703703703704,0)" xlink:href="#D"/><use transform="matrix(0.06172839506172839,0,0,0.06172839506172839,43.20987654320988,0)" xlink:href="#Q"/><use transform="matrix(0.06172839506172839,0,0,0.06172839506172839,55.55555555555556,0)" xlink:href="#E"/><use transform="matrix(0.06172839506172839,0,0,0.06172839506172839,67.90123456790124,0)" xlink:href="#L"/><use transform="matrix(0.06172839506172839,0,0,0.06172839506172839,80.24691358024693,0)" xlink:href="#H"/><use transform="matrix(0.06172839506172839,0,0,0.06172839506172839,86.41975308641976,0)" xlink:href="#E"/><use transform="matrix(0.06172839506172839,0,0,0.06172839506172839,98.76543209876544,0)" xlink:href="#F"/></g><g id="p"><use transform="matrix(0.06172839506172839,0,0,0.06172839506172839,0,0)" xlink:href="#u"/><use transform="matrix(0.06172839506172839,0,0,0.06172839506172839,4.876543209876543,0)" xlink:href="#v"/><use transform="matrix(0.06172839506172839,0,0,0.06172839506172839,17.839506172839506,0)" xlink:href="#F"/><use transform="matrix(0.06172839506172839,0,0,0.06172839506172839,30.185185185185183,0)" xlink:href="#G"/><use transform="matrix(0.06172839506172839,0,0,0.06172839506172839,42.53086419753086,0)" xlink:href="#H"/><use transform="matrix(0.06172839506172839,0,0,0.06172839506172839,48.7037037037037,0)" xlink:href="#Q"/><use transform="matrix(0.06172839506172839,0,0,0.06172839506172839,61.04938271604938,0)" xlink:href="#x"/><use transform="matrix(0.06172839506172839,0,0,0.06172839506172839,73.39506172839506,0)" xlink:href="#y"/></g><path fill="#333" d="M141-36C126-15 110 5 73 4 37 3 15-17 15-53c-1-64 63-63 125-63 3-35-9-54-41-54-24 1-41 7-42 31l-33-3c5-37 33-52 76-52 45 0 72 20 72 64v82c-1 20 7 32 28 27v20c-31 9-61-2-59-35zM48-53c0 20 12 33 32 33 41-3 63-29 60-74-43 2-92-5-92 41" id="R"/><g id="q"><use transform="matrix(0.06172839506172839,0,0,0.06172839506172839,0,0)" xlink:href="#z"/><use transform="matrix(0.06172839506172839,0,0,0.06172839506172839,12.345679012345679,0)" xlink:href="#R"/><use transform="matrix(0.06172839506172839,0,0,0.06172839506172839,24.691358024691358,0)" xlink:href="#B"/></g><path fill="#333" d="M177-190C167-65 218 103 67 71c-23-6-38-20-44-43l32-5c15 47 100 32 89-28v-30C133-14 115 1 83 1 29 1 15-40 15-95c0-56 16-97 71-98 29-1 48 16 59 35 1-10 0-23 2-32h30zM94-22c36 0 50-32 50-73 0-42-14-75-50-75-39 0-46 34-46 75s6 73 46 73" id="S"/><g id="r"><use transform="matrix(0.06172839506172839,0,0,0.06172839506172839,0,0)" xlink:href="#S"/><use transform="matrix(0.06172839506172839,0,0,0.06172839506172839,12.345679012345679,0)" xlink:href="#v"/><use transform="matrix(0.06172839506172839,0,0,0.06172839506172839,25.30864197530864,0)" xlink:href="#L"/><use transform="matrix(0.06172839506172839,0,0,0.06172839506172839,37.654320987654316,0)" xlink:href="#Q"/><use transform="matrix(0.06172839506172839,0,0,0.06172839506172839,49.99999999999999,0)" xlink:href="#y"/></g><g id="s"><use transform="matrix(0.06172839506172839,0,0,0.06172839506172839,0,0)" xlink:href="#z"/><use transform="matrix(0.06172839506172839,0,0,0.06172839506172839,12.345679012345679,0)" xlink:href="#A"/><use transform="matrix(0.06172839506172839,0,0,0.06172839506172839,23.45679012345679,0)" xlink:href="#B"/></g><g id="t"><use transform="matrix(0.06172839506172839,0,0,0.06172839506172839,0,0)" xlink:href="#z"/><use transform="matrix(0.06172839506172839,0,0,0.06172839506172839,12.345679012345679,0)" xlink:href="#R"/><use transform="matrix(0.06172839506172839,0,0,0.06172839506172839,24.691358024691358,0)" xlink:href="#B"/></g></defs></g></svg>