<svg xmlns="http://www.w3.org/2000/svg" xmlns:xlink="http://www.w3.org/1999/xlink" xmlns:lucid="lucid" width="940" height="570.36"><g transform="translate(1700 1240)" lucid:page-tab-id="0_0"><path d="M-1806.4-1259.2H64V64h-1870.4z" fill="#fff"/><path d="M-1210.67-1172c0-3.3 2.7-6 6-6h228c3.32 0 6 2.7 6 6v48c0 3.3-2.68 6-6 6h-228c-3.3 0-6-2.7-6-6z" fill="none"/><use xlink:href="#a" transform="matrix(1,0,0,1,-1210.6666666666667,-1178) translate(67.87037037037038 21.111111111111114)"/><use xlink:href="#b" transform="matrix(1,0,0,1,-1210.6666666666667,-1178) translate(136.32716049382717 21.111111111111114)"/><use xlink:href="#c" transform="matrix(1,0,0,1,-1210.6666666666667,-1178) translate(63.54938271604938 47.777777777777786)"/><path d="M-904-979h-655v-2h655z" fill="#5e5e5e"/><path d="M-1558.97-979h-1.03v-2h1.03zM-888.75-980l-14.26 4.64v-9.28z" fill="#5e5e5e"/><path d="M-885.5-980l-18.5 6v-12zm-16.5 3.26L-892-980l-10.03-3.26z" fill="#5e5e5e"/><path d="M-1360-979v140.5" stroke="#5e5e5e" stroke-width="2" fill="none"/><path d="M-1359-978.97h-2V-980h2z" fill="#5e5e5e"/><path d="M-1360-823.24l-4.64-14.26h9.28z" stroke="#5e5e5e" stroke-width="2" fill="#5e5e5e"/><path d="M-1160-979v100.5" stroke="#5e5e5e" stroke-width="2" fill="none"/><path d="M-1159-978.97h-2V-980h2z" fill="#5e5e5e"/><path d="M-1160-863.24l-4.64-14.26h9.28z" stroke="#5e5e5e" stroke-width="2" fill="#5e5e5e"/><path d="M-960-979v40.5" stroke="#5e5e5e" stroke-width="2" fill="none"/><path d="M-959-978.97h-2V-980h2z" fill="#5e5e5e"/><path d="M-960-923.24l-4.64-14.26h9.28z" stroke="#5e5e5e" stroke-width="2" fill="#5e5e5e"/><path d="M-1560-979v40.5M-1560-978.97V-980" stroke="#5e5e5e" stroke-width="2" fill="none"/><path d="M-1560-923.24l-4.64-14.26h9.28z" stroke="#5e5e5e" stroke-width="2" fill="#5e5e5e"/><path d="M-1559-981h-2v-11h2zm0-32.33h-2v-128.17h2z" fill="#5e5e5e"/><path fill="#5e5e5e"/><path d="M-1555.36-1142.5h-9.28l4.64-14.26z" fill="#5e5e5e"/><path d="M-1554-1141.5h-12l6-18.5zm-9.26-2h6.52l-3.26-10.03z" fill="#5e5e5e"/><use xlink:href="#d" transform="matrix(1,0,0,1,-1564.9382716049383,-1013.3323333333333) translate(0.004999999999999893 14.222222222222223)"/><path d="M-1680-914c0-3.3 2.7-6 6-6h228c3.3 0 6 2.7 6 6v48c0 3.3-2.7 6-6 6h-228c-3.3 0-6-2.7-6-6zM-1480-1034c0-3.3 2.7-6 6-6h228c3.3 0 6 2.7 6 6v48c0 3.3-2.7 6-6 6h-228c-3.3 0-6-2.7-6-6z" stroke="#000" stroke-opacity="0" stroke-width="3" fill="#fff" fill-opacity="0"/><use xlink:href="#e" transform="matrix(1,0,0,1,-1475,-1035) translate(110.06172839506173 29.84722222222222)"/><path d="M-1280-1034c0-3.3 2.7-6 6-6h228c3.3 0 6 2.7 6 6v48c0 3.3-2.7 6-6 6h-228c-3.3 0-6-2.7-6-6z" stroke="#000" stroke-opacity="0" stroke-width="3" fill="#fff" fill-opacity="0"/><use xlink:href="#f" transform="matrix(1,0,0,1,-1275,-1035) translate(110.06172839506173 29.84722222222222)"/><path d="M-1080-1034c0-3.3 2.7-6 6-6h228c3.3 0 6 2.7 6 6v48c0 3.3-2.7 6-6 6h-228c-3.3 0-6-2.7-6-6z" stroke="#000" stroke-opacity="0" stroke-width="3" fill="#fff" fill-opacity="0"/><use xlink:href="#g" transform="matrix(1,0,0,1,-1075,-1035) translate(110.06172839506173 29.84722222222222)"/><path d="M-1680-1214c0-3.3 2.7-6 6-6h228c3.3 0 6 2.7 6 6v48c0 3.3-2.7 6-6 6h-228c-3.3 0-6-2.7-6-6z" stroke="#000" stroke-opacity="0" stroke-width="3" fill="#fff" fill-opacity="0"/><use xlink:href="#h" transform="matrix(1,0,0,1,-1675,-1215) translate(47.407407407407405 30.27777777777778)"/><path d="M-1560-919v9.92m0 9.9v19.85m0 9.9v19.85m0 9.9v19.85m0 9.9v9.93M-1575-801h30" stroke="#5e5e5e" stroke-width="2" fill="none"/><path d="M-1680-794c0-3.3 2.7-6 6-6h228c3.3 0 6 2.7 6 6v48c0 3.3-2.7 6-6 6h-228c-3.3 0-6-2.7-6-6z" stroke="#000" stroke-opacity="0" stroke-width="3" fill="#fff" fill-opacity="0"/><use xlink:href="#i" transform="matrix(1,0,0,1,-1675,-795) translate(109.04320987654322 30.27777777777778)"/><path d="M-1020-974c0-3.3 2.7-6 6-6h228c3.3 0 6 2.7 6 6v48c0 3.3-2.7 6-6 6h-228c-3.3 0-6-2.7-6-6z" stroke="#000" stroke-opacity="0" stroke-width="3" fill="#fff" fill-opacity="0"/><use xlink:href="#j" transform="matrix(1,0,0,1,-1015,-975) translate(97.09876543209876 30.27777777777778)"/><path d="M-1357.65-820.24l396.5-99.52M-1357.63-820.25l-1 .25" stroke="#5e5e5e" stroke-width="2" fill="none"/><path d="M-957.02-919.76l-3.9.98-.32-1.22h4.16z" fill="#5e5e5e"/><path d="M-1360.3-819.04l-2.38 7.92-.46 1.32m-3.2 9.12l-4.2 10.6-3.23 7.26m-4.12 8.74l-3.5 7.1-5.5 10m-4.96 8.3l-1.96 3.23-6.22 9.38-2.53 3.5m-5.8 7.73l-3.44 4.34-5.43 6.28-3.77 4.02m-6.88 6.8l-3.6 3.23-4.12 3.43-3.87 2.93-3.5 2.44m-8.32 4.93l-1.48.77-2.9 1.36-2.74 1.16-2.64 1-2.23.72-.7.2-.7.17-.73.14-.74.1-.76.1-.77.04-.8.02h-.84l-.2-.02m-9.32-2.35l-.04-.03-1.44-.67-1.56-.8-1.7-.97-1.85-1.17-2.05-1.4-2.26-1.7-2.5-2.06-2.43-2.16m-6.8-6.86l-.25-.26-3.97-4.55-4.44-5.55-3.45-4.7m-5.5-7.98l-1.35-2.02-5.7-9.33-2.9-5.22m-4.57-8.53l-4.12-8.18-4.2-9.28m-3.7-8.93l-2.1-5.2-3.9-11-.6-1.98m-2.8-9.26l-2.05-7.8-1.72-7.92-.54-3.12m-1.43-9.57l-.02-.24-.47-5.25-.2-4.16M-1360.3-819.02l.3-.98" stroke="#3aa6dd" stroke-width="2" fill="none"/><path d="M-1560.26-855.98l3.47 14.6-9.23-.75z" stroke="#3aa6dd" stroke-width="2" fill="#3aa6dd"/><path d="M-1400-820h85.84v27.04H-1400z" fill="#fff" fill-opacity="0"/><path d="M-1381.6-799.76l-.04.4h-4.3l-3.8-8c-.25.04-.53.06-.74.06-.35 0-.6-.05-.96-.1l-1.58 6.07c-.05.2-.07.38-.07.58 0 .6.46 1 1.94 1h.48l-.1.4h-8.26l.1-.4h.4c1.94 0 2.45-.72 2.68-1.58l3.15-12.62c.04-.2.12-.43.12-.64 0-.52-.44-.93-1.96-.93h-.5l.1-.4h6.88c4.06 0 5.48 1.67 5.48 3.83 0 2.1-1.8 3.8-4.52 4.35l2.92 5.8c.48 1 1.14 2.07 2.6 2.2m-8-15.17l-1.63 6.6c.32.08.57.1.8.1 3.38 0 4.85-1.46 4.85-3.6 0-2.74-1.58-3.17-3.18-3.17-.35 0-.58.03-.86.08M-1374.13-795.53h-4.95v-.26c1.32-.07 1.7-.44 1.7-1.43v-8.06c0-.6-.16-.87-.54-.87-.18 0-.48.1-.8.2l-.5.2v-.26l3.22-1.63.17.05v10.7c0 .78.35 1.1 1.7 1.1v.27M-1346.44-807.48h-14.96v-1.67h14.96v1.67m0 5.08h-14.96v-1.67h14.96v1.67M-1331.46-815.53v6.25c3.07 1.65 3.7 2.3 4.4 3.33.35.53.53 1.34.53 2.28 0 2.95-2 3.9-4.93 4.32v2.2h-.86v-2.2c-2.2 0-3.33-.36-4.73-1.3v-3.3h.38c.54 2.54 2.1 3.9 4.35 3.9v-7.17c-3.5-1.98-4.52-3.02-4.52-5.16 0-2.54 2.15-3.68 4.52-3.83v-1.6h.86v1.6c2.06.12 3.3.55 4.1 1.33v2.82h-.4c-.5-2.1-1.67-3.22-3.7-3.48m-.86 5.85v-5.85c-1.8.36-2.65 1.38-2.65 2.67 0 1.12.5 1.73 2.65 3.18m.86 2.9v6.72c2.06-.43 2.9-1.22 2.9-3.02 0-1.55-.6-2.34-2.9-3.7M-1319.27-803.5h-.43c.02-1.03.22-2.3 1.1-4.5.67-1.63 1.3-3.23 1.3-4.76 0-1.75-1.2-3-2.76-3-1.22 0-2.4.77-2.4 1.58 0 .94.98 1.04.98 1.88 0 .63-.4 1.1-1.04 1.1-.7 0-1.22-.64-1.22-1.68 0-2.1 1.73-3.64 4.16-3.64 2.47 0 4.62 1.55 4.62 4.02 0 1.55-.48 2.4-2.66 5-.92 1.1-1.37 2.26-1.65 4zm1.17 3c0 .74-.56 1.35-1.32 1.35-.87 0-1.38-.63-1.38-1.34 0-.75.6-1.34 1.38-1.34.7 0 1.32.64 1.32 1.35"/><path d="M-1202.92-847.04h85.84V-820h-85.84z" fill="#fff" fill-opacity="0"/><path d="M-1184.5-826.8l-.06.4h-4.3l-3.8-8c-.26.04-.54.06-.74.06-.36 0-.6-.05-.96-.1l-1.58 6.07c-.05.2-.08.38-.08.58 0 .62.46 1 1.93 1h.5l-.1.4h-8.26l.1-.4h.4c1.94 0 2.45-.7 2.68-1.57l3.15-12.62c.05-.2.12-.42.12-.63 0-.53-.44-.94-1.96-.94h-.5l.1-.4h6.87c4.08 0 5.5 1.67 5.5 3.83 0 2.1-1.8 3.8-4.52 4.35l2.92 5.82c.48 1 1.14 2.06 2.6 2.18m-8-15.16l-1.64 6.6c.33.08.6.1.82.1 3.37 0 4.85-1.46 4.85-3.6 0-2.74-1.58-3.17-3.18-3.17-.35 0-.58.02-.86.07M-1175.6-825.02l-.98 2.45h-7.02v-.2l3.2-3.4c1.68-1.78 2.33-3.15 2.33-4.67 0-1.64-.97-2.53-2.5-2.53-1.3 0-1.92.57-2.64 2.33l-.4-.1c.4-2.1 1.54-3.56 3.75-3.56 2.03 0 3.32 1.38 3.32 3.16 0 1.42-.7 2.76-2.3 4.45l-2.96 3.17h4.2c.76 0 1.14-.2 1.73-1.2M-1149.37-834.52h-14.95v-1.67h14.95v1.68m0 5.08h-14.95v-1.67h14.95v1.66M-1134.38-842.57v6.25c3.07 1.65 3.7 2.3 4.4 3.33.35.54.52 1.35.52 2.3 0 2.94-2 3.9-4.92 4.3v2.22h-.87v-2.2c-2.2 0-3.32-.36-4.72-1.3v-3.3h.38c.54 2.53 2.12 3.88 4.35 3.88v-7.16c-3.5-1.98-4.52-3.02-4.52-5.16 0-2.54 2.16-3.68 4.52-3.83v-1.6h.87v1.6c2.05.13 3.3.56 4.08 1.35v2.8h-.38c-.5-2.1-1.67-3.2-3.7-3.47m-.87 5.85v-5.85c-1.8.36-2.64 1.38-2.64 2.67 0 1.12.52 1.73 2.65 3.18m.87 2.9v6.72c2.05-.43 2.9-1.22 2.9-3.02 0-1.55-.6-2.34-2.9-3.7M-1122.2-830.55h-.43c.03-1.02.23-2.3 1.12-4.5.65-1.62 1.3-3.22 1.3-4.75 0-1.75-1.23-3-2.78-3-1.22 0-2.4.77-2.4 1.58 0 .94.98 1.04.98 1.88 0 .63-.4 1.1-1.04 1.1-.72 0-1.22-.64-1.22-1.68 0-2.1 1.72-3.64 4.16-3.64 2.46 0 4.62 1.55 4.62 4.02 0 1.55-.48 2.4-2.66 5-.92 1.1-1.38 2.26-1.65 4zm1.17 3.02c0 .73-.56 1.34-1.32 1.34-.86 0-1.37-.62-1.37-1.33 0-.76.6-1.35 1.37-1.35.7 0 1.32.64 1.32 1.35"/><path d="M-1002.92-903.52h85.84v27.04h-85.84z" fill="#fff" fill-opacity="0"/><path d="M-984.5-883.28l-.06.4h-4.3l-3.8-8c-.26.04-.54.06-.74.06-.36 0-.6-.05-.96-.1l-1.58 6.07c-.05.2-.08.38-.08.58 0 .6.46 1 1.93 1h.5l-.1.4h-8.26l.1-.4h.4c1.94 0 2.45-.72 2.68-1.58l3.15-12.62c.05-.2.12-.43.12-.64 0-.54-.44-.95-1.96-.95h-.5l.1-.4h6.87c4.08 0 5.5 1.67 5.5 3.83 0 2.1-1.8 3.8-4.52 4.35l2.92 5.8c.48 1 1.14 2.07 2.6 2.2m-8-15.17l-1.64 6.6c.33.08.6.1.82.1 3.37 0 4.85-1.46 4.85-3.6 0-2.74-1.58-3.17-3.18-3.17-.35 0-.58 0-.86.06M-983.03-888.2l-.3-.07c.53-1.7 1.66-2.9 3.53-2.9 1.67 0 2.8.98 2.8 2.45 0 .86-.46 1.76-1.67 2.48.8.34 1.12.55 1.5.95.5.56.78 1.4.78 2.32 0 .95-.3 1.83-.8 2.52-.87 1.15-2.58 1.67-4.18 1.67-1.3 0-2-.37-2-1.02 0-.37.3-.64.73-.64.3 0 .6.1 1.1.46.66.47 1.03.56 1.54.56 1.3 0 2.32-1.22 2.32-2.75 0-1.35-.63-2.23-1.87-2.6-.4-.12-.8-.17-1.83-.17v-.25c.68-.23 1.15-.43 1.5-.65.9-.5 1.46-1.3 1.46-2.4 0-1.22-.75-1.83-1.93-1.83-1.12 0-1.94.57-2.68 1.9M-949.37-891h-14.95v-1.67h14.95v1.67m0 5.08h-14.95v-1.67h14.95v1.68M-934.38-899.05v6.25c3.07 1.65 3.7 2.3 4.4 3.33.35.53.52 1.34.52 2.28 0 2.96-2 3.92-4.92 4.33v2.2h-.87v-2.2c-2.2 0-3.32-.35-4.72-1.3v-3.3h.38c.54 2.54 2.12 3.9 4.35 3.9v-7.17c-3.5-1.98-4.52-3.02-4.52-5.16 0-2.54 2.16-3.68 4.52-3.83v-1.6h.87v1.6c2.05.13 3.3.56 4.08 1.34v2.83h-.38c-.5-2.1-1.67-3.22-3.7-3.48m-.87 5.85v-5.85c-1.8.36-2.64 1.38-2.64 2.67 0 1.12.52 1.73 2.65 3.18m.87 2.9v6.72c2.05-.43 2.9-1.22 2.9-3.02 0-1.55-.6-2.34-2.9-3.7M-922.2-887.03h-.43c.03-1.02.23-2.3 1.12-4.5.65-1.62 1.3-3.22 1.3-4.75 0-1.75-1.23-3-2.78-3-1.22 0-2.4.77-2.4 1.58 0 .94.98 1.04.98 1.88 0 .63-.4 1.1-1.04 1.1-.72 0-1.22-.64-1.22-1.68 0-2.1 1.72-3.64 4.16-3.64 2.46 0 4.62 1.55 4.62 4.02 0 1.55-.48 2.4-2.66 5-.92 1.1-1.38 2.26-1.65 4zm1.17 3.02c0 .72-.56 1.33-1.32 1.33-.86 0-1.37-.63-1.37-1.34 0-.77.6-1.36 1.37-1.36.7 0 1.32.64 1.32 1.35"/><defs><path fill="#333" d="M24-231v-30h32v30H24zM24 0v-190h32V0H24" id="k"/><path fill="#333" d="M18-150v-26h174v26H18zm0 90v-26h174v26H18" id="l"/><path fill="#333" d="M27 0v-27h64v-190l-56 39v-29l58-41h29v221h61V0H27" id="m"/><path fill="#333" d="M101-251c68 0 85 55 85 127S166 4 100 4C33 4 14-52 14-124c0-73 17-127 87-127zm-1 229c47 0 54-49 54-102s-4-102-53-102c-51 0-55 48-55 102 0 53 5 102 54 102" id="n"/><path fill="#333" d="M252-156c43 0 55 33 55 80 0 46-13 78-56 78-42 0-55-33-55-78 0-48 12-80 56-80zM93 0H65l162-248h28zM13-171c-1-47 13-79 56-79s55 33 55 79-13 79-55 79c-43 0-56-33-56-79zM251-17c28 0 30-29 30-59 0-31-1-60-29-60-29 0-31 29-31 60 0 29 2 59 30 59zM69-112c27 0 28-30 29-59 0-31-1-60-29-60-29 0-30 30-30 60s2 59 30 59" id="o"/><g id="a"><use transform="matrix(0.06172839506172839,0,0,0.06172839506172839,0,0)" xlink:href="#k"/><use transform="matrix(0.06172839506172839,0,0,0.06172839506172839,4.876543209876543,0)" xlink:href="#l"/><use transform="matrix(0.06172839506172839,0,0,0.06172839506172839,17.839506172839506,0)" xlink:href="#m"/><use transform="matrix(0.06172839506172839,0,0,0.06172839506172839,30.185185185185183,0)" xlink:href="#n"/><use transform="matrix(0.06172839506172839,0,0,0.06172839506172839,42.53086419753086,0)" xlink:href="#o"/></g><path fill="#333" d="M115-194c55 1 70 41 70 98S169 2 115 4C84 4 66-9 55-30l1 105H24l-1-265h31l2 30c10-21 28-34 59-34zm-8 174c40 0 45-34 45-75s-6-73-45-74c-42 0-51 32-51 76 0 43 10 73 51 73" id="p"/><path fill="#333" d="M141-36C126-15 110 5 73 4 37 3 15-17 15-53c-1-64 63-63 125-63 3-35-9-54-41-54-24 1-41 7-42 31l-33-3c5-37 33-52 76-52 45 0 72 20 72 64v82c-1 20 7 32 28 27v20c-31 9-61-2-59-35zM48-53c0 20 12 33 32 33 41-3 63-29 60-74-43 2-92-5-92 41" id="q"/><path fill="#333" d="M108 0H70L1-190h34L89-25l56-165h34" id="r"/><g id="b"><use transform="matrix(0.06172839506172839,0,0,0.06172839506172839,0,0)" xlink:href="#p"/><use transform="matrix(0.06172839506172839,0,0,0.06172839506172839,12.345679012345679,0)" xlink:href="#q"/><use transform="matrix(0.06172839506172839,0,0,0.06172839506172839,24.691358024691358,0)" xlink:href="#r"/></g><path fill="#333" d="M30 0v-248h33v221h125V0H30" id="s"/><path fill="#333" d="M16-82v-28h88v28H16" id="t"/><path fill="#333" d="M194-70c0 46-34 64-81 66v29H91V-4C42-5 12-27 4-67l30-6c5 28 25 41 57 43v-87c-38-9-76-20-76-67 1-42 33-58 76-59v-23h22v23c45 0 67 20 76 56l-31 6c-5-23-18-35-45-37v78c41 10 81 20 81 70zm-81 41c51 7 71-66 19-77-6-2-12-4-19-6v83zM91-219c-47-6-63 57-18 69 6 2 12 3 18 5v-74" id="u"/><path fill="#333" d="M101-251c82-7 93 87 43 132L82-64C71-53 59-42 53-27h129V0H18c2-99 128-94 128-182 0-28-16-43-45-43s-46 15-49 41l-32-3c6-41 34-60 81-64" id="v"/><path fill="#333" d="M33 0v-38h34V0H33" id="w"/><g id="c"><use transform="matrix(0.06172839506172839,0,0,0.06172839506172839,0,0)" xlink:href="#s"/><use transform="matrix(0.06172839506172839,0,0,0.06172839506172839,12.345679012345679,0)" xlink:href="#l"/><use transform="matrix(0.06172839506172839,0,0,0.06172839506172839,25.30864197530864,0)" xlink:href="#t"/><use transform="matrix(0.06172839506172839,0,0,0.06172839506172839,32.654320987654316,0)" xlink:href="#u"/><use transform="matrix(0.06172839506172839,0,0,0.06172839506172839,44.99999999999999,0)" xlink:href="#v"/><use transform="matrix(0.06172839506172839,0,0,0.06172839506172839,57.34567901234567,0)" xlink:href="#n"/><use transform="matrix(0.06172839506172839,0,0,0.06172839506172839,69.69135802469135,0)" xlink:href="#w"/><use transform="matrix(0.06172839506172839,0,0,0.06172839506172839,75.86419753086419,0)" xlink:href="#n"/><use transform="matrix(0.06172839506172839,0,0,0.06172839506172839,88.20987654320987,0)" xlink:href="#n"/><use transform="matrix(0.06172839506172839,0,0,0.06172839506172839,100.55555555555556,0)" xlink:href="#n"/></g><path fill="#333" d="M101-251c68 0 84 54 84 127C185-50 166 4 99 4S15-52 14-124c-1-75 17-127 87-127zm-1 216c37-5 36-46 36-89s4-89-36-89c-39 0-36 45-36 89 0 43-3 85 36 89" id="x"/><use transform="matrix(0.04938271604938272,0,0,0.04938271604938272,0,0)" xlink:href="#x" id="d"/><use transform="matrix(0.049382716049382706,0,0,0.049382716049382706,0,0)" xlink:href="#m" id="e"/><use transform="matrix(0.049382716049382706,0,0,0.049382716049382706,0,0)" xlink:href="#v" id="f"/><path fill="#333" d="M126-127c33 6 58 20 58 59 0 88-139 92-164 29-3-8-5-16-6-25l32-3c6 27 21 44 54 44 32 0 52-15 52-46 0-38-36-46-79-43v-28c39 1 72-4 72-42 0-27-17-43-46-43-28 0-47 15-49 41l-32-3c6-42 35-63 81-64 48-1 79 21 79 65 0 36-21 52-52 59" id="y"/><use transform="matrix(0.049382716049382706,0,0,0.049382716049382706,0,0)" xlink:href="#y" id="g"/><path fill="#333" d="M137 0h-34L2-248h35l83 218 83-218h36" id="z"/><path fill="#333" d="M30-248c87 1 191-15 191 75 0 78-77 80-158 76V0H30v-248zm33 125c57 0 124 11 124-50 0-59-68-47-124-48v98" id="A"/><path fill="#333" d="M54-142c48-35 137-8 131 61C196 18 31 33 14-55l32-4c7 23 22 37 52 37 35-1 51-22 54-58 4-55-73-65-99-34H22l8-134h141v27H59" id="B"/><g id="h"><use transform="matrix(0.06172839506172839,0,0,0.06172839506172839,0,0)" xlink:href="#z"/><use transform="matrix(0.06172839506172839,0,0,0.06172839506172839,14.814814814814813,0)" xlink:href="#A"/><use transform="matrix(0.06172839506172839,0,0,0.06172839506172839,29.629629629629626,0)" xlink:href="#l"/><use transform="matrix(0.06172839506172839,0,0,0.06172839506172839,42.59259259259259,0)" xlink:href="#u"/><use transform="matrix(0.06172839506172839,0,0,0.06172839506172839,54.938271604938265,0)" xlink:href="#B"/><use transform="matrix(0.06172839506172839,0,0,0.06172839506172839,67.28395061728395,0)" xlink:href="#n"/><use transform="matrix(0.06172839506172839,0,0,0.06172839506172839,79.62962962962963,0)" xlink:href="#n"/><use transform="matrix(0.06172839506172839,0,0,0.06172839506172839,91.97530864197532,0)" xlink:href="#w"/><use transform="matrix(0.06172839506172839,0,0,0.06172839506172839,98.14814814814815,0)" xlink:href="#n"/><use transform="matrix(0.06172839506172839,0,0,0.06172839506172839,110.49382716049384,0)" xlink:href="#n"/><use transform="matrix(0.06172839506172839,0,0,0.06172839506172839,122.83950617283952,0)" xlink:href="#n"/></g><path fill="#333" d="M101-234c-31-9-42 10-38 44h38v23H63V0H32v-167H5v-23h27c-7-52 17-82 69-68v24" id="C"/><g id="i"><use transform="matrix(0.06172839506172839,0,0,0.06172839506172839,0,0)" xlink:href="#C"/><use transform="matrix(0.06172839506172839,0,0,0.06172839506172839,5.7407407407407405,0)" xlink:href="#C"/></g><g id="j"><use transform="matrix(0.06172839506172839,0,0,0.06172839506172839,0,0)" xlink:href="#p"/><use transform="matrix(0.06172839506172839,0,0,0.06172839506172839,12.345679012345679,0)" xlink:href="#q"/><use transform="matrix(0.06172839506172839,0,0,0.06172839506172839,24.691358024691358,0)" xlink:href="#r"/></g></defs></g></svg>