<svg xmlns="http://www.w3.org/2000/svg" xmlns:xlink="http://www.w3.org/1999/xlink" xmlns:lucid="lucid" width="1180" height="660"><g transform="translate(-460 -140)" lucid:page-tab-id="0_0"><path d="M0 0h1870.4v1323.2H0z" fill="#fff"/><path d="M949.33 208c0-3.3 2.7-6 6-6h228c3.32 0 6 2.7 6 6v48c0 3.3-2.68 6-6 6h-228c-3.3 0-6-2.7-6-6z" fill="none"/><use xlink:href="#a" transform="matrix(1,0,0,1,949.3333333333333,202) translate(64.16666666666667 21.111111111111114)"/><use xlink:href="#b" transform="matrix(1,0,0,1,949.3333333333333,202) translate(132.62345679012344 21.111111111111114)"/><use xlink:href="#c" transform="matrix(1,0,0,1,949.3333333333333,202) translate(77.12962962962963 47.777777777777786)"/><use xlink:href="#d" transform="matrix(1,0,0,1,949.3333333333333,202) translate(120.95679012345678 47.777777777777786)"/><path d="M680 466c0-3.3 2.7-6 6-6h228c3.3 0 6 2.7 6 6v48c0 3.3-2.7 6-6 6H686c-3.3 0-6-2.7-6-6z" fill="none"/><use xlink:href="#e" transform="matrix(1,0,0,1,680,460) translate(58.271604938271594 34.44444444444444)"/><path d="M1495.5 401H601v-2h894.5z" fill="#5e5e5e"/><path d="M601.03 401H600v-2h1.03zM1510.76 400l-14.26 4.64v-9.28z" fill="#5e5e5e"/><path d="M1514 400l-18.5 6v-12zm-16.5 3.26l10.03-3.26-10.03-3.26z" fill="#5e5e5e"/><path d="M800 401v40.5" stroke="#5e5e5e" stroke-width="2" fill="none"/><path d="M801 401.03h-2V400h2z" fill="#5e5e5e"/><path d="M800 456.76l-4.64-14.26h9.28z" stroke="#5e5e5e" stroke-width="2" fill="#5e5e5e"/><path d="M1000 401v40.5" stroke="#5e5e5e" stroke-width="2" fill="none"/><path d="M1001 401.03h-2V400h2z" fill="#5e5e5e"/><path d="M1000 456.76l-4.64-14.26h9.28z" stroke="#5e5e5e" stroke-width="2" fill="#5e5e5e"/><path d="M1200 401v40.5" stroke="#5e5e5e" stroke-width="2" fill="none"/><path d="M1201 401.03h-2V400h2z" fill="#5e5e5e"/><path d="M1200 456.76l-4.64-14.26h9.28z" stroke="#5e5e5e" stroke-width="2" fill="#5e5e5e"/><path d="M1400 401v40.5" stroke="#5e5e5e" stroke-width="2" fill="none"/><path d="M1401 401.03h-2V400h2z" fill="#5e5e5e"/><path d="M1400 456.76l-4.64-14.26h9.28z" stroke="#5e5e5e" stroke-width="2" fill="#5e5e5e"/><path d="M600 401v40.5M600 401.03V400" stroke="#5e5e5e" stroke-width="2" fill="none"/><path d="M600 456.76l-4.64-14.26h9.28z" stroke="#5e5e5e" stroke-width="2" fill="#5e5e5e"/><path d="M601 399h-2v-11h2zm0-32.33h-2V238.5h2z" fill="#5e5e5e"/><path fill="#5e5e5e"/><path d="M604.64 237.5h-9.28l4.64-14.26z" fill="#5e5e5e"/><path d="M606 238.5h-12l6-18.5zm-9.26-2h6.52L600 226.47z" fill="#5e5e5e"/><use xlink:href="#f" transform="matrix(1,0,0,1,595.0617283950618,366.6676666666666) translate(0.004999999999999893 14.222222222222223)"/><path d="M480 466c0-3.3 2.7-6 6-6h228c3.3 0 6 2.7 6 6v48c0 3.3-2.7 6-6 6H486c-3.3 0-6-2.7-6-6z" stroke="#000" stroke-opacity="0" stroke-width="3" fill="#fff" fill-opacity="0"/><use xlink:href="#g" transform="matrix(1,0,0,1,485,465) translate(74.87654320987653 30.27777777777778)"/><path d="M880 466c0-3.3 2.7-6 6-6h228c3.3 0 6 2.7 6 6v48c0 3.3-2.7 6-6 6H886c-3.3 0-6-2.7-6-6z" stroke="#000" stroke-opacity="0" stroke-width="3" fill="#fff" fill-opacity="0"/><use xlink:href="#h" transform="matrix(1,0,0,1,885,465) translate(68.7037037037037 30.27777777777778)"/><path d="M1080 466c0-3.3 2.7-6 6-6h228c3.3 0 6 2.7 6 6v48c0 3.3-2.7 6-6 6h-228c-3.3 0-6-2.7-6-6z" stroke="#000" stroke-opacity="0" stroke-width="3" fill="#fff" fill-opacity="0"/><use xlink:href="#i" transform="matrix(1,0,0,1,1085,465) translate(53.271604938271594 30.27777777777778)"/><path d="M1280 466c0-3.3 2.7-6 6-6h228c3.3 0 6 2.7 6 6v48c0 3.3-2.7 6-6 6h-228c-3.3 0-6-2.7-6-6z" stroke="#000" stroke-opacity="0" stroke-width="3" fill="#fff" fill-opacity="0"/><use xlink:href="#j" transform="matrix(1,0,0,1,1285,465) translate(68.7037037037037 30.27777777777778)"/><path d="M680 346c0-3.3 2.7-6 6-6h228c3.3 0 6 2.7 6 6v48c0 3.3-2.7 6-6 6H686c-3.3 0-6-2.7-6-6z" stroke="#000" stroke-opacity="0" stroke-width="3" fill="#fff" fill-opacity="0"/><use xlink:href="#k" transform="matrix(1,0,0,1,685,345) translate(110.06172839506173 29.84722222222222)"/><path d="M880 346c0-3.3 2.7-6 6-6h228c3.3 0 6 2.7 6 6v48c0 3.3-2.7 6-6 6H886c-3.3 0-6-2.7-6-6z" stroke="#000" stroke-opacity="0" stroke-width="3" fill="#fff" fill-opacity="0"/><use xlink:href="#l" transform="matrix(1,0,0,1,885,345) translate(110.06172839506173 29.84722222222222)"/><path d="M1080 346c0-3.3 2.7-6 6-6h228c3.3 0 6 2.7 6 6v48c0 3.3-2.7 6-6 6h-228c-3.3 0-6-2.7-6-6z" stroke="#000" stroke-opacity="0" stroke-width="3" fill="#fff" fill-opacity="0"/><use xlink:href="#m" transform="matrix(1,0,0,1,1085,345) translate(110.06172839506173 29.84722222222222)"/><path d="M1280 346c0-3.3 2.7-6 6-6h228c3.3 0 6 2.7 6 6v48c0 3.3-2.7 6-6 6h-228c-3.3 0-6-2.7-6-6z" stroke="#000" stroke-opacity="0" stroke-width="3" fill="#fff" fill-opacity="0"/><use xlink:href="#n" transform="matrix(1,0,0,1,1285,345) translate(110.06172839506173 29.84722222222222)"/><path d="M480 166c0-3.3 2.7-6 6-6h228c3.3 0 6 2.7 6 6v48c0 3.3-2.7 6-6 6H486c-3.3 0-6-2.7-6-6z" stroke="#000" stroke-opacity="0" stroke-width="3" fill="#fff" fill-opacity="0"/><use xlink:href="#o" transform="matrix(1,0,0,1,485,165) translate(47.407407407407405 30.27777777777778)"/><path d="M600 521v9.48m0 9.47v18.95m0 9.48v18.95m0 9.48v18.96m0 9.48v18.95m0 9.47v18.95m0 9.48v18.95m0 9.47V720" stroke="#5e5e5e" stroke-width="2" fill="none"/><path d="M601 521.03h-2V520h2z" fill="#5e5e5e"/><path d="M585 719h30" stroke="#5e5e5e" stroke-width="2" fill="none"/><path d="M480 726c0-3.3 2.7-6 6-6h228c3.3 0 6 2.7 6 6v48c0 3.3-2.7 6-6 6H486c-3.3 0-6-2.7-6-6z" stroke="#000" stroke-opacity="0" stroke-width="3" fill="#fff" fill-opacity="0"/><use xlink:href="#p" transform="matrix(1,0,0,1,485,725) translate(109.04320987654322 30.27777777777778)"/><path d="M600.95 538.48l.48 4.6.78 5.23m1.8 9.75l1.5 6.45 1.94 6.9 1.86 5.73m3.48 9.28l2.18 5.2 3.13 6.65 3.16 6.06m5 8.57l3.3 5.23 4.62 6.64 3.35 4.4m6.23 7.72l1.04 1.26 6.1 6.76 6.35 6.5m7.2 6.78l.5.45 8.07 6.98 6.66 5.28m7.94 5.9l4.1 3 10.83 7.18 1.5.9m8.48 5.14l1.98 1.2 13.22 7.26 2.18 1.08m8.87 4.4l3.57 1.77 14.47 6.42m9.2 3.72l10.34 4.1 8.2 2.85m9.37 3.24l2.1.73 16.86 5.08m9.54 2.66l18.7 4.8.5.12m9.7 2.05l15.3 3.25 4.12.7m9.77 1.65l13.46 2.27 6.1.77m9.84 1.25l13.05 1.65 6.64.55m9.87.83l13.76 1.16 6 .25m9.9.4l15.2.64h4.6m9.92 0h16.88l2.93-.13m9.9-.4l18.28-.77 1.52-.13m9.88-.82l18.88-1.6.86-.1m9.83-1.24l18.3-2.3 1.37-.24m9.77-1.65l16.22-2.74 3.3-.7m9.7-2.05l12.5-2.66 6.8-1.75m9.6-2.46l7.14-1.84 11.92-3.6m9.5-2.86l.14-.05 18.57-6.46m9.23-3.6l9.68-3.84 8.6-3.82m9.02-4.1l13.15-6.52 4.5-2.47m8.7-4.78h.02l11.96-7.25 4.84-3.2m8.2-5.6l7.58-5.5 8.18-6.48m7.53-6.45l1.28-1.1 7.35-6.9 5.64-5.76m6.68-7.32l.46-.52 5.57-6.7 5.06-6.68 1.16-1.67m5.5-8.23l2.14-3.35 3.82-6.6 3.46-6.63.32-.68m4.1-9.02l1.5-3.62 2.5-6.73 2.23-6.82.4-1.5m2.5-9.58l.66-2.82 1.36-7.14 1.07-7.3.24-2.27m.85-9.87l.2-3 .13-6.9" stroke="#0c7cba" stroke-width="2" fill="none"/><path d="M600.17 523.24l5.36 14-9.26.5z" stroke="#0c7cba" stroke-width="2" fill="#0c7cba"/><path d="M1400.98 521.05l-2-.05.02-1h2z" fill="#0c7cba"/><path d="M601.9 538.45l.65 4.35 1.02 5.35.05.2m2.5 9.75l.13.5 1.66 5.1 1.9 5.05 2.1 5.02 1.44 3.07m4.67 8.9l1.7 2.95 3.17 4.96 3.46 4.98 2.87 3.78m6.42 7.73l3.26 3.62 5.02 5.12 5.52 5.17.38.33m7.68 6.48l4.7 3.72 7.36 5.35 4.18 2.77m8.5 5.38l4.42 2.68 9.93 5.45 3.23 1.6m9.03 4.42l10.84 4.82 7.67 3.03m9.4 3.55l11.08 3.85 8.02 2.42m9.65 2.84l16.2 4.16 3.3.7m9.83 2.1l6 1.26 13.78 2.33m9.94 1.55l18.6 2.35 1.36.1m10.02.85l11.37.95 8.68.36m10.04.42l4.62.2h15.5m10.04-.1l20.1-.83m10-.78l14.02-1.18 6-.77m9.98-1.26l5.8-.73 14.06-2.38m9.9-1.8l15.7-3.35 3.92-1m9.74-2.5l4.03-1.03 15.26-4.6m9.5-3.27l6.17-2.15 12.63-5m9.2-4.05l3.7-1.64 10.96-5.44 3.35-1.84m8.76-4.94l6.8-4.1 8.12-5.4 1.95-1.42m8.05-6.02l4.04-3.2 6.07-5.24 5.05-4.75m7-7.22l3.06-3.4 4.18-5.05 3.8-5 1.53-2.2m5.5-8.44l2.46-4.3 2.6-4.96 2.34-4.98 1.57-3.74m3.43-9.45l.65-2 1.45-5.17 1.23-5.26 1.02-5.36.26-1.76m1.2-9.98l.3-5.1.1-4.94" stroke="#0c7cba" stroke-width="2" fill="none"/><path d="M600.88 523.24l5.6 13.92-9.26.62z" stroke="#0c7cba" stroke-width="2" fill="#0c7cba"/><path d="M1202.3 521.05l-2-.05.03-1h2z" fill="#0c7cba"/><path d="M601.2 538.38l.07.34.82 3.5.95 3.44.86 2.66m3.9 9.54l.56 1.2 1.73 3.3 1.9 3.3 2.1 3.3 2.3 3.32 2.3 3.03m6.76 7.78l2.62 2.67 3.67 3.44 4.03 3.47 4.44 3.52.7.5m8.45 5.87l1.15.76 5.97 3.6 6.6 3.64 4.23 2.1m9.36 4.32l1.75.77 8.9 3.53 8.6 3m9.86 3.02l2.13.64 11.75 3 6.13 1.3m10.12 2l10.15 1.72 10.25 1.3m10.25 1.03l9.1.77 11.47.48m10.3.17h9.4l11.2-.47m10.3-.68l9.15-.77 11.33-1.43m10.18-1.6l6.62-1.1 12.73-2.7.87-.23m9.98-2.56l.9-.23 10.76-3.25 7.98-2.78m9.62-3.7l1.1-.45 8.07-3.6 7.3-3.6 2.14-1.2m8.93-5.14l1.5-.9 5.4-3.6 4.9-3.55 4.43-3.52.5-.44m7.63-6.92l2.9-2.97 3.05-3.38 2.78-3.35 2.53-3.33 1.94-2.78m5.27-8.86l.84-1.6 1.56-3.3 1.4-3.33 1.25-3.36 1.1-3.4.97-3.43.18-.8m1.88-10.12l.36-3.5.24-3.83.07-2.95" stroke="#0c7cba" stroke-width="2" fill="none"/><path d="M599.66 523.22l6.05 13.73-9.2.94z" stroke="#0c7cba" stroke-width="2" fill="#0c7cba"/><path d="M999.65 521.05l-2-.05.02-1h2z" fill="#0c7cba"/><path d="M604.5 537.95l.6 1.3.86 1.6.94 1.64 1.04 1.62 1.13 1.63.42.55m6.52 7.2l.6.58 2 1.7 2.18 1.74 2.42 1.75 2.66 1.77 2.94 1.78 3.17 1.74m8.84 4.07l3.18 1.26 4.83 1.67 5.3 1.6 5.24 1.34m9.54 1.94l4 .68 7.12.9 7.44.62.78.03m9.73.3h4.87l7.64-.33 6.96-.58m9.65-1.3l4.7-.78 6.28-1.33 5.78-1.5 2.24-.66m9.22-3.14l3.06-1.2 3.97-1.78 3.6-1.78 3.24-1.8 2.93-1.76.58-.4m7.8-5.82l.87-.75 1.8-1.7 1.66-1.67 1.5-1.67 1.36-1.65 1.23-1.64 1.14-1.63 1.03-1.6.94-1.64.6-1.13m3.4-9.1l.34-1.42.34-1.74.26-1.8.2-1.83.1-1.9.03-.93" stroke="#0c7cba" stroke-width="2" fill="none"/><path d="M601.34 523.17l7.52 12.98-9.06 1.94z" stroke="#0c7cba" stroke-width="2" fill="#0c7cba"/><path d="M798.3 521.05l-2-.05.03-1h2z" fill="#0c7cba"/><path d="M640 540h120v27.04H640z" fill="#fff" fill-opacity="0"/><path d="M652.32 559.07h-5.3l.04-.38c1.27-.12 1.57-.62 1.57-2.3v-5.05c0-1.8-.6-2.57-1.85-2.57-.84 0-1.45.3-2.62 1.45v7c0 1 .36 1.35 1.66 1.46v.37h-5.36v-.38c1.3-.12 1.57-.52 1.57-2.02v-6.17c0-1.24-.18-1.64-.9-1.64-.27 0-.55.02-.72.1v-.43c1.4-.4 2.24-.7 3.5-1.15l.2.08v1.98c1.33-1.5 2.5-2.06 3.67-2.06 1.93 0 3 1.4 3 3.92v5.6c0 1.38.3 1.66 1.55 1.8v.37M659.77 562.9h-4.96v-.28c1.34-.07 1.72-.45 1.72-1.44v-8.06c0-.6-.16-.88-.54-.88-.18 0-.5.1-.8.22l-.5.18v-.25l3.22-1.65.16.06v10.73c0 .77.36 1.1 1.7 1.1v.26M687.46 550.94H672.5v-1.68h14.96v1.68m0 5.08H672.5v-1.68h14.96v1.68M705.75 559.07h-7v-.38c1.87-.12 2.4-.65 2.4-2.05v-11.4c0-.86-.23-1.24-.76-1.24-.27 0-.7.13-1.16.3l-.68.27v-.36l4.54-2.3.23.08v15.16c0 1.1.5 1.55 2.42 1.55v.37M718.82 547.44v1.95c1.12-1.4 2.24-2.02 3.66-2.02 2.46 0 4.24 2.26 4.24 5.4 0 3.7-2.3 6.54-5.33 6.54-1.08 0-1.66-.25-2.58-1.1v4c0 1.6.33 1.87 2.24 1.9v.46h-6.15v-.44c1.5-.15 1.8-.43 1.8-1.75v-11.9c0-1.2-.2-1.44-1.05-1.44-.23 0-.4 0-.64.03v-.42c1.4-.43 2.33-.76 3.67-1.3m.15 3.2v6.25c0 .76 1.45 1.68 2.64 1.68 1.83 0 3.08-1.9 3.08-4.7 0-2.96-1.25-4.9-3.13-4.9-1.15 0-2.58.92-2.58 1.68M747.2 559.07h-5.55v-.38c1.42-.17 1.65-.45 1.65-1.92v-5.23c0-2-.5-2.84-1.95-2.84-1.2 0-1.96.46-2.72 1.55v6.4c0 1.65.38 2 1.83 2.04v.37h-5.7v-.38c1.46-.12 1.74-.27 1.74-1.82v-5.36c0-1.75-.56-2.8-1.65-2.8-.94 0-2.2.47-2.7 1.08-.17.2-.32.38-.32.43v7.06c0 1.08.38 1.33 1.72 1.4v.37h-5.64v-.38c1.44-.04 1.8-.4 1.8-1.87v-6.3c0-1.24-.24-1.67-.9-1.67-.28 0-.48.02-.8.1v-.43c1.4-.38 2.23-.66 3.52-1.15l.2.08v1.88h.05c1.68-1.73 2.75-1.96 3.9-1.96 1.36 0 2.22.7 2.68 2.14 1.37-1.48 2.67-2.14 4.14-2.14 2.05 0 2.94 1.58 2.94 4.58v5.15c0 1.15.33 1.48 1.1 1.53l.65.06v.37M759.38 547.64v.38c-.76.08-.97.28-1.65 1.98l-3.25 8.15c-.38.94-.56 1.27-.7 1.27-.17 0-.3-.2-.47-.66-.07-.13-.1-.3-.2-.53l-3.04-7.3c-1.1-2.6-1.35-2.86-2.3-2.9v-.4h4.96v.4c-.86.07-1.16.24-1.16.68 0 .26.07.6.22.97l2.6 6.5 2.5-6.58c.1-.26.16-.5.16-.77 0-.48-.38-.73-1.2-.8v-.4h3.54"/><path d="M780 600h120v27.04H780z" fill="#fff" fill-opacity="0"/><path d="M792.32 619.07h-5.3l.04-.38c1.27-.12 1.57-.62 1.57-2.3v-5.05c0-1.8-.6-2.57-1.85-2.57-.84 0-1.45.3-2.62 1.45v7c0 1 .36 1.35 1.66 1.46v.37h-5.36v-.38c1.3-.12 1.57-.52 1.57-2.02v-6.17c0-1.24-.18-1.64-.9-1.64-.27 0-.55.02-.72.1v-.43c1.4-.4 2.24-.7 3.5-1.15l.2.08v1.98c1.33-1.5 2.5-2.06 3.67-2.06 1.93 0 3 1.4 3 3.92v5.6c0 1.38.3 1.66 1.55 1.8v.37M801.2 620.43l-.97 2.46h-7.02v-.23l3.2-3.4c1.7-1.77 2.34-3.13 2.34-4.66 0-1.62-.97-2.52-2.5-2.52-1.28 0-1.9.58-2.63 2.34l-.37-.1c.38-2.1 1.53-3.57 3.74-3.57 2.02 0 3.32 1.4 3.32 3.16 0 1.43-.7 2.78-2.3 4.47l-2.97 3.16h4.2c.75 0 1.13-.2 1.72-1.2M827.46 610.94H812.5v-1.68h14.96v1.68m0 5.08H812.5v-1.68h14.96v1.68M847.78 615.6l-1.37 3.47h-9.92v-.3l4.52-4.8c2.38-2.52 3.3-4.45 3.3-6.6 0-2.32-1.37-3.6-3.53-3.6-1.83 0-2.72.82-3.73 3.3l-.54-.12c.54-2.97 2.16-5.05 5.28-5.05 2.87 0 4.7 1.95 4.7 4.47 0 2-1 3.9-3.25 6.3l-4.2 4.47H845c1.07 0 1.6-.28 2.44-1.7M858.82 607.44v1.95c1.12-1.4 2.24-2.02 3.66-2.02 2.46 0 4.24 2.26 4.24 5.4 0 3.7-2.3 6.54-5.33 6.54-1.08 0-1.66-.25-2.58-1.1v4c0 1.6.33 1.87 2.24 1.9v.46h-6.15v-.44c1.5-.15 1.8-.43 1.8-1.75v-11.9c0-1.2-.2-1.44-1.05-1.44-.23 0-.4 0-.64.03v-.42c1.4-.43 2.33-.76 3.67-1.3m.15 3.2v6.25c0 .76 1.45 1.68 2.64 1.68 1.83 0 3.08-1.9 3.08-4.7 0-2.96-1.25-4.9-3.13-4.9-1.15 0-2.58.92-2.58 1.68M887.2 619.07h-5.55v-.38c1.42-.17 1.65-.45 1.65-1.92v-5.23c0-2-.5-2.84-1.95-2.84-1.2 0-1.96.46-2.72 1.55v6.4c0 1.65.38 2 1.83 2.04v.37h-5.7v-.38c1.46-.12 1.74-.27 1.74-1.82v-5.36c0-1.75-.56-2.8-1.65-2.8-.94 0-2.2.47-2.7 1.08-.17.2-.32.38-.32.43v7.06c0 1.08.38 1.33 1.72 1.4v.37h-5.64v-.38c1.44-.04 1.8-.4 1.8-1.87v-6.3c0-1.24-.24-1.67-.9-1.67-.28 0-.48.02-.8.1v-.43c1.4-.38 2.23-.66 3.52-1.15l.2.08v1.88h.05c1.68-1.73 2.75-1.96 3.9-1.96 1.36 0 2.22.7 2.68 2.14 1.37-1.48 2.67-2.14 4.14-2.14 2.05 0 2.94 1.58 2.94 4.58v5.15c0 1.15.33 1.48 1.1 1.53l.65.06v.37M899.38 607.64v.38c-.76.08-.97.28-1.65 1.98l-3.25 8.15c-.38.94-.56 1.27-.7 1.27-.17 0-.3-.2-.47-.66-.07-.13-.1-.3-.2-.53l-3.04-7.3c-1.1-2.6-1.35-2.86-2.3-2.9v-.4h4.96v.4c-.86.07-1.16.24-1.16.68 0 .26.07.6.22.97l2.6 6.5 2.5-6.58c.1-.26.16-.5.16-.77 0-.48-.38-.73-1.2-.8v-.4h3.54"/><path d="M880 660h120v27.04H880z" fill="#fff" fill-opacity="0"/><path d="M892.32 679.07h-5.3l.04-.38c1.27-.12 1.57-.62 1.57-2.3v-5.05c0-1.8-.6-2.57-1.85-2.57-.84 0-1.45.3-2.62 1.45v7c0 1 .36 1.35 1.66 1.46v.37h-5.36v-.38c1.3-.12 1.57-.52 1.57-2.02v-6.17c0-1.24-.18-1.64-.9-1.64-.27 0-.55.02-.72.1v-.43c1.4-.4 2.24-.7 3.5-1.15l.2.08v1.98c1.33-1.5 2.5-2.06 3.67-2.06 1.93 0 3 1.4 3 3.92v5.6c0 1.38.3 1.66 1.55 1.8v.37M893.8 673.73l-.3-.07c.52-1.7 1.65-2.9 3.52-2.9 1.67 0 2.8.98 2.8 2.45 0 .87-.47 1.77-1.67 2.5.8.33 1.1.55 1.5.94.5.56.78 1.38.78 2.32 0 .95-.3 1.83-.82 2.5-.86 1.16-2.56 1.68-4.16 1.68-1.3 0-2-.38-2-1.02 0-.38.3-.65.73-.65.3 0 .6.1 1.1.47.65.47 1.03.56 1.53.56 1.33 0 2.34-1.23 2.34-2.75 0-1.37-.63-2.25-1.87-2.6-.4-.13-.8-.18-1.83-.18v-.26c.68-.22 1.15-.42 1.5-.63.9-.5 1.46-1.3 1.46-2.4 0-1.23-.75-1.84-1.94-1.84-1.1 0-1.94.58-2.67 1.9M927.46 670.94H912.5v-1.68h14.96v1.68m0 5.08H912.5v-1.68h14.96v1.68M937.3 666.1l-.42-.1c.74-2.4 2.34-4.1 4.98-4.1 2.36 0 3.96 1.4 3.96 3.48 0 1.22-.66 2.5-2.36 3.5 1.12.5 1.57.8 2.1 1.35.72.8 1.13 1.95 1.13 3.27 0 1.35-.45 2.6-1.18 3.56-1.22 1.63-3.63 2.36-5.9 2.36-1.85 0-2.84-.53-2.84-1.45 0-.53.46-.9 1.04-.9.43 0 .84.14 1.55.65.94.66 1.47.8 2.2.8 1.86 0 3.3-1.74 3.3-3.9 0-1.93-.9-3.17-2.65-3.68-.56-.18-1.15-.25-2.6-.25v-.37c.97-.33 1.63-.6 2.14-.9 1.24-.72 2.06-1.87 2.06-3.42 0-1.7-1.07-2.58-2.75-2.58-1.57 0-2.74.82-3.78 2.7M958.82 667.44v1.95c1.12-1.4 2.24-2.02 3.66-2.02 2.46 0 4.24 2.26 4.24 5.4 0 3.7-2.3 6.54-5.33 6.54-1.08 0-1.66-.25-2.58-1.1v4c0 1.6.33 1.87 2.24 1.9v.46h-6.15v-.44c1.5-.15 1.8-.43 1.8-1.75v-11.9c0-1.2-.2-1.44-1.05-1.44-.23 0-.4 0-.64.03v-.42c1.4-.43 2.33-.76 3.67-1.3m.15 3.2v6.25c0 .76 1.45 1.68 2.64 1.68 1.83 0 3.08-1.9 3.08-4.7 0-2.96-1.25-4.9-3.13-4.9-1.15 0-2.58.92-2.58 1.68M987.2 679.07h-5.55v-.38c1.42-.17 1.65-.45 1.65-1.92v-5.23c0-2-.5-2.84-1.95-2.84-1.2 0-1.96.46-2.72 1.55v6.4c0 1.65.38 2 1.83 2.04v.37h-5.7v-.38c1.46-.12 1.74-.27 1.74-1.82v-5.36c0-1.75-.56-2.8-1.65-2.8-.94 0-2.2.47-2.7 1.08-.17.2-.32.38-.32.43v7.06c0 1.08.38 1.33 1.72 1.4v.37h-5.64v-.38c1.44-.04 1.8-.4 1.8-1.87v-6.3c0-1.24-.24-1.67-.9-1.67-.28 0-.48.02-.8.1v-.43c1.4-.38 2.23-.66 3.52-1.15l.2.08v1.88h.05c1.68-1.73 2.75-1.96 3.9-1.96 1.36 0 2.22.7 2.68 2.14 1.37-1.48 2.67-2.14 4.14-2.14 2.05 0 2.94 1.58 2.94 4.58v5.15c0 1.15.33 1.48 1.1 1.53l.65.06v.37M999.38 667.64v.38c-.76.08-.97.28-1.65 1.98l-3.25 8.15c-.38.94-.56 1.27-.7 1.27-.17 0-.3-.2-.47-.66-.07-.13-.1-.3-.2-.53l-3.04-7.3c-1.1-2.6-1.35-2.86-2.3-2.9v-.4h4.96v.4c-.86.07-1.16.24-1.16.68 0 .26.07.6.22.97l2.6 6.5 2.5-6.58c.1-.26.16-.5.16-.77 0-.48-.38-.73-1.2-.8v-.4h3.54"/><path d="M1100 692.96h120V720h-120z" fill="#fff" fill-opacity="0"/><path d="M1112.32 712.03h-5.3l.04-.38c1.27-.1 1.57-.6 1.57-2.3v-5.04c0-1.8-.6-2.56-1.85-2.56-.84 0-1.45.3-2.62 1.45v7c0 1 .36 1.34 1.66 1.45v.38h-5.36v-.38c1.3-.1 1.57-.5 1.57-2v-6.18c0-1.25-.18-1.65-.9-1.65-.27 0-.55.02-.72.1v-.43c1.4-.42 2.24-.7 3.5-1.16l.2.08v1.98c1.33-1.5 2.5-2.06 3.67-2.06 1.93 0 3 1.4 3 3.92v5.6c0 1.38.3 1.66 1.55 1.8v.37M1121.2 712.85h-1.86v3h-1.4v-3h-5.03v-1.15l5.65-8h.8v8h1.84v1.15m-3.26-1.15v-6.16l-4.3 6.16h4.3M1147.46 703.9h-14.96v-1.68h14.96v1.68m0 5.08h-14.96v-1.68h14.96v1.68M1167.75 707.8h-2.6v4.23h-2v-4.24h-7.1v-1.64l7.97-11.3h1.12v11.3h2.6v1.63m-4.58-1.64v-8.7l-6.1 8.7h6.1M1178.82 700.4v1.95c1.12-1.4 2.24-2 3.66-2 2.46 0 4.24 2.26 4.24 5.4 0 3.7-2.3 6.53-5.33 6.53-1.08 0-1.66-.25-2.58-1.1v4c0 1.6.33 1.87 2.24 1.9v.46h-6.15v-.43c1.5-.15 1.8-.43 1.8-1.75v-11.88c0-1.2-.2-1.45-1.05-1.45-.23 0-.4 0-.64.03v-.4c1.4-.44 2.33-.77 3.67-1.3m.15 3.2v6.24c0 .75 1.45 1.67 2.64 1.67 1.83 0 3.08-1.9 3.08-4.7 0-2.97-1.25-4.9-3.13-4.9-1.15 0-2.58.9-2.58 1.67M1207.2 712.03h-5.55v-.38c1.42-.16 1.65-.44 1.65-1.9v-5.24c0-2-.5-2.83-1.95-2.83-1.2 0-1.96.45-2.72 1.54v6.4c0 1.66.38 2.02 1.83 2.05v.38h-5.7v-.38c1.46-.1 1.74-.26 1.74-1.8v-5.37c0-1.75-.56-2.8-1.65-2.8-.94 0-2.2.47-2.7 1.08-.17.2-.32.38-.32.43v7.05c0 1.1.38 1.34 1.72 1.4v.38h-5.64v-.38c1.44-.03 1.8-.4 1.8-1.86v-6.3c0-1.25-.24-1.68-.9-1.68-.28 0-.48.02-.8.1v-.43c1.4-.4 2.23-.67 3.52-1.16l.2.08v1.88h.05c1.68-1.73 2.75-1.96 3.9-1.96 1.36 0 2.22.7 2.68 2.14 1.37-1.47 2.67-2.14 4.14-2.14 2.05 0 2.94 1.58 2.94 4.58v5.15c0 1.14.33 1.47 1.1 1.52l.65.05v.38M1219.38 700.6v.38c-.76.08-.97.28-1.65 1.98l-3.25 8.15c-.38.95-.56 1.28-.7 1.28-.17 0-.3-.2-.47-.66-.07-.13-.1-.3-.2-.53l-3.04-7.3c-1.1-2.62-1.35-2.87-2.3-2.92v-.38h4.96v.38c-.86.08-1.16.25-1.16.7 0 .24.07.57.22.95l2.6 6.5 2.5-6.58c.1-.25.16-.5.16-.76 0-.5-.38-.74-1.2-.82v-.38h3.54"/><path d="M1380 406c0-3.3 2.7-6 6-6h228c3.3 0 6 2.7 6 6v48c0 3.3-2.7 6-6 6h-228c-3.3 0-6-2.7-6-6z" stroke="#000" stroke-opacity="0" stroke-width="3" fill="#fff" fill-opacity="0"/><g><use xlink:href="#q" transform="matrix(1,0,0,1,1385,405) translate(94.04320987654322 30.27777777777778)"/></g><defs><path fill="#333" d="M24-231v-30h32v30H24zM-9 49c24 4 33-6 33-30v-209h32V24c2 40-23 58-65 49V49" id="r"/><path fill="#333" d="M18-150v-26h174v26H18zm0 90v-26h174v26H18" id="s"/><path fill="#333" d="M126-127c33 6 58 20 58 59 0 88-139 92-164 29-3-8-5-16-6-25l32-3c6 27 21 44 54 44 32 0 52-15 52-46 0-38-36-46-79-43v-28c39 1 72-4 72-42 0-27-17-43-46-43-28 0-47 15-49 41l-32-3c6-42 35-63 81-64 48-1 79 21 79 65 0 36-21 52-52 59" id="t"/><path fill="#333" d="M252-156c43 0 55 33 55 80 0 46-13 78-56 78-42 0-55-33-55-78 0-48 12-80 56-80zM93 0H65l162-248h28zM13-171c-1-47 13-79 56-79s55 33 55 79-13 79-55 79c-43 0-56-33-56-79zM251-17c28 0 30-29 30-59 0-31-1-60-29-60-29 0-31 29-31 60 0 29 2 59 30 59zM69-112c27 0 28-30 29-59 0-31-1-60-29-60-29 0-30 30-30 60s2 59 30 59" id="u"/><g id="a"><use transform="matrix(0.06172839506172839,0,0,0.06172839506172839,0,0)" xlink:href="#r"/><use transform="matrix(0.06172839506172839,0,0,0.06172839506172839,4.876543209876543,0)" xlink:href="#s"/><use transform="matrix(0.06172839506172839,0,0,0.06172839506172839,17.839506172839506,0)" xlink:href="#t"/><use transform="matrix(0.06172839506172839,0,0,0.06172839506172839,30.185185185185183,0)" xlink:href="#t"/><use transform="matrix(0.06172839506172839,0,0,0.06172839506172839,42.53086419753086,0)" xlink:href="#u"/></g><path fill="#333" d="M117-194c89-4 53 116 60 194h-32v-121c0-31-8-49-39-48C34-167 62-67 57 0H25l-1-190h30c1 10-1 24 2 32 11-22 29-35 61-36" id="v"/><path fill="#333" d="M141-36C126-15 110 5 73 4 37 3 15-17 15-53c-1-64 63-63 125-63 3-35-9-54-41-54-24 1-41 7-42 31l-33-3c5-37 33-52 76-52 45 0 72 20 72 64v82c-1 20 7 32 28 27v20c-31 9-61-2-59-35zM48-53c0 20 12 33 32 33 41-3 63-29 60-74-43 2-92-5-92 41" id="w"/><path fill="#333" d="M59-47c-2 24 18 29 38 22v24C64 9 27 4 27-40v-127H5v-23h24l9-43h21v43h35v23H59v120" id="x"/><g id="b"><use transform="matrix(0.06172839506172839,0,0,0.06172839506172839,0,0)" xlink:href="#v"/><use transform="matrix(0.06172839506172839,0,0,0.06172839506172839,12.345679012345679,0)" xlink:href="#w"/><use transform="matrix(0.06172839506172839,0,0,0.06172839506172839,24.691358024691358,0)" xlink:href="#x"/><use transform="matrix(0.06172839506172839,0,0,0.06172839506172839,30.864197530864196,0)" xlink:href="#w"/></g><path fill="#333" d="M155-56V0h-30v-56H8v-25l114-167h33v167h35v25h-35zm-30-156c-27 46-58 90-88 131h88v-131" id="y"/><g id="c"><use transform="matrix(0.06172839506172839,0,0,0.06172839506172839,0,0)" xlink:href="#v"/><use transform="matrix(0.06172839506172839,0,0,0.06172839506172839,12.345679012345679,0)" xlink:href="#s"/><use transform="matrix(0.06172839506172839,0,0,0.06172839506172839,25.30864197530864,0)" xlink:href="#y"/></g><path fill="#333" d="M115-194c55 1 70 41 70 98S169 2 115 4C84 4 66-9 55-30l1 105H24l-1-265h31l2 30c10-21 28-34 59-34zm-8 174c40 0 45-34 45-75s-6-73-45-74c-42 0-51 32-51 76 0 43 10 73 51 73" id="z"/><path fill="#333" d="M210-169c-67 3-38 105-44 169h-31v-121c0-29-5-50-35-48C34-165 62-65 56 0H25l-1-190h30c1 10-1 24 2 32 10-44 99-50 107 0 11-21 27-35 58-36 85-2 47 119 55 194h-31v-121c0-29-5-49-35-48" id="A"/><path fill="#333" d="M108 0H70L1-190h34L89-25l56-165h34" id="B"/><g id="d"><use transform="matrix(0.06172839506172839,0,0,0.06172839506172839,0,0)" xlink:href="#z"/><use transform="matrix(0.06172839506172839,0,0,0.06172839506172839,12.345679012345679,0)" xlink:href="#A"/><use transform="matrix(0.06172839506172839,0,0,0.06172839506172839,30.80246913580247,0)" xlink:href="#B"/></g><path fill="#333" d="M194-70c0 46-34 64-81 66v29H91V-4C42-5 12-27 4-67l30-6c5 28 25 41 57 43v-87c-38-9-76-20-76-67 1-42 33-58 76-59v-23h22v23c45 0 67 20 76 56l-31 6c-5-23-18-35-45-37v78c41 10 81 20 81 70zm-81 41c51 7 71-66 19-77-6-2-12-4-19-6v83zM91-219c-47-6-63 57-18 69 6 2 12 3 18 5v-74" id="C"/><path fill="#333" d="M27 0v-27h64v-190l-56 39v-29l58-41h29v221h61V0H27" id="D"/><path fill="#333" d="M54-142c48-35 137-8 131 61C196 18 31 33 14-55l32-4c7 23 22 37 52 37 35-1 51-22 54-58 4-55-73-65-99-34H22l8-134h141v27H59" id="E"/><path fill="#333" d="M33 0v-38h34V0H33" id="F"/><path fill="#333" d="M99-251c64 0 84 50 84 122C183-37 130 33 47-8c-14-7-20-23-25-40l30-5c6 39 69 39 84 7 9-19 16-44 16-74-10 22-31 35-62 35-49 0-73-33-73-83 0-54 28-83 82-83zm-1 141c31-1 51-18 51-49 0-36-14-67-51-67-34 0-49 23-49 58 0 34 15 58 49 58" id="G"/><path fill="#333" d="M64 0c3-98 48-159 88-221H18v-27h164v26C143-157 98-101 97 0H64" id="H"/><path fill="#333" d="M68-38c1 34 0 65-14 84H32c9-13 17-26 17-46H33v-38h35" id="I"/><path fill="#333" d="M101-251c68 0 85 55 85 127S166 4 100 4C33 4 14-52 14-124c0-73 17-127 87-127zm-1 229c47 0 54-49 54-102s-4-102-53-102c-51 0-55 48-55 102 0 53 5 102 54 102" id="J"/><g id="e"><use transform="matrix(0.06172839506172839,0,0,0.06172839506172839,0,0)" xlink:href="#C"/><use transform="matrix(0.06172839506172839,0,0,0.06172839506172839,12.345679012345679,0)" xlink:href="#D"/><use transform="matrix(0.06172839506172839,0,0,0.06172839506172839,24.691358024691358,0)" xlink:href="#E"/><use transform="matrix(0.06172839506172839,0,0,0.06172839506172839,37.03703703703704,0)" xlink:href="#E"/><use transform="matrix(0.06172839506172839,0,0,0.06172839506172839,49.382716049382715,0)" xlink:href="#F"/><use transform="matrix(0.06172839506172839,0,0,0.06172839506172839,55.55555555555556,0)" xlink:href="#G"/><use transform="matrix(0.06172839506172839,0,0,0.06172839506172839,67.90123456790124,0)" xlink:href="#t"/><use transform="matrix(0.06172839506172839,0,0,0.06172839506172839,80.24691358024693,0)" xlink:href="#H"/><use transform="matrix(0.06172839506172839,0,0,0.06172839506172839,92.59259259259261,0)" xlink:href="#I"/><use transform="matrix(0.06172839506172839,0,0,0.06172839506172839,98.76543209876544,0)" xlink:href="#E"/><use transform="matrix(0.06172839506172839,0,0,0.06172839506172839,111.11111111111113,0)" xlink:href="#J"/></g><path fill="#333" d="M101-251c68 0 84 54 84 127C185-50 166 4 99 4S15-52 14-124c-1-75 17-127 87-127zm-1 216c37-5 36-46 36-89s4-89-36-89c-39 0-36 45-36 89 0 43-3 85 36 89" id="K"/><use transform="matrix(0.04938271604938272,0,0,0.04938271604938272,0,0)" xlink:href="#K" id="f"/><path fill="#333" d="M101-251c82-7 93 87 43 132L82-64C71-53 59-42 53-27h129V0H18c2-99 128-94 128-182 0-28-16-43-45-43s-46 15-49 41l-32-3c6-41 34-60 81-64" id="L"/><g id="g"><use transform="matrix(0.06172839506172839,0,0,0.06172839506172839,0,0)" xlink:href="#C"/><use transform="matrix(0.06172839506172839,0,0,0.06172839506172839,12.345679012345679,0)" xlink:href="#y"/><use transform="matrix(0.06172839506172839,0,0,0.06172839506172839,24.691358024691358,0)" xlink:href="#D"/><use transform="matrix(0.06172839506172839,0,0,0.06172839506172839,37.03703703703704,0)" xlink:href="#F"/><use transform="matrix(0.06172839506172839,0,0,0.06172839506172839,43.20987654320988,0)" xlink:href="#L"/><use transform="matrix(0.06172839506172839,0,0,0.06172839506172839,55.55555555555556,0)" xlink:href="#E"/><use transform="matrix(0.06172839506172839,0,0,0.06172839506172839,67.90123456790124,0)" xlink:href="#J"/></g><path fill="#333" d="M110-160c48 1 74 30 74 79 0 53-28 85-80 85-65 0-83-55-86-122-5-90 50-162 133-122 14 7 22 21 27 39l-31 6c-5-40-67-38-82-6-9 19-15 44-15 74 11-20 30-34 60-33zm-7 138c34 0 49-23 49-58s-16-56-50-56c-29 0-50 16-49 49 1 36 15 65 50 65" id="M"/><g id="h"><use transform="matrix(0.06172839506172839,0,0,0.06172839506172839,0,0)" xlink:href="#C"/><use transform="matrix(0.06172839506172839,0,0,0.06172839506172839,12.345679012345679,0)" xlink:href="#D"/><use transform="matrix(0.06172839506172839,0,0,0.06172839506172839,24.691358024691358,0)" xlink:href="#y"/><use transform="matrix(0.06172839506172839,0,0,0.06172839506172839,37.03703703703704,0)" xlink:href="#M"/><use transform="matrix(0.06172839506172839,0,0,0.06172839506172839,49.382716049382715,0)" xlink:href="#F"/><use transform="matrix(0.06172839506172839,0,0,0.06172839506172839,55.55555555555556,0)" xlink:href="#M"/><use transform="matrix(0.06172839506172839,0,0,0.06172839506172839,67.90123456790124,0)" xlink:href="#L"/><use transform="matrix(0.06172839506172839,0,0,0.06172839506172839,80.24691358024693,0)" xlink:href="#E"/></g><g id="i"><use transform="matrix(0.06172839506172839,0,0,0.06172839506172839,0,0)" xlink:href="#C"/><use transform="matrix(0.06172839506172839,0,0,0.06172839506172839,12.345679012345679,0)" xlink:href="#D"/><use transform="matrix(0.06172839506172839,0,0,0.06172839506172839,24.691358024691358,0)" xlink:href="#t"/><use transform="matrix(0.06172839506172839,0,0,0.06172839506172839,37.03703703703704,0)" xlink:href="#E"/><use transform="matrix(0.06172839506172839,0,0,0.06172839506172839,49.382716049382715,0)" xlink:href="#F"/><use transform="matrix(0.06172839506172839,0,0,0.06172839506172839,55.55555555555556,0)" xlink:href="#G"/><use transform="matrix(0.06172839506172839,0,0,0.06172839506172839,67.90123456790124,0)" xlink:href="#D"/><use transform="matrix(0.06172839506172839,0,0,0.06172839506172839,80.24691358024693,0)" xlink:href="#L"/><use transform="matrix(0.06172839506172839,0,0,0.06172839506172839,92.59259259259261,0)" xlink:href="#I"/><use transform="matrix(0.06172839506172839,0,0,0.06172839506172839,98.76543209876544,0)" xlink:href="#E"/><use transform="matrix(0.06172839506172839,0,0,0.06172839506172839,111.11111111111113,0)" xlink:href="#J"/></g><g id="j"><use transform="matrix(0.06172839506172839,0,0,0.06172839506172839,0,0)" xlink:href="#C"/><use transform="matrix(0.06172839506172839,0,0,0.06172839506172839,12.345679012345679,0)" xlink:href="#D"/><use transform="matrix(0.06172839506172839,0,0,0.06172839506172839,24.691358024691358,0)" xlink:href="#L"/><use transform="matrix(0.06172839506172839,0,0,0.06172839506172839,37.03703703703704,0)" xlink:href="#E"/><use transform="matrix(0.06172839506172839,0,0,0.06172839506172839,49.382716049382715,0)" xlink:href="#F"/><use transform="matrix(0.06172839506172839,0,0,0.06172839506172839,55.55555555555556,0)" xlink:href="#J"/><use transform="matrix(0.06172839506172839,0,0,0.06172839506172839,67.90123456790124,0)" xlink:href="#J"/><use transform="matrix(0.06172839506172839,0,0,0.06172839506172839,80.24691358024693,0)" xlink:href="#J"/></g><use transform="matrix(0.049382716049382706,0,0,0.049382716049382706,0,0)" xlink:href="#D" id="k"/><use transform="matrix(0.049382716049382706,0,0,0.049382716049382706,0,0)" xlink:href="#L" id="l"/><use transform="matrix(0.049382716049382706,0,0,0.049382716049382706,0,0)" xlink:href="#t" id="m"/><use transform="matrix(0.049382716049382706,0,0,0.049382716049382706,0,0)" xlink:href="#y" id="n"/><path fill="#333" d="M137 0h-34L2-248h35l83 218 83-218h36" id="N"/><path fill="#333" d="M30-248c87 1 191-15 191 75 0 78-77 80-158 76V0H30v-248zm33 125c57 0 124 11 124-50 0-59-68-47-124-48v98" id="O"/><g id="o"><use transform="matrix(0.06172839506172839,0,0,0.06172839506172839,0,0)" xlink:href="#N"/><use transform="matrix(0.06172839506172839,0,0,0.06172839506172839,14.814814814814813,0)" xlink:href="#O"/><use transform="matrix(0.06172839506172839,0,0,0.06172839506172839,29.629629629629626,0)" xlink:href="#s"/><use transform="matrix(0.06172839506172839,0,0,0.06172839506172839,42.59259259259259,0)" xlink:href="#C"/><use transform="matrix(0.06172839506172839,0,0,0.06172839506172839,54.938271604938265,0)" xlink:href="#E"/><use transform="matrix(0.06172839506172839,0,0,0.06172839506172839,67.28395061728395,0)" xlink:href="#J"/><use transform="matrix(0.06172839506172839,0,0,0.06172839506172839,79.62962962962963,0)" xlink:href="#J"/><use transform="matrix(0.06172839506172839,0,0,0.06172839506172839,91.97530864197532,0)" xlink:href="#F"/><use transform="matrix(0.06172839506172839,0,0,0.06172839506172839,98.14814814814815,0)" xlink:href="#J"/><use transform="matrix(0.06172839506172839,0,0,0.06172839506172839,110.49382716049384,0)" xlink:href="#J"/><use transform="matrix(0.06172839506172839,0,0,0.06172839506172839,122.83950617283952,0)" xlink:href="#J"/></g><path fill="#333" d="M101-234c-31-9-42 10-38 44h38v23H63V0H32v-167H5v-23h27c-7-52 17-82 69-68v24" id="P"/><g id="p"><use transform="matrix(0.06172839506172839,0,0,0.06172839506172839,0,0)" xlink:href="#P"/><use transform="matrix(0.06172839506172839,0,0,0.06172839506172839,5.7407407407407405,0)" xlink:href="#P"/></g><g id="q"><use transform="matrix(0.06172839506172839,0,0,0.06172839506172839,0,0)" xlink:href="#z"/><use transform="matrix(0.06172839506172839,0,0,0.06172839506172839,12.345679012345679,0)" xlink:href="#A"/><use transform="matrix(0.06172839506172839,0,0,0.06172839506172839,30.80246913580247,0)" xlink:href="#B"/></g></defs></g></svg>