<svg xmlns="http://www.w3.org/2000/svg" xmlns:xlink="http://www.w3.org/1999/xlink" xmlns:lucid="lucid" width="1580" height="750.75"><g transform="translate(-60 -40)" lucid:page-tab-id="0_0"><path d="M0 0h1870.4v1323.2H0z" fill="#fff"/><path d="M549.33 108c0-3.3 2.7-6 6-6h228c3.32 0 6 2.7 6 6v48c0 3.3-2.68 6-6 6h-228c-3.3 0-6-2.7-6-6z" fill="none"/><use xlink:href="#a" transform="matrix(1,0,0,1,549.3333333333333,102) translate(74.6604938271605 21.111111111111114)"/><use xlink:href="#b" transform="matrix(1,0,0,1,549.3333333333333,102) translate(130.7716049382716 21.111111111111114)"/><use xlink:href="#c" transform="matrix(1,0,0,1,549.3333333333333,102) translate(91.2962962962963 47.777777777777786)"/><path d="M280 366c0-3.3 2.7-6 6-6h228c3.3 0 6 2.7 6 6v48c0 3.3-2.7 6-6 6H286c-3.3 0-6-2.7-6-6z" fill="none"/><path d="M1511.5 301H201v-2h1310.5z" fill="#5e5e5e"/><path d="M201.03 301H200v-2h1.03zM1526.76 300l-14.26 4.64v-9.28z" fill="#5e5e5e"/><path d="M1530 300l-18.5 6v-12zm-16.5 3.26l10.03-3.26-10.03-3.26z" fill="#5e5e5e"/><path d="M400 301v40.5" stroke="#5e5e5e" stroke-width="2" fill="none"/><path d="M401 301.03h-2V300h2z" fill="#5e5e5e"/><path d="M400 356.76l-4.64-14.26h9.28z" stroke="#5e5e5e" stroke-width="2" fill="#5e5e5e"/><path d="M600 301v40.5" stroke="#5e5e5e" stroke-width="2" fill="none"/><path d="M601 301.03h-2V300h2z" fill="#5e5e5e"/><path d="M600 356.76l-4.64-14.26h9.28z" stroke="#5e5e5e" stroke-width="2" fill="#5e5e5e"/><path d="M800 301v40.5" stroke="#5e5e5e" stroke-width="2" fill="none"/><path d="M801 301.03h-2V300h2z" fill="#5e5e5e"/><path d="M800 356.76l-4.64-14.26h9.28z" stroke="#5e5e5e" stroke-width="2" fill="#5e5e5e"/><path d="M1000 301v40.5" stroke="#5e5e5e" stroke-width="2" fill="none"/><path d="M1001 301.03h-2V300h2z" fill="#5e5e5e"/><path d="M1000 356.76l-4.64-14.26h9.28z" stroke="#5e5e5e" stroke-width="2" fill="#5e5e5e"/><path d="M200 301v40.5M200 301.03V300" stroke="#5e5e5e" stroke-width="2" fill="none"/><path d="M200 356.76l-4.64-14.26h9.28z" stroke="#5e5e5e" stroke-width="2" fill="#5e5e5e"/><path d="M201 299h-2v-11h2zm0-32.33h-2V138.5h2z" fill="#5e5e5e"/><path fill="#5e5e5e"/><path d="M204.64 137.5h-9.28l4.64-14.26z" fill="#5e5e5e"/><path d="M206 138.5h-12l6-18.5zm-9.26-2h6.52L200 126.47z" fill="#5e5e5e"/><use xlink:href="#d" transform="matrix(1,0,0,1,195.06172839506172,266.6676666666666) translate(0.004999999999999893 14.222222222222223)"/><path d="M80 366c0-3.3 2.7-6 6-6h228c3.3 0 6 2.7 6 6v48c0 3.3-2.7 6-6 6H86c-3.3 0-6-2.7-6-6zM480 366c0-3.3 2.7-6 6-6h228c3.3 0 6 2.7 6 6v48c0 3.3-2.7 6-6 6H486c-3.3 0-6-2.7-6-6z" stroke="#000" stroke-opacity="0" stroke-width="3" fill="#fff" fill-opacity="0"/><path d="M680 366c0-3.3 2.7-6 6-6h228c3.3 0 6 2.7 6 6v48c0 3.3-2.7 6-6 6H686c-3.3 0-6-2.7-6-6z" stroke="#000" stroke-opacity="0" stroke-width="3" fill="#fff" fill-opacity="0"/><path d="M880 366c0-3.3 2.7-6 6-6h228c3.3 0 6 2.7 6 6v48c0 3.3-2.7 6-6 6H886c-3.3 0-6-2.7-6-6zM280 246c0-3.3 2.7-6 6-6h228c3.3 0 6 2.7 6 6v48c0 3.3-2.7 6-6 6H286c-3.3 0-6-2.7-6-6z" stroke="#000" stroke-opacity="0" stroke-width="3" fill="#fff" fill-opacity="0"/><use xlink:href="#e" transform="matrix(1,0,0,1,285,245) translate(110.06172839506173 29.84722222222222)"/><path d="M480 246c0-3.3 2.7-6 6-6h228c3.3 0 6 2.7 6 6v48c0 3.3-2.7 6-6 6H486c-3.3 0-6-2.7-6-6z" stroke="#000" stroke-opacity="0" stroke-width="3" fill="#fff" fill-opacity="0"/><use xlink:href="#f" transform="matrix(1,0,0,1,485,245) translate(110.06172839506173 29.84722222222222)"/><path d="M680 246c0-3.3 2.7-6 6-6h228c3.3 0 6 2.7 6 6v48c0 3.3-2.7 6-6 6H686c-3.3 0-6-2.7-6-6z" stroke="#000" stroke-opacity="0" stroke-width="3" fill="#fff" fill-opacity="0"/><use xlink:href="#g" transform="matrix(1,0,0,1,685,245) translate(110.06172839506173 29.84722222222222)"/><path d="M880 246c0-3.3 2.7-6 6-6h228c3.3 0 6 2.7 6 6v48c0 3.3-2.7 6-6 6H886c-3.3 0-6-2.7-6-6z" stroke="#000" stroke-opacity="0" stroke-width="3" fill="#fff" fill-opacity="0"/><use xlink:href="#h" transform="matrix(1,0,0,1,885.0000000000001,245) translate(110.06172839506173 29.84722222222222)"/><path d="M80 66c0-3.3 2.7-6 6-6h228c3.3 0 6 2.7 6 6v48c0 3.3-2.7 6-6 6H86c-3.3 0-6-2.7-6-6z" stroke="#000" stroke-opacity="0" stroke-width="3" fill="#fff" fill-opacity="0"/><use xlink:href="#i" transform="matrix(1,0,0,1,85,65) translate(47.407407407407405 30.27777777777778)"/><path d="M200 361v9.6m0 9.58v19.2m0 9.58v19.2m0 9.58v19.18m0 9.6v19.18m0 9.6v19.18m0 9.6v19.18m0 9.6v19.18m0 9.6v19.17m0 9.6v9.6M185 619h30" stroke="#5e5e5e" stroke-width="2" fill="none"/><path d="M80 626c0-3.3 2.7-6 6-6h228c3.3 0 6 2.7 6 6v48c0 3.3-2.7 6-6 6H86c-3.3 0-6-2.7-6-6z" stroke="#000" stroke-opacity="0" stroke-width="3" fill="#fff" fill-opacity="0"/><use xlink:href="#j" transform="matrix(1,0,0,1,85,625) translate(109.04320987654322 30.27777777777778)"/><path d="M200.95 438.48l.48 4.6.78 5.23m1.8 9.75l1.5 6.45 1.94 6.9 1.86 5.73m3.48 9.28l2.18 5.2 3.13 6.65 3.16 6.06m5 8.57l3.3 5.23 4.62 6.64 3.35 4.4m6.23 7.72l1.04 1.26 6.1 6.76 6.35 6.5m7.2 6.78l.5.45 8.07 6.98 6.66 5.28m7.94 5.9l4.1 3 10.83 7.18 1.5.9m8.48 5.14l1.98 1.2 13.22 7.26 2.18 1.08m8.87 4.4l3.57 1.77 14.47 6.42m9.2 3.72l10.34 4.1 8.2 2.85m9.37 3.24l2.1.73 16.86 5.08m9.54 2.66l18.7 4.8.5.12m9.7 2.05l15.3 3.25 4.12.7m9.77 1.65l13.46 2.27 6.1.77m9.84 1.25l13.05 1.65 6.64.55m9.87.83l13.76 1.16 6 .25m9.9.4l15.2.64h4.6m9.92 0h16.88l2.93-.13m9.9-.4l18.28-.77 1.52-.13m9.88-.82l18.88-1.6.86-.1m9.83-1.24l18.3-2.3 1.37-.24m9.77-1.65l16.22-2.74 3.3-.7m9.7-2.05l12.5-2.66 6.8-1.75m9.6-2.46l7.14-1.84 11.92-3.6m9.5-2.86l.14-.05 18.57-6.46m9.23-3.6l9.68-3.84 8.6-3.82m9.02-4.1l13.15-6.52 4.5-2.47m8.7-4.78h.02l11.96-7.25 4.84-3.2m8.2-5.6l7.58-5.5 8.18-6.48m7.53-6.45l1.28-1.1 7.35-6.9 5.64-5.76m6.68-7.32l.46-.52 5.57-6.7 5.06-6.68 1.16-1.67m5.5-8.23l2.14-3.35 3.82-6.6 3.46-6.63.32-.68m4.1-9.02l1.5-3.62 2.5-6.73 2.23-6.82.4-1.5m2.5-9.58l.66-2.82 1.36-7.14 1.07-7.3.24-2.27m.85-9.87l.2-3 .13-6.9" stroke="#0c7cba" stroke-width="2" fill="none"/><path d="M200.17 423.24l5.36 14-9.26.5z" stroke="#0c7cba" stroke-width="2" fill="#0c7cba"/><path d="M1000.98 421.05l-2-.05.02-1h2z" fill="#0c7cba"/><path d="M201.9 438.45l.65 4.35 1.02 5.35.05.2m2.5 9.75l.13.5 1.66 5.1 1.9 5.05 2.1 5.02 1.44 3.07m4.67 8.9l1.7 2.95 3.17 4.96 3.46 4.98 2.87 3.78m6.42 7.73l3.26 3.62 5.02 5.12 5.52 5.17.38.33m7.68 6.48l4.7 3.72 7.36 5.35 4.18 2.77m8.5 5.38l4.42 2.68 9.93 5.45 3.23 1.6m9.03 4.42l10.84 4.82 7.67 3.03m9.4 3.55l11.08 3.85 8.02 2.42m9.65 2.84l16.2 4.16 3.3.7m9.83 2.1l6 1.26 13.78 2.33m9.94 1.55l18.6 2.35 1.36.1m10.02.85l11.37.95 8.68.36m10.04.42l4.62.2h15.5m10.04-.1l20.1-.83m10-.78l14.02-1.18 6-.77m9.98-1.26l5.8-.73 14.06-2.38m9.9-1.8l15.7-3.35 3.92-1m9.74-2.5l4.03-1.03 15.26-4.6m9.5-3.27l6.17-2.15 12.63-5m9.2-4.05l3.7-1.64 10.96-5.44 3.35-1.84m8.76-4.94l6.8-4.1 8.12-5.4 1.95-1.42m8.05-6.02l4.04-3.2 6.07-5.24 5.05-4.75m7-7.22l3.06-3.4 4.18-5.05 3.8-5 1.53-2.2m5.5-8.44l2.46-4.3 2.6-4.96 2.34-4.98 1.57-3.74m3.43-9.45l.65-2 1.45-5.17 1.23-5.26 1.02-5.36.26-1.76m1.2-9.98l.3-5.1.1-4.94" stroke="#0c7cba" stroke-width="2" fill="none"/><path d="M200.88 423.24l5.6 13.92-9.26.62z" stroke="#0c7cba" stroke-width="2" fill="#0c7cba"/><path d="M802.3 421.05l-2-.05.03-1h2z" fill="#0c7cba"/><path d="M201.2 438.38l.07.34.82 3.5.95 3.44.86 2.66m3.9 9.54l.56 1.2 1.73 3.3 1.9 3.3 2.1 3.3 2.3 3.32 2.3 3.03m6.76 7.78l2.62 2.67 3.67 3.44 4.03 3.47 4.44 3.52.7.5m8.45 5.87l1.15.76 5.97 3.6 6.6 3.64 4.23 2.1m9.36 4.32l1.75.77 8.9 3.53 8.6 3m9.86 3.02l2.13.64 11.75 3 6.13 1.3m10.12 2l10.15 1.72 10.25 1.3m10.25 1.03l9.1.77 11.47.48m10.3.17h9.4l11.2-.47m10.3-.68l9.15-.77 11.33-1.43m10.18-1.6l6.62-1.1 12.73-2.7.87-.23m9.98-2.56l.9-.23 10.76-3.25 7.98-2.78m9.62-3.7l1.1-.45 8.07-3.6 7.3-3.6 2.14-1.2m8.93-5.14l1.5-.9 5.4-3.6 4.9-3.55 4.43-3.52.5-.44m7.63-6.92l2.9-2.97 3.05-3.38 2.78-3.35 2.53-3.33 1.94-2.78m5.27-8.86l.84-1.6 1.56-3.3 1.4-3.33 1.25-3.36 1.1-3.4.97-3.43.18-.8m1.88-10.12l.36-3.5.24-3.83.07-2.95" stroke="#0c7cba" stroke-width="2" fill="none"/><path d="M199.66 423.22l6.05 13.73-9.2.94z" stroke="#0c7cba" stroke-width="2" fill="#0c7cba"/><path d="M599.65 421.05l-2-.05.02-1h2z" fill="#0c7cba"/><path d="M204.5 437.95l.6 1.3.86 1.6.94 1.64 1.04 1.62 1.13 1.63.42.55m6.52 7.2l.6.58 2 1.7 2.18 1.74 2.42 1.75 2.66 1.77 2.94 1.78 3.17 1.74m8.84 4.07l3.18 1.26 4.83 1.67 5.3 1.6 5.24 1.34m9.54 1.94l4 .68 7.12.9 7.44.62.78.03m9.73.3h4.87l7.64-.33 6.96-.58m9.65-1.3l4.7-.78 6.28-1.33 5.78-1.5 2.24-.66m9.22-3.14l3.06-1.2 3.97-1.78 3.6-1.78 3.24-1.8 2.93-1.76.58-.4m7.8-5.82l.87-.75 1.8-1.7 1.66-1.67 1.5-1.67 1.36-1.65 1.23-1.64 1.14-1.63 1.03-1.6.94-1.64.6-1.13m3.4-9.1l.34-1.42.34-1.74.26-1.8.2-1.83.1-1.9.03-.93" stroke="#0c7cba" stroke-width="2" fill="none"/><path d="M201.34 423.17l7.52 12.98-9.06 1.94z" stroke="#0c7cba" stroke-width="2" fill="#0c7cba"/><path d="M398.3 421.05l-2-.05.03-1h2z" fill="#0c7cba"/><path d="M240 440h110.12v27.04H240z" fill="#fff" fill-opacity="0"/><path d="M252.32 459.07h-5.3l.04-.38c1.27-.12 1.57-.62 1.57-2.3v-5.05c0-1.8-.6-2.57-1.85-2.57-.84 0-1.45.3-2.62 1.45v7c0 1 .36 1.35 1.66 1.46v.37h-5.36v-.38c1.3-.12 1.57-.52 1.57-2.02v-6.17c0-1.24-.18-1.64-.9-1.64-.27 0-.55.02-.72.1v-.43c1.4-.4 2.24-.7 3.5-1.15l.2.08v1.98c1.33-1.5 2.5-2.06 3.67-2.06 1.93 0 3 1.4 3 3.92v5.6c0 1.38.3 1.66 1.55 1.8v.37M259.77 462.9h-4.96v-.28c1.34-.07 1.72-.45 1.72-1.44v-8.06c0-.6-.16-.88-.54-.88-.18 0-.5.1-.8.22l-.5.18v-.25l3.22-1.65.16.06v10.73c0 .77.36 1.1 1.7 1.1v.26M287.46 450.94H272.5v-1.68h14.96v1.68m0 5.08H272.5v-1.68h14.96v1.68M305.75 459.07h-7v-.38c1.87-.12 2.4-.65 2.4-2.05v-11.4c0-.86-.23-1.24-.76-1.24-.27 0-.7.13-1.16.3l-.68.27v-.36l4.54-2.3.23.08v15.16c0 1.1.5 1.55 2.42 1.55v.37M318.82 447.44v1.95c1.12-1.4 2.24-2.02 3.66-2.02 2.46 0 4.24 2.26 4.24 5.4 0 3.7-2.3 6.54-5.33 6.54-1.08 0-1.66-.25-2.58-1.1v4c0 1.6.33 1.87 2.24 1.9v.46h-6.15v-.44c1.5-.15 1.8-.43 1.8-1.75v-11.9c0-1.2-.2-1.44-1.05-1.44-.23 0-.4 0-.64.03v-.42c1.4-.43 2.33-.76 3.67-1.3m.15 3.2v6.25c0 .76 1.45 1.68 2.64 1.68 1.83 0 3.08-1.9 3.08-4.7 0-2.96-1.25-4.9-3.13-4.9-1.15 0-2.58.92-2.58 1.68M331.47 451.42l2.64 1.6c1.64 1 2.25 1.68 2.25 3.13 0 1.7-1.63 3.17-3.56 3.17-.54 0-1.28-.03-1.86-.23-.6-.2-.9-.24-1.17-.24-.3 0-.46.05-.6.3h-.34v-3.98h.4c.54 2.46 1.48 3.58 3.23 3.58 1.3 0 2.1-.84 2.1-1.88 0-.8-.5-1.45-1.34-1.9l-1.37-.76c-2.1-1.17-3.05-2.4-3.05-3.7 0-2 1.43-3.1 3.5-3.1.62 0 1.18.02 1.7.27.3.12.54.2.72.2.1 0 .2-.03.4-.26h.3l.1 3.45h-.37c-.58-2.3-1.34-3.13-2.87-3.13-1.1 0-1.9.53-1.9 1.73 0 .55.38 1.3 1.1 1.72M349.5 447.64v.38c-.76.08-.97.28-1.65 1.98l-3.25 8.15c-.38.94-.56 1.27-.7 1.27-.16 0-.3-.2-.47-.66-.08-.13-.1-.3-.2-.53l-3.05-7.3c-1.1-2.6-1.35-2.86-2.3-2.9v-.4h4.97v.4c-.87.07-1.17.24-1.17.68 0 .26.07.6.23.97l2.6 6.5 2.5-6.58c.1-.26.16-.5.16-.77 0-.48-.38-.73-1.2-.8v-.4h3.54"/><path d="M380 500h110.12v27.04H380z" fill="#fff" fill-opacity="0"/><path d="M392.32 519.07h-5.3l.04-.38c1.27-.12 1.57-.62 1.57-2.3v-5.05c0-1.8-.6-2.57-1.85-2.57-.84 0-1.45.3-2.62 1.45v7c0 1 .36 1.35 1.66 1.46v.37h-5.36v-.38c1.3-.12 1.57-.52 1.57-2.02v-6.17c0-1.24-.18-1.64-.9-1.64-.27 0-.55.02-.72.1v-.43c1.4-.4 2.24-.7 3.5-1.15l.2.08v1.98c1.33-1.5 2.5-2.06 3.67-2.06 1.93 0 3 1.4 3 3.92v5.6c0 1.38.3 1.66 1.55 1.8v.37M401.2 520.43l-.97 2.46h-7.02v-.23l3.2-3.4c1.7-1.77 2.34-3.13 2.34-4.66 0-1.62-.97-2.52-2.5-2.52-1.28 0-1.9.58-2.63 2.34l-.37-.1c.38-2.1 1.53-3.57 3.74-3.57 2.02 0 3.32 1.4 3.32 3.16 0 1.43-.7 2.78-2.3 4.47l-2.97 3.16h4.2c.75 0 1.13-.2 1.72-1.2M427.46 510.94H412.5v-1.68h14.96v1.68m0 5.08H412.5v-1.68h14.96v1.68M447.78 515.6l-1.37 3.47h-9.92v-.3l4.52-4.8c2.38-2.52 3.3-4.45 3.3-6.6 0-2.32-1.37-3.6-3.53-3.6-1.83 0-2.72.82-3.73 3.3l-.54-.12c.54-2.97 2.16-5.05 5.28-5.05 2.87 0 4.7 1.95 4.7 4.47 0 2-1 3.9-3.25 6.3l-4.2 4.47H445c1.07 0 1.6-.28 2.44-1.7M458.82 507.44v1.95c1.12-1.4 2.24-2.02 3.66-2.02 2.46 0 4.24 2.26 4.24 5.4 0 3.7-2.3 6.54-5.33 6.54-1.08 0-1.66-.25-2.58-1.1v4c0 1.6.33 1.87 2.24 1.9v.46h-6.15v-.44c1.5-.15 1.8-.43 1.8-1.75v-11.9c0-1.2-.2-1.44-1.05-1.44-.23 0-.4 0-.64.03v-.42c1.4-.43 2.33-.76 3.67-1.3m.15 3.2v6.25c0 .76 1.45 1.68 2.64 1.68 1.83 0 3.08-1.9 3.08-4.7 0-2.96-1.25-4.9-3.13-4.9-1.15 0-2.58.92-2.58 1.68M471.47 511.42l2.64 1.6c1.64 1 2.25 1.68 2.25 3.13 0 1.7-1.63 3.17-3.56 3.17-.54 0-1.28-.03-1.86-.23-.6-.2-.9-.24-1.17-.24-.3 0-.46.05-.6.3h-.34v-3.98h.4c.54 2.46 1.48 3.58 3.23 3.58 1.3 0 2.1-.84 2.1-1.88 0-.8-.5-1.45-1.34-1.9l-1.37-.76c-2.1-1.17-3.05-2.4-3.05-3.7 0-2 1.43-3.1 3.5-3.1.62 0 1.18.02 1.7.27.3.12.54.2.72.2.1 0 .2-.03.4-.26h.3l.1 3.45h-.37c-.58-2.3-1.34-3.13-2.87-3.13-1.1 0-1.9.53-1.9 1.73 0 .55.38 1.3 1.1 1.72M489.5 507.64v.38c-.76.08-.97.28-1.65 1.98l-3.25 8.15c-.38.94-.56 1.27-.7 1.27-.16 0-.3-.2-.47-.66-.08-.13-.1-.3-.2-.53l-3.05-7.3c-1.1-2.6-1.35-2.86-2.3-2.9v-.4h4.97v.4c-.87.07-1.17.24-1.17.68 0 .26.07.6.23.97l2.6 6.5 2.5-6.58c.1-.26.16-.5.16-.77 0-.48-.38-.73-1.2-.8v-.4h3.54"/><path d="M480 560h110.12v27.04H480z" fill="#fff" fill-opacity="0"/><path d="M492.32 579.07h-5.3l.04-.38c1.27-.12 1.57-.62 1.57-2.3v-5.05c0-1.8-.6-2.57-1.85-2.57-.84 0-1.45.3-2.62 1.45v7c0 1 .36 1.35 1.66 1.46v.37h-5.36v-.38c1.3-.12 1.57-.52 1.57-2.02v-6.17c0-1.24-.18-1.64-.9-1.64-.27 0-.55.02-.72.1v-.43c1.4-.4 2.24-.7 3.5-1.15l.2.08v1.98c1.33-1.5 2.5-2.06 3.67-2.06 1.93 0 3 1.4 3 3.92v5.6c0 1.38.3 1.66 1.55 1.8v.37M493.8 573.73l-.3-.07c.52-1.7 1.65-2.9 3.52-2.9 1.67 0 2.8.98 2.8 2.45 0 .87-.47 1.77-1.67 2.5.8.33 1.1.55 1.5.94.5.56.78 1.38.78 2.32 0 .95-.3 1.83-.82 2.5-.86 1.16-2.56 1.68-4.16 1.68-1.3 0-2-.38-2-1.02 0-.38.3-.65.73-.65.3 0 .6.1 1.1.47.65.47 1.03.56 1.53.56 1.33 0 2.34-1.23 2.34-2.75 0-1.37-.63-2.25-1.87-2.6-.4-.13-.8-.18-1.83-.18v-.26c.68-.22 1.15-.42 1.5-.63.9-.5 1.46-1.3 1.46-2.4 0-1.23-.75-1.84-1.94-1.84-1.1 0-1.94.58-2.67 1.9M527.46 570.94H512.5v-1.68h14.96v1.68m0 5.08H512.5v-1.68h14.96v1.68M537.3 566.1l-.42-.1c.74-2.4 2.34-4.1 4.98-4.1 2.36 0 3.96 1.4 3.96 3.48 0 1.22-.66 2.5-2.36 3.5 1.12.5 1.57.8 2.1 1.35.72.8 1.13 1.95 1.13 3.27 0 1.35-.45 2.6-1.18 3.56-1.22 1.63-3.63 2.36-5.9 2.36-1.85 0-2.84-.53-2.84-1.45 0-.53.46-.9 1.04-.9.43 0 .84.14 1.55.65.94.66 1.47.8 2.2.8 1.86 0 3.3-1.74 3.3-3.9 0-1.93-.9-3.17-2.65-3.68-.56-.18-1.15-.25-2.6-.25v-.37c.97-.33 1.63-.6 2.14-.9 1.24-.72 2.06-1.87 2.06-3.42 0-1.7-1.07-2.58-2.75-2.58-1.57 0-2.74.82-3.78 2.7M558.82 567.44v1.95c1.12-1.4 2.24-2.02 3.66-2.02 2.46 0 4.24 2.26 4.24 5.4 0 3.7-2.3 6.54-5.33 6.54-1.08 0-1.66-.25-2.58-1.1v4c0 1.6.33 1.87 2.24 1.9v.46h-6.15v-.44c1.5-.15 1.8-.43 1.8-1.75v-11.9c0-1.2-.2-1.44-1.05-1.44-.23 0-.4 0-.64.03v-.42c1.4-.43 2.33-.76 3.67-1.3m.15 3.2v6.25c0 .76 1.45 1.68 2.64 1.68 1.83 0 3.08-1.9 3.08-4.7 0-2.96-1.25-4.9-3.13-4.9-1.15 0-2.58.92-2.58 1.68M571.47 571.42l2.64 1.6c1.64 1 2.25 1.68 2.25 3.13 0 1.7-1.63 3.17-3.56 3.17-.54 0-1.28-.03-1.86-.23-.6-.2-.9-.24-1.17-.24-.3 0-.46.05-.6.3h-.34v-3.98h.4c.54 2.46 1.48 3.58 3.23 3.58 1.3 0 2.1-.84 2.1-1.88 0-.8-.5-1.45-1.34-1.9l-1.37-.76c-2.1-1.17-3.05-2.4-3.05-3.7 0-2 1.43-3.1 3.5-3.1.62 0 1.18.02 1.7.27.3.12.54.2.72.2.1 0 .2-.03.4-.26h.3l.1 3.45h-.37c-.58-2.3-1.34-3.13-2.87-3.13-1.1 0-1.9.53-1.9 1.73 0 .55.38 1.3 1.1 1.72M589.5 567.64v.38c-.76.08-.97.28-1.65 1.98l-3.25 8.15c-.38.94-.56 1.27-.7 1.27-.16 0-.3-.2-.47-.66-.08-.13-.1-.3-.2-.53l-3.05-7.3c-1.1-2.6-1.35-2.86-2.3-2.9v-.4h4.97v.4c-.87.07-1.17.24-1.17.68 0 .26.07.6.23.97l2.6 6.5 2.5-6.58c.1-.26.16-.5.16-.77 0-.48-.38-.73-1.2-.8v-.4h3.54"/><path d="M700 592.96h110.12V620H700z" fill="#fff" fill-opacity="0"/><path d="M712.32 612.03h-5.3l.04-.38c1.27-.1 1.57-.6 1.57-2.3v-5.04c0-1.8-.6-2.56-1.85-2.56-.84 0-1.45.3-2.62 1.45v7c0 1 .36 1.34 1.66 1.45v.38h-5.36v-.38c1.3-.1 1.57-.5 1.57-2v-6.18c0-1.25-.18-1.65-.9-1.65-.27 0-.55.02-.72.1v-.43c1.4-.42 2.24-.7 3.5-1.16l.2.08v1.98c1.33-1.5 2.5-2.06 3.67-2.06 1.93 0 3 1.4 3 3.92v5.6c0 1.38.3 1.66 1.55 1.8v.37M721.2 612.85h-1.86v3h-1.4v-3h-5.03v-1.15l5.65-8h.8v8h1.84v1.15m-3.26-1.15v-6.16l-4.3 6.16h4.3M747.46 603.9H732.5v-1.68h14.96v1.68m0 5.08H732.5v-1.68h14.96v1.68M767.75 607.8h-2.6v4.23h-2v-4.24h-7.1v-1.64l7.97-11.3h1.12v11.3h2.6v1.63m-4.58-1.64v-8.7l-6.1 8.7h6.1M778.82 600.4v1.95c1.12-1.4 2.24-2 3.66-2 2.46 0 4.24 2.26 4.24 5.4 0 3.7-2.3 6.53-5.33 6.53-1.08 0-1.66-.25-2.58-1.1v4c0 1.6.33 1.87 2.24 1.9v.46h-6.15v-.43c1.5-.15 1.8-.43 1.8-1.75v-11.88c0-1.2-.2-1.45-1.05-1.45-.23 0-.4 0-.64.03v-.4c1.4-.44 2.33-.77 3.67-1.3m.15 3.2v6.24c0 .75 1.45 1.67 2.64 1.67 1.83 0 3.08-1.9 3.08-4.7 0-2.97-1.25-4.9-3.13-4.9-1.15 0-2.58.9-2.58 1.67M791.47 604.38l2.64 1.6c1.64 1 2.25 1.68 2.25 3.13 0 1.7-1.63 3.18-3.56 3.18-.54 0-1.28-.03-1.86-.23-.6-.2-.9-.23-1.17-.23-.3 0-.46.05-.6.3h-.34v-3.98h.4c.54 2.46 1.48 3.58 3.23 3.58 1.3 0 2.1-.84 2.1-1.88 0-.78-.5-1.45-1.34-1.9l-1.37-.76c-2.1-1.17-3.05-2.4-3.05-3.7 0-2 1.43-3.1 3.5-3.1.62 0 1.18.02 1.7.27.3.13.54.2.72.2.1 0 .2-.02.4-.25h.3l.1 3.45h-.37c-.58-2.28-1.34-3.12-2.87-3.12-1.1 0-1.9.53-1.9 1.73 0 .55.38 1.3 1.1 1.72M809.5 600.6v.38c-.76.08-.97.28-1.65 1.98l-3.25 8.15c-.38.95-.56 1.28-.7 1.28-.16 0-.3-.2-.47-.66-.08-.13-.1-.3-.2-.53l-3.05-7.3c-1.1-2.62-1.35-2.87-2.3-2.92v-.38h4.97v.38c-.87.08-1.17.25-1.17.7 0 .24.07.57.23.95l2.6 6.5 2.5-6.58c.1-.25.16-.5.16-.76 0-.5-.38-.74-1.2-.82v-.38h3.54"/><path d="M1440 306c0-3.3 2.7-6 6-6h168c3.3 0 6 2.7 6 6v48c0 3.3-2.7 6-6 6h-168c-3.3 0-6-2.7-6-6z" stroke="#000" stroke-opacity="0" stroke-width="3" fill="#fff" fill-opacity="0"/><use xlink:href="#k" transform="matrix(1,0,0,1,1445,305) translate(67.71604938271605 30.27777777777778)"/><path d="M1200 301v40.5" stroke="#5e5e5e" stroke-width="2" fill="none"/><path d="M1201 301.03h-2V300h2z" fill="#5e5e5e"/><path d="M1200 356.76l-4.64-14.26h9.28z" stroke="#5e5e5e" stroke-width="2" fill="#5e5e5e"/><path d="M1400 301v40.5" stroke="#5e5e5e" stroke-width="2" fill="none"/><path d="M1401 301.03h-2V300h2z" fill="#5e5e5e"/><path d="M1400 356.76l-4.64-14.26h9.28z" stroke="#5e5e5e" stroke-width="2" fill="#5e5e5e"/><path d="M1080 246c0-3.3 2.7-6 6-6h228c3.3 0 6 2.7 6 6v48c0 3.3-2.7 6-6 6h-228c-3.3 0-6-2.7-6-6z" stroke="#000" stroke-opacity="0" stroke-width="3" fill="#fff" fill-opacity="0"/><use xlink:href="#l" transform="matrix(1,0,0,1,1085,245) translate(110.06172839506173 29.84722222222222)"/><path d="M1280 246c0-3.3 2.7-6 6-6h228c3.3 0 6 2.7 6 6v48c0 3.3-2.7 6-6 6h-228c-3.3 0-6-2.7-6-6z" stroke="#000" stroke-opacity="0" stroke-width="3" fill="#fff" fill-opacity="0"/><use xlink:href="#m" transform="matrix(1,0,0,1,1285,245) translate(110.06172839506173 29.84722222222222)"/><path d="M340 376.48h84v27.04h-84z" fill="#fff" fill-opacity="0"/><path d="M356.76 397.13h-4.1l-6.06-7.82-1.42.06v4.93c0 1.92.3 2.22 2.26 2.35v.48h-7v-.48c1.9-.15 2.15-.43 2.15-2.67v-10.84c0-1.88-.2-2.2-2.17-2.34v-.48h6.9c2.42 0 4.22.6 5.32 1.5.83.68 1.24 1.93 1.24 3.05 0 2.2-1.43 3.68-4.6 4.16l5.07 6.42c.74.94 1.27 1.1 2.4 1.2v.48m-11.6-14.8v6.1c2.45-.06 3.34-.24 4.5-.87.92-.5 1.45-1.63 1.45-2.9 0-2.28-1.5-3.4-4.64-3.4-.87 0-1.3.18-1.3 1.07M364 400.95h-4.95v-.26c1.33-.1 1.7-.46 1.7-1.45v-8.06c0-.62-.16-.9-.53-.9-.18 0-.5.1-.8.22l-.5.18v-.25l3.22-1.63.16.05v10.72c0 .76.36 1.1 1.7 1.1v.25M391.7 389h-14.95v-1.67h14.95V389m0 5.08h-14.95v-1.67h14.95v1.68M406.7 380.95v6.25c3.06 1.65 3.7 2.3 4.38 3.33.35.53.53 1.34.53 2.28 0 2.96-2 3.92-4.9 4.33v2.2h-.88v-2.2c-2.2 0-3.33-.35-4.72-1.3v-3.3h.38c.53 2.54 2.1 3.9 4.34 3.9v-7.17c-3.5-1.98-4.52-3.02-4.52-5.16 0-2.54 2.16-3.68 4.52-3.83v-1.6h.87v1.6c2.04.13 3.3.56 4.07 1.34v2.83h-.38c-.52-2.1-1.68-3.22-3.7-3.48m-.88 5.85v-5.85c-1.8.36-2.64 1.38-2.64 2.67 0 1.12.5 1.73 2.64 3.18m.87 2.9v6.72c2.04-.43 2.88-1.22 2.88-3.02 0-1.55-.58-2.34-2.9-3.7M418.87 392.97h-.43c.03-1.02.23-2.3 1.12-4.5.66-1.62 1.3-3.22 1.3-4.75 0-1.75-1.22-3-2.77-3-1.23 0-2.4.77-2.4 1.58 0 .94.96 1.04.96 1.88 0 .63-.4 1.1-1.04 1.1-.7 0-1.22-.64-1.22-1.68 0-2.1 1.73-3.64 4.17-3.64 2.46 0 4.62 1.55 4.62 4.02 0 1.55-.5 2.4-2.68 5-.9 1.1-1.37 2.26-1.65 4zm1.17 3.02c0 .72-.56 1.33-1.32 1.33-.86 0-1.37-.63-1.37-1.34 0-.77.58-1.36 1.37-1.36.7 0 1.32.64 1.32 1.35"/><path d="M558 376.48h84v27.04h-84z" fill="#fff" fill-opacity="0"/><path d="M574.76 397.13h-4.1l-6.05-7.82-1.42.06v4.93c0 1.92.3 2.22 2.26 2.35v.48h-7v-.48c1.9-.15 2.15-.43 2.15-2.67v-10.84c0-1.88-.2-2.2-2.16-2.34v-.48h6.9c2.42 0 4.22.6 5.3 1.5.85.68 1.26 1.93 1.26 3.05 0 2.2-1.43 3.68-4.6 4.16l5.08 6.42c.73.94 1.27 1.1 2.38 1.2v.48m-11.58-14.8v6.1c2.44-.06 3.33-.24 4.5-.87.9-.5 1.45-1.63 1.45-2.9 0-2.28-1.5-3.4-4.65-3.4-.86 0-1.3.18-1.3 1.07M583.44 398.5l-.96 2.45h-7.02v-.2l3.2-3.4c1.68-1.78 2.33-3.15 2.33-4.67 0-1.64-.98-2.53-2.5-2.53-1.3 0-1.93.57-2.65 2.33l-.38-.1c.38-2.1 1.53-3.56 3.74-3.56 2.04 0 3.33 1.38 3.33 3.16 0 1.42-.7 2.76-2.3 4.45l-2.96 3.16h4.2c.75 0 1.13-.2 1.72-1.2M609.7 389h-14.95v-1.67h14.96V389m0 5.08h-14.95v-1.67h14.96v1.68M624.7 380.95v6.25c3.06 1.65 3.7 2.3 4.38 3.33.36.53.54 1.34.54 2.28 0 2.96-2 3.92-4.93 4.33v2.2h-.87v-2.2c-2.2 0-3.33-.35-4.73-1.3v-3.3h.38c.54 2.54 2.1 3.9 4.35 3.9v-7.17c-3.5-1.98-4.52-3.02-4.52-5.16 0-2.54 2.16-3.68 4.53-3.83v-1.6h.86v1.6c2.05.13 3.3.56 4.08 1.34v2.83h-.38c-.5-2.1-1.68-3.22-3.7-3.48m-.87 5.85v-5.85c-1.8.36-2.64 1.38-2.64 2.67 0 1.12.5 1.73 2.63 3.18m.86 2.9v6.72c2.05-.43 2.88-1.22 2.88-3.02 0-1.55-.58-2.34-2.9-3.7M636.88 392.97h-.43c.02-1.02.23-2.3 1.1-4.5.67-1.62 1.3-3.22 1.3-4.75 0-1.75-1.2-3-2.76-3-1.23 0-2.4.77-2.4 1.58 0 .94.97 1.04.97 1.88 0 .63-.4 1.1-1.04 1.1-.7 0-1.22-.64-1.22-1.68 0-2.1 1.74-3.64 4.17-3.64 2.47 0 4.63 1.55 4.63 4.02 0 1.55-.5 2.4-2.67 5-.9 1.1-1.37 2.26-1.65 4zm1.17 3.02c0 .72-.56 1.33-1.32 1.33-.87 0-1.38-.63-1.38-1.34 0-.77.6-1.36 1.38-1.36.7 0 1.32.64 1.32 1.35"/><path d="M758 376.48h84v27.04h-84z" fill="#fff" fill-opacity="0"/><path d="M774.76 397.13h-4.1l-6.05-7.82-1.42.06v4.93c0 1.92.3 2.22 2.26 2.35v.48h-7v-.48c1.9-.15 2.15-.43 2.15-2.67v-10.84c0-1.88-.2-2.2-2.16-2.34v-.48h6.9c2.42 0 4.22.6 5.3 1.5.85.68 1.26 1.93 1.26 3.05 0 2.2-1.43 3.68-4.6 4.16l5.08 6.42c.73.94 1.27 1.1 2.38 1.2v.48m-11.58-14.8v6.1c2.44-.06 3.33-.24 4.5-.87.9-.5 1.45-1.63 1.45-2.9 0-2.28-1.5-3.4-4.65-3.4-.86 0-1.3.18-1.3 1.07M776.03 391.8l-.3-.07c.53-1.7 1.66-2.9 3.53-2.9 1.67 0 2.8.98 2.8 2.45 0 .86-.46 1.76-1.67 2.48.78.34 1.1.55 1.48.95.5.56.8 1.4.8 2.32 0 .95-.3 1.83-.83 2.52-.86 1.15-2.57 1.67-4.17 1.67-1.3 0-2-.37-2-1.02 0-.37.3-.64.73-.64.3 0 .6.1 1.1.46.67.47 1.04.56 1.55.56 1.32 0 2.33-1.22 2.33-2.75 0-1.35-.63-2.23-1.87-2.6-.38-.12-.8-.17-1.82-.17v-.25c.68-.23 1.15-.43 1.5-.65.9-.5 1.46-1.3 1.46-2.4 0-1.22-.75-1.83-1.93-1.83-1.1 0-1.93.57-2.67 1.9M809.7 389h-14.95v-1.67h14.96V389m0 5.08h-14.95v-1.67h14.96v1.68M824.7 380.95v6.25c3.06 1.65 3.7 2.3 4.38 3.33.36.53.54 1.34.54 2.28 0 2.96-2 3.92-4.93 4.33v2.2h-.87v-2.2c-2.2 0-3.33-.35-4.73-1.3v-3.3h.38c.54 2.54 2.1 3.9 4.35 3.9v-7.17c-3.5-1.98-4.52-3.02-4.52-5.16 0-2.54 2.16-3.68 4.53-3.83v-1.6h.86v1.6c2.05.13 3.3.56 4.08 1.34v2.83h-.38c-.5-2.1-1.68-3.22-3.7-3.48m-.87 5.85v-5.85c-1.8.36-2.64 1.38-2.64 2.67 0 1.12.5 1.73 2.63 3.18m.86 2.9v6.72c2.05-.43 2.88-1.22 2.88-3.02 0-1.55-.58-2.34-2.9-3.7M836.88 392.97h-.43c.02-1.02.23-2.3 1.1-4.5.67-1.62 1.3-3.22 1.3-4.75 0-1.75-1.2-3-2.76-3-1.23 0-2.4.77-2.4 1.58 0 .94.97 1.04.97 1.88 0 .63-.4 1.1-1.04 1.1-.7 0-1.22-.64-1.22-1.68 0-2.1 1.74-3.64 4.17-3.64 2.47 0 4.63 1.55 4.63 4.02 0 1.55-.5 2.4-2.67 5-.9 1.1-1.37 2.26-1.65 4zm1.17 3.02c0 .72-.56 1.33-1.32 1.33-.87 0-1.38-.63-1.38-1.34 0-.77.6-1.36 1.38-1.36.7 0 1.32.64 1.32 1.35"/><path d="M958 376.48h84v27.04h-84z" fill="#fff" fill-opacity="0"/><path d="M974.76 397.13h-4.1l-6.05-7.82-1.42.06v4.93c0 1.92.3 2.22 2.26 2.35v.48h-7v-.48c1.9-.15 2.15-.43 2.15-2.67v-10.84c0-1.88-.2-2.2-2.16-2.34v-.48h6.9c2.42 0 4.22.6 5.3 1.5.85.68 1.26 1.93 1.26 3.05 0 2.2-1.43 3.68-4.6 4.16l5.08 6.42c.73.94 1.27 1.1 2.38 1.2v.48m-11.58-14.8v6.1c2.44-.06 3.33-.24 4.5-.87.9-.5 1.45-1.63 1.45-2.9 0-2.28-1.5-3.4-4.65-3.4-.86 0-1.3.18-1.3 1.07M983.43 397.96h-1.85v3h-1.4v-3h-5.03v-1.15l5.64-7.98h.78v8h1.85v1.14m-3.25-1.15v-6.15l-4.3 6.16h4.3M1009.7 389h-14.95v-1.67h14.96V389m0 5.08h-14.95v-1.67h14.96v1.68M1024.7 380.95v6.25c3.06 1.65 3.7 2.3 4.38 3.33.36.53.54 1.34.54 2.28 0 2.96-2 3.92-4.93 4.33v2.2h-.87v-2.2c-2.2 0-3.33-.35-4.73-1.3v-3.3h.38c.54 2.54 2.1 3.9 4.35 3.9v-7.17c-3.5-1.98-4.52-3.02-4.52-5.16 0-2.54 2.16-3.68 4.53-3.83v-1.6h.86v1.6c2.05.13 3.3.56 4.08 1.34v2.83h-.38c-.5-2.1-1.68-3.22-3.7-3.48m-.87 5.85v-5.85c-1.8.36-2.64 1.38-2.64 2.67 0 1.12.5 1.73 2.63 3.18m.86 2.9v6.72c2.05-.43 2.88-1.22 2.88-3.02 0-1.55-.58-2.34-2.9-3.7M1036.88 392.97h-.43c.02-1.02.23-2.3 1.1-4.5.67-1.62 1.3-3.22 1.3-4.75 0-1.75-1.2-3-2.76-3-1.23 0-2.4.77-2.4 1.58 0 .94.97 1.04.97 1.88 0 .63-.4 1.1-1.04 1.1-.7 0-1.22-.64-1.22-1.68 0-2.1 1.74-3.64 4.17-3.64 2.47 0 4.63 1.55 4.63 4.02 0 1.55-.5 2.4-2.67 5-.9 1.1-1.37 2.26-1.65 4zm1.17 3.02c0 .72-.56 1.33-1.32 1.33-.87 0-1.38-.63-1.38-1.34 0-.77.6-1.36 1.38-1.36.7 0 1.32.64 1.32 1.35"/><path d="M1158 376.48h84v27.04h-84z" fill="#fff" fill-opacity="0"/><path d="M1174.76 397.13h-4.1l-6.05-7.82-1.42.06v4.93c0 1.92.3 2.22 2.26 2.35v.48h-7v-.48c1.9-.15 2.15-.43 2.15-2.67v-10.84c0-1.88-.2-2.2-2.16-2.34v-.48h6.9c2.42 0 4.22.6 5.3 1.5.85.68 1.26 1.93 1.26 3.05 0 2.2-1.43 3.68-4.6 4.16l5.08 6.42c.73.94 1.27 1.1 2.38 1.2v.48m-11.58-14.8v6.1c2.44-.06 3.33-.24 4.5-.87.9-.5 1.45-1.63 1.45-2.9 0-2.28-1.5-3.4-4.65-3.4-.86 0-1.3.18-1.3 1.07M1182.8 388.73l-.65 1.52c-.05.13-.2.24-.48.24h-3.5l-.7 1.5c2.56.5 3.46.9 4.48 2.3.47.66.63 1.34.63 2.3 0 1.72-.54 2.83-1.76 3.73-.84.6-1.83.88-3.05.88-1.35 0-2.28-.42-2.28-1.1 0-.46.3-.7.8-.7.4 0 .75.1 1.33.57.5.4.9.57 1.27.57 1.26 0 2.43-1.5 2.43-3.03 0-1.14-.4-2.04-1.2-2.7-.85-.67-2.1-1.24-3.83-1.24-.16 0-.22-.04-.22-.15l.02-.08 1.96-4.25h3.72c.4 0 .57-.1.86-.47M1209.7 389h-14.95v-1.67h14.96V389m0 5.08h-14.95v-1.67h14.96v1.68M1224.7 380.95v6.25c3.06 1.65 3.7 2.3 4.38 3.33.36.53.54 1.34.54 2.28 0 2.96-2 3.92-4.93 4.33v2.2h-.87v-2.2c-2.2 0-3.33-.35-4.73-1.3v-3.3h.38c.54 2.54 2.1 3.9 4.35 3.9v-7.17c-3.5-1.98-4.52-3.02-4.52-5.16 0-2.54 2.16-3.68 4.53-3.83v-1.6h.86v1.6c2.05.13 3.3.56 4.08 1.34v2.83h-.38c-.5-2.1-1.68-3.22-3.7-3.48m-.87 5.85v-5.85c-1.8.36-2.64 1.38-2.64 2.67 0 1.12.5 1.73 2.63 3.18m.86 2.9v6.72c2.05-.43 2.88-1.22 2.88-3.02 0-1.55-.58-2.34-2.9-3.7M1236.88 392.97h-.43c.02-1.02.23-2.3 1.1-4.5.67-1.62 1.3-3.22 1.3-4.75 0-1.75-1.2-3-2.76-3-1.23 0-2.4.77-2.4 1.58 0 .94.97 1.04.97 1.88 0 .63-.4 1.1-1.04 1.1-.7 0-1.22-.64-1.22-1.68 0-2.1 1.74-3.64 4.17-3.64 2.47 0 4.63 1.55 4.63 4.02 0 1.55-.5 2.4-2.67 5-.9 1.1-1.37 2.26-1.65 4zm1.17 3.02c0 .72-.56 1.33-1.32 1.33-.87 0-1.38-.63-1.38-1.34 0-.77.6-1.36 1.38-1.36.7 0 1.32.64 1.32 1.35"/><path d="M1358 376.48h84v27.04h-84z" fill="#fff" fill-opacity="0"/><path d="M1374.76 397.13h-4.1l-6.05-7.82-1.42.06v4.93c0 1.92.3 2.22 2.26 2.35v.48h-7v-.48c1.9-.15 2.15-.43 2.15-2.67v-10.84c0-1.88-.2-2.2-2.16-2.34v-.48h6.9c2.42 0 4.22.6 5.3 1.5.85.68 1.26 1.93 1.26 3.05 0 2.2-1.43 3.68-4.6 4.16l5.08 6.42c.73.94 1.27 1.1 2.38 1.2v.48m-11.58-14.8v6.1c2.44-.06 3.33-.24 4.5-.87.9-.5 1.45-1.63 1.45-2.9 0-2.28-1.5-3.4-4.65-3.4-.86 0-1.3.18-1.3 1.07M1382.94 388.67l.04.3c-2.82.46-4.83 2.4-5.32 5.1.88-.67 1.5-.8 2.28-.8 2.1 0 3.4 1.44 3.4 3.75 0 1.15-.33 2.16-.92 2.88-.66.82-1.67 1.3-2.85 1.3-1.42 0-2.55-.66-3.18-1.8-.5-.92-.85-2.2-.85-3.45 0-1.94.68-3.65 1.95-4.96 1.55-1.63 2.96-2.06 5.44-2.33m-1.22 8.9c0-2.3-.75-3.47-2.42-3.47-1.03 0-2.1.43-2.1 2.08 0 2.73.88 4.52 2.56 4.52 1.3 0 1.96-1.3 1.96-3.12M1409.7 389h-14.95v-1.67h14.96V389m0 5.08h-14.95v-1.67h14.96v1.68M1424.7 380.95v6.25c3.06 1.65 3.7 2.3 4.38 3.33.36.53.54 1.34.54 2.28 0 2.96-2 3.92-4.93 4.33v2.2h-.87v-2.2c-2.2 0-3.33-.35-4.73-1.3v-3.3h.38c.54 2.54 2.1 3.9 4.35 3.9v-7.17c-3.5-1.98-4.52-3.02-4.52-5.16 0-2.54 2.16-3.68 4.53-3.83v-1.6h.86v1.6c2.05.13 3.3.56 4.08 1.34v2.83h-.38c-.5-2.1-1.68-3.22-3.7-3.48m-.87 5.85v-5.85c-1.8.36-2.64 1.38-2.64 2.67 0 1.12.5 1.73 2.63 3.18m.86 2.9v6.72c2.05-.43 2.88-1.22 2.88-3.02 0-1.55-.58-2.34-2.9-3.7M1436.88 392.97h-.43c.02-1.02.23-2.3 1.1-4.5.67-1.62 1.3-3.22 1.3-4.75 0-1.75-1.2-3-2.76-3-1.23 0-2.4.77-2.4 1.58 0 .94.97 1.04.97 1.88 0 .63-.4 1.1-1.04 1.1-.7 0-1.22-.64-1.22-1.68 0-2.1 1.74-3.64 4.17-3.64 2.47 0 4.63 1.55 4.63 4.02 0 1.55-.5 2.4-2.67 5-.9 1.1-1.37 2.26-1.65 4zm1.17 3.02c0 .72-.56 1.33-1.32 1.33-.87 0-1.38-.63-1.38-1.34 0-.77.6-1.36 1.38-1.36.7 0 1.32.64 1.32 1.35"/><path d="M1080 366c0-3.3 2.7-6 6-6h228c3.3 0 6 2.7 6 6v48c0 3.3-2.7 6-6 6h-228c-3.3 0-6-2.7-6-6z" stroke="#000" stroke-opacity="0" stroke-width="3" fill="#fff" fill-opacity="0"/><path d="M200.75 438.5l.06 1.03.96 9m1.47 9.96l1.62 8.43 2.05 8.77.7 2.47m2.85 9.66l1.63 5.02 3.13 8.43 2.3 5.43m4.17 9.18l.97 2.07 4.33 8.28 4.27 7.4m5.36 8.52l.4.64 5.8 8.3 5.6 7.4m6.4 7.8l1.28 1.54 7.63 8.47 4.72 4.83m7.2 7.05l5.66 5.3 9.38 8.1m7.88 6.3l4 3.17 12.18 8.85m8.4 5.57l5.24 3.5 11.86 7.17m8.76 4.98l10.9 5.98 6.92 3.44m9.03 4.48l2.33 1.15 16.04 7.14m9.3 3.9l17.2 6.8 1.57.54m9.52 3.32l13.5 4.7 5.6 1.7m9.66 2.9l11.75 3.54 7.65 1.96m9.76 2.5l12.07 3.1 7.54 1.6m9.87 2.1l14.53 3.07 5.23.9m9.94 1.66l19.07 3.2.82.12m10 1.26l20 2.52m10.02 1.07l20.1 1.7m10.03.83l3.23.27 16.9.7m10.1.43l11.94.5h8.2m10.07 0h20.16m10.07-.4l20.15-.84m10.07-.44l20.07-1.7m10.05-.83l7.27-.62 12.75-1.6m10-1.27l13.53-1.7 6.43-1.1m9.95-1.67l17.87-3 2-.44m9.85-2.1l19.72-4.2m9.76-2.48l19.53-5m9.64-2.9l17.84-5.38 1.44-.5m9.52-3.32l13.64-4.74 5.32-2.1m9.37-3.7l7.63-3.03 10.92-4.86m9.2-4.1l.1-.05 17.97-8.92m8.83-4.84l8.02-4.4 9.42-5.7m8.54-5.36l10.55-7 6.08-4.4m8.1-6.02l9.23-7.32 6.34-5.47m7.5-6.74l5.47-5.16 8.38-8.55.44-.5m6.74-7.5l.43-.48 6.96-8.4 5.2-6.85m5.82-8.23l1.1-1.57 5.24-8.28 4.2-7.32m4.72-8.9l.18-.35 3.9-8.3 3.53-8.37.53-1.43m3.4-9.48l1.97-6.04 2.4-8.62 1.1-4.72m2.07-9.87l.6-3.12 1.34-9.13.8-7.72m.7-10.05l.1-1.2.17-8.88" stroke="#0c7cba" stroke-width="2" fill="none"/><path d="M200.13 423.25l5.2 14.06-9.26.4z" stroke="#0c7cba" stroke-width="2" fill="#0c7cba"/><path d="M1202.3 421.05l-2-.05.03-1h2z" fill="#0c7cba"/><path d="M1280 366c0-3.3 2.7-6 6-6h228c3.3 0 6 2.7 6 6v48c0 3.3-2.7 6-6 6h-228c-3.3 0-6-2.7-6-6z" stroke="#000" stroke-opacity="0" stroke-width="3" fill="#fff" fill-opacity="0"/><path d="M200.66 438.5l.3 4.9.54 5.04m1.2 9.9l1.06 7.2 2.05 10.7.4 1.72m2.33 9.7l2.63 9.44 3.14 9.65m3.45 9.36l.48 1.3 4.22 10.02 3.27 6.96m4.5 8.9l2.1 4.03 5.73 9.92 2.12 3.34m5.42 8.37l5.67 8.17 6.05 7.96m6.27 7.75l3.6 4.38 9.14 10.14.44.45m6.98 7.12l2.62 2.67 11.03 10.35.82.7m7.55 6.52l3.76 3.24 11.75 9.3m8.02 5.93l8.3 6.03 8.07 5.37m8.3 5.5l17.07 10.33m8.73 4.84l11.82 6.5 5.78 2.86m8.93 4.43l7.2 3.57 10.9 4.84m9.1 4.06l4.24 1.88 14.24 5.64m9.27 3.67l3.25 1.3 15.54 5.4m9.42 3.28l4.52 1.57 14.5 4.38m9.56 2.88l8.3 2.5 10.92 2.8m9.67 2.5l14.7 3.76 4.66 1m9.75 2.06l19.5 4.14m9.8 1.84l19.68 3.32m9.83 1.67l6.08 1 13.67 1.74m9.9 1.24l19.8 2.5m9.93.84l19.88 1.66m9.95.84l5.8.48 14.1.6m9.98.4l19.92.84m9.98.1h19.94m9.97 0h9.86l10.08-.4m9.97-.43l19.93-.82m9.95-.56l19.88-1.67m9.95-.83l12.33-1.03 7.5-.96m9.9-1.25l19.8-2.5m9.86-1.4l19.67-3.33m9.85-1.66l7.94-1.34 11.62-2.47m9.76-2.08l16.86-3.58 2.62-.67m9.66-2.48l19.32-4.97m9.6-2.72l19.1-5.75m9.5-2.97l18.85-6.56m9.4-3.32l18.54-7.33m9.24-3.76l18.22-8.1m9-4.26l16.96-8.4.9-.5m8.74-4.8l10.18-5.6 7.13-4.3m8.54-5.18l2.27-1.37 14.42-9.58m8.12-5.78l8.42-6.12 7.48-5.92m7.75-6.28l10.22-8.83 4.7-4.4m7.22-6.87l9.14-9.33 4.6-5.12m6.58-7.5l6.3-7.6 6.08-8.03m5.78-8.12l2.64-3.8 6.3-9.93 1.78-3.08m4.9-8.68l4.24-8.08 4.6-9.8m3.88-9.2l.42-.98 3.75-10.1 2.5-7.7m2.8-9.58l.9-3.27 2.47-10.5 1.08-5.66m1.66-9.83l.9-6.16 1.2-11.2.14-2.45m.6-9.96l.2-9.97" stroke="#0c7cba" stroke-width="2" fill="none"/><path d="M200.12 423.25l5.14 14.1-9.26.32z" stroke="#0c7cba" stroke-width="2" fill="#0c7cba"/><path d="M1400.98 421.05l-2-.05.02-1h2z" fill="#0c7cba"/><path d="M880 636.48h110.12v28.62H880z" fill="#fff" fill-opacity="0"/><path d="M892.32 657.13h-5.3l.04-.38c1.27-.1 1.57-.6 1.57-2.3v-5.04c0-1.8-.6-2.55-1.85-2.55-.84 0-1.45.3-2.62 1.44v7c0 1 .36 1.35 1.66 1.45v.38h-5.36v-.38c1.3-.1 1.57-.5 1.57-2v-6.18c0-1.24-.18-1.65-.9-1.65-.27 0-.55.03-.72.1v-.43c1.4-.4 2.24-.7 3.5-1.15l.2.08v1.98c1.33-1.5 2.5-2.05 3.67-2.05 1.93 0 3 1.4 3 3.9v5.62c0 1.37.3 1.65 1.55 1.78v.38M900.56 648.73l-.65 1.52c-.04.13-.2.24-.47.24h-3.5l-.7 1.5c2.56.5 3.46.9 4.48 2.3.48.66.64 1.34.64 2.3 0 1.72-.54 2.83-1.76 3.73-.84.6-1.83.88-3.05.88-1.35 0-2.28-.42-2.28-1.1 0-.46.3-.7.8-.7.42 0 .76.1 1.34.57.5.4.9.57 1.26.57 1.26 0 2.42-1.5 2.42-3.03 0-1.14-.4-2.04-1.2-2.7-.84-.67-2.1-1.24-3.82-1.24-.16 0-.22-.04-.22-.15l.02-.08 1.96-4.25h3.7c.43 0 .6-.1.88-.47M927.46 649H912.5v-1.67h14.96V649m0 5.08H912.5v-1.67h14.96v1.68M946.86 639.84l-.9 2.16c-.1.17-.3.33-.7.33h-4.92l-1.02 2.15c3.63.7 4.9 1.25 6.35 3.25.66.92.9 1.88.9 3.23 0 2.44-.77 4-2.5 5.28-1.2.87-2.6 1.25-4.32 1.25-1.9 0-3.22-.62-3.22-1.6 0-.62.43-.95 1.14-.95.58 0 1.07.12 1.88.78.7.6 1.3.82 1.8.82 1.78 0 3.43-2.1 3.43-4.3 0-1.62-.56-2.9-1.7-3.8-1.2-.97-2.97-1.78-5.4-1.78-.24 0-.3-.05-.3-.2v-.13l2.78-6.02h5.26c.58 0 .8-.13 1.2-.66M958.82 645.5v1.96c1.12-1.4 2.24-2 3.66-2 2.46 0 4.24 2.25 4.24 5.4 0 3.68-2.3 6.52-5.33 6.52-1.08 0-1.66-.25-2.58-1.1v4c0 1.6.33 1.88 2.24 1.9v.46h-6.15v-.43c1.5-.14 1.8-.42 1.8-1.74v-11.9c0-1.18-.2-1.43-1.05-1.43-.23 0-.4 0-.64.02v-.4c1.4-.44 2.33-.77 3.67-1.3m.15 3.2v6.25c0 .76 1.45 1.67 2.64 1.67 1.83 0 3.08-1.9 3.08-4.7 0-2.97-1.25-4.9-3.13-4.9-1.15 0-2.58.92-2.58 1.68M971.47 649.5l2.64 1.6c1.64.98 2.25 1.66 2.25 3.1 0 1.7-1.63 3.18-3.56 3.18-.54 0-1.28-.02-1.86-.22-.6-.2-.9-.23-1.17-.23-.3 0-.46.05-.6.3h-.34v-3.98h.4c.54 2.46 1.48 3.58 3.23 3.58 1.3 0 2.1-.84 2.1-1.88 0-.8-.5-1.45-1.34-1.9l-1.37-.77c-2.1-1.17-3.05-2.4-3.05-3.68 0-2 1.43-3.13 3.5-3.13.62 0 1.18.03 1.7.28.3.13.54.2.72.2.1 0 .2-.02.4-.25h.3l.1 3.46h-.37c-.58-2.3-1.34-3.13-2.87-3.13-1.1 0-1.9.54-1.9 1.73 0 .56.38 1.3 1.1 1.73M989.5 645.7v.38c-.76.08-.97.28-1.65 1.98l-3.25 8.16c-.38.94-.56 1.27-.7 1.27-.16 0-.3-.22-.47-.67-.08-.13-.1-.3-.2-.54l-3.05-7.3c-1.1-2.6-1.35-2.86-2.3-2.92v-.38h4.97v.38c-.87.08-1.17.26-1.17.7 0 .24.07.57.23.95l2.6 6.5 2.5-6.57c.1-.26.16-.5.16-.76 0-.5-.38-.74-1.2-.82v-.38h3.54"/><path d="M1080 680h110.12v27.04H1080z" fill="#fff" fill-opacity="0"/><path d="M1092.32 699.07h-5.3l.04-.38c1.27-.12 1.57-.62 1.57-2.3v-5.05c0-1.8-.6-2.57-1.85-2.57-.84 0-1.45.3-2.62 1.45v7c0 1 .36 1.35 1.66 1.46v.37h-5.36v-.38c1.3-.12 1.57-.52 1.57-2.02v-6.17c0-1.24-.18-1.64-.9-1.64-.27 0-.55.02-.72.1v-.43c1.4-.4 2.24-.7 3.5-1.15l.2.08v1.98c1.33-1.5 2.5-2.06 3.67-2.06 1.93 0 3 1.4 3 3.92v5.6c0 1.38.3 1.66 1.55 1.8v.37M1100.7 690.6l.04.3c-2.82.46-4.83 2.4-5.32 5.1.88-.67 1.5-.8 2.28-.8 2.1 0 3.4 1.44 3.4 3.76 0 1.15-.33 2.15-.92 2.87-.66.83-1.67 1.3-2.85 1.3-1.42 0-2.55-.65-3.18-1.8-.5-.92-.85-2.2-.85-3.45 0-1.94.7-3.64 1.96-4.95 1.54-1.62 2.96-2.05 5.44-2.32m-1.22 8.9c0-2.28-.75-3.47-2.42-3.47-1.03 0-2.1.43-2.1 2.08 0 2.74.88 4.54 2.56 4.54 1.3 0 1.96-1.3 1.96-3.13M1127.46 690.94h-14.96v-1.68h14.96v1.68m0 5.08h-14.96v-1.68h14.96v1.68M1147.07 681.7l.05.4c-4 .66-6.83 3.4-7.52 7.24 1.24-.97 2.1-1.14 3.23-1.14 2.97 0 4.8 2.03 4.8 5.3 0 1.63-.46 3.05-1.3 4.07-.94 1.17-2.36 1.85-4.04 1.85-2 0-3.6-.94-4.5-2.56-.7-1.3-1.2-3.1-1.2-4.88 0-2.74.97-5.15 2.77-7 2.2-2.3 4.2-2.9 7.7-3.28m-1.73 12.6c0-3.26-1.07-4.93-3.43-4.93-1.44 0-2.93.6-2.93 2.94 0 3.87 1.2 6.4 3.6 6.4 1.83 0 2.77-1.82 2.77-4.4M1158.82 687.44v1.95c1.12-1.4 2.24-2.02 3.66-2.02 2.46 0 4.24 2.26 4.24 5.4 0 3.7-2.3 6.54-5.33 6.54-1.08 0-1.66-.25-2.58-1.1v4c0 1.6.33 1.87 2.24 1.9v.46h-6.15v-.44c1.5-.15 1.8-.43 1.8-1.75v-11.9c0-1.2-.2-1.44-1.05-1.44-.23 0-.4 0-.64.03v-.42c1.4-.43 2.33-.76 3.67-1.3m.15 3.2v6.25c0 .76 1.45 1.68 2.64 1.68 1.83 0 3.08-1.9 3.08-4.7 0-2.96-1.25-4.9-3.13-4.9-1.15 0-2.58.92-2.58 1.68M1171.47 691.42l2.64 1.6c1.64 1 2.25 1.68 2.25 3.13 0 1.7-1.63 3.17-3.56 3.17-.54 0-1.28-.03-1.86-.23-.6-.2-.9-.24-1.17-.24-.3 0-.46.05-.6.3h-.34v-3.98h.4c.54 2.46 1.48 3.58 3.23 3.58 1.3 0 2.1-.84 2.1-1.88 0-.8-.5-1.45-1.34-1.9l-1.37-.76c-2.1-1.17-3.05-2.4-3.05-3.7 0-2 1.43-3.1 3.5-3.1.62 0 1.18.02 1.7.27.3.12.54.2.72.2.1 0 .2-.03.4-.26h.3l.1 3.45h-.37c-.58-2.3-1.34-3.13-2.87-3.13-1.1 0-1.9.53-1.9 1.73 0 .55.38 1.3 1.1 1.72M1189.5 687.64v.38c-.76.08-.97.28-1.65 1.98l-3.25 8.15c-.38.94-.56 1.27-.7 1.27-.16 0-.3-.2-.47-.66-.08-.13-.1-.3-.2-.53l-3.05-7.3c-1.1-2.6-1.35-2.86-2.3-2.9v-.4h4.97v.4c-.87.07-1.17.24-1.17.68 0 .26.07.6.23.97l2.6 6.5 2.5-6.58c.1-.26.16-.5.16-.77 0-.48-.38-.73-1.2-.8v-.4h3.54"/><defs><path fill="#333" d="M24-231v-30h32v30H24zM24 0v-190h32V0H24" id="n"/><path fill="#333" d="M18-150v-26h174v26H18zm0 90v-26h174v26H18" id="o"/><path fill="#333" d="M103-251c84 0 111 97 45 133-19 10-37 24-39 52H78c0-63 77-55 77-114 0-30-21-42-52-43-32 0-53 17-56 46l-32-2c7-45 34-72 88-72zM77 0v-35h34V0H77" id="p"/><path fill="#333" d="M252-156c43 0 55 33 55 80 0 46-13 78-56 78-42 0-55-33-55-78 0-48 12-80 56-80zM93 0H65l162-248h28zM13-171c-1-47 13-79 56-79s55 33 55 79-13 79-55 79c-43 0-56-33-56-79zM251-17c28 0 30-29 30-59 0-31-1-60-29-60-29 0-31 29-31 60 0 29 2 59 30 59zM69-112c27 0 28-30 29-59 0-31-1-60-29-60-29 0-30 30-30 60s2 59 30 59" id="q"/><g id="a"><use transform="matrix(0.06172839506172839,0,0,0.06172839506172839,0,0)" xlink:href="#n"/><use transform="matrix(0.06172839506172839,0,0,0.06172839506172839,4.876543209876543,0)" xlink:href="#o"/><use transform="matrix(0.06172839506172839,0,0,0.06172839506172839,17.839506172839506,0)" xlink:href="#p"/><use transform="matrix(0.06172839506172839,0,0,0.06172839506172839,30.185185185185183,0)" xlink:href="#q"/></g><path fill="#333" d="M115-194c55 1 70 41 70 98S169 2 115 4C84 4 66-9 55-30l1 105H24l-1-265h31l2 30c10-21 28-34 59-34zm-8 174c40 0 45-34 45-75s-6-73-45-74c-42 0-51 32-51 76 0 43 10 73 51 73" id="r"/><path fill="#333" d="M135-143c-3-34-86-38-87 0 15 53 115 12 119 90S17 21 10-45l28-5c4 36 97 45 98 0-10-56-113-15-118-90-4-57 82-63 122-42 12 7 21 19 24 35" id="s"/><path fill="#333" d="M108 0H70L1-190h34L89-25l56-165h34" id="t"/><g id="b"><use transform="matrix(0.06172839506172839,0,0,0.06172839506172839,0,0)" xlink:href="#r"/><use transform="matrix(0.06172839506172839,0,0,0.06172839506172839,12.345679012345679,0)" xlink:href="#s"/><use transform="matrix(0.06172839506172839,0,0,0.06172839506172839,23.45679012345679,0)" xlink:href="#t"/></g><path fill="#333" d="M177-190C167-65 218 103 67 71c-23-6-38-20-44-43l32-5c15 47 100 32 89-28v-30C133-14 115 1 83 1 29 1 15-40 15-95c0-56 16-97 71-98 29-1 48 16 59 35 1-10 0-23 2-32h30zM94-22c36 0 50-32 50-73 0-42-14-75-50-75-39 0-46 34-46 75s6 73 46 73" id="u"/><g id="c"><use transform="matrix(0.06172839506172839,0,0,0.06172839506172839,0,0)" xlink:href="#u"/><use transform="matrix(0.06172839506172839,0,0,0.06172839506172839,12.345679012345679,0)" xlink:href="#o"/><use transform="matrix(0.06172839506172839,0,0,0.06172839506172839,25.30864197530864,0)" xlink:href="#p"/><use transform="matrix(0.06172839506172839,0,0,0.06172839506172839,37.654320987654316,0)" xlink:href="#q"/></g><path fill="#333" d="M101-251c68 0 84 54 84 127C185-50 166 4 99 4S15-52 14-124c-1-75 17-127 87-127zm-1 216c37-5 36-46 36-89s4-89-36-89c-39 0-36 45-36 89 0 43-3 85 36 89" id="v"/><use transform="matrix(0.04938271604938272,0,0,0.04938271604938272,0,0)" xlink:href="#v" id="d"/><path fill="#333" d="M27 0v-27h64v-190l-56 39v-29l58-41h29v221h61V0H27" id="w"/><use transform="matrix(0.049382716049382706,0,0,0.049382716049382706,0,0)" xlink:href="#w" id="e"/><path fill="#333" d="M101-251c82-7 93 87 43 132L82-64C71-53 59-42 53-27h129V0H18c2-99 128-94 128-182 0-28-16-43-45-43s-46 15-49 41l-32-3c6-41 34-60 81-64" id="x"/><use transform="matrix(0.049382716049382706,0,0,0.049382716049382706,0,0)" xlink:href="#x" id="f"/><path fill="#333" d="M126-127c33 6 58 20 58 59 0 88-139 92-164 29-3-8-5-16-6-25l32-3c6 27 21 44 54 44 32 0 52-15 52-46 0-38-36-46-79-43v-28c39 1 72-4 72-42 0-27-17-43-46-43-28 0-47 15-49 41l-32-3c6-42 35-63 81-64 48-1 79 21 79 65 0 36-21 52-52 59" id="y"/><use transform="matrix(0.049382716049382706,0,0,0.049382716049382706,0,0)" xlink:href="#y" id="g"/><path fill="#333" d="M155-56V0h-30v-56H8v-25l114-167h33v167h35v25h-35zm-30-156c-27 46-58 90-88 131h88v-131" id="z"/><use transform="matrix(0.049382716049382706,0,0,0.049382716049382706,0,0)" xlink:href="#z" id="h"/><path fill="#333" d="M137 0h-34L2-248h35l83 218 83-218h36" id="A"/><path fill="#333" d="M30-248c87 1 191-15 191 75 0 78-77 80-158 76V0H30v-248zm33 125c57 0 124 11 124-50 0-59-68-47-124-48v98" id="B"/><path fill="#333" d="M194-70c0 46-34 64-81 66v29H91V-4C42-5 12-27 4-67l30-6c5 28 25 41 57 43v-87c-38-9-76-20-76-67 1-42 33-58 76-59v-23h22v23c45 0 67 20 76 56l-31 6c-5-23-18-35-45-37v78c41 10 81 20 81 70zm-81 41c51 7 71-66 19-77-6-2-12-4-19-6v83zM91-219c-47-6-63 57-18 69 6 2 12 3 18 5v-74" id="C"/><path fill="#333" d="M54-142c48-35 137-8 131 61C196 18 31 33 14-55l32-4c7 23 22 37 52 37 35-1 51-22 54-58 4-55-73-65-99-34H22l8-134h141v27H59" id="D"/><path fill="#333" d="M101-251c68 0 85 55 85 127S166 4 100 4C33 4 14-52 14-124c0-73 17-127 87-127zm-1 229c47 0 54-49 54-102s-4-102-53-102c-51 0-55 48-55 102 0 53 5 102 54 102" id="E"/><path fill="#333" d="M33 0v-38h34V0H33" id="F"/><g id="i"><use transform="matrix(0.06172839506172839,0,0,0.06172839506172839,0,0)" xlink:href="#A"/><use transform="matrix(0.06172839506172839,0,0,0.06172839506172839,14.814814814814813,0)" xlink:href="#B"/><use transform="matrix(0.06172839506172839,0,0,0.06172839506172839,29.629629629629626,0)" xlink:href="#o"/><use transform="matrix(0.06172839506172839,0,0,0.06172839506172839,42.59259259259259,0)" xlink:href="#C"/><use transform="matrix(0.06172839506172839,0,0,0.06172839506172839,54.938271604938265,0)" xlink:href="#D"/><use transform="matrix(0.06172839506172839,0,0,0.06172839506172839,67.28395061728395,0)" xlink:href="#E"/><use transform="matrix(0.06172839506172839,0,0,0.06172839506172839,79.62962962962963,0)" xlink:href="#E"/><use transform="matrix(0.06172839506172839,0,0,0.06172839506172839,91.97530864197532,0)" xlink:href="#F"/><use transform="matrix(0.06172839506172839,0,0,0.06172839506172839,98.14814814814815,0)" xlink:href="#E"/><use transform="matrix(0.06172839506172839,0,0,0.06172839506172839,110.49382716049384,0)" xlink:href="#E"/><use transform="matrix(0.06172839506172839,0,0,0.06172839506172839,122.83950617283952,0)" xlink:href="#E"/></g><path fill="#333" d="M101-234c-31-9-42 10-38 44h38v23H63V0H32v-167H5v-23h27c-7-52 17-82 69-68v24" id="G"/><g id="j"><use transform="matrix(0.06172839506172839,0,0,0.06172839506172839,0,0)" xlink:href="#G"/><use transform="matrix(0.06172839506172839,0,0,0.06172839506172839,5.7407407407407405,0)" xlink:href="#G"/></g><g id="k"><use transform="matrix(0.06172839506172839,0,0,0.06172839506172839,0,0)" xlink:href="#r"/><use transform="matrix(0.06172839506172839,0,0,0.06172839506172839,12.345679012345679,0)" xlink:href="#s"/><use transform="matrix(0.06172839506172839,0,0,0.06172839506172839,23.45679012345679,0)" xlink:href="#t"/></g><use transform="matrix(0.049382716049382706,0,0,0.049382716049382706,0,0)" xlink:href="#D" id="l"/><path fill="#333" d="M110-160c48 1 74 30 74 79 0 53-28 85-80 85-65 0-83-55-86-122-5-90 50-162 133-122 14 7 22 21 27 39l-31 6c-5-40-67-38-82-6-9 19-15 44-15 74 11-20 30-34 60-33zm-7 138c34 0 49-23 49-58s-16-56-50-56c-29 0-50 16-49 49 1 36 15 65 50 65" id="H"/><use transform="matrix(0.049382716049382706,0,0,0.049382716049382706,0,0)" xlink:href="#H" id="m"/></defs></g></svg>