<svg xmlns="http://www.w3.org/2000/svg" xmlns:xlink="http://www.w3.org/1999/xlink" xmlns:lucid="lucid" width="1580" height="1470.35"><g transform="translate(1560 740)" lucid:page-tab-id="0_0"><path d="M-1806.4-1259.2H64v2582.4h-1870.4z" fill="#fff"/><path d="M-1340-414c0-3.3 2.7-6 6-6h228c3.3 0 6 2.7 6 6v48c0 3.3-2.7 6-6 6h-228c-3.3 0-6-2.7-6-6z" fill="none"/><use xlink:href="#a" transform="matrix(1,0,0,1,-1340,-420) translate(79.87654320987653 34.44444444444444)"/><path d="M-1070.67-672c0-3.3 2.7-6 6-6h228c3.32 0 6 2.7 6 6v48c0 3.3-2.68 6-6 6h-228c-3.3 0-6-2.7-6-6z" fill="none"/><use xlink:href="#b" transform="matrix(1,0,0,1,-1070.6666666666667,-678) translate(62.31481481481482 21.111111111111114)"/><use xlink:href="#c" transform="matrix(1,0,0,1,-1070.6666666666667,-678) translate(130.7716049382716 21.111111111111114)"/><use xlink:href="#d" transform="matrix(1,0,0,1,-1070.6666666666667,-678) translate(16.63580246913581 47.777777777777786)"/><use xlink:href="#e" transform="matrix(1,0,0,1,-1070.6666666666667,-678) translate(132.00617283950618 47.777777777777786)"/><use xlink:href="#f" transform="matrix(1,0,0,1,-1070.6666666666667,-678) translate(186.32716049382714 47.777777777777786)"/><path d="M-143.84-479H-1419v-2h1275.16z" fill="#5e5e5e"/><path d="M-1418.97-479h-1.03v-2h1.03zM-128.57-480l-14.27 4.64v-9.28z" fill="#5e5e5e"/><path d="M-125.33-480l-18.5 6v-12zm-16.5 3.26l10.02-3.26-10.04-3.26z" fill="#5e5e5e"/><path d="M-1220-479v40.5" stroke="#5e5e5e" stroke-width="2" fill="none"/><path d="M-1219-478.97h-2V-480h2z" fill="#5e5e5e"/><path d="M-1220-423.24l-4.64-14.26h9.28z" stroke="#5e5e5e" stroke-width="2" fill="#5e5e5e"/><path d="M-1020-479v40.5" stroke="#5e5e5e" stroke-width="2" fill="none"/><path d="M-1019-478.97h-2V-480h2z" fill="#5e5e5e"/><path d="M-1020-423.24l-4.64-14.26h9.28z" stroke="#5e5e5e" stroke-width="2" fill="#5e5e5e"/><path d="M-820-479v40.5" stroke="#5e5e5e" stroke-width="2" fill="none"/><path d="M-819-478.97h-2V-480h2z" fill="#5e5e5e"/><path d="M-820-423.24l-4.64-14.26h9.28z" stroke="#5e5e5e" stroke-width="2" fill="#5e5e5e"/><path d="M-620-479v40.5" stroke="#5e5e5e" stroke-width="2" fill="none"/><path d="M-619-478.97h-2V-480h2z" fill="#5e5e5e"/><path d="M-620-423.24l-4.64-14.26h9.28z" stroke="#5e5e5e" stroke-width="2" fill="#5e5e5e"/><path d="M-1420-479v40.5M-1420-478.97V-480" stroke="#5e5e5e" stroke-width="2" fill="none"/><path d="M-1420-423.24l-4.64-14.26h9.28z" stroke="#5e5e5e" stroke-width="2" fill="#5e5e5e"/><path d="M-1419-481h-2v-11h2zm0-32.33h-2V-641.5h2z" fill="#5e5e5e"/><path fill="#5e5e5e"/><path d="M-1415.36-642.5h-9.28l4.64-14.26z" fill="#5e5e5e"/><path d="M-1414-641.5h-12l6-18.5zm-9.26-2h6.52l-3.26-10.03z" fill="#5e5e5e"/><use xlink:href="#g" transform="matrix(1,0,0,1,-1424.9382716049383,-513.3323333333334) translate(0.004999999999999893 14.222222222222223)"/><path d="M-1540-414c0-3.3 2.7-6 6-6h228c3.3 0 6 2.7 6 6v48c0 3.3-2.7 6-6 6h-228c-3.3 0-6-2.7-6-6zM-1140-414c0-3.3 2.7-6 6-6h228c3.3 0 6 2.7 6 6v48c0 3.3-2.7 6-6 6h-228c-3.3 0-6-2.7-6-6z" stroke="#000" stroke-opacity="0" stroke-width="3" fill="#fff" fill-opacity="0"/><use xlink:href="#a" transform="matrix(1,0,0,1,-1135,-415) translate(74.87654320987653 30.27777777777778)"/><path d="M-940-414c0-3.3 2.7-6 6-6h228c3.3 0 6 2.7 6 6v48c0 3.3-2.7 6-6 6h-228c-3.3 0-6-2.7-6-6z" stroke="#000" stroke-opacity="0" stroke-width="3" fill="#fff" fill-opacity="0"/><use xlink:href="#h" transform="matrix(1,0,0,1,-935,-415) translate(74.87654320987653 30.27777777777778)"/><path d="M-740-414c0-3.3 2.7-6 6-6h228c3.3 0 6 2.7 6 6v48c0 3.3-2.7 6-6 6h-228c-3.3 0-6-2.7-6-6z" stroke="#000" stroke-opacity="0" stroke-width="3" fill="#fff" fill-opacity="0"/><use xlink:href="#h" transform="matrix(1,0,0,1,-735,-415) translate(74.87654320987653 30.27777777777778)"/><path d="M-1340-534c0-3.3 2.7-6 6-6h228c3.3 0 6 2.7 6 6v48c0 3.3-2.7 6-6 6h-228c-3.3 0-6-2.7-6-6z" stroke="#000" stroke-opacity="0" stroke-width="3" fill="#fff" fill-opacity="0"/><use xlink:href="#i" transform="matrix(1,0,0,1,-1335,-535) translate(110.06172839506173 29.84722222222222)"/><path d="M-1140-534c0-3.3 2.7-6 6-6h228c3.3 0 6 2.7 6 6v48c0 3.3-2.7 6-6 6h-228c-3.3 0-6-2.7-6-6z" stroke="#000" stroke-opacity="0" stroke-width="3" fill="#fff" fill-opacity="0"/><use xlink:href="#j" transform="matrix(1,0,0,1,-1135,-535) translate(110.06172839506173 29.84722222222222)"/><path d="M-940-534c0-3.3 2.7-6 6-6h228c3.3 0 6 2.7 6 6v48c0 3.3-2.7 6-6 6h-228c-3.3 0-6-2.7-6-6z" stroke="#000" stroke-opacity="0" stroke-width="3" fill="#fff" fill-opacity="0"/><use xlink:href="#k" transform="matrix(1,0,0,1,-935,-535) translate(110.06172839506173 29.84722222222222)"/><path d="M-740-534c0-3.3 2.7-6 6-6h228c3.3 0 6 2.7 6 6v48c0 3.3-2.7 6-6 6h-228c-3.3 0-6-2.7-6-6z" stroke="#000" stroke-opacity="0" stroke-width="3" fill="#fff" fill-opacity="0"/><use xlink:href="#l" transform="matrix(1,0,0,1,-735,-535) translate(110.06172839506173 29.84722222222222)"/><path d="M-1540-714c0-3.3 2.7-6 6-6h228c3.3 0 6 2.7 6 6v48c0 3.3-2.7 6-6 6h-228c-3.3 0-6-2.7-6-6z" stroke="#000" stroke-opacity="0" stroke-width="3" fill="#fff" fill-opacity="0"/><use xlink:href="#m" transform="matrix(1,0,0,1,-1535,-715) translate(47.407407407407405 30.27777777777778)"/><path d="M-1420-419v9.6m0 9.58v19.2m0 9.58v19.2m0 9.58v19.18m0 9.6v19.18m0 9.6v19.18m0 9.6v19.18m0 9.6v19.18m0 9.6v19.17m0 9.6v9.6M-1435-161h30" stroke="#5e5e5e" stroke-width="2" fill="none"/><path d="M-1540-154c0-3.3 2.7-6 6-6h228c3.3 0 6 2.7 6 6v48c0 3.3-2.7 6-6 6h-228c-3.3 0-6-2.7-6-6z" stroke="#000" stroke-opacity="0" stroke-width="3" fill="#fff" fill-opacity="0"/><use xlink:href="#n" transform="matrix(1,0,0,1,-1535,-155) translate(109.04320987654322 30.27777777777778)"/><path d="M-1419.34-341.5l.3 4.87.54 5.06m1.2 9.88l1.06 7.2 2.04 10.68.4 1.74m2.32 9.7l2.63 9.4 3.14 9.65m3.44 9.35l.47 1.27 4.22 10 3.28 6.97m4.5 8.9l2.1 4 5.7 9.9 2.14 3.35m5.4 8.36l5.68 8.15 6.04 7.96m6.27 7.73l3.6 4.35 9.13 10.14.45.45m6.98 7.12l2.6 2.65 11.02 10.34.83.7m7.54 6.5l3.74 3.23 11.76 9.3m8 5.93l8.28 6 8.08 5.37m8.3 5.5l17.05 10.32m8.7 4.83l11.8 6.48 5.8 2.87m8.93 4.43l7.17 3.56 10.9 4.84m9.1 4.05l4.2 1.9 14.24 5.6m9.27 3.68l3.24 1.28 15.54 5.4m9.4 3.27l4.5 1.57 14.52 4.38m9.54 2.87l8.27 2.5 10.93 2.8m9.65 2.47l14.7 3.77 4.65.98m9.74 2.07l19.5 4.13m9.78 1.84l19.65 3.32m9.82 1.66l6.05 1.03 13.67 1.72M-956-8.9l19.77 2.5m9.93.83l19.85 1.66m9.93.82l5.78.5 14.1.58m9.96.4l19.9.84m9.97.1h19.9m9.97 0h9.84l10.1-.4m9.94-.43l19.9-.82m9.95-.56l19.85-1.66m9.92-.83l12.3-1.04 7.52-.96m9.88-1.24l19.76-2.5m9.86-1.4l19.65-3.32m9.82-1.66l7.93-1.34 11.62-2.46m9.75-2.07l16.84-3.58 2.63-.67m9.65-2.48l19.3-4.95m9.58-2.72l19.08-5.76m9.5-2.97l18.82-6.55m9.4-3.32l18.52-7.33m9.23-3.74l18.2-8.1m9.02-4.27l16.92-8.4.9-.5m8.73-4.8l10.17-5.58 7.12-4.3m8.52-5.17l2.27-1.37 14.4-9.55m8.1-5.77l8.4-6.1 7.48-5.93m7.74-6.27l10.23-8.82 4.68-4.4m7.22-6.85l9.13-9.3 4.6-5.12m6.57-7.5l6.28-7.58 6.1-8.02m5.76-8.12l2.64-3.8 6.3-9.9 1.77-3.1m4.9-8.66l4.22-8.07 4.6-9.8m3.88-9.17l.4-1 3.76-10.08 2.5-7.7m2.8-9.55l.9-3.28 2.47-10.5 1.08-5.64m1.66-9.8l.92-6.16 1.18-11.2.15-2.44m.6-9.94l.2-9.96" stroke="#0c7cba" stroke-width="2" fill="none"/><path d="M-1419.88-356.75l5.14 14.1-9.26.32z" stroke="#0c7cba" stroke-width="2" fill="#0c7cba"/><path d="M-220.35-358.95l-2-.05.02-1h2z" fill="#0c7cba"/><path d="M-1418.38-341.52l.48 4.53.77 5.28m1.8 9.72l1.5 6.4 1.92 6.87 1.86 5.76m3.47 9.26l2.16 5.13 3.1 6.63 3.2 6.08m4.97 8.53l3.3 5.18 4.6 6.62 3.36 4.44m6.2 7.7l1.03 1.22 6.08 6.75 6.36 6.5m7.2 6.78l.44.4 8.06 6.97 6.67 5.28m7.93 5.9l4.06 2.96 10.8 7.16 1.53.93m8.44 5.12l1.95 1.17 13.17 7.24 2.2 1.1m8.86 4.4l3.52 1.74 14.47 6.43m9.16 3.7l10.28 4.07 8.23 2.87m9.32 3.23l2.04.7 16.86 5.1m9.52 2.65l18.62 4.77.54.12m9.66 2.05l15.24 3.23 4.13.7m9.75 1.65l13.4 2.26 6.13.77m9.82 1.24l13 1.64 6.64.57m9.85.82l13.72 1.14 6 .25m9.88.4l15.15.64h4.6m9.9 0h16.8l2.95-.13m9.88-.4l18.2-.76 1.55-.13m9.85-.82l18.8-1.58.9-.1m9.8-1.25l18.23-2.3 1.38-.23m9.75-1.65l16.17-2.73 3.3-.7m9.66-2.05l12.47-2.66 6.8-1.75m9.58-2.46l7.1-1.82 11.9-3.6m9.48-2.85l.14-.04 18.53-6.45m9.2-3.6l9.66-3.8 8.6-3.83m9-4.08l13.1-6.5 4.5-2.48m8.66-4.77h.02l11.92-7.22 4.84-3.2m8.17-5.57l7.58-5.5 8.16-6.46m7.5-6.43l1.27-1.1 7.34-6.87 5.63-5.75m6.66-7.3l.46-.5 5.53-6.7 5.05-6.66 1.16-1.67m5.5-8.22l2.13-3.34 3.8-6.6 3.46-6.6.32-.67m4.08-9l1.52-3.6 2.5-6.73 2.2-6.8.42-1.48m2.48-9.56l.66-2.8 1.37-7.13 1.07-7.28.24-2.28m.83-9.84l.2-3 .15-6.88" stroke="#0c7cba" stroke-width="2" fill="none"/><path d="M-1419.17-356.76l5.37 14-9.26.5z" stroke="#0c7cba" stroke-width="2" fill="#0c7cba"/><path d="M-620.35-358.95l-2-.05.02-1h2z" fill="#0c7cba"/><path d="M-1418.8-341.62l.07.34.82 3.5.95 3.44.86 2.66m3.9 9.54l.56 1.2 1.73 3.3 1.9 3.3 2.1 3.3 2.3 3.32 2.3 3.03m6.76 7.78l2.62 2.67 3.67 3.44 4.03 3.47 4.44 3.52.7.5m8.45 5.87l1.15.76 5.97 3.6 6.6 3.64 4.23 2.1m9.36 4.32l1.75.77 8.9 3.53 8.6 3m9.86 3.02l2.13.64 11.75 3 6.13 1.3m10.12 2l10.15 1.72 10.25 1.3m10.25 1.03l9.1.77 11.47.48m10.3.17h9.4l11.2-.47m10.3-.68l9.15-.77 11.33-1.43m10.18-1.6l6.62-1.1 12.73-2.7.87-.23m9.98-2.56l.9-.23 10.76-3.25 7.98-2.78m9.62-3.7l1.1-.45 8.07-3.6 7.3-3.6 2.14-1.2m8.93-5.14l1.5-.9 5.4-3.6 4.9-3.55 4.43-3.52.5-.44m7.63-6.92l2.9-2.97 3.05-3.38 2.78-3.35 2.53-3.33 1.94-2.78m5.27-8.86l.84-1.6 1.56-3.3 1.4-3.33 1.25-3.36 1.1-3.4.97-3.43.18-.8m1.88-10.12l.36-3.5.24-3.83.07-2.95" stroke="#0c7cba" stroke-width="2" fill="none"/><path d="M-1420.34-356.78l6.05 13.73-9.2.94z" stroke="#0c7cba" stroke-width="2" fill="#0c7cba"/><path d="M-1020.35-358.95l-2-.05.02-1h2z" fill="#0c7cba"/><path d="M-1237.17-300h110.13v27.04h-110.13z" fill="#fff" fill-opacity="0"/><path d="M-1224.85-280.93h-5.28l.02-.38c1.26-.12 1.57-.62 1.57-2.3v-5.05c0-1.8-.6-2.57-1.86-2.57-.82 0-1.43.3-2.6 1.45v7c0 1 .35 1.35 1.65 1.46v.37h-5.36v-.38c1.3-.12 1.56-.52 1.56-2.02v-6.17c0-1.24-.17-1.64-.88-1.64-.28 0-.56.02-.74.1v-.43c1.4-.4 2.23-.7 3.48-1.15l.2.08v1.98h.03c1.32-1.5 2.5-2.06 3.65-2.06 1.93 0 3 1.4 3 3.92v5.6c0 1.38.3 1.66 1.55 1.8v.37M-1217.4-277.1h-4.95v-.28c1.32-.07 1.7-.45 1.7-1.44v-8.06c0-.6-.16-.88-.54-.88-.17 0-.47.1-.8.22l-.48.18v-.25l3.2-1.65.17.06v10.73c0 .77.35 1.1 1.7 1.1v.26M-1189.7-289.06h-14.96v-1.68h14.95v1.68m0 5.08h-14.96v-1.68h14.95v1.68M-1169.4-284.4l-1.36 3.47h-9.93v-.3l4.53-4.8c2.4-2.52 3.3-4.45 3.3-6.6 0-2.32-1.37-3.6-3.53-3.6-1.83 0-2.72.82-3.73 3.3l-.53-.12c.53-2.97 2.15-5.05 5.28-5.05 2.87 0 4.7 1.95 4.7 4.47 0 2-1 3.9-3.26 6.3l-4.2 4.47h5.96c1.06 0 1.6-.28 2.43-1.7M-1158.34-292.56v1.95c1.1-1.4 2.23-2.02 3.65-2.02 2.48 0 4.25 2.26 4.25 5.4 0 3.7-2.3 6.54-5.33 6.54-1.07 0-1.65-.25-2.56-1.1v4c0 1.6.33 1.87 2.23 1.9v.46h-6.15v-.44c1.5-.15 1.77-.43 1.77-1.75v-11.9c0-1.2-.17-1.44-1.04-1.44-.23 0-.4 0-.63.03v-.42c1.4-.43 2.3-.76 3.65-1.3m.16 3.2v6.25c0 .76 1.44 1.68 2.64 1.68 1.83 0 3.07-1.9 3.07-4.7 0-2.96-1.24-4.9-3.12-4.9-1.17 0-2.6.92-2.6 1.68M-1145.7-288.58l2.64 1.6c1.63 1 2.24 1.68 2.24 3.13 0 1.7-1.63 3.17-3.56 3.17-.53 0-1.27-.03-1.85-.23-.6-.2-.9-.24-1.17-.24-.3 0-.46.05-.6.3h-.34v-3.98h.4c.54 2.46 1.48 3.58 3.23 3.58 1.3 0 2.1-.84 2.1-1.88 0-.8-.5-1.45-1.34-1.9l-1.38-.76c-2.1-1.17-3.04-2.4-3.04-3.7 0-2 1.42-3.1 3.5-3.1.6 0 1.17.02 1.7.27.28.12.54.2.7.2.12 0 .22-.03.42-.26h.28l.13 3.45h-.38c-.6-2.3-1.36-3.13-2.88-3.13-1.1 0-1.9.53-1.9 1.73 0 .55.37 1.3 1.08 1.72M-1127.67-292.36v.38c-.76.08-.96.28-1.65 1.98l-3.25 8.15c-.38.94-.56 1.27-.7 1.27-.16 0-.3-.2-.47-.66-.07-.13-.1-.3-.2-.53l-3.05-7.3c-1.08-2.6-1.33-2.86-2.3-2.9v-.4h4.98v.4c-.86.07-1.17.24-1.17.68 0 .26.1.6.24.97l2.6 6.5 2.5-6.58c.1-.26.16-.5.16-.77 0-.48-.38-.73-1.2-.8v-.4h3.53"/><path d="M-927.83-200h110.12v27.04h-110.13z" fill="#fff" fill-opacity="0"/><path d="M-915.52-180.93h-5.28l.03-.38c1.27-.12 1.57-.62 1.57-2.3v-5.05c0-1.8-.6-2.57-1.85-2.57-.84 0-1.45.3-2.62 1.45v7c0 1 .36 1.35 1.65 1.46v.37h-5.36v-.38c1.3-.12 1.58-.52 1.58-2.02v-6.17c0-1.24-.18-1.64-.9-1.64-.27 0-.55.02-.73.1v-.43c1.4-.4 2.24-.7 3.48-1.15l.2.08v1.98h.03c1.32-1.5 2.5-2.06 3.66-2.06 1.93 0 3 1.4 3 3.92v5.6c0 1.38.3 1.66 1.54 1.8v.37M-906.63-179.57l-.97 2.46h-7.02v-.23l3.2-3.4c1.68-1.77 2.33-3.13 2.33-4.66 0-1.62-.96-2.52-2.5-2.52-1.28 0-1.9.58-2.62 2.34l-.38-.1c.38-2.1 1.52-3.57 3.73-3.57 2.03 0 3.32 1.4 3.32 3.16 0 1.43-.7 2.78-2.3 4.47l-2.96 3.16h4.2c.75 0 1.13-.2 1.72-1.2M-880.37-189.06h-14.96v-1.68h14.96v1.68m0 5.08h-14.96v-1.68h14.96v1.68M-860.08-185.17h-2.62v4.24h-1.98v-4.24h-7.1v-1.63l7.97-11.3h1.1v11.3h2.62v1.63m-4.6-1.63v-8.7l-6.1 8.7h6.1M-849-192.56v1.95c1.1-1.4 2.22-2.02 3.65-2.02 2.46 0 4.24 2.26 4.24 5.4 0 3.7-2.32 6.54-5.35 6.54-1.06 0-1.65-.25-2.56-1.1v4c0 1.6.32 1.87 2.22 1.9v.46h-6.14v-.44c1.5-.15 1.78-.43 1.78-1.75v-11.9c0-1.2-.18-1.44-1.04-1.44-.23 0-.4 0-.64.03v-.42c1.4-.43 2.3-.76 3.66-1.3m.15 3.2v6.25c0 .76 1.44 1.68 2.63 1.68 1.83 0 3.07-1.9 3.07-4.7 0-2.96-1.24-4.9-3.12-4.9-1.17 0-2.6.92-2.6 1.68M-836.36-188.58l2.64 1.6c1.62 1 2.23 1.68 2.23 3.13 0 1.7-1.6 3.17-3.54 3.17-.54 0-1.27-.03-1.86-.23-.6-.2-.9-.24-1.17-.24-.3 0-.45.05-.6.3h-.33v-3.98h.4c.53 2.46 1.47 3.58 3.23 3.58 1.3 0 2.1-.84 2.1-1.88 0-.8-.5-1.45-1.34-1.9l-1.38-.76c-2.1-1.17-3.05-2.4-3.05-3.7 0-2 1.42-3.1 3.5-3.1.6 0 1.17.02 1.7.27.3.12.54.2.72.2.1 0 .2-.03.4-.26h.27l.13 3.45h-.38c-.6-2.3-1.35-3.13-2.87-3.13-1.1 0-1.9.53-1.9 1.73 0 .55.38 1.3 1.1 1.72M-818.33-192.36v.38c-.77.08-.97.28-1.65 1.98l-3.25 8.15c-.4.94-.56 1.27-.72 1.27-.15 0-.28-.2-.45-.66-.08-.13-.1-.3-.2-.53l-3.05-7.3c-1.1-2.6-1.35-2.86-2.3-2.9v-.4h4.96v.4c-.85.07-1.16.24-1.16.68 0 .26.08.6.23.97l2.6 6.5 2.5-6.58c.1-.26.16-.5.16-.77 0-.48-.38-.73-1.2-.8v-.4h3.54"/><path d="M-597.17-104.56h110.13v27.04h-110.13z" fill="#fff" fill-opacity="0"/><path d="M-584.85-85.5h-5.28l.02-.37c1.26-.1 1.57-.6 1.57-2.3v-5.04c0-1.82-.6-2.58-1.86-2.58-.82 0-1.43.3-2.6 1.45v7c0 1 .35 1.35 1.65 1.46v.38h-5.36v-.37c1.3-.1 1.56-.5 1.56-2v-6.18c0-1.25-.17-1.65-.88-1.65-.28 0-.56.02-.74.1v-.43c1.4-.4 2.23-.7 3.48-1.14l.2.07v1.98h.03c1.32-1.5 2.5-2.05 3.65-2.05 1.93 0 3 1.4 3 3.9v5.62c0 1.37.3 1.65 1.55 1.78v.38M-583.38-90.83l-.3-.07c.54-1.7 1.67-2.9 3.53-2.9 1.67 0 2.8.98 2.8 2.45 0 .87-.46 1.76-1.67 2.48.8.34 1.12.56 1.5.95.5.56.78 1.4.78 2.32 0 .95-.3 1.83-.82 2.5-.86 1.16-2.57 1.68-4.17 1.68-1.3 0-2-.38-2-1.02 0-.38.32-.65.73-.65.3 0 .6.12 1.1.48.66.47 1.04.56 1.54.56 1.33 0 2.33-1.23 2.33-2.75 0-1.38-.63-2.26-1.87-2.6-.4-.14-.8-.2-1.83-.2v-.25c.7-.23 1.15-.43 1.5-.64.9-.5 1.47-1.3 1.47-2.4 0-1.22-.76-1.83-1.94-1.83-1.12 0-1.94.58-2.68 1.9M-549.7-93.62h-14.96v-1.68h14.95v1.68m0 5.08h-14.96v-1.68h14.95v1.68M-530.1-102.86l.05.4c-4 .66-6.83 3.4-7.52 7.24 1.25-.96 2.1-1.14 3.23-1.14 2.97 0 4.8 2.03 4.8 5.3 0 1.63-.46 3.05-1.3 4.07-.94 1.18-2.36 1.86-4.03 1.86-2 0-3.6-.94-4.5-2.56-.7-1.3-1.2-3.1-1.2-4.88 0-2.74.97-5.15 2.77-7 2.2-2.3 4.2-2.9 7.7-3.28m-1.73 12.6c0-3.26-1.06-4.93-3.43-4.93-1.44 0-2.94.62-2.94 2.95 0 3.86 1.22 6.4 3.6 6.4 1.83 0 2.77-1.83 2.77-4.42M-518.34-97.12v1.95c1.1-1.4 2.23-2 3.65-2 2.48 0 4.25 2.26 4.25 5.4 0 3.7-2.3 6.53-5.33 6.53-1.07 0-1.65-.25-2.56-1.1v4c0 1.6.33 1.87 2.23 1.9v.46h-6.15v-.43c1.5-.17 1.77-.45 1.77-1.77v-11.88c0-1.2-.17-1.45-1.04-1.45-.23 0-.4 0-.63.03v-.4c1.4-.44 2.3-.77 3.65-1.3m.16 3.2v6.24c0 .76 1.44 1.68 2.64 1.68 1.83 0 3.07-1.9 3.07-4.7 0-2.97-1.24-4.9-3.12-4.9-1.17 0-2.6.9-2.6 1.67M-505.7-93.14l2.64 1.6c1.63 1 2.24 1.68 2.24 3.13 0 1.7-1.63 3.16-3.56 3.16-.53 0-1.27-.03-1.85-.23-.6-.2-.9-.23-1.17-.23-.3 0-.46.05-.6.3h-.34v-3.98h.4c.54 2.46 1.48 3.58 3.23 3.58 1.3 0 2.1-.84 2.1-1.88 0-.78-.5-1.44-1.34-1.9l-1.38-.76c-2.1-1.17-3.04-2.4-3.04-3.7 0-2 1.42-3.1 3.5-3.1.6 0 1.17.02 1.7.27.28.13.54.2.7.2.12 0 .22-.02.42-.25h.28l.13 3.45h-.38c-.6-2.28-1.36-3.12-2.88-3.12-1.1 0-1.9.54-1.9 1.74 0 .55.37 1.3 1.08 1.72M-487.67-96.92v.38c-.76.08-.96.28-1.65 1.98l-3.25 8.15c-.38.93-.56 1.26-.7 1.26-.16 0-.3-.2-.47-.66-.07-.13-.1-.3-.2-.53l-3.05-7.3c-1.08-2.6-1.33-2.86-2.3-2.9v-.4h4.98v.4c-.86.07-1.17.24-1.17.68 0 .25.1.58.24.96l2.6 6.5 2.5-6.57c.1-.25.16-.5.16-.76 0-.48-.38-.73-1.2-.8v-.4h3.53"/><path d="M-420-479v40.5" stroke="#5e5e5e" stroke-width="2" fill="none"/><path d="M-419-478.97h-2V-480h2z" fill="#5e5e5e"/><path d="M-420-423.24l-4.64-14.26h9.28z" stroke="#5e5e5e" stroke-width="2" fill="#5e5e5e"/><path d="M-220-479v40.5" stroke="#5e5e5e" stroke-width="2" fill="none"/><path d="M-219-478.97h-2V-480h2z" fill="#5e5e5e"/><path d="M-220-423.24l-4.64-14.26h9.28z" stroke="#5e5e5e" stroke-width="2" fill="#5e5e5e"/><path d="M-540-534c0-3.3 2.7-6 6-6h228c3.3 0 6 2.7 6 6v48c0 3.3-2.7 6-6 6h-228c-3.3 0-6-2.7-6-6z" stroke="#000" stroke-opacity="0" stroke-width="3" fill="#fff" fill-opacity="0"/><use xlink:href="#o" transform="matrix(1,0,0,1,-535,-535) translate(110.06172839506173 29.84722222222222)"/><path d="M-340-534c0-3.3 2.7-6 6-6h228c3.3 0 6 2.7 6 6v48c0 3.3-2.7 6-6 6h-228c-3.3 0-6-2.7-6-6z" stroke="#000" stroke-opacity="0" stroke-width="3" fill="#fff" fill-opacity="0"/><use xlink:href="#p" transform="matrix(1,0,0,1,-335,-535) translate(110.06172839506173 29.84722222222222)"/><path d="M-340-414c0-3.3 2.7-6 6-6h228c3.3 0 6 2.7 6 6v48c0 3.3-2.7 6-6 6h-228c-3.3 0-6-2.7-6-6z" stroke="#000" stroke-opacity="0" stroke-width="3" fill="#fff" fill-opacity="0"/><use xlink:href="#q" transform="matrix(1,0,0,1,-335,-415) translate(70.37037037037037 30.27777777777778)"/><path d="M-540-414c0-3.3 2.7-6 6-6h228c3.3 0 6 2.7 6 6v48c0 3.3-2.7 6-6 6h-228c-3.3 0-6-2.7-6-6z" stroke="#000" stroke-opacity="0" stroke-width="3" fill="#fff" fill-opacity="0"/><use xlink:href="#r" transform="matrix(1,0,0,1,-535,-415) translate(76.54320987654322 30.27777777777778)"/><path d="M-1070.67 48c0-3.3 2.7-6 6-6h228c3.32 0 6 2.7 6 6v48c0 3.3-2.68 6-6 6h-228c-3.3 0-6-2.7-6-6z" fill="none"/><use xlink:href="#b" transform="matrix(1,0,0,1,-1070.6666666666667,42) translate(62.31481481481482 34.44444444444444)"/><use xlink:href="#s" transform="matrix(1,0,0,1,-1070.6666666666667,42) translate(130.7716049382716 34.44444444444444)"/><path d="M-143.84 241H-1419v-2h1275.16z" fill="#5e5e5e"/><path d="M-1418.97 241h-1.03v-2h1.03zM-128.57 240l-14.27 4.64v-9.28z" fill="#5e5e5e"/><path d="M-125.33 240l-18.5 6v-12zm-16.5 3.26l10.02-3.26-10.04-3.26z" fill="#5e5e5e"/><path d="M-1020 241v40.5" stroke="#5e5e5e" stroke-width="2" fill="none"/><path d="M-1019 241.03h-2V240h2z" fill="#5e5e5e"/><path d="M-1020 296.76l-4.64-14.26h9.28z" stroke="#5e5e5e" stroke-width="2" fill="#5e5e5e"/><path d="M-620 241v40.5" stroke="#5e5e5e" stroke-width="2" fill="none"/><path d="M-619 241.03h-2V240h2z" fill="#5e5e5e"/><path d="M-620 296.76l-4.64-14.26h9.28z" stroke="#5e5e5e" stroke-width="2" fill="#5e5e5e"/><path d="M-1420 241v40.5M-1420 241.03V240" stroke="#5e5e5e" stroke-width="2" fill="none"/><path d="M-1420 296.76l-4.64-14.26h9.28z" stroke="#5e5e5e" stroke-width="2" fill="#5e5e5e"/><path d="M-1419 239h-2v-11h2zm0-32.33h-2V78.5h2z" fill="#5e5e5e"/><path fill="#5e5e5e"/><path d="M-1415.36 77.5h-9.28l4.64-14.26z" fill="#5e5e5e"/><path d="M-1414 78.5h-12l6-18.5zm-9.26-2h6.52l-3.26-10.03z" fill="#5e5e5e"/><use xlink:href="#g" transform="matrix(1,0,0,1,-1424.9382716049383,206.66766666666666) translate(0.004999999999999893 14.222222222222223)"/><path d="M-1540 306c0-3.3 2.7-6 6-6h228c3.3 0 6 2.7 6 6v48c0 3.3-2.7 6-6 6h-228c-3.3 0-6-2.7-6-6zM-1140 306c0-3.3 2.7-6 6-6h228c3.3 0 6 2.7 6 6v48c0 3.3-2.7 6-6 6h-228c-3.3 0-6-2.7-6-6zM-740 306c0-3.3 2.7-6 6-6h228c3.3 0 6 2.7 6 6v48c0 3.3-2.7 6-6 6h-228c-3.3 0-6-2.7-6-6zM-1140 186c0-3.3 2.7-6 6-6h228c3.3 0 6 2.7 6 6v48c0 3.3-2.7 6-6 6h-228c-3.3 0-6-2.7-6-6z" stroke="#000" stroke-opacity="0" stroke-width="3" fill="#fff" fill-opacity="0"/><use xlink:href="#i" transform="matrix(1,0,0,1,-1135,185) translate(110.06172839506173 29.84722222222222)"/><path d="M-740 186c0-3.3 2.7-6 6-6h228c3.3 0 6 2.7 6 6v48c0 3.3-2.7 6-6 6h-228c-3.3 0-6-2.7-6-6z" stroke="#000" stroke-opacity="0" stroke-width="3" fill="#fff" fill-opacity="0"/><use xlink:href="#j" transform="matrix(1,0,0,1,-735,185) translate(110.06172839506173 29.84722222222222)"/><path d="M-1540 6c0-3.3 2.7-6 6-6h228c3.3 0 6 2.7 6 6v48c0 3.3-2.7 6-6 6h-228c-3.3 0-6-2.7-6-6z" stroke="#000" stroke-opacity="0" stroke-width="3" fill="#fff" fill-opacity="0"/><use xlink:href="#m" transform="matrix(1,0,0,1,-1535,5) translate(47.407407407407405 30.27777777777778)"/><path d="M-1420 301v9.6m0 9.58v19.2m0 9.58v19.2m0 9.58v19.18m0 9.6v19.18m0 9.6v19.18m0 9.6v19.18m0 9.6v19.18m0 9.6v19.17m0 9.6v9.6M-1435 559h30" stroke="#5e5e5e" stroke-width="2" fill="none"/><path d="M-1540 566c0-3.3 2.7-6 6-6h228c3.3 0 6 2.7 6 6v48c0 3.3-2.7 6-6 6h-228c-3.3 0-6-2.7-6-6z" stroke="#000" stroke-opacity="0" stroke-width="3" fill="#fff" fill-opacity="0"/><use xlink:href="#n" transform="matrix(1,0,0,1,-1535,565) translate(109.04320987654322 30.27777777777778)"/><path d="M-1419.34 378.5l.3 4.87.54 5.06m1.2 9.88l1.06 7.2 2.04 10.68.4 1.74m2.32 9.7l2.63 9.4 3.14 9.65m3.44 9.35l.47 1.27 4.22 10 3.28 6.97m4.5 8.9l2.1 4 5.7 9.9 2.14 3.35m5.4 8.36l5.68 8.15 6.04 7.96m6.27 7.73l3.6 4.35 9.13 10.14.45.45m6.98 7.12l2.6 2.65 11.02 10.34.83.7m7.54 6.5l3.74 3.23 11.76 9.3m8 5.93l8.28 6 8.08 5.37m8.3 5.5l17.05 10.32m8.7 4.83l11.8 6.48 5.8 2.87m8.93 4.43l7.17 3.56 10.9 4.84m9.1 4.05l4.2 1.9 14.24 5.6m9.27 3.68l3.24 1.28 15.54 5.4m9.4 3.27l4.5 1.57 14.52 4.38m9.54 2.87l8.27 2.5 10.93 2.8m9.65 2.47l14.7 3.77 4.65.98m9.74 2.07l19.5 4.13m9.78 1.84l19.65 3.32m9.82 1.66l6.05 1.03 13.67 1.72m9.88 1.25l19.77 2.5m9.93.83l19.85 1.66m9.93.82l5.78.5 14.1.58m9.96.4l19.9.84m9.97.1h19.9m9.97 0h9.84l10.1-.4m9.94-.43l19.9-.82m9.95-.56l19.85-1.66m9.92-.83l12.3-1.04 7.52-.96m9.88-1.24l19.76-2.5m9.86-1.4l19.65-3.32m9.82-1.66l7.93-1.34 11.62-2.46m9.75-2.07l16.84-3.58 2.63-.67m9.65-2.48l19.3-4.95m9.58-2.72l19.08-5.76m9.5-2.97l18.82-6.55m9.4-3.32l18.52-7.33m9.23-3.74l18.2-8.1m9.02-4.27l16.92-8.4.9-.5m8.73-4.8l10.17-5.58 7.12-4.3m8.52-5.17l2.27-1.37 14.4-9.55m8.1-5.77l8.4-6.1 7.48-5.93m7.74-6.27l10.23-8.82 4.68-4.4m7.22-6.85l9.13-9.3 4.6-5.12m6.57-7.5l6.28-7.58 6.1-8.02m5.76-8.12l2.64-3.8 6.3-9.9 1.77-3.1m4.9-8.66l4.22-8.07 4.6-9.8m3.88-9.17l.4-1 3.76-10.08 2.5-7.7m2.8-9.55l.9-3.28 2.47-10.5 1.08-5.64m1.66-9.8l.92-6.16 1.18-11.2.15-2.44m.6-9.94l.2-9.96" stroke="#0c7cba" stroke-width="2" fill="none"/><path d="M-1419.88 363.25l5.14 14.1-9.26.32z" stroke="#0c7cba" stroke-width="2" fill="#0c7cba"/><path d="M-220.35 361.05l-2-.05.02-1h2z" fill="#0c7cba"/><path d="M-1418.38 378.48l.48 4.53.77 5.28m1.8 9.72l1.5 6.4 1.92 6.87 1.86 5.76m3.47 9.26l2.16 5.13 3.1 6.63 3.2 6.08m4.97 8.53l3.3 5.18 4.6 6.62 3.36 4.44m6.2 7.7l1.03 1.22 6.08 6.75 6.36 6.5m7.2 6.78l.44.4 8.06 6.97 6.67 5.28m7.93 5.9l4.06 2.96 10.8 7.16 1.53.93m8.44 5.12l1.95 1.17 13.17 7.24 2.2 1.1m8.86 4.4l3.52 1.74 14.47 6.43m9.16 3.7l10.28 4.07 8.23 2.87m9.32 3.23l2.04.7 16.86 5.1m9.52 2.65l18.62 4.77.54.12m9.66 2.05l15.24 3.23 4.13.7m9.75 1.65l13.4 2.26 6.13.77m9.82 1.24l13 1.64 6.64.57m9.85.82l13.72 1.14 6 .25m9.88.4l15.15.64h4.6m9.9 0h16.8l2.95-.13m9.88-.4l18.2-.76 1.55-.13m9.85-.82l18.8-1.58.9-.1m9.8-1.25l18.23-2.3 1.38-.23m9.75-1.65l16.17-2.73 3.3-.7m9.66-2.05l12.47-2.66 6.8-1.75m9.58-2.46l7.1-1.82 11.9-3.6m9.48-2.85l.14-.04 18.53-6.45m9.2-3.6l9.66-3.8 8.6-3.83m9-4.08l13.1-6.5 4.5-2.48m8.66-4.77h.02l11.92-7.22 4.84-3.2m8.17-5.57l7.58-5.5 8.16-6.46m7.5-6.43l1.27-1.1 7.34-6.87 5.63-5.75m6.66-7.3l.46-.5 5.53-6.7 5.05-6.66 1.16-1.67m5.5-8.22l2.13-3.34 3.8-6.6 3.46-6.6.32-.67m4.08-9l1.52-3.6 2.5-6.73 2.2-6.8.42-1.48m2.48-9.56l.66-2.8 1.37-7.13 1.07-7.28.24-2.28m.83-9.84l.2-3 .15-6.88" stroke="#0c7cba" stroke-width="2" fill="none"/><path d="M-1419.17 363.24l5.37 14-9.26.5z" stroke="#0c7cba" stroke-width="2" fill="#0c7cba"/><path d="M-620.35 361.05l-2-.05.02-1h2z" fill="#0c7cba"/><path d="M-1418.8 378.38l.07.34.82 3.5.95 3.44.86 2.66m3.9 9.54l.56 1.2 1.73 3.3 1.9 3.3 2.1 3.3 2.3 3.32 2.3 3.03m6.76 7.78l2.62 2.67 3.67 3.44 4.03 3.47 4.44 3.52.7.5m8.45 5.87l1.15.76 5.97 3.6 6.6 3.64 4.23 2.1m9.36 4.32l1.75.77 8.9 3.53 8.6 3m9.86 3.02l2.13.64 11.75 3 6.13 1.3m10.12 2l10.15 1.72 10.25 1.3m10.25 1.03l9.1.77 11.47.48m10.3.17h9.4l11.2-.47m10.3-.68l9.15-.77 11.33-1.43m10.18-1.6l6.62-1.1 12.73-2.7.87-.23m9.98-2.56l.9-.23 10.76-3.25 7.98-2.78m9.62-3.7l1.1-.45 8.07-3.6 7.3-3.6 2.14-1.2m8.93-5.14l1.5-.9 5.4-3.6 4.9-3.55 4.43-3.52.5-.44m7.63-6.92l2.9-2.97 3.05-3.38 2.78-3.35 2.53-3.33 1.94-2.78m5.27-8.86l.84-1.6 1.56-3.3 1.4-3.33 1.25-3.36 1.1-3.4.97-3.43.18-.8m1.88-10.12l.36-3.5.24-3.83.07-2.95" stroke="#0c7cba" stroke-width="2" fill="none"/><path d="M-1420.34 363.22l6.05 13.73-9.2.94z" stroke="#0c7cba" stroke-width="2" fill="#0c7cba"/><path d="M-1020.35 361.05l-2-.05.02-1h2z" fill="#0c7cba"/><path d="M-1237.17 420h111.52v27.04h-111.52z" fill="#fff" fill-opacity="0"/><path d="M-1224.85 439.07h-5.28l.02-.38c1.26-.12 1.57-.62 1.57-2.3v-5.05c0-1.8-.6-2.57-1.86-2.57-.82 0-1.43.3-2.6 1.45v7c0 1 .35 1.35 1.65 1.46v.37h-5.36v-.38c1.3-.12 1.56-.52 1.56-2.02v-6.17c0-1.24-.17-1.64-.88-1.64-.28 0-.56.02-.74.1v-.43c1.4-.4 2.23-.7 3.48-1.15l.2.08v1.98h.03c1.32-1.5 2.5-2.06 3.65-2.06 1.93 0 3 1.4 3 3.92v5.6c0 1.38.3 1.66 1.55 1.8v.37M-1217.4 442.9h-4.95v-.28c1.32-.07 1.7-.45 1.7-1.44v-8.06c0-.6-.16-.88-.54-.88-.17 0-.47.1-.8.22l-.48.18v-.25l3.2-1.65.17.06v10.73c0 .77.35 1.1 1.7 1.1v.26M-1189.7 430.94h-14.96v-1.68h14.95v1.68m0 5.08h-14.96v-1.68h14.95v1.68M-1171.42 439.07h-7v-.38c1.87-.12 2.4-.65 2.4-2.05v-11.4c0-.86-.23-1.24-.76-1.24-.25 0-.7.13-1.14.3l-.7.27v-.36l4.56-2.3.23.08v15.16c0 1.1.5 1.55 2.4 1.55v.37M-1158.34 427.44v1.95c1.1-1.4 2.23-2.02 3.65-2.02 2.48 0 4.25 2.26 4.25 5.4 0 3.7-2.3 6.54-5.33 6.54-1.07 0-1.65-.25-2.56-1.1v4c0 1.6.33 1.87 2.23 1.9v.46h-6.15v-.44c1.5-.15 1.77-.43 1.77-1.75v-11.9c0-1.2-.17-1.44-1.04-1.44-.23 0-.4 0-.63.03v-.42c1.4-.43 2.3-.76 3.65-1.3m.16 3.2v6.25c0 .76 1.44 1.68 2.64 1.68 1.83 0 3.07-1.9 3.07-4.7 0-2.96-1.24-4.9-3.12-4.9-1.17 0-2.6.92-2.6 1.68M-1138.43 437.4v.7c-.77.97-1.43 1.22-2.3 1.22-.93 0-1.5-.5-1.6-1.85h-.04c-1.35 1.52-2.6 1.85-3.68 1.85-1.58 0-2.67-.97-2.67-2.64 0-1.32.8-2.3 1.78-2.97.76-.5 1.7-.98 4.57-2.05v-1.37c0-1.57-.84-2.3-1.98-2.3-1.02 0-1.78.57-1.78 1.26 0 .46.15.53.15 1.06 0 .5-.5 1.05-1.16 1.05-.54 0-1.1-.5-1.1-1.17 0-.66.4-1.47 1.3-2.03.7-.46 1.78-.77 2.92-.77 1.42 0 2.4.4 3 1.15.6.73.7 1.27.7 2.82v4.85c0 1.16.34 1.67.8 1.67.4 0 .65-.12 1.1-.48m-3.95-1.56v-3.58c-1.57.56-2.62 1.1-3.25 1.68-.6.55-.86 1.16-.86 1.95 0 1.34.76 1.95 1.75 1.95.5 0 1.04-.13 1.47-.4.74-.52.9-.87.9-1.6M-1126.27 427.64v.38c-.76.08-.97.28-1.65 1.98l-3.25 8.15c-.38.94-.56 1.27-.7 1.27-.16 0-.3-.2-.47-.66-.08-.13-.1-.3-.2-.53l-3.05-7.3c-1.08-2.6-1.34-2.86-2.3-2.9v-.4h4.98v.4c-.87.07-1.17.24-1.17.68 0 .26.08.6.24.97l2.6 6.5 2.5-6.58c.1-.26.15-.5.15-.77 0-.48-.4-.73-1.2-.8v-.4h3.53"/><path d="M-927.83 520h111.52v27.04h-111.53z" fill="#fff" fill-opacity="0"/><path d="M-915.52 539.07h-5.28l.03-.38c1.27-.12 1.57-.62 1.57-2.3v-5.05c0-1.8-.6-2.57-1.85-2.57-.84 0-1.45.3-2.62 1.45v7c0 1 .36 1.35 1.65 1.46v.37h-5.36v-.38c1.3-.12 1.58-.52 1.58-2.02v-6.17c0-1.24-.18-1.64-.9-1.64-.27 0-.55.02-.73.1v-.43c1.4-.4 2.24-.7 3.48-1.15l.2.08v1.98h.03c1.32-1.5 2.5-2.06 3.66-2.06 1.93 0 3 1.4 3 3.92v5.6c0 1.38.3 1.66 1.54 1.8v.37M-906.63 540.43l-.97 2.46h-7.02v-.23l3.2-3.4c1.68-1.77 2.33-3.13 2.33-4.66 0-1.62-.96-2.52-2.5-2.52-1.28 0-1.9.58-2.62 2.34l-.38-.1c.38-2.1 1.52-3.57 3.73-3.57 2.03 0 3.32 1.4 3.32 3.16 0 1.43-.7 2.78-2.3 4.47l-2.96 3.16h4.2c.75 0 1.13-.2 1.72-1.2M-880.37 530.94h-14.96v-1.68h14.96v1.68m0 5.08h-14.96v-1.68h14.96v1.68M-860.06 535.6l-1.37 3.47h-9.93v-.3l4.52-4.8c2.4-2.52 3.3-4.45 3.3-6.6 0-2.32-1.37-3.6-3.53-3.6-1.82 0-2.7.82-3.73 3.3l-.53-.12c.53-2.97 2.16-5.05 5.28-5.05 2.87 0 4.7 1.95 4.7 4.47 0 2-1 3.9-3.25 6.3l-4.2 4.47h5.95c1.07 0 1.6-.28 2.44-1.7M-849 527.44v1.95c1.1-1.4 2.22-2.02 3.65-2.02 2.46 0 4.24 2.26 4.24 5.4 0 3.7-2.32 6.54-5.35 6.54-1.06 0-1.65-.25-2.56-1.1v4c0 1.6.32 1.87 2.22 1.9v.46h-6.14v-.44c1.5-.15 1.78-.43 1.78-1.75v-11.9c0-1.2-.18-1.44-1.04-1.44-.23 0-.4 0-.64.03v-.42c1.4-.43 2.3-.76 3.66-1.3m.15 3.2v6.25c0 .76 1.44 1.68 2.63 1.68 1.83 0 3.07-1.9 3.07-4.7 0-2.96-1.24-4.9-3.12-4.9-1.17 0-2.6.92-2.6 1.68M-829.1 537.4v.7c-.76.97-1.42 1.22-2.3 1.22-.93 0-1.48-.5-1.6-1.85h-.04c-1.34 1.52-2.6 1.85-3.68 1.85-1.57 0-2.67-.97-2.67-2.64 0-1.32.8-2.3 1.8-2.97.75-.5 1.7-.98 4.56-2.05v-1.37c0-1.57-.84-2.3-1.98-2.3-1 0-1.78.57-1.78 1.26 0 .46.16.53.16 1.06 0 .5-.5 1.05-1.17 1.05-.54 0-1.1-.5-1.1-1.17 0-.66.4-1.47 1.3-2.03.7-.46 1.77-.77 2.9-.77 1.43 0 2.4.4 3 1.15.62.73.72 1.27.72 2.82v4.85c0 1.16.33 1.67.8 1.67.4 0 .65-.12 1.08-.48m-3.94-1.56v-3.58c-1.57.56-2.6 1.1-3.25 1.68-.6.55-.85 1.16-.85 1.95 0 1.34.76 1.95 1.75 1.95.5 0 1.04-.13 1.47-.4.74-.52.9-.87.9-1.6M-816.94 527.64v.38c-.76.08-.96.28-1.65 1.98l-3.24 8.15c-.38.94-.56 1.27-.7 1.27-.16 0-.3-.2-.47-.66-.08-.13-.1-.3-.2-.53l-3.06-7.3c-1.1-2.6-1.34-2.86-2.3-2.9v-.4h4.97v.4c-.85.07-1.16.24-1.16.68 0 .26.08.6.23.97l2.6 6.5 2.5-6.58c.1-.26.16-.5.16-.77 0-.48-.38-.73-1.2-.8v-.4h3.53"/><path d="M-597.17 615.44h111.52v27.04h-111.52z" fill="#fff" fill-opacity="0"/><path d="M-584.85 634.5h-5.28l.02-.37c1.26-.1 1.57-.6 1.57-2.3v-5.04c0-1.82-.6-2.58-1.86-2.58-.82 0-1.43.3-2.6 1.45v7c0 1 .35 1.35 1.65 1.46v.38h-5.36v-.37c1.3-.1 1.56-.5 1.56-2v-6.18c0-1.25-.17-1.65-.88-1.65-.28 0-.56.02-.74.1v-.43c1.4-.4 2.23-.7 3.48-1.14l.2.07v1.98h.03c1.32-1.5 2.5-2.05 3.65-2.05 1.93 0 3 1.4 3 3.9v5.62c0 1.37.3 1.65 1.55 1.78v.38M-583.38 629.17l-.3-.07c.54-1.7 1.67-2.9 3.53-2.9 1.67 0 2.8.98 2.8 2.45 0 .87-.46 1.76-1.67 2.48.8.34 1.12.56 1.5.95.5.56.78 1.4.78 2.32 0 .95-.3 1.83-.82 2.5-.86 1.16-2.57 1.68-4.17 1.68-1.3 0-2-.38-2-1.02 0-.38.32-.65.73-.65.3 0 .6.12 1.1.48.66.47 1.04.56 1.54.56 1.33 0 2.33-1.23 2.33-2.75 0-1.38-.63-2.26-1.87-2.6-.4-.14-.8-.2-1.83-.2v-.25c.7-.23 1.15-.43 1.5-.64.9-.5 1.47-1.3 1.47-2.4 0-1.22-.76-1.83-1.94-1.83-1.12 0-1.94.58-2.68 1.9M-549.7 626.38h-14.96v-1.68h14.95v1.68m0 5.08h-14.96v-1.68h14.95v1.68M-539.88 621.56l-.4-.1c.73-2.42 2.33-4.12 4.97-4.12 2.36 0 3.95 1.4 3.95 3.48 0 1.22-.66 2.5-2.36 3.5 1.1.5 1.57.8 2.1 1.35.7.8 1.12 1.95 1.12 3.28 0 1.34-.43 2.6-1.17 3.55-1.22 1.63-3.63 2.36-5.9 2.36-1.85 0-2.84-.53-2.84-1.45 0-.52.47-.9 1.06-.9.43 0 .83.15 1.54.66.94.66 1.48.8 2.2.8 1.87 0 3.3-1.74 3.3-3.9 0-1.93-.9-3.17-2.65-3.68-.56-.18-1.14-.25-2.6-.25v-.36c.97-.33 1.63-.6 2.14-.9 1.24-.72 2.05-1.87 2.05-3.42 0-1.72-1.07-2.6-2.74-2.6-1.57 0-2.74.83-3.78 2.7M-518.34 622.88v1.95c1.1-1.4 2.23-2 3.65-2 2.48 0 4.25 2.26 4.25 5.4 0 3.7-2.3 6.53-5.33 6.53-1.07 0-1.65-.25-2.56-1.1v4c0 1.6.33 1.87 2.23 1.9v.46h-6.15v-.43c1.5-.17 1.77-.45 1.77-1.77v-11.88c0-1.2-.17-1.45-1.04-1.45-.23 0-.4 0-.63.03v-.4c1.4-.44 2.3-.77 3.65-1.3m.16 3.2v6.24c0 .76 1.44 1.68 2.64 1.68 1.83 0 3.07-1.9 3.07-4.7 0-2.97-1.24-4.9-3.12-4.9-1.17 0-2.6.9-2.6 1.67M-498.43 632.83v.7c-.77.98-1.43 1.23-2.3 1.23-.93 0-1.5-.5-1.6-1.85h-.04c-1.35 1.53-2.6 1.86-3.68 1.86-1.58 0-2.67-.96-2.67-2.64 0-1.32.8-2.3 1.78-2.97.76-.5 1.7-1 4.57-2.06v-1.38c0-1.57-.84-2.3-1.98-2.3-1.02 0-1.78.57-1.78 1.26 0 .46.15.53.15 1.07 0 .48-.5 1.04-1.16 1.04-.54 0-1.1-.5-1.1-1.18 0-.66.4-1.47 1.3-2.03.7-.47 1.78-.77 2.92-.77 1.42 0 2.4.4 3 1.14.6.73.7 1.27.7 2.82v4.84c0 1.16.34 1.67.8 1.67.4 0 .65-.1 1.1-.47m-3.95-1.55v-3.58c-1.57.56-2.62 1.1-3.25 1.68-.6.56-.86 1.16-.86 1.95 0 1.35.76 1.96 1.75 1.96.5 0 1.04-.14 1.47-.42.74-.5.9-.86.9-1.6M-486.27 623.08v.38c-.76.08-.97.28-1.65 1.98l-3.25 8.15c-.38.93-.56 1.26-.7 1.26-.16 0-.3-.2-.47-.66-.08-.13-.1-.3-.2-.53l-3.05-7.3c-1.08-2.6-1.34-2.86-2.3-2.9v-.4h4.98v.4c-.87.07-1.17.24-1.17.68 0 .25.08.58.24.96l2.6 6.5 2.5-6.57c.1-.25.15-.5.15-.76 0-.48-.4-.73-1.2-.8v-.4h3.53"/><path d="M-220 241v40.5" stroke="#5e5e5e" stroke-width="2" fill="none"/><path d="M-219 241.03h-2V240h2z" fill="#5e5e5e"/><path d="M-220 296.76l-4.64-14.26h9.28z" stroke="#5e5e5e" stroke-width="2" fill="#5e5e5e"/><path d="M-340 186c0-3.3 2.7-6 6-6h228c3.3 0 6 2.7 6 6v48c0 3.3-2.7 6-6 6h-228c-3.3 0-6-2.7-6-6z" stroke="#000" stroke-opacity="0" stroke-width="3" fill="#fff" fill-opacity="0"/><use xlink:href="#k" transform="matrix(1,0,0,1,-335,185) translate(110.06172839506173 29.84722222222222)"/><path d="M-340 306c0-3.3 2.7-6 6-6h228c3.3 0 6 2.7 6 6v48c0 3.3-2.7 6-6 6h-228c-3.3 0-6-2.7-6-6zM-260-474c0-3.3 2.7-6 6-6h228c3.3 0 6 2.7 6 6v48c0 3.3-2.7 6-6 6h-228c-3.3 0-6-2.7-6-6z" stroke="#000" stroke-opacity="0" stroke-width="3" fill="#fff" fill-opacity="0"/><use xlink:href="#t" transform="matrix(1,0,0,1,-255,-475) translate(97.71604938271605 30.27777777777778)"/><path d="M-240 246c0-3.3 2.7-6 6-6H-6c3.3 0 6 2.7 6 6v48c0 3.3-2.7 6-6 6h-228c-3.3 0-6-2.7-6-6z" stroke="#000" stroke-opacity="0" stroke-width="3" fill="#fff" fill-opacity="0"/><use xlink:href="#u" transform="matrix(1,0,0,1,-235,245) translate(97.09876543209876 30.27777777777778)"/><path d="M-1075.76 316.48h84v27.04h-84z" fill="#fff" fill-opacity="0"/><path d="M-1059 337.13h-4.1l-6.06-7.82-1.42.06v4.93c0 1.92.3 2.22 2.26 2.35v.48h-7v-.48c1.9-.15 2.15-.43 2.15-2.67v-10.84c0-1.88-.2-2.2-2.16-2.34v-.48h6.9c2.42 0 4.23.6 5.32 1.5.83.68 1.23 1.93 1.23 3.05 0 2.2-1.42 3.68-4.6 4.16l5.08 6.42c.75.94 1.28 1.1 2.4 1.2v.48m-11.58-14.8v6.1c2.44-.06 3.33-.24 4.5-.87.9-.5 1.44-1.63 1.44-2.9 0-2.28-1.5-3.4-4.64-3.4-.87 0-1.3.18-1.3 1.07M-1051.76 340.95h-4.95v-.26c1.32-.1 1.7-.46 1.7-1.45v-8.06c0-.62-.17-.9-.54-.9-.18 0-.5.1-.8.22l-.5.18v-.25l3.22-1.63.16.05v10.72c0 .76.36 1.1 1.7 1.1v.25M-1024.06 329H-1039v-1.67h14.94V329m0 5.08H-1039v-1.67h14.94v1.68M-1009.07 320.95v6.25c3.07 1.65 3.7 2.3 4.4 3.33.34.53.52 1.34.52 2.28 0 2.96-2 3.92-4.92 4.33v2.2h-.87v-2.2c-2.2 0-3.32-.35-4.72-1.3v-3.3h.38c.53 2.54 2.1 3.9 4.34 3.9v-7.17c-3.5-1.98-4.52-3.02-4.52-5.16 0-2.54 2.16-3.68 4.52-3.83v-1.6h.87v1.6c2.05.13 3.3.56 4.08 1.34v2.83h-.37c-.5-2.1-1.67-3.22-3.7-3.48m-.87 5.85v-5.85c-1.8.36-2.64 1.38-2.64 2.67 0 1.12.5 1.73 2.64 3.18m.87 2.9v6.72c2.05-.43 2.9-1.22 2.9-3.02 0-1.55-.6-2.34-2.9-3.7M-996.88 332.97h-.44c.03-1.02.23-2.3 1.12-4.5.66-1.62 1.3-3.22 1.3-4.75 0-1.75-1.22-3-2.77-3-1.22 0-2.4.77-2.4 1.58 0 .94.98 1.04.98 1.88 0 .63-.4 1.1-1.04 1.1-.7 0-1.2-.64-1.2-1.68 0-2.1 1.7-3.64 4.15-3.64 2.47 0 4.63 1.55 4.63 4.02 0 1.55-.48 2.4-2.66 5-.92 1.1-1.38 2.26-1.65 4zm1.16 3.02c0 .72-.56 1.33-1.32 1.33-.86 0-1.37-.63-1.37-1.34 0-.77.58-1.36 1.36-1.36.7 0 1.32.64 1.32 1.35"/><path d="M-662 316.48h84v27.04h-84z" fill="#fff" fill-opacity="0"/><path d="M-645.24 337.13h-4.1l-6.05-7.82-1.42.06v4.93c0 1.92.3 2.22 2.26 2.35v.48h-7v-.48c1.9-.15 2.15-.43 2.15-2.67v-10.84c0-1.88-.2-2.2-2.16-2.34v-.48h6.9c2.42 0 4.22.6 5.3 1.5.85.68 1.26 1.93 1.26 3.05 0 2.2-1.43 3.68-4.6 4.16l5.08 6.42c.73.94 1.27 1.1 2.38 1.2v.48m-11.58-14.8v6.1c2.44-.06 3.33-.24 4.5-.87.9-.5 1.45-1.63 1.45-2.9 0-2.28-1.5-3.4-4.65-3.4-.86 0-1.3.18-1.3 1.07M-636.56 338.5l-.96 2.45h-7.02v-.2l3.2-3.4c1.68-1.78 2.33-3.15 2.33-4.67 0-1.64-.98-2.53-2.5-2.53-1.3 0-1.93.57-2.65 2.33l-.38-.1c.38-2.1 1.53-3.56 3.74-3.56 2.04 0 3.33 1.38 3.33 3.16 0 1.42-.7 2.76-2.3 4.45l-2.96 3.16h4.2c.75 0 1.13-.2 1.72-1.2M-610.3 329h-14.95v-1.67h14.96V329m0 5.08h-14.95v-1.67h14.96v1.68M-595.3 320.95v6.25c3.06 1.65 3.7 2.3 4.38 3.33.36.53.54 1.34.54 2.28 0 2.96-2 3.92-4.93 4.33v2.2h-.87v-2.2c-2.2 0-3.33-.35-4.73-1.3v-3.3h.38c.54 2.54 2.1 3.9 4.35 3.9v-7.17c-3.5-1.98-4.52-3.02-4.52-5.16 0-2.54 2.16-3.68 4.53-3.83v-1.6h.86v1.6c2.05.13 3.3.56 4.08 1.34v2.83h-.38c-.5-2.1-1.68-3.22-3.7-3.48m-.87 5.85v-5.85c-1.8.36-2.64 1.38-2.64 2.67 0 1.12.5 1.73 2.63 3.18m.86 2.9v6.72c2.05-.43 2.88-1.22 2.88-3.02 0-1.55-.58-2.34-2.9-3.7M-583.12 332.97h-.43c.02-1.02.23-2.3 1.1-4.5.67-1.62 1.3-3.22 1.3-4.75 0-1.75-1.2-3-2.76-3-1.23 0-2.4.77-2.4 1.58 0 .94.97 1.04.97 1.88 0 .63-.4 1.1-1.04 1.1-.7 0-1.22-.64-1.22-1.68 0-2.1 1.74-3.64 4.17-3.64 2.47 0 4.63 1.55 4.63 4.02 0 1.55-.5 2.4-2.67 5-.9 1.1-1.37 2.26-1.65 4zm1.17 3.02c0 .72-.56 1.33-1.32 1.33-.87 0-1.38-.63-1.38-1.34 0-.77.6-1.36 1.38-1.36.7 0 1.32.64 1.32 1.35"/><path d="M-262 316.48h84v27.04h-84z" fill="#fff" fill-opacity="0"/><path d="M-245.24 337.13h-4.1l-6.05-7.82-1.42.06v4.93c0 1.92.3 2.22 2.26 2.35v.48h-7v-.48c1.9-.15 2.15-.43 2.15-2.67v-10.84c0-1.88-.2-2.2-2.16-2.34v-.48h6.9c2.42 0 4.22.6 5.3 1.5.85.68 1.26 1.93 1.26 3.05 0 2.2-1.43 3.68-4.6 4.16l5.08 6.42c.73.94 1.27 1.1 2.38 1.2v.48m-11.58-14.8v6.1c2.44-.06 3.33-.24 4.5-.87.9-.5 1.45-1.63 1.45-2.9 0-2.28-1.5-3.4-4.65-3.4-.86 0-1.3.18-1.3 1.07M-243.97 331.8l-.3-.07c.53-1.7 1.66-2.9 3.53-2.9 1.67 0 2.8.98 2.8 2.45 0 .86-.46 1.76-1.67 2.48.78.34 1.1.55 1.48.95.5.56.8 1.4.8 2.32 0 .95-.3 1.83-.83 2.52-.86 1.15-2.57 1.67-4.17 1.67-1.3 0-2-.37-2-1.02 0-.37.3-.64.73-.64.3 0 .6.1 1.1.46.67.47 1.04.56 1.55.56 1.32 0 2.33-1.22 2.33-2.75 0-1.35-.63-2.23-1.87-2.6-.38-.12-.8-.17-1.82-.17v-.25c.68-.23 1.15-.43 1.5-.65.9-.5 1.46-1.3 1.46-2.4 0-1.22-.75-1.83-1.93-1.83-1.1 0-1.93.57-2.67 1.9M-210.3 329h-14.95v-1.67h14.96V329m0 5.08h-14.95v-1.67h14.96v1.68M-195.3 320.95v6.25c3.06 1.65 3.7 2.3 4.38 3.33.36.53.54 1.34.54 2.28 0 2.96-2 3.92-4.93 4.33v2.2h-.87v-2.2c-2.2 0-3.33-.35-4.73-1.3v-3.3h.38c.54 2.54 2.1 3.9 4.35 3.9v-7.17c-3.5-1.98-4.52-3.02-4.52-5.16 0-2.54 2.16-3.68 4.53-3.83v-1.6h.86v1.6c2.05.13 3.3.56 4.08 1.34v2.83h-.38c-.5-2.1-1.68-3.22-3.7-3.48m-.87 5.85v-5.85c-1.8.36-2.64 1.38-2.64 2.67 0 1.12.5 1.73 2.63 3.18m.86 2.9v6.72c2.05-.43 2.88-1.22 2.88-3.02 0-1.55-.58-2.34-2.9-3.7M-183.12 332.97h-.43c.02-1.02.23-2.3 1.1-4.5.67-1.62 1.3-3.22 1.3-4.75 0-1.75-1.2-3-2.76-3-1.23 0-2.4.77-2.4 1.58 0 .94.97 1.04.97 1.88 0 .63-.4 1.1-1.04 1.1-.7 0-1.22-.64-1.22-1.68 0-2.1 1.74-3.64 4.17-3.64 2.47 0 4.63 1.55 4.63 4.02 0 1.55-.5 2.4-2.67 5-.9 1.1-1.37 2.26-1.65 4zm1.17 3.02c0 .72-.56 1.33-1.32 1.33-.87 0-1.38-.63-1.38-1.34 0-.77.6-1.36 1.38-1.36.7 0 1.32.64 1.32 1.35"/><defs><path fill="#333" d="M194-70c0 46-34 64-81 66v29H91V-4C42-5 12-27 4-67l30-6c5 28 25 41 57 43v-87c-38-9-76-20-76-67 1-42 33-58 76-59v-23h22v23c45 0 67 20 76 56l-31 6c-5-23-18-35-45-37v78c41 10 81 20 81 70zm-81 41c51 7 71-66 19-77-6-2-12-4-19-6v83zM91-219c-47-6-63 57-18 69 6 2 12 3 18 5v-74" id="v"/><path fill="#333" d="M110-160c48 1 74 30 74 79 0 53-28 85-80 85-65 0-83-55-86-122-5-90 50-162 133-122 14 7 22 21 27 39l-31 6c-5-40-67-38-82-6-9 19-15 44-15 74 11-20 30-34 60-33zm-7 138c34 0 49-23 49-58s-16-56-50-56c-29 0-50 16-49 49 1 36 15 65 50 65" id="w"/><path fill="#333" d="M27 0v-27h64v-190l-56 39v-29l58-41h29v221h61V0H27" id="x"/><path fill="#333" d="M33 0v-38h34V0H33" id="y"/><path fill="#333" d="M101-251c82-7 93 87 43 132L82-64C71-53 59-42 53-27h129V0H18c2-99 128-94 128-182 0-28-16-43-45-43s-46 15-49 41l-32-3c6-41 34-60 81-64" id="z"/><path fill="#333" d="M99-251c64 0 84 50 84 122C183-37 130 33 47-8c-14-7-20-23-25-40l30-5c6 39 69 39 84 7 9-19 16-44 16-74-10 22-31 35-62 35-49 0-73-33-73-83 0-54 28-83 82-83zm-1 141c31-1 51-18 51-49 0-36-14-67-51-67-34 0-49 23-49 58 0 34 15 58 49 58" id="A"/><path fill="#333" d="M126-127c33 6 58 20 58 59 0 88-139 92-164 29-3-8-5-16-6-25l32-3c6 27 21 44 54 44 32 0 52-15 52-46 0-38-36-46-79-43v-28c39 1 72-4 72-42 0-27-17-43-46-43-28 0-47 15-49 41l-32-3c6-42 35-63 81-64 48-1 79 21 79 65 0 36-21 52-52 59" id="B"/><g id="a"><use transform="matrix(0.06172839506172839,0,0,0.06172839506172839,0,0)" xlink:href="#v"/><use transform="matrix(0.06172839506172839,0,0,0.06172839506172839,12.345679012345679,0)" xlink:href="#w"/><use transform="matrix(0.06172839506172839,0,0,0.06172839506172839,24.691358024691358,0)" xlink:href="#x"/><use transform="matrix(0.06172839506172839,0,0,0.06172839506172839,37.03703703703704,0)" xlink:href="#y"/><use transform="matrix(0.06172839506172839,0,0,0.06172839506172839,43.20987654320988,0)" xlink:href="#z"/><use transform="matrix(0.06172839506172839,0,0,0.06172839506172839,55.55555555555556,0)" xlink:href="#A"/><use transform="matrix(0.06172839506172839,0,0,0.06172839506172839,67.90123456790124,0)" xlink:href="#B"/></g><path fill="#333" d="M24-231v-30h32v30H24zM-9 49c24 4 33-6 33-30v-209h32V24c2 40-23 58-65 49V49" id="C"/><path fill="#333" d="M18-150v-26h174v26H18zm0 90v-26h174v26H18" id="D"/><path fill="#333" d="M252-156c43 0 55 33 55 80 0 46-13 78-56 78-42 0-55-33-55-78 0-48 12-80 56-80zM93 0H65l162-248h28zM13-171c-1-47 13-79 56-79s55 33 55 79-13 79-55 79c-43 0-56-33-56-79zM251-17c28 0 30-29 30-59 0-31-1-60-29-60-29 0-31 29-31 60 0 29 2 59 30 59zM69-112c27 0 28-30 29-59 0-31-1-60-29-60-29 0-30 30-30 60s2 59 30 59" id="E"/><g id="b"><use transform="matrix(0.06172839506172839,0,0,0.06172839506172839,0,0)" xlink:href="#C"/><use transform="matrix(0.06172839506172839,0,0,0.06172839506172839,4.876543209876543,0)" xlink:href="#D"/><use transform="matrix(0.06172839506172839,0,0,0.06172839506172839,17.839506172839506,0)" xlink:href="#B"/><use transform="matrix(0.06172839506172839,0,0,0.06172839506172839,30.185185185185183,0)" xlink:href="#z"/><use transform="matrix(0.06172839506172839,0,0,0.06172839506172839,42.53086419753086,0)" xlink:href="#E"/></g><path fill="#333" d="M117-194c89-4 53 116 60 194h-32v-121c0-31-8-49-39-48C34-167 62-67 57 0H25l-1-190h30c1 10-1 24 2 32 11-22 29-35 61-36" id="F"/><path fill="#333" d="M141-36C126-15 110 5 73 4 37 3 15-17 15-53c-1-64 63-63 125-63 3-35-9-54-41-54-24 1-41 7-42 31l-33-3c5-37 33-52 76-52 45 0 72 20 72 64v82c-1 20 7 32 28 27v20c-31 9-61-2-59-35zM48-53c0 20 12 33 32 33 41-3 63-29 60-74-43 2-92-5-92 41" id="G"/><path fill="#333" d="M135-143c-3-34-86-38-87 0 15 53 115 12 119 90S17 21 10-45l28-5c4 36 97 45 98 0-10-56-113-15-118-90-4-57 82-63 122-42 12 7 21 19 24 35" id="H"/><path fill="#333" d="M108 0H70L1-190h34L89-25l56-165h34" id="I"/><g id="c"><use transform="matrix(0.06172839506172839,0,0,0.06172839506172839,0,0)" xlink:href="#F"/><use transform="matrix(0.06172839506172839,0,0,0.06172839506172839,12.345679012345679,0)" xlink:href="#G"/><use transform="matrix(0.06172839506172839,0,0,0.06172839506172839,24.691358024691358,0)" xlink:href="#H"/><use transform="matrix(0.06172839506172839,0,0,0.06172839506172839,35.80246913580247,0)" xlink:href="#I"/></g><path fill="#333" d="M197 0v-115H63V0H30v-248h33v105h134v-105h34V0h-34" id="J"/><path fill="#333" d="M54-142c48-35 137-8 131 61C196 18 31 33 14-55l32-4c7 23 22 37 52 37 35-1 51-22 54-58 4-55-73-65-99-34H22l8-134h141v27H59" id="K"/><path fill="#333" d="M101-251c68 0 85 55 85 127S166 4 100 4C33 4 14-52 14-124c0-73 17-127 87-127zm-1 229c47 0 54-49 54-102s-4-102-53-102c-51 0-55 48-55 102 0 53 5 102 54 102" id="L"/><g id="d"><use transform="matrix(0.06172839506172839,0,0,0.06172839506172839,0,0)" xlink:href="#J"/><use transform="matrix(0.06172839506172839,0,0,0.06172839506172839,15.987654320987653,0)" xlink:href="#D"/><use transform="matrix(0.06172839506172839,0,0,0.06172839506172839,28.950617283950614,0)" xlink:href="#v"/><use transform="matrix(0.06172839506172839,0,0,0.06172839506172839,41.29629629629629,0)" xlink:href="#z"/><use transform="matrix(0.06172839506172839,0,0,0.06172839506172839,53.64197530864197,0)" xlink:href="#K"/><use transform="matrix(0.06172839506172839,0,0,0.06172839506172839,65.98765432098764,0)" xlink:href="#y"/><use transform="matrix(0.06172839506172839,0,0,0.06172839506172839,72.16049382716048,0)" xlink:href="#L"/><use transform="matrix(0.06172839506172839,0,0,0.06172839506172839,84.50617283950616,0)" xlink:href="#L"/><use transform="matrix(0.06172839506172839,0,0,0.06172839506172839,96.85185185185185,0)" xlink:href="#L"/></g><path fill="#333" d="M96-169c-40 0-48 33-48 73s9 75 48 75c24 0 41-14 43-38l32 2c-6 37-31 61-74 61-59 0-76-41-82-99-10-93 101-131 147-64 4 7 5 14 7 22l-32 3c-4-21-16-35-41-35" id="M"/><path fill="#333" d="M85-194c31 0 48 13 60 33l-1-100h32l1 261h-30c-2-10 0-23-3-31C134-8 116 4 85 4 32 4 16-35 15-94c0-66 23-100 70-100zm9 24c-40 0-46 34-46 75 0 40 6 74 45 74 42 0 51-32 51-76 0-42-9-74-50-73" id="N"/><g id="e"><use transform="matrix(0.06172839506172839,0,0,0.06172839506172839,0,0)" xlink:href="#M"/><use transform="matrix(0.06172839506172839,0,0,0.06172839506172839,11.11111111111111,0)" xlink:href="#G"/><use transform="matrix(0.06172839506172839,0,0,0.06172839506172839,23.45679012345679,0)" xlink:href="#N"/><use transform="matrix(0.06172839506172839,0,0,0.06172839506172839,35.80246913580247,0)" xlink:href="#G"/></g><path fill="#333" d="M118-194c89-4 53 116 60 194h-32v-121c0-31-8-49-39-48C35-167 63-67 58 0H26l-1-190h30c1 10-1 24 2 32 11-22 29-35 61-36zm47-64c-3 23-9 48-36 47-26-1-65-44-74 0H39c4-23 8-48 36-47s64 44 74 0h16" id="O"/><path fill="#333" d="M100-194c62-1 85 37 85 99 1 63-27 99-86 99S16-35 15-95c0-66 28-99 85-99zM99-20c44 1 53-31 53-75 0-43-8-75-51-75s-53 32-53 75 10 74 51 75" id="P"/><g id="f"><use transform="matrix(0.06172839506172839,0,0,0.06172839506172839,0,0)" xlink:href="#G"/><use transform="matrix(0.06172839506172839,0,0,0.06172839506172839,12.345679012345679,0)" xlink:href="#O"/><use transform="matrix(0.06172839506172839,0,0,0.06172839506172839,24.691358024691358,0)" xlink:href="#P"/></g><path fill="#333" d="M101-251c68 0 84 54 84 127C185-50 166 4 99 4S15-52 14-124c-1-75 17-127 87-127zm-1 216c37-5 36-46 36-89s4-89-36-89c-39 0-36 45-36 89 0 43-3 85 36 89" id="Q"/><use transform="matrix(0.04938271604938272,0,0,0.04938271604938272,0,0)" xlink:href="#Q" id="g"/><path fill="#333" d="M134-131c28 9 52 24 51 62-1 50-34 73-85 73S17-19 16-69c0-36 21-54 49-61-75-25-45-126 34-121 46 3 78 18 79 63 0 33-17 51-44 57zm-34-11c31 1 46-15 46-44 0-28-17-43-47-42-29 0-46 13-45 42 1 28 16 44 46 44zm1 122c35 0 51-18 51-52 0-30-18-46-53-46-33 0-51 17-51 47 0 34 19 51 53 51" id="R"/><g id="h"><use transform="matrix(0.06172839506172839,0,0,0.06172839506172839,0,0)" xlink:href="#v"/><use transform="matrix(0.06172839506172839,0,0,0.06172839506172839,12.345679012345679,0)" xlink:href="#R"/><use transform="matrix(0.06172839506172839,0,0,0.06172839506172839,24.691358024691358,0)" xlink:href="#w"/><use transform="matrix(0.06172839506172839,0,0,0.06172839506172839,37.03703703703704,0)" xlink:href="#y"/><use transform="matrix(0.06172839506172839,0,0,0.06172839506172839,43.20987654320988,0)" xlink:href="#z"/><use transform="matrix(0.06172839506172839,0,0,0.06172839506172839,55.55555555555556,0)" xlink:href="#A"/><use transform="matrix(0.06172839506172839,0,0,0.06172839506172839,67.90123456790124,0)" xlink:href="#B"/></g><use transform="matrix(0.049382716049382706,0,0,0.049382716049382706,0,0)" xlink:href="#x" id="i"/><use transform="matrix(0.049382716049382706,0,0,0.049382716049382706,0,0)" xlink:href="#z" id="j"/><use transform="matrix(0.049382716049382706,0,0,0.049382716049382706,0,0)" xlink:href="#B" id="k"/><path fill="#333" d="M155-56V0h-30v-56H8v-25l114-167h33v167h35v25h-35zm-30-156c-27 46-58 90-88 131h88v-131" id="S"/><use transform="matrix(0.049382716049382706,0,0,0.049382716049382706,0,0)" xlink:href="#S" id="l"/><path fill="#333" d="M137 0h-34L2-248h35l83 218 83-218h36" id="T"/><path fill="#333" d="M30-248c87 1 191-15 191 75 0 78-77 80-158 76V0H30v-248zm33 125c57 0 124 11 124-50 0-59-68-47-124-48v98" id="U"/><g id="m"><use transform="matrix(0.06172839506172839,0,0,0.06172839506172839,0,0)" xlink:href="#T"/><use transform="matrix(0.06172839506172839,0,0,0.06172839506172839,14.814814814814813,0)" xlink:href="#U"/><use transform="matrix(0.06172839506172839,0,0,0.06172839506172839,29.629629629629626,0)" xlink:href="#D"/><use transform="matrix(0.06172839506172839,0,0,0.06172839506172839,42.59259259259259,0)" xlink:href="#v"/><use transform="matrix(0.06172839506172839,0,0,0.06172839506172839,54.938271604938265,0)" xlink:href="#B"/><use transform="matrix(0.06172839506172839,0,0,0.06172839506172839,67.28395061728395,0)" xlink:href="#L"/><use transform="matrix(0.06172839506172839,0,0,0.06172839506172839,79.62962962962963,0)" xlink:href="#L"/><use transform="matrix(0.06172839506172839,0,0,0.06172839506172839,91.97530864197532,0)" xlink:href="#y"/><use transform="matrix(0.06172839506172839,0,0,0.06172839506172839,98.14814814814815,0)" xlink:href="#L"/><use transform="matrix(0.06172839506172839,0,0,0.06172839506172839,110.49382716049384,0)" xlink:href="#L"/><use transform="matrix(0.06172839506172839,0,0,0.06172839506172839,122.83950617283952,0)" xlink:href="#L"/></g><path fill="#333" d="M101-234c-31-9-42 10-38 44h38v23H63V0H32v-167H5v-23h27c-7-52 17-82 69-68v24" id="V"/><g id="n"><use transform="matrix(0.06172839506172839,0,0,0.06172839506172839,0,0)" xlink:href="#V"/><use transform="matrix(0.06172839506172839,0,0,0.06172839506172839,5.7407407407407405,0)" xlink:href="#V"/></g><use transform="matrix(0.049382716049382706,0,0,0.049382716049382706,0,0)" xlink:href="#K" id="o"/><use transform="matrix(0.049382716049382706,0,0,0.049382716049382706,0,0)" xlink:href="#w" id="p"/><g id="q"><use transform="matrix(0.06172839506172839,0,0,0.06172839506172839,0,0)" xlink:href="#v"/><use transform="matrix(0.06172839506172839,0,0,0.06172839506172839,12.345679012345679,0)" xlink:href="#x"/><use transform="matrix(0.06172839506172839,0,0,0.06172839506172839,23.02469135802469,0)" xlink:href="#x"/><use transform="matrix(0.06172839506172839,0,0,0.06172839506172839,33.7037037037037,0)" xlink:href="#x"/><use transform="matrix(0.06172839506172839,0,0,0.06172839506172839,46.04938271604938,0)" xlink:href="#y"/><use transform="matrix(0.06172839506172839,0,0,0.06172839506172839,52.22222222222222,0)" xlink:href="#z"/><use transform="matrix(0.06172839506172839,0,0,0.06172839506172839,64.5679012345679,0)" xlink:href="#A"/><use transform="matrix(0.06172839506172839,0,0,0.06172839506172839,76.91358024691358,0)" xlink:href="#B"/></g><g id="r"><use transform="matrix(0.06172839506172839,0,0,0.06172839506172839,0,0)" xlink:href="#x"/><use transform="matrix(0.06172839506172839,0,0,0.06172839506172839,10.679012345679013,0)" xlink:href="#x"/><use transform="matrix(0.06172839506172839,0,0,0.06172839506172839,21.358024691358025,0)" xlink:href="#x"/><use transform="matrix(0.06172839506172839,0,0,0.06172839506172839,33.7037037037037,0)" xlink:href="#y"/><use transform="matrix(0.06172839506172839,0,0,0.06172839506172839,39.876543209876544,0)" xlink:href="#z"/><use transform="matrix(0.06172839506172839,0,0,0.06172839506172839,52.22222222222222,0)" xlink:href="#A"/><use transform="matrix(0.06172839506172839,0,0,0.06172839506172839,64.5679012345679,0)" xlink:href="#B"/></g><g id="s"><use transform="matrix(0.06172839506172839,0,0,0.06172839506172839,0,0)" xlink:href="#F"/><use transform="matrix(0.06172839506172839,0,0,0.06172839506172839,12.345679012345679,0)" xlink:href="#G"/><use transform="matrix(0.06172839506172839,0,0,0.06172839506172839,24.691358024691358,0)" xlink:href="#H"/><use transform="matrix(0.06172839506172839,0,0,0.06172839506172839,35.80246913580247,0)" xlink:href="#I"/></g><path fill="#333" d="M115-194c55 1 70 41 70 98S169 2 115 4C84 4 66-9 55-30l1 105H24l-1-265h31l2 30c10-21 28-34 59-34zm-8 174c40 0 45-34 45-75s-6-73-45-74c-42 0-51 32-51 76 0 43 10 73 51 73" id="W"/><g id="t"><use transform="matrix(0.06172839506172839,0,0,0.06172839506172839,0,0)" xlink:href="#W"/><use transform="matrix(0.06172839506172839,0,0,0.06172839506172839,12.345679012345679,0)" xlink:href="#H"/><use transform="matrix(0.06172839506172839,0,0,0.06172839506172839,23.45679012345679,0)" xlink:href="#I"/></g><g id="u"><use transform="matrix(0.06172839506172839,0,0,0.06172839506172839,0,0)" xlink:href="#W"/><use transform="matrix(0.06172839506172839,0,0,0.06172839506172839,12.345679012345679,0)" xlink:href="#G"/><use transform="matrix(0.06172839506172839,0,0,0.06172839506172839,24.691358024691358,0)" xlink:href="#I"/></g></defs></g></svg>