<svg xmlns="http://www.w3.org/2000/svg" xmlns:xlink="http://www.w3.org/1999/xlink" xmlns:lucid="lucid" width="1580" height="1470.35"><g transform="translate(-160 -40)" lucid:page-tab-id="0_0"><path d="M0 0h1870.4v2582.4H0z" fill="#fff"/><path d="M649.33 108c0-3.3 2.7-6 6-6h228c3.32 0 6 2.7 6 6v48c0 3.3-2.68 6-6 6h-228c-3.3 0-6-2.7-6-6z" fill="none"/><use xlink:href="#a" transform="matrix(1,0,0,1,649.3333333333333,102) translate(62.31481481481482 21.111111111111114)"/><use xlink:href="#b" transform="matrix(1,0,0,1,649.3333333333333,102) translate(130.7716049382716 21.111111111111114)"/><use xlink:href="#c" transform="matrix(1,0,0,1,649.3333333333333,102) translate(16.63580246913581 47.777777777777786)"/><use xlink:href="#d" transform="matrix(1,0,0,1,649.3333333333333,102) translate(132.00617283950618 47.777777777777786)"/><use xlink:href="#e" transform="matrix(1,0,0,1,649.3333333333333,102) translate(186.32716049382714 47.777777777777786)"/><path d="M380 366c0-3.3 2.7-6 6-6h228c3.3 0 6 2.7 6 6v48c0 3.3-2.7 6-6 6H386c-3.3 0-6-2.7-6-6z" fill="none"/><use xlink:href="#f" transform="matrix(1,0,0,1,380,360) translate(79.87654320987653 34.44444444444444)"/><path d="M1576.16 301H301v-2h1275.16z" fill="#5e5e5e"/><path d="M301.03 301H300v-2h1.03zM1591.43 300l-14.27 4.64v-9.28z" fill="#5e5e5e"/><path d="M1594.67 300l-18.5 6v-12zm-16.5 3.26l10.02-3.26-10.04-3.26z" fill="#5e5e5e"/><path d="M500 301v40.5" stroke="#5e5e5e" stroke-width="2" fill="none"/><path d="M501 301.03h-2V300h2z" fill="#5e5e5e"/><path d="M500 356.76l-4.64-14.26h9.28z" stroke="#5e5e5e" stroke-width="2" fill="#5e5e5e"/><path d="M700 301v40.5" stroke="#5e5e5e" stroke-width="2" fill="none"/><path d="M701 301.03h-2V300h2z" fill="#5e5e5e"/><path d="M700 356.76l-4.64-14.26h9.28z" stroke="#5e5e5e" stroke-width="2" fill="#5e5e5e"/><path d="M900 301v40.5" stroke="#5e5e5e" stroke-width="2" fill="none"/><path d="M901 301.03h-2V300h2z" fill="#5e5e5e"/><path d="M900 356.76l-4.64-14.26h9.28z" stroke="#5e5e5e" stroke-width="2" fill="#5e5e5e"/><path d="M1100 301v40.5" stroke="#5e5e5e" stroke-width="2" fill="none"/><path d="M1101 301.03h-2V300h2z" fill="#5e5e5e"/><path d="M1100 356.76l-4.64-14.26h9.28z" stroke="#5e5e5e" stroke-width="2" fill="#5e5e5e"/><path d="M300 301v40.5M300 301.03V300" stroke="#5e5e5e" stroke-width="2" fill="none"/><path d="M300 356.76l-4.64-14.26h9.28z" stroke="#5e5e5e" stroke-width="2" fill="#5e5e5e"/><path d="M301 299h-2v-11h2zm0-32.33h-2V138.5h2z" fill="#5e5e5e"/><path fill="#5e5e5e"/><path d="M304.64 137.5h-9.28l4.64-14.26z" fill="#5e5e5e"/><path d="M306 138.5h-12l6-18.5zm-9.26-2h6.52L300 126.47z" fill="#5e5e5e"/><use xlink:href="#g" transform="matrix(1,0,0,1,295.0617283950617,266.6676666666666) translate(0.004999999999999893 14.222222222222223)"/><path d="M180 366c0-3.3 2.7-6 6-6h228c3.3 0 6 2.7 6 6v48c0 3.3-2.7 6-6 6H186c-3.3 0-6-2.7-6-6zM580 366c0-3.3 2.7-6 6-6h228c3.3 0 6 2.7 6 6v48c0 3.3-2.7 6-6 6H586c-3.3 0-6-2.7-6-6z" stroke="#000" stroke-opacity="0" stroke-width="3" fill="#fff" fill-opacity="0"/><use xlink:href="#f" transform="matrix(1,0,0,1,585,365) translate(74.87654320987653 30.27777777777778)"/><path d="M780 366c0-3.3 2.7-6 6-6h228c3.3 0 6 2.7 6 6v48c0 3.3-2.7 6-6 6H786c-3.3 0-6-2.7-6-6z" stroke="#000" stroke-opacity="0" stroke-width="3" fill="#fff" fill-opacity="0"/><use xlink:href="#h" transform="matrix(1,0,0,1,785,365) translate(59.444444444444436 30.27777777777778)"/><path d="M980 366c0-3.3 2.7-6 6-6h228c3.3 0 6 2.7 6 6v48c0 3.3-2.7 6-6 6H986c-3.3 0-6-2.7-6-6z" stroke="#000" stroke-opacity="0" stroke-width="3" fill="#fff" fill-opacity="0"/><use xlink:href="#h" transform="matrix(1,0,0,1,985,365) translate(59.444444444444436 30.27777777777778)"/><path d="M380 246c0-3.3 2.7-6 6-6h228c3.3 0 6 2.7 6 6v48c0 3.3-2.7 6-6 6H386c-3.3 0-6-2.7-6-6z" stroke="#000" stroke-opacity="0" stroke-width="3" fill="#fff" fill-opacity="0"/><use xlink:href="#i" transform="matrix(1,0,0,1,385,245) translate(110.06172839506173 29.84722222222222)"/><path d="M580 246c0-3.3 2.7-6 6-6h228c3.3 0 6 2.7 6 6v48c0 3.3-2.7 6-6 6H586c-3.3 0-6-2.7-6-6z" stroke="#000" stroke-opacity="0" stroke-width="3" fill="#fff" fill-opacity="0"/><use xlink:href="#j" transform="matrix(1,0,0,1,585,245) translate(110.06172839506173 29.84722222222222)"/><path d="M780 246c0-3.3 2.7-6 6-6h228c3.3 0 6 2.7 6 6v48c0 3.3-2.7 6-6 6H786c-3.3 0-6-2.7-6-6z" stroke="#000" stroke-opacity="0" stroke-width="3" fill="#fff" fill-opacity="0"/><use xlink:href="#k" transform="matrix(1,0,0,1,785,245) translate(110.06172839506173 29.84722222222222)"/><path d="M980 246c0-3.3 2.7-6 6-6h228c3.3 0 6 2.7 6 6v48c0 3.3-2.7 6-6 6H986c-3.3 0-6-2.7-6-6z" stroke="#000" stroke-opacity="0" stroke-width="3" fill="#fff" fill-opacity="0"/><use xlink:href="#l" transform="matrix(1,0,0,1,985,245) translate(110.06172839506173 29.84722222222222)"/><path d="M180 66c0-3.3 2.7-6 6-6h228c3.3 0 6 2.7 6 6v48c0 3.3-2.7 6-6 6H186c-3.3 0-6-2.7-6-6z" stroke="#000" stroke-opacity="0" stroke-width="3" fill="#fff" fill-opacity="0"/><use xlink:href="#m" transform="matrix(1,0,0,1,185,65) translate(47.407407407407405 30.27777777777778)"/><path d="M300 361v9.6m0 9.58v19.2m0 9.58v19.2m0 9.58v19.18m0 9.6v19.18m0 9.6v19.18m0 9.6v19.18m0 9.6v19.18m0 9.6v19.17m0 9.6v9.6M285 619h30" stroke="#5e5e5e" stroke-width="2" fill="none"/><path d="M180 626c0-3.3 2.7-6 6-6h228c3.3 0 6 2.7 6 6v48c0 3.3-2.7 6-6 6H186c-3.3 0-6-2.7-6-6z" stroke="#000" stroke-opacity="0" stroke-width="3" fill="#fff" fill-opacity="0"/><use xlink:href="#n" transform="matrix(1,0,0,1,185,625) translate(109.04320987654322 30.27777777777778)"/><path d="M300.66 438.5l.3 4.87.54 5.06m1.2 9.88l1.06 7.2 2.04 10.68.4 1.74m2.32 9.7l2.63 9.4 3.14 9.65m3.44 9.35l.47 1.27 4.22 10 3.28 6.97m4.5 8.9l2.1 4 5.7 9.9 2.14 3.35m5.4 8.36l5.68 8.15 6.04 7.96m6.27 7.73l3.6 4.35 9.13 10.14.45.45m6.98 7.12l2.6 2.65 11.02 10.34.83.7m7.54 6.5l3.74 3.23 11.76 9.3m8 5.93l8.28 6 8.08 5.37m8.3 5.5l17.05 10.32m8.7 4.83l11.8 6.48 5.8 2.87m8.93 4.43l7.17 3.56 10.9 4.84m9.1 4.05l4.2 1.9 14.24 5.6m9.27 3.68l3.24 1.28 15.54 5.4m9.4 3.27l4.5 1.57 14.52 4.38m9.54 2.87l8.27 2.5 10.93 2.8m9.65 2.47l14.7 3.77 4.65.98m9.74 2.07l19.5 4.13m9.78 1.84l19.65 3.32m9.82 1.66l6.05 1.03 13.67 1.72m9.88 1.25l19.77 2.5m9.93.83l19.85 1.66m9.93.82l5.78.5 14.1.58m9.96.4l19.9.84m9.97.1h19.9m9.97 0h9.84l10.1-.4m9.94-.43l19.9-.82m9.95-.56l19.85-1.66m9.92-.83l12.3-1.04 7.52-.96m9.88-1.24l19.76-2.5m9.86-1.4l19.65-3.32m9.82-1.66l7.93-1.34 11.62-2.46m9.75-2.07l16.84-3.58 2.63-.67m9.65-2.48l19.3-4.95m9.58-2.72l19.08-5.76m9.5-2.97l18.82-6.55m9.4-3.32l18.52-7.33m9.23-3.74l18.2-8.1m9.02-4.27l16.92-8.4.9-.5m8.73-4.8l10.17-5.58 7.12-4.3m8.52-5.17l2.27-1.37 14.4-9.55m8.1-5.77l8.4-6.1 7.48-5.93m7.74-6.27l10.23-8.82 4.68-4.4m7.22-6.85l9.13-9.3 4.6-5.12m6.57-7.5l6.28-7.58 6.1-8.02m5.76-8.12l2.64-3.8 6.3-9.9 1.77-3.1m4.9-8.66l4.22-8.07 4.6-9.8m3.88-9.17l.4-1 3.76-10.08 2.5-7.7m2.8-9.55l.9-3.28 2.47-10.5 1.08-5.64m1.66-9.8l.92-6.16 1.18-11.2.15-2.44m.6-9.94l.2-9.96" stroke="#0c7cba" stroke-width="2" fill="none"/><path d="M300.12 423.25l5.14 14.1-9.26.32z" stroke="#0c7cba" stroke-width="2" fill="#0c7cba"/><path d="M1499.65 421.05l-2-.05.02-1h2z" fill="#0c7cba"/><path d="M301.62 438.48l.48 4.53.77 5.28m1.8 9.72l1.5 6.4 1.92 6.87 1.86 5.76m3.47 9.26l2.16 5.13 3.1 6.63 3.2 6.08m4.97 8.53l3.3 5.18 4.6 6.62 3.36 4.44m6.2 7.7l1.03 1.22 6.08 6.75 6.36 6.5m7.2 6.78l.44.4 8.06 6.97 6.67 5.28m7.93 5.9l4.06 2.96 10.8 7.16 1.53.93m8.44 5.12l1.95 1.17 13.17 7.24 2.2 1.1m8.86 4.4l3.52 1.74 14.47 6.43m9.16 3.7l10.28 4.07 8.23 2.87m9.32 3.23l2.04.7 16.86 5.1m9.52 2.65l18.62 4.77.54.12m9.66 2.05l15.24 3.23 4.13.7m9.75 1.65l13.4 2.26 6.13.77m9.82 1.24l13 1.64 6.64.57m9.85.82l13.72 1.14 6 .25m9.88.4l15.15.64h4.6m9.9 0h16.8l2.95-.13m9.88-.4l18.2-.76 1.55-.13m9.85-.82l18.8-1.58.9-.1m9.8-1.25l18.23-2.3 1.38-.23m9.75-1.65l16.17-2.73 3.3-.7m9.66-2.05l12.47-2.66 6.8-1.75m9.58-2.46l7.1-1.82 11.9-3.6m9.48-2.85l.14-.04 18.53-6.45m9.2-3.6l9.66-3.8 8.6-3.83m9-4.08l13.1-6.5 4.5-2.48m8.66-4.77h.02l11.92-7.22 4.84-3.2m8.17-5.57l7.58-5.5 8.16-6.46m7.5-6.43l1.27-1.1 7.34-6.87 5.63-5.75m6.66-7.3l.46-.5 5.53-6.7 5.05-6.66 1.16-1.67m5.5-8.22l2.13-3.34 3.8-6.6 3.46-6.6.32-.67m4.08-9l1.52-3.6 2.5-6.73 2.2-6.8.42-1.48m2.48-9.56l.66-2.8 1.37-7.13 1.07-7.28.24-2.28m.83-9.84l.2-3 .15-6.88" stroke="#0c7cba" stroke-width="2" fill="none"/><path d="M300.83 423.24l5.37 14-9.26.5z" stroke="#0c7cba" stroke-width="2" fill="#0c7cba"/><path d="M1099.65 421.05l-2-.05.02-1h2z" fill="#0c7cba"/><path d="M301.2 438.38l.07.34.82 3.5.95 3.44.86 2.66m3.9 9.54l.56 1.2 1.73 3.3 1.9 3.3 2.1 3.3 2.3 3.32 2.3 3.03m6.76 7.78l2.62 2.67 3.67 3.44 4.03 3.47 4.44 3.52.7.5m8.45 5.87l1.15.76 5.97 3.6 6.6 3.64 4.23 2.1m9.36 4.32l1.75.77 8.9 3.53 8.6 3m9.86 3.02l2.13.64 11.75 3 6.13 1.3m10.12 2l10.15 1.72 10.25 1.3m10.25 1.03l9.1.77 11.47.48m10.3.17h9.4l11.2-.47m10.3-.68l9.15-.77 11.33-1.43m10.18-1.6l6.62-1.1 12.73-2.7.87-.23m9.98-2.56l.9-.23 10.76-3.25 7.98-2.78m9.62-3.7l1.1-.45 8.07-3.6 7.3-3.6 2.14-1.2m8.93-5.14l1.5-.9 5.4-3.6 4.9-3.55 4.43-3.52.5-.44m7.63-6.92l2.9-2.97 3.05-3.38 2.78-3.35 2.53-3.33 1.94-2.78m5.27-8.86l.84-1.6 1.56-3.3 1.4-3.33 1.25-3.36 1.1-3.4.97-3.43.18-.8m1.88-10.12l.36-3.5.24-3.83.07-2.95" stroke="#0c7cba" stroke-width="2" fill="none"/><path d="M299.66 423.22l6.05 13.73-9.2.94z" stroke="#0c7cba" stroke-width="2" fill="#0c7cba"/><path d="M699.65 421.05l-2-.05.02-1h2z" fill="#0c7cba"/><path d="M482.83 480h110.13v27.04H482.83z" fill="#fff" fill-opacity="0"/><path d="M495.15 499.07h-5.28l.02-.38c1.26-.12 1.57-.62 1.57-2.3v-5.05c0-1.8-.6-2.57-1.86-2.57-.82 0-1.43.3-2.6 1.45v7c0 1 .35 1.35 1.65 1.46v.37h-5.36v-.38c1.3-.12 1.56-.52 1.56-2.02v-6.17c0-1.24-.17-1.64-.88-1.64-.28 0-.56.02-.74.1v-.43c1.4-.4 2.23-.7 3.48-1.15l.2.08v1.98h.03c1.32-1.5 2.5-2.06 3.65-2.06 1.93 0 3 1.4 3 3.92v5.6c0 1.38.3 1.66 1.55 1.8v.37M502.6 502.9h-4.95v-.28c1.32-.07 1.7-.45 1.7-1.44v-8.06c0-.6-.16-.88-.54-.88-.17 0-.47.1-.8.22l-.48.18v-.25l3.2-1.65.17.06v10.73c0 .77.35 1.1 1.7 1.1v.26M530.3 490.94h-14.96v-1.68h14.95v1.68m0 5.08h-14.96v-1.68h14.95v1.68M550.6 495.6l-1.36 3.47h-9.93v-.3l4.53-4.8c2.4-2.52 3.3-4.45 3.3-6.6 0-2.32-1.37-3.6-3.53-3.6-1.83 0-2.72.82-3.73 3.3l-.53-.12c.53-2.97 2.15-5.05 5.28-5.05 2.87 0 4.7 1.95 4.7 4.47 0 2-1 3.9-3.26 6.3l-4.2 4.47h5.96c1.06 0 1.6-.28 2.43-1.7M561.66 487.44v1.95c1.1-1.4 2.23-2.02 3.65-2.02 2.48 0 4.25 2.26 4.25 5.4 0 3.7-2.3 6.54-5.33 6.54-1.07 0-1.65-.25-2.56-1.1v4c0 1.6.33 1.87 2.23 1.9v.46h-6.15v-.44c1.5-.15 1.77-.43 1.77-1.75v-11.9c0-1.2-.17-1.44-1.04-1.44-.23 0-.4 0-.63.03v-.42c1.4-.43 2.3-.76 3.65-1.3m.16 3.2v6.25c0 .76 1.44 1.68 2.64 1.68 1.83 0 3.07-1.9 3.07-4.7 0-2.96-1.24-4.9-3.12-4.9-1.17 0-2.6.92-2.6 1.68M574.3 491.42l2.64 1.6c1.63 1 2.24 1.68 2.24 3.13 0 1.7-1.63 3.17-3.56 3.17-.53 0-1.27-.03-1.85-.23-.6-.2-.9-.24-1.17-.24-.3 0-.46.05-.6.3h-.34v-3.98h.4c.54 2.46 1.48 3.58 3.23 3.58 1.3 0 2.1-.84 2.1-1.88 0-.8-.5-1.45-1.34-1.9l-1.38-.76c-2.1-1.17-3.04-2.4-3.04-3.7 0-2 1.42-3.1 3.5-3.1.6 0 1.17.02 1.7.27.28.12.54.2.7.2.12 0 .22-.03.42-.26h.28l.13 3.45H578c-.6-2.3-1.36-3.13-2.88-3.13-1.1 0-1.9.53-1.9 1.73 0 .55.37 1.3 1.08 1.72M592.33 487.64v.38c-.76.08-.96.28-1.65 1.98l-3.25 8.15c-.38.94-.56 1.27-.7 1.27-.16 0-.3-.2-.47-.66-.07-.13-.1-.3-.2-.53l-3.05-7.3c-1.08-2.6-1.33-2.86-2.3-2.9v-.4h4.98v.4c-.86.07-1.17.24-1.17.68 0 .26.1.6.24.97l2.6 6.5 2.5-6.58c.1-.26.16-.5.16-.77 0-.48-.38-.73-1.2-.8v-.4h3.53"/><path d="M792.17 580H902.3v27.04H792.16z" fill="#fff" fill-opacity="0"/><path d="M804.48 599.07h-5.28l.03-.38c1.27-.12 1.57-.62 1.57-2.3v-5.05c0-1.8-.6-2.57-1.85-2.57-.84 0-1.45.3-2.62 1.45v7c0 1 .36 1.35 1.65 1.46v.37h-5.36v-.38c1.3-.12 1.58-.52 1.58-2.02v-6.17c0-1.24-.18-1.64-.9-1.64-.27 0-.55.02-.73.1v-.43c1.4-.4 2.24-.7 3.48-1.15l.2.08v1.98h.03c1.32-1.5 2.5-2.06 3.66-2.06 1.93 0 3 1.4 3 3.92v5.6c0 1.38.3 1.66 1.54 1.8v.37M813.37 600.43l-.97 2.46h-7.02v-.23l3.2-3.4c1.68-1.77 2.33-3.13 2.33-4.66 0-1.62-.96-2.52-2.5-2.52-1.28 0-1.9.58-2.62 2.34l-.38-.1c.38-2.1 1.52-3.57 3.73-3.57 2.03 0 3.32 1.4 3.32 3.16 0 1.43-.7 2.78-2.3 4.47l-2.96 3.16h4.2c.75 0 1.13-.2 1.72-1.2M839.63 590.94h-14.96v-1.68h14.96v1.68m0 5.08h-14.96v-1.68h14.96v1.68M859.92 594.83h-2.62v4.24h-1.98v-4.24h-7.1v-1.63l7.97-11.3h1.1v11.3h2.62v1.63m-4.6-1.63v-8.7l-6.1 8.7h6.1M871 587.44v1.95c1.1-1.4 2.22-2.02 3.65-2.02 2.46 0 4.24 2.26 4.24 5.4 0 3.7-2.32 6.54-5.35 6.54-1.06 0-1.65-.25-2.56-1.1v4c0 1.6.32 1.87 2.22 1.9v.46h-6.14v-.44c1.5-.15 1.78-.43 1.78-1.75v-11.9c0-1.2-.18-1.44-1.04-1.44-.23 0-.4 0-.64.03v-.42c1.4-.43 2.3-.76 3.66-1.3m.15 3.2v6.25c0 .76 1.44 1.68 2.63 1.68 1.83 0 3.07-1.9 3.07-4.7 0-2.96-1.24-4.9-3.12-4.9-1.17 0-2.6.92-2.6 1.68M883.64 591.42l2.64 1.6c1.62 1 2.23 1.68 2.23 3.13 0 1.7-1.6 3.17-3.54 3.17-.54 0-1.27-.03-1.86-.23-.6-.2-.9-.24-1.17-.24-.3 0-.45.05-.6.3H881v-3.98h.4c.53 2.46 1.47 3.58 3.23 3.58 1.3 0 2.1-.84 2.1-1.88 0-.8-.5-1.45-1.34-1.9l-1.38-.76c-2.1-1.17-3.05-2.4-3.05-3.7 0-2 1.42-3.1 3.5-3.1.6 0 1.17.02 1.7.27.3.12.54.2.72.2.1 0 .2-.03.4-.26h.27l.13 3.45h-.38c-.6-2.3-1.35-3.13-2.87-3.13-1.1 0-1.9.53-1.9 1.73 0 .55.38 1.3 1.1 1.72M901.67 587.64v.38c-.77.08-.97.28-1.65 1.98l-3.25 8.15c-.4.94-.56 1.27-.72 1.27-.15 0-.28-.2-.45-.66-.08-.13-.1-.3-.2-.53l-3.05-7.3c-1.1-2.6-1.35-2.86-2.3-2.9v-.4H895v.4c-.85.07-1.16.24-1.16.68 0 .26.08.6.23.97l2.6 6.5 2.5-6.58c.1-.26.16-.5.16-.77 0-.48-.38-.73-1.2-.8v-.4h3.54"/><path d="M1122.83 675.44h110.13v27.04h-110.13z" fill="#fff" fill-opacity="0"/><path d="M1135.15 694.5h-5.28l.02-.37c1.26-.1 1.57-.6 1.57-2.3v-5.04c0-1.82-.6-2.58-1.86-2.58-.82 0-1.43.3-2.6 1.45v7c0 1 .35 1.35 1.65 1.46v.38h-5.36v-.37c1.3-.1 1.56-.5 1.56-2v-6.18c0-1.25-.17-1.65-.88-1.65-.28 0-.56.02-.74.1v-.43c1.4-.4 2.23-.7 3.48-1.14l.2.07v1.98h.03c1.32-1.5 2.5-2.05 3.65-2.05 1.93 0 3 1.4 3 3.9v5.62c0 1.37.3 1.65 1.55 1.78v.38M1136.62 689.17l-.3-.07c.54-1.7 1.67-2.9 3.53-2.9 1.67 0 2.8.98 2.8 2.45 0 .87-.46 1.76-1.67 2.48.8.34 1.12.56 1.5.95.5.56.78 1.4.78 2.32 0 .95-.3 1.83-.82 2.5-.86 1.16-2.57 1.68-4.17 1.68-1.3 0-2-.38-2-1.02 0-.38.32-.65.73-.65.3 0 .6.12 1.1.48.66.47 1.04.56 1.54.56 1.33 0 2.33-1.23 2.33-2.75 0-1.38-.63-2.26-1.87-2.6-.4-.14-.8-.2-1.83-.2v-.25c.7-.23 1.15-.43 1.5-.64.9-.5 1.47-1.3 1.47-2.4 0-1.22-.76-1.83-1.94-1.83-1.12 0-1.94.58-2.68 1.9M1170.3 686.38h-14.96v-1.68h14.95v1.68m0 5.08h-14.96v-1.68h14.95v1.68M1189.9 677.14l.05.4c-4 .66-6.83 3.4-7.52 7.24 1.25-.96 2.1-1.14 3.23-1.14 2.97 0 4.8 2.03 4.8 5.3 0 1.63-.46 3.05-1.3 4.07-.94 1.18-2.36 1.86-4.03 1.86-2 0-3.6-.94-4.5-2.56-.7-1.3-1.2-3.1-1.2-4.88 0-2.74.97-5.15 2.77-7 2.2-2.3 4.2-2.9 7.7-3.28m-1.73 12.6c0-3.26-1.06-4.93-3.43-4.93-1.44 0-2.94.62-2.94 2.95 0 3.86 1.22 6.4 3.6 6.4 1.83 0 2.77-1.83 2.77-4.42M1201.66 682.88v1.95c1.1-1.4 2.23-2 3.65-2 2.48 0 4.25 2.26 4.25 5.4 0 3.7-2.3 6.53-5.33 6.53-1.07 0-1.65-.25-2.56-1.1v4c0 1.6.33 1.87 2.23 1.9v.46h-6.15v-.43c1.5-.17 1.77-.45 1.77-1.77v-11.88c0-1.2-.17-1.45-1.04-1.45-.23 0-.4 0-.63.03v-.4c1.4-.44 2.3-.77 3.65-1.3m.16 3.2v6.24c0 .76 1.44 1.68 2.64 1.68 1.83 0 3.07-1.9 3.07-4.7 0-2.97-1.24-4.9-3.12-4.9-1.17 0-2.6.9-2.6 1.67M1214.3 686.86l2.64 1.6c1.63 1 2.24 1.68 2.24 3.13 0 1.7-1.63 3.16-3.56 3.16-.53 0-1.27-.03-1.85-.23-.6-.2-.9-.23-1.17-.23-.3 0-.46.05-.6.3h-.34v-3.98h.4c.54 2.46 1.48 3.58 3.23 3.58 1.3 0 2.1-.84 2.1-1.88 0-.78-.5-1.44-1.34-1.9l-1.38-.76c-2.1-1.17-3.04-2.4-3.04-3.7 0-2 1.42-3.1 3.5-3.1.6 0 1.17.02 1.7.27.28.13.54.2.7.2.12 0 .22-.02.42-.25h.28l.13 3.45h-.38c-.6-2.28-1.36-3.12-2.88-3.12-1.1 0-1.9.54-1.9 1.74 0 .55.37 1.3 1.08 1.72M1232.33 683.08v.38c-.76.08-.96.28-1.65 1.98l-3.25 8.15c-.38.93-.56 1.26-.7 1.26-.16 0-.3-.2-.47-.66-.07-.13-.1-.3-.2-.53l-3.05-7.3c-1.08-2.6-1.33-2.86-2.3-2.9v-.4h4.98v.4c-.86.07-1.17.24-1.17.68 0 .25.1.58.24.96l2.6 6.5 2.5-6.57c.1-.25.16-.5.16-.76 0-.48-.38-.73-1.2-.8v-.4h3.53"/><path d="M1300 301v40.5" stroke="#5e5e5e" stroke-width="2" fill="none"/><path d="M1301 301.03h-2V300h2z" fill="#5e5e5e"/><path d="M1300 356.76l-4.64-14.26h9.28z" stroke="#5e5e5e" stroke-width="2" fill="#5e5e5e"/><path d="M1500 301v40.5" stroke="#5e5e5e" stroke-width="2" fill="none"/><path d="M1501 301.03h-2V300h2z" fill="#5e5e5e"/><path d="M1500 356.76l-4.64-14.26h9.28z" stroke="#5e5e5e" stroke-width="2" fill="#5e5e5e"/><path d="M1180 246c0-3.3 2.7-6 6-6h228c3.3 0 6 2.7 6 6v48c0 3.3-2.7 6-6 6h-228c-3.3 0-6-2.7-6-6z" stroke="#000" stroke-opacity="0" stroke-width="3" fill="#fff" fill-opacity="0"/><use xlink:href="#o" transform="matrix(1,0,0,1,1185,245) translate(110.06172839506173 29.84722222222222)"/><path d="M1380 246c0-3.3 2.7-6 6-6h228c3.3 0 6 2.7 6 6v48c0 3.3-2.7 6-6 6h-228c-3.3 0-6-2.7-6-6z" stroke="#000" stroke-opacity="0" stroke-width="3" fill="#fff" fill-opacity="0"/><use xlink:href="#p" transform="matrix(1,0,0,1,1385,245) translate(110.06172839506173 29.84722222222222)"/><path d="M1380 366c0-3.3 2.7-6 6-6h228c3.3 0 6 2.7 6 6v48c0 3.3-2.7 6-6 6h-228c-3.3 0-6-2.7-6-6z" stroke="#000" stroke-opacity="0" stroke-width="3" fill="#fff" fill-opacity="0"/><use xlink:href="#q" transform="matrix(1,0,0,1,1385,365) translate(54.10493827160493 30.27777777777778)"/><path d="M1180 366c0-3.3 2.7-6 6-6h228c3.3 0 6 2.7 6 6v48c0 3.3-2.7 6-6 6h-228c-3.3 0-6-2.7-6-6z" stroke="#000" stroke-opacity="0" stroke-width="3" fill="#fff" fill-opacity="0"/><use xlink:href="#r" transform="matrix(1,0,0,1,1185,365) translate(60.27777777777777 30.27777777777778)"/><path d="M622.83 162h296.5v27.04h-296.5z" fill="#fff" fill-opacity="0"/><path d="M635.15 181.07h-5.28l.02-.38c1.26-.12 1.57-.62 1.57-2.3v-5.05c0-1.8-.6-2.57-1.86-2.57-.82 0-1.43.3-2.6 1.45v7c0 1 .35 1.35 1.65 1.46v.37h-5.36v-.38c1.3-.12 1.56-.52 1.56-2.02v-6.17c0-1.24-.17-1.64-.88-1.64-.28 0-.56.02-.74.1v-.43c1.4-.4 2.23-.7 3.48-1.15l.2.08v1.98h.03c1.32-1.5 2.5-2.06 3.65-2.06 1.93 0 3 1.4 3 3.92v5.6c0 1.38.3 1.66 1.55 1.8v.37M642.6 184.9h-4.95v-.28c1.32-.07 1.7-.45 1.7-1.44v-8.06c0-.6-.16-.88-.54-.88-.17 0-.47.1-.8.22l-.48.18v-.25l3.2-1.65.17.06v10.73c0 .77.35 1.1 1.7 1.1v.26M670.3 172.94h-14.96v-1.68h14.95v1.68m0 5.08h-14.96v-1.68h14.95v1.68M680.12 168.1l-.4-.1c.73-2.4 2.33-4.1 4.97-4.1 2.36 0 3.95 1.4 3.95 3.48 0 1.22-.66 2.5-2.36 3.5 1.1.5 1.57.8 2.1 1.35.7.8 1.12 1.95 1.12 3.27 0 1.35-.43 2.6-1.17 3.56-1.22 1.63-3.63 2.36-5.9 2.36-1.85 0-2.84-.53-2.84-1.45 0-.53.47-.9 1.06-.9.43 0 .83.14 1.54.65.94.66 1.48.8 2.2.8 1.87 0 3.3-1.74 3.3-3.9 0-1.93-.9-3.17-2.65-3.68-.56-.18-1.14-.25-2.6-.25v-.37c.97-.33 1.63-.6 2.14-.9 1.24-.72 2.05-1.87 2.05-3.42 0-1.7-1.07-2.58-2.74-2.58-1.57 0-2.74.82-3.78 2.7M701.66 169.44v1.95c1.1-1.4 2.23-2.02 3.65-2.02 2.48 0 4.25 2.26 4.25 5.4 0 3.7-2.3 6.54-5.33 6.54-1.07 0-1.65-.25-2.56-1.1v4c0 1.6.33 1.87 2.23 1.9v.46h-6.15v-.44c1.5-.15 1.77-.43 1.77-1.75v-11.9c0-1.2-.17-1.44-1.04-1.44-.23 0-.4 0-.63.03v-.42c1.4-.43 2.3-.76 3.65-1.3m.16 3.2v6.25c0 .76 1.44 1.68 2.64 1.68 1.83 0 3.07-1.9 3.07-4.7 0-2.96-1.24-4.9-3.12-4.9-1.17 0-2.6.92-2.6 1.68M721.57 179.4v.7c-.77.97-1.43 1.22-2.3 1.22-.93 0-1.5-.5-1.6-1.85h-.04c-1.35 1.52-2.6 1.85-3.68 1.85-1.58 0-2.67-.97-2.67-2.64 0-1.32.8-2.3 1.78-2.97.76-.5 1.7-.98 4.57-2.05v-1.37c0-1.57-.84-2.3-1.98-2.3-1.02 0-1.78.57-1.78 1.26 0 .46.15.53.15 1.06 0 .5-.5 1.05-1.16 1.05-.54 0-1.1-.5-1.1-1.17 0-.66.4-1.47 1.3-2.03.7-.46 1.78-.77 2.92-.77 1.42 0 2.4.4 3 1.15.6.73.7 1.27.7 2.82v4.85c0 1.16.34 1.67.8 1.67.4 0 .65-.12 1.1-.48m-3.95-1.56v-3.58c-1.57.56-2.62 1.1-3.25 1.68-.6.55-.86 1.16-.86 1.95 0 1.34.76 1.95 1.75 1.95.5 0 1.04-.13 1.47-.4.74-.52.9-.87.9-1.6M733.73 169.64v.38c-.76.08-.97.28-1.65 1.98l-3.25 8.15c-.38.94-.56 1.27-.7 1.27-.16 0-.3-.2-.47-.66-.08-.13-.1-.3-.2-.53l-3.05-7.3c-1.08-2.6-1.34-2.86-2.3-2.9v-.4h4.98v.4c-.87.07-1.17.24-1.17.68 0 .26.08.6.24.97l2.6 6.5 2.5-6.58c.1-.26.15-.5.15-.77 0-.48-.4-.73-1.2-.8v-.4h3.53M758.7 172.08v.45c-1.48.13-1.8.38-1.8 2.04v5.07c-1.38 1.15-3.82 1.78-6.44 1.78-2.6 0-5.18-.96-6.85-2.72-1.4-1.5-2.1-3.45-2.1-5.94 0-2.8 1.02-5.13 2.72-6.68 1.52-1.4 3.6-2.18 6.07-2.18 1.36 0 2.22.2 3.36.58.5.18.87.26 1.12.26.53 0 1-.36 1.14-.84h.56l.2 5.36h-.58c-.63-1.55-1.04-2.2-1.8-2.95-.97-.9-2.3-1.38-3.7-1.38-1.76 0-3.16.63-4.25 1.75-1.35 1.34-1.95 3.65-1.95 6.17 0 4.72 2.7 7.57 6.67 7.57 1.96 0 3.38-.7 3.38-1.54v-4c0-1.97-.25-2.17-2.26-2.33v-.45h6.5M763.1 169.44v2.33c1.25-1.83 1.97-2.4 3.03-2.4.87 0 1.4.52 1.4 1.36 0 .7-.38 1.14-1 1.14-.32 0-.6-.12-1-.5-.3-.26-.5-.4-.67-.4-.7 0-1.77 1.28-1.77 2.1v5.7c0 1.46.42 1.84 2.14 1.92v.37h-6.1v-.38c1.63-.32 1.8-.5 1.8-1.77v-6.35c0-1.1-.22-1.52-.85-1.52-.32 0-.54.03-.9.1v-.4c1.5-.5 2.4-.84 3.76-1.38M778.73 179.4v.7c-.76.97-1.42 1.22-2.3 1.22-.93 0-1.5-.5-1.6-1.85h-.04c-1.35 1.52-2.6 1.85-3.7 1.85-1.56 0-2.66-.97-2.66-2.64 0-1.32.8-2.3 1.78-2.97.76-.5 1.7-.98 4.57-2.05v-1.37c0-1.57-.85-2.3-2-2.3-1 0-1.77.57-1.77 1.26 0 .46.16.53.16 1.06 0 .5-.52 1.05-1.18 1.05-.54 0-1.1-.5-1.1-1.17 0-.66.4-1.47 1.3-2.03.7-.46 1.78-.77 2.92-.77 1.42 0 2.4.4 3 1.15.6.73.7 1.27.7 2.82v4.85c0 1.16.34 1.67.8 1.67.4 0 .66-.12 1.1-.48m-3.95-1.56v-3.58c-1.58.56-2.62 1.1-3.26 1.68-.6.55-.86 1.16-.86 1.95 0 1.34.76 1.95 1.75 1.95.5 0 1.04-.13 1.47-.4.74-.52.9-.87.9-1.6M791.25 180l-3.74 1.32-.1-.08v-1.62c-.85 1.2-1.82 1.7-3.24 1.7-2.82 0-4.7-2.2-4.7-5.46 0-3.6 2.37-6.48 5.3-6.48 1 0 1.7.28 2.65 1.1v-3.96c0-1.05-.22-1.3-1.16-1.3-.2 0-.35 0-.55.03v-.4c1.6-.44 2.5-.7 3.72-1.13l.13.05v14.4c0 1.17.2 1.45 1.1 1.45l.6-.03v.4m-3.84-1.52v-5.84c0-1.35-1.2-2.54-2.58-2.54-1.93 0-3.17 1.87-3.17 4.74 0 3.13 1.37 5.16 3.5 5.16.8 0 1.42-.28 1.88-.8.23-.27.38-.55.38-.72M796.07 165.02c0 .73-.56 1.3-1.32 1.3-.7 0-1.27-.57-1.27-1.3 0-.7.6-1.3 1.3-1.3.73 0 1.3.6 1.3 1.3m1.85 16.05h-6.02v-.38c1.76-.12 2-.35 2-2.28v-5.76c0-1.2-.2-1.6-.82-1.6-.23 0-.6 0-1.07.13v-.42l3.95-1.4.1.1v8.92c0 1.88.2 2.16 1.88 2.3v.37M808.92 176.9l.4.18c-.98 2.77-2.76 4.24-5.3 4.24-3 0-4.82-2.26-4.82-5.76 0-3.6 2.05-6.18 5.25-6.18 1.58 0 2.72.6 3.53 1.76.5.7.76 1.52.87 2.9h-7.83c.13 1.92.26 2.9 1.17 4.13.7.94 1.64 1.4 2.8 1.4 1.7 0 2.68-.8 3.92-2.67m-7.85-3.68h5.2c-.3-2.06-.83-2.92-2.5-2.92-1.43 0-2.42 1-2.7 2.92M822.18 181.07h-5.28l.02-.38c1.27-.12 1.58-.62 1.58-2.3v-5.05c0-1.8-.6-2.57-1.86-2.57-.84 0-1.45.3-2.6 1.45v7c0 1 .34 1.35 1.64 1.46v.37h-5.36v-.38c1.3-.12 1.57-.52 1.57-2.02v-6.17c0-1.24-.2-1.64-.9-1.64-.28 0-.55.02-.73.1v-.43c1.4-.4 2.23-.7 3.48-1.15l.2.08v1.98h.03c1.32-1.5 2.48-2.06 3.65-2.06 1.93 0 3 1.4 3 3.92v5.6c0 1.38.3 1.66 1.55 1.8v.37M829.3 179.1l.34.3c-.83 1.3-1.8 1.92-3.07 1.92-1.47 0-2.23-1.1-2.23-3.23v-7.65H823c-.1-.05-.1-.1-.1-.18 0-.15.14-.3.42-.48.66-.4 1.5-1.33 2.46-2.73.16-.22.36-.45.5-.7.14 0 .2.07.2.32v2.94h2.55v.8h-2.56v7.27c0 1.64.38 2.3 1.32 2.3.55 0 .95-.23 1.5-.9M840 176.9l.4.18c-.98 2.77-2.76 4.24-5.3 4.24-3 0-4.82-2.26-4.82-5.76 0-3.6 2.05-6.18 5.25-6.18 1.58 0 2.72.6 3.53 1.76.5.7.77 1.52.87 2.9h-7.82c.13 1.92.26 2.9 1.17 4.13.72.94 1.66 1.4 2.82 1.4 1.7 0 2.66-.8 3.9-2.67m-7.84-3.68h5.18c-.28-2.06-.8-2.92-2.5-2.92-1.4 0-2.4 1-2.68 2.92M859.18 169.3h-.64c-.3-1.1-.58-1.77-1.04-2.38-.9-1.14-2.16-1.98-3.68-1.98-1.58 0-2.57 1.02-2.57 2.4 0 1.74 1.88 2.8 4.55 4.36 2.7 1.57 3.94 3.04 3.94 4.97 0 2.85-2.24 4.75-5.2 4.75-1.05 0-2.04-.18-2.98-.58-.48-.2-.92-.28-1.2-.28-.38 0-.7.3-.7.84h-.56l-.74-5.4h.56c1.17 3.1 2.82 4.5 5.23 4.5 1.78 0 3.02-1.16 3.02-2.84 0-.9-.25-1.47-.74-2-.88-.97-2.64-2.1-4.26-2.95-2.3-1.2-3.1-2.78-3.1-4.36 0-2.76 1.9-4.44 4.42-4.44 1.03 0 1.7.15 2.65.56.46.2.87.3 1.12.3.43 0 .7-.3.8-.86h.55M865.98 165.02c0 .73-.56 1.3-1.32 1.3-.7 0-1.27-.57-1.27-1.3 0-.7.58-1.3 1.3-1.3.72 0 1.28.6 1.28 1.3m1.86 16.05h-6.02v-.38c1.75-.12 2-.35 2-2.28v-5.76c0-1.2-.2-1.6-.83-1.6-.24 0-.62 0-1.08.13v-.42l3.94-1.4.1.1v8.92c0 1.88.2 2.16 1.88 2.3v.37M888.15 181.07h-5.53v-.38c1.42-.17 1.65-.45 1.65-1.92v-5.23c0-2-.5-2.84-1.96-2.84-1.18 0-1.94.46-2.7 1.55v6.4c0 1.65.37 2 1.82 2.04v.37h-5.7v-.38c1.46-.12 1.74-.27 1.74-1.82v-5.36c0-1.75-.56-2.8-1.65-2.8-.93 0-2.17.47-2.68 1.08-.18.2-.33.38-.33.43v7.06c0 1.08.37 1.33 1.7 1.4v.37h-5.62v-.38c1.42-.04 1.77-.4 1.77-1.87v-6.3c0-1.24-.22-1.67-.88-1.67-.28 0-.5.02-.82.1v-.43c1.4-.38 2.24-.66 3.53-1.15l.2.08v1.88h.06c1.67-1.73 2.74-1.96 3.88-1.96 1.37 0 2.24.7 2.7 2.14 1.37-1.48 2.66-2.14 4.13-2.14 2.06 0 2.95 1.58 2.95 4.58v5.15c0 1.15.33 1.48 1.1 1.53l.65.06v.37M892.3 169.44v1.95c1.1-1.4 2.23-2.02 3.65-2.02 2.46 0 4.24 2.26 4.24 5.4 0 3.7-2.32 6.54-5.34 6.54-1.07 0-1.66-.25-2.57-1.1v4c0 1.6.32 1.87 2.23 1.9v.46h-6.15v-.44c1.5-.15 1.78-.43 1.78-1.75v-11.9c0-1.2-.18-1.44-1.04-1.44-.23 0-.4 0-.64.03v-.42c1.4-.43 2.3-.76 3.66-1.3m.15 3.2v6.25c0 .76 1.44 1.68 2.63 1.68 1.83 0 3.07-1.9 3.07-4.7 0-2.96-1.24-4.9-3.12-4.9-1.17 0-2.6.92-2.6 1.68M907.48 181.07h-6v-.38c1.6-.14 1.96-.57 1.96-1.97v-11.9c0-1.23-.26-1.64-1.07-1.64-.2 0-.53 0-.94.05v-.4c1.75-.44 2.7-.7 4-1.13l.14.1v15.04c0 1.4.28 1.72 1.9 1.83v.37M918.4 176.9l.4.18c-1 2.77-2.77 4.24-5.3 4.24-3 0-4.83-2.26-4.83-5.76 0-3.6 2.06-6.18 5.26-6.18 1.57 0 2.7.6 3.53 1.76.5.7.76 1.52.86 2.9h-7.82c.13 1.92.25 2.9 1.17 4.13.7.94 1.65 1.4 2.82 1.4 1.7 0 2.65-.8 3.9-2.67m-7.85-3.68h5.18c-.28-2.06-.8-2.92-2.5-2.92-1.4 0-2.4 1-2.68 2.92"/><path d="M649.33 828c0-3.3 2.7-6 6-6h228c3.32 0 6 2.7 6 6v48c0 3.3-2.68 6-6 6h-228c-3.3 0-6-2.7-6-6z" fill="none"/><use xlink:href="#a" transform="matrix(1,0,0,1,649.3333333333333,822) translate(62.31481481481482 21.111111111111114)"/><use xlink:href="#b" transform="matrix(1,0,0,1,649.3333333333333,822) translate(130.7716049382716 21.111111111111114)"/><use xlink:href="#c" transform="matrix(1,0,0,1,649.3333333333333,822) translate(16.63580246913581 47.777777777777786)"/><use xlink:href="#d" transform="matrix(1,0,0,1,649.3333333333333,822) translate(132.00617283950618 47.777777777777786)"/><use xlink:href="#s" transform="matrix(1,0,0,1,649.3333333333333,822) translate(186.32716049382714 47.777777777777786)"/><path d="M1576.16 1021H301v-2h1275.16z" fill="#5e5e5e"/><path d="M301.03 1021H300v-2h1.03zM1591.43 1020l-14.27 4.64v-9.28z" fill="#5e5e5e"/><path d="M1594.67 1020l-18.5 6v-12zm-16.5 3.26l10.02-3.26-10.04-3.26z" fill="#5e5e5e"/><path d="M700 1021v40.5" stroke="#5e5e5e" stroke-width="2" fill="none"/><path d="M701 1021.03h-2V1020h2z" fill="#5e5e5e"/><path d="M700 1076.76l-4.64-14.26h9.28z" stroke="#5e5e5e" stroke-width="2" fill="#5e5e5e"/><path d="M1100 1021v40.5" stroke="#5e5e5e" stroke-width="2" fill="none"/><path d="M1101 1021.03h-2V1020h2z" fill="#5e5e5e"/><path d="M1100 1076.76l-4.64-14.26h9.28z" stroke="#5e5e5e" stroke-width="2" fill="#5e5e5e"/><path d="M300 1021v40.5M300 1021.03V1020" stroke="#5e5e5e" stroke-width="2" fill="none"/><path d="M300 1076.76l-4.64-14.26h9.28z" stroke="#5e5e5e" stroke-width="2" fill="#5e5e5e"/><path d="M301 1019h-2v-11h2zm0-32.33h-2V858.5h2z" fill="#5e5e5e"/><path fill="#5e5e5e"/><path d="M304.64 857.5h-9.28l4.64-14.26z" fill="#5e5e5e"/><path d="M306 858.5h-12l6-18.5zm-9.26-2h6.52L300 846.47z" fill="#5e5e5e"/><use xlink:href="#t" transform="matrix(1,0,0,1,295.0617283950617,986.6676666666667) translate(0.004999999999999893 14.222222222222223)"/><path d="M180 1086c0-3.3 2.7-6 6-6h228c3.3 0 6 2.7 6 6v48c0 3.3-2.7 6-6 6H186c-3.3 0-6-2.7-6-6zM580 1086c0-3.3 2.7-6 6-6h228c3.3 0 6 2.7 6 6v48c0 3.3-2.7 6-6 6H586c-3.3 0-6-2.7-6-6zM980 1086c0-3.3 2.7-6 6-6h228c3.3 0 6 2.7 6 6v48c0 3.3-2.7 6-6 6H986c-3.3 0-6-2.7-6-6zM580 966c0-3.3 2.7-6 6-6h228c3.3 0 6 2.7 6 6v48c0 3.3-2.7 6-6 6H586c-3.3 0-6-2.7-6-6z" stroke="#000" stroke-opacity="0" stroke-width="3" fill="#fff" fill-opacity="0"/><use xlink:href="#u" transform="matrix(1,0,0,1,585,965) translate(110.06172839506173 29.84722222222222)"/><path d="M980 966c0-3.3 2.7-6 6-6h228c3.3 0 6 2.7 6 6v48c0 3.3-2.7 6-6 6H986c-3.3 0-6-2.7-6-6z" stroke="#000" stroke-opacity="0" stroke-width="3" fill="#fff" fill-opacity="0"/><use xlink:href="#v" transform="matrix(1,0,0,1,985,965) translate(110.06172839506173 29.84722222222222)"/><path d="M180 786c0-3.3 2.7-6 6-6h228c3.3 0 6 2.7 6 6v48c0 3.3-2.7 6-6 6H186c-3.3 0-6-2.7-6-6z" stroke="#000" stroke-opacity="0" stroke-width="3" fill="#fff" fill-opacity="0"/><use xlink:href="#w" transform="matrix(1,0,0,1,185,785) translate(47.407407407407405 30.27777777777778)"/><path d="M300 1081v9.6m0 9.58v19.2m0 9.58v19.2m0 9.58v19.18m0 9.6v19.18m0 9.6v19.18m0 9.6v19.18m0 9.6v19.18m0 9.6v19.17m0 9.6v9.6M285 1339h30" stroke="#5e5e5e" stroke-width="2" fill="none"/><path d="M180 1346c0-3.3 2.7-6 6-6h228c3.3 0 6 2.7 6 6v48c0 3.3-2.7 6-6 6H186c-3.3 0-6-2.7-6-6z" stroke="#000" stroke-opacity="0" stroke-width="3" fill="#fff" fill-opacity="0"/><use xlink:href="#x" transform="matrix(1,0,0,1,185,1345) translate(109.04320987654322 30.27777777777778)"/><path d="M300.66 1158.5l.3 4.87.54 5.06m1.2 9.88l1.06 7.2 2.04 10.68.4 1.74m2.32 9.7l2.63 9.4 3.14 9.65m3.44 9.35l.47 1.27 4.22 10 3.28 6.97m4.5 8.9l2.1 4 5.7 9.9 2.14 3.35m5.4 8.36l5.68 8.15 6.04 7.96m6.27 7.73l3.6 4.35 9.13 10.14.45.45m6.98 7.12l2.6 2.65 11.02 10.34.83.7m7.54 6.5l3.74 3.23 11.76 9.3m8 5.93l8.28 6 8.08 5.37m8.3 5.5l17.05 10.32m8.7 4.83l11.8 6.48 5.8 2.87m8.93 4.43l7.17 3.56 10.9 4.84m9.1 4.05l4.2 1.9 14.24 5.6m9.27 3.68l3.24 1.28 15.54 5.4m9.4 3.27l4.5 1.57 14.52 4.38m9.54 2.87l8.27 2.5 10.93 2.8m9.65 2.47l14.7 3.77 4.65.98m9.74 2.07l19.5 4.13m9.78 1.84l19.65 3.32m9.82 1.66l6.05 1.03 13.67 1.72m9.88 1.25l19.77 2.5m9.93.83l19.85 1.66m9.93.82l5.78.5 14.1.58m9.96.4l19.9.84m9.97.1h19.9m9.97 0h9.84l10.1-.4m9.94-.43l19.9-.82m9.95-.56l19.85-1.66m9.92-.83l12.3-1.04 7.52-.96m9.88-1.24l19.76-2.5m9.86-1.4l19.65-3.32m9.82-1.66l7.93-1.34 11.62-2.46m9.75-2.07l16.84-3.58 2.63-.67m9.65-2.48l19.3-4.95m9.58-2.72l19.08-5.76m9.5-2.97l18.82-6.55m9.4-3.32l18.52-7.33m9.23-3.74l18.2-8.1m9.02-4.27l16.92-8.4.9-.5m8.73-4.8l10.17-5.58 7.12-4.3m8.52-5.17l2.27-1.37 14.4-9.55m8.1-5.77l8.4-6.1 7.48-5.93m7.74-6.27l10.23-8.82 4.68-4.4m7.22-6.85l9.13-9.3 4.6-5.12m6.57-7.5l6.28-7.58 6.1-8.02m5.76-8.12l2.64-3.8 6.3-9.9 1.77-3.1m4.9-8.66l4.22-8.07 4.6-9.8m3.88-9.17l.4-1 3.76-10.08 2.5-7.7m2.8-9.55l.9-3.28 2.47-10.5 1.08-5.64m1.66-9.8l.92-6.16 1.18-11.2.15-2.44m.6-9.94l.2-9.96" stroke="#0c7cba" stroke-width="2" fill="none"/><path d="M300.12 1143.25l5.14 14.1-9.26.32z" stroke="#0c7cba" stroke-width="2" fill="#0c7cba"/><path d="M1499.65 1141.05l-2-.05.02-1h2z" fill="#0c7cba"/><path d="M301.62 1158.48l.48 4.53.77 5.28m1.8 9.72l1.5 6.4 1.92 6.87 1.86 5.76m3.47 9.26l2.16 5.13 3.1 6.63 3.2 6.08m4.97 8.53l3.3 5.18 4.6 6.62 3.36 4.44m6.2 7.7l1.03 1.22 6.08 6.75 6.36 6.5m7.2 6.78l.44.4 8.06 6.97 6.67 5.28m7.93 5.9l4.06 2.96 10.8 7.16 1.53.93m8.44 5.12l1.95 1.17 13.17 7.24 2.2 1.1m8.86 4.4l3.52 1.74 14.47 6.43m9.16 3.7l10.28 4.07 8.23 2.87m9.32 3.23l2.04.7 16.86 5.1m9.52 2.65l18.62 4.77.54.12m9.66 2.05l15.24 3.23 4.13.7m9.75 1.65l13.4 2.26 6.13.77m9.82 1.24l13 1.64 6.64.57m9.85.82l13.72 1.14 6 .25m9.88.4l15.15.64h4.6m9.9 0h16.8l2.95-.13m9.88-.4l18.2-.76 1.55-.13m9.85-.82l18.8-1.58.9-.1m9.8-1.25l18.23-2.3 1.38-.23m9.75-1.65l16.17-2.73 3.3-.7m9.66-2.05l12.47-2.66 6.8-1.75m9.58-2.46l7.1-1.82 11.9-3.6m9.48-2.85l.14-.04 18.53-6.45m9.2-3.6l9.66-3.8 8.6-3.83m9-4.08l13.1-6.5 4.5-2.48m8.66-4.77h.02l11.92-7.22 4.84-3.2m8.17-5.57l7.58-5.5 8.16-6.46m7.5-6.43l1.27-1.1 7.34-6.87 5.63-5.75m6.66-7.3l.46-.5 5.53-6.7 5.05-6.66 1.16-1.67m5.5-8.22l2.13-3.34 3.8-6.6 3.46-6.6.32-.67m4.08-9l1.52-3.6 2.5-6.73 2.2-6.8.42-1.48m2.48-9.56l.66-2.8 1.37-7.13 1.07-7.28.24-2.28m.83-9.84l.2-3 .15-6.88" stroke="#0c7cba" stroke-width="2" fill="none"/><path d="M300.83 1143.24l5.37 14-9.26.5z" stroke="#0c7cba" stroke-width="2" fill="#0c7cba"/><path d="M1099.65 1141.05l-2-.05.02-1h2z" fill="#0c7cba"/><path d="M301.2 1158.38l.07.34.82 3.5.95 3.44.86 2.66m3.9 9.54l.56 1.2 1.73 3.3 1.9 3.3 2.1 3.3 2.3 3.32 2.3 3.03m6.76 7.78l2.62 2.67 3.67 3.44 4.03 3.47 4.44 3.52.7.5m8.45 5.87l1.15.76 5.97 3.6 6.6 3.64 4.23 2.1m9.36 4.32l1.75.77 8.9 3.53 8.6 3m9.86 3.02l2.13.64 11.75 3 6.13 1.3m10.12 2l10.15 1.72 10.25 1.3m10.25 1.03l9.1.77 11.47.48m10.3.17h9.4l11.2-.47m10.3-.68l9.15-.77 11.33-1.43m10.18-1.6l6.62-1.1 12.73-2.7.87-.23m9.98-2.56l.9-.23 10.76-3.25 7.98-2.78m9.62-3.7l1.1-.45 8.07-3.6 7.3-3.6 2.14-1.2m8.93-5.14l1.5-.9 5.4-3.6 4.9-3.55 4.43-3.52.5-.44m7.63-6.92l2.9-2.97 3.05-3.38 2.78-3.35 2.53-3.33 1.94-2.78m5.27-8.86l.84-1.6 1.56-3.3 1.4-3.33 1.25-3.36 1.1-3.4.97-3.43.18-.8m1.88-10.12l.36-3.5.24-3.83.07-2.95" stroke="#0c7cba" stroke-width="2" fill="none"/><path d="M299.66 1143.22l6.05 13.73-9.2.94z" stroke="#0c7cba" stroke-width="2" fill="#0c7cba"/><path d="M699.65 1141.05l-2-.05.02-1h2z" fill="#0c7cba"/><path d="M482.83 1200h111.52v27.04H482.83z" fill="#fff" fill-opacity="0"/><path d="M495.15 1219.07h-5.28l.02-.38c1.26-.12 1.57-.62 1.57-2.3v-5.05c0-1.8-.6-2.57-1.86-2.57-.82 0-1.43.3-2.6 1.45v7c0 1 .35 1.35 1.65 1.46v.37h-5.36v-.38c1.3-.12 1.56-.52 1.56-2.02v-6.17c0-1.24-.17-1.64-.88-1.64-.28 0-.56.02-.74.1v-.43c1.4-.4 2.23-.7 3.48-1.15l.2.08v1.98h.03c1.32-1.5 2.5-2.06 3.65-2.06 1.93 0 3 1.4 3 3.92v5.6c0 1.38.3 1.66 1.55 1.8v.37M502.6 1222.9h-4.95v-.28c1.32-.07 1.7-.45 1.7-1.44v-8.06c0-.6-.16-.88-.54-.88-.17 0-.47.1-.8.22l-.48.18v-.25l3.2-1.65.17.06v10.73c0 .77.35 1.1 1.7 1.1v.26M530.3 1210.94h-14.96v-1.68h14.95v1.68m0 5.08h-14.96v-1.68h14.95v1.68M548.58 1219.07h-7v-.38c1.87-.12 2.4-.65 2.4-2.05v-11.4c0-.86-.23-1.24-.76-1.24-.25 0-.7.13-1.14.3l-.7.27v-.36l4.56-2.3.23.08v15.16c0 1.1.5 1.55 2.4 1.55v.37M561.66 1207.44v1.95c1.1-1.4 2.23-2.02 3.65-2.02 2.48 0 4.25 2.26 4.25 5.4 0 3.7-2.3 6.54-5.33 6.54-1.07 0-1.65-.25-2.56-1.1v4c0 1.6.33 1.87 2.23 1.9v.46h-6.15v-.44c1.5-.15 1.77-.43 1.77-1.75v-11.9c0-1.2-.17-1.44-1.04-1.44-.23 0-.4 0-.63.03v-.42c1.4-.43 2.3-.76 3.65-1.3m.16 3.2v6.25c0 .76 1.44 1.68 2.64 1.68 1.83 0 3.07-1.9 3.07-4.7 0-2.96-1.24-4.9-3.12-4.9-1.17 0-2.6.92-2.6 1.68M581.57 1217.4v.7c-.77.97-1.43 1.22-2.3 1.22-.93 0-1.5-.5-1.6-1.85h-.04c-1.35 1.52-2.6 1.85-3.68 1.85-1.58 0-2.67-.97-2.67-2.64 0-1.32.8-2.3 1.78-2.97.76-.5 1.7-.98 4.57-2.05v-1.37c0-1.57-.84-2.3-1.98-2.3-1.02 0-1.78.57-1.78 1.26 0 .46.15.53.15 1.06 0 .5-.5 1.05-1.16 1.05-.54 0-1.1-.5-1.1-1.17 0-.66.4-1.47 1.3-2.03.7-.46 1.78-.77 2.92-.77 1.42 0 2.4.4 3 1.15.6.73.7 1.27.7 2.82v4.85c0 1.16.34 1.67.8 1.67.4 0 .65-.12 1.1-.48m-3.95-1.56v-3.58c-1.57.56-2.62 1.1-3.25 1.68-.6.55-.86 1.16-.86 1.95 0 1.34.76 1.95 1.75 1.95.5 0 1.04-.13 1.47-.4.74-.52.9-.87.9-1.6M593.73 1207.64v.38c-.76.08-.97.28-1.65 1.98l-3.25 8.15c-.38.94-.56 1.27-.7 1.27-.16 0-.3-.2-.47-.66-.08-.13-.1-.3-.2-.53l-3.05-7.3c-1.08-2.6-1.34-2.86-2.3-2.9v-.4h4.98v.4c-.87.07-1.17.24-1.17.68 0 .26.08.6.24.97l2.6 6.5 2.5-6.58c.1-.26.15-.5.15-.77 0-.48-.4-.73-1.2-.8v-.4h3.53"/><path d="M792.17 1300H903.7v27.04H792.16z" fill="#fff" fill-opacity="0"/><path d="M804.48 1319.07h-5.28l.03-.38c1.27-.12 1.57-.62 1.57-2.3v-5.05c0-1.8-.6-2.57-1.85-2.57-.84 0-1.45.3-2.62 1.45v7c0 1 .36 1.35 1.65 1.46v.37h-5.36v-.38c1.3-.12 1.58-.52 1.58-2.02v-6.17c0-1.24-.18-1.64-.9-1.64-.27 0-.55.02-.73.1v-.43c1.4-.4 2.24-.7 3.48-1.15l.2.08v1.98h.03c1.32-1.5 2.5-2.06 3.66-2.06 1.93 0 3 1.4 3 3.92v5.6c0 1.38.3 1.66 1.54 1.8v.37M813.37 1320.43l-.97 2.46h-7.02v-.23l3.2-3.4c1.68-1.77 2.33-3.13 2.33-4.66 0-1.62-.96-2.52-2.5-2.52-1.28 0-1.9.58-2.62 2.34l-.38-.1c.38-2.1 1.52-3.57 3.73-3.57 2.03 0 3.32 1.4 3.32 3.16 0 1.43-.7 2.78-2.3 4.47l-2.96 3.16h4.2c.75 0 1.13-.2 1.72-1.2M839.63 1310.94h-14.96v-1.68h14.96v1.68m0 5.08h-14.96v-1.68h14.96v1.68M859.94 1315.6l-1.37 3.47h-9.93v-.3l4.52-4.8c2.4-2.52 3.3-4.45 3.3-6.6 0-2.32-1.37-3.6-3.53-3.6-1.82 0-2.7.82-3.73 3.3l-.53-.12c.53-2.97 2.16-5.05 5.28-5.05 2.87 0 4.7 1.95 4.7 4.47 0 2-1 3.9-3.25 6.3l-4.2 4.47h5.95c1.07 0 1.6-.28 2.44-1.7M871 1307.44v1.95c1.1-1.4 2.22-2.02 3.65-2.02 2.46 0 4.24 2.26 4.24 5.4 0 3.7-2.32 6.54-5.35 6.54-1.06 0-1.65-.25-2.56-1.1v4c0 1.6.32 1.87 2.22 1.9v.46h-6.14v-.44c1.5-.15 1.78-.43 1.78-1.75v-11.9c0-1.2-.18-1.44-1.04-1.44-.23 0-.4 0-.64.03v-.42c1.4-.43 2.3-.76 3.66-1.3m.15 3.2v6.25c0 .76 1.44 1.68 2.63 1.68 1.83 0 3.07-1.9 3.07-4.7 0-2.96-1.24-4.9-3.12-4.9-1.17 0-2.6.92-2.6 1.68M890.9 1317.4v.7c-.76.97-1.42 1.22-2.3 1.22-.93 0-1.48-.5-1.6-1.85h-.04c-1.34 1.52-2.6 1.85-3.68 1.85-1.57 0-2.67-.97-2.67-2.64 0-1.32.8-2.3 1.8-2.97.75-.5 1.7-.98 4.56-2.05v-1.37c0-1.57-.84-2.3-1.98-2.3-1 0-1.78.57-1.78 1.26 0 .46.16.53.16 1.06 0 .5-.5 1.05-1.17 1.05-.54 0-1.1-.5-1.1-1.17 0-.66.4-1.47 1.3-2.03.7-.46 1.77-.77 2.9-.77 1.43 0 2.4.4 3 1.15.62.73.72 1.27.72 2.82v4.85c0 1.16.33 1.67.8 1.67.4 0 .65-.12 1.08-.48m-3.94-1.56v-3.58c-1.57.56-2.6 1.1-3.25 1.68-.6.55-.85 1.16-.85 1.95 0 1.34.76 1.95 1.75 1.95.5 0 1.04-.13 1.47-.4.74-.52.9-.87.9-1.6M903.06 1307.64v.38c-.76.08-.96.28-1.65 1.98l-3.24 8.15c-.38.94-.56 1.27-.7 1.27-.16 0-.3-.2-.47-.66-.08-.13-.1-.3-.2-.53l-3.06-7.3c-1.1-2.6-1.34-2.86-2.3-2.9v-.4h4.97v.4c-.85.07-1.16.24-1.16.68 0 .26.08.6.23.97l2.6 6.5 2.5-6.58c.1-.26.16-.5.16-.77 0-.48-.38-.73-1.2-.8v-.4h3.53"/><path d="M1122.83 1395.44h111.52v27.04h-111.52z" fill="#fff" fill-opacity="0"/><path d="M1135.15 1414.5h-5.28l.02-.37c1.26-.1 1.57-.6 1.57-2.3v-5.04c0-1.82-.6-2.58-1.86-2.58-.82 0-1.43.3-2.6 1.45v7c0 1 .35 1.35 1.65 1.46v.38h-5.36v-.37c1.3-.1 1.56-.5 1.56-2v-6.18c0-1.25-.17-1.65-.88-1.65-.28 0-.56.02-.74.1v-.43c1.4-.4 2.23-.7 3.48-1.14l.2.07v1.98h.03c1.32-1.5 2.5-2.05 3.65-2.05 1.93 0 3 1.4 3 3.9v5.62c0 1.37.3 1.65 1.55 1.78v.38M1136.62 1409.17l-.3-.07c.54-1.7 1.67-2.9 3.53-2.9 1.67 0 2.8.98 2.8 2.45 0 .87-.46 1.76-1.67 2.48.8.34 1.12.56 1.5.95.5.56.78 1.4.78 2.32 0 .95-.3 1.83-.82 2.5-.86 1.16-2.57 1.68-4.17 1.68-1.3 0-2-.38-2-1.02 0-.38.32-.65.73-.65.3 0 .6.12 1.1.48.66.47 1.04.56 1.54.56 1.33 0 2.33-1.23 2.33-2.75 0-1.38-.63-2.26-1.87-2.6-.4-.14-.8-.2-1.83-.2v-.25c.7-.23 1.15-.43 1.5-.64.9-.5 1.47-1.3 1.47-2.4 0-1.22-.76-1.83-1.94-1.83-1.12 0-1.94.58-2.68 1.9M1170.3 1406.38h-14.96v-1.68h14.95v1.68m0 5.08h-14.96v-1.68h14.95v1.68M1180.12 1401.56l-.4-.1c.73-2.42 2.33-4.12 4.97-4.12 2.36 0 3.95 1.4 3.95 3.48 0 1.22-.66 2.5-2.36 3.5 1.1.5 1.57.8 2.1 1.35.7.8 1.12 1.95 1.12 3.28 0 1.34-.43 2.6-1.17 3.55-1.22 1.63-3.63 2.36-5.9 2.36-1.85 0-2.84-.53-2.84-1.45 0-.52.47-.9 1.06-.9.43 0 .83.15 1.54.66.94.66 1.48.8 2.2.8 1.87 0 3.3-1.74 3.3-3.9 0-1.93-.9-3.17-2.65-3.68-.56-.18-1.14-.25-2.6-.25v-.36c.97-.33 1.63-.6 2.14-.9 1.24-.72 2.05-1.87 2.05-3.42 0-1.72-1.07-2.6-2.74-2.6-1.57 0-2.74.83-3.78 2.7M1201.66 1402.88v1.95c1.1-1.4 2.23-2 3.65-2 2.48 0 4.25 2.26 4.25 5.4 0 3.7-2.3 6.53-5.33 6.53-1.07 0-1.65-.25-2.56-1.1v4c0 1.6.33 1.87 2.23 1.9v.46h-6.15v-.43c1.5-.17 1.77-.45 1.77-1.77v-11.88c0-1.2-.17-1.45-1.04-1.45-.23 0-.4 0-.63.03v-.4c1.4-.44 2.3-.77 3.65-1.3m.16 3.2v6.24c0 .76 1.44 1.68 2.64 1.68 1.83 0 3.07-1.9 3.07-4.7 0-2.97-1.24-4.9-3.12-4.9-1.17 0-2.6.9-2.6 1.67M1221.57 1412.83v.7c-.77.98-1.43 1.23-2.3 1.23-.93 0-1.5-.5-1.6-1.85h-.04c-1.35 1.53-2.6 1.86-3.68 1.86-1.58 0-2.67-.96-2.67-2.64 0-1.32.8-2.3 1.78-2.97.76-.5 1.7-1 4.57-2.06v-1.38c0-1.57-.84-2.3-1.98-2.3-1.02 0-1.78.57-1.78 1.26 0 .46.15.53.15 1.07 0 .48-.5 1.04-1.16 1.04-.54 0-1.1-.5-1.1-1.18 0-.66.4-1.47 1.3-2.03.7-.47 1.78-.77 2.92-.77 1.42 0 2.4.4 3 1.14.6.73.7 1.27.7 2.82v4.84c0 1.16.34 1.67.8 1.67.4 0 .65-.1 1.1-.47m-3.95-1.55v-3.58c-1.57.56-2.62 1.1-3.25 1.68-.6.56-.86 1.16-.86 1.95 0 1.35.76 1.96 1.75 1.96.5 0 1.04-.14 1.47-.42.74-.5.9-.86.9-1.6M1233.73 1403.08v.38c-.76.08-.97.28-1.65 1.98l-3.25 8.15c-.38.93-.56 1.26-.7 1.26-.16 0-.3-.2-.47-.66-.08-.13-.1-.3-.2-.53l-3.05-7.3c-1.08-2.6-1.34-2.86-2.3-2.9v-.4h4.98v.4c-.87.07-1.17.24-1.17.68 0 .25.08.58.24.96l2.6 6.5 2.5-6.57c.1-.25.15-.5.15-.76 0-.48-.4-.73-1.2-.8v-.4h3.53"/><path d="M1500 1021v40.5" stroke="#5e5e5e" stroke-width="2" fill="none"/><path d="M1501 1021.03h-2V1020h2z" fill="#5e5e5e"/><path d="M1500 1076.76l-4.64-14.26h9.28z" stroke="#5e5e5e" stroke-width="2" fill="#5e5e5e"/><path d="M1380 966c0-3.3 2.7-6 6-6h228c3.3 0 6 2.7 6 6v48c0 3.3-2.7 6-6 6h-228c-3.3 0-6-2.7-6-6z" stroke="#000" stroke-opacity="0" stroke-width="3" fill="#fff" fill-opacity="0"/><use xlink:href="#y" transform="matrix(1,0,0,1,1385,965) translate(110.06172839506173 29.84722222222222)"/><path d="M1380 1086c0-3.3 2.7-6 6-6h228c3.3 0 6 2.7 6 6v48c0 3.3-2.7 6-6 6h-228c-3.3 0-6-2.7-6-6z" stroke="#000" stroke-opacity="0" stroke-width="3" fill="#fff" fill-opacity="0"/><path d="M622.83 882h259.8v27.04h-259.8z" fill="#fff" fill-opacity="0"/><path d="M635.15 901.07h-5.28l.02-.38c1.26-.12 1.57-.62 1.57-2.3v-5.05c0-1.8-.6-2.57-1.86-2.57-.82 0-1.43.3-2.6 1.45v7c0 1 .35 1.35 1.65 1.46v.37h-5.36v-.38c1.3-.12 1.56-.52 1.56-2.02v-6.17c0-1.24-.17-1.64-.88-1.64-.28 0-.56.02-.74.1v-.43c1.4-.4 2.23-.7 3.48-1.15l.2.08v1.98h.03c1.32-1.5 2.5-2.06 3.65-2.06 1.93 0 3 1.4 3 3.92v5.6c0 1.38.3 1.66 1.55 1.8v.37M644.04 902.43l-.97 2.46h-7.02v-.23l3.2-3.4c1.68-1.77 2.33-3.13 2.33-4.66 0-1.62-.97-2.52-2.5-2.52-1.3 0-1.92.58-2.64 2.34l-.37-.1c.37-2.1 1.52-3.57 3.73-3.57 2.03 0 3.32 1.4 3.32 3.16 0 1.43-.7 2.78-2.3 4.47l-2.96 3.16h4.2c.76 0 1.13-.2 1.73-1.2M670.3 892.94h-14.96v-1.68h14.95v1.68m0 5.08h-14.96v-1.68h14.95v1.68M680.12 888.1l-.4-.1c.73-2.4 2.33-4.1 4.97-4.1 2.36 0 3.95 1.4 3.95 3.48 0 1.22-.66 2.5-2.36 3.5 1.1.5 1.57.8 2.1 1.35.7.8 1.12 1.95 1.12 3.27 0 1.35-.43 2.6-1.17 3.56-1.22 1.63-3.63 2.36-5.9 2.36-1.85 0-2.84-.53-2.84-1.45 0-.53.47-.9 1.06-.9.43 0 .83.14 1.54.65.94.66 1.48.8 2.2.8 1.87 0 3.3-1.74 3.3-3.9 0-1.93-.9-3.17-2.65-3.68-.56-.18-1.14-.25-2.6-.25v-.37c.97-.33 1.63-.6 2.14-.9 1.24-.72 2.05-1.87 2.05-3.42 0-1.7-1.07-2.58-2.74-2.58-1.57 0-2.74.82-3.78 2.7M701.66 889.44v1.95c1.1-1.4 2.23-2.02 3.65-2.02 2.48 0 4.25 2.26 4.25 5.4 0 3.7-2.3 6.54-5.33 6.54-1.07 0-1.65-.25-2.56-1.1v4c0 1.6.33 1.87 2.23 1.9v.46h-6.15v-.44c1.5-.15 1.77-.43 1.77-1.75v-11.9c0-1.2-.17-1.44-1.04-1.44-.23 0-.4 0-.63.03v-.42c1.4-.43 2.3-.76 3.65-1.3m.16 3.2v6.25c0 .76 1.44 1.68 2.64 1.68 1.83 0 3.07-1.9 3.07-4.7 0-2.96-1.24-4.9-3.12-4.9-1.17 0-2.6.92-2.6 1.68M721.57 899.4v.7c-.77.97-1.43 1.22-2.3 1.22-.93 0-1.5-.5-1.6-1.85h-.04c-1.35 1.52-2.6 1.85-3.68 1.85-1.58 0-2.67-.97-2.67-2.64 0-1.32.8-2.3 1.78-2.97.76-.5 1.7-.98 4.57-2.05v-1.37c0-1.57-.84-2.3-1.98-2.3-1.02 0-1.78.57-1.78 1.26 0 .46.15.53.15 1.06 0 .5-.5 1.05-1.16 1.05-.54 0-1.1-.5-1.1-1.17 0-.66.4-1.47 1.3-2.03.7-.46 1.78-.77 2.92-.77 1.42 0 2.4.4 3 1.15.6.73.7 1.27.7 2.82v4.85c0 1.16.34 1.67.8 1.67.4 0 .65-.12 1.1-.48m-3.95-1.56v-3.58c-1.57.56-2.62 1.1-3.25 1.68-.6.55-.86 1.16-.86 1.95 0 1.34.76 1.95 1.75 1.95.5 0 1.04-.13 1.47-.4.74-.52.9-.87.9-1.6M733.73 889.64v.38c-.76.08-.97.28-1.65 1.98l-3.25 8.15c-.38.94-.56 1.27-.7 1.27-.16 0-.3-.2-.47-.66-.08-.13-.1-.3-.2-.53l-3.05-7.3c-1.08-2.6-1.34-2.86-2.3-2.9v-.4h4.98v.4c-.87.07-1.17.24-1.17.68 0 .26.08.6.24.97l2.6 6.5 2.5-6.58c.1-.26.15-.5.15-.77 0-.48-.4-.73-1.2-.8v-.4h3.53M753.16 900l-3.74 1.32-.1-.08v-1.62c-.86 1.2-1.83 1.7-3.25 1.7-2.82 0-4.7-2.2-4.7-5.46 0-3.6 2.36-6.48 5.3-6.48 1 0 1.7.28 2.65 1.1v-3.96c0-1.05-.23-1.3-1.17-1.3-.2 0-.35 0-.56.03v-.4c1.62-.44 2.5-.7 3.73-1.13l.12.05v14.4c0 1.17.2 1.45 1.12 1.45l.6-.03v.4m-3.85-1.52v-5.84c0-1.35-1.22-2.54-2.6-2.54-1.92 0-3.16 1.87-3.16 4.74 0 3.13 1.37 5.16 3.5 5.16.8 0 1.42-.28 1.88-.8.23-.27.38-.55.38-.72M763.75 896.9l.4.18c-1 2.77-2.77 4.24-5.3 4.24-3 0-4.83-2.26-4.83-5.76 0-3.6 2.06-6.18 5.26-6.18 1.57 0 2.7.6 3.53 1.76.5.7.77 1.52.87 2.9h-7.82c.12 1.92.25 2.9 1.17 4.13.7.94 1.65 1.4 2.8 1.4 1.72 0 2.68-.8 3.93-2.67m-7.85-3.68h5.18c-.28-2.06-.8-2.92-2.5-2.92-1.4 0-2.4 1-2.68 2.92M775.6 885.02c0 .73-.55 1.3-1.32 1.3-.7 0-1.27-.57-1.27-1.3 0-.7.6-1.3 1.3-1.3.75 0 1.3.6 1.3 1.3m1.86 16.05h-6.02v-.38c1.75-.12 2-.35 2-2.28v-5.76c0-1.2-.2-1.6-.83-1.6-.22 0-.6 0-1.06.13v-.42l3.94-1.4.1.1v8.92c0 1.88.2 2.16 1.88 2.3v.37M790.4 901.07h-5.27l.02-.38c1.27-.12 1.58-.62 1.58-2.3v-5.05c0-1.8-.6-2.57-1.86-2.57-.83 0-1.44.3-2.6 1.45v7c0 1 .34 1.35 1.64 1.46v.37h-5.35v-.38c1.3-.12 1.57-.52 1.57-2.02v-6.17c0-1.24-.17-1.64-.88-1.64-.28 0-.56.02-.74.1v-.43c1.4-.4 2.23-.7 3.48-1.15l.2.08v1.98h.03c1.33-1.5 2.5-2.06 3.66-2.06 1.93 0 3 1.4 3 3.92v5.6c0 1.38.3 1.66 1.55 1.8v.37M797.57 899.1l.33.3c-.84 1.3-1.8 1.92-3.07 1.92-1.48 0-2.24-1.1-2.24-3.23v-7.65h-1.35c-.08-.05-.1-.1-.1-.18 0-.15.15-.3.43-.48.66-.4 1.5-1.33 2.46-2.73.15-.22.36-.45.5-.7.14 0 .2.07.2.32v2.94h2.55v.8h-2.57v7.27c0 1.64.38 2.3 1.32 2.3.56 0 .96-.23 1.52-.9M808.24 896.9l.4.18c-1 2.77-2.77 4.24-5.3 4.24-3 0-4.83-2.26-4.83-5.76 0-3.6 2.07-6.18 5.27-6.18 1.57 0 2.7.6 3.53 1.76.5.7.76 1.52.86 2.9h-7.82c.13 1.92.25 2.9 1.17 4.13.72.94 1.66 1.4 2.83 1.4 1.7 0 2.66-.8 3.9-2.67m-7.84-3.68h5.17c-.28-2.06-.8-2.92-2.5-2.92-1.4 0-2.4 1-2.68 2.92M813.24 889.44v2.33c1.27-1.83 1.98-2.4 3.05-2.4.85 0 1.38.52 1.38 1.36 0 .7-.38 1.14-1 1.14-.32 0-.6-.12-1-.5-.28-.26-.5-.4-.66-.4-.7 0-1.78 1.28-1.78 2.1v5.7c0 1.46.43 1.84 2.16 1.92v.37h-6.1v-.38c1.63-.32 1.8-.5 1.8-1.77v-6.35c0-1.1-.22-1.52-.86-1.52-.3 0-.53.03-.9.1v-.4c1.5-.5 2.43-.84 3.77-1.38M827.74 897.1l.35.23c-.82 1.58-1.33 2.3-2.1 2.92-.85.7-1.82 1.07-2.9 1.07-2.83 0-4.83-2.36-4.83-5.64 0-2.1.76-3.86 2.13-5 1.02-.84 2.23-1.3 3.43-1.3 2.13 0 3.9 1.2 3.9 2.62 0 .58-.52 1.07-1.18 1.07-.56 0-1.02-.43-1.22-1.17l-.16-.56c-.25-.94-.58-1.22-1.5-1.22-2.05 0-3.45 1.78-3.45 4.42 0 2.92 1.6 4.95 3.94 4.95 1.45 0 2.36-.62 3.58-2.4M841.12 899.8v.35c-1.3.36-2.2.64-3.48 1.14l-.12-.08v-2.08h-.06c-1.24 1.7-2.7 2.18-3.63 2.18-1.95 0-3.1-1.3-3.1-3.25v-6.37c0-1.27-.35-1.63-1.57-1.7v-.36h3.7v8.2c0 1.17.82 2 1.8 2 .75 0 1.5-.22 2.14-.78.4-.36.6-.58.6-1.47v-5.88c0-1.35-.37-1.55-1.9-1.65v-.43h4.02v8.7c0 1.18.28 1.46 1.45 1.46h.15M853.56 895.2c0 3.53-2.28 6.12-5.7 6.12-3.08 0-5.5-2.5-5.5-6.04 0-3.53 2.3-5.9 5.72-5.9 3.1 0 5.48 2.32 5.48 5.82m-2.28.7c0-1.74-.46-3.5-1.27-4.53-.6-.77-1.3-1.27-2.4-1.27-1.76 0-2.95 1.5-2.95 4.03 0 2 .4 3.84 1.35 5.2.56.82 1.37 1.28 2.28 1.28 1.88 0 3-1.77 3-4.7M861.1 899.1l.34.3c-.84 1.3-1.8 1.92-3.08 1.92-1.47 0-2.23-1.1-2.23-3.23v-7.65h-1.35c-.07-.05-.1-.1-.1-.18 0-.15.15-.3.43-.48.67-.4 1.5-1.33 2.48-2.73.15-.22.35-.45.5-.7.13 0 .18.07.18.32v2.94h2.57v.8h-2.57v7.27c0 1.64.38 2.3 1.32 2.3.56 0 .97-.23 1.53-.9M872.64 899.4v.7c-.77.97-1.43 1.22-2.3 1.22-.93 0-1.5-.5-1.62-1.85h-.02c-1.35 1.52-2.6 1.85-3.68 1.85-1.58 0-2.67-.97-2.67-2.64 0-1.32.8-2.3 1.78-2.97.76-.5 1.7-.98 4.57-2.05v-1.37c0-1.57-.84-2.3-1.98-2.3-1.02 0-1.78.57-1.78 1.26 0 .46.15.53.15 1.06 0 .5-.5 1.05-1.17 1.05-.54 0-1.1-.5-1.1-1.17 0-.66.4-1.47 1.3-2.03.7-.46 1.78-.77 2.92-.77 1.42 0 2.4.4 3 1.15.6.73.7 1.27.7 2.82v4.85c0 1.16.34 1.67.8 1.67.4 0 .65-.12 1.1-.48m-3.95-1.56v-3.58c-1.58.56-2.62 1.1-3.25 1.68-.6.55-.86 1.16-.86 1.95 0 1.34.75 1.95 1.74 1.95.5 0 1.04-.13 1.47-.4.75-.52.9-.87.9-1.6M876.67 893.42l2.64 1.6c1.64 1 2.25 1.68 2.25 3.13 0 1.7-1.63 3.17-3.56 3.17-.54 0-1.28-.03-1.86-.23-.6-.2-.9-.24-1.17-.24-.3 0-.46.05-.6.3h-.34v-3.98h.4c.54 2.46 1.48 3.58 3.23 3.58 1.3 0 2.1-.84 2.1-1.88 0-.8-.5-1.45-1.33-1.9l-1.38-.76c-2.1-1.17-3.04-2.4-3.04-3.7 0-2 1.43-3.1 3.5-3.1.62 0 1.18.02 1.7.27.3.12.55.2.72.2.1 0 .2-.03.4-.26h.3l.12 3.45h-.38c-.6-2.3-1.35-3.13-2.87-3.13-1.1 0-1.92.53-1.92 1.73 0 .55.38 1.3 1.1 1.72"/><path d="M1460 306c0-3.3 2.7-6 6-6h228c3.3 0 6 2.7 6 6v48c0 3.3-2.7 6-6 6h-228c-3.3 0-6-2.7-6-6z" stroke="#000" stroke-opacity="0" stroke-width="3" fill="#fff" fill-opacity="0"/><use xlink:href="#z" transform="matrix(1,0,0,1,1465,305) translate(97.71604938271605 30.27777777777778)"/><path d="M1480 1026c0-3.3 2.7-6 6-6h228c3.3 0 6 2.7 6 6v48c0 3.3-2.7 6-6 6h-228c-3.3 0-6-2.7-6-6z" stroke="#000" stroke-opacity="0" stroke-width="3" fill="#fff" fill-opacity="0"/><use xlink:href="#A" transform="matrix(1,0,0,1,1485,1025) translate(97.09876543209876 30.27777777777778)"/><path d="M644.24 1096.48h84v27.04h-84z" fill="#fff" fill-opacity="0"/><path d="M661 1117.13h-4.1l-6.06-7.82-1.42.06v4.93c0 1.92.3 2.22 2.26 2.35v.48h-7v-.48c1.9-.15 2.15-.43 2.15-2.67v-10.84c0-1.88-.2-2.2-2.16-2.34v-.48h6.9c2.42 0 4.23.6 5.32 1.5.83.68 1.23 1.93 1.23 3.05 0 2.2-1.42 3.68-4.6 4.16l5.08 6.42c.75.94 1.28 1.1 2.4 1.2v.48m-11.58-14.8v6.1c2.44-.06 3.33-.24 4.5-.87.9-.5 1.44-1.63 1.44-2.9 0-2.28-1.5-3.4-4.64-3.4-.87 0-1.3.18-1.3 1.07M668.24 1120.95h-4.95v-.26c1.32-.1 1.7-.46 1.7-1.45v-8.06c0-.62-.17-.9-.54-.9-.18 0-.5.1-.8.22l-.5.18v-.25l3.22-1.63.16.05v10.72c0 .76.36 1.1 1.7 1.1v.25M695.94 1109H681v-1.67h14.94v1.67m0 5.08H681v-1.67h14.94v1.68M710.93 1100.95v6.25c3.07 1.65 3.7 2.3 4.4 3.33.34.53.52 1.34.52 2.28 0 2.96-2 3.92-4.92 4.33v2.2h-.87v-2.2c-2.2 0-3.32-.35-4.72-1.3v-3.3h.38c.53 2.54 2.1 3.9 4.34 3.9v-7.17c-3.5-1.98-4.52-3.02-4.52-5.16 0-2.54 2.16-3.68 4.52-3.83v-1.6h.87v1.6c2.05.13 3.3.56 4.08 1.34v2.83h-.37c-.5-2.1-1.67-3.22-3.7-3.48m-.87 5.85v-5.85c-1.8.36-2.64 1.38-2.64 2.67 0 1.12.5 1.73 2.64 3.18m.87 2.9v6.72c2.05-.43 2.9-1.22 2.9-3.02 0-1.55-.6-2.34-2.9-3.7M723.12 1112.97h-.44c.03-1.02.23-2.3 1.12-4.5.66-1.62 1.3-3.22 1.3-4.75 0-1.75-1.22-3-2.77-3-1.22 0-2.4.77-2.4 1.58 0 .94.98 1.04.98 1.88 0 .63-.4 1.1-1.04 1.1-.7 0-1.2-.64-1.2-1.68 0-2.1 1.7-3.64 4.15-3.64 2.47 0 4.63 1.55 4.63 4.02 0 1.55-.48 2.4-2.66 5-.92 1.1-1.38 2.26-1.65 4zm1.16 3.02c0 .72-.56 1.33-1.32 1.33-.86 0-1.37-.63-1.37-1.34 0-.77.58-1.36 1.36-1.36.7 0 1.32.64 1.32 1.35"/><path d="M1058 1096.48h84v27.04h-84z" fill="#fff" fill-opacity="0"/><path d="M1074.76 1117.13h-4.1l-6.05-7.82-1.42.06v4.93c0 1.92.3 2.22 2.26 2.35v.48h-7v-.48c1.9-.15 2.15-.43 2.15-2.67v-10.84c0-1.88-.2-2.2-2.16-2.34v-.48h6.9c2.42 0 4.22.6 5.3 1.5.85.68 1.26 1.93 1.26 3.05 0 2.2-1.43 3.68-4.6 4.16l5.08 6.42c.73.94 1.27 1.1 2.38 1.2v.48m-11.58-14.8v6.1c2.44-.06 3.33-.24 4.5-.87.9-.5 1.45-1.63 1.45-2.9 0-2.28-1.5-3.4-4.65-3.4-.86 0-1.3.18-1.3 1.07M1083.44 1118.5l-.96 2.45h-7.02v-.2l3.2-3.4c1.68-1.78 2.33-3.15 2.33-4.67 0-1.64-.98-2.53-2.5-2.53-1.3 0-1.93.57-2.65 2.33l-.38-.1c.38-2.1 1.53-3.56 3.74-3.56 2.04 0 3.33 1.38 3.33 3.16 0 1.42-.7 2.76-2.3 4.45l-2.96 3.16h4.2c.75 0 1.13-.2 1.72-1.2M1109.7 1109h-14.95v-1.67h14.96v1.67m0 5.08h-14.95v-1.67h14.96v1.68M1124.7 1100.95v6.25c3.06 1.65 3.7 2.3 4.38 3.33.36.53.54 1.34.54 2.28 0 2.96-2 3.92-4.93 4.33v2.2h-.87v-2.2c-2.2 0-3.33-.35-4.73-1.3v-3.3h.38c.54 2.54 2.1 3.9 4.35 3.9v-7.17c-3.5-1.98-4.52-3.02-4.52-5.16 0-2.54 2.16-3.68 4.53-3.83v-1.6h.86v1.6c2.05.13 3.3.56 4.08 1.34v2.83h-.38c-.5-2.1-1.68-3.22-3.7-3.48m-.87 5.85v-5.85c-1.8.36-2.64 1.38-2.64 2.67 0 1.12.5 1.73 2.63 3.18m.86 2.9v6.72c2.05-.43 2.88-1.22 2.88-3.02 0-1.55-.58-2.34-2.9-3.7M1136.88 1112.97h-.43c.02-1.02.23-2.3 1.1-4.5.67-1.62 1.3-3.22 1.3-4.75 0-1.75-1.2-3-2.76-3-1.23 0-2.4.77-2.4 1.58 0 .94.97 1.04.97 1.88 0 .63-.4 1.1-1.04 1.1-.7 0-1.22-.64-1.22-1.68 0-2.1 1.74-3.64 4.17-3.64 2.47 0 4.63 1.55 4.63 4.02 0 1.55-.5 2.4-2.67 5-.9 1.1-1.37 2.26-1.65 4zm1.17 3.02c0 .72-.56 1.33-1.32 1.33-.87 0-1.38-.63-1.38-1.34 0-.77.6-1.36 1.38-1.36.7 0 1.32.64 1.32 1.35"/><path d="M1458 1096.48h84v27.04h-84z" fill="#fff" fill-opacity="0"/><path d="M1474.76 1117.13h-4.1l-6.05-7.82-1.42.06v4.93c0 1.92.3 2.22 2.26 2.35v.48h-7v-.48c1.9-.15 2.15-.43 2.15-2.67v-10.84c0-1.88-.2-2.2-2.16-2.34v-.48h6.9c2.42 0 4.22.6 5.3 1.5.85.68 1.26 1.93 1.26 3.05 0 2.2-1.43 3.68-4.6 4.16l5.08 6.42c.73.94 1.27 1.1 2.38 1.2v.48m-11.58-14.8v6.1c2.44-.06 3.33-.24 4.5-.87.9-.5 1.45-1.63 1.45-2.9 0-2.28-1.5-3.4-4.65-3.4-.86 0-1.3.18-1.3 1.07M1476.03 1111.8l-.3-.07c.53-1.7 1.66-2.9 3.53-2.9 1.67 0 2.8.98 2.8 2.45 0 .86-.46 1.76-1.67 2.48.78.34 1.1.55 1.48.95.5.56.8 1.4.8 2.32 0 .95-.3 1.83-.83 2.52-.86 1.15-2.57 1.67-4.17 1.67-1.3 0-2-.37-2-1.02 0-.37.3-.64.73-.64.3 0 .6.1 1.1.46.67.47 1.04.56 1.55.56 1.32 0 2.33-1.22 2.33-2.75 0-1.35-.63-2.23-1.87-2.6-.38-.12-.8-.17-1.82-.17v-.25c.68-.23 1.15-.43 1.5-.65.9-.5 1.46-1.3 1.46-2.4 0-1.22-.75-1.83-1.93-1.83-1.1 0-1.93.57-2.67 1.9M1509.7 1109h-14.95v-1.67h14.96v1.67m0 5.08h-14.95v-1.67h14.96v1.68M1524.7 1100.95v6.25c3.06 1.65 3.7 2.3 4.38 3.33.36.53.54 1.34.54 2.28 0 2.96-2 3.92-4.93 4.33v2.2h-.87v-2.2c-2.2 0-3.33-.35-4.73-1.3v-3.3h.38c.54 2.54 2.1 3.9 4.35 3.9v-7.17c-3.5-1.98-4.52-3.02-4.52-5.16 0-2.54 2.16-3.68 4.53-3.83v-1.6h.86v1.6c2.05.13 3.3.56 4.08 1.34v2.83h-.38c-.5-2.1-1.68-3.22-3.7-3.48m-.87 5.85v-5.85c-1.8.36-2.64 1.38-2.64 2.67 0 1.12.5 1.73 2.63 3.18m.86 2.9v6.72c2.05-.43 2.88-1.22 2.88-3.02 0-1.55-.58-2.34-2.9-3.7M1536.88 1112.97h-.43c.02-1.02.23-2.3 1.1-4.5.67-1.62 1.3-3.22 1.3-4.75 0-1.75-1.2-3-2.76-3-1.23 0-2.4.77-2.4 1.58 0 .94.97 1.04.97 1.88 0 .63-.4 1.1-1.04 1.1-.7 0-1.22-.64-1.22-1.68 0-2.1 1.74-3.64 4.17-3.64 2.47 0 4.63 1.55 4.63 4.02 0 1.55-.5 2.4-2.67 5-.9 1.1-1.37 2.26-1.65 4zm1.17 3.02c0 .72-.56 1.33-1.32 1.33-.87 0-1.38-.63-1.38-1.34 0-.77.6-1.36 1.38-1.36.7 0 1.32.64 1.32 1.35"/><defs><path fill="#333" d="M24-231v-30h32v30H24zM-9 49c24 4 33-6 33-30v-209h32V24c2 40-23 58-65 49V49" id="B"/><path fill="#333" d="M18-150v-26h174v26H18zm0 90v-26h174v26H18" id="C"/><path fill="#333" d="M126-127c33 6 58 20 58 59 0 88-139 92-164 29-3-8-5-16-6-25l32-3c6 27 21 44 54 44 32 0 52-15 52-46 0-38-36-46-79-43v-28c39 1 72-4 72-42 0-27-17-43-46-43-28 0-47 15-49 41l-32-3c6-42 35-63 81-64 48-1 79 21 79 65 0 36-21 52-52 59" id="D"/><path fill="#333" d="M101-251c82-7 93 87 43 132L82-64C71-53 59-42 53-27h129V0H18c2-99 128-94 128-182 0-28-16-43-45-43s-46 15-49 41l-32-3c6-41 34-60 81-64" id="E"/><path fill="#333" d="M252-156c43 0 55 33 55 80 0 46-13 78-56 78-42 0-55-33-55-78 0-48 12-80 56-80zM93 0H65l162-248h28zM13-171c-1-47 13-79 56-79s55 33 55 79-13 79-55 79c-43 0-56-33-56-79zM251-17c28 0 30-29 30-59 0-31-1-60-29-60-29 0-31 29-31 60 0 29 2 59 30 59zM69-112c27 0 28-30 29-59 0-31-1-60-29-60-29 0-30 30-30 60s2 59 30 59" id="F"/><g id="a"><use transform="matrix(0.06172839506172839,0,0,0.06172839506172839,0,0)" xlink:href="#B"/><use transform="matrix(0.06172839506172839,0,0,0.06172839506172839,4.876543209876543,0)" xlink:href="#C"/><use transform="matrix(0.06172839506172839,0,0,0.06172839506172839,17.839506172839506,0)" xlink:href="#D"/><use transform="matrix(0.06172839506172839,0,0,0.06172839506172839,30.185185185185183,0)" xlink:href="#E"/><use transform="matrix(0.06172839506172839,0,0,0.06172839506172839,42.53086419753086,0)" xlink:href="#F"/></g><path fill="#333" d="M117-194c89-4 53 116 60 194h-32v-121c0-31-8-49-39-48C34-167 62-67 57 0H25l-1-190h30c1 10-1 24 2 32 11-22 29-35 61-36" id="G"/><path fill="#333" d="M141-36C126-15 110 5 73 4 37 3 15-17 15-53c-1-64 63-63 125-63 3-35-9-54-41-54-24 1-41 7-42 31l-33-3c5-37 33-52 76-52 45 0 72 20 72 64v82c-1 20 7 32 28 27v20c-31 9-61-2-59-35zM48-53c0 20 12 33 32 33 41-3 63-29 60-74-43 2-92-5-92 41" id="H"/><path fill="#333" d="M135-143c-3-34-86-38-87 0 15 53 115 12 119 90S17 21 10-45l28-5c4 36 97 45 98 0-10-56-113-15-118-90-4-57 82-63 122-42 12 7 21 19 24 35" id="I"/><path fill="#333" d="M108 0H70L1-190h34L89-25l56-165h34" id="J"/><g id="b"><use transform="matrix(0.06172839506172839,0,0,0.06172839506172839,0,0)" xlink:href="#G"/><use transform="matrix(0.06172839506172839,0,0,0.06172839506172839,12.345679012345679,0)" xlink:href="#H"/><use transform="matrix(0.06172839506172839,0,0,0.06172839506172839,24.691358024691358,0)" xlink:href="#I"/><use transform="matrix(0.06172839506172839,0,0,0.06172839506172839,35.80246913580247,0)" xlink:href="#J"/></g><path fill="#333" d="M197 0v-115H63V0H30v-248h33v105h134v-105h34V0h-34" id="K"/><path fill="#333" d="M194-70c0 46-34 64-81 66v29H91V-4C42-5 12-27 4-67l30-6c5 28 25 41 57 43v-87c-38-9-76-20-76-67 1-42 33-58 76-59v-23h22v23c45 0 67 20 76 56l-31 6c-5-23-18-35-45-37v78c41 10 81 20 81 70zm-81 41c51 7 71-66 19-77-6-2-12-4-19-6v83zM91-219c-47-6-63 57-18 69 6 2 12 3 18 5v-74" id="L"/><path fill="#333" d="M54-142c48-35 137-8 131 61C196 18 31 33 14-55l32-4c7 23 22 37 52 37 35-1 51-22 54-58 4-55-73-65-99-34H22l8-134h141v27H59" id="M"/><path fill="#333" d="M33 0v-38h34V0H33" id="N"/><path fill="#333" d="M101-251c68 0 85 55 85 127S166 4 100 4C33 4 14-52 14-124c0-73 17-127 87-127zm-1 229c47 0 54-49 54-102s-4-102-53-102c-51 0-55 48-55 102 0 53 5 102 54 102" id="O"/><g id="c"><use transform="matrix(0.06172839506172839,0,0,0.06172839506172839,0,0)" xlink:href="#K"/><use transform="matrix(0.06172839506172839,0,0,0.06172839506172839,15.987654320987653,0)" xlink:href="#C"/><use transform="matrix(0.06172839506172839,0,0,0.06172839506172839,28.950617283950614,0)" xlink:href="#L"/><use transform="matrix(0.06172839506172839,0,0,0.06172839506172839,41.29629629629629,0)" xlink:href="#E"/><use transform="matrix(0.06172839506172839,0,0,0.06172839506172839,53.64197530864197,0)" xlink:href="#M"/><use transform="matrix(0.06172839506172839,0,0,0.06172839506172839,65.98765432098764,0)" xlink:href="#N"/><use transform="matrix(0.06172839506172839,0,0,0.06172839506172839,72.16049382716048,0)" xlink:href="#O"/><use transform="matrix(0.06172839506172839,0,0,0.06172839506172839,84.50617283950616,0)" xlink:href="#O"/><use transform="matrix(0.06172839506172839,0,0,0.06172839506172839,96.85185185185185,0)" xlink:href="#O"/></g><path fill="#333" d="M96-169c-40 0-48 33-48 73s9 75 48 75c24 0 41-14 43-38l32 2c-6 37-31 61-74 61-59 0-76-41-82-99-10-93 101-131 147-64 4 7 5 14 7 22l-32 3c-4-21-16-35-41-35" id="P"/><path fill="#333" d="M85-194c31 0 48 13 60 33l-1-100h32l1 261h-30c-2-10 0-23-3-31C134-8 116 4 85 4 32 4 16-35 15-94c0-66 23-100 70-100zm9 24c-40 0-46 34-46 75 0 40 6 74 45 74 42 0 51-32 51-76 0-42-9-74-50-73" id="Q"/><g id="d"><use transform="matrix(0.06172839506172839,0,0,0.06172839506172839,0,0)" xlink:href="#P"/><use transform="matrix(0.06172839506172839,0,0,0.06172839506172839,11.11111111111111,0)" xlink:href="#H"/><use transform="matrix(0.06172839506172839,0,0,0.06172839506172839,23.45679012345679,0)" xlink:href="#Q"/><use transform="matrix(0.06172839506172839,0,0,0.06172839506172839,35.80246913580247,0)" xlink:href="#H"/></g><path fill="#333" d="M118-194c89-4 53 116 60 194h-32v-121c0-31-8-49-39-48C35-167 63-67 58 0H26l-1-190h30c1 10-1 24 2 32 11-22 29-35 61-36zm47-64c-3 23-9 48-36 47-26-1-65-44-74 0H39c4-23 8-48 36-47s64 44 74 0h16" id="R"/><path fill="#333" d="M100-194c62-1 85 37 85 99 1 63-27 99-86 99S16-35 15-95c0-66 28-99 85-99zM99-20c44 1 53-31 53-75 0-43-8-75-51-75s-53 32-53 75 10 74 51 75" id="S"/><g id="e"><use transform="matrix(0.06172839506172839,0,0,0.06172839506172839,0,0)" xlink:href="#H"/><use transform="matrix(0.06172839506172839,0,0,0.06172839506172839,12.345679012345679,0)" xlink:href="#R"/><use transform="matrix(0.06172839506172839,0,0,0.06172839506172839,24.691358024691358,0)" xlink:href="#S"/></g><path fill="#333" d="M99-251c64 0 84 50 84 122C183-37 130 33 47-8c-14-7-20-23-25-40l30-5c6 39 69 39 84 7 9-19 16-44 16-74-10 22-31 35-62 35-49 0-73-33-73-83 0-54 28-83 82-83zm-1 141c31-1 51-18 51-49 0-36-14-67-51-67-34 0-49 23-49 58 0 34 15 58 49 58" id="T"/><path fill="#333" d="M64 0c3-98 48-159 88-221H18v-27h164v26C143-157 98-101 97 0H64" id="U"/><g id="f"><use transform="matrix(0.06172839506172839,0,0,0.06172839506172839,0,0)" xlink:href="#L"/><use transform="matrix(0.06172839506172839,0,0,0.06172839506172839,12.345679012345679,0)" xlink:href="#M"/><use transform="matrix(0.06172839506172839,0,0,0.06172839506172839,24.691358024691358,0)" xlink:href="#T"/><use transform="matrix(0.06172839506172839,0,0,0.06172839506172839,37.03703703703704,0)" xlink:href="#N"/><use transform="matrix(0.06172839506172839,0,0,0.06172839506172839,43.20987654320988,0)" xlink:href="#O"/><use transform="matrix(0.06172839506172839,0,0,0.06172839506172839,55.55555555555556,0)" xlink:href="#M"/><use transform="matrix(0.06172839506172839,0,0,0.06172839506172839,67.90123456790124,0)" xlink:href="#U"/></g><path fill="#333" d="M101-251c68 0 84 54 84 127C185-50 166 4 99 4S15-52 14-124c-1-75 17-127 87-127zm-1 216c37-5 36-46 36-89s4-89-36-89c-39 0-36 45-36 89 0 43-3 85 36 89" id="V"/><use transform="matrix(0.04938271604938272,0,0,0.04938271604938272,0,0)" xlink:href="#V" id="g"/><path fill="#333" d="M134-131c28 9 52 24 51 62-1 50-34 73-85 73S17-19 16-69c0-36 21-54 49-61-75-25-45-126 34-121 46 3 78 18 79 63 0 33-17 51-44 57zm-34-11c31 1 46-15 46-44 0-28-17-43-47-42-29 0-46 13-45 42 1 28 16 44 46 44zm1 122c35 0 51-18 51-52 0-30-18-46-53-46-33 0-51 17-51 47 0 34 19 51 53 51" id="W"/><path fill="#333" d="M110-160c48 1 74 30 74 79 0 53-28 85-80 85-65 0-83-55-86-122-5-90 50-162 133-122 14 7 22 21 27 39l-31 6c-5-40-67-38-82-6-9 19-15 44-15 74 11-20 30-34 60-33zm-7 138c34 0 49-23 49-58s-16-56-50-56c-29 0-50 16-49 49 1 36 15 65 50 65" id="X"/><path fill="#333" d="M155-56V0h-30v-56H8v-25l114-167h33v167h35v25h-35zm-30-156c-27 46-58 90-88 131h88v-131" id="Y"/><path fill="#333" d="M68-38c1 34 0 65-14 84H32c9-13 17-26 17-46H33v-38h35" id="Z"/><g id="h"><use transform="matrix(0.06172839506172839,0,0,0.06172839506172839,0,0)" xlink:href="#L"/><use transform="matrix(0.06172839506172839,0,0,0.06172839506172839,12.345679012345679,0)" xlink:href="#W"/><use transform="matrix(0.06172839506172839,0,0,0.06172839506172839,24.691358024691358,0)" xlink:href="#X"/><use transform="matrix(0.06172839506172839,0,0,0.06172839506172839,37.03703703703704,0)" xlink:href="#N"/><use transform="matrix(0.06172839506172839,0,0,0.06172839506172839,43.20987654320988,0)" xlink:href="#W"/><use transform="matrix(0.06172839506172839,0,0,0.06172839506172839,55.55555555555556,0)" xlink:href="#D"/><use transform="matrix(0.06172839506172839,0,0,0.06172839506172839,67.90123456790124,0)" xlink:href="#Y"/><use transform="matrix(0.06172839506172839,0,0,0.06172839506172839,80.24691358024693,0)" xlink:href="#Z"/><use transform="matrix(0.06172839506172839,0,0,0.06172839506172839,86.41975308641976,0)" xlink:href="#E"/><use transform="matrix(0.06172839506172839,0,0,0.06172839506172839,98.76543209876544,0)" xlink:href="#W"/></g><path fill="#333" d="M27 0v-27h64v-190l-56 39v-29l58-41h29v221h61V0H27" id="aa"/><use transform="matrix(0.049382716049382706,0,0,0.049382716049382706,0,0)" xlink:href="#aa" id="i"/><use transform="matrix(0.049382716049382706,0,0,0.049382716049382706,0,0)" xlink:href="#E" id="j"/><use transform="matrix(0.049382716049382706,0,0,0.049382716049382706,0,0)" xlink:href="#D" id="k"/><use transform="matrix(0.049382716049382706,0,0,0.049382716049382706,0,0)" xlink:href="#Y" id="l"/><path fill="#333" d="M137 0h-34L2-248h35l83 218 83-218h36" id="ab"/><path fill="#333" d="M30-248c87 1 191-15 191 75 0 78-77 80-158 76V0H30v-248zm33 125c57 0 124 11 124-50 0-59-68-47-124-48v98" id="ac"/><g id="m"><use transform="matrix(0.06172839506172839,0,0,0.06172839506172839,0,0)" xlink:href="#ab"/><use transform="matrix(0.06172839506172839,0,0,0.06172839506172839,14.814814814814813,0)" xlink:href="#ac"/><use transform="matrix(0.06172839506172839,0,0,0.06172839506172839,29.629629629629626,0)" xlink:href="#C"/><use transform="matrix(0.06172839506172839,0,0,0.06172839506172839,42.59259259259259,0)" xlink:href="#L"/><use transform="matrix(0.06172839506172839,0,0,0.06172839506172839,54.938271604938265,0)" xlink:href="#D"/><use transform="matrix(0.06172839506172839,0,0,0.06172839506172839,67.28395061728395,0)" xlink:href="#O"/><use transform="matrix(0.06172839506172839,0,0,0.06172839506172839,79.62962962962963,0)" xlink:href="#O"/><use transform="matrix(0.06172839506172839,0,0,0.06172839506172839,91.97530864197532,0)" xlink:href="#N"/><use transform="matrix(0.06172839506172839,0,0,0.06172839506172839,98.14814814814815,0)" xlink:href="#O"/><use transform="matrix(0.06172839506172839,0,0,0.06172839506172839,110.49382716049384,0)" xlink:href="#O"/><use transform="matrix(0.06172839506172839,0,0,0.06172839506172839,122.83950617283952,0)" xlink:href="#O"/></g><path fill="#333" d="M101-234c-31-9-42 10-38 44h38v23H63V0H32v-167H5v-23h27c-7-52 17-82 69-68v24" id="ad"/><g id="n"><use transform="matrix(0.06172839506172839,0,0,0.06172839506172839,0,0)" xlink:href="#ad"/><use transform="matrix(0.06172839506172839,0,0,0.06172839506172839,5.7407407407407405,0)" xlink:href="#ad"/></g><use transform="matrix(0.049382716049382706,0,0,0.049382716049382706,0,0)" xlink:href="#M" id="o"/><use transform="matrix(0.049382716049382706,0,0,0.049382716049382706,0,0)" xlink:href="#X" id="p"/><g id="q"><use transform="matrix(0.06172839506172839,0,0,0.06172839506172839,0,0)" xlink:href="#L"/><use transform="matrix(0.06172839506172839,0,0,0.06172839506172839,12.345679012345679,0)" xlink:href="#aa"/><use transform="matrix(0.06172839506172839,0,0,0.06172839506172839,23.02469135802469,0)" xlink:href="#aa"/><use transform="matrix(0.06172839506172839,0,0,0.06172839506172839,35.37037037037037,0)" xlink:href="#Y"/><use transform="matrix(0.06172839506172839,0,0,0.06172839506172839,47.716049382716044,0)" xlink:href="#N"/><use transform="matrix(0.06172839506172839,0,0,0.06172839506172839,53.888888888888886,0)" xlink:href="#X"/><use transform="matrix(0.06172839506172839,0,0,0.06172839506172839,66.23456790123457,0)" xlink:href="#aa"/><use transform="matrix(0.06172839506172839,0,0,0.06172839506172839,78.58024691358025,0)" xlink:href="#E"/><use transform="matrix(0.06172839506172839,0,0,0.06172839506172839,90.92592592592594,0)" xlink:href="#Z"/><use transform="matrix(0.06172839506172839,0,0,0.06172839506172839,97.09876543209877,0)" xlink:href="#M"/><use transform="matrix(0.06172839506172839,0,0,0.06172839506172839,109.44444444444446,0)" xlink:href="#X"/></g><g id="r"><use transform="matrix(0.06172839506172839,0,0,0.06172839506172839,0,0)" xlink:href="#aa"/><use transform="matrix(0.06172839506172839,0,0,0.06172839506172839,10.679012345679013,0)" xlink:href="#aa"/><use transform="matrix(0.06172839506172839,0,0,0.06172839506172839,23.02469135802469,0)" xlink:href="#Y"/><use transform="matrix(0.06172839506172839,0,0,0.06172839506172839,35.37037037037037,0)" xlink:href="#N"/><use transform="matrix(0.06172839506172839,0,0,0.06172839506172839,41.54320987654321,0)" xlink:href="#X"/><use transform="matrix(0.06172839506172839,0,0,0.06172839506172839,53.888888888888886,0)" xlink:href="#aa"/><use transform="matrix(0.06172839506172839,0,0,0.06172839506172839,66.23456790123457,0)" xlink:href="#E"/><use transform="matrix(0.06172839506172839,0,0,0.06172839506172839,78.58024691358025,0)" xlink:href="#Z"/><use transform="matrix(0.06172839506172839,0,0,0.06172839506172839,84.75308641975309,0)" xlink:href="#M"/><use transform="matrix(0.06172839506172839,0,0,0.06172839506172839,97.09876543209877,0)" xlink:href="#X"/></g><g id="s"><use transform="matrix(0.06172839506172839,0,0,0.06172839506172839,0,0)" xlink:href="#H"/><use transform="matrix(0.06172839506172839,0,0,0.06172839506172839,12.345679012345679,0)" xlink:href="#R"/><use transform="matrix(0.06172839506172839,0,0,0.06172839506172839,24.691358024691358,0)" xlink:href="#S"/></g><use transform="matrix(0.04938271604938272,0,0,0.04938271604938272,0,0)" xlink:href="#V" id="t"/><use transform="matrix(0.049382716049382706,0,0,0.049382716049382706,0,0)" xlink:href="#aa" id="u"/><use transform="matrix(0.049382716049382706,0,0,0.049382716049382706,0,0)" xlink:href="#E" id="v"/><g id="w"><use transform="matrix(0.06172839506172839,0,0,0.06172839506172839,0,0)" xlink:href="#ab"/><use transform="matrix(0.06172839506172839,0,0,0.06172839506172839,14.814814814814813,0)" xlink:href="#ac"/><use transform="matrix(0.06172839506172839,0,0,0.06172839506172839,29.629629629629626,0)" xlink:href="#C"/><use transform="matrix(0.06172839506172839,0,0,0.06172839506172839,42.59259259259259,0)" xlink:href="#L"/><use transform="matrix(0.06172839506172839,0,0,0.06172839506172839,54.938271604938265,0)" xlink:href="#D"/><use transform="matrix(0.06172839506172839,0,0,0.06172839506172839,67.28395061728395,0)" xlink:href="#O"/><use transform="matrix(0.06172839506172839,0,0,0.06172839506172839,79.62962962962963,0)" xlink:href="#O"/><use transform="matrix(0.06172839506172839,0,0,0.06172839506172839,91.97530864197532,0)" xlink:href="#N"/><use transform="matrix(0.06172839506172839,0,0,0.06172839506172839,98.14814814814815,0)" xlink:href="#O"/><use transform="matrix(0.06172839506172839,0,0,0.06172839506172839,110.49382716049384,0)" xlink:href="#O"/><use transform="matrix(0.06172839506172839,0,0,0.06172839506172839,122.83950617283952,0)" xlink:href="#O"/></g><g id="x"><use transform="matrix(0.06172839506172839,0,0,0.06172839506172839,0,0)" xlink:href="#ad"/><use transform="matrix(0.06172839506172839,0,0,0.06172839506172839,5.7407407407407405,0)" xlink:href="#ad"/></g><use transform="matrix(0.049382716049382706,0,0,0.049382716049382706,0,0)" xlink:href="#D" id="y"/><path fill="#333" d="M115-194c55 1 70 41 70 98S169 2 115 4C84 4 66-9 55-30l1 105H24l-1-265h31l2 30c10-21 28-34 59-34zm-8 174c40 0 45-34 45-75s-6-73-45-74c-42 0-51 32-51 76 0 43 10 73 51 73" id="ae"/><g id="z"><use transform="matrix(0.06172839506172839,0,0,0.06172839506172839,0,0)" xlink:href="#ae"/><use transform="matrix(0.06172839506172839,0,0,0.06172839506172839,12.345679012345679,0)" xlink:href="#I"/><use transform="matrix(0.06172839506172839,0,0,0.06172839506172839,23.45679012345679,0)" xlink:href="#J"/></g><g id="A"><use transform="matrix(0.06172839506172839,0,0,0.06172839506172839,0,0)" xlink:href="#ae"/><use transform="matrix(0.06172839506172839,0,0,0.06172839506172839,12.345679012345679,0)" xlink:href="#H"/><use transform="matrix(0.06172839506172839,0,0,0.06172839506172839,24.691358024691358,0)" xlink:href="#J"/></g></defs></g></svg>