<?xml version="1.0" encoding="UTF-8" standalone="no"?>
<svg
   width="491.14"
   height="341.73"
   version="1.1"
   id="svg1417"
   sodipodi:docname="Capitulo4Ejemplo9.svg"
   inkscape:version="1.2.2 (732a01da63, 2022-12-09)"
   xmlns:inkscape="http://www.inkscape.org/namespaces/inkscape"
   xmlns:sodipodi="http://sodipodi.sourceforge.net/DTD/sodipodi-0.dtd"
   xmlns:xlink="http://www.w3.org/1999/xlink"
   xmlns="http://www.w3.org/2000/svg"
   xmlns:svg="http://www.w3.org/2000/svg"
   xmlns:lucid="lucid">
  <defs
     id="defs1421" />
  <sodipodi:namedview
     id="namedview1419"
     pagecolor="#ffffff"
     bordercolor="#000000"
     borderopacity="0.25"
     inkscape:showpageshadow="2"
     inkscape:pageopacity="0.0"
     inkscape:pagecheckerboard="0"
     inkscape:deskcolor="#d1d1d1"
     showgrid="false"
     inkscape:zoom="2.3585871"
     inkscape:cx="245.48595"
     inkscape:cy="174.68085"
     inkscape:window-width="1920"
     inkscape:window-height="1009"
     inkscape:window-x="-8"
     inkscape:window-y="-8"
     inkscape:window-maximized="1"
     inkscape:current-layer="svg1417" />
  <g
     transform="translate(-679.8641975308642 -129)"
     lucid:page-tab-id="0_0"
     id="g1415">
    <path
       d="M1121.5 241H741v-2h380.5z"
       fill="#5e5e5e"
       id="path1236" />
    <path
       d="M741.03 241H740v-2h1.03zM1136.76 240l-14.26 4.64v-9.28z"
       fill="#5e5e5e"
       id="path1238" />
    <use
       xlink:href="#a"
       transform="matrix(1,0,0,1,1126.716049382716,244.00000000000003) translate(0.005000000000000782 14.222222222222223)"
       id="use1242" />
    <path
       d="M741 239h-2v-60.5h2z"
       fill="#5e5e5e"
       id="path1244"
       style="fill:#19ff2c;fill-opacity:1" />
    <path
       d="M741 240h-2v-1.03h2zM744.64 177.5h-9.28l2.23-6.83h4.8z"
       fill="#5e5e5e"
       id="path1246"
       style="fill:#1cff47;fill-opacity:1" />
    <path
       d="M805 321.5h-2V268h2zm0-74.83h-2V241h2z"
       fill="#5e5e5e"
       id="path1252"
       style="fill:#ff1a1a;fill-opacity:1" />
    <path
       d="M805 241.03h-2V240h2zM804 336.76l-4.64-14.26h9.28z"
       fill="#5e5e5e"
       id="path1254"
       style="fill:#ff1a1a;fill-opacity:1" />
    <use
       xlink:href="#c"
       transform="matrix(1,0,0,1,799.0617283950618,246.66666666666666) translate(0.004999999999999893 14.222222222222223)"
       id="use1258" />
    <path
       d="M881 321.5h-2V264h2zm0-78.83h-2V241h2z"
       fill="#5e5e5e"
       id="path1260"
       style="fill:#ff1a1a;fill-opacity:1" />
    <path
       d="M881 241.03h-2V240h2zM880 336.76l-4.64-14.26h9.28z"
       fill="#5e5e5e"
       id="path1262"
       style="fill:#ff1a1a;fill-opacity:1" />
    <use
       xlink:href="#d"
       transform="matrix(1,0,0,1,875.0617283950618,242.66666666666669) translate(0.004999999999999893 14.222222222222223)"
       id="use1266" />
    <path
       d="M960 321.5h-2v-54.83h2zm0-76.17h-2V241h2z"
       fill="#5e5e5e"
       id="path1268"
       style="fill:#ff1a1a;fill-opacity:1" />
    <path
       d="M960 241.03h-2V240h2zM959 336.76l-4.64-14.26h9.27z"
       fill="#5e5e5e"
       id="path1270"
       style="fill:#ff1a1a;fill-opacity:1" />
    <use
       xlink:href="#e"
       transform="matrix(1,0,0,1,954.0597283950618,245.33333333333334) translate(0.004999999999999893 14.222222222222223)"
       id="use1274" />
    <path
       d="M1049 290v31.5h-2v-54.83h2zm0-44.67h-2V241h2z"
       fill="#5e5e5e"
       id="path1276"
       style="fill:#ff1a1a;fill-opacity:1" />
    <path
       d="M1049 241.03h-2V240h2zM1048 336.76l-4.64-14.26h9.27z"
       fill="#5e5e5e"
       id="path1278"
       style="fill:#ff1a1a;fill-opacity:1" />
    <use
       xlink:href="#f"
       transform="matrix(1,0,0,1,1043.0617283950617,245.33349333333334) translate(0.004999999999999893 14.222222222222223)"
       id="use1282" />
    <path
       d="M805 340h242M805.03 340H804M1046.97 340h1.03"
       stroke="#5e5e5e"
       stroke-width="2"
       fill="none"
       id="path1284" />
    <path
       d="M741 409.33h-2v-3.2h2zm0-7.14h-2v-5.94h2zm0-9.9h-2v-5.93h2zm0-9.9h-2v-5.92h2zm0-9.88h-2v-5.93h2zm0-9.9h-2v-5.92h2zm0-9.88h-2v-5.93h2zm0-9.88h-2v-5.94h2zm0-9.9h-2v-5.93h2zm0-9.88h-2v-5.94h2zm0-9.9h-2v-5.92h2zm0-9.88h-2v-5.93h2zm0-9.9h-2v-5.92h2zm0-9.88h-2v-5.93h2zm0-9.9h-2v-5.92h2zm0-9.88h-2v-.07h2zm0-21.4h-2V241h2z"
       fill="#5e5e5e"
       id="path1288" />
    <path
       fill="#5e5e5e"
       id="path1290" />
    <path
       d="M741 241.03h-2V240h2z"
       fill="#5e5e5e"
       id="path1292" />
    <use
       xlink:href="#i"
       transform="matrix(1,0,0,1,735.0617283950618,242.33333333333334) translate(0.004999999999999893 14.222222222222223)"
       id="use1296" />
    <path
       d="M1047.08 341.02l-.1 4.37-.3 5.1-.53 4.9-.7 4.66-.84 4.5-1 4.3-1.17 4.18-1.3 4.04-1.47 3.92-1.6 3.82-1.76 3.73-1.9 3.64-2.07 3.56-2.22 3.5-2.4 3.46-2.57 3.4-2.78 3.35-2.98 3.32-3.2 3.27-3.47 3.24-3.73 3.23-4 3.18-4.35 3.16-4.7 3.1-5.06 3.08-5.5 3.02-5.95 2.96-6.45 2.87-7.02 2.77-7.6 2.64-8.25 2.5-8.9 2.3-9.62 2.03-10.3 1.74-11 1.38-11.6.97-12.12.5h-12.5l-12.72-.52-12.7-1.07-12.5-1.58-12.05-2.04-11.45-2.42-10.72-2.75-9.9-2.98-9.04-3.15-8.2-3.24-7.38-3.3-6.62-3.27-5.88-3.24.97-1.75 5.84 3.22 6.53 3.24 7.3 3.25 8.13 3.22 8.96 3.12 9.82 2.96 10.63 2.73 11.37 2.42 11.98 2.02 12.4 1.57 12.62 1.06 12.63.53h12.43l12.04-.5 11.52-.97 10.9-1.37 10.22-1.74 9.53-2.02 8.84-2.27 8.17-2.46 7.54-2.6 6.93-2.75 6.4-2.84 5.87-2.9 5.42-3 5-3.02 4.62-3.06 4.27-3.1 3.95-3.13 3.66-3.17 3.4-3.2 3.15-3.2 2.94-3.26 2.72-3.3 2.53-3.33 2.34-3.38 2.18-3.43 2.02-3.5 1.87-3.57 1.73-3.65 1.57-3.73 1.43-3.85 1.3-3.96 1.13-4.1 1-4.23.83-4.4.67-4.6.5-4.8.32-5.02.08-4.32z"
       fill="#5e5e5e"
       id="path1298"
       style="fill:#201aff;fill-opacity:1" />
    <path
       d="M1047.1 340.02l-.02 1.03-2-.04.02-1.02zM757.12 425.88l-5.15 7.7-6.27-7.95v-2.98z"
       fill="#5e5e5e"
       id="path1300"
       style="fill:#261aff;fill-opacity:1" />
    <use
       xlink:href="#l"
       transform="translate(799.56764,415.16326)"
       id="use1308" />
    <use
       xlink:href="#m"
       transform="translate(831.32782,413.89131)"
       id="use1310" />
    <defs
       id="defs1413">
      <path
         fill="#333"
         d="M135-194c53 0 70 44 70 98 0 56-19 98-73 100-31 1-45-17-59-34 3 33 2 69 2 105H25l-1-265h48c2 10 0 23 3 31 11-24 29-35 60-35zM114-30c33 0 39-31 40-66 0-38-9-64-40-64-56 0-55 130 0 130"
         id="n" />
      <path
         fill="#333"
         d="M115-3C79 11 28 4 28-45v-112H4v-33h27l15-45h31v45h36v33H77v99c-1 23 16 31 38 25v30"
         id="o" />
      <path
         fill="#333"
         d="M128 0H69L1-190h53L99-40l48-150h52"
         id="p" />
      <g
         id="a">
        <use
           transform="matrix(0.04938271604938272,0,0,0.04938271604938272,0,0)"
           xlink:href="#n"
           id="use1315" />
        <use
           transform="matrix(0.04938271604938272,0,0,0.04938271604938272,10.814814814814815,0)"
           xlink:href="#o"
           id="use1317" />
        <use
           transform="matrix(0.04938271604938272,0,0,0.04938271604938272,16.691358024691358,0)"
           xlink:href="#p"
           id="use1319" />
      </g>
      <path
         fill="#333"
         d="M147 0H94L2-248h55l64 206c17-72 42-137 63-206h54"
         id="q" />
      <path
         fill="#333"
         d="M24-248c93 1 206-16 204 79-1 75-69 88-152 82V0H24v-248zm52 121c47 0 100 7 100-41 0-47-54-39-100-39v80"
         id="r" />
      <path
         fill="#333"
         d="M15-148v-39h180v39H15zm0 97v-39h180v39H15"
         id="s" />
      <path
         fill="#333"
         d="M111-147c44 9 85 22 84 75-1 49-35 65-84 68v31H91V-4C40-5 12-27 5-72l45-8c4 24 15 38 41 40-2-22 4-51-2-69-39-10-76-22-76-72 0-47 35-60 78-63v-23h20v23c47 1 70 23 78 62l-46 7c-4-18-12-32-32-34v62zm-20-63c-33-4-45 46-13 54 4 1 8 2 13 4v-58zm20 170c39 5 53-51 15-60-7-2-7-2-15-4v64"
         id="t" />
      <path
         fill="#333"
         d="M23 0v-37h61v-169l-59 37v-38l62-41h46v211h57V0H23"
         id="u" />
      <path
         fill="#333"
         d="M101-251c68 0 84 54 84 127C185-50 166 4 99 4S15-52 14-124c-1-75 17-127 87-127zm-1 216c37-5 36-46 36-89s4-89-36-89c-39 0-36 45-36 89 0 43-3 85 36 89"
         id="v" />
      <path
         fill="#333"
         d="M24 0v-54h51V0H24"
         id="w" />
      <g
         id="b">
        <use
           transform="matrix(0.04938271604938272,0,0,0.04938271604938272,0,0)"
           xlink:href="#q"
           id="use1329" />
        <use
           transform="matrix(0.04938271604938272,0,0,0.04938271604938272,11.851851851851853,0)"
           xlink:href="#r"
           id="use1331" />
        <use
           transform="matrix(0.04938271604938272,0,0,0.04938271604938272,23.703703703703706,0)"
           xlink:href="#s"
           id="use1333" />
        <use
           transform="matrix(0.04938271604938272,0,0,0.04938271604938272,34.074074074074076,0)"
           xlink:href="#t"
           id="use1335" />
        <use
           transform="matrix(0.04938271604938272,0,0,0.04938271604938272,43.95061728395062,0)"
           xlink:href="#u"
           id="use1337" />
        <use
           transform="matrix(0.04938271604938272,0,0,0.04938271604938272,53.827160493827165,0)"
           xlink:href="#v"
           id="use1339" />
        <use
           transform="matrix(0.04938271604938272,0,0,0.04938271604938272,63.70370370370371,0)"
           xlink:href="#w"
           id="use1341" />
        <use
           transform="matrix(0.04938271604938272,0,0,0.04938271604938272,68.64197530864197,0)"
           xlink:href="#v"
           id="use1343" />
        <use
           transform="matrix(0.04938271604938272,0,0,0.04938271604938272,78.51851851851852,0)"
           xlink:href="#v"
           id="use1345" />
        <use
           transform="matrix(0.04938271604938272,0,0,0.04938271604938272,88.39506172839506,0)"
           xlink:href="#v"
           id="use1347" />
      </g>
      <use
         transform="matrix(0.04938271604938272,0,0,0.04938271604938272,0,0)"
         xlink:href="#u"
         id="c" />
      <path
         fill="#333"
         d="M182-182c0 78-84 86-111 141h115V0H12c-6-101 99-100 120-180 1-22-12-31-33-32-23 0-32 14-35 34l-49-3c5-45 32-70 84-70 51 0 83 22 83 69"
         id="x" />
      <use
         transform="matrix(0.04938271604938272,0,0,0.04938271604938272,0,0)"
         xlink:href="#x"
         id="d" />
      <path
         fill="#333"
         d="M128-127c34 4 56 21 59 58 7 91-148 94-172 28-4-9-6-17-7-26l51-5c1 24 16 35 40 36 23 0 39-12 38-36-1-31-31-36-65-34v-40c32 2 59-3 59-33 0-20-13-33-34-33s-33 13-35 32l-50-3c6-44 37-68 86-68 50 0 83 20 83 66 0 35-22 52-53 58"
         id="y" />
      <use
         transform="matrix(0.04938271604938272,0,0,0.04938271604938272,0,0)"
         xlink:href="#y"
         id="e" />
      <path
         fill="#333"
         d="M165-50V0h-47v-50H5v-38l105-160h55v161h33v37h-33zm-47-37l2-116L46-87h72"
         id="z" />
      <use
         transform="matrix(0.04938271604938272,0,0,0.04938271604938272,0,0)"
         xlink:href="#z"
         id="f" />
      <path
         fill="#333"
         d="M240-174c0 40-23 61-54 70L253 0h-59l-57-94H76V0H24v-248c93 4 217-23 216 74zM76-134c48-2 112 12 112-38 0-48-66-32-112-35v73"
         id="A" />
      <path
         fill="#333"
         d="M110-251c83-7 118 89 53 130-17 10-36 21-38 46H78c2-56 65-53 71-103 2-21-15-35-38-34-25 1-41 14-44 38l-50-2c6-48 39-70 93-75zM77 0v-47h51V0H77"
         id="B" />
      <g
         id="g">
        <use
           transform="matrix(0.04938271604938272,0,0,0.04938271604938272,0,0)"
           xlink:href="#A"
           id="use1359" />
        <use
           transform="matrix(0.04938271604938272,0,0,0.04938271604938272,12.790123456790125,0)"
           xlink:href="#s"
           id="use1361" />
        <use
           transform="matrix(0.04938271604938272,0,0,0.04938271604938272,23.160493827160497,0)"
           xlink:href="#t"
           id="use1363" />
        <use
           transform="matrix(0.04938271604938272,0,0,0.04938271604938272,33.03703703703704,0)"
           xlink:href="#B"
           id="use1365" />
      </g>
      <path
         fill="#333"
         d="M93-157L62 0H13l31-157H16l6-33h28c2-54 40-81 100-68l-6 32c-29-8-44 9-45 36h38l-7 33H93"
         id="C" />
      <g
         id="h">
        <use
           transform="matrix(0.04938271604938272,0,0,0.04938271604938272,0,0)"
           xlink:href="#C"
           id="use1369" />
        <use
           transform="matrix(0.04938271604938272,0,0,0.04938271604938272,5.530864197530865,0)"
           xlink:href="#C"
           id="use1371" />
      </g>
      <use
         transform="matrix(0.04938271604938272,0,0,0.04938271604938272,0,0)"
         xlink:href="#v"
         id="i" />
      <path
         fill="#333"
         d="M25-224v-37h50v37H25zM75 22c2 45-34 59-81 51V38c22 5 31-5 31-27v-201h50V22"
         id="D" />
      <path
         fill="#333"
         d="M249-155c45 1 62 31 62 79-1 48-18 79-63 79s-61-32-62-79c0-48 16-79 63-79zM97 0H61l162-248h36zM9-172c0-48 16-79 63-78 46 0 62 31 62 78 0 48-18 79-63 79S9-124 9-172zM249-25c24 0 24-26 24-51 0-26-1-52-24-52-24 0-25 26-25 52 0 25 0 51 25 51zM71-120c23 0 24-25 24-52 0-26 0-51-23-51-25 0-25 25-25 51 0 27 1 52 24 52"
         id="E" />
      <g
         id="j">
        <use
           transform="matrix(0.04938271604938272,0,0,0.04938271604938272,0,0)"
           xlink:href="#D"
           id="use1377" />
        <use
           transform="matrix(0.04938271604938272,0,0,0.04938271604938272,4.938271604938272,0)"
           xlink:href="#s"
           id="use1379" />
        <use
           transform="matrix(0.04938271604938272,0,0,0.04938271604938272,15.308641975308642,0)"
           xlink:href="#z"
           id="use1381" />
        <use
           transform="matrix(0.04938271604938272,0,0,0.04938271604938272,25.18518518518519,0)"
           xlink:href="#v"
           id="use1383" />
        <use
           transform="matrix(0.04938271604938272,0,0,0.04938271604938272,35.061728395061735,0)"
           xlink:href="#E"
           id="use1385" />
      </g>
      <path
         fill="#333"
         d="M135-194c87-1 58 113 63 194h-50c-7-57 23-157-34-157-59 0-34 97-39 157H25l-1-190h47c2 12-1 28 3 38 12-26 28-41 61-42"
         id="F" />
      <path
         fill="#333"
         d="M133-34C117-15 103 5 69 4 32 3 11-16 11-54c-1-60 55-63 116-61 1-26-3-47-28-47-18 1-26 9-28 27l-52-2c7-38 36-58 82-57s74 22 75 68l1 82c-1 14 12 18 25 15v27c-30 8-71 5-69-32zm-48 3c29 0 43-24 42-57-32 0-66-3-65 30 0 17 8 27 23 27"
         id="G" />
      <g
         id="k">
        <use
           transform="matrix(0.04938271604938272,0,0,0.04938271604938272,0,0)"
           xlink:href="#F"
           id="use1390" />
        <use
           transform="matrix(0.04938271604938272,0,0,0.04938271604938272,10.814814814814815,0)"
           xlink:href="#G"
           id="use1392" />
        <use
           transform="matrix(0.04938271604938272,0,0,0.04938271604938272,20.69135802469136,0)"
           xlink:href="#o"
           id="use1394" />
        <use
           transform="matrix(0.04938271604938272,0,0,0.04938271604938272,26.567901234567902,0)"
           xlink:href="#p"
           id="use1396" />
      </g>
      <g
         id="l">
        <use
           transform="matrix(0.04938271604938272,0,0,0.04938271604938272,0,0)"
           xlink:href="#F"
           id="use1399" />
        <use
           transform="matrix(0.04938271604938272,0,0,0.04938271604938272,10.814814814814815,0)"
           xlink:href="#s"
           id="use1401" />
        <use
           transform="matrix(0.04938271604938272,0,0,0.04938271604938272,21.185185185185187,0)"
           xlink:href="#z"
           id="use1403" />
      </g>
      <g
         id="m">
        <use
           transform="matrix(0.04938271604938272,0,0,0.04938271604938272,0,0)"
           xlink:href="#n"
           id="use1406" />
        <use
           transform="matrix(0.04938271604938272,0,0,0.04938271604938272,10.814814814814815,0)"
           xlink:href="#o"
           id="use1408" />
        <use
           transform="matrix(0.04938271604938272,0,0,0.04938271604938272,16.691358024691358,0)"
           xlink:href="#p"
           id="use1410" />
      </g>
    </defs>
  </g>
  <text
     xml:space="preserve"
     style="font-size:16px;font-family:Arial;-inkscape-font-specification:Arial;fill:#000000"
     x="31.798691"
     y="37.310471"
     id="text2784"><tspan
       sodipodi:role="line"
       id="tspan2782"
       x="31.798691"
       y="37.310471">VP=10.000.000 COP</tspan></text>
  <text
     xml:space="preserve"
     style="font-size:16px;font-family:Arial;-inkscape-font-specification:Arial;fill:#000000"
     x="119.13911"
     y="270.07693"
     id="text7194"><tspan
       sodipodi:role="line"
       x="119.13911"
       y="270.07693"
       id="tspan7196">i=10% ptv</tspan></text>
  <text
     xml:space="preserve"
     style="font-size:16px;font-family:Arial;-inkscape-font-specification:Arial;fill:#000000"
     x="52.997833"
     y="296.36386"
     id="text9380"><tspan
       sodipodi:role="line"
       id="tspan9378"
       x="52.997833"
       y="296.36386">pf</tspan></text>
  <text
     xml:space="preserve"
     style="font-size:16px;font-family:Arial;-inkscape-font-specification:Arial;fill:#000000"
     x="117.44318"
     y="252.26967"
     id="text9431"><tspan
       sodipodi:role="line"
       id="tspan9429"
       x="117.44318"
       y="252.26967">R=?COP</tspan></text>
</svg>
