<?xml version="1.0" encoding="UTF-8" standalone="no"?>
<!-- Created with Inkscape (http://www.inkscape.org/) -->

<svg
   version="1.1"
   id="svg1516"
   width="300"
   height="170.95438"
   viewBox="0 0 300 170.95438"
   xmlns="http://www.w3.org/2000/svg"
   xmlns:svg="http://www.w3.org/2000/svg">
  <defs
     id="defs1520">
    <clipPath
       clipPathUnits="userSpaceOnUse"
       id="clipPath1582">
      <path
         d="M 0,0 H 723 V 412 H 0 Z"
         id="path1580" />
    </clipPath>
  </defs>
  <g
     id="g1524"
     transform="matrix(0.41493776,0,0,-0.41493776,0,170.54155)">
    <g
       id="g1526">
      <g
         id="g1528">
        <g
           id="g1530">
          <g
             id="g1532">
            <g
               id="g1534">
              <g
                 id="g1536">
                <g
                   id="g1538">
                  <g
                     id="g1540">
                    <g
                       id="g1542">
                      <g
                         id="g1544">
                        <g
                           id="g1546">
                          <g
                             id="g1548">
                            <g
                               id="g1550">
                              <g
                                 id="g1552">
                                <g
                                   id="g1554">
                                <g
                                   id="g1556">
                                <g
                                   id="g1558">
                                <g
                                   id="g1560">
                                <g
                                   id="g1562">
                                <g
                                   id="g1564">
                                <g
                                   id="g1566">
                                <g
                                   id="g1568"
                                   transform="matrix(1,0,0,-1,0,411.00513)">
                                <g
                                   id="g1570" />
                                <g
                                   id="g1572">
                                <g
                                   id="g1574">
                                <g
                                   id="g1576">
                                <g
                                   id="g1578"
                                   clip-path="url(#clipPath1582)">
                                <g
                                   id="g1584">
                                <path
                                   d="M 0,0 H 723 V 412 H 0 Z"
                                   style="fill:#ffffff;fill-opacity:1;fill-rule:nonzero;stroke:none"
                                   id="path1586" />
                                <path
                                   d="m 617.609,256.793 c -1.433,-0.414 -1.945,0.465 -1.757,2.039 h 1.757 v 1.063 h -1.757 v 7.734 h -1.438 v -7.734 h -1.25 v -1.063 h 1.25 c -0.324,-2.41 0.789,-3.797 3.195,-3.148 v 1.109"
                                   style="fill:#000000;fill-opacity:1;fill-rule:nonzero;stroke:none"
                                   id="path1588" />
                                <path
                                   d="m 621.914,256.793 c -1.434,-0.414 -1.941,0.465 -1.758,2.039 h 1.758 v 1.063 h -1.758 v 7.734 h -1.433 v -7.734 h -1.25 v -1.063 h 1.25 c -0.325,-2.41 0.785,-3.797 3.191,-3.148 v 1.109"
                                   style="fill:#000000;fill-opacity:1;fill-rule:nonzero;stroke:none"
                                   id="path1590" />
                                <path
                                   d="m 568.203,87.629 h -1.574 l -4.676,-11.484 h 1.621 l 3.84,10.093 3.844,-10.093 h 1.668"
                                   style="fill:#000000;fill-opacity:1;fill-rule:nonzero;stroke:none"
                                   id="path1592" />
                                <path
                                   d="m 575.887,77.441 v 4.262 h 6.39 v 1.293 h -6.39 v 4.633 h -1.528 V 76.145 h 8.102 v 1.296 h -6.574"
                                   style="fill:#000000;fill-opacity:1;fill-rule:nonzero;stroke:none"
                                   id="path1594" />
                                <path
                                   d="M 583.945,80.684 V 79.48 H 592 v 1.204 z m 0,4.164 V 83.645 H 592 v 1.203 h -8.055"
                                   style="fill:#000000;fill-opacity:1;fill-rule:nonzero;stroke:none"
                                   id="path1596" />
                                <path
                                   d="m 601.812,84.387 c 0,2.129 -1.574,2.961 -3.75,3.054 v 1.344 h -1.015 v -1.344 c -2.27,-0.046 -3.66,-1.062 -4.031,-2.914 l 1.39,-0.281 c 0.231,1.297 1.156,1.899 2.641,1.992 v -4.027 c -1.762,-0.418 -3.52,-0.926 -3.52,-3.102 0.047,-1.945 1.528,-2.687 3.52,-2.73 v -1.067 h 1.015 v 1.067 c 2.086,0 3.102,0.926 3.52,2.59 l -1.434,0.277 c -0.234,-1.062 -0.836,-1.617 -2.086,-1.711 v 3.61 c 1.899,0.464 3.75,0.925 3.75,3.242 z m -3.75,1.898 c 2.364,0.324 3.29,-3.055 0.883,-3.566 -0.281,-0.09 -0.558,-0.184 -0.883,-0.278 z m -1.015,-8.797 c -2.176,-0.277 -2.918,2.641 -0.836,3.196 0.277,0.093 0.555,0.136 0.836,0.23 v -3.426"
                                   style="fill:#000000;fill-opacity:1;fill-rule:nonzero;stroke:none"
                                   id="path1598" />
                                <path
                                   d="m 606.676,76.008 c 2.961,0 3.886,2.312 3.886,5.648 0,4.258 -2.453,7.5 -6.296,5.602 -0.645,-0.324 -0.926,-1.067 -1.157,-1.852 l 1.391,-0.234 c 0.277,1.808 3.195,1.808 3.887,0.324 0.418,-0.879 0.742,-2.035 0.742,-3.426 -0.465,1.02 -1.434,1.621 -2.871,1.621 -2.27,0 -3.379,-1.527 -3.379,-3.843 0,-2.5 1.297,-3.84 3.797,-3.84 z m -0.047,6.527 c 1.433,-0.047 2.359,-0.832 2.359,-2.269 0,-1.668 -0.648,-3.102 -2.359,-3.102 -1.574,0 -2.27,1.066 -2.27,2.684 0,1.574 0.696,2.687 2.27,2.687"
                                   style="fill:#000000;fill-opacity:1;fill-rule:nonzero;stroke:none"
                                   id="path1600" />
                                <path
                                   d="m 616.027,76.008 c 3.149,0 3.934,2.547 3.934,5.879 0,3.332 -0.926,5.925 -3.981,5.925 -3.101,0 -3.98,-2.593 -3.98,-5.925 0,-3.379 0.785,-5.879 4.027,-5.879 z m -0.047,10.601 c 2.176,0 2.5,-2.269 2.5,-4.722 0,-2.453 -0.183,-4.723 -2.453,-4.723 -2.363,0 -2.547,2.223 -2.547,4.723 0,2.453 0.231,4.722 2.5,4.722"
                                   style="fill:#000000;fill-opacity:1;fill-rule:nonzero;stroke:none"
                                   id="path1602" />
                                <path
                                   d="m 625.285,76.008 c 3.149,0 3.938,2.547 3.938,5.879 0,3.332 -0.926,5.925 -3.985,5.925 -3.101,0 -3.98,-2.593 -3.98,-5.925 0,-3.379 0.789,-5.879 4.027,-5.879 z m -0.047,10.601 c 2.176,0 2.5,-2.269 2.5,-4.722 0,-2.453 -0.183,-4.723 -2.453,-4.723 -2.359,0 -2.547,2.223 -2.547,4.723 0,2.453 0.235,4.722 2.5,4.722"
                                   style="fill:#000000;fill-opacity:1;fill-rule:nonzero;stroke:none"
                                   id="path1604" />
                                <path
                                   d="m 631.398,85.867 h 1.574 v 1.762 h -1.574 z"
                                   style="fill:#000000;fill-opacity:1;fill-rule:nonzero;stroke:none"
                                   id="path1606" />
                                <path
                                   d="m 639.176,76.008 c 3.148,0 3.933,2.547 3.933,5.879 0,3.332 -0.925,5.925 -3.98,5.925 -3.102,0 -3.981,-2.593 -3.981,-5.925 0,-3.379 0.786,-5.879 4.028,-5.879 z m -0.047,10.601 c 2.176,0 2.5,-2.269 2.5,-4.722 0,-2.453 -0.184,-4.723 -2.453,-4.723 -2.364,0 -2.547,2.223 -2.547,4.723 0,2.453 0.23,4.722 2.5,4.722"
                                   style="fill:#000000;fill-opacity:1;fill-rule:nonzero;stroke:none"
                                   id="path1608" />
                                <path
                                   d="m 648.434,76.008 c 3.148,0 3.937,2.547 3.937,5.879 0,3.332 -0.926,5.925 -3.984,5.925 -3.102,0 -3.981,-2.593 -3.981,-5.925 0,-3.379 0.789,-5.879 4.028,-5.879 z m -0.047,10.601 c 2.175,0 2.5,-2.269 2.5,-4.722 0,-2.453 -0.184,-4.723 -2.453,-4.723 -2.36,0 -2.547,2.223 -2.547,4.723 0,2.453 0.234,4.722 2.5,4.722"
                                   style="fill:#000000;fill-opacity:1;fill-rule:nonzero;stroke:none"
                                   id="path1610" />
                                <path
                                   d="m 657.695,76.008 c 3.145,0 3.934,2.547 3.934,5.879 0,3.332 -0.926,5.925 -3.981,5.925 -3.101,0 -3.984,-2.593 -3.984,-5.925 0,-3.379 0.789,-5.879 4.031,-5.879 z m -0.047,10.601 c 2.176,0 2.5,-2.269 2.5,-4.722 0,-2.453 -0.187,-4.723 -2.453,-4.723 -2.363,0 -2.547,2.223 -2.547,4.723 0,2.453 0.231,4.722 2.5,4.722"
                                   style="fill:#000000;fill-opacity:1;fill-rule:nonzero;stroke:none"
                                   id="path1612" />
                                <path
                                   d="m 686.289,187.211 c 2.547,0.047 3.242,1.898 3.242,4.539 0,2.637 -0.742,4.535 -3.242,4.629 -1.434,0 -2.269,-0.602 -2.777,-1.574 l 0.047,4.863 h -1.481 l -0.047,-12.27 h 1.434 l 0.094,1.387 c 0.461,-0.973 1.296,-1.574 2.73,-1.574 z m -0.371,8.059 c 1.852,0 2.086,-1.575 2.086,-3.473 0,-1.899 -0.277,-3.379 -2.086,-3.426 -1.941,0 -2.359,1.481 -2.359,3.516 0,1.992 0.461,3.383 2.359,3.383"
                                   style="fill:#000000;fill-opacity:1;fill-rule:nonzero;stroke:none"
                                   id="path1614" />
                                <path
                                   d="m 692.957,194.02 c -0.094,1.109 0.832,1.339 1.758,1.015 v 1.113 c -1.527,0.461 -3.238,0.231 -3.238,-1.804 v -5.883 h -1.02 v -1.063 h 1.109 l 0.418,-1.992 h 0.973 v 1.992 h 1.621 v 1.063 h -1.621 v 5.559"
                                   style="fill:#000000;fill-opacity:1;fill-rule:nonzero;stroke:none"
                                   id="path1616" />
                                <path
                                   d="m 699.855,196.195 h -1.761 l -3.192,-8.797 h 1.575 l 2.5,7.637 2.589,-7.637 h 1.575"
                                   style="fill:#000000;fill-opacity:1;fill-rule:nonzero;stroke:none"
                                   id="path1618" />
                                <path
                                   d="m 25.164,181.195 v -1.25 h 2.965 v -8.797 l -2.594,1.805 v -1.344 l 2.684,-1.898 h 1.343 v 10.234 h 2.825 v 1.25 h -7.223"
                                   style="fill:#000000;fill-opacity:1;fill-rule:nonzero;stroke:none"
                                   id="path1620" />
                                <path
                                   d="m 35.676,174.621 c 2.219,-1.621 6.34,-0.371 6.062,2.824 0.512,4.582 -7.129,5.278 -7.918,1.203 l 1.485,-0.187 c 0.324,1.066 1.015,1.715 2.406,1.715 1.621,-0.047 2.359,-1.02 2.5,-2.688 0.184,-2.543 -3.379,-3.008 -4.582,-1.57 h -1.438 l 0.371,-6.207 h 6.528 v 1.25 h -5.184"
                                   style="fill:#000000;fill-opacity:1;fill-rule:nonzero;stroke:none"
                                   id="path1622" />
                                <path
                                   d="m 43.176,176.102 h 4.074 v 1.297 h -4.074 z"
                                   style="fill:#000000;fill-opacity:1;fill-rule:nonzero;stroke:none"
                                   id="path1624" />
                                <path
                                   d="m 49.191,181.195 v -1.25 h 2.965 v -8.797 l -2.594,1.805 v -1.344 l 2.688,-1.898 h 1.34 v 10.234 h 2.824 v 1.25 h -7.223"
                                   style="fill:#000000;fill-opacity:1;fill-rule:nonzero;stroke:none"
                                   id="path1626" />
                                <path
                                   d="m 61.879,169.574 c 3.148,0 3.933,2.547 3.933,5.879 0,3.332 -0.925,5.926 -3.98,5.926 -3.102,0 -3.98,-2.594 -3.98,-5.926 0,-3.379 0.785,-5.879 4.027,-5.879 z m -0.047,10.602 c 2.176,0 2.5,-2.27 2.5,-4.723 0,-2.453 -0.187,-4.723 -2.453,-4.723 -2.363,0 -2.547,2.223 -2.547,4.723 0,2.453 0.23,4.723 2.5,4.723"
                                   style="fill:#000000;fill-opacity:1;fill-rule:nonzero;stroke:none"
                                   id="path1628" />
                                <path
                                   d="m 67.203,176.102 h 4.074 v 1.297 h -4.074 z"
                                   style="fill:#000000;fill-opacity:1;fill-rule:nonzero;stroke:none"
                                   id="path1630" />
                                <path
                                   d="m 76.555,169.574 c 2.961,0 3.886,2.313 3.886,5.649 0,4.257 -2.453,7.5 -6.296,5.601 -0.645,-0.324 -0.926,-1.066 -1.157,-1.851 l 1.391,-0.235 c 0.277,1.809 3.191,1.809 3.887,0.324 0.418,-0.878 0.742,-2.035 0.742,-3.425 -0.465,1.019 -1.438,1.621 -2.871,1.621 -2.27,0 -3.379,-1.528 -3.379,-3.84 0,-2.5 1.297,-3.844 3.797,-3.844 z m -0.047,6.528 c 1.433,-0.047 2.359,-0.832 2.359,-2.27 0,-1.664 -0.648,-3.102 -2.359,-3.102 -1.574,0 -2.27,1.067 -2.27,2.688 0,1.57 0.696,2.684 2.27,2.684"
                                   style="fill:#000000;fill-opacity:1;fill-rule:nonzero;stroke:none"
                                   id="path1632" />
                                <path
                                   d="m 86.32,173.785 c 2.223,0.047 3.43,1.391 3.43,3.66 0,2.453 -1.297,3.934 -3.707,3.934 -3.008,0 -3.84,-2.547 -3.981,-5.649 -0.23,-4.168 2.317,-7.5 6.157,-5.648 0.648,0.324 1.019,0.973 1.25,1.805 l -1.434,0.281 c -0.23,-1.856 -3.101,-1.762 -3.797,-0.281 -0.418,0.883 -0.695,2.039 -0.695,3.425 0.512,-0.925 1.391,-1.574 2.777,-1.527 z M 86,180.176 c 1.57,0 2.266,-1.067 2.266,-2.688 0,-1.617 -0.739,-2.59 -2.313,-2.59 -1.344,0 -2.316,0.739 -2.269,2.27 0.046,1.664 0.695,3.008 2.316,3.008"
                                   style="fill:#000000;fill-opacity:1;fill-rule:nonzero;stroke:none"
                                   id="path1634" />
                                <g
                                   id="g1636">
                                <path
                                   d="m 42.953,185.359 h 615.375 m -615.355,0 h -0.77"
                                   style="fill:none;stroke:#5e5e5e;stroke-width:1.5;stroke-linecap:butt;stroke-linejoin:miter;stroke-miterlimit:4;stroke-dasharray:none;stroke-opacity:1"
                                   id="path1638" />
                                </g>
                                <g
                                   id="g1640">
                                <path
                                   d="m 669.773,185.359 -10.695,3.481 v -6.961 z"
                                   style="fill:#5e5e5e;fill-opacity:1;fill-rule:nonzero;stroke:#5e5e5e;stroke-width:1.5;stroke-linecap:butt;stroke-linejoin:miter;stroke-miterlimit:4;stroke-dasharray:none;stroke-opacity:1"
                                   id="path1642" />
                                </g>
                                <path
                                   d="m 115.164,181.195 v -1.25 h 2.965 v -8.797 l -2.594,1.805 v -1.344 l 2.684,-1.898 h 1.343 v 10.234 h 2.825 v 1.25 h -7.223"
                                   style="fill:#000000;fill-opacity:1;fill-rule:nonzero;stroke:none"
                                   id="path1644" />
                                <path
                                   d="m 125.676,174.621 c 2.219,-1.621 6.34,-0.371 6.062,2.824 0.512,4.582 -7.129,5.278 -7.918,1.203 l 1.485,-0.187 c 0.324,1.066 1.015,1.715 2.406,1.715 1.621,-0.047 2.359,-1.02 2.5,-2.688 0.184,-2.543 -3.379,-3.008 -4.582,-1.57 h -1.438 l 0.371,-6.207 h 6.528 v 1.25 h -5.184"
                                   style="fill:#000000;fill-opacity:1;fill-rule:nonzero;stroke:none"
                                   id="path1646" />
                                <path
                                   d="m 133.176,176.102 h 4.074 v 1.297 h -4.074 z"
                                   style="fill:#000000;fill-opacity:1;fill-rule:nonzero;stroke:none"
                                   id="path1648" />
                                <path
                                   d="m 142.617,169.574 c 3.149,0 3.938,2.547 3.938,5.879 0,3.332 -0.926,5.926 -3.985,5.926 -3.101,0 -3.98,-2.594 -3.98,-5.926 0,-3.379 0.789,-5.879 4.027,-5.879 z m -0.047,10.602 c 2.18,0 2.5,-2.27 2.5,-4.723 0,-2.453 -0.183,-4.723 -2.453,-4.723 -2.359,0 -2.547,2.223 -2.547,4.723 0,2.453 0.235,4.723 2.5,4.723"
                                   style="fill:#000000;fill-opacity:1;fill-rule:nonzero;stroke:none"
                                   id="path1650" />
                                <path
                                   d="m 148.453,181.195 v -1.25 h 2.961 v -8.797 l -2.594,1.805 v -1.344 l 2.688,-1.898 h 1.344 v 10.234 h 2.824 v 1.25 h -7.223"
                                   style="fill:#000000;fill-opacity:1;fill-rule:nonzero;stroke:none"
                                   id="path1652" />
                                <path
                                   d="m 157.203,176.102 h 4.074 v 1.297 h -4.074 z"
                                   style="fill:#000000;fill-opacity:1;fill-rule:nonzero;stroke:none"
                                   id="path1654" />
                                <path
                                   d="m 166.555,169.574 c 2.961,0 3.886,2.313 3.886,5.649 0,4.257 -2.453,7.5 -6.296,5.601 -0.645,-0.324 -0.926,-1.066 -1.157,-1.851 l 1.391,-0.235 c 0.277,1.809 3.191,1.809 3.887,0.324 0.418,-0.878 0.742,-2.035 0.742,-3.425 -0.465,1.019 -1.438,1.621 -2.871,1.621 -2.27,0 -3.379,-1.528 -3.379,-3.84 0,-2.5 1.297,-3.844 3.797,-3.844 z m -0.047,6.528 c 1.433,-0.047 2.359,-0.832 2.359,-2.27 0,-1.664 -0.648,-3.102 -2.359,-3.102 -1.574,0 -2.27,1.067 -2.27,2.688 0,1.57 0.696,2.684 2.27,2.684"
                                   style="fill:#000000;fill-opacity:1;fill-rule:nonzero;stroke:none"
                                   id="path1656" />
                                <path
                                   d="m 174.191,181.195 c 0.141,-4.539 2.223,-7.363 4.075,-10.234 h -6.204 v -1.25 h 7.594 v 1.207 c -1.804,3.008 -3.89,5.602 -3.937,10.277 h -1.528"
                                   style="fill:#000000;fill-opacity:1;fill-rule:nonzero;stroke:none"
                                   id="path1658" />
                                <path
                                   d="m 205.164,181.195 v -1.25 h 2.965 v -8.797 l -2.594,1.805 v -1.344 l 2.684,-1.898 h 1.343 v 10.234 h 2.825 v 1.25 h -7.223"
                                   style="fill:#000000;fill-opacity:1;fill-rule:nonzero;stroke:none"
                                   id="path1660" />
                                <path
                                   d="m 215.676,174.621 c 2.219,-1.621 6.34,-0.371 6.062,2.824 0.512,4.582 -7.129,5.278 -7.918,1.203 l 1.485,-0.187 c 0.324,1.066 1.015,1.715 2.406,1.715 1.621,-0.047 2.359,-1.02 2.5,-2.688 0.184,-2.543 -3.379,-3.008 -4.582,-1.57 h -1.438 l 0.371,-6.207 h 6.528 v 1.25 h -5.184"
                                   style="fill:#000000;fill-opacity:1;fill-rule:nonzero;stroke:none"
                                   id="path1662" />
                                <path
                                   d="m 223.176,176.102 h 4.074 v 1.297 h -4.074 z"
                                   style="fill:#000000;fill-opacity:1;fill-rule:nonzero;stroke:none"
                                   id="path1664" />
                                <path
                                   d="m 232.617,169.574 c 3.149,0 3.938,2.547 3.938,5.879 0,3.332 -0.926,5.926 -3.985,5.926 -3.101,0 -3.98,-2.594 -3.98,-5.926 0,-3.379 0.789,-5.879 4.027,-5.879 z m -0.047,10.602 c 2.18,0 2.5,-2.27 2.5,-4.723 0,-2.453 -0.183,-4.723 -2.453,-4.723 -2.359,0 -2.547,2.223 -2.547,4.723 0,2.453 0.235,4.723 2.5,4.723"
                                   style="fill:#000000;fill-opacity:1;fill-rule:nonzero;stroke:none"
                                   id="path1666" />
                                <path
                                   d="m 244.379,178.602 v 2.593 h -1.391 v -2.593 h -5.418 v -1.157 l 5.282,-7.734 h 1.527 v 7.734 H 246 v 1.157 z m -1.391,-7.223 c -1.25,2.129 -2.683,4.168 -4.074,6.066 h 4.074 v -6.066"
                                   style="fill:#000000;fill-opacity:1;fill-rule:nonzero;stroke:none"
                                   id="path1668" />
                                <path
                                   d="m 247.203,176.102 h 4.074 v 1.297 h -4.074 z"
                                   style="fill:#000000;fill-opacity:1;fill-rule:nonzero;stroke:none"
                                   id="path1670" />
                                <path
                                   d="m 256.555,169.574 c 2.961,0 3.886,2.313 3.886,5.649 0,4.257 -2.453,7.5 -6.296,5.601 -0.645,-0.324 -0.926,-1.066 -1.157,-1.851 l 1.391,-0.235 c 0.277,1.809 3.191,1.809 3.887,0.324 0.418,-0.878 0.742,-2.035 0.742,-3.425 -0.465,1.019 -1.438,1.621 -2.871,1.621 -2.27,0 -3.379,-1.528 -3.379,-3.84 0,-2.5 1.297,-3.844 3.797,-3.844 z m -0.047,6.528 c 1.433,-0.047 2.359,-0.832 2.359,-2.27 0,-1.664 -0.648,-3.102 -2.359,-3.102 -1.574,0 -2.27,1.067 -2.27,2.688 0,1.57 0.696,2.684 2.27,2.684"
                                   style="fill:#000000;fill-opacity:1;fill-rule:nonzero;stroke:none"
                                   id="path1672" />
                                <path
                                   d="m 264.191,181.195 c 0.141,-4.539 2.223,-7.363 4.075,-10.234 h -6.204 v -1.25 h 7.594 v 1.207 c -1.804,3.008 -3.89,5.602 -3.937,10.277 h -1.528"
                                   style="fill:#000000;fill-opacity:1;fill-rule:nonzero;stroke:none"
                                   id="path1674" />
                                <path
                                   d="m 295.164,181.195 v -1.25 h 2.965 v -8.797 l -2.594,1.805 v -1.344 l 2.684,-1.898 h 1.343 v 10.234 h 2.825 v 1.25 h -7.223"
                                   style="fill:#000000;fill-opacity:1;fill-rule:nonzero;stroke:none"
                                   id="path1676" />
                                <path
                                   d="m 305.676,174.621 c 2.219,-1.621 6.34,-0.371 6.062,2.824 0.512,4.582 -7.129,5.278 -7.918,1.203 l 1.485,-0.187 c 0.324,1.066 1.015,1.715 2.406,1.715 1.621,-0.047 2.359,-1.02 2.5,-2.688 0.184,-2.543 -3.379,-3.008 -4.582,-1.57 h -1.438 l 0.371,-6.207 h 6.528 v 1.25 h -5.184"
                                   style="fill:#000000;fill-opacity:1;fill-rule:nonzero;stroke:none"
                                   id="path1678" />
                                <path
                                   d="m 313.176,176.102 h 4.074 v 1.297 h -4.074 z"
                                   style="fill:#000000;fill-opacity:1;fill-rule:nonzero;stroke:none"
                                   id="path1680" />
                                <path
                                   d="m 322.617,169.574 c 3.149,0 3.938,2.547 3.938,5.879 0,3.332 -0.926,5.926 -3.985,5.926 -3.101,0 -3.98,-2.594 -3.98,-5.926 0,-3.379 0.789,-5.879 4.027,-5.879 z m -0.047,10.602 c 2.18,0 2.5,-2.27 2.5,-4.723 0,-2.453 -0.183,-4.723 -2.453,-4.723 -2.359,0 -2.547,2.223 -2.547,4.723 0,2.453 0.235,4.723 2.5,4.723"
                                   style="fill:#000000;fill-opacity:1;fill-rule:nonzero;stroke:none"
                                   id="path1682" />
                                <path
                                   d="m 330.164,181.195 c 0.141,-4.539 2.223,-7.363 4.074,-10.234 h -6.203 v -1.25 h 7.594 v 1.207 c -1.809,3.008 -3.891,5.602 -3.938,10.277 h -1.527"
                                   style="fill:#000000;fill-opacity:1;fill-rule:nonzero;stroke:none"
                                   id="path1684" />
                                <path
                                   d="m 337.203,176.102 h 4.074 v 1.297 h -4.074 z"
                                   style="fill:#000000;fill-opacity:1;fill-rule:nonzero;stroke:none"
                                   id="path1686" />
                                <path
                                   d="m 346.555,169.574 c 2.961,0 3.886,2.313 3.886,5.649 0,4.257 -2.453,7.5 -6.296,5.601 -0.645,-0.324 -0.926,-1.066 -1.157,-1.851 l 1.391,-0.235 c 0.277,1.809 3.191,1.809 3.887,0.324 0.418,-0.878 0.742,-2.035 0.742,-3.425 -0.465,1.019 -1.438,1.621 -2.871,1.621 -2.27,0 -3.379,-1.528 -3.379,-3.84 0,-2.5 1.297,-3.844 3.797,-3.844 z m -0.047,6.528 c 1.433,-0.047 2.359,-0.832 2.359,-2.27 0,-1.664 -0.648,-3.102 -2.359,-3.102 -1.574,0 -2.27,1.067 -2.27,2.688 0,1.57 0.696,2.684 2.27,2.684"
                                   style="fill:#000000;fill-opacity:1;fill-rule:nonzero;stroke:none"
                                   id="path1688" />
                                <path
                                   d="m 354.191,181.195 c 0.141,-4.539 2.223,-7.363 4.075,-10.234 h -6.204 v -1.25 h 7.594 v 1.207 c -1.804,3.008 -3.89,5.602 -3.937,10.277 h -1.528"
                                   style="fill:#000000;fill-opacity:1;fill-rule:nonzero;stroke:none"
                                   id="path1690" />
                                <path
                                   d="m 385.164,181.195 v -1.25 h 2.965 v -8.797 l -2.594,1.805 v -1.344 l 2.684,-1.898 h 1.343 v 10.234 h 2.825 v 1.25 h -7.223"
                                   style="fill:#000000;fill-opacity:1;fill-rule:nonzero;stroke:none"
                                   id="path1692" />
                                <path
                                   d="m 395.676,174.621 c 2.219,-1.621 6.34,-0.371 6.062,2.824 0.508,4.582 -7.129,5.278 -7.918,1.203 l 1.485,-0.187 c 0.324,1.066 1.015,1.715 2.406,1.715 1.621,-0.047 2.359,-1.02 2.5,-2.688 0.184,-2.543 -3.379,-3.008 -4.582,-1.57 h -1.438 l 0.371,-6.207 h 6.528 v 1.25 h -5.184"
                                   style="fill:#000000;fill-opacity:1;fill-rule:nonzero;stroke:none"
                                   id="path1694" />
                                <path
                                   d="m 403.176,176.102 h 4.07 v 1.297 h -4.07 z"
                                   style="fill:#000000;fill-opacity:1;fill-rule:nonzero;stroke:none"
                                   id="path1696" />
                                <path
                                   d="m 409.191,181.195 v -1.25 h 2.965 v -8.797 l -2.594,1.805 v -1.344 l 2.684,-1.898 h 1.344 v 10.234 h 2.824 v 1.25 h -7.223"
                                   style="fill:#000000;fill-opacity:1;fill-rule:nonzero;stroke:none"
                                   id="path1698" />
                                <path
                                   d="m 421.879,169.574 c 3.148,0 3.933,2.547 3.933,5.879 0,3.332 -0.925,5.926 -3.98,5.926 -3.102,0 -3.98,-2.594 -3.98,-5.926 0,-3.379 0.785,-5.879 4.027,-5.879 z m -0.047,10.602 c 2.176,0 2.5,-2.27 2.5,-4.723 0,-2.453 -0.187,-4.723 -2.453,-4.723 -2.363,0 -2.547,2.223 -2.547,4.723 0,2.453 0.23,4.723 2.5,4.723"
                                   style="fill:#000000;fill-opacity:1;fill-rule:nonzero;stroke:none"
                                   id="path1700" />
                                <path
                                   d="m 427.203,176.102 h 4.074 v 1.297 h -4.074 z"
                                   style="fill:#000000;fill-opacity:1;fill-rule:nonzero;stroke:none"
                                   id="path1702" />
                                <path
                                   d="m 436.555,169.574 c 2.961,0 3.886,2.313 3.886,5.649 0,4.257 -2.453,7.5 -6.296,5.601 -0.649,-0.324 -0.926,-1.066 -1.157,-1.851 l 1.391,-0.235 c 0.277,1.809 3.191,1.809 3.887,0.324 0.418,-0.878 0.742,-2.035 0.742,-3.425 -0.465,1.019 -1.438,1.621 -2.871,1.621 -2.27,0 -3.379,-1.528 -3.379,-3.84 0,-2.5 1.297,-3.844 3.797,-3.844 z m -0.047,6.528 c 1.433,-0.047 2.359,-0.832 2.359,-2.27 0,-1.664 -0.648,-3.102 -2.359,-3.102 -1.574,0 -2.27,1.067 -2.27,2.688 0,1.57 0.696,2.684 2.27,2.684"
                                   style="fill:#000000;fill-opacity:1;fill-rule:nonzero;stroke:none"
                                   id="path1704" />
                                <path
                                   d="m 444.191,181.195 c 0.141,-4.539 2.223,-7.363 4.075,-10.234 h -6.204 v -1.25 h 7.594 v 1.207 c -1.804,3.008 -3.89,5.602 -3.937,10.277 h -1.528"
                                   style="fill:#000000;fill-opacity:1;fill-rule:nonzero;stroke:none"
                                   id="path1706" />
                                <path
                                   d="m 475.164,181.195 v -1.25 h 2.965 v -8.797 l -2.594,1.805 v -1.344 l 2.684,-1.898 h 1.343 v 10.234 h 2.825 v 1.25 h -7.223"
                                   style="fill:#000000;fill-opacity:1;fill-rule:nonzero;stroke:none"
                                   id="path1708" />
                                <path
                                   d="m 485.676,174.621 c 2.219,-1.621 6.34,-0.371 6.062,2.824 0.508,4.582 -7.129,5.278 -7.918,1.203 l 1.485,-0.187 c 0.324,1.066 1.015,1.715 2.406,1.715 1.621,-0.047 2.359,-1.02 2.5,-2.688 0.184,-2.543 -3.379,-3.008 -4.582,-1.57 h -1.438 l 0.371,-6.207 h 6.528 v 1.25 h -5.184"
                                   style="fill:#000000;fill-opacity:1;fill-rule:nonzero;stroke:none"
                                   id="path1710" />
                                <path
                                   d="m 493.176,176.102 h 4.07 v 1.297 h -4.07 z"
                                   style="fill:#000000;fill-opacity:1;fill-rule:nonzero;stroke:none"
                                   id="path1712" />
                                <path
                                   d="m 502.617,169.574 c 3.149,0 3.938,2.547 3.938,5.879 0,3.332 -0.926,5.926 -3.985,5.926 -3.101,0 -3.98,-2.594 -3.98,-5.926 0,-3.379 0.789,-5.879 4.027,-5.879 z m -0.047,10.602 c 2.176,0 2.5,-2.27 2.5,-4.723 0,-2.453 -0.183,-4.723 -2.453,-4.723 -2.359,0 -2.547,2.223 -2.547,4.723 0,2.453 0.235,4.723 2.5,4.723"
                                   style="fill:#000000;fill-opacity:1;fill-rule:nonzero;stroke:none"
                                   id="path1714" />
                                <path
                                   d="m 508.453,181.195 v -1.25 h 2.961 v -8.797 l -2.594,1.805 v -1.344 l 2.688,-1.898 h 1.344 v 10.234 h 2.824 v 1.25 h -7.223"
                                   style="fill:#000000;fill-opacity:1;fill-rule:nonzero;stroke:none"
                                   id="path1716" />
                                <path
                                   d="m 517.203,176.102 h 4.074 v 1.297 h -4.074 z"
                                   style="fill:#000000;fill-opacity:1;fill-rule:nonzero;stroke:none"
                                   id="path1718" />
                                <path
                                   d="m 526.555,169.574 c 2.961,0 3.886,2.313 3.886,5.649 0,4.257 -2.453,7.5 -6.296,5.601 -0.649,-0.324 -0.926,-1.066 -1.157,-1.851 l 1.391,-0.235 c 0.277,1.809 3.191,1.809 3.887,0.324 0.418,-0.878 0.742,-2.035 0.742,-3.425 -0.465,1.019 -1.438,1.621 -2.871,1.621 -2.27,0 -3.379,-1.528 -3.379,-3.84 0,-2.5 1.297,-3.844 3.797,-3.844 z m -0.047,6.528 c 1.433,-0.047 2.359,-0.832 2.359,-2.27 0,-1.664 -0.648,-3.102 -2.359,-3.102 -1.574,0 -2.27,1.067 -2.27,2.688 0,1.57 0.696,2.684 2.27,2.684"
                                   style="fill:#000000;fill-opacity:1;fill-rule:nonzero;stroke:none"
                                   id="path1720" />
                                <path
                                   d="m 537.434,175.129 c 1.296,0.418 2.406,1.109 2.359,2.871 -0.047,2.312 -1.574,3.379 -3.934,3.379 -2.363,0 -3.843,-1.067 -3.89,-3.379 0,-1.668 0.972,-2.5 2.269,-2.824 -3.472,-1.156 -2.082,-5.832 1.574,-5.602 2.129,0.137 3.614,0.832 3.657,2.914 0,1.532 -0.785,2.364 -2.035,2.641 z m -1.575,-0.508 c 1.434,0.047 2.129,-0.695 2.129,-2.039 0,-1.297 -0.785,-1.988 -2.176,-1.945 -1.343,0 -2.128,0.601 -2.082,1.945 0.047,1.297 0.739,2.039 2.129,2.039 z m 0.047,5.649 c 1.621,0 2.36,-0.836 2.36,-2.411 0,-1.386 -0.832,-2.129 -2.454,-2.129 -1.527,0 -2.359,0.79 -2.359,2.176 0,1.574 0.879,2.364 2.453,2.364"
                                   style="fill:#000000;fill-opacity:1;fill-rule:nonzero;stroke:none"
                                   id="path1722" />
                                <path
                                   d="m 572.664,181.195 v -1.25 h 2.965 v -8.797 l -2.594,1.805 v -1.344 l 2.684,-1.898 h 1.343 v 10.234 h 2.825 v 1.25 h -7.223"
                                   style="fill:#000000;fill-opacity:1;fill-rule:nonzero;stroke:none"
                                   id="path1724" />
                                <path
                                   d="m 583.176,174.621 c 2.219,-1.621 6.34,-0.371 6.062,2.824 0.508,4.582 -7.129,5.278 -7.918,1.203 l 1.485,-0.187 c 0.324,1.066 1.015,1.715 2.406,1.715 1.621,-0.047 2.359,-1.02 2.5,-2.688 0.184,-2.543 -3.379,-3.008 -4.582,-1.57 h -1.438 l 0.371,-6.207 h 6.528 v 1.25 h -5.184"
                                   style="fill:#000000;fill-opacity:1;fill-rule:nonzero;stroke:none"
                                   id="path1726" />
                                <path
                                   d="m 590.676,176.102 h 4.07 v 1.297 h -4.07 z"
                                   style="fill:#000000;fill-opacity:1;fill-rule:nonzero;stroke:none"
                                   id="path1728" />
                                <path
                                   d="m 600.117,169.574 c 3.149,0 3.938,2.547 3.938,5.879 0,3.332 -0.926,5.926 -3.985,5.926 -3.101,0 -3.98,-2.594 -3.98,-5.926 0,-3.379 0.789,-5.879 4.027,-5.879 z m -0.047,10.602 c 2.176,0 2.5,-2.27 2.5,-4.723 0,-2.453 -0.183,-4.723 -2.453,-4.723 -2.359,0 -2.547,2.223 -2.547,4.723 0,2.453 0.235,4.723 2.5,4.723"
                                   style="fill:#000000;fill-opacity:1;fill-rule:nonzero;stroke:none"
                                   id="path1730" />
                                <g
                                   id="g1740"
                                   style="fill:#00c100;fill-opacity:1;stroke:#00c100;stroke-opacity:1"
                                   transform="translate(2.5537093)">
                                <path
                                   d="m 612.203,184.609 v -60.375 m 0,60.356 v 0.769"
                                   style="fill:#00c100;fill-opacity:1;stroke:#00c100;stroke-width:1.5;stroke-linecap:butt;stroke-linejoin:miter;stroke-miterlimit:4;stroke-dasharray:none;stroke-opacity:1"
                                   id="path1742" />
                                </g>
                                <g
                                   id="g1744"
                                   style="fill:#00c100;fill-opacity:1;stroke:#00c100;stroke-opacity:1">
                                <path
                                   d="m 614.75671,112.789 3.481,10.695 h -6.961 z"
                                   style="fill:#00c100;fill-opacity:1;fill-rule:nonzero;stroke:#00c100;stroke-width:1.5;stroke-linecap:butt;stroke-linejoin:miter;stroke-miterlimit:4;stroke-dasharray:none;stroke-opacity:1"
                                   id="path1746" />
                                </g>
                                <g
                                   id="g1748"
                                   style="fill:#f82020;fill-opacity:1;stroke:#f82020;stroke-opacity:1">
                                <path
                                   d="m 417.203,186.109 v 45.375"
                                   style="fill:#f82020;fill-opacity:1;stroke:#f82020;stroke-width:1.5;stroke-linecap:butt;stroke-linejoin:miter;stroke-miterlimit:4;stroke-dasharray:none;stroke-opacity:1"
                                   id="path1750" />
                                </g>
                                <g
                                   id="g1752"
                                   style="fill:#f82020;fill-opacity:1;stroke:#f82020;stroke-opacity:1">
                                <path
                                   d="m 417.203,242.93 -3.48,-10.696 h 6.961 z"
                                   style="fill:#f82020;fill-opacity:1;fill-rule:nonzero;stroke:#f82020;stroke-width:1.5;stroke-linecap:butt;stroke-linejoin:miter;stroke-miterlimit:4;stroke-dasharray:none;stroke-opacity:1"
                                   id="path1754" />
                                </g>
                                <g
                                   id="g1756"
                                   transform="translate(0,-1.5)"
                                   style="fill:#f82020;fill-opacity:1;stroke:#f82020;stroke-opacity:1">
                                <path
                                   d="m 327.203,187.777 v 43.707"
                                   style="fill:#f82020;fill-opacity:1;stroke:#f82020;stroke-width:1.5;stroke-linecap:butt;stroke-linejoin:miter;stroke-miterlimit:4;stroke-dasharray:none;stroke-opacity:1"
                                   id="path1758" />
                                </g>
                                <g
                                   id="g1760"
                                   transform="translate(0,-1.5)"
                                   style="fill:#f82020;fill-opacity:1;stroke:#f82020;stroke-opacity:1">
                                <path
                                   d="m 327.203,242.93 -3.48,-10.696 h 6.961 z"
                                   style="fill:#f82020;fill-opacity:1;fill-rule:nonzero;stroke:#f82020;stroke-width:1.5;stroke-linecap:butt;stroke-linejoin:miter;stroke-miterlimit:4;stroke-dasharray:none;stroke-opacity:1"
                                   id="path1762" />
                                </g>
                                <g
                                   id="g1764"
                                   transform="translate(0,-3)"
                                   style="fill:#f82020;fill-opacity:1;stroke:#f82020;stroke-opacity:1">
                                <path
                                   d="m 237.203,189.035 v 42.449"
                                   style="fill:#f82020;fill-opacity:1;stroke:#f82020;stroke-width:1.5;stroke-linecap:butt;stroke-linejoin:miter;stroke-miterlimit:4;stroke-dasharray:none;stroke-opacity:1"
                                   id="path1766" />
                                </g>
                                <g
                                   id="g1768"
                                   transform="translate(0,-3)"
                                   style="fill:#f82020;fill-opacity:1;stroke:#f82020;stroke-opacity:1">
                                <path
                                   d="m 237.203,242.93 -3.48,-10.696 h 6.961 z"
                                   style="fill:#f82020;fill-opacity:1;fill-rule:nonzero;stroke:#f82020;stroke-width:1.5;stroke-linecap:butt;stroke-linejoin:miter;stroke-miterlimit:4;stroke-dasharray:none;stroke-opacity:1"
                                   id="path1770" />
                                </g>
                                <g
                                   id="g1772"
                                   style="fill:#f82020;fill-opacity:1;stroke:#f82020;stroke-opacity:1">
                                <path
                                   d="m 147.203,185.773 v 40.711"
                                   style="fill:#f82020;fill-opacity:1;stroke:#f82020;stroke-width:1.5;stroke-linecap:butt;stroke-linejoin:miter;stroke-miterlimit:4;stroke-dasharray:none;stroke-opacity:1"
                                   id="path1774" />
                                </g>
                                <g
                                   id="g1776"
                                   style="fill:#f82020;fill-opacity:1;stroke:#f82020;stroke-opacity:1">
                                <path
                                   d="m 147.203,237.938 -3.48,-10.704 h 6.961 z"
                                   style="fill:#f82020;fill-opacity:1;fill-rule:nonzero;stroke:#f82020;stroke-width:1.5;stroke-linecap:butt;stroke-linejoin:miter;stroke-miterlimit:4;stroke-dasharray:none;stroke-opacity:1"
                                   id="path1778" />
                                </g>
                                <g
                                   id="g1780">
                                <path
                                   d="m 147.578,240.359 h 269.25 m -269.25,0 h -0.375 m 269.625,0 h 0.375"
                                   style="fill:none;stroke:#5e5e5e;stroke-width:0.75;stroke-linecap:butt;stroke-linejoin:miter;stroke-miterlimit:4;stroke-dasharray:none;stroke-opacity:1"
                                   id="path1782" />
                                </g>
                                <path
                                   d="m 131,260.539 -0.027,0.301 h -3.227 l -2.848,-6 c -0.187,0.031 -0.398,0.047 -0.558,0.047 -0.262,0 -0.449,-0.039 -0.719,-0.075 l -1.183,4.551 c -0.04,0.149 -0.055,0.285 -0.055,0.434 0,0.453 0.347,0.75 1.457,0.75 h 0.359 l -0.074,0.301 h -6.195 l 0.074,-0.301 h 0.301 c 1.453,0 1.836,-0.539 2.007,-1.184 l 2.364,-9.465 c 0.031,-0.148 0.09,-0.324 0.09,-0.48 0,-0.391 -0.328,-0.699 -1.469,-0.699 h -0.375 l 0.074,-0.297 h 5.16 c 3.047,0 4.11,1.25 4.11,2.871 0,1.574 -1.348,2.852 -3.391,3.262 l 2.191,4.351 c 0.36,0.75 0.856,1.551 1.95,1.649 m -6,-11.375 -1.223,4.949 c 0.242,0.059 0.43,0.074 0.602,0.074 2.535,0 3.636,-1.094 3.636,-2.699 0,-2.055 -1.183,-2.379 -2.383,-2.379 -0.265,0 -0.437,0.023 -0.648,0.063 m 11.605,14.527 h -3.714 v -0.195 c 0.992,-0.055 1.277,-0.332 1.277,-1.075 v -6.043 c 0,-0.453 -0.121,-0.652 -0.406,-0.652 -0.137,0 -0.36,0.074 -0.602,0.148 l -0.375,0.149 v -0.195 l 2.418,-1.223 0.125,0.039 v 8.023 c 0,0.586 0.262,0.829 1.277,0.829 v 0.199 m 20.766,-8.969 h -11.219 v -1.25 h 11.219 v 1.25 m 0,3.812 h -11.219 v -1.253 h 11.219 v 1.253 m 11.234,-9.847 v 4.687 c 2.305,1.235 2.778,1.723 3.301,2.496 0.262,0.399 0.399,1.004 0.399,1.711 0,2.211 -1.5,2.922 -3.7,3.239 v 1.652 h -0.644 v -1.652 c -1.649,0 -2.496,-0.27 -3.547,-0.973 v -2.477 h 0.285 c 0.406,1.907 1.574,2.926 3.262,2.926 v -5.379 c -2.625,-1.484 -3.391,-2.265 -3.391,-3.871 0,-1.902 1.614,-2.758 3.391,-2.871 v -1.199 h 0.644 v 1.199 c 1.547,0.09 2.477,0.414 3.079,0.996 v 2.117 h -0.301 c -0.375,-1.574 -1.254,-2.414 -2.778,-2.609 m -0.644,4.387 v -4.387 c -1.348,0.27 -1.988,1.035 -1.988,2 0,0.84 0.375,1.297 1.988,2.387 m 0.644,2.176 v 5.039 c 1.547,-0.325 2.176,-0.914 2.176,-2.266 0,-1.164 -0.449,-1.754 -2.176,-2.773 m 9.145,2.464 h -0.324 c 0.015,-0.769 0.164,-1.722 0.824,-3.375 0.504,-1.222 0.977,-2.421 0.977,-3.57 0,-1.312 -0.899,-2.25 -2.071,-2.25 -0.914,0 -1.801,0.578 -1.801,1.188 0,0.703 0.735,0.777 0.735,1.41 0,0.472 -0.297,0.824 -0.778,0.824 -0.527,0 -0.914,-0.481 -0.914,-1.262 0,-1.574 1.297,-2.73 3.118,-2.73 1.855,0 3.464,1.164 3.464,3.015 0,1.164 -0.359,1.801 -1.992,3.75 -0.691,0.828 -1.027,1.696 -1.238,3 z m 0.875,2.25 c 0,0.555 -0.418,1.016 -0.988,1.016 -0.653,0 -1.035,-0.473 -1.035,-1.008 0,-0.562 0.449,-1.004 1.035,-1.004 0.523,0 0.988,0.481 0.988,1.012"
                                   style="fill:#000000;fill-opacity:1;fill-rule:nonzero;stroke:none"
                                   id="path1784" />
                                <path
                                   d="m 218.828,260.539 -0.047,0.301 h -3.222 l -2.852,-6 c -0.195,0.031 -0.406,0.047 -0.555,0.047 -0.269,0 -0.449,-0.039 -0.718,-0.075 l -1.188,4.551 c -0.035,0.149 -0.058,0.285 -0.058,0.434 0,0.453 0.343,0.75 1.445,0.75 h 0.375 l -0.074,0.301 h -6.196 l 0.074,-0.301 h 0.301 c 1.457,0 1.84,-0.539 2.012,-1.184 l 2.363,-9.465 c 0.035,-0.148 0.09,-0.324 0.09,-0.48 0,-0.391 -0.332,-0.699 -1.473,-0.699 h -0.375 l 0.079,-0.297 h 5.152 c 3.059,0 4.125,1.25 4.125,2.871 0,1.574 -1.352,2.852 -3.391,3.262 l 2.188,4.351 c 0.363,0.75 0.855,1.551 1.953,1.649 m -6,-11.375 -1.231,4.949 c 0.247,0.059 0.45,0.074 0.614,0.074 2.527,0 3.636,-1.094 3.636,-2.699 0,-2.055 -1.183,-2.379 -2.382,-2.379 -0.262,0 -0.438,0.023 -0.645,0.063 m 12.672,12.671 -0.734,1.856 H 219.5 v -0.153 l 2.402,-2.55 c 1.258,-1.332 1.746,-2.36 1.746,-3.5 0,-1.231 -0.726,-1.899 -1.875,-1.899 -0.972,0 -1.437,0.426 -1.98,1.746 l -0.297,-0.074 c 0.297,-1.574 1.152,-2.668 2.813,-2.668 1.519,0 2.488,1.035 2.488,2.367 0,1.067 -0.524,2.071 -1.727,3.34 l -2.218,2.367 H 224 c 0.57,0 0.855,-0.148 1.301,-0.898 m 19.875,-7.043 h -11.215 v -1.25 h 11.215 v 1.25 m 0,3.812 h -11.215 v -1.253 h 11.215 v 1.253 m 11.242,-9.847 v 4.687 c 2.301,1.235 2.773,1.723 3.297,2.496 0.265,0.399 0.39,1.004 0.39,1.711 0,2.211 -1.5,2.922 -3.687,3.239 v 1.652 h -0.652 v -1.652 c -1.653,0 -2.493,-0.27 -3.543,-0.973 v -2.477 h 0.285 c 0.406,1.907 1.59,2.926 3.265,2.926 v -5.379 c -2.625,-1.484 -3.39,-2.265 -3.39,-3.871 0,-1.902 1.617,-2.758 3.39,-2.871 v -1.199 h 0.653 v 1.199 c 1.535,0.09 2.472,0.414 3.058,0.996 v 2.117 h -0.285 c -0.375,-1.574 -1.254,-2.414 -2.773,-2.609 m -0.653,4.387 v -4.387 c -1.351,0.27 -1.98,1.035 -1.98,2 0,0.84 0.391,1.297 1.984,2.387 m 0.657,2.176 v 5.039 c 1.535,-0.325 2.171,-0.914 2.171,-2.266 0,-1.164 -0.449,-1.754 -2.171,-2.773 m 9.117,2.464 h -0.321 c 0.02,-0.769 0.172,-1.722 0.84,-3.375 0.489,-1.222 0.973,-2.421 0.973,-3.57 0,-1.312 -0.922,-2.25 -2.082,-2.25 -0.918,0 -1.801,0.578 -1.801,1.188 0,0.703 0.735,0.777 0.735,1.41 0,0.472 -0.301,0.824 -0.782,0.824 -0.539,0 -0.914,-0.481 -0.914,-1.262 0,-1.574 1.289,-2.73 3.121,-2.73 1.844,0 3.465,1.164 3.465,3.015 0,1.164 -0.359,1.801 -1.996,3.75 -0.691,0.828 -1.035,1.696 -1.238,3 z m 0.879,2.25 c 0,0.555 -0.422,1.016 -0.992,1.016 -0.645,0 -1.028,-0.473 -1.028,-1.008 0,-0.562 0.453,-1.004 1.028,-1.004 0.527,0 0.992,0.481 0.992,1.012"
                                   style="fill:#000000;fill-opacity:1;fill-rule:nonzero;stroke:none"
                                   id="path1786" />
                                <path
                                   d="m 308.828,260.539 -0.047,0.301 h -3.222 l -2.852,-6 c -0.195,0.031 -0.406,0.047 -0.555,0.047 -0.269,0 -0.449,-0.039 -0.718,-0.075 l -1.188,4.551 c -0.035,0.149 -0.058,0.285 -0.058,0.434 0,0.453 0.343,0.75 1.445,0.75 h 0.375 l -0.074,0.301 h -6.196 l 0.074,-0.301 h 0.301 c 1.457,0 1.84,-0.539 2.012,-1.184 l 2.363,-9.465 c 0.035,-0.148 0.09,-0.324 0.09,-0.48 0,-0.391 -0.332,-0.699 -1.473,-0.699 h -0.375 l 0.079,-0.297 h 5.152 c 3.059,0 4.125,1.25 4.125,2.871 0,1.574 -1.352,2.852 -3.391,3.262 l 2.188,4.351 c 0.363,0.75 0.855,1.551 1.953,1.649 m -6,-11.375 -1.231,4.949 c 0.247,0.059 0.45,0.074 0.614,0.074 2.527,0 3.636,-1.094 3.636,-2.699 0,-2.055 -1.183,-2.379 -2.382,-2.379 -0.262,0 -0.438,0.023 -0.645,0.063 m 7.102,7.664 -0.227,-0.055 c 0.399,-1.274 1.246,-2.172 2.649,-2.172 1.253,0 2.101,0.734 2.101,1.836 0,0.644 -0.348,1.32 -1.254,1.859 0.602,0.254 0.84,0.414 1.125,0.711 0.375,0.414 0.586,1.035 0.586,1.727 0,0.719 -0.226,1.379 -0.601,1.898 -0.653,0.864 -1.934,1.25 -3.133,1.25 -0.977,0 -1.5,-0.281 -1.5,-0.769 0,-0.278 0.222,-0.481 0.547,-0.481 0.222,0 0.449,0.074 0.824,0.344 0.496,0.352 0.773,0.422 1.156,0.422 0.973,0 1.738,-0.918 1.738,-2.063 0,-1.019 -0.472,-1.679 -1.402,-1.953 -0.301,-0.094 -0.601,-0.133 -1.371,-0.133 v -0.187 c 0.508,-0.172 0.859,-0.324 1.125,-0.488 0.672,-0.375 1.094,-0.973 1.094,-1.801 0,-0.914 -0.563,-1.371 -1.449,-1.371 -0.84,0 -1.454,0.426 -2.008,1.426 m 25.246,-2.102 h -11.215 v -1.25 h 11.215 v 1.25 m 0,3.812 h -11.215 v -1.253 h 11.215 v 1.253 m 11.242,-9.847 v 4.687 c 2.301,1.235 2.773,1.723 3.297,2.496 0.265,0.399 0.39,1.004 0.39,1.711 0,2.211 -1.5,2.922 -3.687,3.239 v 1.652 h -0.652 v -1.652 c -1.653,0 -2.493,-0.27 -3.543,-0.973 v -2.477 h 0.285 c 0.406,1.907 1.59,2.926 3.265,2.926 v -5.379 c -2.625,-1.484 -3.39,-2.265 -3.39,-3.871 0,-1.902 1.617,-2.758 3.39,-2.871 v -1.199 h 0.653 v 1.199 c 1.535,0.09 2.472,0.414 3.058,0.996 v 2.117 h -0.285 c -0.375,-1.574 -1.254,-2.414 -2.773,-2.609 m -0.653,4.387 v -4.387 c -1.351,0.27 -1.98,1.035 -1.98,2 0,0.84 0.391,1.297 1.984,2.387 m 0.657,2.176 v 5.039 c 1.535,-0.325 2.171,-0.914 2.171,-2.266 0,-1.164 -0.449,-1.754 -2.171,-2.773 m 9.117,2.464 h -0.321 c 0.02,-0.769 0.172,-1.722 0.84,-3.375 0.489,-1.222 0.973,-2.421 0.973,-3.57 0,-1.312 -0.922,-2.25 -2.082,-2.25 -0.918,0 -1.801,0.578 -1.801,1.188 0,0.703 0.735,0.777 0.735,1.41 0,0.472 -0.301,0.824 -0.782,0.824 -0.539,0 -0.914,-0.481 -0.914,-1.262 0,-1.574 1.289,-2.73 3.121,-2.73 1.844,0 3.465,1.164 3.465,3.015 0,1.164 -0.359,1.801 -1.996,3.75 -0.691,0.828 -1.035,1.696 -1.238,3 z m 0.879,2.25 c 0,0.555 -0.422,1.016 -0.992,1.016 -0.645,0 -1.028,-0.473 -1.028,-1.008 0,-0.562 0.453,-1.004 1.028,-1.004 0.527,0 0.992,0.481 0.992,1.012"
                                   style="fill:#000000;fill-opacity:1;fill-rule:nonzero;stroke:none"
                                   id="path1788" />
                                <path
                                   d="m 398.828,260.539 -0.047,0.301 h -3.222 l -2.852,-6 c -0.195,0.031 -0.406,0.047 -0.555,0.047 -0.269,0 -0.449,-0.039 -0.718,-0.075 l -1.188,4.551 c -0.035,0.149 -0.058,0.285 -0.058,0.434 0,0.453 0.343,0.75 1.445,0.75 h 0.375 l -0.074,0.301 h -6.196 l 0.074,-0.301 h 0.301 c 1.457,0 1.84,-0.539 2.012,-1.184 l 2.363,-9.465 c 0.035,-0.148 0.09,-0.324 0.09,-0.48 0,-0.391 -0.332,-0.699 -1.473,-0.699 h -0.375 l 0.079,-0.297 h 5.152 c 3.059,0 4.125,1.25 4.125,2.871 0,1.574 -1.352,2.852 -3.391,3.262 l 2.188,4.351 c 0.363,0.75 0.855,1.551 1.953,1.649 m -6,-11.375 -1.231,4.949 c 0.247,0.059 0.45,0.074 0.614,0.074 2.527,0 3.636,-1.094 3.636,-2.699 0,-2.055 -1.183,-2.379 -2.382,-2.379 -0.262,0 -0.438,0.023 -0.645,0.063 m 12.652,12.281 h -1.39 v 2.25 h -1.047 v -2.25 h -3.773 v -0.86 l 4.222,-6 h 0.598 v 6 h 1.383 v 0.86 m -2.438,-0.86 v -4.621 l -3.226,4.621 h 3.226 m 22.141,-5.859 h -11.215 v -1.25 h 11.215 v 1.25 m 0,3.812 h -11.215 v -1.253 h 11.215 v 1.253 m 11.242,-9.847 v 4.687 c 2.301,1.235 2.773,1.723 3.297,2.496 0.265,0.399 0.39,1.004 0.39,1.711 0,2.211 -1.5,2.922 -3.687,3.239 v 1.652 h -0.652 v -1.652 c -1.653,0 -2.493,-0.27 -3.543,-0.973 v -2.477 h 0.285 c 0.406,1.907 1.59,2.926 3.265,2.926 v -5.379 c -2.625,-1.484 -3.39,-2.265 -3.39,-3.871 0,-1.902 1.617,-2.758 3.39,-2.871 v -1.199 h 0.653 v 1.199 c 1.535,0.09 2.472,0.414 3.058,0.996 v 2.117 h -0.285 c -0.375,-1.574 -1.254,-2.414 -2.773,-2.609 m -0.653,4.387 v -4.387 c -1.351,0.27 -1.98,1.035 -1.98,2 0,0.84 0.391,1.297 1.984,2.387 m 0.657,2.176 v 5.039 c 1.535,-0.325 2.171,-0.914 2.171,-2.266 0,-1.164 -0.449,-1.754 -2.171,-2.773 m 9.117,2.464 h -0.321 c 0.02,-0.769 0.172,-1.722 0.84,-3.375 0.489,-1.222 0.973,-2.421 0.973,-3.57 0,-1.312 -0.922,-2.25 -2.082,-2.25 -0.918,0 -1.801,0.578 -1.801,1.188 0,0.703 0.735,0.777 0.735,1.41 0,0.472 -0.301,0.824 -0.782,0.824 -0.539,0 -0.914,-0.481 -0.914,-1.262 0,-1.574 1.289,-2.73 3.121,-2.73 1.844,0 3.465,1.164 3.465,3.015 0,1.164 -0.359,1.801 -1.996,3.75 -0.691,0.828 -1.035,1.696 -1.238,3 z m 0.879,2.25 c 0,0.555 -0.422,1.016 -0.992,1.016 -0.645,0 -1.028,-0.473 -1.028,-1.008 0,-0.562 0.453,-1.004 1.028,-1.004 0.527,0 0.992,0.481 0.992,1.012"
                                   style="fill:#000000;fill-opacity:1;fill-rule:nonzero;stroke:none"
                                   id="path1790" />
                                <g
                                   id="g1792">
                                <path
                                   d="m 614.738,186.109 v 6.504 m 0,6.496 v 13.004 m 0,6.496 v 13.004 m 0,6.496 v 6.5 m 0,-58.476 v -0.774 m 0,59.231 v 0.769"
                                   style="fill:none;stroke:#5e5e5e;stroke-width:1.5;stroke-linecap:butt;stroke-linejoin:miter;stroke-miterlimit:4;stroke-dasharray:none;stroke-opacity:1"
                                   id="path1794" />
                                </g>
                                <g
                                   id="g1796">
                                <path
                                   d="m 149.828,266.254 4.305,6.168 m 4.445,6.051 3.496,4.597 5.91,7.125 m 5.024,5.575 1.254,1.386 6.047,6.149 3.312,3.105 m 5.594,5.012 3.34,2.871 6.3,4.98 2.098,1.532 m 6.152,4.324 4.95,3.285 7.035,4.238 0.765,0.422 m 6.583,3.598 0.062,0.039 7.891,3.883 5.636,2.5 m 6.938,2.879 5.062,1.996 9.055,3.133 m 7.184,2.199 5.101,1.539 9.406,2.398 m 7.317,1.672 10.711,2.25 4.027,0.676 m 7.41,1.238 6,0.996 8.875,1.102 m 7.453,0.922 5.063,0.625 9.898,0.793 m 7.489,0.617 10.16,0.824 4.824,0.254 m 7.5,0.398 0.598,0.032 14.429,0.375 m 7.5,0.207 15.032,0.406 m 7.5,0.203 3.464,0.074 11.567,-0.179 m 7.515,-0.121 8.278,-0.133 6.738,-0.399 m 7.5,-0.449 5.422,-0.316 9.539,-0.973 m 7.461,-0.812 11.027,-1.59 3.825,-0.711 m 7.378,-1.403 8.836,-2.027 5.754,-1.59 m 7.184,-2.195 2.625,-0.824 6.637,-2.453 4.8,-1.997 m 6.825,-3.121 0.062,-0.015 5.203,-2.699 4.86,-2.79 2.964,-1.859 m 6.223,-4.215 3.824,-2.886 3.93,-3.227 3.766,-3.359 0.062,-0.075 m 5.309,-5.312 1.738,-1.836 3.375,-3.898 3.301,-4.126 1.199,-1.667 m 4.309,-6.149 0.824,-1.246 3.058,-5.008 0.075,-0.152"
                                   style="fill:none;stroke:#c92d39;stroke-width:1.5;stroke-linecap:butt;stroke-linejoin:miter;stroke-miterlimit:4;stroke-dasharray:none;stroke-opacity:1"
                                   id="path1798" />
                                </g>
                                <path
                                   d="m 150.457,265.836 -1.23,0.871 -0.75,-1.066 h 1.835 z"
                                   style="fill:#c92d39;fill-opacity:1;fill-rule:nonzero;stroke:none"
                                   id="path1800" />
                                <g
                                   id="g1802">
                                <path
                                   d="m 616.281,288.949 -1.851,11.102 -6.172,-3.227 z"
                                   style="fill:#c92d39;fill-opacity:1;fill-rule:nonzero;stroke:#c92d39;stroke-width:1.5;stroke-linecap:butt;stroke-linejoin:miter;stroke-miterlimit:4;stroke-dasharray:none;stroke-opacity:1"
                                   id="path1804" />
                                </g>
                                </g>
                                </g>
                                </g>
                                </g>
                                </g>
                                </g>
                                <path
                                   d="m 593,308 h 84.21954 v 39.92027 H 593 Z"
                                   style="fill:#ffffff;fill-opacity:1;fill-rule:nonzero;stroke:#ffffff;stroke-width:0.8147;stroke-linecap:butt;stroke-linejoin:miter;stroke-miterlimit:10;stroke-dasharray:none;stroke-opacity:1"
                                   id="path1806" />
                                </g>
                                <path
                                   d="m 17,228 h 524.66638 v 18.53441 H 17 Z"
                                   style="fill:#ffffff;fill-opacity:1;fill-rule:nonzero;stroke:#ffffff;stroke-width:0.8147;stroke-linecap:butt;stroke-linejoin:miter;stroke-miterlimit:10;stroke-dasharray:none;stroke-opacity:1"
                                   id="path1808" />
                                </g>
                                <path
                                   d="m 572,228 h 38.90189 v 14.9701 H 572 Z"
                                   style="fill:#ffffff;fill-opacity:1;fill-rule:nonzero;stroke:#ffffff;stroke-width:0.8147;stroke-linecap:butt;stroke-linejoin:miter;stroke-miterlimit:10;stroke-dasharray:none;stroke-opacity:1"
                                   id="path1810" />
                                </g>
                                </g>
                                <path
                                   d="m 161,143 h 24.13547 v 24.13547 H 161 Z"
                                   style="fill:#ffffff;fill-opacity:1;fill-rule:nonzero;stroke:#ffffff;stroke-width:0.8147;stroke-linecap:butt;stroke-linejoin:miter;stroke-miterlimit:10;stroke-dasharray:none;stroke-opacity:1"
                                   id="path1814" />
                                </g>
                                <path
                                   d="m 249,141 h 24.13547 v 24.13547 H 249 Z"
                                   style="fill:#ffffff;fill-opacity:1;fill-rule:nonzero;stroke:#ffffff;stroke-width:0.8147;stroke-linecap:butt;stroke-linejoin:miter;stroke-miterlimit:10;stroke-dasharray:none;stroke-opacity:1"
                                   id="path1816" />
                                </g>
                                <path
                                   d="m 338,142 h 24.13547 v 24.13547 H 338 Z"
                                   style="fill:#ffffff;fill-opacity:1;fill-rule:nonzero;stroke:#ffffff;stroke-width:0.8147;stroke-linecap:butt;stroke-linejoin:miter;stroke-miterlimit:10;stroke-dasharray:none;stroke-opacity:1"
                                   id="path1818" />
                                </g>
                                <path
                                   d="m 430,141 h 24.13547 v 24.13547 H 430 Z"
                                   style="fill:#ffffff;fill-opacity:1;fill-rule:nonzero;stroke:#ffffff;stroke-width:0.8147;stroke-linecap:butt;stroke-linejoin:miter;stroke-miterlimit:10;stroke-dasharray:none;stroke-opacity:1"
                                   id="path1820" />
                              </g>
                              <text
                                 xml:space="preserve"
                                 transform="matrix(1,0,0,-1,595,324)"
                                 style="font-variant:normal;font-weight:normal;font-size:16px;font-family:Helvetica;-inkscape-font-specification:Helvetica;writing-mode:lr-tb;fill:#000000;fill-opacity:1;fill-rule:nonzero;stroke:none"
                                 id="text1824"><tspan
                                   x="0 8.8959999 17.792 26.688 31.136 40.032001 48.928001 57.824001 62.271999 73.823997 86.272003"
                                   y="0"
                                   id="tspan1822">900.000 COP</tspan></text>
                            </g>
                            <text
                               xml:space="preserve"
                               transform="matrix(1,0,0,-1,60,229)"
                               style="font-variant:normal;font-weight:normal;font-size:16px;font-family:Helvetica;-inkscape-font-specification:Helvetica;writing-mode:lr-tb;fill:#000000;fill-opacity:1;fill-rule:nonzero;stroke:none"
                               id="text1828"><tspan
                                 x="0"
                                 y="0"
                                 id="tspan1826">1</tspan></text>
                          </g>
                          <text
                             xml:space="preserve"
                             transform="matrix(1,0,0,-1,143,230)"
                             style="font-variant:normal;font-weight:normal;font-size:16px;font-family:Helvetica;-inkscape-font-specification:Helvetica;writing-mode:lr-tb;fill:#000000;fill-opacity:1;fill-rule:nonzero;stroke:none"
                             id="text1832"><tspan
                               x="0"
                               y="0"
                               id="tspan1830">2</tspan></text>
                        </g>
                        <text
                           xml:space="preserve"
                           transform="matrix(1,0,0,-1,233,230)"
                           style="font-variant:normal;font-weight:normal;font-size:16px;font-family:Helvetica;-inkscape-font-specification:Helvetica;writing-mode:lr-tb;fill:#000000;fill-opacity:1;fill-rule:nonzero;stroke:none"
                           id="text1836"><tspan
                             x="0"
                             y="0"
                             id="tspan1834">3</tspan></text>
                      </g>
                      <text
                         xml:space="preserve"
                         transform="matrix(1,0,0,-1,323,229)"
                         style="font-variant:normal;font-weight:normal;font-size:16px;font-family:Helvetica;-inkscape-font-specification:Helvetica;writing-mode:lr-tb;fill:#000000;fill-opacity:1;fill-rule:nonzero;stroke:none"
                         id="text1840"><tspan
                           x="0"
                           y="0"
                           id="tspan1838">4</tspan></text>
                    </g>
                    <text
                       xml:space="preserve"
                       transform="matrix(1,0,0,-1,412,230)"
                       style="font-variant:normal;font-weight:normal;font-size:16px;font-family:Helvetica;-inkscape-font-specification:Helvetica;writing-mode:lr-tb;fill:#000000;fill-opacity:1;fill-rule:nonzero;stroke:none"
                       id="text1844"><tspan
                         x="0"
                         y="0"
                         id="tspan1842">5</tspan></text>
                  </g>
                  <text
                     xml:space="preserve"
                     transform="matrix(1,0,0,-1,501,229)"
                     style="font-variant:normal;font-weight:normal;font-size:16px;font-family:Helvetica;-inkscape-font-specification:Helvetica;writing-mode:lr-tb;fill:#000000;fill-opacity:1;fill-rule:nonzero;stroke:none"
                     id="text1848"><tspan
                       x="0"
                       y="0"
                       id="tspan1846">6</tspan></text>
                </g>
                <text
                   xml:space="preserve"
                   transform="scale(1,-1)"
                   style="font-variant:normal;font-weight:normal;font-size:16px;font-family:Helvetica;-inkscape-font-specification:Helvetica;writing-mode:lr-tb;fill:#000000;fill-opacity:1;fill-rule:nonzero;stroke:none"
                   id="text1852"
                   x="603.07111"
                   y="-231.08926"><tspan
                     x="603.07111"
                     y="-231.08926"
                     id="tspan1850">7</tspan></text>
              </g>
              <text
                 xml:space="preserve"
                 transform="scale(1,-1)"
                 style="font-variant:normal;font-weight:normal;font-size:16px;font-family:Helvetica;-inkscape-font-specification:Helvetica;writing-mode:lr-tb;fill:#000000;fill-opacity:1;fill-rule:nonzero;stroke:none"
                 id="text1856"
                 x="168.64001"
                 y="-149"><tspan
                   x="168.64001 180.192 192.64001"
                   id="tspan1854"
                   y="-149">COP</tspan></text>
              <text
                 xml:space="preserve"
                 style="font-size:16px;font-family:Arial;-inkscape-font-specification:Arial;fill:#000000;stroke-width:2.41"
                 x="159.30579"
                 y="-149.49707"
                 id="text561"
                 transform="scale(1,-1)"><tspan
                   id="tspan559"
                   style="font-style:normal;font-variant:normal;font-weight:normal;font-stretch:normal;font-size:16px;font-family:Helvetica;-inkscape-font-specification:Helvetica;stroke-width:2.41"
                   x="159.30579"
                   y="-149.49707">?</tspan></text>
              <text
                 xml:space="preserve"
                 style="font-size:16px;font-family:Arial;-inkscape-font-specification:Arial;fill:#000000;stroke-width:2.41"
                 x="247.05164"
                 y="-148.86409"
                 id="text561-3"
                 transform="scale(1,-1)"><tspan
                   id="tspan559-2"
                   style="font-style:normal;font-variant:normal;font-weight:normal;font-stretch:normal;font-size:16px;font-family:Helvetica;-inkscape-font-specification:Helvetica;stroke-width:2.41"
                   x="247.05164"
                   y="-148.86409">?</tspan></text>
              <text
                 xml:space="preserve"
                 style="font-size:16px;font-family:Arial;-inkscape-font-specification:Arial;fill:#000000;stroke-width:2.41"
                 x="335.62698"
                 y="-149.83745"
                 id="text561-39"
                 transform="scale(1,-1)"><tspan
                   id="tspan559-9"
                   style="font-style:normal;font-variant:normal;font-weight:normal;font-stretch:normal;font-size:16px;font-family:Helvetica;-inkscape-font-specification:Helvetica;stroke-width:2.41"
                   x="335.62698"
                   y="-149.83745">?</tspan></text>
              <text
                 xml:space="preserve"
                 style="font-size:16px;font-family:Arial;-inkscape-font-specification:Arial;fill:#000000;stroke-width:2.41"
                 x="426.79788"
                 y="-149.83745"
                 id="text561-2"
                 transform="scale(1,-1)"><tspan
                   id="tspan559-1"
                   style="font-style:normal;font-variant:normal;font-weight:normal;font-stretch:normal;font-size:16px;font-family:Helvetica;-inkscape-font-specification:Helvetica;stroke-width:2.41"
                   x="426.79788"
                   y="-149.83745">?</tspan></text>
            </g>
            <text
               xml:space="preserve"
               transform="scale(1,-1)"
               style="font-variant:normal;font-weight:normal;font-size:16px;font-family:Helvetica;-inkscape-font-specification:Helvetica;writing-mode:lr-tb;fill:#000000;fill-opacity:1;fill-rule:nonzero;stroke:none"
               id="text1860"
               x="256.64001"
               y="-149"><tspan
                 x="256.64001 268.19202 280.64001"
                 y="-149"
                 id="tspan1858">COP</tspan></text>
          </g>
          <text
             xml:space="preserve"
             transform="scale(1,-1)"
             style="font-variant:normal;font-weight:normal;font-size:16px;font-family:Helvetica;-inkscape-font-specification:Helvetica;writing-mode:lr-tb;fill:#000000;fill-opacity:1;fill-rule:nonzero;stroke:none"
             id="text1864"
             x="345.64001"
             y="-150"><tspan
               x="345.64001 357.19202 369.64001"
               y="-150"
               id="tspan1862">COP</tspan></text>
        </g>
        <text
           xml:space="preserve"
           transform="scale(1,-1)"
           style="font-variant:normal;font-weight:normal;font-size:16px;font-family:Helvetica;-inkscape-font-specification:Helvetica;writing-mode:lr-tb;fill:#000000;fill-opacity:1;fill-rule:nonzero;stroke:none"
           id="text1868"
           x="435.64001"
           y="-149"><tspan
             x="435.64001 447.19202 459.64001"
             y="-149"
             id="tspan1866">COP</tspan></text>
      </g>
      <path
         d="m 603,141 h 30.7549 v 15.98847 H 603 Z"
         style="fill:#ffffff;fill-opacity:1;fill-rule:nonzero;stroke:#ffffff;stroke-width:0.8147;stroke-linecap:butt;stroke-linejoin:miter;stroke-miterlimit:10;stroke-dasharray:none;stroke-opacity:1"
         id="path1870" />
    </g>
    <text
       xml:space="preserve"
       transform="matrix(1,0,0,-1,609,149)"
       style="font-variant:normal;font-weight:normal;font-size:16px;font-family:Helvetica;-inkscape-font-specification:Helvetica;writing-mode:lr-tb;fill:#000000;fill-opacity:1;fill-rule:nonzero;stroke:none"
       id="text1874"><tspan
         x="0 8.8959999"
         y="0"
         id="tspan1872">pf</tspan></text>
  </g>
</svg>
