<svg xmlns="http://www.w3.org/2000/svg" xmlns:xlink="http://www.w3.org/1999/xlink" xmlns:lucid="lucid" width="940" height="453.59"><g transform="translate(-280 -120)" lucid:page-tab-id="0_0"><path d="M446.1 292h607.7" stroke="#5e5e5e" stroke-width="2" fill="none"/><path d="M446.1 292h-4v-1h4zM1057.8 292h-4.04v-1h4.03z" fill="#5e5e5e"/><path d="M300 298c0-3.3 2.7-6 6-6h274.02c3.3 0 6 2.7 6 6v45c0 3.3-2.7 6-6 6H306c-3.3 0-6-2.7-6-6z" stroke="#000" stroke-opacity="0" stroke-width="3" fill="#fff" fill-opacity="0"/><use xlink:href="#a" transform="matrix(1,0,0,1,305,297) translate(81.7716049382716 26.59027777777778)"/><path d="M590.78 298c0-3.3 2.7-6 6-6H870.8c3.3 0 6 2.7 6 6v45c0 3.3-2.7 6-6 6H596.78c-3.3 0-6-2.7-6-6z" stroke="#000" stroke-opacity="0" stroke-width="3" fill="#fff" fill-opacity="0"/><use xlink:href="#b" transform="matrix(1,0,0,1,595.7838983050848,297) translate(81.7716049382716 26.59027777777778)"/><path d="M913.98 298c0-3.3 2.7-6 6-6H1194c3.3 0 6 2.7 6 6v45c0 3.3-2.7 6-6 6H919.98c-3.3 0-6-2.7-6-6z" stroke="#000" stroke-opacity="0" stroke-width="3" fill="#fff" fill-opacity="0"/><use xlink:href="#c" transform="matrix(1,0,0,1,918.9830508474578,297) translate(81.7716049382716 26.59027777777778)"/><path d="M443 350v56.5" stroke="#5e5e5e" stroke-width="2" fill="none"/><path d="M444 350.03h-2V349h2z" fill="#5e5e5e"/><path d="M443 421.76l-4.63-14.26h9.27z" stroke="#5e5e5e" stroke-width="2" fill="#5e5e5e"/><path d="M733.54 444.97l-1.78 6.93-.8 2.62m-3.05 9.4l-.82 2.38-2.6 6.6-2.8 6.23-1.48 3m-4.65 8.7l-3.12 5.16-3.4 5.07-3.5 4.85-1.04 1.3m-6.34 7.6l-.13.15-3.97 4.22-4.12 4.02-4.28 3.84-1.75 1.45m-7.8 6.08l-4.27 2.97-4.96 3.14-5.15 2.96-2.44 1.27m-8.9 4.3l-5.28 2.23-5.95 2.2-6.14 2-1.2.33m-9.57 2.46l-2.12.5-6.73 1.28-6.9 1-3.74.4m-9.86.76l-.7.04-7.3.15-7.4-.17-4.37-.28m-9.84-.9l-.65-.08-7.38-1.1-7.3-1.4-4.1-.96m-9.57-2.52l-.5-.14-6.77-2.2-6.54-2.44-4.75-2m-8.96-4.22l-4.25-2.22-5.38-3.1-5.06-3.22-2.28-1.6m-7.92-5.9l-3.16-2.63-3.86-3.47-3.6-3.52-3.32-3.54-.38-.44m-6.23-7.67l-1.9-2.65-2.4-3.6-1.2-1.96" stroke="#0c7cba" stroke-width="2" fill="none"/><path d="M734.5 445.25l-1.93-.5.2-.75h2.06z" fill="#0c7cba"/><path d="M449.18 484.9l10.38 10.85-8.35 4.03z" stroke="#0c7cba" stroke-width="2" fill="#0c7cba"/><path d="M1056.75 349.97l-2.32 9.23-.16.55m-2.9 9.66l-3.04 8.93-3.5 8.95-.45 1.05m-4.12 9.2l-3.15 6.4-4.2 7.74-2.16 3.63m-5.38 8.53l-1.4 2.14-4.75 6.6-4.87 6.22-1.02 1.2m-6.67 7.55l-2.46 2.65-5.27 5.2-5.37 4.9-1.44 1.2m-7.88 6.32l-1.75 1.34-5.68 4-5.78 3.7-3.6 2.1m-8.87 4.8l-5.44 2.58-6.16 2.63-6.28 2.37-.7.23m-9.6 3l-2.6.74-6.65 1.6-6.77 1.33-3.7.57m-10 1.24l-.3.03-7.27.5-7.44.2-5.14-.1m-10.07-.47l-.28-.02-8.1-.8-8.35-1.2-3.25-.6m-9.88-2.03l-4.42-1.02-9.26-2.53-5.75-1.84m-9.5-3.3l-4.35-1.6-10.43-4.32-3.87-1.8m-9.1-4.34l-9.3-4.8-8.43-4.8m-8.63-5.23l-7.45-4.67-1.07-.74" stroke="#c92d39" stroke-width="2" fill="none"/><path d="M1057.7 350.24l-1.93-.48.2-.76h2.05z" fill="#c92d39"/><path d="M736.45 445.85l14.36 4.34-5.3 7.6z" stroke="#c92d39" stroke-width="2" fill="#c92d39"/><path d="M304.77 431c0-3.3 2.68-6 6-6h274c3.33 0 6 2.7 6 6v45c0 3.3-2.67 6-6 6h-274c-3.32 0-6-2.7-6-6z" stroke="#000" stroke-opacity="0" stroke-width="3" fill="#fff" fill-opacity="0"/><use xlink:href="#d" transform="matrix(1,0,0,1,309.7669491525424,430) translate(107.97530864197532 26.59027777777778)"/><path d="M733.87 350l-.04 18.5" stroke="#5e5e5e" stroke-width="2" fill="none"/><path d="M734.87 350.03h-2V349h2z" fill="#5e5e5e"/><path d="M733.8 383.76l-4.6-14.27h9.26z" stroke="#5e5e5e" stroke-width="2" fill="#5e5e5e"/><path d="M590.78 393c0-3.3 2.7-6 6-6H870.8c3.3 0 6 2.7 6 6v45c0 3.3-2.7 6-6 6H596.78c-3.3 0-6-2.7-6-6z" stroke="#000" stroke-opacity="0" stroke-width="3" fill="#fff" fill-opacity="0"/><use xlink:href="#e" transform="matrix(1,0,0,1,595.7838983050848,392.00000000000006) translate(104.27160493827162 26.59027777777778)"/><path d="M443 469c0-3.3 2.7-6 6-6h274.03c3.3 0 6 2.7 6 6v45c0 3.3-2.7 6-6 6H449c-3.3 0-6-2.7-6-6z" stroke="#000" stroke-opacity="0" stroke-width="3" fill="#fff" fill-opacity="0"/><use xlink:href="#f" transform="matrix(1,0,0,1,448.0084745762713,468) translate(114.7962962962963 26.59027777777778)"/><path d="M443 431c0-3.3 2.7-6 6-6h274.03c3.3 0 6 2.7 6 6v45c0 3.3-2.7 6-6 6H449c-3.3 0-6-2.7-6-6z" stroke="#000" stroke-opacity="0" stroke-width="3" fill="#fff" fill-opacity="0"/><use xlink:href="#g" transform="matrix(1,0,0,1,448.0084745762713,430) translate(83.31481481481481 26.59027777777778)"/><path d="M760 355c0-3.3 2.7-6 6-6h274.02c3.3 0 6 2.7 6 6v45c0 3.3-2.7 6-6 6H766c-3.3 0-6-2.7-6-6z" stroke="#000" stroke-opacity="0" stroke-width="3" fill="#fff" fill-opacity="0"/><use xlink:href="#h" transform="matrix(1,0,0,1,765,354) translate(87.01851851851852 26.59027777777778)"/><path d="M760 393c0-3.3 2.7-6 6-6h274.02c3.3 0 6 2.7 6 6v45c0 3.3-2.7 6-6 6H766c-3.3 0-6-2.7-6-6z" stroke="#000" stroke-opacity="0" stroke-width="3" fill="#fff" fill-opacity="0"/><use xlink:href="#i" transform="matrix(1,0,0,1,765,392.00000000000006) translate(114.7962962962963 26.59027777777778)"/><path d="M1057 291v-75.5" stroke="#5e5e5e" stroke-width="2" fill="none"/><path d="M1058 292h-2v-1.03h2z" fill="#5e5e5e"/><path d="M1057 200.24l4.63 14.26h-9.27z" stroke="#5e5e5e" stroke-width="2" fill="#5e5e5e"/><path d="M913.98 146c0-3.3 2.7-6 6-6H1194c3.3 0 6 2.7 6 6v45c0 3.3-2.7 6-6 6H919.98c-3.3 0-6-2.7-6-6z" stroke="#000" stroke-opacity="0" stroke-width="3" fill="#fff" fill-opacity="0"/><use xlink:href="#j" transform="matrix(1,0,0,1,918.9830508474578,145) translate(63.99382716049382 26.59027777777778)"/><defs><path fill="#333" d="M23 0v-37h61v-169l-59 37v-38l62-41h46v211h57V0H23" id="k"/><path fill="#333" d="M99-251c69 0 84 53 88 123 5 99-61 162-144 118-15-8-21-25-26-45l46-6c4 31 50 33 63 7 7-15 12-36 12-60-9 18-29 28-54 28-48 0-72-32-72-82 0-55 31-83 87-83zm-1 128c24 0 37-16 37-39 0-27-10-51-37-51-25 0-35 19-35 45 0 25 10 45 35 45" id="l"/><path fill="#333" d="M14-72v-43h91v43H14" id="m"/><path fill="#333" d="M101-251c68 0 84 54 84 127C185-50 166 4 99 4S15-52 14-124c-1-75 17-127 87-127zm-1 216c37-5 36-46 36-89s4-89-36-89c-39 0-36 45-36 89 0 43-3 85 36 89" id="n"/><path fill="#333" d="M52 0c1-96 47-148 87-207H15v-41h169v40c-36 62-79 113-81 208H52" id="o"/><path fill="#333" d="M182-182c0 78-84 86-111 141h115V0H12c-6-101 99-100 120-180 1-22-12-31-33-32-23 0-32 14-35 34l-49-3c5-45 32-70 84-70 51 0 83 22 83 69" id="p"/><g id="a"><use transform="matrix(0.06172839506172839,0,0,0.06172839506172839,0,0)" xlink:href="#k"/><use transform="matrix(0.06172839506172839,0,0,0.06172839506172839,12.345679012345679,0)" xlink:href="#l"/><use transform="matrix(0.06172839506172839,0,0,0.06172839506172839,24.691358024691358,0)" xlink:href="#l"/><use transform="matrix(0.06172839506172839,0,0,0.06172839506172839,37.03703703703704,0)" xlink:href="#l"/><use transform="matrix(0.06172839506172839,0,0,0.06172839506172839,49.382716049382715,0)" xlink:href="#m"/><use transform="matrix(0.06172839506172839,0,0,0.06172839506172839,56.72839506172839,0)" xlink:href="#n"/><use transform="matrix(0.06172839506172839,0,0,0.06172839506172839,69.07407407407408,0)" xlink:href="#o"/><use transform="matrix(0.06172839506172839,0,0,0.06172839506172839,81.41975308641976,0)" xlink:href="#m"/><use transform="matrix(0.06172839506172839,0,0,0.06172839506172839,88.76543209876544,0)" xlink:href="#p"/><use transform="matrix(0.06172839506172839,0,0,0.06172839506172839,101.11111111111113,0)" xlink:href="#p"/></g><path fill="#333" d="M165-50V0h-47v-50H5v-38l105-160h55v161h33v37h-33zm-47-37l2-116L46-87h72" id="q"/><g id="b"><use transform="matrix(0.06172839506172839,0,0,0.06172839506172839,0,0)" xlink:href="#k"/><use transform="matrix(0.06172839506172839,0,0,0.06172839506172839,12.345679012345679,0)" xlink:href="#l"/><use transform="matrix(0.06172839506172839,0,0,0.06172839506172839,24.691358024691358,0)" xlink:href="#l"/><use transform="matrix(0.06172839506172839,0,0,0.06172839506172839,37.03703703703704,0)" xlink:href="#l"/><use transform="matrix(0.06172839506172839,0,0,0.06172839506172839,49.382716049382715,0)" xlink:href="#m"/><use transform="matrix(0.06172839506172839,0,0,0.06172839506172839,56.72839506172839,0)" xlink:href="#k"/><use transform="matrix(0.06172839506172839,0,0,0.06172839506172839,69.07407407407408,0)" xlink:href="#n"/><use transform="matrix(0.06172839506172839,0,0,0.06172839506172839,81.41975308641976,0)" xlink:href="#m"/><use transform="matrix(0.06172839506172839,0,0,0.06172839506172839,88.76543209876544,0)" xlink:href="#k"/><use transform="matrix(0.06172839506172839,0,0,0.06172839506172839,101.11111111111113,0)" xlink:href="#q"/></g><g id="c"><use transform="matrix(0.06172839506172839,0,0,0.06172839506172839,0,0)" xlink:href="#k"/><use transform="matrix(0.06172839506172839,0,0,0.06172839506172839,12.345679012345679,0)" xlink:href="#l"/><use transform="matrix(0.06172839506172839,0,0,0.06172839506172839,24.691358024691358,0)" xlink:href="#l"/><use transform="matrix(0.06172839506172839,0,0,0.06172839506172839,37.03703703703704,0)" xlink:href="#l"/><use transform="matrix(0.06172839506172839,0,0,0.06172839506172839,49.382716049382715,0)" xlink:href="#m"/><use transform="matrix(0.06172839506172839,0,0,0.06172839506172839,56.72839506172839,0)" xlink:href="#k"/><use transform="matrix(0.06172839506172839,0,0,0.06172839506172839,69.07407407407408,0)" xlink:href="#p"/><use transform="matrix(0.06172839506172839,0,0,0.06172839506172839,81.41975308641976,0)" xlink:href="#m"/><use transform="matrix(0.06172839506172839,0,0,0.06172839506172839,88.76543209876544,0)" xlink:href="#k"/><use transform="matrix(0.06172839506172839,0,0,0.06172839506172839,101.11111111111113,0)" xlink:href="#o"/></g><path fill="#333" d="M24-248c93 1 206-16 204 79-1 75-69 88-152 82V0H24v-248zm52 121c47 0 100 7 100-41 0-47-54-39-100-39v80" id="r"/><path fill="#333" d="M190-63c-7 42-38 67-86 67-59 0-84-38-90-98-12-110 154-137 174-36l-49 2c-2-19-15-32-35-32-30 0-35 28-38 64-6 74 65 87 74 30" id="s"/><path fill="#333" d="M15-148v-39h180v39H15zm0 97v-39h180v39H15" id="t"/><path fill="#333" d="M111-147c44 9 85 22 84 75-1 49-35 65-84 68v31H91V-4C40-5 12-27 5-72l45-8c4 24 15 38 41 40-2-22 4-51-2-69-39-10-76-22-76-72 0-47 35-60 78-63v-23h20v23c47 1 70 23 78 62l-46 7c-4-18-12-32-32-34v62zm-20-63c-33-4-45 46-13 54 4 1 8 2 13 4v-58zm20 170c39 5 53-51 15-60-7-2-7-2-15-4v64" id="u"/><path fill="#333" d="M110-251c83-7 118 89 53 130-17 10-36 21-38 46H78c2-56 65-53 71-103 2-21-15-35-38-34-25 1-41 14-44 38l-50-2c6-48 39-70 93-75zM77 0v-47h51V0H77" id="v"/><g id="d"><use transform="matrix(0.06172839506172839,0,0,0.06172839506172839,0,0)" xlink:href="#r"/><use transform="matrix(0.03703703703703702,0,0,0.03703703703703702,14.814814814814813,0)" xlink:href="#s"/><use transform="matrix(0.06172839506172839,0,0,0.06172839506172839,22.222222222222218,0)" xlink:href="#t"/><use transform="matrix(0.06172839506172839,0,0,0.06172839506172839,35.185185185185176,0)" xlink:href="#u"/><use transform="matrix(0.06172839506172839,0,0,0.06172839506172839,47.53086419753085,0)" xlink:href="#v"/></g><g id="e"><use transform="matrix(0.06172839506172839,0,0,0.06172839506172839,0,0)" xlink:href="#r"/><use transform="matrix(0.03703703703703702,0,0,0.03703703703703702,14.814814814814813,0)" xlink:href="#s"/><use transform="matrix(0.03703703703703702,0,0,0.03703703703703702,22.222222222222218,0)" xlink:href="#p"/><use transform="matrix(0.06172839506172839,0,0,0.06172839506172839,29.629629629629623,0)" xlink:href="#t"/><use transform="matrix(0.06172839506172839,0,0,0.06172839506172839,42.59259259259258,0)" xlink:href="#u"/><use transform="matrix(0.06172839506172839,0,0,0.06172839506172839,54.93827160493826,0)" xlink:href="#v"/></g><path fill="#0c7cba" d="M135-194c87-1 58 113 63 194h-50c-7-57 23-157-34-157-59 0-34 97-39 157H25l-1-190h47c2 12-1 28 3 38 12-26 28-41 61-42" id="w"/><path fill="#0c7cba" d="M182-182c0 78-84 86-111 141h115V0H12c-6-101 99-100 120-180 1-22-12-31-33-32-23 0-32 14-35 34l-49-3c5-45 32-70 84-70 51 0 83 22 83 69" id="x"/><path fill="#0c7cba" d="M15-148v-39h180v39H15zm0 97v-39h180v39H15" id="y"/><path fill="#0c7cba" d="M110-251c83-7 118 89 53 130-17 10-36 21-38 46H78c2-56 65-53 71-103 2-21-15-35-38-34-25 1-41 14-44 38l-50-2c6-48 39-70 93-75zM77 0v-47h51V0H77" id="z"/><g id="f"><use transform="matrix(0.06172839506172839,0,0,0.06172839506172839,0,0)" xlink:href="#w"/><use transform="matrix(0.03703703703703702,0,0,0.03703703703703702,13.518518518518517,0)" xlink:href="#x"/><use transform="matrix(0.06172839506172839,0,0,0.06172839506172839,20.92592592592592,0)" xlink:href="#y"/><use transform="matrix(0.06172839506172839,0,0,0.06172839506172839,33.888888888888886,0)" xlink:href="#z"/></g><path fill="#0c7cba" d="M25-224v-37h50v37H25zM25 0v-190h50V0H25" id="A"/><path fill="#0c7cba" d="M138-131c27 9 52 24 51 61 0 53-36 74-89 74S11-19 11-69c0-35 22-54 51-61-78-25-46-121 38-121 51 0 83 19 83 66 0 30-18 49-45 54zm-38-16c24 0 32-13 32-36 1-23-11-34-32-34-22 0-33 12-32 34 0 22 9 36 32 36zm1 116c27 0 37-17 37-43 0-25-13-39-39-39-24 0-37 15-37 40 0 27 11 42 39 42" id="B"/><path fill="#0c7cba" d="M249-155c45 1 62 31 62 79-1 48-18 79-63 79s-61-32-62-79c0-48 16-79 63-79zM97 0H61l162-248h36zM9-172c0-48 16-79 63-78 46 0 62 31 62 78 0 48-18 79-63 79S9-124 9-172zM249-25c24 0 24-26 24-51 0-26-1-52-24-52-24 0-25 26-25 52 0 25 0 51 25 51zM71-120c23 0 24-25 24-52 0-26 0-51-23-51-25 0-25 25-25 51 0 27 1 52 24 52" id="C"/><path fill="#0c7cba" d="M135-194c53 0 70 44 70 98 0 56-19 98-73 100-31 1-45-17-59-34 3 33 2 69 2 105H25l-1-265h48c2 10 0 23 3 31 11-24 29-35 60-35zM114-30c33 0 39-31 40-66 0-38-9-64-40-64-56 0-55 130 0 130" id="D"/><path fill="#0c7cba" d="M88-194c31-1 46 15 58 34l-1-101h50l1 261h-48c-2-10 0-23-3-31C134-8 116 4 84 4 32 4 16-41 15-95c0-56 19-97 73-99zm17 164c33 0 40-30 41-66 1-37-9-64-41-64s-38 30-39 65c0 43 13 65 39 65" id="E"/><path fill="#0c7cba" d="M128 0H69L1-190h53L99-40l48-150h52" id="F"/><g id="g"><use transform="matrix(0.06172839506172839,0,0,0.06172839506172839,0,0)" xlink:href="#A"/><use transform="matrix(0.03703703703703702,0,0,0.03703703703703702,6.172839506172839,0)" xlink:href="#x"/><use transform="matrix(0.06172839506172839,0,0,0.06172839506172839,13.580246913580243,0)" xlink:href="#y"/><use transform="matrix(0.06172839506172839,0,0,0.06172839506172839,26.543209876543205,0)" xlink:href="#x"/><use transform="matrix(0.06172839506172839,0,0,0.06172839506172839,38.888888888888886,0)" xlink:href="#B"/><use transform="matrix(0.06172839506172839,0,0,0.06172839506172839,51.23456790123456,0)" xlink:href="#C"/><use transform="matrix(0.06172839506172839,0,0,0.06172839506172839,70.98765432098764,0)" xlink:href="#D"/><use transform="matrix(0.06172839506172839,0,0,0.06172839506172839,84.50617283950616,0)" xlink:href="#E"/><use transform="matrix(0.06172839506172839,0,0,0.06172839506172839,98.02469135802468,0)" xlink:href="#F"/></g><path fill="#c92d39" d="M25-224v-37h50v37H25zM25 0v-190h50V0H25" id="G"/><path fill="#c92d39" d="M15-148v-39h180v39H15zm0 97v-39h180v39H15" id="H"/><path fill="#c92d39" d="M182-182c0 78-84 86-111 141h115V0H12c-6-101 99-100 120-180 1-22-12-31-33-32-23 0-32 14-35 34l-49-3c5-45 32-70 84-70 51 0 83 22 83 69" id="I"/><path fill="#c92d39" d="M138-131c27 9 52 24 51 61 0 53-36 74-89 74S11-19 11-69c0-35 22-54 51-61-78-25-46-121 38-121 51 0 83 19 83 66 0 30-18 49-45 54zm-38-16c24 0 32-13 32-36 1-23-11-34-32-34-22 0-33 12-32 34 0 22 9 36 32 36zm1 116c27 0 37-17 37-43 0-25-13-39-39-39-24 0-37 15-37 40 0 27 11 42 39 42" id="J"/><path fill="#c92d39" d="M249-155c45 1 62 31 62 79-1 48-18 79-63 79s-61-32-62-79c0-48 16-79 63-79zM97 0H61l162-248h36zM9-172c0-48 16-79 63-78 46 0 62 31 62 78 0 48-18 79-63 79S9-124 9-172zM249-25c24 0 24-26 24-51 0-26-1-52-24-52-24 0-25 26-25 52 0 25 0 51 25 51zM71-120c23 0 24-25 24-52 0-26 0-51-23-51-25 0-25 25-25 51 0 27 1 52 24 52" id="K"/><path fill="#c92d39" d="M135-194c53 0 70 44 70 98 0 56-19 98-73 100-31 1-45-17-59-34 3 33 2 69 2 105H25l-1-265h48c2 10 0 23 3 31 11-24 29-35 60-35zM114-30c33 0 39-31 40-66 0-38-9-64-40-64-56 0-55 130 0 130" id="L"/><path fill="#c92d39" d="M88-194c31-1 46 15 58 34l-1-101h50l1 261h-48c-2-10 0-23-3-31C134-8 116 4 84 4 32 4 16-41 15-95c0-56 19-97 73-99zm17 164c33 0 40-30 41-66 1-37-9-64-41-64s-38 30-39 65c0 43 13 65 39 65" id="M"/><path fill="#c92d39" d="M128 0H69L1-190h53L99-40l48-150h52" id="N"/><g id="h"><use transform="matrix(0.06172839506172839,0,0,0.06172839506172839,0,0)" xlink:href="#G"/><use transform="matrix(0.06172839506172839,0,0,0.06172839506172839,6.172839506172839,0)" xlink:href="#H"/><use transform="matrix(0.06172839506172839,0,0,0.06172839506172839,19.1358024691358,0)" xlink:href="#I"/><use transform="matrix(0.06172839506172839,0,0,0.06172839506172839,31.48148148148148,0)" xlink:href="#J"/><use transform="matrix(0.06172839506172839,0,0,0.06172839506172839,43.82716049382716,0)" xlink:href="#K"/><use transform="matrix(0.06172839506172839,0,0,0.06172839506172839,63.58024691358025,0)" xlink:href="#L"/><use transform="matrix(0.06172839506172839,0,0,0.06172839506172839,77.09876543209876,0)" xlink:href="#M"/><use transform="matrix(0.06172839506172839,0,0,0.06172839506172839,90.61728395061728,0)" xlink:href="#N"/></g><path fill="#c92d39" d="M135-194c87-1 58 113 63 194h-50c-7-57 23-157-34-157-59 0-34 97-39 157H25l-1-190h47c2 12-1 28 3 38 12-26 28-41 61-42" id="O"/><path fill="#c92d39" d="M23 0v-37h61v-169l-59 37v-38l62-41h46v211h57V0H23" id="P"/><path fill="#c92d39" d="M110-251c83-7 118 89 53 130-17 10-36 21-38 46H78c2-56 65-53 71-103 2-21-15-35-38-34-25 1-41 14-44 38l-50-2c6-48 39-70 93-75zM77 0v-47h51V0H77" id="Q"/><g id="i"><use transform="matrix(0.06172839506172839,0,0,0.06172839506172839,0,0)" xlink:href="#O"/><use transform="matrix(0.03703703703703702,0,0,0.03703703703703702,13.518518518518517,0)" xlink:href="#P"/><use transform="matrix(0.06172839506172839,0,0,0.06172839506172839,20.92592592592592,0)" xlink:href="#H"/><use transform="matrix(0.06172839506172839,0,0,0.06172839506172839,33.888888888888886,0)" xlink:href="#Q"/></g><path fill="#333" d="M76-208v77h127v40H76V0H24v-248h183v40H76" id="R"/><path fill="#333" d="M138-131c27 9 52 24 51 61 0 53-36 74-89 74S11-19 11-69c0-35 22-54 51-61-78-25-46-121 38-121 51 0 83 19 83 66 0 30-18 49-45 54zm-38-16c24 0 32-13 32-36 1-23-11-34-32-34-22 0-33 12-32 34 0 22 9 36 32 36zm1 116c27 0 37-17 37-43 0-25-13-39-39-39-24 0-37 15-37 40 0 27 11 42 39 42" id="S"/><path fill="#333" d="M62-158H24l-5-90h48" id="T"/><path fill="#333" d="M24 0v-54h51V0H24" id="U"/><g id="j"><use transform="matrix(0.06172839506172839,0,0,0.06172839506172839,0,0)" xlink:href="#R"/><use transform="matrix(0.06172839506172839,0,0,0.06172839506172839,13.518518518518517,0)" xlink:href="#t"/><use transform="matrix(0.06172839506172839,0,0,0.06172839506172839,26.48148148148148,0)" xlink:href="#u"/><use transform="matrix(0.06172839506172839,0,0,0.06172839506172839,38.82716049382716,0)" xlink:href="#S"/><use transform="matrix(0.06172839506172839,0,0,0.06172839506172839,51.172839506172835,0)" xlink:href="#n"/><use transform="matrix(0.06172839506172839,0,0,0.06172839506172839,63.51851851851851,0)" xlink:href="#T"/><use transform="matrix(0.06172839506172839,0,0,0.06172839506172839,68.76543209876543,0)" xlink:href="#n"/><use transform="matrix(0.06172839506172839,0,0,0.06172839506172839,81.11111111111111,0)" xlink:href="#n"/><use transform="matrix(0.06172839506172839,0,0,0.06172839506172839,93.4567901234568,0)" xlink:href="#n"/><use transform="matrix(0.06172839506172839,0,0,0.06172839506172839,105.80246913580248,0)" xlink:href="#U"/><use transform="matrix(0.06172839506172839,0,0,0.06172839506172839,111.97530864197532,0)" xlink:href="#n"/><use transform="matrix(0.06172839506172839,0,0,0.06172839506172839,124.320987654321,0)" xlink:href="#n"/><use transform="matrix(0.06172839506172839,0,0,0.06172839506172839,136.66666666666669,0)" xlink:href="#n"/></g></defs></g></svg>