<svg xmlns="http://www.w3.org/2000/svg" xmlns:xlink="http://www.w3.org/1999/xlink" xmlns:lucid="lucid" width="1036" height="869"><g transform="translate(-260 -1413)" lucid:page-tab-id="0_0"><path d="M0 1259.2h1870.4v1323.2H0z" fill="#fff"/><path d="M386.84 1504.86v252.64" stroke="#000" stroke-width="5" fill="none"/><path d="M386.84 1488.1l4.64 14.26h-9.27z" stroke="#000" stroke-width="5"/><path d="M389.34 1760h-5v-2.56h5z"/><path d="M389.34 1760h805.8" stroke="#000" stroke-width="5" fill="none"/><path d="M389.4 1760h-5.56v-2.5h5.57z"/><path d="M1211.9 1760l-14.26 4.64v-9.28z" stroke="#000" stroke-width="5"/><path d="M306.84 1426c0-3.3 2.7-6 6-6h148c3.32 0 6 2.7 6 6v48c0 3.3-2.68 6-6 6h-148c-3.3 0-6-2.7-6-6z" fill="#fff" fill-opacity="0"/><use xlink:href="#a" transform="matrix(1,0,0,1,311.8421052631579,1425) translate(-31.94444444444443 31.22222222222222)"/><path d="M356.84 1766c0-3.3 2.7-6 6-6h48c3.32 0 6 2.7 6 6v48c0 3.3-2.68 6-6 6h-48c-3.3 0-6-2.7-6-6z" fill="#fff" fill-opacity="0"/><use xlink:href="#b" transform="matrix(1,0,0,1,361.8421052631579,1765) translate(16.358024691358025 31.138888888888886)"/><path d="M577.37 1766c0-3.3 2.68-6 6-6h48c3.3 0 6 2.7 6 6v48c0 3.3-2.7 6-6 6h-48c-3.32 0-6-2.7-6-6z" fill="#fff" fill-opacity="0"/><use xlink:href="#c" transform="matrix(1,0,0,1,582.3684210526317,1765) translate(16.358024691358025 31.138888888888886)"/><path d="M760 1766c0-3.3 2.7-6 6-6h48c3.3 0 6 2.7 6 6v48c0 3.3-2.7 6-6 6h-48c-3.3 0-6-2.7-6-6z" fill="#fff" fill-opacity="0"/><use xlink:href="#d" transform="matrix(1,0,0,1,765,1765) translate(16.358024691358025 31.138888888888886)"/><path d="M942.63 1766c0-3.3 2.7-6 6-6h48c3.32 0 6 2.7 6 6v48c0 3.3-2.68 6-6 6h-48c-3.3 0-6-2.7-6-6z" fill="#fff" fill-opacity="0"/><use xlink:href="#e" transform="matrix(1,0,0,1,947.6315789473683,1765) translate(16.358024691358025 31.138888888888886)"/><path d="M1125.26 1766c0-3.3 2.7-6 6-6h48c3.32 0 6 2.7 6 6v48c0 3.3-2.68 6-6 6h-48c-3.3 0-6-2.7-6-6z" fill="#fff" fill-opacity="0"/><use xlink:href="#f" transform="matrix(1,0,0,1,1130.2631578947367,1765) translate(16.358024691358025 31.138888888888886)"/><path d="M607.37 1822.5v72.64" stroke="#000" stroke-width="5" fill="none"/><path d="M609.87 1822.56h-5V1820h5z"/><path d="M607.37 1911.9l-4.64-14.26H612z" stroke="#000" stroke-width="5"/><path d="M790 1822.5v72.64" stroke="#000" stroke-width="5" fill="none"/><path d="M792.5 1822.56h-5V1820h5z"/><path d="M790 1911.9l-4.64-14.26h9.28z" stroke="#000" stroke-width="5"/><path d="M972.63 1822.5v72.64" stroke="#000" stroke-width="5" fill="none"/><path d="M975.13 1822.56h-5V1820h5z"/><path d="M972.63 1911.9l-4.63-14.26h9.27z" stroke="#000" stroke-width="5"/><path d="M1155.26 1822.5v72.64" stroke="#000" stroke-width="5" fill="none"/><path d="M1157.76 1822.56h-5V1820h5z"/><path d="M1155.26 1911.9l-4.63-14.26h9.27z" stroke="#000" stroke-width="5"/><path d="M609.87 1920h542.9M609.93 1920h-2.56M1152.7 1920h2.56" stroke="#000" stroke-width="5" fill="none"/><path d="M386.84 1821.5v15.7m0 15.72v31.4m0 15.72v31.42m0 15.7v31.42m0 15.7v31.43m0 15.72v31.4m0 15.72v31.42m0 15.7v31.42m0 15.7v15.72" stroke="#000" stroke-width="3" fill="none"/><path d="M388.34 1821.54h-3V1820h3zM388.34 2200h-3v-1.54h3z"/><path d="M387.85 2260l9.84.03m9.83.02l19.68.05m9.86.02l18.7.04.98-.03m9.83-.4l19.66-.77m9.84-.4l19.66-.77m9.8-.75l19.63-1.6m9.8-.8l17.4-1.42 2.2-.28m9.78-1.2l19.53-2.43m9.77-1.2l8.65-1.08 10.8-1.8m9.7-1.63l19.42-3.22m9.68-1.8l19.26-4.05m9.63-2.02l8.52-1.8 10.62-2.7m9.54-2.4l18.13-4.63.94-.28m9.43-2.83l18.85-5.65m9.38-2.96l18.6-6.43m9.3-3.2l1.85-.65 16.5-6.5m9.15-3.6l5.08-2 13-5.75m9-4l6.8-3 11-5.42m8.8-4.34l7.3-3.6 10.13-5.55m8.65-4.7l6.8-3.74 10.2-6.15m8.44-5.07l5.6-3.38 10.95-7.25m8.2-5.42l3.9-2.57 12.17-8.8m7.97-5.77l1.8-1.3 13.7-10.82m7.7-6.1l14.93-12.83m7.36-6.53l14.36-13.45m7-6.93l13.8-14.03m6.6-7.3l11.35-12.57 1.76-2.1m6.3-7.58l9.2-11.1 3.2-4.18m5.96-7.83l7.52-9.9 4.16-5.94m5.63-8.07l6.32-9.08 4.64-7.28m5.28-8.3l5.3-8.3" stroke="#000" stroke-width="2" fill="none"/><path d="M387.88 2261h-4.03v-1h4.03z"/><path d="M1159.47 1920.88l.53-.88" stroke="#000" stroke-width="2" fill="none"/><path d="M266.84 2206c0-3.3 2.7-6 6-6h228c3.32 0 6 2.7 6 6v48c0 3.3-2.68 6-6 6h-228c-3.3 0-6-2.7-6-6z" fill="#fff" fill-opacity="0"/><use xlink:href="#g" transform="matrix(1,0,0,1,271.84210526314564,2205) translate(104.30555555555556 32.91666666666666)"/><path d="M520 1976.67c0-3.32 2.7-6 6-6h228c3.3 0 6 2.68 6 6v168.66c0 3.32-2.7 6-6 6H526c-3.3 0-6-2.68-6-6z" fill="#fff" fill-opacity="0"/><use xlink:href="#h" transform="matrix(1,0,0,1,525,1975.6666666666667) translate(27.691358024691382 28.444444444444436)"/><use xlink:href="#i" transform="matrix(1,0,0,1,525,1975.6666666666667) translate(22.753086419753117 71.11111111111109)"/><use xlink:href="#j" transform="matrix(1,0,0,1,525,1975.6666666666667) translate(42.50617283950619 71.11111111111109)"/><use xlink:href="#k" transform="matrix(1,0,0,1,525,1975.6666666666667) translate(73.12345679012347 71.11111111111109)"/><use xlink:href="#l" transform="matrix(1,0,0,1,525,1975.6666666666667) translate(154.1111111111111 71.11111111111109)"/><use xlink:href="#m" transform="matrix(1,0,0,1,525,1975.6666666666667) translate(47.49382716049385 113.77777777777774)"/><use xlink:href="#n" transform="matrix(1,0,0,1,525,1975.6666666666667) translate(71.14814814814817 156.4444444444444)"/><path d="M1220 1734.4c0-3.3 2.7-6 6-6h58.53c3.3 0 6 2.7 6 6v51.2c0 3.3-2.7 6-6 6H1226c-3.3 0-6-2.7-6-6z" fill="#fff" fill-opacity="0"/><g><use xlink:href="#o" transform="matrix(1,0,0,1,1225,1733.4044786564032) translate(8.913580246913583 33.236111111111114)"/></g><defs><path fill="#333" d="M147 0H94L2-248h55l64 206c17-72 42-137 63-206h54" id="p"/><path fill="#333" d="M24-248c93 1 206-16 204 79-1 75-69 88-152 82V0H24v-248zm52 121c47 0 100 7 100-41 0-47-54-39-100-39v80" id="q"/><path fill="#333" d="M15-148v-39h180v39H15zm0 97v-39h180v39H15" id="r"/><path fill="#333" d="M111-147c44 9 85 22 84 75-1 49-35 65-84 68v31H91V-4C40-5 12-27 5-72l45-8c4 24 15 38 41 40-2-22 4-51-2-69-39-10-76-22-76-72 0-47 35-60 78-63v-23h20v23c47 1 70 23 78 62l-46 7c-4-18-12-32-32-34v62zm-20-63c-33-4-45 46-13 54 4 1 8 2 13 4v-58zm20 170c39 5 53-51 15-60-7-2-7-2-15-4v64" id="s"/><path fill="#333" d="M182-182c0 78-84 86-111 141h115V0H12c-6-101 99-100 120-180 1-22-12-31-33-32-23 0-32 14-35 34l-49-3c5-45 32-70 84-70 51 0 83 22 83 69" id="t"/><path fill="#333" d="M62-158H24l-5-90h48" id="u"/><path fill="#333" d="M101-251c68 0 84 54 84 127C185-50 166 4 99 4S15-52 14-124c-1-75 17-127 87-127zm-1 216c37-5 36-46 36-89s4-89-36-89c-39 0-36 45-36 89 0 43-3 85 36 89" id="v"/><path fill="#333" d="M24 0v-54h51V0H24" id="w"/><g id="a"><use transform="matrix(0.08641975308641973,0,0,0.08641975308641973,0,0)" xlink:href="#p"/><use transform="matrix(0.08641975308641973,0,0,0.08641975308641973,20.740740740740737,0)" xlink:href="#q"/><use transform="matrix(0.08641975308641973,0,0,0.08641975308641973,41.481481481481474,0)" xlink:href="#r"/><use transform="matrix(0.08641975308641973,0,0,0.08641975308641973,59.62962962962962,0)" xlink:href="#s"/><use transform="matrix(0.08641975308641973,0,0,0.08641975308641973,76.91358024691357,0)" xlink:href="#t"/><use transform="matrix(0.08641975308641973,0,0,0.08641975308641973,94.19753086419752,0)" xlink:href="#u"/><use transform="matrix(0.08641975308641973,0,0,0.08641975308641973,101.54320987654319,0)" xlink:href="#v"/><use transform="matrix(0.08641975308641973,0,0,0.08641975308641973,118.82716049382714,0)" xlink:href="#v"/><use transform="matrix(0.08641975308641973,0,0,0.08641975308641973,136.1111111111111,0)" xlink:href="#v"/><use transform="matrix(0.08641975308641973,0,0,0.08641975308641973,153.39506172839504,0)" xlink:href="#w"/><use transform="matrix(0.08641975308641973,0,0,0.08641975308641973,162.037037037037,0)" xlink:href="#v"/><use transform="matrix(0.08641975308641973,0,0,0.08641975308641973,179.32098765432096,0)" xlink:href="#v"/><use transform="matrix(0.08641975308641973,0,0,0.08641975308641973,196.6049382716049,0)" xlink:href="#v"/></g><use transform="matrix(0.08641975308641973,0,0,0.08641975308641973,0,0)" xlink:href="#v" id="b"/><path fill="#333" d="M23 0v-37h61v-169l-59 37v-38l62-41h46v211h57V0H23" id="x"/><use transform="matrix(0.08641975308641973,0,0,0.08641975308641973,0,0)" xlink:href="#x" id="c"/><use transform="matrix(0.08641975308641973,0,0,0.08641975308641973,0,0)" xlink:href="#t" id="d"/><path fill="#333" d="M128-127c34 4 56 21 59 58 7 91-148 94-172 28-4-9-6-17-7-26l51-5c1 24 16 35 40 36 23 0 39-12 38-36-1-31-31-36-65-34v-40c32 2 59-3 59-33 0-20-13-33-34-33s-33 13-35 32l-50-3c6-44 37-68 86-68 50 0 83 20 83 66 0 35-22 52-53 58" id="y"/><use transform="matrix(0.08641975308641973,0,0,0.08641975308641973,0,0)" xlink:href="#y" id="e"/><path fill="#333" d="M165-50V0h-47v-50H5v-38l105-160h55v161h33v37h-33zm-47-37l2-116L46-87h72" id="z"/><use transform="matrix(0.08641975308641973,0,0,0.08641975308641973,0,0)" xlink:href="#z" id="f"/><path fill="#333" d="M93-157L62 0H13l31-157H16l6-33h28c2-54 40-81 100-68l-6 32c-29-8-44 9-45 36h38l-7 33H93" id="A"/><g id="g"><use transform="matrix(0.09259259259259256,0,0,0.09259259259259256,0,0)" xlink:href="#A"/><use transform="matrix(0.09259259259259256,0,0,0.09259259259259256,10.370370370370367,0)" xlink:href="#A"/></g><path fill="#333" d="M25-224v-37h50v37H25zM75 22c2 45-34 59-81 51V38c22 5 31-5 31-27v-201h50V22" id="B"/><path fill="#333" d="M249-155c45 1 62 31 62 79-1 48-18 79-63 79s-61-32-62-79c0-48 16-79 63-79zM97 0H61l162-248h36zM9-172c0-48 16-79 63-78 46 0 62 31 62 78 0 48-18 79-63 79S9-124 9-172zM249-25c24 0 24-26 24-51 0-26-1-52-24-52-24 0-25 26-25 52 0 25 0 51 25 51zM71-120c23 0 24-25 24-52 0-26 0-51-23-51-25 0-25 25-25 51 0 27 1 52 24 52" id="C"/><path fill="#333" d="M135-194c87-1 58 113 63 194h-50c-7-57 23-157-34-157-59 0-34 97-39 157H25l-1-190h47c2 12-1 28 3 38 12-26 28-41 61-42" id="D"/><path fill="#333" d="M133-34C117-15 103 5 69 4 32 3 11-16 11-54c-1-60 55-63 116-61 1-26-3-47-28-47-18 1-26 9-28 27l-52-2c7-38 36-58 82-57s74 22 75 68l1 82c-1 14 12 18 25 15v27c-30 8-71 5-69-32zm-48 3c29 0 43-24 42-57-32 0-66-3-65 30 0 17 8 27 23 27" id="E"/><path fill="#333" d="M115-3C79 11 28 4 28-45v-112H4v-33h27l15-45h31v45h36v33H77v99c-1 23 16 31 38 25v30" id="F"/><path fill="#333" d="M128 0H69L1-190h53L99-40l48-150h52" id="G"/><g id="h"><use transform="matrix(0.0987654320987654,0,0,0.0987654320987654,0,0)" xlink:href="#B"/><use transform="matrix(0.0987654320987654,0,0,0.0987654320987654,9.876543209876539,0)" xlink:href="#r"/><use transform="matrix(0.0987654320987654,0,0,0.0987654320987654,30.617283950617267,0)" xlink:href="#z"/><use transform="matrix(0.0987654320987654,0,0,0.0987654320987654,50.37037037037035,0)" xlink:href="#v"/><use transform="matrix(0.0987654320987654,0,0,0.0987654320987654,70.12345679012343,0)" xlink:href="#C"/><use transform="matrix(0.0987654320987654,0,0,0.0987654320987654,101.72839506172834,0)" xlink:href="#D"/><use transform="matrix(0.0987654320987654,0,0,0.0987654320987654,123.35802469135795,0)" xlink:href="#E"/><use transform="matrix(0.0987654320987654,0,0,0.0987654320987654,143.11111111111106,0)" xlink:href="#F"/><use transform="matrix(0.0987654320987654,0,0,0.0987654320987654,154.86419753086415,0)" xlink:href="#G"/></g><path fill="#333" d="M25-224v-37h50v37H25zM25 0v-190h50V0H25" id="H"/><use transform="matrix(0.0987654320987654,0,0,0.0987654320987654,0,0)" xlink:href="#H" id="i"/><use transform="matrix(0.0987654320987654,0,0,0.0987654320987654,0,0)" xlink:href="#r" id="j"/><g id="k"><use transform="matrix(0.0987654320987654,0,0,0.0987654320987654,0,0)" xlink:href="#x"/><use transform="matrix(0.0987654320987654,0,0,0.0987654320987654,19.753086419753078,0)" xlink:href="#v"/><use transform="matrix(0.0987654320987654,0,0,0.0987654320987654,39.506172839506156,0)" xlink:href="#C"/></g><path fill="#333" d="M135-194c53 0 70 44 70 98 0 56-19 98-73 100-31 1-45-17-59-34 3 33 2 69 2 105H25l-1-265h48c2 10 0 23 3 31 11-24 29-35 60-35zM114-30c33 0 39-31 40-66 0-38-9-64-40-64-56 0-55 130 0 130" id="I"/><g id="l"><use transform="matrix(0.0987654320987654,0,0,0.0987654320987654,0,0)" xlink:href="#I"/><use transform="matrix(0.0987654320987654,0,0,0.0987654320987654,21.629629629629623,0)" xlink:href="#F"/><use transform="matrix(0.0987654320987654,0,0,0.0987654320987654,33.38271604938271,0)" xlink:href="#G"/></g><g id="m"><use transform="matrix(0.0987654320987654,0,0,0.0987654320987654,0,0)" xlink:href="#D"/><use transform="matrix(0.0987654320987654,0,0,0.0987654320987654,21.629629629629623,0)" xlink:href="#r"/><use transform="matrix(0.0987654320987654,0,0,0.0987654320987654,42.37037037037035,0)" xlink:href="#z"/><use transform="matrix(0.0987654320987654,0,0,0.0987654320987654,62.12345679012343,0)" xlink:href="#v"/><use transform="matrix(0.0987654320987654,0,0,0.0987654320987654,81.8765432098765,0)" xlink:href="#I"/><use transform="matrix(0.0987654320987654,0,0,0.0987654320987654,103.50617283950612,0)" xlink:href="#F"/><use transform="matrix(0.0987654320987654,0,0,0.0987654320987654,115.25925925925922,0)" xlink:href="#G"/></g><path fill="#333" d="M240-174c0 40-23 61-54 70L253 0h-59l-57-94H76V0H24v-248c93 4 217-23 216 74zM76-134c48-2 112 12 112-38 0-48-66-32-112-35v73" id="J"/><path fill="#333" d="M110-251c83-7 118 89 53 130-17 10-36 21-38 46H78c2-56 65-53 71-103 2-21-15-35-38-34-25 1-41 14-44 38l-50-2c6-48 39-70 93-75zM77 0v-47h51V0H77" id="K"/><g id="n"><use transform="matrix(0.0987654320987654,0,0,0.0987654320987654,0,0)" xlink:href="#J"/><use transform="matrix(0.0987654320987654,0,0,0.0987654320987654,25.58024691358024,0)" xlink:href="#r"/><use transform="matrix(0.0987654320987654,0,0,0.0987654320987654,46.32098765432097,0)" xlink:href="#s"/><use transform="matrix(0.0987654320987654,0,0,0.0987654320987654,66.07407407407405,0)" xlink:href="#K"/></g><g id="o"><use transform="matrix(0.08024691358024691,0,0,0.08024691358024691,0,0)" xlink:href="#I"/><use transform="matrix(0.08024691358024691,0,0,0.08024691358024691,17.574074074074073,0)" xlink:href="#F"/><use transform="matrix(0.08024691358024691,0,0,0.08024691358024691,27.123456790123456,0)" xlink:href="#G"/></g></defs></g></svg>