<svg xmlns="http://www.w3.org/2000/svg" xmlns:xlink="http://www.w3.org/1999/xlink" xmlns:lucid="lucid" width="1104" height="827"><g transform="translate(-472 -122)" lucid:page-tab-id="0_0"><path d="M0 0h1870.4v1323.2H0z" fill="#fff"/><path d="M534.08 390.82l941.06.76" stroke="#5e5e5e" stroke-width="5" fill="none"/><path d="M534.14 393.32h-5.56v-2.5h5.56z" fill="#5e5e5e"/><path d="M1491.9 391.6l-14.26 4.6v-9.26z" stroke="#5e5e5e" stroke-width="5" fill="#5e5e5e"/><path d="M1448.42 388.32v-153.2" stroke="#5e5e5e" stroke-width="5" fill="none"/><path d="M1450.92 390.82h-5v-2.57h5z" fill="#5e5e5e"/><path d="M1448.42 218.36l4.64 14.27h-9.27z" stroke="#5e5e5e" stroke-width="5" fill="#5e5e5e"/><path d="M496.32 396.82c0-3.3 2.68-6 6-6h58.52c3.32 0 6 2.7 6 6v78.27c0 3.3-2.68 6-6 6h-58.52c-3.32 0-6-2.7-6-6z" stroke="#000" stroke-opacity="0" stroke-width="5" fill="#fff" fill-opacity="0"/><use xlink:href="#a" transform="matrix(1,0,0,1,501.3157894736842,395.81875437368797) translate(22.47530864197531 45.892361111111114)"/><path d="M1413.16 396.82c0-3.3 2.68-6 6-6h58.52c3.32 0 6 2.7 6 6v78.27c0 3.3-2.68 6-6 6h-58.52c-3.32 0-6-2.7-6-6z" stroke="#000" stroke-opacity="0" stroke-width="5" fill="#fff" fill-opacity="0"/><use xlink:href="#b" transform="matrix(1,0,0,1,1418.157894736842,395.81875437368797) translate(14.450617283950617 45.892361111111114)"/><path d="M531.58 483.6v123.1" stroke="#5e5e5e" stroke-width="5" fill="none"/><path d="M534.08 483.66h-5v-2.57h5z" fill="#5e5e5e"/><path d="M531.58 623.46l-4.64-14.27h9.27z" stroke="#5e5e5e" stroke-width="5" fill="#5e5e5e"/><path d="M990 483.6v62.9M990 483.66v-2.57" stroke="#5e5e5e" stroke-width="5" fill="none"/><path d="M990 563.27L985.36 549h9.28z" stroke="#5e5e5e" stroke-width="5" fill="#5e5e5e"/><path d="M1447.47 483.4l-3 7.3-.83 1.8m-8.75 17.67l-4 7.05-5.1 8.2-1.12 1.6m-11.62 15.94l-4.42 5.42-6.35 7.17-2.2 2.27m-14.17 13.7l-4.8 4.22-7.83 6.3-2.64 1.95m-16.23 11.2l-7.2 4.43-9.62 5.4-.2.1m-17.75 8.58l-2.84 1.3-11.2 4.54-4.25 1.52m-18.73 6.17l-1.1.34-12.88 3.4-5.12 1.15m-19.35 3.8l-2.84.5-14.34 1.92-2.37.2m-19.67 1.5l-7.66.4-12.05.1m-19.7-.6l-13.6-1.04-6.05-.7m-19.53-2.78l-3.6-.58-13.9-2.83-1.83-.45m-19.06-5.07l-4.9-1.44-11.8-4-2-.78m-18.25-7.5l-.97-.42-9.43-4.6-7.2-3.87m-16.8-10.33l-6.57-4.7-1.4-1.1" stroke="#c92d39" stroke-width="5" fill="none"/><path d="M1449.76 484.42l-4.63-1.9.6-1.43h5.4z" fill="#c92d39"/><path d="M996.08 576.7l13.78 5.93-6.12 6.97z" stroke="#c92d39" stroke-width="5" fill="#c92d39"/><path d="M989.6 573.84l-1.58 9.48-.04.2m-4.36 19.15l-.73 2.9-3.1 10.38-1.9 5.5m-7.17 18.27l-2.16 4.9-4.34 8.8-2.14 3.92M952 674.17l-2.5 3.78-5.5 7.6-3.54 4.5m-12.88 14.82l-1.77 1.9-6.65 6.56-5.7 5.16m-15.26 12.34l-.98.73-7.98 5.6-7.32 4.66m-17.12 9.6l-1.7.9-9.5 4.5-6.63 2.82m-18.4 6.84l-5.87 1.92-11.16 3.15-1.8.43m-19.2 4.15l-2.62.5-12.48 1.9-4.32.46m-19.56 1.66l-2.36.15-13.74.34-3.53-.06m-19.62-.73l-5.52-.33-14.03-1.43m-19.4-2.93l-12.15-2.27-7.1-1.65m-19.02-4.86l-5.6-1.55-13.16-4.24m-18.47-6.65l-.78-.3-16.37-6.8-.97-.47m-17.75-8.4l-8.72-4.52M989.58 573.9l.42-2.53" stroke="#3aa6dd" stroke-width="5" fill="none"/><path d="M538.64 725.77l14.7 2.92-4.52 8.08z" stroke="#3aa6dd" stroke-width="5" fill="#3aa6dd"/><path d="M637.37 484.08c0-3.3 2.68-6 6-6H878.2c3.32 0 6 2.7 6 6v78.28c0 3.3-2.68 6-6 6H643.38c-3.32 0-6-2.7-6-6z" stroke="#000" stroke-opacity="0" stroke-width="5" fill="#fff" fill-opacity="0"/><use xlink:href="#c" transform="matrix(1,0,0,1,642.3684210526317,483.0825752274318) translate(40.623456790123484 46.91666666666666)"/><path d="M637.37 538.26h231.26v63.2H637.37z" fill="#fff" fill-opacity="0"/><use xlink:href="#d" transform="matrix(1,0,0,1,642.3684210526316,543.2645206438068) translate(11.194444444444471 26.666666666666657)"/><path d="M1095.8 457c0-3.3 2.68-6 6-6h234.83c3.32 0 6 2.7 6 6v78.27c0 3.32-2.68 6-6 6H1101.8c-3.32 0-6-2.68-6-6z" stroke="#000" stroke-opacity="0" stroke-width="5" fill="#fff" fill-opacity="0"/><use xlink:href="#e" transform="matrix(1,0,0,1,1100.7894736842106,456.0006997900631) translate(40.623456790123484 46.91666666666666)"/><path d="M1095.8 517.18c0-3.3 2.68-6 6-6h234.83c3.32 0 6 2.7 6 6v78.28c0 3.3-2.68 6-6 6H1101.8c-3.32 0-6-2.7-6-6z" stroke="#000" stroke-opacity="0" stroke-width="5" fill="#fff" fill-opacity="0"/><use xlink:href="#f" transform="matrix(1,0,0,1,1100.7894736842106,516.1826452064381) translate(10.052469135802497 46.91666666666666)"/><path d="M320 637.55c0-3.32 2.7-6 6-6h411.16c3.3 0 6 2.68 6 6v78.27c0 3.3-2.7 6-6 6H326c-3.3 0-6-2.7-6-6z" stroke="#000" stroke-opacity="0" stroke-width="5" fill="#fff" fill-opacity="0"/><use xlink:href="#g" transform="matrix(1,0,0,1,325,636.5465360391883) translate(172.1327160493827 45.892361111111114)"/><path d="M320 637.55c0-3.32 2.7-6 6-6h411.16c3.3 0 6 2.68 6 6v78.27c0 3.3-2.7 6-6 6H326c-3.3 0-6-2.7-6-6z" stroke="#000" stroke-opacity="0" stroke-width="5" fill="#fff" fill-opacity="0"/><use xlink:href="#g" transform="matrix(1,0,0,1,325,636.5465360391883) translate(172.1327160493827 45.892361111111114)"/><path d="M1236.84 126c0-3.3 2.7-6 6-6H1654c3.3 0 6 2.7 6 6v78.27c0 3.32-2.7 6-6 6h-411.16c-3.3 0-6-2.68-6-6z" stroke="#000" stroke-opacity="0" stroke-width="5" fill="#fff" fill-opacity="0"/><use xlink:href="#h" transform="matrix(1,0,0,1,1241.842105263158,125) translate(110.14197530864196 45.892361111111114)"/><path d="M990 483.6v7.38m0 9.85v14.77m0 9.84v14.78m0 9.84v14.78m0 9.84v14.77m0 9.85v14.77m0 9.85v14.77m0 9.84v14.77m0 9.86v14.77m0 9.85v14.77m0 9.85v14.77m0 9.85v14.77m0 9.84v14.77m0 9.86v14.77m0 9.85v14.77m0 9.84v14.77m0 9.84v7.4M990 483.66v-2.57" stroke="#5e5e5e" stroke-width="5" fill="none"/><path d="M992.5 880h-5v-2.56h5z" fill="#5e5e5e"/><path d="M929.2 886c0-3.3 2.7-6 6-6h109.6c3.3 0 6 2.7 6 6v78.27c0 3.32-2.7 6-6 6H935.2c-3.3 0-6-2.68-6-6z" stroke="#000" stroke-opacity="0" stroke-width="5" fill="#fff" fill-opacity="0"/><use xlink:href="#i" transform="matrix(1,0,0,1,934.2105263157896,885) translate(46.73148148148148 45.892361111111114)"/><path d="M1500 366c0-3.3 2.7-6 6-6h58.53c3.3 0 6 2.7 6 6v51.2c0 3.3-2.7 6-6 6H1506c-3.3 0-6-2.7-6-6z" stroke="#000" stroke-opacity="0" stroke-width="5" fill="#fff" fill-opacity="0"/><use xlink:href="#j" transform="matrix(1,0,0,1,1505,365) translate(4.901234567901234 33.236111111111114)"/><path d="M954.74 396.82c0-3.3 2.68-6 6-6h58.52c3.32 0 6 2.7 6 6v78.27c0 3.3-2.68 6-6 6h-58.52c-3.32 0-6-2.7-6-6z" stroke="#000" stroke-opacity="0" stroke-width="5" fill="#fff" fill-opacity="0"/><use xlink:href="#k" transform="matrix(1,0,0,1,959.7368421052631,395.81875437368797) translate(14.450617283950617 45.892361111111114)"/><path d="M1000 182.5v7.72m0 10.3v15.43m0 10.3v15.42m0 10.3v15.43m0 10.3v15.43m0 10.3v15.42m0 10.3v15.43m0 10.3v15.43m0 10.3v7.72M1000 182.56V180" stroke="#5e5e5e" stroke-width="5" fill="none"/><path d="M1002.5 390.82h-5v-2.57h5z" fill="#5e5e5e"/><defs><path fill="#333" d="M101-251c68 0 84 54 84 127C185-50 166 4 99 4S15-52 14-124c-1-75 17-127 87-127zm-1 216c37-5 36-46 36-89s4-89-36-89c-39 0-36 45-36 89 0 43-3 85 36 89" id="l"/><use transform="matrix(0.08024691358024691,0,0,0.08024691358024691,0,0)" xlink:href="#l" id="a"/><path fill="#333" d="M115-159c48 0 72 30 72 78 0 54-30 85-83 85-64 0-91-50-91-122 0-98 58-163 141-120 15 8 21 24 27 44l-47 6c-5-31-48-31-61-4-7 14-11 33-11 60 9-17 28-27 53-27zM102-35c24 0 36-20 36-45s-11-43-37-43c-23 0-36 14-36 38 0 27 11 50 37 50" id="m"/><path fill="#333" d="M165-50V0h-47v-50H5v-38l105-160h55v161h33v37h-33zm-47-37l2-116L46-87h72" id="n"/><g id="b"><use transform="matrix(0.08024691358024691,0,0,0.08024691358024691,0,0)" xlink:href="#m"/><use transform="matrix(0.08024691358024691,0,0,0.08024691358024691,16.049382716049383,0)" xlink:href="#n"/></g><path fill="#3aa6dd" d="M25-224v-37h50v37H25zM25 0v-190h50V0H25" id="o"/><path fill="#3aa6dd" d="M182-182c0 78-84 86-111 141h115V0H12c-6-101 99-100 120-180 1-22-12-31-33-32-23 0-32 14-35 34l-49-3c5-45 32-70 84-70 51 0 83 22 83 69" id="p"/><path fill="#3aa6dd" d="M15-148v-39h180v39H15zm0 97v-39h180v39H15" id="q"/><path fill="#3aa6dd" d="M128-127c34 4 56 21 59 58 7 91-148 94-172 28-4-9-6-17-7-26l51-5c1 24 16 35 40 36 23 0 39-12 38-36-1-31-31-36-65-34v-40c32 2 59-3 59-33 0-20-13-33-34-33s-33 13-35 32l-50-3c6-44 37-68 86-68 50 0 83 20 83 66 0 35-22 52-53 58" id="r"/><path fill="#3aa6dd" d="M249-155c45 1 62 31 62 79-1 48-18 79-63 79s-61-32-62-79c0-48 16-79 63-79zM97 0H61l162-248h36zM9-172c0-48 16-79 63-78 46 0 62 31 62 78 0 48-18 79-63 79S9-124 9-172zM249-25c24 0 24-26 24-51 0-26-1-52-24-52-24 0-25 26-25 52 0 25 0 51 25 51zM71-120c23 0 24-25 24-52 0-26 0-51-23-51-25 0-25 25-25 51 0 27 1 52 24 52" id="s"/><path fill="#3aa6dd" d="M135-194c53 0 70 44 70 98 0 56-19 98-73 100-31 1-45-17-59-34 3 33 2 69 2 105H25l-1-265h48c2 10 0 23 3 31 11-24 29-35 60-35zM114-30c33 0 39-31 40-66 0-38-9-64-40-64-56 0-55 130 0 130" id="t"/><path fill="#3aa6dd" d="M88-194c31-1 46 15 58 34l-1-101h50l1 261h-48c-2-10 0-23-3-31C134-8 116 4 84 4 32 4 16-41 15-95c0-56 19-97 73-99zm17 164c33 0 40-30 41-66 1-37-9-64-41-64s-38 30-39 65c0 43 13 65 39 65" id="u"/><path fill="#3aa6dd" d="M128 0H69L1-190h53L99-40l48-150h52" id="v"/><g id="c"><use transform="matrix(0.09259259259259256,0,0,0.09259259259259256,0,0)" xlink:href="#o"/><use transform="matrix(0.0679012345679012,0,0,0.0679012345679012,9.259259259259256,0)" xlink:href="#p"/><use transform="matrix(0.07407407407407404,0,0,0.07407407407407404,22.839506172839496,0)" xlink:href="#q"/><use transform="matrix(0.0864197530864197,0,0,0.0864197530864197,38.39506172839504,0)" xlink:href="#r"/><use transform="matrix(0.0864197530864197,0,0,0.0864197530864197,55.679012345678984,0)" xlink:href="#p"/><use transform="matrix(0.0864197530864197,0,0,0.0864197530864197,72.96296296296293,0)" xlink:href="#s"/><use transform="matrix(0.0864197530864197,0,0,0.0864197530864197,100.61728395061725,0)" xlink:href="#t"/><use transform="matrix(0.0864197530864197,0,0,0.0864197530864197,119.54320987654316,0)" xlink:href="#u"/><use transform="matrix(0.0864197530864197,0,0,0.0864197530864197,138.46913580246908,0)" xlink:href="#v"/></g><path fill="#3aa6dd" d="M135-194c87-1 58 113 63 194h-50c-7-57 23-157-34-157-59 0-34 97-39 157H25l-1-190h47c2 12-1 28 3 38 12-26 28-41 61-42" id="w"/><path fill="#3aa6dd" d="M115-159c48 0 72 30 72 78 0 54-30 85-83 85-64 0-91-50-91-122 0-98 58-163 141-120 15 8 21 24 27 44l-47 6c-5-31-48-31-61-4-7 14-11 33-11 60 9-17 28-27 53-27zM102-35c24 0 36-20 36-45s-11-43-37-43c-23 0-36 14-36 38 0 27 11 50 37 50" id="x"/><path fill="#3aa6dd" d="M4 7l51-268h42L46 7H4" id="y"/><path fill="#3aa6dd" d="M101-251c68 0 84 54 84 127C185-50 166 4 99 4S15-52 14-124c-1-75 17-127 87-127zm-1 216c37-5 36-46 36-89s4-89-36-89c-39 0-36 45-36 89 0 43-3 85 36 89" id="z"/><g id="d"><use transform="matrix(0.09259259259259256,0,0,0.09259259259259256,0,0)" xlink:href="#w"/><use transform="matrix(0.0679012345679012,0,0,0.0679012345679012,20.27777777777777,0)" xlink:href="#p"/><use transform="matrix(0.07407407407407404,0,0,0.07407407407407404,33.85802469135801,0)" xlink:href="#q"/><use transform="matrix(0.0864197530864197,0,0,0.0864197530864197,49.41358024691356,0)" xlink:href="#x"/><use transform="matrix(0.0864197530864197,0,0,0.0864197530864197,66.6975308641975,0)" xlink:href="#r"/><use transform="matrix(0.0864197530864197,0,0,0.0864197530864197,83.98148148148144,0)" xlink:href="#y"/><use transform="matrix(0.0864197530864197,0,0,0.0864197530864197,92.62345679012343,0)" xlink:href="#r"/><use transform="matrix(0.0864197530864197,0,0,0.0864197530864197,109.90740740740736,0)" xlink:href="#x"/><use transform="matrix(0.0864197530864197,0,0,0.0864197530864197,127.1913580246913,0)" xlink:href="#z"/><use transform="matrix(0.0864197530864197,0,0,0.0864197530864197,144.47530864197526,0)" xlink:href="#t"/><use transform="matrix(0.0864197530864197,0,0,0.0864197530864197,163.40123456790118,0)" xlink:href="#u"/><use transform="matrix(0.0864197530864197,0,0,0.0864197530864197,182.3271604938271,0)" xlink:href="#v"/></g><path fill="#c92d39" d="M25-224v-37h50v37H25zM25 0v-190h50V0H25" id="A"/><path fill="#c92d39" d="M23 0v-37h61v-169l-59 37v-38l62-41h46v211h57V0H23" id="B"/><path fill="#c92d39" d="M15-148v-39h180v39H15zm0 97v-39h180v39H15" id="C"/><path fill="#c92d39" d="M182-182c0 78-84 86-111 141h115V0H12c-6-101 99-100 120-180 1-22-12-31-33-32-23 0-32 14-35 34l-49-3c5-45 32-70 84-70 51 0 83 22 83 69" id="D"/><path fill="#c92d39" d="M138-131c27 9 52 24 51 61 0 53-36 74-89 74S11-19 11-69c0-35 22-54 51-61-78-25-46-121 38-121 51 0 83 19 83 66 0 30-18 49-45 54zm-38-16c24 0 32-13 32-36 1-23-11-34-32-34-22 0-33 12-32 34 0 22 9 36 32 36zm1 116c27 0 37-17 37-43 0-25-13-39-39-39-24 0-37 15-37 40 0 27 11 42 39 42" id="E"/><path fill="#c92d39" d="M249-155c45 1 62 31 62 79-1 48-18 79-63 79s-61-32-62-79c0-48 16-79 63-79zM97 0H61l162-248h36zM9-172c0-48 16-79 63-78 46 0 62 31 62 78 0 48-18 79-63 79S9-124 9-172zM249-25c24 0 24-26 24-51 0-26-1-52-24-52-24 0-25 26-25 52 0 25 0 51 25 51zM71-120c23 0 24-25 24-52 0-26 0-51-23-51-25 0-25 25-25 51 0 27 1 52 24 52" id="F"/><path fill="#c92d39" d="M135-194c53 0 70 44 70 98 0 56-19 98-73 100-31 1-45-17-59-34 3 33 2 69 2 105H25l-1-265h48c2 10 0 23 3 31 11-24 29-35 60-35zM114-30c33 0 39-31 40-66 0-38-9-64-40-64-56 0-55 130 0 130" id="G"/><path fill="#c92d39" d="M88-194c31-1 46 15 58 34l-1-101h50l1 261h-48c-2-10 0-23-3-31C134-8 116 4 84 4 32 4 16-41 15-95c0-56 19-97 73-99zm17 164c33 0 40-30 41-66 1-37-9-64-41-64s-38 30-39 65c0 43 13 65 39 65" id="H"/><path fill="#c92d39" d="M128 0H69L1-190h53L99-40l48-150h52" id="I"/><g id="e"><use transform="matrix(0.09259259259259256,0,0,0.09259259259259256,0,0)" xlink:href="#A"/><use transform="matrix(0.0679012345679012,0,0,0.0679012345679012,9.259259259259256,0)" xlink:href="#B"/><use transform="matrix(0.07407407407407404,0,0,0.07407407407407404,22.839506172839496,0)" xlink:href="#C"/><use transform="matrix(0.0864197530864197,0,0,0.0864197530864197,38.39506172839504,0)" xlink:href="#D"/><use transform="matrix(0.0864197530864197,0,0,0.0864197530864197,55.679012345678984,0)" xlink:href="#E"/><use transform="matrix(0.0864197530864197,0,0,0.0864197530864197,72.96296296296293,0)" xlink:href="#F"/><use transform="matrix(0.0864197530864197,0,0,0.0864197530864197,100.61728395061725,0)" xlink:href="#G"/><use transform="matrix(0.0864197530864197,0,0,0.0864197530864197,119.54320987654316,0)" xlink:href="#H"/><use transform="matrix(0.0864197530864197,0,0,0.0864197530864197,138.46913580246908,0)" xlink:href="#I"/></g><path fill="#c92d39" d="M135-194c87-1 58 113 63 194h-50c-7-57 23-157-34-157-59 0-34 97-39 157H25l-1-190h47c2 12-1 28 3 38 12-26 28-41 61-42" id="J"/><path fill="#c92d39" d="M165-50V0h-47v-50H5v-38l105-160h55v161h33v37h-33zm-47-37l2-116L46-87h72" id="K"/><path fill="#c92d39" d="M139-81c0-46-55-55-73-27H18l9-140h149v37H72l-4 63c44-38 133-4 122 66C201 21 21 35 11-62l49-4c5 18 15 30 39 30 26 0 40-18 40-45" id="L"/><path fill="#c92d39" d="M4 7l51-268h42L46 7H4" id="M"/><path fill="#c92d39" d="M128-127c34 4 56 21 59 58 7 91-148 94-172 28-4-9-6-17-7-26l51-5c1 24 16 35 40 36 23 0 39-12 38-36-1-31-31-36-65-34v-40c32 2 59-3 59-33 0-20-13-33-34-33s-33 13-35 32l-50-3c6-44 37-68 86-68 50 0 83 20 83 66 0 35-22 52-53 58" id="N"/><path fill="#c92d39" d="M115-159c48 0 72 30 72 78 0 54-30 85-83 85-64 0-91-50-91-122 0-98 58-163 141-120 15 8 21 24 27 44l-47 6c-5-31-48-31-61-4-7 14-11 33-11 60 9-17 28-27 53-27zM102-35c24 0 36-20 36-45s-11-43-37-43c-23 0-36 14-36 38 0 27 11 50 37 50" id="O"/><path fill="#c92d39" d="M101-251c68 0 84 54 84 127C185-50 166 4 99 4S15-52 14-124c-1-75 17-127 87-127zm-1 216c37-5 36-46 36-89s4-89-36-89c-39 0-36 45-36 89 0 43-3 85 36 89" id="P"/><g id="f"><use transform="matrix(0.09259259259259256,0,0,0.09259259259259256,0,0)" xlink:href="#J"/><use transform="matrix(0.0679012345679012,0,0,0.0679012345679012,20.27777777777777,0)" xlink:href="#B"/><use transform="matrix(0.07407407407407404,0,0,0.07407407407407404,33.85802469135801,0)" xlink:href="#C"/><use transform="matrix(0.0864197530864197,0,0,0.0864197530864197,49.41358024691356,0)" xlink:href="#B"/><use transform="matrix(0.0864197530864197,0,0,0.0864197530864197,66.6975308641975,0)" xlink:href="#K"/><use transform="matrix(0.0864197530864197,0,0,0.0864197530864197,83.98148148148144,0)" xlink:href="#L"/><use transform="matrix(0.0864197530864197,0,0,0.0864197530864197,101.26543209876539,0)" xlink:href="#M"/><use transform="matrix(0.0864197530864197,0,0,0.0864197530864197,109.90740740740736,0)" xlink:href="#N"/><use transform="matrix(0.0864197530864197,0,0,0.0864197530864197,127.1913580246913,0)" xlink:href="#O"/><use transform="matrix(0.0864197530864197,0,0,0.0864197530864197,144.47530864197526,0)" xlink:href="#P"/><use transform="matrix(0.0864197530864197,0,0,0.0864197530864197,161.7592592592592,0)" xlink:href="#G"/><use transform="matrix(0.0864197530864197,0,0,0.0864197530864197,180.68518518518513,0)" xlink:href="#H"/><use transform="matrix(0.0864197530864197,0,0,0.0864197530864197,199.6111111111111,0)" xlink:href="#I"/></g><path fill="#333" d="M24-248c93 1 206-16 204 79-1 75-69 88-152 82V0H24v-248zm52 121c47 0 100 7 100-41 0-47-54-39-100-39v80" id="Q"/><path fill="#333" d="M15-148v-39h180v39H15zm0 97v-39h180v39H15" id="R"/><path fill="#333" d="M110-251c83-7 118 89 53 130-17 10-36 21-38 46H78c2-56 65-53 71-103 2-21-15-35-38-34-25 1-41 14-44 38l-50-2c6-48 39-70 93-75zM77 0v-47h51V0H77" id="S"/><path fill="#333" d="M111-147c44 9 85 22 84 75-1 49-35 65-84 68v31H91V-4C40-5 12-27 5-72l45-8c4 24 15 38 41 40-2-22 4-51-2-69-39-10-76-22-76-72 0-47 35-60 78-63v-23h20v23c47 1 70 23 78 62l-46 7c-4-18-12-32-32-34v62zm-20-63c-33-4-45 46-13 54 4 1 8 2 13 4v-58zm20 170c39 5 53-51 15-60-7-2-7-2-15-4v64" id="T"/><g id="g"><use transform="matrix(0.08024691358024691,0,0,0.08024691358024691,0,0)" xlink:href="#Q"/><use transform="matrix(0.08024691358024691,0,0,0.08024691358024691,19.25925925925926,0)" xlink:href="#R"/><use transform="matrix(0.08024691358024691,0,0,0.08024691358024691,36.111111111111114,0)" xlink:href="#S"/><use transform="matrix(0.08024691358024691,0,0,0.08024691358024691,53.68518518518519,0)" xlink:href="#T"/></g><path fill="#333" d="M76-208v77h127v40H76V0H24v-248h183v40H76" id="U"/><path fill="#333" d="M138-131c27 9 52 24 51 61 0 53-36 74-89 74S11-19 11-69c0-35 22-54 51-61-78-25-46-121 38-121 51 0 83 19 83 66 0 30-18 49-45 54zm-38-16c24 0 32-13 32-36 1-23-11-34-32-34-22 0-33 12-32 34 0 22 9 36 32 36zm1 116c27 0 37-17 37-43 0-25-13-39-39-39-24 0-37 15-37 40 0 27 11 42 39 42" id="V"/><path fill="#333" d="M62-158H24l-5-90h48" id="W"/><path fill="#333" d="M24 0v-54h51V0H24" id="X"/><g id="h"><use transform="matrix(0.08024691358024691,0,0,0.08024691358024691,0,0)" xlink:href="#U"/><use transform="matrix(0.08024691358024691,0,0,0.08024691358024691,17.574074074074073,0)" xlink:href="#R"/><use transform="matrix(0.08024691358024691,0,0,0.08024691358024691,34.425925925925924,0)" xlink:href="#V"/><use transform="matrix(0.08024691358024691,0,0,0.08024691358024691,50.4753086419753,0)" xlink:href="#l"/><use transform="matrix(0.08024691358024691,0,0,0.08024691358024691,66.52469135802468,0)" xlink:href="#W"/><use transform="matrix(0.08024691358024691,0,0,0.08024691358024691,73.34567901234567,0)" xlink:href="#l"/><use transform="matrix(0.08024691358024691,0,0,0.08024691358024691,89.39506172839506,0)" xlink:href="#l"/><use transform="matrix(0.08024691358024691,0,0,0.08024691358024691,105.44444444444441,0)" xlink:href="#l"/><use transform="matrix(0.08024691358024691,0,0,0.08024691358024691,121.49382716049381,0)" xlink:href="#X"/><use transform="matrix(0.08024691358024691,0,0,0.08024691358024691,129.5185185185185,0)" xlink:href="#l"/><use transform="matrix(0.08024691358024691,0,0,0.08024691358024691,145.5679012345679,0)" xlink:href="#l"/><use transform="matrix(0.08024691358024691,0,0,0.08024691358024691,161.6172839506173,0)" xlink:href="#l"/><use transform="matrix(0.08024691358024691,0,0,0.08024691358024691,177.66666666666669,0)" xlink:href="#T"/></g><path fill="#333" d="M93-157L62 0H13l31-157H16l6-33h28c2-54 40-81 100-68l-6 32c-29-8-44 9-45 36h38l-7 33H93" id="Y"/><g id="i"><use transform="matrix(0.08024691358024691,0,0,0.08024691358024691,0,0)" xlink:href="#Y"/><use transform="matrix(0.08024691358024691,0,0,0.08024691358024691,8.987654320987655,0)" xlink:href="#Y"/></g><path fill="#333" d="M135-194c53 0 70 44 70 98 0 56-19 98-73 100-31 1-45-17-59-34 3 33 2 69 2 105H25l-1-265h48c2 10 0 23 3 31 11-24 29-35 60-35zM114-30c33 0 39-31 40-66 0-38-9-64-40-64-56 0-55 130 0 130" id="Z"/><path fill="#333" d="M88-194c31-1 46 15 58 34l-1-101h50l1 261h-48c-2-10 0-23-3-31C134-8 116 4 84 4 32 4 16-41 15-95c0-56 19-97 73-99zm17 164c33 0 40-30 41-66 1-37-9-64-41-64s-38 30-39 65c0 43 13 65 39 65" id="aa"/><path fill="#333" d="M128 0H69L1-190h53L99-40l48-150h52" id="ab"/><g id="j"><use transform="matrix(0.08024691358024691,0,0,0.08024691358024691,0,0)" xlink:href="#Z"/><use transform="matrix(0.08024691358024691,0,0,0.08024691358024691,17.574074074074073,0)" xlink:href="#aa"/><use transform="matrix(0.08024691358024691,0,0,0.08024691358024691,35.148148148148145,0)" xlink:href="#ab"/></g><g id="k"><use transform="matrix(0.08024691358024691,0,0,0.08024691358024691,0,0)" xlink:href="#V"/><use transform="matrix(0.08024691358024691,0,0,0.08024691358024691,16.049382716049383,0)" xlink:href="#n"/></g></defs></g></svg>