<svg xmlns="http://www.w3.org/2000/svg" xmlns:xlink="http://www.w3.org/1999/xlink" xmlns:lucid="lucid" width="1068.42" height="696.72"><g transform="translate(-2280 -280)" lucid:page-tab-id="0_0"><path d="M1806.4 0h1870.4v1323.2H1806.4z" fill="#fff"/><path d="M2330 679v-9.2m0-9.2v-18.4m0-9.22v-18.4m0-9.2v-18.42m0-9.2v-18.4m0-9.2v-18.42m0-9.2v-9.2M2330 678.97V680" stroke="#5e5e5e" stroke-width="2" fill="none"/><path d="M2331 513.36h-2v-1.03h2z" fill="#5e5e5e"/><path d="M2332.5 512.35l902.64 7.45" stroke="#5e5e5e" stroke-width="5" fill="none"/><path d="M2332.54 514.85l-5.56-.04.02-2.47h5.56z" fill="#5e5e5e"/><path d="M3251.9 519.93l-14.3 4.52.08-9.27z" stroke="#5e5e5e" stroke-width="5" fill="#5e5e5e"/><path d="M2300 518.33c0-3.3 2.7-6 6-6h48c3.3 0 6 2.7 6 6v48c0 3.32-2.7 6-6 6h-48c-3.3 0-6-2.68-6-6z" stroke="#000" stroke-opacity="0" stroke-width="3" fill="#fff" fill-opacity="0"/><use xlink:href="#a" transform="matrix(1,0,0,1,2305,517.333333333333) translate(16.358024691358025 31.138888888888886)"/><path d="M2420 518.33c0-3.3 2.7-6 6-6h48c3.3 0 6 2.7 6 6v48c0 3.32-2.7 6-6 6h-48c-3.3 0-6-2.68-6-6z" stroke="#000" stroke-opacity="0" stroke-width="3" fill="#fff" fill-opacity="0"/><use xlink:href="#b" transform="matrix(1,0,0,1,2425,517.3333333333335) translate(-6.888888888888879 31.22222222222222)"/><path d="M2530.53 518.33c0-3.3 2.68-6 6-6h48c3.3 0 6 2.7 6 6v48c0 3.32-2.7 6-6 6h-48c-3.32 0-6-2.68-6-6z" stroke="#000" stroke-opacity="0" stroke-width="3" fill="#fff" fill-opacity="0"/><use xlink:href="#c" transform="matrix(1,0,0,1,2535.526315789486,517.333333333333) translate(-6.888888888888879 31.22222222222222)"/><path d="M3178.42 518.33c0-3.3 2.7-6 6-6h48c3.3 0 6 2.7 6 6V591c0 3.3-2.7 6-6 6h-48c-3.3 0-6-2.7-6-6z" stroke="#000" stroke-opacity="0" stroke-width="3" fill="#fff" fill-opacity="0"/><use xlink:href="#d" transform="matrix(1,0,0,1,3183.4210526315787,517.3333333333329) translate(-15.530864197530853 43.72222222222222)"/><path d="M3208.42 599.5v9.93m0 19.86v19.84m0 19.86v19.86m0 19.85v19.87m0 19.86v19.86m0 19.84V808m0 19.86v19.85m0 19.87v9.93" stroke="#5e5e5e" stroke-width="5" fill="none"/><path d="M3210.92 599.56h-5V597h5zM3210.92 880h-5v-2.56h5z" fill="#5e5e5e"/><path d="M3088.42 886c0-3.3 2.7-6 6-6h228c3.3 0 6 2.7 6 6v48c0 3.3-2.7 6-6 6h-228c-3.3 0-6-2.7-6-6z" stroke="#000" stroke-opacity="0" stroke-width="3" fill="#fff" fill-opacity="0"/><use xlink:href="#e" transform="matrix(1,0,0,1,3093.4210526315787,885) translate(102.16666666666667 35.124999999999986)"/><path d="M2703.16 706c0-3.3 2.68-6 6-6h228c3.3 0 6 2.7 6 6v126c0 3.3-2.7 6-6 6h-228c-3.32 0-6-2.7-6-6z" stroke="#000" stroke-opacity="0" stroke-width="5" fill="#fff" fill-opacity="0"/><use xlink:href="#f" transform="matrix(1,0,0,1,2708.157894736842,705) translate(37.51851851851853 28.444444444444436)"/><use xlink:href="#g" transform="matrix(1,0,0,1,2708.157894736842,705) translate(37.56790123456793 71.11111111111109)"/><use xlink:href="#h" transform="matrix(1,0,0,1,2708.157894736842,705) translate(27.641975308642003 113.77777777777774)"/><path d="M2800 518.33c0-3.3 2.7-6 6-6h142.2c3.32 0 6 2.7 6 6V554c0 3.3-2.68 6-6 6H2806c-3.3 0-6-2.7-6-6z" stroke="#000" stroke-opacity="0" stroke-width="3" fill="#fff" fill-opacity="0"/><use xlink:href="#i" transform="matrix(1,0,0,1,2805,517.3333333333335) translate(-66.38888888888889 31.99999999999999)"/><path d="M2330.44 680.9l4.37 8.98m4.62 8.86l3.84 7.1 6.07 10.22m5.36 8.42l4.2 6.43 7.13 10m6.05 7.95l5.12 6.57 7.54 8.87m6.64 7.44l7.25 7.84 6.58 6.55m7.16 6.97l11.42 10.44 3.43 2.9m7.66 6.4l3.13 2.65 12.56 9.68m8.06 5.88l11.7 8.26 4.74 3.07m8.4 5.4l5.26 3.4 11.8 6.94m8.62 5.05l17.62 9.37m8.9 4.5l18 8.64m9.15 4l18.36 7.9m9.3 3.57l18.67 7.1m9.44 3.25l18.94 6.32m9.53 3l19.2 5.53m9.58 2.75l3.33.96 16.05 3.9m9.7 2.34l13.18 3.2 6.28 1.25m9.8 1.95l19.57 3.9m9.83 1.8l19.73 3.07m9.86 1.53l13.18 2.05 6.6.74m9.9 1.12l19.84 2.24m9.92 1.12l2.6.3 17.3 1.22m9.97.7l19.9 1.4m9.98.47l19.97.56m9.98.3l16.3.46 3.66-.05m10-.13l19.96-.26m9.98-.13l8.26-.1 11.68-.64m9.97-.54l19.94-1.1m9.95-.6l19.87-1.94m9.94-.96l14.4-1.4 5.45-.75m9.9-1.37l19.77-2.75m9.86-1.54l19.64-3.57m9.82-1.8l2.43-.44 7.33-1.62M2330.45 680.93l-.45-.92" stroke="#5e5e5e" stroke-width="2" fill="none"/><path d="M3205.26 940.7l-12.92 7.62-2-9.05z" stroke="#5e5e5e" stroke-width="2" fill="#5e5e5e"/><path d="M3128.42 306c0-3.3 2.7-6 6-6h148c3.3 0 6 2.7 6 6v48c0 3.3-2.7 6-6 6h-148c-3.3 0-6-2.7-6-6z" stroke="#000" stroke-opacity="0" stroke-width="3" fill="#fff" fill-opacity="0"/><use xlink:href="#j" transform="matrix(1,0,0,1,3133.4210526315787,305) translate(27.987654320987666 31.138888888888886)"/><path d="M2643.16 518.33c0-3.3 2.68-6 6-6h48c3.3 0 6 2.7 6 6v48c0 3.32-2.7 6-6 6h-48c-3.32 0-6-2.68-6-6z" stroke="#000" stroke-opacity="0" stroke-width="3" fill="#fff" fill-opacity="0"/><use xlink:href="#c" transform="matrix(1,0,0,1,2648.157894736842,517.3333333333335) translate(-6.888888888888879 31.22222222222222)"/><path d="M3060 527.17c0-3.32 2.7-6 6-6h48c3.3 0 6 2.68 6 6v48c0 3.3-2.7 6-6 6h-48c-3.3 0-6-2.7-6-6z" stroke="#000" stroke-opacity="0" stroke-width="3" fill="#fff" fill-opacity="0"/><use xlink:href="#k" transform="matrix(1,0,0,1,3065,526.1666666666665) translate(-14.666666666666657 31.22222222222222)"/><path d="M3090 582.17v59.33" stroke="#5e5e5e" stroke-width="2" fill="none"/><path d="M3091 582.2h-2v-1.03h2z" fill="#5e5e5e"/><path d="M3090 656.76l-4.64-14.26h9.28z" stroke="#5e5e5e" stroke-width="2" fill="#5e5e5e"/><path d="M2673.16 573.33v68.17" stroke="#5e5e5e" stroke-width="2" fill="none"/><path d="M2674.16 573.36h-2v-1.03h2z" fill="#5e5e5e"/><path d="M2673.16 656.76l-4.64-14.26h9.27z" stroke="#5e5e5e" stroke-width="2" fill="#5e5e5e"/><path d="M2560.53 573.33v68.17" stroke="#5e5e5e" stroke-width="2" fill="none"/><path d="M2561.53 573.36h-2v-1.03h2z" fill="#5e5e5e"/><path d="M2560.53 656.76l-4.64-14.26h9.26z" stroke="#5e5e5e" stroke-width="2" fill="#5e5e5e"/><path d="M3208.42 509.83V384.86" stroke="#5e5e5e" stroke-width="5" fill="none"/><path d="M3210.92 512.33h-5v-2.56h5z" fill="#5e5e5e"/><path d="M3208.42 368.1l4.64 14.26h-9.27z" stroke="#5e5e5e" stroke-width="5" fill="#5e5e5e"/><path d="M2450 573.33v68.17" stroke="#5e5e5e" stroke-width="2" fill="none"/><path d="M2451 573.36h-2v-1.03h2z" fill="#5e5e5e"/><path d="M2450 656.76l-4.64-14.26h9.28z" stroke="#5e5e5e" stroke-width="2" fill="#5e5e5e"/><path d="M2330 573.33v64.17" stroke="#5e5e5e" stroke-width="2" fill="none"/><path d="M2331 573.36h-2v-1.03h2z" fill="#5e5e5e"/><path d="M2330 652.76l-4.64-14.26h9.28z" stroke="#5e5e5e" stroke-width="2" fill="#5e5e5e"/><path d="M2331 660h758M2331.03 660H2330M3088.97 660h1.03" stroke="#5e5e5e" stroke-width="2" fill="none"/><defs><path fill="#333" d="M101-251c68 0 84 54 84 127C185-50 166 4 99 4S15-52 14-124c-1-75 17-127 87-127zm-1 216c37-5 36-46 36-89s4-89-36-89c-39 0-36 45-36 89 0 43-3 85 36 89" id="l"/><use transform="matrix(0.08641975308641973,0,0,0.08641975308641973,0,0)" xlink:href="#l" id="a"/><path fill="#333" d="M23 0v-37h61v-169l-59 37v-38l62-41h46v211h57V0H23" id="m"/><path fill="#333" d="M135-194c53 0 70 44 70 98 0 56-19 98-73 100-31 1-45-17-59-34 3 33 2 69 2 105H25l-1-265h48c2 10 0 23 3 31 11-24 29-35 60-35zM114-30c33 0 39-31 40-66 0-38-9-64-40-64-56 0-55 130 0 130" id="n"/><path fill="#333" d="M115-3C79 11 28 4 28-45v-112H4v-33h27l15-45h31v45h36v33H77v99c-1 23 16 31 38 25v30" id="o"/><path fill="#333" d="M128 0H69L1-190h53L99-40l48-150h52" id="p"/><g id="b"><use transform="matrix(0.08641975308641973,0,0,0.08641975308641973,0,0)" xlink:href="#m"/><use transform="matrix(0.08641975308641973,0,0,0.08641975308641973,17.283950617283946,0)" xlink:href="#n"/><use transform="matrix(0.08641975308641973,0,0,0.08641975308641973,36.209876543209866,0)" xlink:href="#o"/><use transform="matrix(0.08641975308641973,0,0,0.08641975308641973,46.493827160493815,0)" xlink:href="#p"/></g><path fill="#333" d="M182-182c0 78-84 86-111 141h115V0H12c-6-101 99-100 120-180 1-22-12-31-33-32-23 0-32 14-35 34l-49-3c5-45 32-70 84-70 51 0 83 22 83 69" id="q"/><g id="c"><use transform="matrix(0.08641975308641973,0,0,0.08641975308641973,0,0)" xlink:href="#q"/><use transform="matrix(0.08641975308641973,0,0,0.08641975308641973,17.283950617283946,0)" xlink:href="#n"/><use transform="matrix(0.08641975308641973,0,0,0.08641975308641973,36.209876543209866,0)" xlink:href="#o"/><use transform="matrix(0.08641975308641973,0,0,0.08641975308641973,46.493827160493815,0)" xlink:href="#p"/></g><g id="d"><use transform="matrix(0.08641975308641973,0,0,0.08641975308641973,0,0)" xlink:href="#m"/><use transform="matrix(0.08641975308641973,0,0,0.08641975308641973,17.283950617283946,0)" xlink:href="#q"/><use transform="matrix(0.08641975308641973,0,0,0.08641975308641973,34.56790123456789,0)" xlink:href="#n"/><use transform="matrix(0.08641975308641973,0,0,0.08641975308641973,53.49382716049381,0)" xlink:href="#o"/><use transform="matrix(0.08641975308641973,0,0,0.08641975308641973,63.77777777777776,0)" xlink:href="#p"/></g><path fill="#333" d="M93-157L62 0H13l31-157H16l6-33h28c2-54 40-81 100-68l-6 32c-29-8-44 9-45 36h38l-7 33H93" id="r"/><g id="e"><use transform="matrix(0.11111111111111108,0,0,0.11111111111111108,0,0)" xlink:href="#r"/><use transform="matrix(0.11111111111111108,0,0,0.11111111111111108,12.444444444444441,0)" xlink:href="#r"/></g><path fill="#333" d="M25-224v-37h50v37H25zM25 0v-190h50V0H25" id="s"/><path fill="#333" d="M15-148v-39h180v39H15zm0 97v-39h180v39H15" id="t"/><path fill="#333" d="M249-155c45 1 62 31 62 79-1 48-18 79-63 79s-61-32-62-79c0-48 16-79 63-79zM97 0H61l162-248h36zM9-172c0-48 16-79 63-78 46 0 62 31 62 78 0 48-18 79-63 79S9-124 9-172zM249-25c24 0 24-26 24-51 0-26-1-52-24-52-24 0-25 26-25 52 0 25 0 51 25 51zM71-120c23 0 24-25 24-52 0-26 0-51-23-51-25 0-25 25-25 51 0 27 1 52 24 52" id="u"/><path fill="#333" d="M220-157c-53 9-28 100-34 157h-49v-107c1-27-5-49-29-50C55-147 81-57 75 0H25l-1-190h47c2 12-1 28 3 38 10-53 101-56 108 0 13-22 24-43 59-42 82 1 51 116 57 194h-49v-107c-1-25-5-48-29-50" id="v"/><g id="f"><use transform="matrix(0.0987654320987654,0,0,0.0987654320987654,0,0)" xlink:href="#s"/><use transform="matrix(0.0987654320987654,0,0,0.0987654320987654,9.876543209876539,0)" xlink:href="#t"/><use transform="matrix(0.0987654320987654,0,0,0.0987654320987654,30.617283950617267,0)" xlink:href="#q"/><use transform="matrix(0.0987654320987654,0,0,0.0987654320987654,50.37037037037035,0)" xlink:href="#u"/><use transform="matrix(0.0987654320987654,0,0,0.0987654320987654,81.97530864197529,0)" xlink:href="#n"/><use transform="matrix(0.0987654320987654,0,0,0.0987654320987654,103.60493827160491,0)" xlink:href="#v"/><use transform="matrix(0.0987654320987654,0,0,0.0987654320987654,135.20987654320984,0)" xlink:href="#p"/></g><path fill="#333" d="M135-194c87-1 58 113 63 194h-50c-7-57 23-157-34-157-59 0-34 97-39 157H25l-1-190h47c2 12-1 28 3 38 12-26 28-41 61-42" id="w"/><g id="g"><use transform="matrix(0.0987654320987654,0,0,0.0987654320987654,0,0)" xlink:href="#w"/><use transform="matrix(0.0987654320987654,0,0,0.0987654320987654,21.629629629629623,0)" xlink:href="#t"/><use transform="matrix(0.0987654320987654,0,0,0.0987654320987654,42.37037037037035,0)" xlink:href="#m"/><use transform="matrix(0.0987654320987654,0,0,0.0987654320987654,62.12345679012343,0)" xlink:href="#q"/><use transform="matrix(0.0987654320987654,0,0,0.0987654320987654,81.8765432098765,0)" xlink:href="#n"/><use transform="matrix(0.0987654320987654,0,0,0.0987654320987654,103.50617283950612,0)" xlink:href="#v"/><use transform="matrix(0.0987654320987654,0,0,0.0987654320987654,135.11111111111106,0)" xlink:href="#p"/></g><path fill="#333" d="M240-174c0 40-23 61-54 70L253 0h-59l-57-94H76V0H24v-248c93 4 217-23 216 74zM76-134c48-2 112 12 112-38 0-48-66-32-112-35v73" id="x"/><path fill="#333" d="M111-147c44 9 85 22 84 75-1 49-35 65-84 68v31H91V-4C40-5 12-27 5-72l45-8c4 24 15 38 41 40-2-22 4-51-2-69-39-10-76-22-76-72 0-47 35-60 78-63v-23h20v23c47 1 70 23 78 62l-46 7c-4-18-12-32-32-34v62zm-20-63c-33-4-45 46-13 54 4 1 8 2 13 4v-58zm20 170c39 5 53-51 15-60-7-2-7-2-15-4v64" id="y"/><path fill="#333" d="M139-81c0-46-55-55-73-27H18l9-140h149v37H72l-4 63c44-38 133-4 122 66C201 21 21 35 11-62l49-4c5 18 15 30 39 30 26 0 40-18 40-45" id="z"/><path fill="#333" d="M24 0v-54h51V0H24" id="A"/><g id="h"><use transform="matrix(0.0987654320987654,0,0,0.0987654320987654,0,0)" xlink:href="#x"/><use transform="matrix(0.0987654320987654,0,0,0.0987654320987654,25.58024691358024,0)" xlink:href="#t"/><use transform="matrix(0.0987654320987654,0,0,0.0987654320987654,46.32098765432097,0)" xlink:href="#y"/><use transform="matrix(0.0987654320987654,0,0,0.0987654320987654,66.07407407407405,0)" xlink:href="#z"/><use transform="matrix(0.0987654320987654,0,0,0.0987654320987654,85.82716049382712,0)" xlink:href="#l"/><use transform="matrix(0.0987654320987654,0,0,0.0987654320987654,105.58024691358018,0)" xlink:href="#A"/><use transform="matrix(0.0987654320987654,0,0,0.0987654320987654,115.45679012345676,0)" xlink:href="#l"/><use transform="matrix(0.0987654320987654,0,0,0.0987654320987654,135.20987654320982,0)" xlink:href="#l"/><use transform="matrix(0.0987654320987654,0,0,0.0987654320987654,154.9629629629629,0)" xlink:href="#l"/></g><path fill="#333" d="M33 0v-38h34V0H33" id="B"/><g id="i"><use transform="matrix(0.11111111111111108,0,0,0.11111111111111108,0,0)" xlink:href="#B"/><use transform="matrix(0.11111111111111108,0,0,0.11111111111111108,11.111111111111107,0)" xlink:href="#B"/><use transform="matrix(0.11111111111111108,0,0,0.11111111111111108,22.222222222222214,0)" xlink:href="#B"/><use transform="matrix(0.11111111111111108,0,0,0.11111111111111108,33.33333333333332,0)" xlink:href="#B"/><use transform="matrix(0.11111111111111108,0,0,0.11111111111111108,44.44444444444443,0)" xlink:href="#B"/><use transform="matrix(0.11111111111111108,0,0,0.11111111111111108,55.555555555555536,0)" xlink:href="#B"/><use transform="matrix(0.11111111111111108,0,0,0.11111111111111108,66.66666666666664,0)" xlink:href="#B"/><use transform="matrix(0.11111111111111108,0,0,0.11111111111111108,77.77777777777774,0)" xlink:href="#B"/><use transform="matrix(0.11111111111111108,0,0,0.11111111111111108,88.88888888888886,0)" xlink:href="#B"/><use transform="matrix(0.11111111111111108,0,0,0.11111111111111108,99.99999999999997,0)" xlink:href="#B"/><use transform="matrix(0.11111111111111108,0,0,0.11111111111111108,111.11111111111109,0)" xlink:href="#B"/><use transform="matrix(0.11111111111111108,0,0,0.11111111111111108,122.22222222222221,0)" xlink:href="#B"/><use transform="matrix(0.11111111111111108,0,0,0.11111111111111108,133.33333333333331,0)" xlink:href="#B"/><use transform="matrix(0.11111111111111108,0,0,0.11111111111111108,144.44444444444443,0)" xlink:href="#B"/><use transform="matrix(0.11111111111111108,0,0,0.11111111111111108,155.55555555555554,0)" xlink:href="#B"/><use transform="matrix(0.11111111111111108,0,0,0.11111111111111108,166.66666666666666,0)" xlink:href="#B"/><use transform="matrix(0.11111111111111108,0,0,0.11111111111111108,177.77777777777777,0)" xlink:href="#B"/><use transform="matrix(0.11111111111111108,0,0,0.11111111111111108,188.88888888888889,0)" xlink:href="#B"/><use transform="matrix(0.11111111111111108,0,0,0.11111111111111108,200,0)" xlink:href="#B"/><use transform="matrix(0.11111111111111108,0,0,0.11111111111111108,211.11111111111111,0)" xlink:href="#B"/><use transform="matrix(0.11111111111111108,0,0,0.11111111111111108,222.22222222222223,0)" xlink:href="#B"/><use transform="matrix(0.11111111111111108,0,0,0.11111111111111108,233.33333333333337,0)" xlink:href="#B"/><use transform="matrix(0.11111111111111108,0,0,0.11111111111111108,244.44444444444446,0)" xlink:href="#B"/><use transform="matrix(0.11111111111111108,0,0,0.11111111111111108,255.55555555555557,0)" xlink:href="#B"/><use transform="matrix(0.11111111111111108,0,0,0.11111111111111108,266.6666666666667,0)" xlink:href="#B"/></g><path fill="#333" d="M147 0H94L2-248h55l64 206c17-72 42-137 63-206h54" id="C"/><path fill="#333" d="M76-208v77h127v40H76V0H24v-248h183v40H76" id="D"/><path fill="#333" d="M110-251c83-7 118 89 53 130-17 10-36 21-38 46H78c2-56 65-53 71-103 2-21-15-35-38-34-25 1-41 14-44 38l-50-2c6-48 39-70 93-75zM77 0v-47h51V0H77" id="E"/><g id="j"><use transform="matrix(0.08641975308641973,0,0,0.08641975308641973,0,0)" xlink:href="#C"/><use transform="matrix(0.08641975308641973,0,0,0.08641975308641973,20.740740740740737,0)" xlink:href="#D"/><use transform="matrix(0.08641975308641973,0,0,0.08641975308641973,39.66666666666666,0)" xlink:href="#t"/><use transform="matrix(0.08641975308641973,0,0,0.08641975308641973,57.8148148148148,0)" xlink:href="#y"/><use transform="matrix(0.08641975308641973,0,0,0.08641975308641973,75.09876543209874,0)" xlink:href="#E"/></g><g id="k"><use transform="matrix(0.08641975308641973,0,0,0.08641975308641973,0,0)" xlink:href="#m"/><use transform="matrix(0.08641975308641973,0,0,0.08641975308641973,15.55555555555555,0)" xlink:href="#m"/><use transform="matrix(0.08641975308641973,0,0,0.08641975308641973,32.83950617283949,0)" xlink:href="#n"/><use transform="matrix(0.08641975308641973,0,0,0.08641975308641973,51.76543209876541,0)" xlink:href="#o"/><use transform="matrix(0.08641975308641973,0,0,0.08641975308641973,62.04938271604937,0)" xlink:href="#p"/></g></defs></g></svg>