<svg xmlns="http://www.w3.org/2000/svg" xmlns:xlink="http://www.w3.org/1999/xlink" xmlns:lucid="lucid" width="1090.53" height="711.72"><g transform="translate(-2220 -2780)" lucid:page-tab-id="0_0"><path d="M1806.4 2518.4h1870.4v1323.2H1806.4z" fill="#fff"/><path d="M2272.5 3011.2l922.64 1.45" stroke="#000" stroke-width="5" fill="none"/><path d="M2272.56 3013.7l-5.56-.02v-2.5h5.56z"/><path d="M3211.9 3012.67l-14.26 4.62V3008z" stroke="#000" stroke-width="5"/><path d="M2360 3018.33c0-3.3 2.7-6 6-6h48c3.3 0 6 2.7 6 6v48c0 3.32-2.7 6-6 6h-48c-3.3 0-6-2.68-6-6z" fill="#fff" fill-opacity="0"/><use xlink:href="#a" transform="matrix(1,0,0,1,2365,3017.3333333333335) translate(16.358024691358025 31.138888888888886)"/><path d="M2470.53 3018.33c0-3.3 2.68-6 6-6h48c3.3 0 6 2.7 6 6v48c0 3.32-2.7 6-6 6h-48c-3.32 0-6-2.68-6-6z" fill="#fff" fill-opacity="0"/><use xlink:href="#b" transform="matrix(1,0,0,1,2475.526315789486,3017.3333333333335) translate(16.358024691358025 31.138888888888886)"/><path d="M3118.42 3018.33c0-3.3 2.7-6 6-6h48c3.3 0 6 2.7 6 6V3091c0 3.3-2.7 6-6 6h-48c-3.3 0-6-2.7-6-6z" fill="#fff" fill-opacity="0"/><use xlink:href="#c" transform="matrix(1,0,0,1,3123.4210526315787,3017.3333333333326) translate(7.716049382716054 43.638888888888886)"/><path d="M3148.42 3099.5v9.93m0 19.86v19.84m0 19.86v19.86m0 19.85v19.87m0 19.86v19.86m0 19.84V3308m0 19.86v19.85m0 19.87v9.93" stroke="#000" stroke-width="5" fill="none"/><path d="M3150.92 3099.56h-5V3097h5zM3150.92 3380h-5v-2.56h5z"/><path d="M3028.42 3386c0-3.3 2.7-6 6-6h228c3.3 0 6 2.7 6 6v48c0 3.3-2.7 6-6 6h-228c-3.3 0-6-2.7-6-6z" fill="#fff" fill-opacity="0"/><use xlink:href="#d" transform="matrix(1,0,0,1,3033.4210526315787,3385) translate(102.16666666666667 35.124999999999986)"/><path d="M2643.16 3206c0-3.3 2.68-6 6-6h228c3.3 0 6 2.7 6 6v126c0 3.3-2.7 6-6 6h-228c-3.32 0-6-2.7-6-6z" fill="#fff" fill-opacity="0"/><use xlink:href="#e" transform="matrix(1,0,0,1,2648.157894736842,3205) translate(37.51851851851853 28.444444444444436)"/><use xlink:href="#f" transform="matrix(1,0,0,1,2648.157894736842,3205) translate(37.56790123456793 71.11111111111109)"/><use xlink:href="#g" transform="matrix(1,0,0,1,2648.157894736842,3205) translate(27.641975308642003 113.77777777777774)"/><path d="M2740 3018.33c0-3.3 2.7-6 6-6h142.2c3.32 0 6 2.7 6 6V3054c0 3.3-2.68 6-6 6H2746c-3.3 0-6-2.7-6-6z" fill="#fff" fill-opacity="0"/><use xlink:href="#h" transform="matrix(1,0,0,1,2745,3017.3333333333335) translate(-66.38888888888889 31.99999999999999)"/><path d="M2271.1 3182.26l5.25 10.8 5.87 10.87m12.65 20.83l4.02 6.15 8.78 12.32 9.52 12.2 7 8.23m16.46 17.95l10.03 9.98 13.08 11.96 12.9 10.85m19.34 14.83l14.3 10.1 18.4 11.88 8.05 4.73m21.22 11.97l12.96 6.9 24.26 11.66 6.56 2.8m22.44 9.53l27.06 10.3 18.77 6.25m23.25 7.3l25.83 7.43 21.25 5.15m23.74 5.5l36.36 7.22 11.53 1.8m24.1 3.74l10.2 1.58 38.17 4.3m24.27 2.18l37.55 2.65 11.1.33m24.35.7l16.8.5 31.93-.43m24.37-.5l45.28-2.48 3.38-.32m24.27-2.35l18.38-1.78 29.98-4.18m24.06-3.9l22.83-4.17 1.13-.24M2271.13 3182.3l-1.13-2.3" stroke="#000" stroke-width="5" fill="none"/><path d="M3140.52 3441.75l-12.92 7.62-2-9.05z" stroke="#000" stroke-width="5"/><path d="M3068.42 2806c0-3.3 2.7-6 6-6h148c3.3 0 6 2.7 6 6v48c0 3.3-2.7 6-6 6h-148c-3.3 0-6-2.7-6-6z" fill="#fff" fill-opacity="0"/><use xlink:href="#i" transform="matrix(1,0,0,1,3073.4210526315787,2805) translate(27.987654320987666 31.138888888888886)"/><path d="M2583.16 3018.33c0-3.3 2.68-6 6-6h48c3.3 0 6 2.7 6 6v48c0 3.32-2.7 6-6 6h-48c-3.32 0-6-2.68-6-6z" fill="#fff" fill-opacity="0"/><use xlink:href="#j" transform="matrix(1,0,0,1,2588.157894736842,3017.3333333333335) translate(16.358024691358025 31.138888888888886)"/><path d="M3000 3027.17c0-3.32 2.7-6 6-6h48c3.3 0 6 2.68 6 6v48c0 3.3-2.7 6-6 6h-48c-3.3 0-6-2.7-6-6z" fill="#fff" fill-opacity="0"/><use xlink:href="#k" transform="matrix(1,0,0,1,3005,3026.1666666666665) translate(8.580246913580254 31.138888888888886)"/><path d="M3030 3083.67v51.47" stroke="#000" stroke-width="5" fill="none"/><path d="M3032.5 3083.73h-5v-2.56h5z"/><path d="M3030 3151.9l-4.64-14.26h9.28z" stroke="#000" stroke-width="5"/><path d="M2613.16 3074.83v60.3" stroke="#000" stroke-width="5" fill="none"/><path d="M2615.66 3074.9h-5v-2.57h5z"/><path d="M2613.16 3151.9l-4.64-14.26h9.27z" stroke="#000" stroke-width="5"/><path d="M2500.53 3074.83v60.3" stroke="#000" stroke-width="5" fill="none"/><path d="M2503.03 3074.9h-5v-2.57h5z"/><path d="M2500.53 3151.9l-4.64-14.26h9.26z" stroke="#000" stroke-width="5"/><path d="M3148.42 3009.83v-124.97" stroke="#000" stroke-width="5" fill="none"/><path d="M3150.92 3012.33h-5v-2.56h5z"/><path d="M3148.42 2868.1l4.64 14.26h-9.27z" stroke="#000" stroke-width="5"/><path d="M2390 3074.83v60.3" stroke="#000" stroke-width="5" fill="none"/><path d="M2392.5 3074.9h-5v-2.57h5z"/><path d="M2390 3151.9l-4.64-14.26h9.28z" stroke="#000" stroke-width="5"/><path d="M2270 3073.68v57.46" stroke="#000" stroke-width="5" fill="none"/><path d="M2272.5 3073.75h-5v-2.57h5z"/><path d="M2270 3147.9l-4.64-14.26h9.28z" stroke="#000" stroke-width="5"/><path d="M3220 2987.1c0-3.32 2.7-6 6-6h58.53c3.3 0 6 2.68 6 6v51.18c0 3.32-2.7 6-6 6H3226c-3.3 0-6-2.68-6-6z" fill="#fff" fill-opacity="0"/><use xlink:href="#l" transform="matrix(1,0,0,1,3225,2986.091672498251) translate(0.8487654320987659 33.236111111111114)"/><path d="M2262.5 3160h765M2262.56 3160H2260M3027.44 3160h2.56" stroke="#000" stroke-width="5" fill="none"/><path d="M2240 3017.18c0-3.3 2.7-6 6-6h48c3.3 0 6 2.7 6 6v48c0 3.32-2.7 6-6 6h-48c-3.3 0-6-2.68-6-6z" fill="#fff" fill-opacity="0"/><g><use xlink:href="#m" transform="matrix(1,0,0,1,2245,3016.182645206438) translate(16.358024691358025 31.138888888888886)"/></g><defs><path fill="#333" d="M23 0v-37h61v-169l-59 37v-38l62-41h46v211h57V0H23" id="n"/><use transform="matrix(0.08641975308641973,0,0,0.08641975308641973,0,0)" xlink:href="#n" id="a"/><path fill="#333" d="M182-182c0 78-84 86-111 141h115V0H12c-6-101 99-100 120-180 1-22-12-31-33-32-23 0-32 14-35 34l-49-3c5-45 32-70 84-70 51 0 83 22 83 69" id="o"/><use transform="matrix(0.08641975308641973,0,0,0.08641975308641973,0,0)" xlink:href="#o" id="b"/><g id="c"><use transform="matrix(0.08641975308641973,0,0,0.08641975308641973,0,0)" xlink:href="#n"/><use transform="matrix(0.08641975308641973,0,0,0.08641975308641973,17.283950617283946,0)" xlink:href="#o"/></g><path fill="#333" d="M93-157L62 0H13l31-157H16l6-33h28c2-54 40-81 100-68l-6 32c-29-8-44 9-45 36h38l-7 33H93" id="p"/><g id="d"><use transform="matrix(0.11111111111111108,0,0,0.11111111111111108,0,0)" xlink:href="#p"/><use transform="matrix(0.11111111111111108,0,0,0.11111111111111108,12.444444444444441,0)" xlink:href="#p"/></g><path fill="#333" d="M25-224v-37h50v37H25zM25 0v-190h50V0H25" id="q"/><path fill="#333" d="M15-148v-39h180v39H15zm0 97v-39h180v39H15" id="r"/><path fill="#333" d="M249-155c45 1 62 31 62 79-1 48-18 79-63 79s-61-32-62-79c0-48 16-79 63-79zM97 0H61l162-248h36zM9-172c0-48 16-79 63-78 46 0 62 31 62 78 0 48-18 79-63 79S9-124 9-172zM249-25c24 0 24-26 24-51 0-26-1-52-24-52-24 0-25 26-25 52 0 25 0 51 25 51zM71-120c23 0 24-25 24-52 0-26 0-51-23-51-25 0-25 25-25 51 0 27 1 52 24 52" id="s"/><path fill="#333" d="M135-194c53 0 70 44 70 98 0 56-19 98-73 100-31 1-45-17-59-34 3 33 2 69 2 105H25l-1-265h48c2 10 0 23 3 31 11-24 29-35 60-35zM114-30c33 0 39-31 40-66 0-38-9-64-40-64-56 0-55 130 0 130" id="t"/><path fill="#333" d="M220-157c-53 9-28 100-34 157h-49v-107c1-27-5-49-29-50C55-147 81-57 75 0H25l-1-190h47c2 12-1 28 3 38 10-53 101-56 108 0 13-22 24-43 59-42 82 1 51 116 57 194h-49v-107c-1-25-5-48-29-50" id="u"/><path fill="#333" d="M128 0H69L1-190h53L99-40l48-150h52" id="v"/><g id="e"><use transform="matrix(0.0987654320987654,0,0,0.0987654320987654,0,0)" xlink:href="#q"/><use transform="matrix(0.0987654320987654,0,0,0.0987654320987654,9.876543209876539,0)" xlink:href="#r"/><use transform="matrix(0.0987654320987654,0,0,0.0987654320987654,30.617283950617267,0)" xlink:href="#o"/><use transform="matrix(0.0987654320987654,0,0,0.0987654320987654,50.37037037037035,0)" xlink:href="#s"/><use transform="matrix(0.0987654320987654,0,0,0.0987654320987654,81.97530864197529,0)" xlink:href="#t"/><use transform="matrix(0.0987654320987654,0,0,0.0987654320987654,103.60493827160491,0)" xlink:href="#u"/><use transform="matrix(0.0987654320987654,0,0,0.0987654320987654,135.20987654320984,0)" xlink:href="#v"/></g><path fill="#333" d="M135-194c87-1 58 113 63 194h-50c-7-57 23-157-34-157-59 0-34 97-39 157H25l-1-190h47c2 12-1 28 3 38 12-26 28-41 61-42" id="w"/><g id="f"><use transform="matrix(0.0987654320987654,0,0,0.0987654320987654,0,0)" xlink:href="#w"/><use transform="matrix(0.0987654320987654,0,0,0.0987654320987654,21.629629629629623,0)" xlink:href="#r"/><use transform="matrix(0.0987654320987654,0,0,0.0987654320987654,42.37037037037035,0)" xlink:href="#n"/><use transform="matrix(0.0987654320987654,0,0,0.0987654320987654,62.12345679012343,0)" xlink:href="#o"/><use transform="matrix(0.0987654320987654,0,0,0.0987654320987654,81.8765432098765,0)" xlink:href="#t"/><use transform="matrix(0.0987654320987654,0,0,0.0987654320987654,103.50617283950612,0)" xlink:href="#u"/><use transform="matrix(0.0987654320987654,0,0,0.0987654320987654,135.11111111111106,0)" xlink:href="#v"/></g><path fill="#333" d="M240-174c0 40-23 61-54 70L253 0h-59l-57-94H76V0H24v-248c93 4 217-23 216 74zM76-134c48-2 112 12 112-38 0-48-66-32-112-35v73" id="x"/><path fill="#333" d="M111-147c44 9 85 22 84 75-1 49-35 65-84 68v31H91V-4C40-5 12-27 5-72l45-8c4 24 15 38 41 40-2-22 4-51-2-69-39-10-76-22-76-72 0-47 35-60 78-63v-23h20v23c47 1 70 23 78 62l-46 7c-4-18-12-32-32-34v62zm-20-63c-33-4-45 46-13 54 4 1 8 2 13 4v-58zm20 170c39 5 53-51 15-60-7-2-7-2-15-4v64" id="y"/><path fill="#333" d="M139-81c0-46-55-55-73-27H18l9-140h149v37H72l-4 63c44-38 133-4 122 66C201 21 21 35 11-62l49-4c5 18 15 30 39 30 26 0 40-18 40-45" id="z"/><path fill="#333" d="M101-251c68 0 84 54 84 127C185-50 166 4 99 4S15-52 14-124c-1-75 17-127 87-127zm-1 216c37-5 36-46 36-89s4-89-36-89c-39 0-36 45-36 89 0 43-3 85 36 89" id="A"/><path fill="#333" d="M24 0v-54h51V0H24" id="B"/><g id="g"><use transform="matrix(0.0987654320987654,0,0,0.0987654320987654,0,0)" xlink:href="#x"/><use transform="matrix(0.0987654320987654,0,0,0.0987654320987654,25.58024691358024,0)" xlink:href="#r"/><use transform="matrix(0.0987654320987654,0,0,0.0987654320987654,46.32098765432097,0)" xlink:href="#y"/><use transform="matrix(0.0987654320987654,0,0,0.0987654320987654,66.07407407407405,0)" xlink:href="#z"/><use transform="matrix(0.0987654320987654,0,0,0.0987654320987654,85.82716049382712,0)" xlink:href="#A"/><use transform="matrix(0.0987654320987654,0,0,0.0987654320987654,105.58024691358018,0)" xlink:href="#B"/><use transform="matrix(0.0987654320987654,0,0,0.0987654320987654,115.45679012345676,0)" xlink:href="#A"/><use transform="matrix(0.0987654320987654,0,0,0.0987654320987654,135.20987654320982,0)" xlink:href="#A"/><use transform="matrix(0.0987654320987654,0,0,0.0987654320987654,154.9629629629629,0)" xlink:href="#A"/></g><path fill="#333" d="M33 0v-38h34V0H33" id="C"/><g id="h"><use transform="matrix(0.11111111111111108,0,0,0.11111111111111108,0,0)" xlink:href="#C"/><use transform="matrix(0.11111111111111108,0,0,0.11111111111111108,11.111111111111107,0)" xlink:href="#C"/><use transform="matrix(0.11111111111111108,0,0,0.11111111111111108,22.222222222222214,0)" xlink:href="#C"/><use transform="matrix(0.11111111111111108,0,0,0.11111111111111108,33.33333333333332,0)" xlink:href="#C"/><use transform="matrix(0.11111111111111108,0,0,0.11111111111111108,44.44444444444443,0)" xlink:href="#C"/><use transform="matrix(0.11111111111111108,0,0,0.11111111111111108,55.555555555555536,0)" xlink:href="#C"/><use transform="matrix(0.11111111111111108,0,0,0.11111111111111108,66.66666666666664,0)" xlink:href="#C"/><use transform="matrix(0.11111111111111108,0,0,0.11111111111111108,77.77777777777774,0)" xlink:href="#C"/><use transform="matrix(0.11111111111111108,0,0,0.11111111111111108,88.88888888888886,0)" xlink:href="#C"/><use transform="matrix(0.11111111111111108,0,0,0.11111111111111108,99.99999999999997,0)" xlink:href="#C"/><use transform="matrix(0.11111111111111108,0,0,0.11111111111111108,111.11111111111109,0)" xlink:href="#C"/><use transform="matrix(0.11111111111111108,0,0,0.11111111111111108,122.22222222222221,0)" xlink:href="#C"/><use transform="matrix(0.11111111111111108,0,0,0.11111111111111108,133.33333333333331,0)" xlink:href="#C"/><use transform="matrix(0.11111111111111108,0,0,0.11111111111111108,144.44444444444443,0)" xlink:href="#C"/><use transform="matrix(0.11111111111111108,0,0,0.11111111111111108,155.55555555555554,0)" xlink:href="#C"/><use transform="matrix(0.11111111111111108,0,0,0.11111111111111108,166.66666666666666,0)" xlink:href="#C"/><use transform="matrix(0.11111111111111108,0,0,0.11111111111111108,177.77777777777777,0)" xlink:href="#C"/><use transform="matrix(0.11111111111111108,0,0,0.11111111111111108,188.88888888888889,0)" xlink:href="#C"/><use transform="matrix(0.11111111111111108,0,0,0.11111111111111108,200,0)" xlink:href="#C"/><use transform="matrix(0.11111111111111108,0,0,0.11111111111111108,211.11111111111111,0)" xlink:href="#C"/><use transform="matrix(0.11111111111111108,0,0,0.11111111111111108,222.22222222222223,0)" xlink:href="#C"/><use transform="matrix(0.11111111111111108,0,0,0.11111111111111108,233.33333333333337,0)" xlink:href="#C"/><use transform="matrix(0.11111111111111108,0,0,0.11111111111111108,244.44444444444446,0)" xlink:href="#C"/><use transform="matrix(0.11111111111111108,0,0,0.11111111111111108,255.55555555555557,0)" xlink:href="#C"/><use transform="matrix(0.11111111111111108,0,0,0.11111111111111108,266.6666666666667,0)" xlink:href="#C"/></g><path fill="#333" d="M147 0H94L2-248h55l64 206c17-72 42-137 63-206h54" id="D"/><path fill="#333" d="M76-208v77h127v40H76V0H24v-248h183v40H76" id="E"/><path fill="#333" d="M110-251c83-7 118 89 53 130-17 10-36 21-38 46H78c2-56 65-53 71-103 2-21-15-35-38-34-25 1-41 14-44 38l-50-2c6-48 39-70 93-75zM77 0v-47h51V0H77" id="F"/><g id="i"><use transform="matrix(0.08641975308641973,0,0,0.08641975308641973,0,0)" xlink:href="#D"/><use transform="matrix(0.08641975308641973,0,0,0.08641975308641973,20.740740740740737,0)" xlink:href="#E"/><use transform="matrix(0.08641975308641973,0,0,0.08641975308641973,39.66666666666666,0)" xlink:href="#r"/><use transform="matrix(0.08641975308641973,0,0,0.08641975308641973,57.8148148148148,0)" xlink:href="#y"/><use transform="matrix(0.08641975308641973,0,0,0.08641975308641973,75.09876543209874,0)" xlink:href="#F"/></g><path fill="#333" d="M128-127c34 4 56 21 59 58 7 91-148 94-172 28-4-9-6-17-7-26l51-5c1 24 16 35 40 36 23 0 39-12 38-36-1-31-31-36-65-34v-40c32 2 59-3 59-33 0-20-13-33-34-33s-33 13-35 32l-50-3c6-44 37-68 86-68 50 0 83 20 83 66 0 35-22 52-53 58" id="G"/><use transform="matrix(0.08641975308641973,0,0,0.08641975308641973,0,0)" xlink:href="#G" id="j"/><g id="k"><use transform="matrix(0.08641975308641973,0,0,0.08641975308641973,0,0)" xlink:href="#n"/><use transform="matrix(0.08641975308641973,0,0,0.08641975308641973,15.55555555555555,0)" xlink:href="#n"/></g><g id="l"><use transform="matrix(0.08024691358024691,0,0,0.08024691358024691,0,0)" xlink:href="#t"/><use transform="matrix(0.08024691358024691,0,0,0.08024691358024691,17.574074074074073,0)" xlink:href="#u"/><use transform="matrix(0.08024691358024691,0,0,0.08024691358024691,43.253086419753096,0)" xlink:href="#v"/></g><use transform="matrix(0.08641975308641973,0,0,0.08641975308641973,0,0)" xlink:href="#A" id="m"/></defs></g></svg>