<svg xmlns="http://www.w3.org/2000/svg" xmlns:xlink="http://www.w3.org/1999/xlink" xmlns:lucid="lucid" width="988.95" height="713.33"><g transform="translate(-455.9894736842107 -2720)" lucid:page-tab-id="0_0"><path d="M0 2518.4h1870.4v1323.2H0z" fill="#fff"/><path d="M506 3139v-8.8m0-8.8v-17.62m0-8.8v-17.62m0-8.8v-17.62m0-8.8v-8.8M506 3138.97v1.03" stroke="#000" stroke-width="2" fill="none"/><path d="M507 3033.36h-2v-1.03h2z"/><path d="M508.5 2972.33l821.05-.7" stroke="#000" stroke-width="5" fill="none"/><path d="M508.55 2972.33H503v-2.5h5.55z"/><path d="M1346.32 2971.6l-14.26 4.65v-9.27z" stroke="#000" stroke-width="5"/><path d="M476 2978.33c0-3.3 2.68-6 6-6h48c3.3 0 6 2.7 6 6v48c0 3.32-2.7 6-6 6h-48c-3.32 0-6-2.68-6-6z" fill="#fff" fill-opacity="0"/><use xlink:href="#a" transform="matrix(1,0,0,1,480.9894736842107,2977.333333333333) translate(16.358024691358025 31.138888888888886)"/><path d="M696.52 2978.33c0-3.3 2.68-6 6-6h48c3.3 0 6 2.7 6 6v48c0 3.32-2.7 6-6 6h-48c-3.32 0-6-2.68-6-6z" fill="#fff" fill-opacity="0"/><use xlink:href="#b" transform="matrix(1,0,0,1,701.5157894736844,2977.333333333333) translate(16.358024691358025 31.138888888888886)"/><path d="M879.15 2978.33c0-3.3 2.68-6 6-6h48c3.3 0 6 2.7 6 6v48c0 3.32-2.7 6-6 6h-48c-3.32 0-6-2.68-6-6z" fill="#fff" fill-opacity="0"/><use xlink:href="#c" transform="matrix(1,0,0,1,884.1473684210528,2977.333333333333) translate(16.358024691358025 31.138888888888886)"/><path d="M1244.4 2966c0-3.3 2.7-6 6-6h48c3.32 0 6 2.7 6 6v72.67c0 3.3-2.68 6-6 6h-48c-3.3 0-6-2.7-6-6z" fill="#fff" fill-opacity="0"/><use xlink:href="#d" transform="matrix(1,0,0,1,1249.4105263157894,2964.9999999999995) translate(7.716049382716054 43.638888888888886)"/><path d="M726.52 3034.83v72.65" stroke="#000" stroke-width="5" fill="none"/><path d="M729.02 3034.9h-5v-2.57h5z"/><path d="M726.52 3124.24l-4.64-14.26h9.27z" stroke="#000" stroke-width="5"/><path d="M909.15 3034.83v72.65" stroke="#000" stroke-width="5" fill="none"/><path d="M911.65 3034.9h-5v-2.57h5z"/><path d="M909.15 3124.24l-4.64-14.26h9.28z" stroke="#000" stroke-width="5"/><path d="M1274.4 3047.17v60.3" stroke="#000" stroke-width="5" fill="none"/><path d="M1276.9 3047.23h-5v-2.56h5z"/><path d="M1274.4 3124.24l-4.62-14.26h9.27z" stroke="#000" stroke-width="5"/><path d="M729.02 3132.33h542.9M729.08 3132.33h-2.56M1271.85 3132.33h2.56" stroke="#000" stroke-width="5" fill="none"/><path d="M1154.4 3348.33c0-3.3 2.7-6 6-6h228c3.32 0 6 2.7 6 6v48c0 3.32-2.68 6-6 6h-228c-3.3 0-6-2.68-6-6z" fill="#fff" fill-opacity="0"/><use xlink:href="#e" transform="matrix(1,0,0,1,1159.4105263157894,3347.333333333333) translate(102.16666666666667 35.124999999999986)"/><path d="M810.8 3189c0-3.3 2.68-6 6-6h228c3.3 0 6 2.7 6 6v168.67c0 3.3-2.7 6-6 6h-228c-3.32 0-6-2.7-6-6z" fill="#fff" fill-opacity="0"/><use xlink:href="#f" transform="matrix(1,0,0,1,815.7894736842104,3187.9999999999995) translate(27.691358024691382 28.444444444444436)"/><use xlink:href="#g" transform="matrix(1,0,0,1,815.7894736842104,3187.9999999999995) translate(47.44444444444446 71.11111111111109)"/><use xlink:href="#h" transform="matrix(1,0,0,1,815.7894736842104,3187.9999999999995) translate(47.49382716049385 113.77777777777774)"/><use xlink:href="#i" transform="matrix(1,0,0,1,815.7894736842104,3187.9999999999995) translate(27.641975308642003 156.4444444444444)"/><path d="M1006 2978.33c0-3.3 2.68-6 6-6h142.2c3.3 0 6 2.7 6 6V3014c0 3.3-2.7 6-6 6H1012c-3.32 0-6-2.7-6-6z" fill="#fff" fill-opacity="0"/><use xlink:href="#j" transform="matrix(1,0,0,1,1010.9894736841984,2977.3333333333335) translate(-66.38888888888889 31.99999999999999)"/><path d="M1274.4 3121v4m-.02 7.96l-.02 7.97m0 7.97l-.03 7.97m-.02 7.98v7.97m-.02 7.97l-.02 7.96m-.02 7.98v7.97m-.03 7.98v7.97m-.03 7.98v7.97m-.03 7.97l-.02 7.97m-.02 7.97v8m-.03 7.96l-.02 7.97m0 7.97l-.03 7.98m-.02 7.97v3.98M1274.4 3121.03V3120M1274 3312.3v1.03M506.48 3140.88l4.9 8.68m5.13 8.55l4.83 7.78 6.07 8.92m5.8 8.12l6.64 8.94 5.54 6.84m6.34 7.68l10.07 11.4 3.27 3.42m6.9 7.2l2.18 2.26 12.13 11.6m7.44 6.65l8.2 7.24 7 5.66m7.76 6.27l.8.63 15.2 11.28m8.2 5.66l11.36 7.7 5.28 3.28m8.48 5.24l5.66 3.5 11.57 6.52m8.7 4.9l.67.37 17.08 8.68m8.96 4.38l18.14 8.3m9.18 3.87l18.47 7.52m9.35 3.43l18.77 6.74m9.5 3.06l19.02 5.95m9.58 2.76l19.26 5.15m9.64 2.56l19.47 4.33m9.74 2.16l7.72 1.72 11.84 2.12m9.82 1.75l18.76 3.36.87.13m9.88 1.34l19.76 2.7m9.87 1.33l4 .55 15.83 1.48m9.93.93l19.85 1.86m9.95.65l19.9 1.02m9.97.5l17.6.9 2.3.03m9.98.1l19.94.18m9.97.1l17.92.18 2-.07m9.98-.3l19.93-.66m9.96-.32l19.92-.65m9.96-.5l19.9-1.4m9.93-.72l9.96-.7M506.5 3140.9l-.5-.9" stroke="#000" stroke-width="2" fill="none"/><path d="M1271.18 3402.56l-13.9 5.64-.66-9.25z" stroke="#000" stroke-width="2"/><path d="M1274.4 2958v-135.26" stroke="#000" stroke-width="4" fill="none"/><path d="M1276.4 2960h-4v-2.05h4z"/><path d="M1274.4 2806.47l4.65 14.27h-9.27z" stroke="#000" stroke-width="4"/><path d="M1194.4 2746c0-3.3 2.7-6 6-6h148c3.32 0 6 2.7 6 6v48c0 3.3-2.68 6-6 6h-148c-3.3 0-6-2.7-6-6z" fill="#fff" fill-opacity="0"/><use xlink:href="#k" transform="matrix(1,0,0,1,1199.4105263157894,2745) translate(37.061728395061735 31.138888888888886)"/><path d="M1354.4 2946c0-3.3 2.7-6 6-6h58.54c3.3 0 6 2.7 6 6v51.2c0 3.3-2.7 6-6 6h-58.53c-3.3 0-6-2.7-6-6z" fill="#fff" fill-opacity="0"/><use xlink:href="#l" transform="matrix(1,0,0,1,1359.4105263157894,2945) translate(8.913580246913583 33.236111111111114)"/><path d="M1274.4 2962v7.67" stroke="#000" stroke-width="4" fill="none"/><path d="M1276.4 2962.05h-4V2960h4z"/><path d="M1274.4 2969.6v2.07" stroke="#000" stroke-width="4" fill="none"/><defs><path fill="#333" d="M101-251c68 0 84 54 84 127C185-50 166 4 99 4S15-52 14-124c-1-75 17-127 87-127zm-1 216c37-5 36-46 36-89s4-89-36-89c-39 0-36 45-36 89 0 43-3 85 36 89" id="m"/><use transform="matrix(0.08641975308641973,0,0,0.08641975308641973,0,0)" xlink:href="#m" id="a"/><path fill="#333" d="M23 0v-37h61v-169l-59 37v-38l62-41h46v211h57V0H23" id="n"/><use transform="matrix(0.08641975308641973,0,0,0.08641975308641973,0,0)" xlink:href="#n" id="b"/><path fill="#333" d="M182-182c0 78-84 86-111 141h115V0H12c-6-101 99-100 120-180 1-22-12-31-33-32-23 0-32 14-35 34l-49-3c5-45 32-70 84-70 51 0 83 22 83 69" id="o"/><use transform="matrix(0.08641975308641973,0,0,0.08641975308641973,0,0)" xlink:href="#o" id="c"/><path fill="#333" d="M165-50V0h-47v-50H5v-38l105-160h55v161h33v37h-33zm-47-37l2-116L46-87h72" id="p"/><g id="d"><use transform="matrix(0.08641975308641973,0,0,0.08641975308641973,0,0)" xlink:href="#o"/><use transform="matrix(0.08641975308641973,0,0,0.08641975308641973,17.283950617283946,0)" xlink:href="#p"/></g><path fill="#333" d="M93-157L62 0H13l31-157H16l6-33h28c2-54 40-81 100-68l-6 32c-29-8-44 9-45 36h38l-7 33H93" id="q"/><g id="e"><use transform="matrix(0.11111111111111108,0,0,0.11111111111111108,0,0)" xlink:href="#q"/><use transform="matrix(0.11111111111111108,0,0,0.11111111111111108,12.444444444444441,0)" xlink:href="#q"/></g><path fill="#333" d="M25-224v-37h50v37H25zM75 22c2 45-34 59-81 51V38c22 5 31-5 31-27v-201h50V22" id="r"/><path fill="#333" d="M15-148v-39h180v39H15zm0 97v-39h180v39H15" id="s"/><path fill="#333" d="M128-127c34 4 56 21 59 58 7 91-148 94-172 28-4-9-6-17-7-26l51-5c1 24 16 35 40 36 23 0 39-12 38-36-1-31-31-36-65-34v-40c32 2 59-3 59-33 0-20-13-33-34-33s-33 13-35 32l-50-3c6-44 37-68 86-68 50 0 83 20 83 66 0 35-22 52-53 58" id="t"/><path fill="#333" d="M249-155c45 1 62 31 62 79-1 48-18 79-63 79s-61-32-62-79c0-48 16-79 63-79zM97 0H61l162-248h36zM9-172c0-48 16-79 63-78 46 0 62 31 62 78 0 48-18 79-63 79S9-124 9-172zM249-25c24 0 24-26 24-51 0-26-1-52-24-52-24 0-25 26-25 52 0 25 0 51 25 51zM71-120c23 0 24-25 24-52 0-26 0-51-23-51-25 0-25 25-25 51 0 27 1 52 24 52" id="u"/><path fill="#333" d="M135-194c87-1 58 113 63 194h-50c-7-57 23-157-34-157-59 0-34 97-39 157H25l-1-190h47c2 12-1 28 3 38 12-26 28-41 61-42" id="v"/><path fill="#333" d="M133-34C117-15 103 5 69 4 32 3 11-16 11-54c-1-60 55-63 116-61 1-26-3-47-28-47-18 1-26 9-28 27l-52-2c7-38 36-58 82-57s74 22 75 68l1 82c-1 14 12 18 25 15v27c-30 8-71 5-69-32zm-48 3c29 0 43-24 42-57-32 0-66-3-65 30 0 17 8 27 23 27" id="w"/><path fill="#333" d="M115-3C79 11 28 4 28-45v-112H4v-33h27l15-45h31v45h36v33H77v99c-1 23 16 31 38 25v30" id="x"/><path fill="#333" d="M128 0H69L1-190h53L99-40l48-150h52" id="y"/><g id="f"><use transform="matrix(0.0987654320987654,0,0,0.0987654320987654,0,0)" xlink:href="#r"/><use transform="matrix(0.0987654320987654,0,0,0.0987654320987654,9.876543209876539,0)" xlink:href="#s"/><use transform="matrix(0.0987654320987654,0,0,0.0987654320987654,30.617283950617267,0)" xlink:href="#t"/><use transform="matrix(0.0987654320987654,0,0,0.0987654320987654,50.37037037037035,0)" xlink:href="#o"/><use transform="matrix(0.0987654320987654,0,0,0.0987654320987654,70.12345679012343,0)" xlink:href="#u"/><use transform="matrix(0.0987654320987654,0,0,0.0987654320987654,101.72839506172834,0)" xlink:href="#v"/><use transform="matrix(0.0987654320987654,0,0,0.0987654320987654,123.35802469135795,0)" xlink:href="#w"/><use transform="matrix(0.0987654320987654,0,0,0.0987654320987654,143.11111111111106,0)" xlink:href="#x"/><use transform="matrix(0.0987654320987654,0,0,0.0987654320987654,154.86419753086415,0)" xlink:href="#y"/></g><path fill="#333" d="M25-224v-37h50v37H25zM25 0v-190h50V0H25" id="z"/><path fill="#333" d="M138-131c27 9 52 24 51 61 0 53-36 74-89 74S11-19 11-69c0-35 22-54 51-61-78-25-46-121 38-121 51 0 83 19 83 66 0 30-18 49-45 54zm-38-16c24 0 32-13 32-36 1-23-11-34-32-34-22 0-33 12-32 34 0 22 9 36 32 36zm1 116c27 0 37-17 37-43 0-25-13-39-39-39-24 0-37 15-37 40 0 27 11 42 39 42" id="A"/><path fill="#333" d="M135-194c53 0 70 44 70 98 0 56-19 98-73 100-31 1-45-17-59-34 3 33 2 69 2 105H25l-1-265h48c2 10 0 23 3 31 11-24 29-35 60-35zM114-30c33 0 39-31 40-66 0-38-9-64-40-64-56 0-55 130 0 130" id="B"/><g id="g"><use transform="matrix(0.0987654320987654,0,0,0.0987654320987654,0,0)" xlink:href="#z"/><use transform="matrix(0.0987654320987654,0,0,0.0987654320987654,9.876543209876539,0)" xlink:href="#s"/><use transform="matrix(0.0987654320987654,0,0,0.0987654320987654,30.617283950617267,0)" xlink:href="#A"/><use transform="matrix(0.0987654320987654,0,0,0.0987654320987654,50.37037037037035,0)" xlink:href="#u"/><use transform="matrix(0.0987654320987654,0,0,0.0987654320987654,81.97530864197529,0)" xlink:href="#B"/><use transform="matrix(0.0987654320987654,0,0,0.0987654320987654,103.60493827160491,0)" xlink:href="#x"/><use transform="matrix(0.0987654320987654,0,0,0.0987654320987654,115.35802469135798,0)" xlink:href="#y"/></g><g id="h"><use transform="matrix(0.0987654320987654,0,0,0.0987654320987654,0,0)" xlink:href="#v"/><use transform="matrix(0.0987654320987654,0,0,0.0987654320987654,21.629629629629623,0)" xlink:href="#s"/><use transform="matrix(0.0987654320987654,0,0,0.0987654320987654,42.37037037037035,0)" xlink:href="#o"/><use transform="matrix(0.0987654320987654,0,0,0.0987654320987654,62.12345679012343,0)" xlink:href="#p"/><use transform="matrix(0.0987654320987654,0,0,0.0987654320987654,81.8765432098765,0)" xlink:href="#B"/><use transform="matrix(0.0987654320987654,0,0,0.0987654320987654,103.50617283950612,0)" xlink:href="#x"/><use transform="matrix(0.0987654320987654,0,0,0.0987654320987654,115.25925925925922,0)" xlink:href="#y"/></g><path fill="#333" d="M240-174c0 40-23 61-54 70L253 0h-59l-57-94H76V0H24v-248c93 4 217-23 216 74zM76-134c48-2 112 12 112-38 0-48-66-32-112-35v73" id="C"/><path fill="#333" d="M111-147c44 9 85 22 84 75-1 49-35 65-84 68v31H91V-4C40-5 12-27 5-72l45-8c4 24 15 38 41 40-2-22 4-51-2-69-39-10-76-22-76-72 0-47 35-60 78-63v-23h20v23c47 1 70 23 78 62l-46 7c-4-18-12-32-32-34v62zm-20-63c-33-4-45 46-13 54 4 1 8 2 13 4v-58zm20 170c39 5 53-51 15-60-7-2-7-2-15-4v64" id="D"/><path fill="#333" d="M24 0v-54h51V0H24" id="E"/><g id="i"><use transform="matrix(0.0987654320987654,0,0,0.0987654320987654,0,0)" xlink:href="#C"/><use transform="matrix(0.0987654320987654,0,0,0.0987654320987654,25.58024691358024,0)" xlink:href="#s"/><use transform="matrix(0.0987654320987654,0,0,0.0987654320987654,46.32098765432097,0)" xlink:href="#D"/><use transform="matrix(0.0987654320987654,0,0,0.0987654320987654,66.07407407407405,0)" xlink:href="#A"/><use transform="matrix(0.0987654320987654,0,0,0.0987654320987654,85.82716049382712,0)" xlink:href="#m"/><use transform="matrix(0.0987654320987654,0,0,0.0987654320987654,105.58024691358018,0)" xlink:href="#E"/><use transform="matrix(0.0987654320987654,0,0,0.0987654320987654,115.45679012345676,0)" xlink:href="#m"/><use transform="matrix(0.0987654320987654,0,0,0.0987654320987654,135.20987654320982,0)" xlink:href="#m"/><use transform="matrix(0.0987654320987654,0,0,0.0987654320987654,154.9629629629629,0)" xlink:href="#m"/></g><path fill="#333" d="M33 0v-38h34V0H33" id="F"/><g id="j"><use transform="matrix(0.11111111111111108,0,0,0.11111111111111108,0,0)" xlink:href="#F"/><use transform="matrix(0.11111111111111108,0,0,0.11111111111111108,11.111111111111107,0)" xlink:href="#F"/><use transform="matrix(0.11111111111111108,0,0,0.11111111111111108,22.222222222222214,0)" xlink:href="#F"/><use transform="matrix(0.11111111111111108,0,0,0.11111111111111108,33.33333333333332,0)" xlink:href="#F"/><use transform="matrix(0.11111111111111108,0,0,0.11111111111111108,44.44444444444443,0)" xlink:href="#F"/><use transform="matrix(0.11111111111111108,0,0,0.11111111111111108,55.555555555555536,0)" xlink:href="#F"/><use transform="matrix(0.11111111111111108,0,0,0.11111111111111108,66.66666666666664,0)" xlink:href="#F"/><use transform="matrix(0.11111111111111108,0,0,0.11111111111111108,77.77777777777774,0)" xlink:href="#F"/><use transform="matrix(0.11111111111111108,0,0,0.11111111111111108,88.88888888888886,0)" xlink:href="#F"/><use transform="matrix(0.11111111111111108,0,0,0.11111111111111108,99.99999999999997,0)" xlink:href="#F"/><use transform="matrix(0.11111111111111108,0,0,0.11111111111111108,111.11111111111109,0)" xlink:href="#F"/><use transform="matrix(0.11111111111111108,0,0,0.11111111111111108,122.22222222222221,0)" xlink:href="#F"/><use transform="matrix(0.11111111111111108,0,0,0.11111111111111108,133.33333333333331,0)" xlink:href="#F"/><use transform="matrix(0.11111111111111108,0,0,0.11111111111111108,144.44444444444443,0)" xlink:href="#F"/><use transform="matrix(0.11111111111111108,0,0,0.11111111111111108,155.55555555555554,0)" xlink:href="#F"/><use transform="matrix(0.11111111111111108,0,0,0.11111111111111108,166.66666666666666,0)" xlink:href="#F"/><use transform="matrix(0.11111111111111108,0,0,0.11111111111111108,177.77777777777777,0)" xlink:href="#F"/><use transform="matrix(0.11111111111111108,0,0,0.11111111111111108,188.88888888888889,0)" xlink:href="#F"/><use transform="matrix(0.11111111111111108,0,0,0.11111111111111108,200,0)" xlink:href="#F"/><use transform="matrix(0.11111111111111108,0,0,0.11111111111111108,211.11111111111111,0)" xlink:href="#F"/><use transform="matrix(0.11111111111111108,0,0,0.11111111111111108,222.22222222222223,0)" xlink:href="#F"/><use transform="matrix(0.11111111111111108,0,0,0.11111111111111108,233.33333333333337,0)" xlink:href="#F"/><use transform="matrix(0.11111111111111108,0,0,0.11111111111111108,244.44444444444446,0)" xlink:href="#F"/><use transform="matrix(0.11111111111111108,0,0,0.11111111111111108,255.55555555555557,0)" xlink:href="#F"/><use transform="matrix(0.11111111111111108,0,0,0.11111111111111108,266.6666666666667,0)" xlink:href="#F"/></g><path fill="#333" d="M147 0H94L2-248h55l64 206c17-72 42-137 63-206h54" id="G"/><path fill="#333" d="M76-208v77h127v40H76V0H24v-248h183v40H76" id="H"/><path fill="#333" d="M110-251c83-7 118 89 53 130-17 10-36 21-38 46H78c2-56 65-53 71-103 2-21-15-35-38-34-25 1-41 14-44 38l-50-2c6-48 39-70 93-75zM77 0v-47h51V0H77" id="I"/><g id="k"><use transform="matrix(0.08641975308641973,0,0,0.08641975308641973,0,0)" xlink:href="#G"/><use transform="matrix(0.08641975308641973,0,0,0.08641975308641973,20.740740740740737,0)" xlink:href="#H"/><use transform="matrix(0.08641975308641973,0,0,0.08641975308641973,39.66666666666666,0)" xlink:href="#D"/><use transform="matrix(0.08641975308641973,0,0,0.08641975308641973,56.950617283950606,0)" xlink:href="#I"/></g><g id="l"><use transform="matrix(0.08024691358024691,0,0,0.08024691358024691,0,0)" xlink:href="#B"/><use transform="matrix(0.08024691358024691,0,0,0.08024691358024691,17.574074074074073,0)" xlink:href="#x"/><use transform="matrix(0.08024691358024691,0,0,0.08024691358024691,27.123456790123456,0)" xlink:href="#y"/></g></defs></g></svg>