<?xml version="1.0" encoding="UTF-8" standalone="no"?>
<!-- Created with Inkscape (http://www.inkscape.org/) -->

<svg
   version="1.1"
   id="svg2"
   width="432"
   height="330.66666"
   viewBox="0 0 432 330.66666"
   sodipodi:docname="capitulo4ejemplo10.svg"
   inkscape:version="1.2.2 (732a01da63, 2022-12-09)"
   xmlns:inkscape="http://www.inkscape.org/namespaces/inkscape"
   xmlns:sodipodi="http://sodipodi.sourceforge.net/DTD/sodipodi-0.dtd"
   xmlns="http://www.w3.org/2000/svg"
   xmlns:svg="http://www.w3.org/2000/svg">
  <defs
     id="defs6" />
  <sodipodi:namedview
     id="namedview4"
     pagecolor="#ffffff"
     bordercolor="#000000"
     borderopacity="0.25"
     inkscape:showpageshadow="2"
     inkscape:pageopacity="0.0"
     inkscape:pagecheckerboard="0"
     inkscape:deskcolor="#d1d1d1"
     showgrid="false"
     inkscape:zoom="2.5070566"
     inkscape:cx="216.18978"
     inkscape:cy="165.53276"
     inkscape:window-width="1920"
     inkscape:window-height="1009"
     inkscape:window-x="-8"
     inkscape:window-y="-8"
     inkscape:window-maximized="1"
     inkscape:current-layer="g10">
    <inkscape:page
       x="0"
       y="0"
       id="page8"
       width="432"
       height="330.66666" />
  </sodipodi:namedview>
  <g
     id="g10"
     inkscape:groupmode="layer"
     inkscape:label="Page 1"
     transform="matrix(1.3333333,0,0,1.3333333,0,1.16e-5)">
    <g
       id="g12">
      <path
         d="M 0,0 H 324 V 248 H 0 Z"
         style="fill:#ffffff;fill-opacity:1;fill-rule:nonzero;stroke:none"
         id="path14" />
      <g
         id="g16">
        <path
           d="M 18.449,99 H 261.676"
           style="fill:none;stroke:#333333;stroke-width:0.9;stroke-linecap:butt;stroke-linejoin:miter;stroke-miterlimit:10;stroke-dasharray:none;stroke-opacity:1"
           id="path18" />
      </g>
      <g
         id="g20">
        <path
           d="M 18.449,99 H 18"
           style="fill:none;stroke:#333333;stroke-width:0.9;stroke-linecap:butt;stroke-linejoin:miter;stroke-miterlimit:10;stroke-dasharray:none;stroke-opacity:1"
           id="path22" />
      </g>
      <g
         id="g24">
        <path
           d="m 268.559,99 -6.434,2.07 v -4.14 z"
           style="fill:#333333;fill-opacity:1;fill-rule:nonzero;stroke:#333333;stroke-width:0.9;stroke-linecap:butt;stroke-linejoin:miter;stroke-miterlimit:10;stroke-dasharray:none;stroke-opacity:1"
           id="path26" />
      </g>
      <path
         d="m 18.027,101.93 c 2.078,0 2.567,1.648 2.567,3.879 0,2.261 -0.578,3.91 -2.625,3.91 -2.047,0 -2.567,-1.711 -2.598,-3.91 -0.031,-2.293 0.52,-3.879 2.656,-3.879 z m -0.031,6.597 c 1.133,-0.152 1.102,-1.406 1.102,-2.718 0,-1.313 0.121,-2.719 -1.102,-2.719 -1.191,0 -1.098,1.375 -1.098,2.719 0,1.312 -0.093,2.597 1.098,2.718 z"
         style="fill:#333333;fill-opacity:1;fill-rule:nonzero;stroke:none"
         id="path28" />
      <path
         d="m 60.016,109.598 v -1.129 h 1.863 v -5.164 l -1.805,1.129 v -1.161 l 1.895,-1.253 h 1.406 v 6.449 h 1.742 v 1.129 z"
         style="fill:#333333;fill-opacity:1;fill-rule:nonzero;stroke:none"
         id="path30" />
      <path
         d="m 112.887,104.035 c 0,2.383 -2.567,2.629 -3.391,4.309 h 3.516 v 1.254 h -5.317 c -0.183,-3.086 3.024,-3.055 3.664,-5.5 0.032,-0.672 -0.367,-0.946 -1.007,-0.977 -0.704,0 -0.977,0.426 -1.071,1.039 l -1.496,-0.094 c 0.153,-1.375 0.977,-2.136 2.567,-2.136 1.558,0 2.535,0.672 2.535,2.105 z"
         style="fill:#333333;fill-opacity:1;fill-rule:nonzero;stroke:none"
         id="path32" />
      <path
         d="m 154.438,105.719 c 1.039,0.121 1.71,0.64 1.804,1.769 0.211,2.782 -4.523,2.875 -5.258,0.856 -0.121,-0.274 -0.183,-0.52 -0.211,-0.793 l 1.555,-0.153 c 0.031,0.735 0.492,1.071 1.223,1.098 0.703,0 1.191,-0.363 1.164,-1.098 -0.031,-0.949 -0.949,-1.101 -1.988,-1.039 v -1.222 c 0.976,0.062 1.804,-0.094 1.804,-1.008 0,-0.613 -0.398,-1.008 -1.039,-1.008 -0.644,0 -1.008,0.395 -1.07,0.977 l -1.527,-0.09 c 0.183,-1.348 1.128,-2.078 2.628,-2.078 1.528,0 2.536,0.609 2.536,2.015 0,1.071 -0.672,1.59 -1.621,1.774 z"
         style="fill:#333333;fill-opacity:1;fill-rule:nonzero;stroke:none"
         id="path34" />
      <path
         d="m 202.367,108.07 v 1.528 h -1.433 v -1.528 h -3.454 v -1.16 l 3.208,-4.89 h 1.679 v 4.918 h 1.012 v 1.132 z m -1.433,-1.132 0.058,-3.543 -2.258,3.543 z"
         style="fill:#333333;fill-opacity:1;fill-rule:nonzero;stroke:none"
         id="path36" />
      <path
         d="m 243.559,107.121 c 0,-1.402 -1.68,-1.68 -2.231,-0.824 h -1.465 l 0.274,-4.277 h 4.554 v 1.132 h -3.179 l -0.121,1.922 c 1.343,-1.16 4.062,-0.121 3.726,2.02 0.336,3.144 -5.164,3.574 -5.469,0.609 l 1.497,-0.121 c 0.152,0.551 0.46,0.914 1.191,0.914 0.797,0 1.223,-0.547 1.223,-1.375 z"
         style="fill:#333333;fill-opacity:1;fill-rule:nonzero;stroke:none"
         id="path38" />
      <g
         id="g40">
        <path
           d="M 242.414,98.551 V 53.324"
           style="fill:#1aff4b;stroke:#17ff36;stroke-width:0.9;stroke-linecap:butt;stroke-linejoin:miter;stroke-miterlimit:10;stroke-dasharray:none;stroke-opacity:1;fill-opacity:1"
           id="path42" />
      </g>
      <g
         id="g44">
        <path
           d="M 242.414,98.551 V 99"
           style="fill:none;stroke:#333333;stroke-width:0.9;stroke-linecap:butt;stroke-linejoin:miter;stroke-miterlimit:10;stroke-dasharray:none;stroke-opacity:1"
           id="path46" />
      </g>
      <g
         id="g48">
        <path
           d="m 242.414,46.441 2.07,6.434 h -4.183 z"
           style="fill:#1aff4b;fill-opacity:1;fill-rule:nonzero;stroke:#1aff65;stroke-width:0.9;stroke-linecap:butt;stroke-linejoin:miter;stroke-miterlimit:10;stroke-dasharray:none;stroke-opacity:1"
           id="path50" />
      </g>
      <g
         id="g52">
        <path
           d="m 63,117.449 v 27.227"
           style="fill:#ff1a1a;stroke:#ff1c1c;stroke-width:0.9;stroke-linecap:butt;stroke-linejoin:miter;stroke-miterlimit:10;stroke-dasharray:none;stroke-opacity:1;fill-opacity:1"
           id="path54" />
      </g>
      <g
         id="g56">
        <path
           d="M 63,117.449 V 117"
           style="fill:none;stroke:#333333;stroke-width:0.9;stroke-linecap:butt;stroke-linejoin:miter;stroke-miterlimit:10;stroke-dasharray:none;stroke-opacity:1"
           id="path58" />
      </g>
      <g
         id="g60">
        <path
           d="m 63,151.559 -2.07,-6.434 h 4.14 z"
           style="fill:#ff1a1a;fill-opacity:1;fill-rule:nonzero;stroke:#ff1a1a;stroke-width:0.9;stroke-linecap:butt;stroke-linejoin:miter;stroke-miterlimit:10;stroke-dasharray:none;stroke-opacity:1"
           id="path62" />
      </g>
      <g
         id="g64">
        <path
           d="m 108,117.449 v 27.227"
           style="fill:none;stroke:#ff1919;stroke-width:0.9;stroke-linecap:butt;stroke-linejoin:miter;stroke-miterlimit:10;stroke-dasharray:none;stroke-opacity:1"
           id="path66" />
      </g>
      <g
         id="g68">
        <path
           d="M 108,117.449 V 117"
           style="fill:none;stroke:#333333;stroke-width:0.9;stroke-linecap:butt;stroke-linejoin:miter;stroke-miterlimit:10;stroke-dasharray:none;stroke-opacity:1"
           id="path70" />
      </g>
      <g
         id="g72">
        <path
           d="m 108,151.559 -2.07,-6.434 h 4.14 z"
           style="fill:#ff1a1a;fill-opacity:1;fill-rule:nonzero;stroke:#ff1a1a;stroke-width:0.9;stroke-linecap:butt;stroke-linejoin:miter;stroke-miterlimit:10;stroke-dasharray:none;stroke-opacity:1"
           id="path74" />
      </g>
      <g
         id="g76">
        <path
           d="m 153,117.449 v 27.227"
           style="fill:none;stroke:#ff1a1a;stroke-width:0.9;stroke-linecap:butt;stroke-linejoin:miter;stroke-miterlimit:10;stroke-dasharray:none;stroke-opacity:1"
           id="path78" />
      </g>
      <g
         id="g80">
        <path
           d="M 153,117.449 V 117"
           style="fill:none;stroke:#333333;stroke-width:0.9;stroke-linecap:butt;stroke-linejoin:miter;stroke-miterlimit:10;stroke-dasharray:none;stroke-opacity:1"
           id="path82" />
      </g>
      <g
         id="g84">
        <path
           d="m 153,151.559 -2.07,-6.434 h 4.14 z"
           style="fill:#ff1a1a;fill-opacity:1;fill-rule:nonzero;stroke:#ff1a1a;stroke-width:0.9;stroke-linecap:butt;stroke-linejoin:miter;stroke-miterlimit:10;stroke-dasharray:none;stroke-opacity:1"
           id="path86" />
      </g>
      <g
         id="g88">
        <path
           d="m 198,117.449 v 27.227"
           style="fill:none;stroke:#ff1a1a;stroke-width:0.9;stroke-linecap:butt;stroke-linejoin:miter;stroke-miterlimit:10;stroke-dasharray:none;stroke-opacity:1"
           id="path90" />
      </g>
      <g
         id="g92">
        <path
           d="M 198,117.449 V 117"
           style="fill:none;stroke:#333333;stroke-width:0.9;stroke-linecap:butt;stroke-linejoin:miter;stroke-miterlimit:10;stroke-dasharray:none;stroke-opacity:1"
           id="path94" />
      </g>
      <g
         id="g96">
        <path
           d="m 198,151.559 -2.07,-6.434 h 4.14 z"
           style="fill:#ff1a1a;fill-opacity:1;fill-rule:nonzero;stroke:#ff1c1c;stroke-width:0.9;stroke-linecap:butt;stroke-linejoin:miter;stroke-miterlimit:10;stroke-dasharray:none;stroke-opacity:1"
           id="path98" />
      </g>
      <g
         id="g100">
        <path
           d="m 243,117.449 v 27.227"
           style="fill:none;stroke:#ff1a1a;stroke-width:0.9;stroke-linecap:butt;stroke-linejoin:miter;stroke-miterlimit:10;stroke-dasharray:none;stroke-opacity:1"
           id="path102" />
      </g>
      <g
         id="g104">
        <path
           d="M 243,117.449 V 117"
           style="fill:none;stroke:#333333;stroke-width:0.9;stroke-linecap:butt;stroke-linejoin:miter;stroke-miterlimit:10;stroke-dasharray:none;stroke-opacity:1"
           id="path106" />
      </g>
      <g
         id="g108">
        <path
           d="m 243,151.559 -2.07,-6.434 h 4.14 z"
           style="fill:#ff1a1a;fill-opacity:1;fill-rule:nonzero;stroke:#ff1a1a;stroke-width:0.9;stroke-linecap:butt;stroke-linejoin:miter;stroke-miterlimit:10;stroke-dasharray:none;stroke-opacity:1"
           id="path110" />
      </g>
      <g
         id="g112">
        <path
           d="M 63.449,153 H 242.551"
           style="fill:none;stroke:#333333;stroke-width:0.9;stroke-linecap:butt;stroke-linejoin:miter;stroke-miterlimit:10;stroke-dasharray:none;stroke-opacity:1"
           id="path114" />
      </g>
      <g
         id="g116">
        <path
           d="M 63.449,153 H 63"
           style="fill:none;stroke:#333333;stroke-width:0.9;stroke-linecap:butt;stroke-linejoin:miter;stroke-miterlimit:10;stroke-dasharray:none;stroke-opacity:1"
           id="path118" />
      </g>
      <g
         id="g120">
        <path
           d="M 242.551,153 H 243"
           style="fill:none;stroke:#333333;stroke-width:0.9;stroke-linecap:butt;stroke-linejoin:miter;stroke-miterlimit:10;stroke-dasharray:none;stroke-opacity:1"
           id="path122" />
      </g>
      <g
         id="g124">
        <path
           d="m 243,153.449 v 4.321 m 0,4.367 v 8.683 m 0,4.364 v 4.367"
           style="fill:none;stroke:#333333;stroke-width:0.9;stroke-linecap:butt;stroke-linejoin:miter;stroke-miterlimit:10;stroke-dasharray:none;stroke-opacity:1"
           id="path126" />
      </g>
      <g
         id="g128">
        <path
           d="M 243,153.449 V 153"
           style="fill:none;stroke:#333333;stroke-width:0.9;stroke-linecap:butt;stroke-linejoin:miter;stroke-miterlimit:10;stroke-dasharray:none;stroke-opacity:1"
           id="path130" />
      </g>
      <g
         id="g132">
        <path
           d="M 243,179.551 V 180"
           style="fill:none;stroke:#333333;stroke-width:0.9;stroke-linecap:butt;stroke-linejoin:miter;stroke-miterlimit:10;stroke-dasharray:none;stroke-opacity:1"
           id="path134" />
      </g>
      <text
         xml:space="preserve"
         transform="translate(250.74537,177.53506)"
         style="font-style:oblique;font-variant:normal;font-weight:bold;font-size:12px;font-family:NimbusSansNarrow;-inkscape-font-specification:NimbusSansNarrow-BoldOblique;writing-mode:lr-tb;fill:#000000;fill-opacity:1;fill-rule:nonzero;stroke:none"
         id="text138"><tspan
           x="0 6.0120001"
           y="0"
           sodipodi:role="line"
           id="tspan136">pf</tspan></text>
      <path
         d="m 160.199,230.895 -0.539,0.089 -2.746,0.27 -2.16,0.137 -1.754,0.043 h -0.359 l -1.711,-0.043 0.047,-0.903 1.707,0.047 h 2.027 l 2.16,-0.18 2.652,-0.269 0.543,-0.09 z m -19.484,-1.215 4.363,0.496 1.309,0.09 -0.047,0.898 -1.305,-0.09 -4.457,-0.496 -3.418,-0.492 0.137,-0.902 z m 32.984,-1.621 -1.711,0.496 -4.859,1.125 -2.383,0.496 -0.18,-0.903 2.383,-0.449 4.817,-1.125 1.711,-0.496 z m -47.113,-1.125 4.723,1.125 1.488,0.316 -0.184,0.855 -1.484,-0.269 -4.77,-1.172 -2.699,-0.766 0.27,-0.851 z m 60.301,-3.106 -3.422,1.262 -5.309,1.711 -0.269,-0.856 5.261,-1.711 3.422,-1.257 z m -73.891,-1.348 4.41,1.622 2.114,0.718 -0.27,0.856 -2.16,-0.723 -4.41,-1.664 -2.071,-0.855 0.36,-0.856 z m 86.578,-4.093 -3.914,1.843 -4.5,1.891 -0.359,-0.812 4.5,-1.887 3.914,-1.848 z m -98.773,-1.711 3.914,2.07 2.07,0.988 -0.359,0.813 -2.117,-1.035 -3.914,-2.071 -2.161,-1.214 0.496,-0.766 z m 110.969,-4.817 -0.09,0.047 -4.907,2.832 -3.058,1.578 -0.406,-0.765 3.062,-1.621 4.813,-2.789 0.089,-0.047 z m -121.59,-2.023 3.375,2.383 1.261,0.812 -0.496,0.766 -1.261,-0.813 -3.418,-2.382 -2.836,-2.161 0.586,-0.722 z m 132.976,-5.852 -3.152,2.387 -3.914,2.742 -0.449,0.274 -0.45,-0.766 0.403,-0.269 3.871,-2.704 3.148,-2.382 z m -145.125,-4.679 2.832,2.789 2.973,2.703 -0.633,0.672 -2.969,-2.742 -2.879,-2.836 -0.765,-0.813 0.676,-0.629 z m 155.34,-4.68 -1.574,1.664 -2.434,2.43 -2.609,2.34 -0.629,-0.672 2.609,-2.34 2.43,-2.387 1.531,-1.621 z m -163.172,-4.453 2.52,3.148 1.484,1.754 -0.672,0.586 -1.531,-1.754 -2.52,-3.195 -1.664,-2.34 0.762,-0.496 z m 168.977,-2.746 -0.09,0.133 -1.531,2.07 -1.168,1.484 -0.723,-0.539 1.172,-1.484 1.484,-2.024 0.09,-0.136 z m -173.61,-4.004 0.45,0.629 -0.766,0.496 -0.449,-0.676 -1.938,-3.242 0.766,-0.492 z"
         style="fill:#1a26ff;fill-opacity:1;fill-rule:nonzero;stroke:none"
         id="path140" />
      <path
         d="m 63.629,180.18 -0.766,0.449 -0.269,-0.402 0.812,-0.454 z"
         style="fill:#c92d39;fill-opacity:1;fill-rule:nonzero;stroke:none"
         id="path142" />
      <path
         d="m 240.84,187.828 -3.602,-2.066 5.043,-4.5 z"
         style="fill:#1a26ff;fill-opacity:1;fill-rule:nonzero;stroke:none"
         id="path144" />
      <path
         d="m 283.484,93.957 c 1.989,0.035 2.528,1.481 2.528,3.539 0,2.059 -0.578,3.539 -2.528,3.609 -1.117,0 -1.769,-0.468 -2.164,-1.226 l 0.035,3.793 h -1.156 l -0.035,-9.57 h 1.117 l 0.074,1.082 c 0.36,-0.758 1.012,-1.227 2.129,-1.227 z m -0.289,6.281 c 1.446,0 1.625,-1.226 1.625,-2.707 0,-1.48 -0.215,-2.636 -1.625,-2.672 -1.515,0 -1.84,1.157 -1.84,2.746 0,1.551 0.36,2.633 1.84,2.633 z"
         style="fill:#333333;fill-opacity:1;fill-rule:nonzero;stroke:none"
         id="path148" />
      <path
         d="m 288.684,99.266 c -0.071,0.867 0.652,1.046 1.375,0.793 v 0.867 c -1.192,0.359 -2.528,0.179 -2.528,-1.406 v -4.586 h -0.797 v -0.832 h 0.868 l 0.324,-1.551 h 0.758 v 1.551 h 1.265 v 0.832 h -1.265 z"
         style="fill:#333333;fill-opacity:1;fill-rule:nonzero;stroke:none"
         id="path150" />
      <path
         d="m 294.066,100.961 h -1.375 l -2.488,-6.859 h 1.227 l 1.949,5.957 2.023,-5.957 h 1.227 z"
         style="fill:#333333;fill-opacity:1;fill-rule:nonzero;stroke:none"
         id="path152" />
      <path
         d="m 123.125,187.875 c 3.211,-0.145 1.914,4.191 2.164,7.008 h -1.156 v -4.371 c 0,-1.117 -0.285,-1.77 -1.406,-1.735 -2.602,0.075 -1.59,3.684 -1.77,6.106 h -1.156 l -0.035,-6.863 h 1.082 c 0.039,0.363 -0.036,0.867 0.074,1.156 0.394,-0.793 1.047,-1.262 2.203,-1.301 z"
         style="fill:#000000;fill-opacity:1;fill-rule:nonzero;stroke:none"
         id="path154" />
      <path
         d="m 130.387,189.465 v -0.938 h 6.281 v 0.938 z m 0,3.25 v -0.938 h 6.281 v 0.938 z"
         style="fill:#000000;fill-opacity:1;fill-rule:nonzero;stroke:none"
         id="path156" />
      <path
         d="m 142.844,189.754 c 1.734,-1.262 4.949,-0.289 4.73,2.203 0.399,3.574 -5.558,4.117 -6.172,0.938 l 1.153,-0.145 c 0.254,0.832 0.797,1.336 1.879,1.336 1.265,-0.035 1.839,-0.793 1.949,-2.094 0.144,-1.984 -2.637,-2.347 -3.574,-1.226 h -1.121 l 0.289,-4.84 h 5.093 v 0.976 h -4.047 z"
         style="fill:#000000;fill-opacity:1;fill-rule:nonzero;stroke:none"
         id="path158" />
      <path
         d="m 155.891,187.875 c 1.988,0.039 2.531,1.48 2.531,3.539 0,2.059 -0.578,3.539 -2.531,3.613 -1.118,0 -1.766,-0.472 -2.164,-1.23 l 0.035,3.793 h -1.157 l -0.035,-9.57 h 1.121 l 0.071,1.085 c 0.363,-0.757 1.011,-1.23 2.129,-1.23 z m -0.286,6.285 c 1.442,0 1.622,-1.226 1.622,-2.707 0,-1.48 -0.215,-2.637 -1.622,-2.676 -1.519,0 -1.843,1.157 -1.843,2.746 0,1.551 0.363,2.637 1.843,2.637 z"
         style="fill:#000000;fill-opacity:1;fill-rule:nonzero;stroke:none"
         id="path160" />
      <path
         d="m 161.094,193.184 c -0.074,0.867 0.648,1.046 1.371,0.796 v 0.864 c -1.192,0.363 -2.527,0.183 -2.527,-1.406 v -4.586 h -0.797 v -0.832 h 0.867 l 0.324,-1.551 h 0.762 v 1.551 h 1.261 v 0.832 h -1.261 z"
         style="fill:#000000;fill-opacity:1;fill-rule:nonzero;stroke:none"
         id="path162" />
      <path
         d="m 166.473,194.883 h -1.371 l -2.493,-6.863 h 1.227 l 1.949,5.96 2.024,-5.96 h 1.226 z"
         style="fill:#000000;fill-opacity:1;fill-rule:nonzero;stroke:none"
         id="path164" />
      <text
         xml:space="preserve"
         transform="matrix(1,0,0,0.78075531,118.63635,183.61689)"
         style="font-variant:normal;font-weight:normal;font-size:14.0339px;font-family:'Nimbus Sans';-inkscape-font-specification:NimbusSans-Regular;writing-mode:lr-tb;fill:#000000;fill-opacity:1;fill-rule:nonzero;stroke:none"
         id="text168"><tspan
           x="0 3.1155248 11.311319 19.114164 31.590298 35.491722 43.252464 47.448601"
           y="0"
           sodipodi:role="line"
           id="tspan166">i=8% ptv</tspan></text>
      <text
         xml:space="preserve"
         transform="translate(200.60075,40.03312)"
         style="font-variant:normal;font-weight:normal;font-size:12px;font-family:'Nimbus Sans';-inkscape-font-specification:NimbusSans-Regular;writing-mode:lr-tb;fill:#000000;fill-opacity:1;fill-rule:nonzero;stroke:none"
         id="text174"><tspan
           x="0 8.0039997 15.336 22.344 29.016001 35.723999 42.396 45.731998 52.403999 59.076 65.748001 69.084 77.676003 86.903999"
           y="0"
           sodipodi:role="line"
           id="tspan170">VF=300.000 COP</tspan><tspan
           x="-157.08649 -148.42249 -141.41449 -134.74249 -126.15049 -116.91049"
           y="127.93193"
           sodipodi:role="line"
           id="tspan172">R=?COP</tspan></text>
    </g>
  </g>
</svg>
