<svg xmlns="http://www.w3.org/2000/svg" xmlns:xlink="http://www.w3.org/1999/xlink" xmlns:lucid="lucid" width="711" height="531.9"><g transform="translate(-169 -179.09618006994398)" lucid:page-tab-id="0_0"><path d="M200 401v180.5M200 401.03V400" stroke="#5e5e5e" stroke-width="2" fill="none"/><path d="M200 596.76l-4.64-14.26h9.28z" stroke="#5e5e5e" stroke-width="2" fill="#5e5e5e"/><use xlink:href="#a" transform="matrix(1,0,0,1,208,589.3333333333334) translate(0 14.222222222222223)"/><path d="M801 394.13l-.92 3.42-2.53 2.53-3.42.92H201v-2h592.87l2.64-.7 1.8-1.8.7-2.63V258.5h2z" fill="#5e5e5e"/><path d="M201.03 401H200v-2h1.03zM804.64 257.5h-9.28l4.64-14.26z" fill="#5e5e5e"/><path d="M806 258.5h-12l6-18.5zm-9.26-2h6.52L800 246.47z" fill="#5e5e5e"/><use xlink:href="#b" transform="matrix(1,0,0,1,732.7407407407406,229.3333333333334) translate(0 14.222222222222223)"/><path d="M301.33 401v80.5M301.33 401.03V400" stroke="#5e5e5e" stroke-width="2" fill="none"/><path d="M301.33 496.76l-4.63-14.26h9.27z" stroke="#5e5e5e" stroke-width="2" fill="#5e5e5e"/><use xlink:href="#c" transform="matrix(1,0,0,1,309.3333333333333,489.3333333333333) translate(0 14.222222222222223)"/><path d="M320 406c0-3.3 2.7-6 6-6h8c3.3 0 6 2.7 6 6v28c0 3.3-2.7 6-6 6h-8c-3.3 0-6-2.7-6-6z" stroke="#000" stroke-opacity="0" stroke-width="3" fill="#fff" fill-opacity="0"/><use xlink:href="#d" transform="matrix(1,0,0,1,325,405) translate(0.061728395061731334 17.972222222222214)"/><path d="M400 406c0-3.3 2.7-6 6-6h8c3.3 0 6 2.7 6 6v8c0 3.3-2.7 6-6 6h-8c-3.3 0-6-2.7-6-6z" stroke="#000" stroke-opacity="0" stroke-width="3" fill="#fff" fill-opacity="0"/><use xlink:href="#e" transform="matrix(1,0,0,1,405,405) translate(0.06172839506172956 14.222222222222221)"/><path d="M500 406c0-3.3 2.7-6 6-6h8c3.3 0 6 2.7 6 6v8c0 3.3-2.7 6-6 6h-8c-3.3 0-6-2.7-6-6z" stroke="#000" stroke-opacity="0" stroke-width="3" fill="#fff" fill-opacity="0"/><use xlink:href="#f" transform="matrix(1,0,0,1,505,405) translate(0.06172839506172956 14.222222222222221)"/><path d="M600 406c0-3.3 2.7-6 6-6h8c3.3 0 6 2.7 6 6v8c0 3.3-2.7 6-6 6h-8c-3.3 0-6-2.7-6-6z" stroke="#000" stroke-opacity="0" stroke-width="3" fill="#fff" fill-opacity="0"/><use xlink:href="#g" transform="matrix(1,0,0,1,605,405) translate(0.06172839506172956 14.222222222222221)"/><path d="M700 406c0-3.3 2.7-6 6-6h8c3.3 0 6 2.7 6 6v8c0 3.3-2.7 6-6 6h-8c-3.3 0-6-2.7-6-6z" stroke="#000" stroke-opacity="0" stroke-width="3" fill="#fff" fill-opacity="0"/><use xlink:href="#h" transform="matrix(1,0,0,1,705,405) translate(0.06172839506172956 14.222222222222221)"/><path d="M600 399v-40.5M600 398.97V400" stroke="#5e5e5e" stroke-width="2" fill="none"/><path d="M600 343.24l4.64 14.26h-9.28z" stroke="#5e5e5e" stroke-width="2" fill="#5e5e5e"/><use xlink:href="#i" transform="matrix(1,0,0,1,532.7407407407406,329.3333333333333) translate(0 14.222222222222223)"/><path d="M699.94 399v-80.5M699.94 398.97V400" stroke="#5e5e5e" stroke-width="2" fill="none"/><path d="M699.94 303.24l4.64 14.26h-9.28z" stroke="#5e5e5e" stroke-width="2" fill="#5e5e5e"/><use xlink:href="#j" transform="matrix(1,0,0,1,632.6806247698267,289.3333333333333) translate(0 14.222222222222223)"/><path d="M300.62 399.1l-.05-.26-.02-.46.04-.65.18-1.04.18-.6m1.5-3.8l1.5-3.36 1.05-2.2m1.78-3.66l2.66-5.5m1.77-3.68l2.67-5.5m1.77-3.68l.3-.63 1.57-5.2m.63-4l.26-3-.23-3.1m-.7-4l-.4-1.8-1.6-3.98m-1.95-3.56l-1.96-3.28-1.4-1.83m-2.45-3.24l-2.2-2.9-1.5-1.93-.02-.02m-2.86-2.9l-.14-.12-1.55-1.22-1.63-1.06-1.74-.95-.02-.02m-3.8-1.5l-.2-.07-2.46-.63-2.98-.52-.32-.03m-4.06-.32l-5.33-.03-.8.06m-4.06.33l-6.1.5m-4.06.32l-6.1.5m-4.05.32l-6.1.5m-4.06.36l-.66.1-1.64.3-1.6.42-1.56.5-.44.18m-3.7 1.7l-.42.22-1.5.93-1.53 1.07-1.53 1.2-.04.04m-2.97 2.8l-.17.18-1.66 1.86-1.7 2.17-.37.52m-2.24 3.4l-1 1.65-1.94 3.62-.04.06m-1.7 3.7l-.27.6-2 5.1m-1.26 3.87l-.97 3-.74 2.86m-1 3.94l-.38 1.44-.9 4.54m-.78 4l-.33 1.7-.6 4.35m-.53 4.04l-.4 3.04M300.42 399.17l.6.83" stroke="#0c7cba" stroke-width="2" fill="none"/><path d="M202.1 396.82l-3.56-14.57 9.25.68z" stroke="#0c7cba" stroke-width="2" fill="#0c7cba"/><use xlink:href="#k" transform="matrix(1,0,0,1,221.31737638757866,323.5266015335173) translate(0 14.222222222222223)"/><use xlink:href="#l" transform="matrix(1,0,0,1,221.31737638757866,323.5266015335173) translate(0 35.55555555555556)"/><use xlink:href="#m" transform="matrix(1,0,0,1,221.31737638757866,323.5266015335173) translate(36.00000000000001 35.55555555555556)"/><path d="M800 406c0-3.3 2.7-6 6-6h8c3.3 0 6 2.7 6 6v8c0 3.3-2.7 6-6 6h-8c-3.3 0-6-2.7-6-6z" stroke="#000" stroke-opacity="0" stroke-width="3" fill="#fff" fill-opacity="0"/><use xlink:href="#n" transform="matrix(1,0,0,1,805,405) translate(0.06172839506172956 14.222222222222221)"/><path d="M601.02 401l-.04 2.14-.06.87m-.32 4l-.17 1.6-.5 3.32-.2 1.03m-.8 3.92l-.47 1.97-1 3.62-.08.22m-1.25 3.8l-1.33 3.6-.85 2m-1.62 3.67l-1.2 2.54-1.48 2.82m-1.95 3.5l-1.5 2.6-1.6 2.55m-2.2 3.35l-2.73 3.92-.75.98m-2.42 3.2l-.83 1.08-2.96 3.58m-2.6 3.05l-4.02 4.46m-2.8 2.86l-3.35 3.43-.88.82m-2.93 2.74L553.2 487l-1.52 1.3m-3.03 2.63l-3.06 2.64-1.55 1.22m-3.14 2.48l-3.84 3.05-.9.65m-3.24 2.35l-4.86 3.53m-3.32 2.24l-5 3.33m-3.37 2.18l-5.14 3.12m-3.43 2.08l-2.04 1.24-3.18 1.74m-3.5 1.93l-5.28 2.9m-3.58 1.8l-5.4 2.67m-3.58 1.78l-.47.23-5 2.23m-3.67 1.64l-4.58 2.05-.93.35m-3.73 1.48l-5.6 2.2m-3.72 1.46l-5.68 1.97m-3.8 1.32l-3.42 1.18-2.27.7m-3.84 1.15l-5.75 1.74m-3.88 1.05l-5.82 1.5m-3.88 1l-.4.1-5.48 1.16m-3.92.83l-2.7.58-3.2.55m-3.95.67l-4.24.72-1.7.2m-3.97.5l-5 .65-.97.08m-4 .33l-5 .42-1 .05m-4 .16l-4.2.2h-1.8m-4.02 0h-2.7l-3.3-.14m-4-.17l-.58-.03-5.42-.46m-3.98-.4l-4.6-.6-1.36-.22m-3.95-.67l-.93-.14-4.97-1.06m-3.9-.96l-2.27-.6-.74-.2-1.2-.36-1.28-.46-.26-.1m-3.65-1.65l-.7-.36-1.9-1.04-2.1-1.3-.48-.32m-3.28-2.3l-1.35-1-3.16-2.52-.22-.2m-3-2.64l-.45-.38-3.93-3.74m-2.8-2.87l-2.82-2.93-1.3-1.46m-2.66-2.98l-2.35-2.65-1.55-1.92m-2.54-3.1l-3.62-4.46-.16-.22m-2.4-3.2l-3.6-4.82m-2.4-3.2l-.92-1.23-2.53-3.7m-2.26-3.3l-3.4-4.96m-2.25-3.3l-.96-1.4-2.3-3.67m-2.12-3.4l-3.2-5.1m-2.12-3.4l-3.14-5.02-.04-.07m-1.98-3.47l-2.98-5.22m-1.98-3.47l-2.98-5.22m-1.98-3.48l-.48-.83-2.32-4.5m-1.84-3.56l-2.75-5.34m-1.85-3.56l-.5-.93-2.08-4.5m-1.7-3.62l-1.26-2.73M601.02 401.03l.02-1.03" stroke="#0c7cba" stroke-width="2" fill="none"/><path d="M201.04 403.07L210 415.1l-8.78 2.96z" stroke="#0c7cba" stroke-width="2" fill="#0c7cba"/><use xlink:href="#k" transform="matrix(1,0,0,1,411.73807166542986,489.703642296854) translate(0 14.222222222222223)"/><use xlink:href="#o" transform="matrix(1,0,0,1,411.73807166542986,489.703642296854) translate(0 35.55555555555556)"/><path d="M699.53 401l-.06 3m-.1 4l-.4 6m-.36 3.97l-.57 5.5-.07.47m-.58 3.95l-.6 4.04-.36 1.88m-.75 3.92l-.53 2.77-.72 3.1m-.92 3.9l-.37 1.58-1.17 4.22m-1.08 3.85l-.12.42-1.72 5.3m-1.27 3.8l-2.1 5.6m-1.46 3.73l-2.32 5.53m-1.68 3.63l-2.15 4.58-.44.83m-1.84 3.55l-1.62 3.1-1.26 2.17m-2 3.45l-.93 1.6-2.2 3.5m-2.16 3.38l-.1.14-3.33 4.8m-2.33 3.24l-3.63 4.8m-2.52 3.1l-3.1 3.73-.76.85m-2.68 2.97l-2.07 2.3-2.03 2.08m-2.8 2.86l-.98.98-3.35 3.16m-2.92 2.73l-4.54 3.92m-3.08 2.55l-4.7 3.72m-3.2 2.38l-4.6 3.34-.27.17m-3.35 2.2l-3.92 2.62-1.1.67m-3.42 2.06l-3.65 2.16-1.54.82m-3.52 1.9l-2.17 1.16-3.17 1.54m-3.6 1.74l-1.46.7-4.02 1.75m-3.67 1.6l-1.68.73-3.9 1.5m-3.73 1.43l-3.03 1.16-2.6.88m-3.8 1.28l-5.66 1.9-.03.02m-3.84 1.1l-5.75 1.7m-3.84 1.1l-.1.04-5.7 1.4m-3.9.96l-5.52 1.36-.3.06m-3.93.8l-5.88 1.2m-3.92.78l-2.53.5-3.38.55m-3.95.63l-5.94.94m-3.95.63l-.5.08-5.44.63m-3.98.46l-5.96.7m-3.97.42l-6 .45m-3.98.28l-5.98.45m-4 .2l-6 .2m-4 .12l-5.46.17h-.54m-4-.04l-6-.06m-4-.03l-2.1-.03-3.9-.2m-4-.2l-5.98-.3m-4-.34l-5.96-.55m-4-.38l-.4-.03-5.53-.75m-3.97-.54l-1.9-.26-4.02-.72m-3.94-.7l-1.77-.32-4.1-.9m-3.9-.88l-.25-.05-5.55-1.48m-3.84-1.13l-3.52-1.1-2.2-.78m-3.74-1.4l-3.38-1.37-2.14-.98m-3.6-1.75l-1.1-.57-.57-.3-1.15-.66-1.33-.83-1-.7m-3.18-2.4l-1.37-1.13-2.66-2.38-.48-.48m-2.87-2.8l-4.12-4.36m-2.6-3.02l-2.98-3.42-.92-1.15m-2.5-3.13l-3.72-4.7m-2.38-3.2l-3.53-4.86m-2.36-3.23l-2.45-3.38-1-1.5m-2.23-3.34l-3.33-5m-2.23-3.32l-3.33-4.98m-2.22-3.33l-.45-.68-2.7-4.44m-2.08-3.42l-3.13-5.12m-2.08-3.42l-3.13-5.13m-2.08-3.42l-3.13-5.13m-2.07-3.42l-2.9-5.25m-1.94-3.5l-2.9-5.25m-1.95-3.5l-2.9-5.25m-1.94-3.5l-2.9-5.24m-1.95-3.5l-2.67-4.85-.2-.42m-1.8-3.57l-2.7-5.35m-1.8-3.58l-2.7-5.36m-1.8-3.56l-2.7-5.36m-1.75-3.6l-2.48-5.46m-1.65-3.64l-1.23-2.74M699.53 401.03l.02-1.03" stroke="#0c7cba" stroke-width="2" fill="none"/><path d="M203.35 396.48l9.04 11.97-8.77 3.03z" stroke="#0c7cba" stroke-width="2" fill="#0c7cba"/><use xlink:href="#k" transform="matrix(1,0,0,1,536.5752452604742,522.5289576416792) translate(0 14.222222222222223)"/><use xlink:href="#p" transform="matrix(1,0,0,1,536.5752452604742,522.5289576416792) translate(0 35.55555555555556)"/><path d="M798.04 401l-.06 3m-.07 4l-.1 5.97m-.1 4l-.1 5.98m-.1 4l-.38 5.97m-.25 3.98l-.37 5.98m-.25 3.98l-.2 3.3-.3 2.67m-.4 3.97l-.63 5.95m-.4 3.97l-.5 4.76-.2 1.2m-.57 3.94l-.87 5.92m-.58 3.95l-.62 4.15-.33 1.76m-.75 3.93l-1.12 5.88m-.74 3.93l-.33 1.7-.96 4.15m-.9 3.88l-1.37 5.83m-1 3.85l-1.62 5.77m-1.07 3.85l-.5 1.83-1.27 3.88m-1.23 3.8l-1.52 4.7-.37.98m-1.4 3.74l-2.07 5.62m-1.5 3.7l-2.32 5.5m-1.63 3.66L764.4 579m-1.77 3.57l-2.77 5.3m-1.94 3.5l-3 5.18m-2.12 3.38l-2.5 3.95-.75 1.08m-2.28 3.28l-1.46 2.1-2.06 2.73m-2.4 3.18l-.05.04-3.8 4.56m-2.62 3l-2.75 3.05-1.3 1.36m-2.8 2.85l-.55.56-3.8 3.58m-3 2.64L718 640.2l-1.9 1.52m-3.14 2.47l-4.75 3.44-.08.06m-3.33 2.2l-1.64 1.1-3.45 2.08m-3.44 2l-5.27 2.85m-3.53 1.87l-5.4 2.63m-3.57 1.74l-.03.02-5.46 2.37m-3.65 1.6l-1.2.5-4.37 1.7m-3.72 1.44l-2.97 1.16-2.66.9m-3.78 1.3l-5.4 1.82-.28.08m-3.83 1.13l-5.74 1.67m-3.83 1.08l-5.8 1.45m-3.9.96l-2.76.7-3.06.62m-3.9.8l-5.88 1.2m-3.93.7l-5.9.95m-3.95.63l-2.88.47-3.05.36m-3.96.46l-5.96.7m-3.97.43l-5.97.45m-3.98.3l-5.74.44h-.23m-4 .13l-5.97.2m-4 .14l-3.06.1h-2.92m-4-.05l-5.98-.04m-4-.03h-.8l-5.17-.26m-4-.2l-5.97-.3m-3.98-.25l-5.96-.55m-3.98-.36l-5.96-.55m-3.96-.5l-5.94-.8m-3.95-.52l-5.03-.68-.9-.16m-3.93-.7l-5.9-1.03m-3.94-.7l-2.85-.5-3-.66m-3.9-.86l-5.86-1.3m-3.9-.85l-.3-.06-5.5-1.46m-3.85-1l-5.8-1.54m-3.82-1.14l-5.72-1.77m-3.8-1.18l-3.12-.97-2.57-.9m-3.76-1.35l-5.63-2.02m-3.74-1.4l-5.55-2.24m-3.7-1.5l-2.97-1.2-2.53-1.15m-3.63-1.66l-5.46-2.48m-3.58-1.76l-5.35-2.68m-3.53-1.86l-1.16-.64-3-1.82-.96-.65m-3.3-2.25l-2.52-1.84-2.24-1.77m-3.07-2.55L330.9 636l-1.6-1.5m-2.9-2.75l-.28-.27-3.9-4m-2.73-2.92l-4-4.46m-2.6-3.04l-3.8-4.63m-2.47-3.12l-3.6-4.77m-2.42-3.2l-1-1.33-2.45-3.54m-2.27-3.3l-3.4-4.9m-2.2-3.34l-3.2-5.06m-2.14-3.38l-3.2-5.06m-2.1-3.4l-2.97-5.2m-1.98-3.45l-3-5.2m-1.98-3.46l-2.52-4.38-.43-.82m-1.84-3.54l-2.76-5.32m-1.84-3.54l-2.76-5.3m-1.84-3.55l-2.76-5.32m-1.75-3.58l-2.54-5.43m-1.7-3.6l-2.53-5.43m-1.7-3.63l-2.53-5.42m-1.7-3.62L235 482.8m-1.56-3.67l-2.3-5.52m-1.56-3.68l-2.3-5.52m-1.55-3.68l-2.3-5.52m-1.56-3.7l-2.23-5.33-.07-.18m-1.4-3.75l-2.08-5.62m-1.4-3.74l-2.1-5.62m-1.38-3.74l-1.7-4.6-.35-1.03m-1.24-3.78l-.92-2.85M798.04 401.03l.02-1.03" stroke="#0c7cba" stroke-width="2" fill="none"/><path d="M203.12 396.55l8.12 12.6-8.96 2.38z" stroke="#0c7cba" stroke-width="2" fill="#0c7cba"/><use xlink:href="#k" transform="matrix(1,0,0,1,634.9834164367943,602.3077110970912) translate(0 14.222222222222223)"/><use xlink:href="#q" transform="matrix(1,0,0,1,634.9834164367943,602.3077110970912) translate(0 35.55555555555556)"/><path d="M820 386c0-3.3 2.7-6 6-6h28c3.3 0 6 2.7 6 6v8c0 3.3-2.7 6-6 6h-28c-3.3 0-6-2.7-6-6z" stroke="#000" stroke-opacity="0" stroke-width="3" fill="#fff" fill-opacity="0"/><use xlink:href="#r" transform="matrix(1,0,0,1,825,385) translate(-1.7654320987654266 14.222222222222221)"/><path d="M201 699h-2v-3h2zm0-6.97h-2v-5.98h2zm0-9.96h-2v-5.98h2zm0-9.96h-2v-5.97h2zm0-9.95h-2v-5.98h2zm0-9.96h-2v-6h2zm0-9.97h-2v-5.98h2zm0-9.96h-2v-5.98h2zm0-9.96h-2v-5.97h2zm0-9.95h-2v-5.98h2zm0-9.96h-2v-6h2zm0-9.97h-2v-5.98h2zm0-9.96h-2v-5.98h2zm0-9.96h-2v-5.97h2zm0-9.95h-2v-5.98h2zm0-9.96h-2v-6h2zm0-9.97h-2v-5.98h2zm0-9.96h-2v-5.98h2zm0-9.96h-2v-5.97h2zm0-9.95h-2v-5.98h2zm0-9.96h-2v-6h2zm0-9.97h-2v-5.98h2zm0-9.96h-2v-5.98h2zm0-9.96h-2v-5.97h2zm0-9.95h-2v-5.98h2zm0-9.96h-2v-6h2zm0-9.97h-2v-5.98h2zm0-9.96h-2v-5.98h2zm0-9.96h-2v-5.97h2zm0-9.95h-2v-5.98h2zm0-9.96h-2v-6h2zm0-9.97h-2v-5.98h2zm0-9.96h-2v-5.98h2zm0-9.96h-2v-5.97h2zm0-9.95h-2v-5.98h2zm0-9.96h-2v-6h2zm0-9.97h-2v-5.98h2zm0-9.96h-2v-5.98h2zm0-9.96h-2v-5.97h2zm0-9.95h-2v-5.98h2zm0-9.96h-2v-6h2zm0-9.97h-2v-5.98h2zm0-9.96h-2v-5.98h2zm0-9.96h-2v-5.97h2zm0-9.95h-2v-5.98h2zm0-9.96h-2v-6h2zm0-9.97h-2v-5.98h2zm0-9.96h-2v-5.98h2zm0-9.96h-2v-5.97h2zm0-9.95h-2v-2.52h2z" fill="#5e5e5e"/><path d="M201 700h-2v-1.03h2z" fill="#5e5e5e"/><path fill="#5e5e5e"/><g><use xlink:href="#s" transform="matrix(1,0,0,1,194.12345679012347,190.09618006994398) translate(0 14.222222222222223)"/></g><defs><path fill="#333" d="M111-147c44 9 85 22 84 75-1 49-35 65-84 68v31H91V-4C40-5 12-27 5-72l45-8c4 24 15 38 41 40-2-22 4-51-2-69-39-10-76-22-76-72 0-47 35-60 78-63v-23h20v23c47 1 70 23 78 62l-46 7c-4-18-12-32-32-34v62zm-20-63c-33-4-45 46-13 54 4 1 8 2 13 4v-58zm20 170c39 5 53-51 15-60-7-2-7-2-15-4v64" id="t"/><path fill="#333" d="M138-131c27 9 52 24 51 61 0 53-36 74-89 74S11-19 11-69c0-35 22-54 51-61-78-25-46-121 38-121 51 0 83 19 83 66 0 30-18 49-45 54zm-38-16c24 0 32-13 32-36 1-23-11-34-32-34-22 0-33 12-32 34 0 22 9 36 32 36zm1 116c27 0 37-17 37-43 0-25-13-39-39-39-24 0-37 15-37 40 0 27 11 42 39 42" id="u"/><path fill="#333" d="M101-251c68 0 84 54 84 127C185-50 166 4 99 4S15-52 14-124c-1-75 17-127 87-127zm-1 216c37-5 36-46 36-89s4-89-36-89c-39 0-36 45-36 89 0 43-3 85 36 89" id="v"/><g id="a"><use transform="matrix(0.04938271604938272,0,0,0.04938271604938272,0,0)" xlink:href="#t"/><use transform="matrix(0.04938271604938272,0,0,0.04938271604938272,9.876543209876544,0)" xlink:href="#u"/><use transform="matrix(0.04938271604938272,0,0,0.04938271604938272,19.75308641975309,0)" xlink:href="#v"/><use transform="matrix(0.04938271604938272,0,0,0.04938271604938272,29.629629629629633,0)" xlink:href="#v"/><use transform="matrix(0.04938271604938272,0,0,0.04938271604938272,39.50617283950618,0)" xlink:href="#v"/><use transform="matrix(0.04938271604938272,0,0,0.04938271604938272,49.38271604938272,0)" xlink:href="#v"/></g><path fill="#333" d="M115-159c48 0 72 30 72 78 0 54-30 85-83 85-64 0-91-50-91-122 0-98 58-163 141-120 15 8 21 24 27 44l-47 6c-5-31-48-31-61-4-7 14-11 33-11 60 9-17 28-27 53-27zM102-35c24 0 36-20 36-45s-11-43-37-43c-23 0-36 14-36 38 0 27 11 50 37 50" id="w"/><g id="b"><use transform="matrix(0.04938271604938272,0,0,0.04938271604938272,0,0)" xlink:href="#t"/><use transform="matrix(0.04938271604938272,0,0,0.04938271604938272,9.876543209876544,0)" xlink:href="#w"/><use transform="matrix(0.04938271604938272,0,0,0.04938271604938272,19.75308641975309,0)" xlink:href="#v"/><use transform="matrix(0.04938271604938272,0,0,0.04938271604938272,29.629629629629633,0)" xlink:href="#v"/><use transform="matrix(0.04938271604938272,0,0,0.04938271604938272,39.50617283950618,0)" xlink:href="#v"/><use transform="matrix(0.04938271604938272,0,0,0.04938271604938272,49.38271604938272,0)" xlink:href="#v"/></g><path fill="#333" d="M165-50V0h-47v-50H5v-38l105-160h55v161h33v37h-33zm-47-37l2-116L46-87h72" id="x"/><path fill="#333" d="M139-81c0-46-55-55-73-27H18l9-140h149v37H72l-4 63c44-38 133-4 122 66C201 21 21 35 11-62l49-4c5 18 15 30 39 30 26 0 40-18 40-45" id="y"/><g id="c"><use transform="matrix(0.04938271604938272,0,0,0.04938271604938272,0,0)" xlink:href="#t"/><use transform="matrix(0.04938271604938272,0,0,0.04938271604938272,9.876543209876544,0)" xlink:href="#x"/><use transform="matrix(0.04938271604938272,0,0,0.04938271604938272,19.75308641975309,0)" xlink:href="#y"/><use transform="matrix(0.04938271604938272,0,0,0.04938271604938272,29.629629629629633,0)" xlink:href="#v"/><use transform="matrix(0.04938271604938272,0,0,0.04938271604938272,39.50617283950618,0)" xlink:href="#v"/><use transform="matrix(0.04938271604938272,0,0,0.04938271604938272,49.38271604938272,0)" xlink:href="#v"/></g><path fill="#333" d="M27 0v-27h64v-190l-56 39v-29l58-41h29v221h61V0H27" id="z"/><use transform="matrix(0.049382716049382686,0,0,0.049382716049382686,0,0)" xlink:href="#z" id="d"/><path fill="#333" d="M101-251c82-7 93 87 43 132L82-64C71-53 59-42 53-27h129V0H18c2-99 128-94 128-182 0-28-16-43-45-43s-46 15-49 41l-32-3c6-41 34-60 81-64" id="A"/><use transform="matrix(0.049382716049382706,0,0,0.049382716049382706,0,0)" xlink:href="#A" id="e"/><path fill="#333" d="M126-127c33 6 58 20 58 59 0 88-139 92-164 29-3-8-5-16-6-25l32-3c6 27 21 44 54 44 32 0 52-15 52-46 0-38-36-46-79-43v-28c39 1 72-4 72-42 0-27-17-43-46-43-28 0-47 15-49 41l-32-3c6-42 35-63 81-64 48-1 79 21 79 65 0 36-21 52-52 59" id="B"/><use transform="matrix(0.049382716049382706,0,0,0.049382716049382706,0,0)" xlink:href="#B" id="f"/><path fill="#333" d="M155-56V0h-30v-56H8v-25l114-167h33v167h35v25h-35zm-30-156c-27 46-58 90-88 131h88v-131" id="C"/><use transform="matrix(0.049382716049382706,0,0,0.049382716049382706,0,0)" xlink:href="#C" id="g"/><path fill="#333" d="M54-142c48-35 137-8 131 61C196 18 31 33 14-55l32-4c7 23 22 37 52 37 35-1 51-22 54-58 4-55-73-65-99-34H22l8-134h141v27H59" id="D"/><use transform="matrix(0.049382716049382706,0,0,0.049382716049382706,0,0)" xlink:href="#D" id="h"/><path fill="#333" d="M128-127c34 4 56 21 59 58 7 91-148 94-172 28-4-9-6-17-7-26l51-5c1 24 16 35 40 36 23 0 39-12 38-36-1-31-31-36-65-34v-40c32 2 59-3 59-33 0-20-13-33-34-33s-33 13-35 32l-50-3c6-44 37-68 86-68 50 0 83 20 83 66 0 35-22 52-53 58" id="E"/><g id="i"><use transform="matrix(0.04938271604938272,0,0,0.04938271604938272,0,0)" xlink:href="#t"/><use transform="matrix(0.04938271604938272,0,0,0.04938271604938272,9.876543209876544,0)" xlink:href="#E"/><use transform="matrix(0.04938271604938272,0,0,0.04938271604938272,19.75308641975309,0)" xlink:href="#v"/><use transform="matrix(0.04938271604938272,0,0,0.04938271604938272,29.629629629629633,0)" xlink:href="#v"/><use transform="matrix(0.04938271604938272,0,0,0.04938271604938272,39.50617283950618,0)" xlink:href="#v"/><use transform="matrix(0.04938271604938272,0,0,0.04938271604938272,49.38271604938272,0)" xlink:href="#v"/></g><g id="j"><use transform="matrix(0.04938271604938272,0,0,0.04938271604938272,0,0)" xlink:href="#t"/><use transform="matrix(0.04938271604938272,0,0,0.04938271604938272,9.876543209876544,0)" xlink:href="#y"/><use transform="matrix(0.04938271604938272,0,0,0.04938271604938272,19.75308641975309,0)" xlink:href="#v"/><use transform="matrix(0.04938271604938272,0,0,0.04938271604938272,29.629629629629633,0)" xlink:href="#v"/><use transform="matrix(0.04938271604938272,0,0,0.04938271604938272,39.50617283950618,0)" xlink:href="#v"/><use transform="matrix(0.04938271604938272,0,0,0.04938271604938272,49.38271604938272,0)" xlink:href="#v"/></g><path fill="#333" d="M25-224v-37h50v37H25zM25 0v-190h50V0H25" id="F"/><path fill="#333" d="M15-148v-39h180v39H15zm0 97v-39h180v39H15" id="G"/><path fill="#333" d="M76-54c-1 42 2 86-19 110H24C36 42 46 24 48 0H25v-54h51" id="H"/><path fill="#333" d="M135-194c53 0 70 44 70 98 0 56-19 98-73 100-31 1-45-17-59-34 3 33 2 69 2 105H25l-1-265h48c2 10 0 23 3 31 11-24 29-35 60-35zM114-30c33 0 39-31 40-66 0-38-9-64-40-64-56 0-55 130 0 130" id="I"/><path fill="#333" d="M220-157c-53 9-28 100-34 157h-49v-107c1-27-5-49-29-50C55-147 81-57 75 0H25l-1-190h47c2 12-1 28 3 38 10-53 101-56 108 0 13-22 24-43 59-42 82 1 51 116 57 194h-49v-107c-1-25-5-48-29-50" id="J"/><path fill="#333" d="M128 0H69L1-190h53L99-40l48-150h52" id="K"/><g id="k"><use transform="matrix(0.04938271604938272,0,0,0.04938271604938272,0,0)" xlink:href="#F"/><use transform="matrix(0.04938271604938272,0,0,0.04938271604938272,4.938271604938272,0)" xlink:href="#G"/><use transform="matrix(0.04938271604938272,0,0,0.04938271604938272,15.308641975308642,0)" xlink:href="#v"/><use transform="matrix(0.04938271604938272,0,0,0.04938271604938272,25.18518518518519,0)" xlink:href="#H"/><use transform="matrix(0.04938271604938272,0,0,0.04938271604938272,30.123456790123466,0)" xlink:href="#v"/><use transform="matrix(0.04938271604938272,0,0,0.04938271604938272,40.00000000000001,0)" xlink:href="#E"/><use transform="matrix(0.04938271604938272,0,0,0.04938271604938272,49.87654320987655,0)" xlink:href="#I"/><use transform="matrix(0.04938271604938272,0,0,0.04938271604938272,60.69135802469136,0)" xlink:href="#J"/><use transform="matrix(0.04938271604938272,0,0,0.04938271604938272,76.49382716049384,0)" xlink:href="#K"/></g><path fill="#333" d="M135-194c87-1 58 113 63 194h-50c-7-57 23-157-34-157-59 0-34 97-39 157H25l-1-190h47c2 12-1 28 3 38 12-26 28-41 61-42" id="L"/><path fill="#333" d="M23 0v-37h61v-169l-59 37v-38l62-41h46v211h57V0H23" id="M"/><g id="l"><use transform="matrix(0.04938271604938272,0,0,0.04938271604938272,0,0)" xlink:href="#L"/><use transform="matrix(0.04938271604938272,0,0,0.04938271604938272,10.814814814814815,0)" xlink:href="#M"/><use transform="matrix(0.04938271604938272,0,0,0.04938271604938272,20.69135802469136,0)" xlink:href="#G"/></g><g id="m"><use transform="matrix(0.04938271604938272,0,0,0.04938271604938272,0,0)" xlink:href="#M"/><use transform="matrix(0.04938271604938272,0,0,0.04938271604938272,9.876543209876544,0)" xlink:href="#I"/><use transform="matrix(0.04938271604938272,0,0,0.04938271604938272,20.69135802469136,0)" xlink:href="#J"/><use transform="matrix(0.04938271604938272,0,0,0.04938271604938272,36.49382716049383,0)" xlink:href="#K"/></g><path fill="#333" d="M110-160c48 1 74 30 74 79 0 53-28 85-80 85-65 0-83-55-86-122-5-90 50-162 133-122 14 7 22 21 27 39l-31 6c-5-40-67-38-82-6-9 19-15 44-15 74 11-20 30-34 60-33zm-7 138c34 0 49-23 49-58s-16-56-50-56c-29 0-50 16-49 49 1 36 15 65 50 65" id="N"/><use transform="matrix(0.049382716049382706,0,0,0.049382716049382706,0,0)" xlink:href="#N" id="n"/><path fill="#333" d="M182-182c0 78-84 86-111 141h115V0H12c-6-101 99-100 120-180 1-22-12-31-33-32-23 0-32 14-35 34l-49-3c5-45 32-70 84-70 51 0 83 22 83 69" id="O"/><g id="o"><use transform="matrix(0.04938271604938272,0,0,0.04938271604938272,0,0)" xlink:href="#L"/><use transform="matrix(0.04938271604938272,0,0,0.04938271604938272,10.814814814814815,0)" xlink:href="#O"/><use transform="matrix(0.04938271604938272,0,0,0.04938271604938272,20.69135802469136,0)" xlink:href="#G"/><use transform="matrix(0.04938271604938272,0,0,0.04938271604938272,31.061728395061735,0)" xlink:href="#x"/><use transform="matrix(0.04938271604938272,0,0,0.04938271604938272,40.93827160493828,0)" xlink:href="#I"/><use transform="matrix(0.04938271604938272,0,0,0.04938271604938272,51.75308641975309,0)" xlink:href="#J"/><use transform="matrix(0.04938271604938272,0,0,0.04938271604938272,67.55555555555557,0)" xlink:href="#K"/></g><g id="p"><use transform="matrix(0.04938271604938272,0,0,0.04938271604938272,0,0)" xlink:href="#L"/><use transform="matrix(0.04938271604938272,0,0,0.04938271604938272,10.814814814814815,0)" xlink:href="#E"/><use transform="matrix(0.04938271604938272,0,0,0.04938271604938272,20.69135802469136,0)" xlink:href="#G"/><use transform="matrix(0.04938271604938272,0,0,0.04938271604938272,31.061728395061735,0)" xlink:href="#y"/><use transform="matrix(0.04938271604938272,0,0,0.04938271604938272,40.93827160493828,0)" xlink:href="#I"/><use transform="matrix(0.04938271604938272,0,0,0.04938271604938272,51.75308641975309,0)" xlink:href="#J"/><use transform="matrix(0.04938271604938272,0,0,0.04938271604938272,67.55555555555557,0)" xlink:href="#K"/></g><g id="q"><use transform="matrix(0.04938271604938272,0,0,0.04938271604938272,0,0)" xlink:href="#L"/><use transform="matrix(0.04938271604938272,0,0,0.04938271604938272,10.814814814814815,0)" xlink:href="#x"/><use transform="matrix(0.04938271604938272,0,0,0.04938271604938272,20.69135802469136,0)" xlink:href="#G"/><use transform="matrix(0.04938271604938272,0,0,0.04938271604938272,31.061728395061735,0)" xlink:href="#w"/><use transform="matrix(0.04938271604938272,0,0,0.04938271604938272,40.93827160493828,0)" xlink:href="#I"/><use transform="matrix(0.04938271604938272,0,0,0.04938271604938272,51.75308641975309,0)" xlink:href="#J"/><use transform="matrix(0.04938271604938272,0,0,0.04938271604938272,67.55555555555557,0)" xlink:href="#K"/></g><path fill="#333" d="M115-194c55 1 70 41 70 98S169 2 115 4C84 4 66-9 55-30l1 105H24l-1-265h31l2 30c10-21 28-34 59-34zm-8 174c40 0 45-34 45-75s-6-73-45-74c-42 0-51 32-51 76 0 43 10 73 51 73" id="P"/><path fill="#333" d="M210-169c-67 3-38 105-44 169h-31v-121c0-29-5-50-35-48C34-165 62-65 56 0H25l-1-190h30c1 10-1 24 2 32 10-44 99-50 107 0 11-21 27-35 58-36 85-2 47 119 55 194h-31v-121c0-29-5-49-35-48" id="Q"/><path fill="#333" d="M108 0H70L1-190h34L89-25l56-165h34" id="R"/><g id="r"><use transform="matrix(0.049382716049382706,0,0,0.049382716049382706,0,0)" xlink:href="#P"/><use transform="matrix(0.049382716049382706,0,0,0.049382716049382706,9.87654320987654,0)" xlink:href="#Q"/><use transform="matrix(0.049382716049382706,0,0,0.049382716049382706,24.641975308641968,0)" xlink:href="#R"/></g><path fill="#333" d="M121-226c-27-7-43 5-38 36h38v33H83V0H34v-157H6v-33h28c-9-59 32-81 87-68v32" id="S"/><g id="s"><use transform="matrix(0.04938271604938272,0,0,0.04938271604938272,0,0)" xlink:href="#S"/><use transform="matrix(0.04938271604938272,0,0,0.04938271604938272,5.8765432098765435,0)" xlink:href="#S"/></g></defs></g></svg>