<?xml version="1.0" encoding="UTF-8" standalone="no"?>
<svg
   width="1032.35"
   height="638.25"
   version="1.1"
   id="svg29862"
   sodipodi:docname="Capitulo4Ejercicio3.svg"
   inkscape:version="1.2.2 (732a01da63, 2022-12-09)"
   xmlns:inkscape="http://www.inkscape.org/namespaces/inkscape"
   xmlns:sodipodi="http://sodipodi.sourceforge.net/DTD/sodipodi-0.dtd"
   xmlns:xlink="http://www.w3.org/1999/xlink"
   xmlns="http://www.w3.org/2000/svg"
   xmlns:svg="http://www.w3.org/2000/svg"
   xmlns:lucid="lucid">
  <defs
     id="defs29866" />
  <sodipodi:namedview
     id="namedview29864"
     pagecolor="#ffffff"
     bordercolor="#000000"
     borderopacity="0.25"
     inkscape:showpageshadow="2"
     inkscape:pageopacity="0.0"
     inkscape:pagecheckerboard="0"
     inkscape:deskcolor="#d1d1d1"
     showgrid="false"
     inkscape:zoom="1.1720831"
     inkscape:cx="492.28591"
     inkscape:cy="315.67728"
     inkscape:window-width="1920"
     inkscape:window-height="1009"
     inkscape:window-x="-8"
     inkscape:window-y="-8"
     inkscape:window-maximized="1"
     inkscape:current-layer="svg29862" />
  <g
     transform="translate(-80 -80)"
     lucid:page-tab-id="0_0"
     id="g29860">
    <path
       d="M0 0h1870.4v1323.2H0z"
       fill="#fff"
       id="path29299" />
    <path
       d="M248.68 492.66c0-3.3 2.7-6 6-6h72.43c3.32 0 6 2.7 6 6v10.45c0 3.32-2.68 6-6 6H254.7c-3.3 0-6-2.68-6-6z"
       fill="none"
       id="path29301" />
    <use
       xlink:href="#a"
       transform="matrix(1,0,0,1,248.68415494429286,486.66180746019535) translate(0.7222222222222214 17.06666666666667)"
       id="use29303" />
    <use
       xlink:href="#c"
       transform="matrix(1,0,0,1,248.68415494429286,486.66180746019535) translate(42.5 42.66666666666667)"
       id="use29307" />
    <path
       d="M947.65 106c0-3.3 2.7-6 6-6H1014c3.3 0 6 2.7 6 6v28c0 3.3-2.7 6-6 6h-60.35c-3.3 0-6-2.7-6-6z"
       fill="none"
       id="path29309" />
    <path
       d="M100 306c0-3.3 2.7-6 6-6h88c3.3 0 6 2.7 6 6v28c0 3.3-2.7 6-6 6h-88c-3.3 0-6-2.7-6-6z"
       fill="none"
       id="path29313" />
    <use
       xlink:href="#e"
       transform="matrix(1,0,0,1,100,300) translate(21.90123456790125 23.555555555555554)"
       id="use29315" />
    <use
       xlink:href="#f"
       transform="matrix(1,0,0,1,100,300) translate(52.46913580246914 23.555555555555554)"
       id="use29317" />
    <path
       d="M1020 286c0-3.3 2.7-6 6-6h25.35c3.32 0 6 2.7 6 6v14.1c0 3.3-2.68 6-6 6H1026c-3.3 0-6-2.7-6-6z"
       fill="none"
       id="path29319" />
    <use
       xlink:href="#g"
       transform="matrix(1,0,0,1,1020,280) translate(2.2345679012345734 17.055555555555557)"
       id="use29321" />
    <path
       d="M344.82 326c0-3.3 2.68-6 6-6h25.47c3.3 0 6 2.7 6 6v48c0 3.3-2.7 6-6 6H350.8c-3.32 0-6-2.7-6-6z"
       fill="none"
       id="path29323" />
    <use
       xlink:href="#h"
       transform="matrix(1,0,0,1,344.8158450557071,320) translate(9.74074074074074 34.44444444444444)"
       id="use29325" />
    <path
       d="M517.66 261.85c0-3.3 2.68-6 6-6h108c3.3 0 6 2.7 6 6V274c0 3.3-2.7 6-6 6h-108c-3.32 0-6-2.7-6-6z"
       fill="none"
       id="path29327" />
    <use
       xlink:href="#i"
       transform="matrix(1,0,0,1,517.6573944986355,255.8548040282751) translate(10.91358024691359 16.055555555555557)"
       id="use29329" />
    <use
       xlink:href="#j"
       transform="matrix(1,0,0,1,517.6573944986355,255.8548040282751) translate(65.67901234567901 16.055555555555557)"
       id="use29331" />
    <path
       d="M1000 535.78c0-3.3 2.7-6 6-6h25.47c3.32 0 6 2.7 6 6v10.45c0 3.3-2.68 6-6 6H1006c-3.3 0-6-2.7-6-6z"
       fill="none"
       id="path29333" />
    <path
       d="M101 300h918M101.03 300H100M1018.97 300h1.03"
       stroke="#5e5e5e"
       stroke-width="2"
       fill="none"
       id="path29337" />
    <path
       d="M1021 519c0 .55-.45 1-1 1s-1-.45-1-1 .45-1 1-1 1 .45 1 1zm0-7.96c0 .55-.45 1-1 1s-1-.45-1-1 .45-1 1-1 1 .45 1 1zm0-7.96c0 .55-.45 1-1 1s-1-.45-1-1 .45-1 1-1 1 .45 1 1zm0-7.96c0 .55-.45 1-1 1s-1-.45-1-1 .45-1 1-1 1 .45 1 1zm0-7.96c0 .55-.45 1-1 1s-1-.45-1-1 .45-1 1-1 1 .45 1 1zm0-7.96c0 .55-.45 1-1 1s-1-.45-1-1 .45-1 1-1 1 .45 1 1zm0-7.96c0 .55-.45 1-1 1s-1-.45-1-1 .45-1 1-1 1 .45 1 1zm0-7.96c0 .55-.45 1-1 1s-1-.45-1-1 .45-1 1-1 1 .45 1 1zm0-7.96c0 .55-.45 1-1 1s-1-.45-1-1 .45-1 1-1 1 .45 1 1zm0-7.96c0 .55-.45 1-1 1s-1-.45-1-1 .45-1 1-1 1 .45 1 1zm0-7.96c0 .55-.45 1-1 1s-1-.45-1-1 .45-1 1-1 1 .45 1 1zm0-7.96c0 .55-.45 1-1 1s-1-.45-1-1 .45-1 1-1 1 .45 1 1zm0-7.96c0 .55-.45 1-1 1s-1-.45-1-1 .45-1 1-1 1 .45 1 1zm0-7.96c0 .55-.45 1-1 1s-1-.45-1-1 .45-1 1-1 1 .45 1 1zm0-7.96c0 .55-.45 1-1 1s-1-.45-1-1 .45-1 1-1 1 .45 1 1zm0-7.96c0 .55-.45 1-1 1s-1-.45-1-1 .45-1 1-1 1 .45 1 1zm0-7.96c0 .55-.45 1-1 1s-1-.45-1-1 .45-1 1-1 1 .45 1 1zm0-7.96c0 .55-.45 1-1 1s-1-.45-1-1 .45-1 1-1 1 .45 1 1zm0-7.96c0 .55-.45 1-1 1s-1-.45-1-1 .45-1 1-1 1 .45 1 1zm0-7.96c0 .55-.45 1-1 1s-1-.45-1-1 .45-1 1-1 1 .45 1 1zm0-7.96c0 .55-.45 1-1 1s-1-.45-1-1 .45-1 1-1 1 .45 1 1zm0-7.96c0 .55-.45 1-1 1s-1-.45-1-1 .45-1 1-1 1 .45 1 1zm0-7.96c0 .55-.45 1-1 1s-1-.45-1-1 .45-1 1-1 1 .45 1 1zm0-7.96c0 .55-.45 1-1 1s-1-.45-1-1 .45-1 1-1 1 .45 1 1zm0-7.96c0 .55-.45 1-1 1s-1-.45-1-1 .45-1 1-1 1 .45 1 1zm0-7.96c0 .55-.45 1-1 1s-1-.45-1-1 .45-1 1-1 1 .45 1 1zm0-7.96c0 .55-.45 1-1 1s-1-.45-1-1 .45-1 1-1 1 .45 1 1zm0-7.96c0 .55-.45 1-1 1s-1-.45-1-1 .45-1 1-1 1 .45 1 1zm0-7.96c0 .55-.45 1-1 1s-1-.45-1-1 .45-1 1-1 1 .45 1 1zm0-7.96c0 .55-.45 1-1 1s-1-.45-1-1 .45-1 1-1 1 .45 1 1zm0-7.96c0 .55-.45 1-1 1s-1-.45-1-1 .45-1 1-1 1 .45 1 1zm0-7.96c0 .55-.45 1-1 1s-1-.45-1-1 .45-1 1-1 1 .45 1 1zm0-7.96c0 .55-.45 1-1 1s-1-.45-1-1 .45-1 1-1 1 .45 1 1zm0-7.96c0 .55-.45 1-1 1s-1-.45-1-1 .45-1 1-1 1 .45 1 1zm0-7.96c0 .55-.45 1-1 1s-1-.45-1-1 .45-1 1-1 1 .45 1 1zm0-7.96c0 .55-.45 1-1 1s-1-.45-1-1 .45-1 1-1 1 .45 1 1zm0-7.96c0 .55-.45 1-1 1s-1-.45-1-1 .45-1 1-1 1 .45 1 1zm0-7.96c0 .55-.45 1-1 1s-1-.45-1-1 .45-1 1-1 1 .45 1 1zm0-7.96c0 .55-.45 1-1 1s-1-.45-1-1 .45-1 1-1 1 .45 1 1zm0-7.96c0 .55-.45 1-1 1s-1-.45-1-1 .45-1 1-1 1 .45 1 1zm0-7.96c0 .55-.45 1-1 1s-1-.45-1-1 .45-1 1-1 1 .45 1 1zm0-7.96c0 .55-.45 1-1 1s-1-.45-1-1 .45-1 1-1 1 .45 1 1zm0-7.96c0 .55-.45 1-1 1s-1-.45-1-1 .45-1 1-1 1 .45 1 1zm0-7.96c0 .55-.45 1-1 1s-1-.45-1-1 .45-1 1-1 1 .45 1 1zm0-7.96c0 .55-.45 1-1 1s-1-.45-1-1 .45-1 1-1 1 .45 1 1zm0-7.96c0 .55-.45 1-1 1s-1-.45-1-1 .45-1 1-1 1 .45 1 1zm0-7.96c0 .55-.45 1-1 1s-1-.45-1-1 .45-1 1-1 1 .45 1 1zm0-7.96c0 .55-.45 1-1 1s-1-.45-1-1 .45-1 1-1 1 .45 1 1zm0-7.96c0 .55-.45 1-1 1s-1-.45-1-1 .45-1 1-1 1 .45 1 1zm0-7.96c0 .55-.45 1-1 1s-1-.45-1-1 .45-1 1-1 1 .45 1 1zm0-7.96c0 .55-.45 1-1 1s-1-.45-1-1 .45-1 1-1 1 .45 1 1z"
       fill="#5e5e5e"
       id="path29339" />
    <path
       d="M1020 518.97V520M1020 121.03V120"
       stroke="#5e5e5e"
       stroke-width="2"
       fill="none"
       id="path29341" />
    <path
       d="M227.1 306c0-3.3 2.7-6 6-6h88c3.32 0 6 2.7 6 6v28c0 3.3-2.68 6-6 6h-88c-3.3 0-6-2.7-6-6z"
       fill="none"
       id="path29343" />
    <use
       xlink:href="#l"
       transform="matrix(1,0,0,1,227.10492966575708,300) translate(21.90123456790125 23.555555555555554)"
       id="use29345" />
    <use
       xlink:href="#f"
       transform="matrix(1,0,0,1,227.10492966575708,300) translate(52.46913580246914 23.555555555555554)"
       id="use29347" />
    <path
       d="M400 306c0-3.3 2.7-6 6-6h88c3.3 0 6 2.7 6 6v28c0 3.3-2.7 6-6 6h-88c-3.3 0-6-2.7-6-6z"
       fill="none"
       id="path29349" />
    <use
       xlink:href="#m"
       transform="matrix(1,0,0,1,399.99999999999994,300) translate(24.37037037037038 23.555555555555554)"
       id="use29351" />
    <path
       d="M537.66 306c0-3.3 2.68-6 6-6h88c3.3 0 6 2.7 6 6v28c0 3.3-2.7 6-6 6h-88c-3.32 0-6-2.7-6-6z"
       fill="none"
       id="path29353" />
    <use
       xlink:href="#n"
       transform="matrix(1,0,0,1,537.6573944986355,300) translate(19.432098765432116 23.555555555555554)"
       id="use29355" />
    <path
       d="M740 306c0-3.3 2.7-6 6-6h88c3.3 0 6 2.7 6 6v34.1c0 3.3-2.7 6-6 6h-88c-3.3 0-6-2.7-6-6z"
       fill="none"
       id="path29357" />
    <use
       xlink:href="#o"
       transform="matrix(1,0,0,1,740,300) translate(24.37037037037038 27.055555555555554)"
       id="use29359" />
    <path
       d="M200 281v40.48M200 281.03V280"
       stroke="#5e5e5e"
       stroke-width="2"
       fill="none"
       id="path29361" />
    <path
       d="M200 325.48h-1v-4.02h1z"
       fill="#5e5e5e"
       id="path29363" />
    <path
       d="M1020 326c0-3.3 2.7-6 6-6h60.35c3.3 0 6 2.7 6 6v8c0 3.3-2.7 6-6 6H1026c-3.3 0-6-2.7-6-6z"
       fill="none"
       id="path29365" />
    <use
       xlink:href="#p"
       transform="matrix(1,0,0,1,1020,320) translate(5.932098765432116 14.222222222222218)"
       id="use29367" />
    <path
       d="M275.62 341v31.15"
       stroke="#5e5e5e"
       stroke-width="2"
       fill="none"
       id="path29369"
       style="stroke:#ff1a1a;stroke-opacity:1;fill:#ff1a1a;fill-opacity:1" />
    <path
       d="M276.62 341.03h-2V340h2z"
       fill="#5e5e5e"
       id="path29371"
       style="stroke:#ff1717;stroke-opacity:1;fill:#ff1717;fill-opacity:1" />
    <path
       d="M275.62 387.42L271 373.15h9.26z"
       stroke="#5e5e5e"
       stroke-width="2"
       fill="#5e5e5e"
       id="path29373"
       style="fill:#ff1a1a;fill-opacity:1;stroke:#ff1717;stroke-opacity:1" />
    <path
       d="M665.26 326c0-3.3 2.7-6 6-6h25.48c3.3 0 6 2.7 6 6v48c0 3.3-2.7 6-6 6h-25.48c-3.3 0-6-2.7-6-6z"
       fill="none"
       id="path29375" />
    <use
       xlink:href="#h"
       transform="matrix(1,0,0,1,665.2623241643928,320) translate(9.74074074074074 34.44444444444444)"
       id="use29377" />
    <path
       d="M900 326c0-3.3 2.7-6 6-6h25.47c3.32 0 6 2.7 6 6v48c0 3.3-2.68 6-6 6H906c-3.3 0-6-2.7-6-6z"
       fill="none"
       id="path29379" />
    <use
       xlink:href="#h"
       transform="matrix(1,0,0,1,900,320) translate(9.74074074074074 34.44444444444444)"
       id="use29381" />
    <path
       d="M461.33 299v-53c0-3.3 2.7-6 6-6h512.42c.14 0 .25-.1.25-.25 0-.14.1-.25.25-.25H1019"
       stroke="#f9dc04"
       stroke-width="2"
       fill="none"
       id="path29383"
       style="stroke:#cca500;stroke-opacity:1" />
    <path
       d="M462.33 300h-2v-1.03h2z"
       fill="#f9dc04"
       id="path29385" />
    <path
       d="M1018.97 239.5h1.03M684.8 239v-33.82M684.8 238.97V240"
       stroke="#f9dc04"
       stroke-width="2"
       fill="none"
       id="path29387"
       style="stroke:#cca500;stroke-opacity:1" />
    <path
       d="M685.8 205.2h-2v-1.02h2z"
       fill="#f9dc04"
       id="path29389" />
    <path
       d="M141 390.65h318M141.03 390.65H140M458.97 390.65H460"
       stroke="#f9dc04"
       stroke-width="2"
       fill="none"
       id="path29391"
       style="stroke:#cca500;stroke-opacity:1" />
    <path
       d="M233.1 520.43c0-3.3 2.7-6 6-6h88c3.32 0 6 2.7 6 6v10.45c0 3.3-2.68 6-6 6h-88c-3.3 0-6-2.7-6-6z"
       fill="none"
       id="path29393" />
    <use
       xlink:href="#a"
       transform="matrix(1,0,0,1,233.10598572419298,514.4313880402258) translate(5.8814814814814795 17.06666666666667)"
       id="use29395" />
    <use
       xlink:href="#q"
       transform="matrix(1,0,0,1,233.10598572419298,514.4313880402258) translate(11.807407407407407 17.06666666666667)"
       id="use29397"
       style="stroke:#cca400;stroke-opacity:1;fill:#cca400;fill-opacity:1" />
    <use
       xlink:href="#r"
       transform="matrix(1,0,0,1,233.10598572419298,514.4313880402258) translate(53.88148148148148 17.06666666666667)"
       id="use29399"
       style="stroke:#cca400;stroke-opacity:1" />
    <use
       xlink:href="#c"
       transform="matrix(1,0,0,1,233.10598572419298,514.4313880402258) translate(50 42.66666666666667)"
       id="use29401" />
    <path
       d="M221.6 548.2c0-3.3 2.7-6 6-6h131.8c3.3 0 6 2.7 6 6v11.12c0 3.3-2.7 6-6 6H227.6c-3.3 0-6-2.7-6-6z"
       fill="none"
       id="path29403" />
    <path
       d="M241.9 504.9c0-2.34 1.88-4.23 4.22-4.23h9.03c2.33 0 4.22 1.9 4.22 4.22s-1.9 4.2-4.22 4.2h-9.03c-2.34 0-4.22-1.88-4.22-4.2z"
       fill="none"
       id="path29411" />
    <path
       d="M233.1 532.66c0-2.33 1.9-4.22 4.23-4.22h9.03c2.33 0 4.22 1.9 4.22 4.22 0 2.33-1.9 4.22-4.22 4.22h-9.03c-2.33 0-4.22-1.9-4.22-4.22z"
       fill="none"
       id="path29415" />
    <use
       xlink:href="#v"
       transform="matrix(1,0,0,1,233.105985724193,528.4401937240511) translate(4.308641975308642 13.511111111111113)"
       id="use29417" />
    <path
       d="M222.16 517.22c0-2.5 2.02-4.52 4.52-4.52h9.7c2.5 0 4.52 2.02 4.52 4.52 0 2.5-2.03 4.5-4.52 4.5h-9.7c-2.5 0-4.52-2-4.52-4.5z"
       fill="none"
       id="path29419" />
    <use
       xlink:href="#w"
       transform="matrix(1,0,0,1,222.1584505570715,512.6973257563837) translate(3.5740740740740735 17.06666666666667)"
       id="use29421" />
    <path
       d="M220 490.2c0-2.32 1.9-4.2 4.22-4.2h21.24c2.33 0 4.22 1.88 4.22 4.2 0 2.34-1.9 4.23-4.22 4.23h-21.24c-2.33 0-4.22-1.9-4.22-4.22z"
       fill="none"
       id="path29423" />
    <path
       d="M584.38 341v80.5"
       stroke="#7ab648"
       stroke-width="2"
       fill="none"
       id="path29427"
       style="stroke:#ff1a1a;stroke-opacity:1;fill:#ff1a1a;fill-opacity:1" />
    <path
       d="M585.38 341.03h-2V340h2z"
       fill="#7ab648"
       id="path29429"
       style="fill:#ff1a1a;fill-opacity:1;stroke:#ff1a1a;stroke-opacity:1" />
    <path
       d="M584.38 436.76l-4.64-14.26H589z"
       stroke="#7ab648"
       stroke-width="2"
       fill="#7ab648"
       id="path29431"
       style="stroke:#ff1a1a;stroke-opacity:1;fill:#ff1a1a;fill-opacity:1" />
    <path
       d="M460 457.84v23c0 3.3 2.7 6 6 6h308c3.3 0 6-2.7 6-6v-23M460 457.86v-1.02M780 457.86v-1.02M800 401v35.13c0 3.3 2.7 6 6 6h188c3.3 0 6-2.7 6-6V401M800 401.03V400M1000 401.03V400M610.27 487.84v28M610.27 487.86v-1.02M610.27 515.8v1.04"
       stroke="#7ab648"
       stroke-width="2"
       fill="none"
       id="path29433" />
    <path
       d="M657.47 187.73c0-3.3 2.7-6 6-6h88c3.32 0 6 2.7 6 6v10.45c0 3.32-2.68 6-6 6h-88c-3.3 0-6-2.68-6-6z"
       fill="none"
       id="path29435" />
    <use
       xlink:href="#a"
       transform="matrix(1,0,0,1,657.4732395543429,181.73406228384198) translate(5.8814814814814795 17.06666666666667)"
       id="use29437" />
    <use
       xlink:href="#y"
       transform="matrix(1,0,0,1,657.4732395543429,181.73406228384198) translate(11.807407407407407 17.06666666666667)"
       id="use29439" />
    <use
       xlink:href="#r"
       transform="matrix(1,0,0,1,657.4732395543429,181.73406228384198) translate(53.88148148148148 17.06666666666667)"
       id="use29441" />
    <use
       xlink:href="#c"
       transform="matrix(1,0,0,1,657.4732395543429,181.73406228384198) translate(50 42.66666666666667)"
       id="use29443" />
    <path
       d="M657.47 199.96c0-2.33 1.9-4.22 4.22-4.22h9.03c2.33 0 4.22 1.9 4.22 4.22 0 2.33-1.9 4.22-4.22 4.22h-9.04c-2.34 0-4.23-1.9-4.23-4.22z"
       fill="none"
       id="path29445" />
    <use
       xlink:href="#z"
       transform="matrix(1,0,0,1,657.4732395543429,195.74286796766734) translate(4.308641975308642 13.511111111111113)"
       id="use29447" />
    <path
       d="M646.53 184.52c0-2.5 2.02-4.52 4.5-4.52h9.7c2.5 0 4.53 2.02 4.53 4.52 0 2.5-2.02 4.52-4.52 4.52h-9.7c-2.5 0-4.5-2.03-4.5-4.52z"
       fill="none"
       id="path29449" />
    <use
       xlink:href="#w"
       transform="matrix(1,0,0,1,646.5257043872214,180) translate(3.5740740740740735 17.06666666666667)"
       id="use29451" />
    <path
       d="M870.95 477.98c0-3.3 2.68-6 6-6h88c3.3 0 6 2.7 6 6v10.45c0 3.32-2.7 6-6 6h-88c-3.32 0-6-2.68-6-6z"
       fill="none"
       id="path29453" />
    <use
       xlink:href="#A"
       transform="matrix(1,0,0,1,870.9475351671215,471.9823886323492) translate(11.807407407407403 17.06666666666667)"
       id="use29455" />
    <use
       xlink:href="#B"
       transform="matrix(1,0,0,1,870.9475351671215,471.9823886323492) translate(17.73333333333333 17.06666666666667)"
       id="use29457" />
    <use
       xlink:href="#C"
       transform="matrix(1,0,0,1,870.9475351671215,471.9823886323492) translate(47.955555555555556 17.06666666666667)"
       id="use29459" />
    <use
       xlink:href="#D"
       transform="matrix(1,0,0,1,870.9475351671215,471.9823886323492) translate(50 42.66666666666667)"
       id="use29461" />
    <path
       d="M870.95 490.2c0-2.32 1.9-4.2 4.22-4.2h9.03c2.33 0 4.22 1.88 4.22 4.2 0 2.34-1.9 4.23-4.22 4.23h-9.03c-2.33 0-4.22-1.9-4.22-4.22z"
       fill="none"
       id="path29463" />
    <use
       xlink:href="#E"
       transform="matrix(1,0,0,1,870.9475351671215,485.9911943161746) translate(4.308641975308642 13.511111111111113)"
       id="use29465" />
    <path
       d="M860 474.77c0-2.5 2.02-4.52 4.52-4.52h9.7c2.5 0 4.52 2.02 4.52 4.52 0 2.5-2.03 4.52-4.52 4.52h-9.7c-2.5 0-4.52-2.04-4.52-4.53z"
       fill="none"
       id="path29467" />
    <use
       xlink:href="#F"
       transform="matrix(1,0,0,1,860,470.24832634850725) translate(3.5740740740740735 17.06666666666667)"
       id="use29469" />
    <path
       d="M579.8 533.68c0-3.3 2.67-6 6-6h88c3.3 0 6 2.7 6 6v10.45c0 3.3-2.7 6-6 6h-88c-3.33 0-6-2.7-6-6z"
       fill="none"
       id="path29471" />
    <use
       xlink:href="#A"
       transform="matrix(1,0,0,1,579.7885565808319,527.6809326200027) translate(5.8814814814814795 17.06666666666667)"
       id="use29473" />
    <use
       xlink:href="#G"
       transform="matrix(1,0,0,1,579.7885565808319,527.6809326200027) translate(11.807407407407407 17.06666666666667)"
       id="use29475" />
    <use
       xlink:href="#C"
       transform="matrix(1,0,0,1,579.7885565808319,527.6809326200027) translate(53.88148148148148 17.06666666666667)"
       id="use29477" />
    <use
       xlink:href="#D"
       transform="matrix(1,0,0,1,579.7885565808319,527.6809326200027) translate(50 42.66666666666667)"
       id="use29479" />
    <path
       d="M579.8 545.9c0-2.32 1.88-4.2 4.2-4.2h9.04c2.33 0 4.22 1.88 4.22 4.2 0 2.34-1.9 4.23-4.22 4.23H584c-2.32 0-4.2-1.9-4.2-4.22z"
       fill="none"
       id="path29481" />
    <use
       xlink:href="#H"
       transform="matrix(1,0,0,1,579.7885565808319,541.6897383038281) translate(4.308641975308642 13.511111111111113)"
       id="use29483" />
    <path
       d="M568.84 530.47c0-2.5 2.02-4.52 4.52-4.52h9.7c2.5 0 4.52 2.02 4.52 4.52 0 2.5-2.03 4.5-4.52 4.5h-9.7c-2.5 0-4.52-2-4.52-4.5z"
       fill="none"
       id="path29485" />
    <use
       xlink:href="#F"
       transform="matrix(1,0,0,1,568.8410214137106,525.9468703361608) translate(3.5740740740740735 17.06666666666667)"
       id="use29487" />
    <path
       d="M558.95 576.84c0-3.3 2.68-6 6-6h131.8c3.3 0 6 2.7 6 6v11.12c0 3.32-2.7 6-6 6h-131.8c-3.32 0-6-2.68-6-6z"
       fill="none"
       id="path29489" />
    <path
       d="M580.84 462.84c0-3.32 2.7-6 6-6h72.42c3.32 0 6 2.68 6 6v10.45c0 3.3-2.68 6-6 6h-72.42c-3.3 0-6-2.7-6-6z"
       fill="none"
       id="path29497" />
    <use
       xlink:href="#A"
       transform="matrix(1,0,0,1,580.8404933844927,456.8360634680887) translate(0.7222222222222214 17.06666666666667)"
       id="use29499" />
    <use
       xlink:href="#D"
       transform="matrix(1,0,0,1,580.8404933844927,456.8360634680887) translate(42.5 42.66666666666667)"
       id="use29503" />
    <path
       d="M574.05 475.06c0-2.33 1.9-4.22 4.22-4.22h9.03c2.34 0 4.22 1.9 4.22 4.22 0 2.34-1.88 4.23-4.22 4.23h-9.03c-2.33 0-4.22-1.9-4.22-4.24z"
       fill="none"
       id="path29505" />
    <path
       d="M552.16 460.4c0-2.35 1.9-4.23 4.22-4.23h21.24c2.33 0 4.22 1.88 4.22 4.22 0 2.32-1.9 4.2-4.22 4.2h-21.24c-2.33 0-4.22-1.88-4.22-4.2z"
       fill="none"
       id="path29509" />
    <path
       d="M780.67 347.1v45.6c0 .2-.15.35-.34.35-.18 0-.33.14-.33.33v28.12"
       stroke="#7ab648"
       stroke-width="2"
       fill="none"
       id="path29513"
       style="fill:#ff1a1a;fill-opacity:1;stroke:#ff1a1a;stroke-opacity:1" />
    <path
       d="M781.67 347.12h-2v-1.03h2z"
       fill="#7ab648"
       id="path29515" />
    <path
       d="M780 436.76l-4.64-14.26h9.28z"
       stroke="#7ab648"
       stroke-width="2"
       fill="#7ab648"
       id="path29517"
       style="stroke:#ff1a1a;stroke-opacity:1;fill:#ff1a1a;fill-opacity:1" />
    <path
       d="M461 440h318M461.03 440H460M778.97 440H780M900.9 470.98v-27.85"
       stroke="#7ab648"
       stroke-width="2"
       fill="none"
       id="path29519" />
    <path
       d="M901.9 471.98h-2v-1.02h2z"
       fill="#7ab648"
       id="path29521" />
    <path
       d="M900.9 443.15v-1.02"
       stroke="#7ab648"
       stroke-width="2"
       fill="none"
       id="path29523" />
    <path
       d="M140.23 480.98l.7 2.9m.92 3.9l1.4 5.84m.9 3.9l.9 3.68.6 2.13m1.07 3.85l1.64 5.77m1.08 3.85l.5 1.73 1.3 4m1.25 3.8l1.86 5.7m1.35 3.75l2.12 5.62m1.4 3.74l.57 1.5 1.7 4.05m1.57 3.67l1.76 4.15.64 1.35m1.72 3.6l2.56 5.43m1.84 3.55l2.8 5.3m1.95 3.5l3.02 5.2m2.06 3.4l3.24 5.06m2.2 3.35l3.44 4.92m2.35 3.24l3.64 4.77m2.48 3.13l3.84 4.6m2.64 3.02l4.03 4.44m2.78 2.87l4.15 4.2.06.07m2.92 2.73l3.67 3.42.74.64m3.03 2.6l3.16 2.7 1.45 1.13m3.14 2.47l2.64 2.08 2.14 1.55m3.25 2.33l2.2 1.58 2.74 1.82m3.33 2.2l1.86 1.22 3.23 1.95m3.42 2.06l1.72 1 3.5 1.93m3.52 1.9l1.82 1 3.52 1.74m3.6 1.76l2.28 1.13 3.15 1.4m3.66 1.6l3.2 1.4 2.33.92m3.73 1.46l4.63 1.82.96.33m3.77 1.3l5.67 1.94m3.82 1.2l5.75 1.7m3.84 1.14l.12.04 5.7 1.44m3.88.98l3.9.98 1.93.4m3.92.82l5.86 1.22m3.92.78l5.92.98m3.95.65l5.32.88.6.07m3.97.5l5.95.73m3.96.5l2.25.27 3.73.3m4 .33l5.97.5m3.98.32l5.98.5m4 .23l6 .24m4 .16l5.98.24m4 .16l6 .24m4 .1h6m4 0l6-.02m4 0l6-.02m4 0l5.62-.02h.36m4-.2l6-.25m4-.17l5.98-.26m4-.18l6-.26m4-.17l5.98-.27m4-.24l5.97-.52m4-.35l5.96-.5m4-.35l5.98-.5m3.98-.35l5.98-.5m3.98-.35l5.98-.5m3.97-.5l5.95-.76m3.97-.5l5.94-.77m3.97-.5l5.96-.77m3.97-.5l5.95-.76m3.96-.5l5.96-.77m3.95-.6l5.9-1.02m3.95-.67l5.92-1m3.94-.68l5.92-1m3.94-.68l5.9-1m3.95-.68l5.92-1m3.93-.7l5.86-1.25m3.9-.84l5.87-1.25m3.9-.84l5.88-1.25m3.9-.85l5.88-1.25m3.9-.84l5.88-1.25m3.92-.83l5.8-1.5m3.88-1l5.8-1.5m3.88-1l5.8-1.5m3.9-.98l5.8-1.5m3.87-1l5.8-1.5m3.85-1.12l5.74-1.74m3.83-1.16l5.74-1.74m3.84-1.16l5.74-1.74m3.83-1.16l5.75-1.74m3.83-1.16l5.66-1.98m3.78-1.3l5.66-2m3.78-1.3l5.66-2m3.78-1.3l5.66-1.98m3.75-1.4l5.6-2.2m3.7-1.48l5.58-2.2m3.72-1.5l5.57-2.2m3.72-1.47l1.9-.77 3.6-1.6m3.66-1.63l5.48-2.44m3.65-1.63l5.47-2.45m3.65-1.63l1.7-.75 3.7-1.85m3.6-1.78l5.36-2.67m3.58-1.78l5.37-2.68m3.54-1.85l5.26-2.9m3.5-1.93l5.26-2.9m3.5-1.92l1.05-.58 4.1-2.5m3.4-2.06l5.14-3.12m3.4-2.07l1.46-.9 3.6-2.38m3.3-2.2l5-3.34m3.34-2.2l4.85-3.54m3.23-2.36l2.43-1.76M140.24 481l-.24-1"
       stroke="#ffd900"
       stroke-width="2"
       fill="none"
       id="path29525"
       style="fill:#2619ff;fill-opacity:1;stroke:#341aff;stroke-opacity:1" />
    <path
       d="M1000.42 553.4l-8.37 12.45-5.72-7.3z"
       stroke="#ffd900"
       stroke-width="2"
       fill="#ffd900"
       id="path29527"
       style="stroke:#3a1aff;stroke-opacity:1;fill:#401aff;fill-opacity:1" />
    <path
       d="M142.17 341v31.15"
       stroke="#5e5e5e"
       stroke-width="2"
       fill="none"
       id="path29529"
       style="fill:#ff1a1a;fill-opacity:1;stroke:#ff1a1a;stroke-opacity:1" />
    <path
       d="M143.17 341.03h-2V340h2z"
       fill="#5e5e5e"
       id="path29531"
       style="stroke:#ff1919;stroke-opacity:1;fill:#ff1a1a;fill-opacity:1" />
    <path
       d="M142.17 387.42l-4.64-14.27h9.28z"
       stroke="#5e5e5e"
       stroke-width="2"
       fill="#5e5e5e"
       id="path29533"
       style="fill:#ff1919;fill-opacity:1;stroke:#ff1919;stroke-opacity:1" />
    <path
       d="M460 341v80.5"
       stroke="#7ab648"
       stroke-width="2"
       fill="none"
       id="path29535"
       style="fill:#ff1a1a;fill-opacity:1;stroke:#ff1a1a;stroke-opacity:1" />
    <path
       d="M461 341.03h-2V340h2z"
       fill="#7ab648"
       id="path29537" />
    <path
       d="M460 436.76l-4.64-14.26h9.28z"
       stroke="#7ab648"
       stroke-width="2"
       fill="#7ab648"
       id="path29539"
       style="stroke:#ff1a1a;stroke-opacity:1;fill:#ff1a1a;fill-opacity:1" />
    <path
       d="M460 341v29.27"
       stroke="#5e5e5e"
       stroke-width="2"
       fill="none"
       id="path29541"
       style="stroke:#ff1a1a;stroke-opacity:1;fill:#ff1c1c;fill-opacity:1" />
    <path
       d="M461 341.03h-2V340h2z"
       fill="#5e5e5e"
       id="path29543"
       style="fill:#ff1717;fill-opacity:1;stroke:#ff1a39;stroke-opacity:1" />
    <path
       d="M460 385.54l-4.64-14.27h9.28z"
       stroke="#5e5e5e"
       stroke-width="2"
       fill="#5e5e5e"
       id="path29545"
       style="fill:#ff1a1a;fill-opacity:1;stroke:#ff1a1a;stroke-opacity:1" />
    <path
       d="M140 421v33c0 3.3 2.7 6 6 6h315.04M140 421.03V420M461 460h1.04M280.87 479v-18M280.87 478.97V480M280.87 461.03V460M460 459v-18M460 458.97V460M460 441.03V440"
       stroke="#f9dc04"
       stroke-width="2"
       fill="none"
       id="path29547"
       style="fill:none;fill-opacity:1;stroke:#cca400;stroke-opacity:1" />
    <path
       d="M460.3 520.96l.92 2.83m1.2 3.77l1.83 5.67m1.3 3.75l2.05 5.58m1.38 3.72l.7 1.9 1.5 3.63m1.53 3.66l1.86 4.42.48 1.05m1.68 3.6l2.52 5.4m1.8 3.52l2.75 5.28m1.92 3.47l2.96 5.16m2.08 3.4l3.17 5.03m2.25 3.27l2.7 3.9.72.97m2.4 3.17l1.7 2.26 1.98 2.4m2.52 3.08l.33.4 3.62 4.05m2.7 2.9l3.37 3.45.83.78m2.88 2.73l1.17 1.1 3.28 2.84m3.05 2.55l3.55 2.82 1.14.83m3.2 2.35l.68.5 4.25 2.83m3.37 2.1l2.66 1.63 2.48 1.37m3.5 1.9l4.72 2.37.6.27m3.62 1.62l1.33.6 4.18 1.66m3.73 1.38l3.7 1.3 1.94.6m3.8 1.15l.35.1 5.4 1.4m3.88.88l3.66.8 2.17.36m3.92.68l.82.14 5.08.65m3.94.45l5.87.5h.05m3.97.2l4.06.17h1.88m3.97.02h2.76l3.2-.12m3.96-.15l2.03-.08 3.9-.33m3.97-.32l1.98-.16 3.94-.5m3.93-.48l2.77-.35 3.12-.52m3.92-.65l4.5-.75 1.36-.28m3.9-.82l5.8-1.22m3.87-.9l5.8-1.48m3.83-.97l1.96-.5 3.76-1.1m3.8-1.14l5.36-1.58.36-.1m3.78-1.22l5.67-1.82m3.78-1.2l5.68-1.83m3.78-1.22l5.67-1.8m3.78-1.22l5.68-1.82m3.78-1.2l5.67-1.82m3.78-1.2l5.68-1.83m3.78-1.22l5.67-1.82m3.78-1.2l5.68-1.82m3.78-1.2l5.67-1.83m3.78-1.2l5.68-1.82m3.78-1.2l5.67-1.82m3.78-1.2l5.68-1.83m3.78-1.2l5.67-1.83m3.78-1.2l5.68-1.82m3.78-1.2l5.67-1.83m3.78-1.2l5.68-1.82m3.78-1.22l5.67-1.8m3.78-1.2l5.68-1.83m3.78-1.2l5.67-1.82m3.76-1.26l5.55-2.14m3.7-1.42l5.57-2.13m3.7-1.4l5.56-2.14m3.7-1.42l5.57-2.13m3.7-1.4l5.56-2.14m3.72-1.42l5.56-2.13m3.7-1.4l5.56-2.14m3.7-1.42l5.57-2.13m3.72-1.4l2.78-1.08M460.32 520.98L460 520"
       stroke="#7ab648"
       stroke-width="2"
       fill="none"
       id="path29549"
       style="fill:#1a20ff;fill-opacity:1;stroke:#3b1aff;stroke-opacity:1" />
    <path
       d="M989.15 561.16l-11.66 9.43-3.33-8.67z"
       stroke="#7ab648"
       stroke-width="2"
       fill="#7ab648"
       id="path29551"
       style="stroke:#1a20ff;stroke-opacity:1;fill:#2d1aff;fill-opacity:1" />
    <defs
       id="defs29858">
      <path
         fill="#ffd900"
         d="M18-150v-26h174v26H18zm0 90v-26h174v26H18"
         id="O" />
      <path
         fill="#ffd900"
         d="M194-70c0 46-34 64-81 66v29H91V-4C42-5 12-27 4-67l30-6c5 28 25 41 57 43v-87c-38-9-76-20-76-67 1-42 33-58 76-59v-23h22v23c45 0 67 20 76 56l-31 6c-5-23-18-35-45-37v78c41 10 81 20 81 70zm-81 41c51 7 71-66 19-77-6-2-12-4-19-6v83zM91-219c-47-6-63 57-18 69 6 2 12 3 18 5v-74"
         id="P" />
      <path
         fill="#ffd900"
         d="M27 0v-27h64v-190l-56 39v-29l58-41h29v221h61V0H27"
         id="Q" />
      <path
         fill="#ffd900"
         d="M33 0v-38h34V0H33"
         id="R" />
      <path
         fill="#ffd900"
         d="M101-251c68 0 85 55 85 127S166 4 100 4C33 4 14-52 14-124c0-73 17-127 87-127zm-1 229c47 0 54-49 54-102s-4-102-53-102c-51 0-55 48-55 102 0 53 5 102 54 102"
         id="S" />
      <g
         id="b">
        <use
           transform="matrix(0.05925925925925927,0,0,0.05925925925925927,0,0)"
           xlink:href="#O"
           id="use29558" />
        <use
           transform="matrix(0.05925925925925927,0,0,0.05925925925925927,12.444444444444446,0)"
           xlink:href="#P"
           id="use29560" />
        <use
           transform="matrix(0.05925925925925927,0,0,0.05925925925925927,24.296296296296298,0)"
           xlink:href="#Q"
           id="use29562" />
        <use
           transform="matrix(0.05925925925925927,0,0,0.05925925925925927,36.14814814814815,0)"
           xlink:href="#R"
           id="use29564" />
        <use
           transform="matrix(0.05925925925925927,0,0,0.05925925925925927,42.074074074074076,0)"
           xlink:href="#S"
           id="use29566" />
        <use
           transform="matrix(0.05925925925925927,0,0,0.05925925925925927,53.92592592592593,0)"
           xlink:href="#S"
           id="use29568" />
        <use
           transform="matrix(0.05925925925925927,0,0,0.05925925925925927,65.77777777777779,0)"
           xlink:href="#S"
           id="use29570" />
      </g>
      <path
         fill="#333"
         d="M137 0h-34L2-248h35l83 218 83-218h36"
         id="T" />
      <path
         fill="#333"
         d="M63-220v92h138v28H63V0H30v-248h175v28H63"
         id="U" />
      <path
         fill="#333"
         d="M18-150v-26h174v26H18zm0 90v-26h174v26H18"
         id="V" />
      <path
         fill="#333"
         d="M194-70c0 46-34 64-81 66v29H91V-4C42-5 12-27 4-67l30-6c5 28 25 41 57 43v-87c-38-9-76-20-76-67 1-42 33-58 76-59v-23h22v23c45 0 67 20 76 56l-31 6c-5-23-18-35-45-37v78c41 10 81 20 81 70zm-81 41c51 7 71-66 19-77-6-2-12-4-19-6v83zM91-219c-47-6-63 57-18 69 6 2 12 3 18 5v-74"
         id="W" />
      <path
         fill="#333"
         d="M103-251c84 0 111 97 45 133-19 10-37 24-39 52H78c0-63 77-55 77-114 0-30-21-42-52-43-32 0-53 17-56 46l-32-2c7-45 34-72 88-72zM77 0v-35h34V0H77"
         id="X" />
      <g
         id="d">
        <use
           transform="matrix(0.049382716049382706,0,0,0.049382716049382706,0,0)"
           xlink:href="#T"
           id="use29578" />
        <use
           transform="matrix(0.049382716049382706,0,0,0.049382716049382706,11.85185185185185,0)"
           xlink:href="#U"
           id="use29580" />
        <use
           transform="matrix(0.049382716049382706,0,0,0.049382716049382706,22.666666666666664,0)"
           xlink:href="#V"
           id="use29582" />
        <use
           transform="matrix(0.049382716049382706,0,0,0.049382716049382706,33.03703703703703,0)"
           xlink:href="#W"
           id="use29584" />
        <use
           transform="matrix(0.049382716049382706,0,0,0.049382716049382706,42.91358024691357,0)"
           xlink:href="#X"
           id="use29586" />
      </g>
      <path
         fill="#333"
         d="M27 0v-27h64v-190l-56 39v-29l58-41h29v221h61V0H27"
         id="Y" />
      <path
         fill="#333"
         d="M16-82v-28h88v28H16"
         id="Z" />
      <path
         fill="#333"
         d="M110-160c48 1 74 30 74 79 0 53-28 85-80 85-65 0-83-55-86-122-5-90 50-162 133-122 14 7 22 21 27 39l-31 6c-5-40-67-38-82-6-9 19-15 44-15 74 11-20 30-34 60-33zm-7 138c34 0 49-23 49-58s-16-56-50-56c-29 0-50 16-49 49 1 36 15 65 50 65"
         id="aa" />
      <g
         id="e">
        <use
           transform="matrix(0.0493827160493827,0,0,0.0493827160493827,0,0)"
           xlink:href="#Y"
           id="use29592" />
        <use
           transform="matrix(0.0493827160493827,0,0,0.0493827160493827,9.876543209876539,0)"
           xlink:href="#Z"
           id="use29594" />
        <use
           transform="matrix(0.0493827160493827,0,0,0.0493827160493827,15.753086419753082,0)"
           xlink:href="#aa"
           id="use29596" />
      </g>
      <path
         fill="#333"
         d="M134-131c28 9 52 24 51 62-1 50-34 73-85 73S17-19 16-69c0-36 21-54 49-61-75-25-45-126 34-121 46 3 78 18 79 63 0 33-17 51-44 57zm-34-11c31 1 46-15 46-44 0-28-17-43-47-42-29 0-46 13-45 42 1 28 16 44 46 44zm1 122c35 0 51-18 51-52 0-30-18-46-53-46-33 0-51 17-51 47 0 34 19 51 53 51"
         id="ab" />
      <g
         id="f">
        <use
           transform="matrix(0.0493827160493827,0,0,0.0493827160493827,0,0)"
           xlink:href="#Z"
           id="use29600" />
        <use
           transform="matrix(0.0493827160493827,0,0,0.0493827160493827,5.876543209876541,0)"
           xlink:href="#ab"
           id="use29602" />
        <use
           transform="matrix(0.0493827160493827,0,0,0.0493827160493827,15.753086419753082,0)"
           xlink:href="#aa"
           id="use29604" />
      </g>
      <path
         fill="#333"
         d="M115-194c55 1 70 41 70 98S169 2 115 4C84 4 66-9 55-30l1 105H24l-1-265h31l2 30c10-21 28-34 59-34zm-8 174c40 0 45-34 45-75s-6-73-45-74c-42 0-51 32-51 76 0 43 10 73 51 73"
         id="ac" />
      <path
         fill="#333"
         d="M210-169c-67 3-38 105-44 169h-31v-121c0-29-5-50-35-48C34-165 62-65 56 0H25l-1-190h30c1 10-1 24 2 32 10-44 99-50 107 0 11-21 27-35 58-36 85-2 47 119 55 194h-31v-121c0-29-5-49-35-48"
         id="ad" />
      <path
         fill="#333"
         d="M108 0H70L1-190h34L89-25l56-165h34"
         id="ae" />
      <g
         id="g">
        <use
           transform="matrix(0.049382716049382706,0,0,0.049382716049382706,0,0)"
           xlink:href="#ac"
           id="use29610" />
        <use
           transform="matrix(0.049382716049382706,0,0,0.049382716049382706,9.87654320987654,0)"
           xlink:href="#ad"
           id="use29612" />
        <use
           transform="matrix(0.049382716049382706,0,0,0.049382716049382706,24.641975308641968,0)"
           xlink:href="#ae"
           id="use29614" />
      </g>
      <path
         fill="#333"
         d="M33 0v-38h34V0H33"
         id="af" />
      <g
         id="h">
        <use
           transform="matrix(0.06172839506172839,0,0,0.06172839506172839,0,0)"
           xlink:href="#af"
           id="use29618" />
        <use
           transform="matrix(0.06172839506172839,0,0,0.06172839506172839,6.172839506172839,0)"
           xlink:href="#af"
           id="use29620" />
        <use
           transform="matrix(0.06172839506172839,0,0,0.06172839506172839,12.345679012345679,0)"
           xlink:href="#af"
           id="use29622" />
      </g>
      <path
         fill="#333"
         d="M24-231v-30h32v30H24zM-9 49c24 4 33-6 33-30v-209h32V24c2 40-23 58-65 49V49"
         id="ag" />
      <path
         fill="#333"
         d="M101-251c82-7 93 87 43 132L82-64C71-53 59-42 53-27h129V0H18c2-99 128-94 128-182 0-28-16-43-45-43s-46 15-49 41l-32-3c6-41 34-60 81-64"
         id="ah" />
      <path
         fill="#333"
         d="M155-56V0h-30v-56H8v-25l114-167h33v167h35v25h-35zm-30-156c-27 46-58 90-88 131h88v-131"
         id="ai" />
      <path
         fill="#333"
         d="M252-156c43 0 55 33 55 80 0 46-13 78-56 78-42 0-55-33-55-78 0-48 12-80 56-80zM93 0H65l162-248h28zM13-171c-1-47 13-79 56-79s55 33 55 79-13 79-55 79c-43 0-56-33-56-79zM251-17c28 0 30-29 30-59 0-31-1-60-29-60-29 0-31 29-31 60 0 29 2 59 30 59zM69-112c27 0 28-30 29-59 0-31-1-60-29-60-29 0-30 30-30 60s2 59 30 59"
         id="aj" />
      <g
         id="i">
        <use
           transform="matrix(0.049382716049382706,0,0,0.049382716049382706,0,0)"
           xlink:href="#ag"
           id="use29629" />
        <use
           transform="matrix(0.049382716049382706,0,0,0.049382716049382706,3.9012345679012337,0)"
           xlink:href="#V"
           id="use29631" />
        <use
           transform="matrix(0.049382716049382706,0,0,0.049382716049382706,14.271604938271603,0)"
           xlink:href="#ah"
           id="use29633" />
        <use
           transform="matrix(0.049382716049382706,0,0,0.049382716049382706,24.148148148148145,0)"
           xlink:href="#ai"
           id="use29635" />
        <use
           transform="matrix(0.049382716049382706,0,0,0.049382716049382706,34.02469135802468,0)"
           xlink:href="#aj"
           id="use29637" />
      </g>
      <path
         fill="#333"
         d="M117-194c89-4 53 116 60 194h-32v-121c0-31-8-49-39-48C34-167 62-67 57 0H25l-1-190h30c1 10-1 24 2 32 11-22 29-35 61-36"
         id="ak" />
      <path
         fill="#333"
         d="M141-36C126-15 110 5 73 4 37 3 15-17 15-53c-1-64 63-63 125-63 3-35-9-54-41-54-24 1-41 7-42 31l-33-3c5-37 33-52 76-52 45 0 72 20 72 64v82c-1 20 7 32 28 27v20c-31 9-61-2-59-35zM48-53c0 20 12 33 32 33 41-3 63-29 60-74-43 2-92-5-92 41"
         id="al" />
      <g
         id="j">
        <use
           transform="matrix(0.049382716049382706,0,0,0.049382716049382706,0,0)"
           xlink:href="#ak"
           id="use29642" />
        <use
           transform="matrix(0.049382716049382706,0,0,0.049382716049382706,9.87654320987654,0)"
           xlink:href="#al"
           id="use29644" />
        <use
           transform="matrix(0.049382716049382706,0,0,0.049382716049382706,19.75308641975308,0)"
           xlink:href="#ad"
           id="use29646" />
        <use
           transform="matrix(0.049382716049382706,0,0,0.049382716049382706,34.51851851851851,0)"
           xlink:href="#ae"
           id="use29648" />
      </g>
      <path
         fill="#333"
         d="M101-234c-31-9-42 10-38 44h38v23H63V0H32v-167H5v-23h27c-7-52 17-82 69-68v24"
         id="am" />
      <g
         id="k">
        <use
           transform="matrix(0.049382716049382706,0,0,0.049382716049382706,0,0)"
           xlink:href="#am"
           id="use29652" />
        <use
           transform="matrix(0.049382716049382706,0,0,0.049382716049382706,4.592592592592592,0)"
           xlink:href="#am"
           id="use29654" />
      </g>
      <path
         fill="#333"
         d="M64 0c3-98 48-159 88-221H18v-27h164v26C143-157 98-101 97 0H64"
         id="an" />
      <g
         id="l">
        <use
           transform="matrix(0.0493827160493827,0,0,0.0493827160493827,0,0)"
           xlink:href="#Y"
           id="use29658" />
        <use
           transform="matrix(0.0493827160493827,0,0,0.0493827160493827,9.876543209876539,0)"
           xlink:href="#Z"
           id="use29660" />
        <use
           transform="matrix(0.0493827160493827,0,0,0.0493827160493827,15.753086419753082,0)"
           xlink:href="#an"
           id="use29662" />
      </g>
      <path
         fill="#333"
         d="M99-251c64 0 84 50 84 122C183-37 130 33 47-8c-14-7-20-23-25-40l30-5c6 39 69 39 84 7 9-19 16-44 16-74-10 22-31 35-62 35-49 0-73-33-73-83 0-54 28-83 82-83zm-1 141c31-1 51-18 51-49 0-36-14-67-51-67-34 0-49 23-49 58 0 34 15 58 49 58"
         id="ao" />
      <g
         id="m">
        <use
           transform="matrix(0.0493827160493827,0,0,0.0493827160493827,0,0)"
           xlink:href="#Y"
           id="use29666" />
        <use
           transform="matrix(0.0493827160493827,0,0,0.0493827160493827,9.876543209876539,0)"
           xlink:href="#Z"
           id="use29668" />
        <use
           transform="matrix(0.0493827160493827,0,0,0.0493827160493827,15.753086419753082,0)"
           xlink:href="#ao"
           id="use29670" />
        <use
           transform="matrix(0.0493827160493827,0,0,0.0493827160493827,25.629629629629623,0)"
           xlink:href="#Z"
           id="use29672" />
        <use
           transform="matrix(0.0493827160493827,0,0,0.0493827160493827,31.506172839506164,0)"
           xlink:href="#ab"
           id="use29674" />
        <use
           transform="matrix(0.0493827160493827,0,0,0.0493827160493827,41.3827160493827,0)"
           xlink:href="#an"
           id="use29676" />
      </g>
      <path
         fill="#333"
         d="M101-251c68 0 85 55 85 127S166 4 100 4C33 4 14-52 14-124c0-73 17-127 87-127zm-1 229c47 0 54-49 54-102s-4-102-53-102c-51 0-55 48-55 102 0 53 5 102 54 102"
         id="ap" />
      <g
         id="n">
        <use
           transform="matrix(0.0493827160493827,0,0,0.0493827160493827,0,0)"
           xlink:href="#Y"
           id="use29680" />
        <use
           transform="matrix(0.0493827160493827,0,0,0.0493827160493827,9.876543209876539,0)"
           xlink:href="#Z"
           id="use29682" />
        <use
           transform="matrix(0.0493827160493827,0,0,0.0493827160493827,15.753086419753082,0)"
           xlink:href="#Y"
           id="use29684" />
        <use
           transform="matrix(0.0493827160493827,0,0,0.0493827160493827,25.629629629629623,0)"
           xlink:href="#ap"
           id="use29686" />
        <use
           transform="matrix(0.0493827160493827,0,0,0.0493827160493827,35.506172839506156,0)"
           xlink:href="#Z"
           id="use29688" />
        <use
           transform="matrix(0.0493827160493827,0,0,0.0493827160493827,41.382716049382694,0)"
           xlink:href="#ab"
           id="use29690" />
        <use
           transform="matrix(0.0493827160493827,0,0,0.0493827160493827,51.25925925925923,0)"
           xlink:href="#an"
           id="use29692" />
      </g>
      <g
         id="o">
        <use
           transform="matrix(0.0493827160493827,0,0,0.0493827160493827,0,0)"
           xlink:href="#Y"
           id="use29695" />
        <use
           transform="matrix(0.0493827160493827,0,0,0.0493827160493827,9.876543209876539,0)"
           xlink:href="#Z"
           id="use29697" />
        <use
           transform="matrix(0.0493827160493827,0,0,0.0493827160493827,15.753086419753082,0)"
           xlink:href="#ab"
           id="use29699" />
        <use
           transform="matrix(0.0493827160493827,0,0,0.0493827160493827,25.629629629629623,0)"
           xlink:href="#Z"
           id="use29701" />
        <use
           transform="matrix(0.0493827160493827,0,0,0.0493827160493827,31.506172839506164,0)"
           xlink:href="#ab"
           id="use29703" />
        <use
           transform="matrix(0.0493827160493827,0,0,0.0493827160493827,41.3827160493827,0)"
           xlink:href="#ao"
           id="use29705" />
      </g>
      <g
         id="p">
        <use
           transform="matrix(0.0493827160493827,0,0,0.0493827160493827,0,0)"
           xlink:href="#Y"
           id="use29708" />
        <use
           transform="matrix(0.0493827160493827,0,0,0.0493827160493827,9.876543209876539,0)"
           xlink:href="#Z"
           id="use29710" />
        <use
           transform="matrix(0.0493827160493827,0,0,0.0493827160493827,15.753086419753082,0)"
           xlink:href="#Y"
           id="use29712" />
        <use
           transform="matrix(0.0493827160493827,0,0,0.0493827160493827,25.629629629629623,0)"
           xlink:href="#ah"
           id="use29714" />
        <use
           transform="matrix(0.0493827160493827,0,0,0.0493827160493827,35.506172839506156,0)"
           xlink:href="#Z"
           id="use29716" />
        <use
           transform="matrix(0.0493827160493827,0,0,0.0493827160493827,41.382716049382694,0)"
           xlink:href="#ab"
           id="use29718" />
        <use
           transform="matrix(0.0493827160493827,0,0,0.0493827160493827,51.25925925925923,0)"
           xlink:href="#ao"
           id="use29720" />
      </g>
      <path
         fill="#ffd900"
         d="M54-142c48-35 137-8 131 61C196 18 31 33 14-55l32-4c7 23 22 37 52 37 35-1 51-22 54-58 4-55-73-65-99-34H22l8-134h141v27H59"
         id="aq" />
      <g
         id="q">
        <use
           transform="matrix(0.05925925925925927,0,0,0.05925925925925927,0,0)"
           xlink:href="#O"
           id="use29724" />
        <use
           transform="matrix(0.05925925925925927,0,0,0.05925925925925927,12.444444444444446,0)"
           xlink:href="#Q"
           id="use29726" />
        <use
           transform="matrix(0.05925925925925927,0,0,0.05925925925925927,24.296296296296298,0)"
           xlink:href="#aq"
           id="use29728" />
      </g>
      <path
         fill="#ffd900"
         d="M115-194c55 1 70 41 70 98S169 2 115 4C84 4 66-9 55-30l1 105H24l-1-265h31l2 30c10-21 28-34 59-34zm-8 174c40 0 45-34 45-75s-6-73-45-74c-42 0-51 32-51 76 0 43 10 73 51 73"
         id="ar" />
      <path
         fill="#ffd900"
         d="M210-169c-67 3-38 105-44 169h-31v-121c0-29-5-50-35-48C34-165 62-65 56 0H25l-1-190h30c1 10-1 24 2 32 10-44 99-50 107 0 11-21 27-35 58-36 85-2 47 119 55 194h-31v-121c0-29-5-49-35-48"
         id="as" />
      <path
         fill="#ffd900"
         d="M108 0H70L1-190h34L89-25l56-165h34"
         id="at" />
      <g
         id="r">
        <use
           transform="matrix(0.05925925925925927,0,0,0.05925925925925927,0,0)"
           xlink:href="#ar"
           id="use29734" />
        <use
           transform="matrix(0.05925925925925927,0,0,0.05925925925925927,11.851851851851853,0)"
           xlink:href="#as"
           id="use29736" />
        <use
           transform="matrix(0.05925925925925927,0,0,0.05925925925925927,29.570370370370377,0)"
           xlink:href="#at"
           id="use29738" />
      </g>
      <path
         fill="#ffd900"
         d="M24-231v-30h32v30H24zM-9 49c24 4 33-6 33-30v-209h32V24c2 40-23 58-65 49V49"
         id="au" />
      <g
         id="s">
        <use
           transform="matrix(0.05925925925925927,0,0,0.05925925925925927,0,0)"
           xlink:href="#au"
           id="use29742" />
        <use
           transform="matrix(0.05925925925925927,0,0,0.05925925925925927,4.681481481481482,0)"
           xlink:href="#O"
           id="use29744" />
      </g>
      <path
         fill="#ffd900"
         d="M101-251c82-7 93 87 43 132L82-64C71-53 59-42 53-27h129V0H18c2-99 128-94 128-182 0-28-16-43-45-43s-46 15-49 41l-32-3c6-41 34-60 81-64"
         id="av" />
      <path
         fill="#ffd900"
         d="M155-56V0h-30v-56H8v-25l114-167h33v167h35v25h-35zm-30-156c-27 46-58 90-88 131h88v-131"
         id="aw" />
      <path
         fill="#ffd900"
         d="M252-156c43 0 55 33 55 80 0 46-13 78-56 78-42 0-55-33-55-78 0-48 12-80 56-80zM93 0H65l162-248h28zM13-171c-1-47 13-79 56-79s55 33 55 79-13 79-55 79c-43 0-56-33-56-79zM251-17c28 0 30-29 30-59 0-31-1-60-29-60-29 0-31 29-31 60 0 29 2 59 30 59zM69-112c27 0 28-30 29-59 0-31-1-60-29-60-29 0-30 30-30 60s2 59 30 59"
         id="ax" />
      <g
         id="t">
        <use
           transform="matrix(0.05925925925925927,0,0,0.05925925925925927,0,0)"
           xlink:href="#av"
           id="use29750" />
        <use
           transform="matrix(0.05925925925925927,0,0,0.05925925925925927,11.851851851851853,0)"
           xlink:href="#aw"
           id="use29752" />
        <use
           transform="matrix(0.05925925925925927,0,0,0.05925925925925927,23.703703703703706,0)"
           xlink:href="#ax"
           id="use29754" />
      </g>
      <path
         fill="#ffd900"
         d="M117-194c89-4 53 116 60 194h-32v-121c0-31-8-49-39-48C34-167 62-67 57 0H25l-1-190h30c1 10-1 24 2 32 11-22 29-35 61-36"
         id="ay" />
      <path
         fill="#ffd900"
         d="M141-36C126-15 110 5 73 4 37 3 15-17 15-53c-1-64 63-63 125-63 3-35-9-54-41-54-24 1-41 7-42 31l-33-3c5-37 33-52 76-52 45 0 72 20 72 64v82c-1 20 7 32 28 27v20c-31 9-61-2-59-35zM48-53c0 20 12 33 32 33 41-3 63-29 60-74-43 2-92-5-92 41"
         id="az" />
      <g
         id="u">
        <use
           transform="matrix(0.05925925925925927,0,0,0.05925925925925927,0,0)"
           xlink:href="#ay"
           id="use29759" />
        <use
           transform="matrix(0.05925925925925927,0,0,0.05925925925925927,11.851851851851853,0)"
           xlink:href="#az"
           id="use29761" />
        <use
           transform="matrix(0.05925925925925927,0,0,0.05925925925925927,23.703703703703706,0)"
           xlink:href="#as"
           id="use29763" />
        <use
           transform="matrix(0.05925925925925927,0,0,0.05925925925925927,41.42222222222223,0)"
           xlink:href="#at"
           id="use29765" />
      </g>
      <use
         transform="matrix(0.04691358024691358,0,0,0.04691358024691358,0,0)"
         xlink:href="#Q"
         id="v" />
      <use
         transform="matrix(0.05925925925925927,0,0,0.05925925925925927,0,0)"
         xlink:href="#ay"
         id="w" />
      <path
         fill="#ffd900"
         d="M233-177c-1 41-23 64-60 70L243 0h-38l-65-103H63V0H30v-248c88 3 205-21 203 71zM63-129c60-2 137 13 137-47 0-61-80-42-137-45v92"
         id="aA" />
      <use
         transform="matrix(0.05925925925925927,0,0,0.05925925925925927,0,0)"
         xlink:href="#aA"
         id="x" />
      <path
         fill="#ffd900"
         d="M64 0c3-98 48-159 88-221H18v-27h164v26C143-157 98-101 97 0H64"
         id="aB" />
      <g
         id="y">
        <use
           transform="matrix(0.05925925925925927,0,0,0.05925925925925927,0,0)"
           xlink:href="#O"
           id="use29773" />
        <use
           transform="matrix(0.05925925925925927,0,0,0.05925925925925927,12.444444444444446,0)"
           xlink:href="#av"
           id="use29775" />
        <use
           transform="matrix(0.05925925925925927,0,0,0.05925925925925927,24.296296296296298,0)"
           xlink:href="#aB"
           id="use29777" />
      </g>
      <path
         fill="#ffd900"
         d="M126-127c33 6 58 20 58 59 0 88-139 92-164 29-3-8-5-16-6-25l32-3c6 27 21 44 54 44 32 0 52-15 52-46 0-38-36-46-79-43v-28c39 1 72-4 72-42 0-27-17-43-46-43-28 0-47 15-49 41l-32-3c6-42 35-63 81-64 48-1 79 21 79 65 0 36-21 52-52 59"
         id="aC" />
      <use
         transform="matrix(0.04691358024691358,0,0,0.04691358024691358,0,0)"
         xlink:href="#aC"
         id="z" />
      <path
         fill="#7ab648"
         d="M18-150v-26h174v26H18zm0 90v-26h174v26H18"
         id="aD" />
      <path
         fill="#7ab648"
         d="M155-56V0h-30v-56H8v-25l114-167h33v167h35v25h-35zm-30-156c-27 46-58 90-88 131h88v-131"
         id="aE" />
      <g
         id="B">
        <use
           transform="matrix(0.05925925925925927,0,0,0.05925925925925927,0,0)"
           xlink:href="#aD"
           id="use29784" />
        <use
           transform="matrix(0.05925925925925927,0,0,0.05925925925925927,12.444444444444446,0)"
           xlink:href="#aE"
           id="use29786" />
      </g>
      <path
         fill="#7ab648"
         d="M115-194c55 1 70 41 70 98S169 2 115 4C84 4 66-9 55-30l1 105H24l-1-265h31l2 30c10-21 28-34 59-34zm-8 174c40 0 45-34 45-75s-6-73-45-74c-42 0-51 32-51 76 0 43 10 73 51 73"
         id="aF" />
      <path
         fill="#7ab648"
         d="M210-169c-67 3-38 105-44 169h-31v-121c0-29-5-50-35-48C34-165 62-65 56 0H25l-1-190h30c1 10-1 24 2 32 10-44 99-50 107 0 11-21 27-35 58-36 85-2 47 119 55 194h-31v-121c0-29-5-49-35-48"
         id="aG" />
      <path
         fill="#7ab648"
         d="M108 0H70L1-190h34L89-25l56-165h34"
         id="aH" />
      <g
         id="C">
        <use
           transform="matrix(0.05925925925925927,0,0,0.05925925925925927,0,0)"
           xlink:href="#aF"
           id="use29792" />
        <use
           transform="matrix(0.05925925925925927,0,0,0.05925925925925927,11.851851851851853,0)"
           xlink:href="#aG"
           id="use29794" />
        <use
           transform="matrix(0.05925925925925927,0,0,0.05925925925925927,29.570370370370377,0)"
           xlink:href="#aH"
           id="use29796" />
      </g>
      <use
         transform="matrix(0.04691358024691358,0,0,0.04691358024691358,0,0)"
         xlink:href="#aE"
         id="E" />
      <path
         fill="#7ab648"
         d="M117-194c89-4 53 116 60 194h-32v-121c0-31-8-49-39-48C34-167 62-67 57 0H25l-1-190h30c1 10-1 24 2 32 11-22 29-35 61-36"
         id="aI" />
      <use
         transform="matrix(0.05925925925925927,0,0,0.05925925925925927,0,0)"
         xlink:href="#aI"
         id="F" />
      <path
         fill="#7ab648"
         d="M101-251c82-7 93 87 43 132L82-64C71-53 59-42 53-27h129V0H18c2-99 128-94 128-182 0-28-16-43-45-43s-46 15-49 41l-32-3c6-41 34-60 81-64"
         id="aJ" />
      <path
         fill="#7ab648"
         d="M126-127c33 6 58 20 58 59 0 88-139 92-164 29-3-8-5-16-6-25l32-3c6 27 21 44 54 44 32 0 52-15 52-46 0-38-36-46-79-43v-28c39 1 72-4 72-42 0-27-17-43-46-43-28 0-47 15-49 41l-32-3c6-42 35-63 81-64 48-1 79 21 79 65 0 36-21 52-52 59"
         id="aK" />
      <g
         id="G">
        <use
           transform="matrix(0.05925925925925927,0,0,0.05925925925925927,0,0)"
           xlink:href="#aD"
           id="use29804" />
        <use
           transform="matrix(0.05925925925925927,0,0,0.05925925925925927,12.444444444444446,0)"
           xlink:href="#aJ"
           id="use29806" />
        <use
           transform="matrix(0.05925925925925927,0,0,0.05925925925925927,24.296296296296298,0)"
           xlink:href="#aK"
           id="use29808" />
      </g>
      <use
         transform="matrix(0.04691358024691358,0,0,0.04691358024691358,0,0)"
         xlink:href="#aJ"
         id="H" />
      <path
         fill="#7ab648"
         d="M24-231v-30h32v30H24zM-9 49c24 4 33-6 33-30v-209h32V24c2 40-23 58-65 49V49"
         id="aL" />
      <g
         id="I">
        <use
           transform="matrix(0.05925925925925927,0,0,0.05925925925925927,0,0)"
           xlink:href="#aL"
           id="use29813" />
        <use
           transform="matrix(0.05925925925925927,0,0,0.05925925925925927,4.681481481481482,0)"
           xlink:href="#aD"
           id="use29815" />
      </g>
      <path
         fill="#7ab648"
         d="M252-156c43 0 55 33 55 80 0 46-13 78-56 78-42 0-55-33-55-78 0-48 12-80 56-80zM93 0H65l162-248h28zM13-171c-1-47 13-79 56-79s55 33 55 79-13 79-55 79c-43 0-56-33-56-79zM251-17c28 0 30-29 30-59 0-31-1-60-29-60-29 0-31 29-31 60 0 29 2 59 30 59zM69-112c27 0 28-30 29-59 0-31-1-60-29-60-29 0-30 30-30 60s2 59 30 59"
         id="aM" />
      <g
         id="J">
        <use
           transform="matrix(0.05925925925925927,0,0,0.05925925925925927,0,0)"
           xlink:href="#aJ"
           id="use29819" />
        <use
           transform="matrix(0.05925925925925927,0,0,0.05925925925925927,11.851851851851853,0)"
           xlink:href="#aE"
           id="use29821" />
        <use
           transform="matrix(0.05925925925925927,0,0,0.05925925925925927,23.703703703703706,0)"
           xlink:href="#aM"
           id="use29823" />
      </g>
      <path
         fill="#7ab648"
         d="M141-36C126-15 110 5 73 4 37 3 15-17 15-53c-1-64 63-63 125-63 3-35-9-54-41-54-24 1-41 7-42 31l-33-3c5-37 33-52 76-52 45 0 72 20 72 64v82c-1 20 7 32 28 27v20c-31 9-61-2-59-35zM48-53c0 20 12 33 32 33 41-3 63-29 60-74-43 2-92-5-92 41"
         id="aN" />
      <g
         id="K">
        <use
           transform="matrix(0.05925925925925927,0,0,0.05925925925925927,0,0)"
           xlink:href="#aI"
           id="use29827" />
        <use
           transform="matrix(0.05925925925925927,0,0,0.05925925925925927,11.851851851851853,0)"
           xlink:href="#aN"
           id="use29829" />
        <use
           transform="matrix(0.05925925925925927,0,0,0.05925925925925927,23.703703703703706,0)"
           xlink:href="#aG"
           id="use29831" />
        <use
           transform="matrix(0.05925925925925927,0,0,0.05925925925925927,41.42222222222223,0)"
           xlink:href="#aH"
           id="use29833" />
      </g>
      <path
         fill="#7ab648"
         d="M194-70c0 46-34 64-81 66v29H91V-4C42-5 12-27 4-67l30-6c5 28 25 41 57 43v-87c-38-9-76-20-76-67 1-42 33-58 76-59v-23h22v23c45 0 67 20 76 56l-31 6c-5-23-18-35-45-37v78c41 10 81 20 81 70zm-81 41c51 7 71-66 19-77-6-2-12-4-19-6v83zM91-219c-47-6-63 57-18 69 6 2 12 3 18 5v-74"
         id="aO" />
      <path
         fill="#7ab648"
         d="M33 0v-38h34V0H33"
         id="aP" />
      <path
         fill="#7ab648"
         d="M54-142c48-35 137-8 131 61C196 18 31 33 14-55l32-4c7 23 22 37 52 37 35-1 51-22 54-58 4-55-73-65-99-34H22l8-134h141v27H59"
         id="aQ" />
      <path
         fill="#7ab648"
         d="M101-251c68 0 85 55 85 127S166 4 100 4C33 4 14-52 14-124c0-73 17-127 87-127zm-1 229c47 0 54-49 54-102s-4-102-53-102c-51 0-55 48-55 102 0 53 5 102 54 102"
         id="aR" />
      <g
         id="L">
        <use
           transform="matrix(0.05925925925925927,0,0,0.05925925925925927,0,0)"
           xlink:href="#aD"
           id="use29840" />
        <use
           transform="matrix(0.05925925925925927,0,0,0.05925925925925927,12.444444444444446,0)"
           xlink:href="#aO"
           id="use29842" />
        <use
           transform="matrix(0.05925925925925927,0,0,0.05925925925925927,24.296296296296298,0)"
           xlink:href="#aJ"
           id="use29844" />
        <use
           transform="matrix(0.05925925925925927,0,0,0.05925925925925927,36.14814814814815,0)"
           xlink:href="#aP"
           id="use29846" />
        <use
           transform="matrix(0.05925925925925927,0,0,0.05925925925925927,42.074074074074076,0)"
           xlink:href="#aQ"
           id="use29848" />
        <use
           transform="matrix(0.05925925925925927,0,0,0.05925925925925927,53.92592592592593,0)"
           xlink:href="#aR"
           id="use29850" />
        <use
           transform="matrix(0.05925925925925927,0,0,0.05925925925925927,65.77777777777779,0)"
           xlink:href="#aR"
           id="use29852" />
      </g>
      <use
         transform="matrix(0.04691358024691358,0,0,0.04691358024691358,0,0)"
         xlink:href="#aK"
         id="M" />
      <path
         fill="#7ab648"
         d="M233-177c-1 41-23 64-60 70L243 0h-38l-65-103H63V0H30v-248c88 3 205-21 203 71zM63-129c60-2 137 13 137-47 0-61-80-42-137-45v92"
         id="aS" />
      <use
         transform="matrix(0.05925925925925927,0,0,0.05925925925925927,0,0)"
         xlink:href="#aS"
         id="N" />
    </defs>
  </g>
  <text
     xml:space="preserve"
     style="font-weight:bold;font-size:17.3333px;font-family:Arial;-inkscape-font-specification:'Arial Bold';fill:#333333"
     x="906.93225"
     y="35.833637"
     id="text29922"><tspan
       sodipodi:role="line"
       id="tspan29920"
       x="906.93225"
       y="35.833637"
       style="font-style:normal;font-variant:normal;font-weight:normal;font-stretch:normal;font-size:17.3333px;font-family:Arial;-inkscape-font-specification:Arial">VF=?COP</tspan></text>
  <text
     xml:space="preserve"
     style="font-style:normal;font-variant:normal;font-weight:normal;font-stretch:normal;font-size:17.3333px;font-family:Arial;-inkscape-font-specification:Arial;fill:#333333"
     x="933.38092"
     y="460.71817"
     id="text29976"><tspan
       sodipodi:role="line"
       id="tspan29974"
       x="933.38092"
       y="460.71817">pf</tspan></text>
  <text
     xml:space="preserve"
     style="font-style:normal;font-variant:normal;font-weight:normal;font-stretch:normal;font-size:17.3333px;font-family:Arial;-inkscape-font-specification:Arial;fill:#333333"
     x="476.07547"
     y="387.34457"
     id="text29980"><tspan
       sodipodi:role="line"
       id="tspan29978"
       x="476.07547"
       y="387.34457"
       style="fill:#008000">R=2.500.000 COP</tspan></text>
  <path
     style="fill:#80b951;fill-opacity:1;stroke-width:0.853182"
     d=""
     id="path32690" />
  <path
     style="fill:#80b951;fill-opacity:1;stroke-width:0.853182"
     d=""
     id="path33175" />
  <path
     style="fill:#80b951;fill-opacity:1;stroke-width:0.853182"
     d=""
     id="path33177" />
  <text
     xml:space="preserve"
     style="font-style:normal;font-variant:normal;font-weight:normal;font-stretch:normal;font-size:12px;font-family:Arial;-inkscape-font-specification:Arial;fill:#008000;fill-opacity:1"
     x="489.72635"
     y="395.87634"
     id="text34012"><tspan
       sodipodi:role="line"
       id="tspan34010"
       x="489.72635"
       y="395.87634"
       style="font-size:12px">3</tspan></text>
  <text
     xml:space="preserve"
     style="font-style:normal;font-variant:normal;font-weight:normal;font-stretch:normal;font-size:17.3333px;font-family:Arial;-inkscape-font-specification:Arial;fill:#333333"
     x="146.19266"
     y="423.44354"
     id="text29980-8"><tspan
       sodipodi:role="line"
       id="tspan29978-2"
       x="146.19266"
       y="423.44354"
       style="fill:#cda400;fill-opacity:1">R=1.000.000 COP</tspan></text>
  <text
     xml:space="preserve"
     style="font-style:normal;font-variant:normal;font-weight:normal;font-stretch:normal;font-size:12px;font-family:Arial;-inkscape-font-specification:Arial;fill:#ffcc00;fill-opacity:1"
     x="159.84354"
     y="431.97531"
     id="text34012-3"><tspan
       sodipodi:role="line"
       id="tspan34010-2"
       x="159.84354"
       y="431.97531"
       style="font-size:12px;fill:#ffcc00">1</tspan></text>
  <text
     xml:space="preserve"
     style="font-style:normal;font-variant:normal;font-weight:normal;font-stretch:normal;font-size:12px;font-family:Arial;-inkscape-font-specification:Arial;fill:#ffcc00;fill-opacity:1"
     x="174.90227"
     y="500.81772"
     id="text34372"><tspan
       sodipodi:role="line"
       id="tspan34370"
       x="174.90227"
       y="500.81772" /></text>
  <text
     xml:space="preserve"
     style="font-style:normal;font-variant:normal;font-weight:normal;font-stretch:normal;font-size:17.3333px;font-family:Arial;-inkscape-font-specification:Arial;fill:#ffcc00;fill-opacity:1"
     x="146.74727"
     y="485.46045"
     id="text34376"><tspan
       sodipodi:role="line"
       id="tspan34374"
       x="146.74727"
       y="485.46045"
       style="fill:#cca400;fill-opacity:1">i=2%pmv</tspan></text>
  <text
     xml:space="preserve"
     style="font-style:normal;font-variant:normal;font-weight:normal;font-stretch:normal;font-size:17.3333px;font-family:Arial;-inkscape-font-specification:Arial;fill:#ffcc00;fill-opacity:1"
     x="496.55182"
     y="499.11136"
     id="text34380"><tspan
       sodipodi:role="line"
       id="tspan34378"
       x="496.55182"
       y="499.11136"
       style="fill:#008000">i=2%pmv</tspan></text>
  <rect
     style="fill:#ffffff;fill-opacity:1;fill-rule:evenodd;stroke:#ffffff;stroke-opacity:1"
     id="rect4490"
     width="147.60045"
     height="39.246365"
     x="553.71503"
     y="90.437271" />
  <rect
     style="fill:#ffffff;fill-opacity:1;fill-rule:evenodd;stroke:#ffffff;stroke-opacity:1"
     id="rect4856"
     width="127.12409"
     height="29.008183"
     x="139.06863"
     y="433.41638" />
  <text
     xml:space="preserve"
     style="font-size:21.3333px;font-family:Arial;-inkscape-font-specification:Arial;fill:#ffffff;fill-opacity:1;fill-rule:evenodd;stroke:#cda400;stroke-opacity:1"
     x="558.83411"
     y="98.115913"
     id="text5588"><tspan
       sodipodi:role="line"
       id="tspan5586"
       x="558.83411"
       y="98.115913"
       style="fill:#cca300;fill-opacity:1;stroke:none">n3=27 pmv</tspan></text>
  <text
     xml:space="preserve"
     style="font-size:21.3333px;font-family:Arial;-inkscape-font-specification:Arial;fill:#cca300;fill-opacity:1;fill-rule:evenodd;stroke:#ffffff;stroke-opacity:1"
     x="145.89409"
     y="456.45227"
     id="text8750"><tspan
       sodipodi:role="line"
       id="tspan8748"
       x="145.89409"
       y="456.45227"
       style="stroke:none">n1=15 pmv</tspan></text>
</svg>
