<?xml version="1.0" encoding="UTF-8" standalone="no"?>
<svg
   width="1138.95"
   height="656"
   version="1.1"
   id="svg542"
   sodipodi:docname="Capitulo4Ejercicio2Parte1.svg"
   inkscape:version="1.2.2 (732a01da63, 2022-12-09)"
   xmlns:inkscape="http://www.inkscape.org/namespaces/inkscape"
   xmlns:sodipodi="http://sodipodi.sourceforge.net/DTD/sodipodi-0.dtd"
   xmlns:xlink="http://www.w3.org/1999/xlink"
   xmlns="http://www.w3.org/2000/svg"
   xmlns:svg="http://www.w3.org/2000/svg"
   xmlns:lucid="lucid">
  <defs
     id="defs546" />
  <sodipodi:namedview
     id="namedview544"
     pagecolor="#ffffff"
     bordercolor="#000000"
     borderopacity="0.25"
     inkscape:showpageshadow="2"
     inkscape:pageopacity="0.0"
     inkscape:pagecheckerboard="0"
     inkscape:deskcolor="#d1d1d1"
     showgrid="false"
     inkscape:zoom="0.80240837"
     inkscape:cx="569.53543"
     inkscape:cy="228.06342"
     inkscape:window-width="1920"
     inkscape:window-height="1009"
     inkscape:window-x="-8"
     inkscape:window-y="-8"
     inkscape:window-maximized="1"
     inkscape:current-layer="svg542" />
  <g
     transform="translate(-2080 -1744)"
     lucid:page-tab-id="0_0"
     id="g540">
    <path
       d="M1806.4 1259.2h1870.4v1323.2H1806.4z"
       fill="#fff"
       id="path275" />
    <path
       d="M2282.5 1880h821.07"
       stroke="#000"
       stroke-width="5"
       fill="none"
       id="path277" />
    <path
       d="M2282.56 1880H2277v-2.5h5.56z"
       id="path279" />
    <path
       d="M3120.33 1880l-14.26 4.64v-9.28z"
       stroke="#000"
       stroke-width="5"
       id="path281" />
    <path
       d="M2100 2076c0-3.3 2.7-6 6-6h148c3.3 0 6 2.7 6 6v48c0 3.3-2.7 6-6 6h-148c-3.3 0-6-2.7-6-6z"
       fill="#fff"
       fill-opacity="0"
       id="path283" />
    <path
       d="M2250 1886c0-3.3 2.7-6 6-6h48c3.3 0 6 2.7 6 6v48c0 3.3-2.7 6-6 6h-48c-3.3 0-6-2.7-6-6z"
       fill="#fff"
       fill-opacity="0"
       id="path287" />
    <use
       xlink:href="#b"
       transform="matrix(1,0,0,1,2255.0000000000123,1885) translate(16.358024691358025 31.138888888888886)"
       id="use289" />
    <path
       d="M2470.53 1886c0-3.3 2.68-6 6-6h48c3.3 0 6 2.7 6 6v48c0 3.3-2.7 6-6 6h-48c-3.32 0-6-2.7-6-6z"
       fill="#fff"
       fill-opacity="0"
       id="path291" />
    <use
       xlink:href="#c"
       transform="matrix(1,0,0,1,2475.526315789486,1885) translate(16.358024691358025 31.138888888888886)"
       id="use293" />
    <path
       d="M2653.16 1886c0-3.3 2.68-6 6-6h48c3.3 0 6 2.7 6 6v48c0 3.3-2.7 6-6 6h-48c-3.32 0-6-2.7-6-6z"
       fill="#fff"
       fill-opacity="0"
       id="path295" />
    <use
       xlink:href="#d"
       transform="matrix(1,0,0,1,2658.1578947368544,1885) translate(16.358024691358025 31.138888888888886)"
       id="use297" />
    <path
       d="M3018.42 1873.67c0-3.32 2.7-6 6-6h48c3.3 0 6 2.68 6 6v72.66c0 3.32-2.7 6-6 6h-48c-3.3 0-6-2.68-6-6z"
       fill="#fff"
       fill-opacity="0"
       id="path299" />
    <use
       xlink:href="#e"
       transform="matrix(1,0,0,1,3023.421052631591,1872.6666666666667) translate(7.716049382716054 43.638888888888886)"
       id="use301" />
    <path
       d="M2500.53 1942.5v72.64"
       stroke="#000"
       stroke-width="5"
       fill="none"
       id="path303"
       style="stroke:#ff1a1a;stroke-opacity:1;fill:#ff1a1a;fill-opacity:1" />
    <path
       d="M2500.53 2031.9l-4.64-14.26h9.26z"
       stroke="#000"
       stroke-width="5"
       id="path307"
       style="fill:#ff1a1a;fill-opacity:1;stroke:#ff1c1c;stroke-opacity:1" />
    <path
       d="M2683.16 1942.5v72.64"
       stroke="#000"
       stroke-width="5"
       fill="none"
       id="path309"
       style="fill:#ff1a1a;fill-opacity:1;stroke:#ff1a1a;stroke-opacity:1" />
    <path
       d="M2683.16 2031.9l-4.64-14.26h9.27z"
       stroke="#000"
       stroke-width="5"
       id="path313"
       style="stroke:#ff1a1a;stroke-opacity:1;fill:#ff1a1a;fill-opacity:1" />
    <path
       d="M3048.42 1954.83v60.3"
       stroke="#000"
       stroke-width="5"
       fill="none"
       id="path315"
       style="stroke:#ff1a1a;stroke-opacity:1;fill:#ff1a1a;fill-opacity:1" />
    <path
       d="M3048.42 2031.9l-4.63-14.26h9.26z"
       stroke="#000"
       stroke-width="5"
       id="path319"
       style="stroke:#ff1a1a;stroke-opacity:1;fill:#ff1a1a;fill-opacity:1" />
    <path
       d="M2503.03 2040h542.9M2503.1 2040h-2.57M3045.86 2040h2.56"
       stroke="#000"
       stroke-width="5"
       fill="none"
       id="path321" />
    <path
       d="M2280 1941.5v15.7m0 15.72v31.4m0 15.72v31.42m0 15.7v31.42m0 15.7v31.43m0 15.72v31.4m0 15.72v31.42m0 15.7v31.42m0 15.7v15.72"
       stroke="#000"
       stroke-width="3"
       fill="none"
       id="path323" />
    <path
       d="M2281.5 1941.54h-3V1940h3zM2281.5 2320h-3v-1.54h3z"
       id="path325" />
    <path
       d="M2281 2380l9.85.03m9.84.02l19.67.05m9.84.02l18.7.04 1-.03m9.83-.4l19.66-.77m9.82-.4l19.67-.77m9.8-.75l19.62-1.6m9.8-.8l17.4-1.42 2.2-.28m9.78-1.2l19.53-2.43m9.76-1.2l8.65-1.08 10.8-1.8m9.72-1.63l19.4-3.22m9.68-1.8l19.26-4.05m9.64-2.02l8.54-1.8 10.62-2.7m9.54-2.4l18.13-4.63.93-.28m9.43-2.83l18.85-5.65m9.38-2.96l18.6-6.43m9.3-3.2l1.85-.65 16.5-6.5m9.16-3.6l5.07-2 13.02-5.75m9-4l6.8-3 10.97-5.42m8.83-4.34l7.28-3.6 10.14-5.55m8.63-4.7l6.82-3.74 10.2-6.15m8.43-5.07l5.6-3.38 10.96-7.25m8.22-5.42l3.87-2.57 12.17-8.8m7.98-5.77l1.8-1.3 13.7-10.82m7.7-6.1l14.94-12.83m7.35-6.53l14.37-13.45m7-6.93l13.8-14.03m6.6-7.3l11.35-12.57 1.75-2.1m6.3-7.58l9.2-11.1 3.2-4.18m5.95-7.83l7.53-9.9 4.16-5.94m5.63-8.07l6.3-9.08 4.65-7.28m5.3-8.3l5.28-8.3"
       stroke="#000"
       stroke-width="2"
       fill="none"
       id="path327"
       style="fill:#1a2cff;fill-opacity:1;stroke:#201aff;stroke-opacity:1" />
    <path
       d="M2281.03 2381H2277v-1h4.04z"
       id="path329" />
    <path
       d="M3052.63 2040.88l.53-.88"
       stroke="#000"
       stroke-width="2"
       fill="none"
       id="path331" />
    <path
       d="M2160 2326c0-3.3 2.7-6 6-6h228c3.3 0 6 2.7 6 6v48c0 3.3-2.7 6-6 6h-228c-3.3 0-6-2.7-6-6z"
       fill="#fff"
       fill-opacity="0"
       id="path333" />
    <path
       d="M2413.16 2096.67c0-3.32 2.68-6 6-6h228c3.3 0 6 2.68 6 6v168.66c0 3.32-2.7 6-6 6h-228c-3.32 0-6-2.68-6-6z"
       fill="#fff"
       fill-opacity="0"
       id="path337" />
    <use
       xlink:href="#i"
       transform="matrix(0.88637294,0,0,0.7076543,2407.5615,2177.7239)"
       id="use343" />
    <path
       d="M2780 1886c0-3.3 2.7-6 6-6h142.2c3.32 0 6 2.7 6 6v35.67c0 3.3-2.68 6-6 6H2786c-3.3 0-6-2.7-6-6z"
       fill="#fff"
       fill-opacity="0"
       id="path347" />
    <use
       xlink:href="#k"
       transform="matrix(1,0,0,1,2785,1885) translate(-66.38888888888889 31.99999999999999)"
       id="use349" />
    <path
       d="M3128.42 1854.4c0-3.3 2.7-6 6-6h58.53c3.3 0 6 2.7 6 6v51.2c0 3.3-2.7 6-6 6h-58.53c-3.3 0-6-2.7-6-6z"
       fill="#fff"
       fill-opacity="0"
       id="path351" />
    <use
       xlink:href="#l"
       transform="matrix(1,0,0,1,3133.4210526315787,1853.4044786564032) translate(8.913580246913583 33.236111111111114)"
       id="use353" />
    <path
       d="m 2281.0586,1935.4111 v 143.7315"
       stroke="#333"
       stroke-width="4.12336"
       fill="none"
       id="path355"
       style="fill:#ff1a1a;fill-opacity:1;stroke:#ff1717;stroke-opacity:1" />
    <path
       d="M2280 2093.53l-4.64-14.27h9.28z"
       stroke="#333"
       stroke-width="4"
       fill="#333"
       id="path359"
       style="fill:#ff1a1a;fill-opacity:1;stroke:#ff1a1a;stroke-opacity:1" />
    <path
       d="M2280 1761.5v13m0 13v26m0 13v26m0 13v13M2280 1761.54V1760"
       stroke="#000"
       stroke-width="3"
       fill="none"
       id="path361" />
    <path
       d="M2281.5 1880h-3v-1.54h3z"
       id="path363" />
    <defs
       id="defs538">
      <path
         fill="#333"
         d="M147 0H94L2-248h55l64 206c17-72 42-137 63-206h54"
         id="m" />
      <path
         fill="#333"
         d="M24-248c93 1 206-16 204 79-1 75-69 88-152 82V0H24v-248zm52 121c47 0 100 7 100-41 0-47-54-39-100-39v80"
         id="n" />
      <path
         fill="#333"
         d="M15-148v-39h180v39H15zm0 97v-39h180v39H15"
         id="o" />
      <path
         fill="#333"
         d="M111-147c44 9 85 22 84 75-1 49-35 65-84 68v31H91V-4C40-5 12-27 5-72l45-8c4 24 15 38 41 40-2-22 4-51-2-69-39-10-76-22-76-72 0-47 35-60 78-63v-23h20v23c47 1 70 23 78 62l-46 7c-4-18-12-32-32-34v62zm-20-63c-33-4-45 46-13 54 4 1 8 2 13 4v-58zm20 170c39 5 53-51 15-60-7-2-7-2-15-4v64"
         id="p" />
      <path
         fill="#333"
         d="M110-251c83-7 118 89 53 130-17 10-36 21-38 46H78c2-56 65-53 71-103 2-21-15-35-38-34-25 1-41 14-44 38l-50-2c6-48 39-70 93-75zM77 0v-47h51V0H77"
         id="q" />
      <g
         id="a">
        <use
           transform="matrix(0.08641975308641973,0,0,0.08641975308641973,0,0)"
           xlink:href="#m"
           id="use370" />
        <use
           transform="matrix(0.08641975308641973,0,0,0.08641975308641973,20.740740740740737,0)"
           xlink:href="#n"
           id="use372" />
        <use
           transform="matrix(0.08641975308641973,0,0,0.08641975308641973,41.481481481481474,0)"
           xlink:href="#o"
           id="use374" />
        <use
           transform="matrix(0.08641975308641973,0,0,0.08641975308641973,59.62962962962962,0)"
           xlink:href="#p"
           id="use376" />
        <use
           transform="matrix(0.08641975308641973,0,0,0.08641975308641973,76.91358024691357,0)"
           xlink:href="#q"
           id="use378" />
      </g>
      <path
         fill="#333"
         d="M101-251c68 0 84 54 84 127C185-50 166 4 99 4S15-52 14-124c-1-75 17-127 87-127zm-1 216c37-5 36-46 36-89s4-89-36-89c-39 0-36 45-36 89 0 43-3 85 36 89"
         id="r" />
      <use
         transform="matrix(0.08641975308641973,0,0,0.08641975308641973,0,0)"
         xlink:href="#r"
         id="b" />
      <path
         fill="#333"
         d="M23 0v-37h61v-169l-59 37v-38l62-41h46v211h57V0H23"
         id="s" />
      <use
         transform="matrix(0.08641975308641973,0,0,0.08641975308641973,0,0)"
         xlink:href="#s"
         id="c" />
      <path
         fill="#333"
         d="M182-182c0 78-84 86-111 141h115V0H12c-6-101 99-100 120-180 1-22-12-31-33-32-23 0-32 14-35 34l-49-3c5-45 32-70 84-70 51 0 83 22 83 69"
         id="t" />
      <use
         transform="matrix(0.08641975308641973,0,0,0.08641975308641973,0,0)"
         xlink:href="#t"
         id="d" />
      <path
         fill="#333"
         d="M165-50V0h-47v-50H5v-38l105-160h55v161h33v37h-33zm-47-37l2-116L46-87h72"
         id="u" />
      <g
         id="e">
        <use
           transform="matrix(0.08641975308641973,0,0,0.08641975308641973,0,0)"
           xlink:href="#t"
           id="use388" />
        <use
           transform="matrix(0.08641975308641973,0,0,0.08641975308641973,17.283950617283946,0)"
           xlink:href="#u"
           id="use390" />
      </g>
      <path
         fill="#333"
         d="M93-157L62 0H13l31-157H16l6-33h28c2-54 40-81 100-68l-6 32c-29-8-44 9-45 36h38l-7 33H93"
         id="v" />
      <g
         id="f">
        <use
           transform="matrix(0.09259259259259256,0,0,0.09259259259259256,0,0)"
           xlink:href="#v"
           id="use394" />
        <use
           transform="matrix(0.09259259259259256,0,0,0.09259259259259256,10.370370370370367,0)"
           xlink:href="#v"
           id="use396" />
      </g>
      <path
         fill="#333"
         d="M25-224v-37h50v37H25zM75 22c2 45-34 59-81 51V38c22 5 31-5 31-27v-201h50V22"
         id="w" />
      <path
         fill="#333"
         d="M128-127c34 4 56 21 59 58 7 91-148 94-172 28-4-9-6-17-7-26l51-5c1 24 16 35 40 36 23 0 39-12 38-36-1-31-31-36-65-34v-40c32 2 59-3 59-33 0-20-13-33-34-33s-33 13-35 32l-50-3c6-44 37-68 86-68 50 0 83 20 83 66 0 35-22 52-53 58"
         id="x" />
      <path
         fill="#333"
         d="M249-155c45 1 62 31 62 79-1 48-18 79-63 79s-61-32-62-79c0-48 16-79 63-79zM97 0H61l162-248h36zM9-172c0-48 16-79 63-78 46 0 62 31 62 78 0 48-18 79-63 79S9-124 9-172zM249-25c24 0 24-26 24-51 0-26-1-52-24-52-24 0-25 26-25 52 0 25 0 51 25 51zM71-120c23 0 24-25 24-52 0-26 0-51-23-51-25 0-25 25-25 51 0 27 1 52 24 52"
         id="y" />
      <path
         fill="#333"
         d="M135-194c87-1 58 113 63 194h-50c-7-57 23-157-34-157-59 0-34 97-39 157H25l-1-190h47c2 12-1 28 3 38 12-26 28-41 61-42"
         id="z" />
      <path
         fill="#333"
         d="M133-34C117-15 103 5 69 4 32 3 11-16 11-54c-1-60 55-63 116-61 1-26-3-47-28-47-18 1-26 9-28 27l-52-2c7-38 36-58 82-57s74 22 75 68l1 82c-1 14 12 18 25 15v27c-30 8-71 5-69-32zm-48 3c29 0 43-24 42-57-32 0-66-3-65 30 0 17 8 27 23 27"
         id="A" />
      <path
         fill="#333"
         d="M115-3C79 11 28 4 28-45v-112H4v-33h27l15-45h31v45h36v33H77v99c-1 23 16 31 38 25v30"
         id="B" />
      <path
         fill="#333"
         d="M128 0H69L1-190h53L99-40l48-150h52"
         id="C" />
      <g
         id="g">
        <use
           transform="matrix(0.0987654320987654,0,0,0.0987654320987654,0,0)"
           xlink:href="#w"
           id="use406" />
        <use
           transform="matrix(0.0987654320987654,0,0,0.0987654320987654,9.876543209876539,0)"
           xlink:href="#o"
           id="use408" />
        <use
           transform="matrix(0.0987654320987654,0,0,0.0987654320987654,30.617283950617267,0)"
           xlink:href="#x"
           id="use410" />
        <use
           transform="matrix(0.0987654320987654,0,0,0.0987654320987654,50.37037037037035,0)"
           xlink:href="#t"
           id="use412" />
        <use
           transform="matrix(0.0987654320987654,0,0,0.0987654320987654,70.12345679012343,0)"
           xlink:href="#y"
           id="use414" />
        <use
           transform="matrix(0.0987654320987654,0,0,0.0987654320987654,101.72839506172834,0)"
           xlink:href="#z"
           id="use416" />
        <use
           transform="matrix(0.0987654320987654,0,0,0.0987654320987654,123.35802469135795,0)"
           xlink:href="#A"
           id="use418" />
        <use
           transform="matrix(0.0987654320987654,0,0,0.0987654320987654,143.11111111111106,0)"
           xlink:href="#B"
           id="use420" />
        <use
           transform="matrix(0.0987654320987654,0,0,0.0987654320987654,154.86419753086415,0)"
           xlink:href="#C"
           id="use422" />
      </g>
      <path
         fill="#333"
         d="M25-224v-37h50v37H25zM25 0v-190h50V0H25"
         id="D" />
      <path
         fill="#333"
         d="M135-194c53 0 70 44 70 98 0 56-19 98-73 100-31 1-45-17-59-34 3 33 2 69 2 105H25l-1-265h48c2 10 0 23 3 31 11-24 29-35 60-35zM114-30c33 0 39-31 40-66 0-38-9-64-40-64-56 0-55 130 0 130"
         id="E" />
      <g
         id="h">
        <use
           transform="matrix(0.0987654320987654,0,0,0.0987654320987654,0,0)"
           xlink:href="#D"
           id="use427" />
        <use
           transform="matrix(0.0987654320987654,0,0,0.0987654320987654,9.876543209876539,0)"
           xlink:href="#o"
           id="use429" />
        <use
           transform="matrix(0.0987654320987654,0,0,0.0987654320987654,30.617283950617267,0)"
           xlink:href="#y"
           id="use431" />
        <use
           transform="matrix(0.0987654320987654,0,0,0.0987654320987654,62.2222222222222,0)"
           xlink:href="#E"
           id="use433" />
        <use
           transform="matrix(0.0987654320987654,0,0,0.0987654320987654,83.85185185185182,0)"
           xlink:href="#B"
           id="use435" />
        <use
           transform="matrix(0.0987654320987654,0,0,0.0987654320987654,95.60493827160491,0)"
           xlink:href="#C"
           id="use437" />
        <use
           transform="matrix(0.0987654320987654,0,0,0.0987654320987654,115.35802469135798,0)"
           xlink:href="#q"
           id="use439" />
      </g>
      <g
         id="i">
        <use
           transform="matrix(0.0987654320987654,0,0,0.0987654320987654,0,0)"
           xlink:href="#z"
           id="use442" />
        <use
           transform="matrix(0.0987654320987654,0,0,0.0987654320987654,21.629629629629623,0)"
           xlink:href="#o"
           id="use444" />
        <use
           transform="matrix(0.0987654320987654,0,0,0.0987654320987654,42.37037037037035,0)"
           xlink:href="#t"
           id="use446" />
        <use
           transform="matrix(0.0987654320987654,0,0,0.0987654320987654,62.12345679012343,0)"
           xlink:href="#u"
           id="use448" />
        <use
           transform="matrix(0.0987654320987654,0,0,0.0987654320987654,81.8765432098765,0)"
           xlink:href="#E"
           id="use450" />
        <use
           transform="matrix(0.0987654320987654,0,0,0.0987654320987654,103.50617283950612,0)"
           xlink:href="#B"
           id="use452" />
        <use
           transform="matrix(0.0987654320987654,0,0,0.0987654320987654,115.25925925925922,0)"
           xlink:href="#C"
           id="use454" />
      </g>
      <path
         fill="#333"
         d="M240-174c0 40-23 61-54 70L253 0h-59l-57-94H76V0H24v-248c93 4 217-23 216 74zM76-134c48-2 112 12 112-38 0-48-66-32-112-35v73"
         id="F" />
      <path
         fill="#333"
         d="M138-131c27 9 52 24 51 61 0 53-36 74-89 74S11-19 11-69c0-35 22-54 51-61-78-25-46-121 38-121 51 0 83 19 83 66 0 30-18 49-45 54zm-38-16c24 0 32-13 32-36 1-23-11-34-32-34-22 0-33 12-32 34 0 22 9 36 32 36zm1 116c27 0 37-17 37-43 0-25-13-39-39-39-24 0-37 15-37 40 0 27 11 42 39 42"
         id="G" />
      <path
         fill="#333"
         d="M24 0v-54h51V0H24"
         id="H" />
      <g
         id="j">
        <use
           transform="matrix(0.0987654320987654,0,0,0.0987654320987654,0,0)"
           xlink:href="#F"
           id="use460" />
        <use
           transform="matrix(0.0987654320987654,0,0,0.0987654320987654,25.58024691358024,0)"
           xlink:href="#o"
           id="use462" />
        <use
           transform="matrix(0.0987654320987654,0,0,0.0987654320987654,46.32098765432097,0)"
           xlink:href="#p"
           id="use464" />
        <use
           transform="matrix(0.0987654320987654,0,0,0.0987654320987654,66.07407407407405,0)"
           xlink:href="#G"
           id="use466" />
        <use
           transform="matrix(0.0987654320987654,0,0,0.0987654320987654,85.82716049382712,0)"
           xlink:href="#r"
           id="use468" />
        <use
           transform="matrix(0.0987654320987654,0,0,0.0987654320987654,105.58024691358018,0)"
           xlink:href="#H"
           id="use470" />
        <use
           transform="matrix(0.0987654320987654,0,0,0.0987654320987654,115.45679012345676,0)"
           xlink:href="#r"
           id="use472" />
        <use
           transform="matrix(0.0987654320987654,0,0,0.0987654320987654,135.20987654320982,0)"
           xlink:href="#r"
           id="use474" />
        <use
           transform="matrix(0.0987654320987654,0,0,0.0987654320987654,154.9629629629629,0)"
           xlink:href="#r"
           id="use476" />
      </g>
      <path
         fill="#333"
         d="M33 0v-38h34V0H33"
         id="I" />
      <g
         id="k">
        <use
           transform="matrix(0.11111111111111108,0,0,0.11111111111111108,0,0)"
           xlink:href="#I"
           id="use480" />
        <use
           transform="matrix(0.11111111111111108,0,0,0.11111111111111108,11.111111111111107,0)"
           xlink:href="#I"
           id="use482" />
        <use
           transform="matrix(0.11111111111111108,0,0,0.11111111111111108,22.222222222222214,0)"
           xlink:href="#I"
           id="use484" />
        <use
           transform="matrix(0.11111111111111108,0,0,0.11111111111111108,33.33333333333332,0)"
           xlink:href="#I"
           id="use486" />
        <use
           transform="matrix(0.11111111111111108,0,0,0.11111111111111108,44.44444444444443,0)"
           xlink:href="#I"
           id="use488" />
        <use
           transform="matrix(0.11111111111111108,0,0,0.11111111111111108,55.555555555555536,0)"
           xlink:href="#I"
           id="use490" />
        <use
           transform="matrix(0.11111111111111108,0,0,0.11111111111111108,66.66666666666664,0)"
           xlink:href="#I"
           id="use492" />
        <use
           transform="matrix(0.11111111111111108,0,0,0.11111111111111108,77.77777777777774,0)"
           xlink:href="#I"
           id="use494" />
        <use
           transform="matrix(0.11111111111111108,0,0,0.11111111111111108,88.88888888888886,0)"
           xlink:href="#I"
           id="use496" />
        <use
           transform="matrix(0.11111111111111108,0,0,0.11111111111111108,99.99999999999997,0)"
           xlink:href="#I"
           id="use498" />
        <use
           transform="matrix(0.11111111111111108,0,0,0.11111111111111108,111.11111111111109,0)"
           xlink:href="#I"
           id="use500" />
        <use
           transform="matrix(0.11111111111111108,0,0,0.11111111111111108,122.22222222222221,0)"
           xlink:href="#I"
           id="use502" />
        <use
           transform="matrix(0.11111111111111108,0,0,0.11111111111111108,133.33333333333331,0)"
           xlink:href="#I"
           id="use504" />
        <use
           transform="matrix(0.11111111111111108,0,0,0.11111111111111108,144.44444444444443,0)"
           xlink:href="#I"
           id="use506" />
        <use
           transform="matrix(0.11111111111111108,0,0,0.11111111111111108,155.55555555555554,0)"
           xlink:href="#I"
           id="use508" />
        <use
           transform="matrix(0.11111111111111108,0,0,0.11111111111111108,166.66666666666666,0)"
           xlink:href="#I"
           id="use510" />
        <use
           transform="matrix(0.11111111111111108,0,0,0.11111111111111108,177.77777777777777,0)"
           xlink:href="#I"
           id="use512" />
        <use
           transform="matrix(0.11111111111111108,0,0,0.11111111111111108,188.88888888888889,0)"
           xlink:href="#I"
           id="use514" />
        <use
           transform="matrix(0.11111111111111108,0,0,0.11111111111111108,200,0)"
           xlink:href="#I"
           id="use516" />
        <use
           transform="matrix(0.11111111111111108,0,0,0.11111111111111108,211.11111111111111,0)"
           xlink:href="#I"
           id="use518" />
        <use
           transform="matrix(0.11111111111111108,0,0,0.11111111111111108,222.22222222222223,0)"
           xlink:href="#I"
           id="use520" />
        <use
           transform="matrix(0.11111111111111108,0,0,0.11111111111111108,233.33333333333337,0)"
           xlink:href="#I"
           id="use522" />
        <use
           transform="matrix(0.11111111111111108,0,0,0.11111111111111108,244.44444444444446,0)"
           xlink:href="#I"
           id="use524" />
        <use
           transform="matrix(0.11111111111111108,0,0,0.11111111111111108,255.55555555555557,0)"
           xlink:href="#I"
           id="use526" />
        <use
           transform="matrix(0.11111111111111108,0,0,0.11111111111111108,266.6666666666667,0)"
           xlink:href="#I"
           id="use528" />
      </g>
      <g
         id="l">
        <use
           transform="matrix(0.08024691358024691,0,0,0.08024691358024691,0,0)"
           xlink:href="#E"
           id="use531" />
        <use
           transform="matrix(0.08024691358024691,0,0,0.08024691358024691,17.574074074074073,0)"
           xlink:href="#B"
           id="use533" />
        <use
           transform="matrix(0.08024691358024691,0,0,0.08024691358024691,27.123456790123456,0)"
           xlink:href="#C"
           id="use535" />
      </g>
    </defs>
  </g>
  <text
     xml:space="preserve"
     style="font-weight:bold;font-size:26.6667px;font-family:sans-serif;-inkscape-font-specification:'sans-serif Bold';fill:#000000"
     x="181.66722"
     y="609.00879"
     id="text807"><tspan
       sodipodi:role="line"
       id="tspan805"
       x="181.66722"
       y="609.00879">pf</tspan></text>
  <path
     sodipodi:type="star"
     style="fill:#201aff;stroke:#201aff;stroke-opacity:1;fill-opacity:1"
     id="path1030"
     inkscape:flatsided="true"
     sodipodi:sides="3"
     sodipodi:cx="119.54268"
     sodipodi:cy="441.46078"
     sodipodi:r1="13.177933"
     sodipodi:r2="6.5889668"
     sodipodi:arg1="3.1415927"
     sodipodi:arg2="4.1887902"
     inkscape:rounded="0"
     inkscape:randomized="0"
     d="m 106.36475,441.46078 19.7669,-11.41242 -10e-6,22.82485 z"
     inkscape:transform-center-x="3.2944833"
     transform="translate(78.126319,192.9626)" />
  <text
     xml:space="preserve"
     style="font-weight:bold;font-size:26.6667px;font-family:sans-serif;-inkscape-font-specification:'sans-serif Bold';fill:#000000"
     x="326.62448"
     y="466.87537"
     id="text1314"><tspan
       sodipodi:role="line"
       id="tspan1312"
       x="326.62448"
       y="466.87537"
       style="fill:#333333">R=80.000 COP</tspan></text>
  <text
     xml:space="preserve"
     style="font-weight:bold;font-size:26.6667px;font-family:sans-serif;-inkscape-font-specification:'sans-serif Bold';fill:#000000"
     x="328.50705"
     y="404.75082"
     id="text1368"><tspan
       sodipodi:role="line"
       id="tspan1366"
       x="328.50705"
       y="404.75082"
       style="fill:#333333">i=8%ptv</tspan></text>
  <text
     xml:space="preserve"
     style="font-weight:bold;font-size:26.6667px;font-family:sans-serif;-inkscape-font-specification:'sans-serif Bold';fill:#333333"
     x="41.416363"
     y="369.92343"
     id="text1422"><tspan
       sodipodi:role="line"
       id="tspan1420"
       x="41.416363"
       y="369.92343">VP=?COP</tspan></text>
</svg>
