<svg xmlns="http://www.w3.org/2000/svg" xmlns:xlink="http://www.w3.org/1999/xlink" xmlns:lucid="lucid" width="1360" height="811"><g transform="translate(-60 -160)" lucid:page-tab-id="0_0"><path d="M201 400h998M201.03 400H200M1198.97 400h1.03M200 401v340.5M200 401.03V400" stroke="#000" stroke-width="2" fill="none"/><path d="M200 756.76l-4.64-14.26h9.28z" stroke="#000" stroke-width="2"/><path d="M80 766c0-3.3 2.7-6 6-6h228c3.3 0 6 2.7 6 6v28c0 3.3-2.7 6-6 6H86c-3.3 0-6-2.7-6-6z" stroke="#000" stroke-opacity="0" stroke-width="3" fill="#fff" fill-opacity="0"/><use xlink:href="#a" transform="matrix(1,0,0,1,85,765) translate(48.08641975308642 19.65277777777778)"/><path d="M1200 376.67c0-3.32 2.7-6 6-6h65.33c3.32 0 6 2.68 6 6v48c0 3.3-2.68 6-6 6H1206c-3.3 0-6-2.7-6-6z" stroke="#000" stroke-opacity="0" stroke-width="3" fill="#fff" fill-opacity="0"/><use xlink:href="#b" transform="matrix(1,0,0,1,1205,375.6666666666667) translate(16.098765432098766 30.27777777777778)"/><path d="M200 406c0-3.3 2.7-6 6-6h28c3.3 0 6 2.7 6 6v28c0 3.3-2.7 6-6 6h-28c-3.3 0-6-2.7-6-6z" stroke="#000" stroke-opacity="0" stroke-width="3" fill="#fff" fill-opacity="0"/><use xlink:href="#c" transform="matrix(1,0,0,1,205,405) translate(10.06172839506173 17.97222222222222)"/><path d="M380 406c0-3.3 2.7-6 6-6h28c3.3 0 6 2.7 6 6v28c0 3.3-2.7 6-6 6h-28c-3.3 0-6-2.7-6-6z" stroke="#000" stroke-opacity="0" stroke-width="3" fill="#fff" fill-opacity="0"/><use xlink:href="#d" transform="matrix(1,0,0,1,385,405) translate(10.06172839506173 17.97222222222222)"/><path d="M580 406c0-3.3 2.7-6 6-6h28c3.3 0 6 2.7 6 6v28c0 3.3-2.7 6-6 6h-28c-3.3 0-6-2.7-6-6z" stroke="#000" stroke-opacity="0" stroke-width="3" fill="#fff" fill-opacity="0"/><use xlink:href="#e" transform="matrix(1,0,0,1,585,405) translate(10.06172839506173 17.97222222222222)"/><path d="M780 406c0-3.3 2.7-6 6-6h28c3.3 0 6 2.7 6 6v28c0 3.3-2.7 6-6 6h-28c-3.3 0-6-2.7-6-6z" stroke="#000" stroke-opacity="0" stroke-width="3" fill="#fff" fill-opacity="0"/><use xlink:href="#f" transform="matrix(1,0,0,1,785,405) translate(10.06172839506173 17.97222222222222)"/><path d="M980 406c0-3.3 2.7-6 6-6h28c3.3 0 6 2.7 6 6v28c0 3.3-2.7 6-6 6h-28c-3.3 0-6-2.7-6-6z" stroke="#000" stroke-opacity="0" stroke-width="3" fill="#fff" fill-opacity="0"/><use xlink:href="#g" transform="matrix(1,0,0,1,985,405) translate(10.06172839506173 17.97222222222222)"/><path d="M1180 406c0-3.3 2.7-6 6-6h28c3.3 0 6 2.7 6 6v28c0 3.3-2.7 6-6 6h-28c-3.3 0-6-2.7-6-6z" stroke="#000" stroke-opacity="0" stroke-width="3" fill="#fff" fill-opacity="0"/><use xlink:href="#h" transform="matrix(1,0,0,1,1185,405) translate(10.06172839506173 17.97222222222222)"/><path d="M400 441v20.5" stroke="#000" stroke-width="2" fill="none"/><path d="M401 441.03h-2V440h2z"/><path d="M400 476.76l-4.64-14.26h9.28z" stroke="#000" stroke-width="2"/><path d="M280 486c0-3.3 2.7-6 6-6h228c3.3 0 6 2.7 6 6v28c0 3.3-2.7 6-6 6H286c-3.3 0-6-2.7-6-6z" stroke="#000" stroke-opacity="0" stroke-width="3" fill="#fff" fill-opacity="0"/><use xlink:href="#i" transform="matrix(1,0,0,1,285,485) translate(71.34567901234568 17.97222222222222)"/><path d="M600 441v40.5M600 441.03V440" stroke="#000" stroke-width="2" fill="none"/><path d="M600 496.76l-4.64-14.26h9.28z" stroke="#000" stroke-width="2"/><path d="M480 506c0-3.3 2.7-6 6-6h228c3.3 0 6 2.7 6 6v28c0 3.3-2.7 6-6 6H486c-3.3 0-6-2.7-6-6z" stroke="#000" stroke-opacity="0" stroke-width="3" fill="#fff" fill-opacity="0"/><use xlink:href="#j" transform="matrix(1,0,0,1,485,505) translate(71.34567901234568 17.97222222222222)"/><path d="M800 441v60.5M800 441.03V440" stroke="#000" stroke-width="2" fill="none"/><path d="M800 516.76l-4.64-14.26h9.28z" stroke="#000" stroke-width="2"/><path d="M680 526c0-3.3 2.7-6 6-6h228c3.3 0 6 2.7 6 6v28c0 3.3-2.7 6-6 6H686c-3.3 0-6-2.7-6-6z" stroke="#000" stroke-opacity="0" stroke-width="3" fill="#fff" fill-opacity="0"/><use xlink:href="#k" transform="matrix(1,0,0,1,685,525) translate(71.34567901234568 17.97222222222222)"/><path d="M1000 441v80.5M1000 441.03V440" stroke="#000" stroke-width="2" fill="none"/><path d="M1000 536.76l-4.64-14.26h9.28z" stroke="#000" stroke-width="2"/><path d="M880 546c0-3.3 2.7-6 6-6h228c3.3 0 6 2.7 6 6v28c0 3.3-2.7 6-6 6H886c-3.3 0-6-2.7-6-6z" stroke="#000" stroke-opacity="0" stroke-width="3" fill="#fff" fill-opacity="0"/><use xlink:href="#l" transform="matrix(1,0,0,1,885,545) translate(71.34567901234568 17.97222222222222)"/><path d="M1200 441v100.5M1200 441.03V440" stroke="#000" stroke-width="2" fill="none"/><path d="M1200 556.76l-4.64-14.26h9.28z" stroke="#000" stroke-width="2"/><path d="M1080 566c0-3.3 2.7-6 6-6h228c3.3 0 6 2.7 6 6v28c0 3.3-2.7 6-6 6h-228c-3.3 0-6-2.7-6-6z" stroke="#000" stroke-opacity="0" stroke-width="3" fill="#fff" fill-opacity="0"/><use xlink:href="#m" transform="matrix(1,0,0,1,1085,565) translate(67.07407407407408 17.97222222222222)"/><path d="M1200.97 440.24l78.06 19.52M1201 440.25l-1-.25M1279 459.75l1 .25M1280 461v180.5M1280 461.03V460" stroke="#000" stroke-width="2" fill="none"/><path d="M1280 656.76l-4.64-14.26h9.28z" stroke="#000" stroke-width="2"/><path d="M1160 666c0-3.3 2.7-6 6-6h228c3.3 0 6 2.7 6 6v48c0 3.3-2.7 6-6 6h-228c-3.3 0-6-2.7-6-6z" stroke="#000" stroke-opacity="0" stroke-width="3" fill="#fff" fill-opacity="0"/><use xlink:href="#n" transform="matrix(1,0,0,1,1165,665) translate(61.46913580246914 29.84722222222222)"/><path d="M200.02 801l.08 4.02m.16 8.03v.3l.5 7.73m.7 8l.3 2.88.76 5.08m1.44 7.9l1.1 4.65.87 3.14m2.53 7.62l.34.9 1.32 3.14 1.35 2.87.23.44m4.02 6.96l1.5 2.17 1.57 2.05 1.6 1.96.2.2m5.66 5.7l1.5 1.28 2.13 1.7 2.3 1.67.4.26m6.87 4.17l1.12.62 3.5 1.74 2.6 1.14m7.45 2.97l5.08 1.77 2.55.77m7.72 2.23l7.8 1.98m7.8 1.84l7.86 1.7m7.85 1.7l7.86 1.72m7.85 1.7l7.87 1.72m7.85 1.7l7.85 1.7m7.85 1.7l7.86 1.7m7.86 1.67l7.86 1.7m7.86 1.67l.13.03 7.78 1.32m7.92 1.35l7.92 1.35m7.92 1.35l7.93 1.35m7.92 1.35l7.96 1m7.97 1.03l7.97 1m7.97 1.03l7.97 1.02m7.98 1l7.97 1.03m7.96 1l1.5.2 6.5.56m8 .68l8 .7m8.02.67l8 .68m8 .68l8.02.68m8 .7l8 .67m8.02.7l7.06.6.95.04m8.03.35l8.02.34m8.03.35l8.04.35m8.03.35l8.03.35m8.02.35l8.03.35m8.03.36l8.03.36m8.04.35l8.03.36m8.03.17l8.03.1m8.04.1l8.03.08m8.04.1l8.03.1m8.04.1h.7l7.34-.13m8.04-.14l8.03-.14m8.05-.15l8.03-.14m8.04-.13l8.03-.15m8.04-.14l8.02-.14m8.04-.14l8.03-.14m8.02-.14l8.04-.14m8.03-.14l4.1-.07 3.92-.25m8.02-.5l8.02-.48m8.02-.5l8.02-.48m8.03-.5l8.02-.5m8-.5l8-.84m8-.83l8-.84m8-.83l7.98-.83m7.95-1.15l7.95-1.17m7.95-1.16l7.67-1.13.28-.06m7.9-1.5l7.9-1.5m7.88-1.5l.87-.17 6.98-1.63m7.82-1.83l5.7-1.32 2.1-.6m7.74-2.15l7.5-2.08.25-.08m7.64-2.48l7.02-2.3.6-.22m7.54-2.8l4.9-1.82 2.6-1.1m7.4-3.1l1.55-.65 5.76-2.7m7.22-3.52l6.64-3.47.47-.26m6.95-4.02l1-.58 5.8-3.68m6.66-4.5l2.35-1.64 4.13-3.13m6.28-5.03l2.22-1.84 3.83-3.45m5.82-5.54l1.33-1.3 4.23-4.5m5.28-6.06l.14-.16 4.4-5.57.44-.58m4.66-6.54l3.02-4.54 1.34-2.22m4.04-6.95l1.86-3.4 1.85-3.72m3.4-7.27l1.22-2.72 1.86-4.7m2.75-7.54l1.05-3.02 1.4-4.63m2.16-7.73l1.26-4.95.6-2.87m1.64-7.86l1.33-7.94m1.07-7.96l.6-4.8.27-3.2m.68-8l.1-1.25.12-2.76" stroke="#000" stroke-width="2" fill="none"/><path d="M201.02 801l-2 .05L199 800h2z"/><path d="M1201.24 723.23l4.22 14.4-9.27-.27z" stroke="#000" stroke-width="2"/><path d="M580 826c0-3.3 2.7-6 6-6h228c3.3 0 6 2.7 6 6v48c0 3.3-2.7 6-6 6H586c-3.3 0-6-2.7-6-6z" stroke="#000" stroke-opacity="0" stroke-width="3" fill="#fff" fill-opacity="0"/><use xlink:href="#o" transform="matrix(1,0,0,1,585,825) translate(49.50925925925928 28.930555555555554)"/><use xlink:href="#p" transform="matrix(1,0,0,1,585,825) translate(85.42901234567903 28.930555555555554)"/><use xlink:href="#q" transform="matrix(1,0,0,1,585,825) translate(141.10802469135803 28.930555555555554)"/><path d="M200 399v-3.7m0-7.43v-7.4m0-7.43v-7.42m0-7.4v-7.43m0-7.43v-7.4m0-7.43v-7.42m0-7.4v-8.19m0-8.94v-8.94m0-8.94v-8.94m0-8.93v-8.94m0-8.93v-4.47M200 398.97V400" stroke="#000" stroke-width="2" fill="none"/><path d="M200 223.24l4.64 14.26h-9.28z" stroke="#000" stroke-width="2"/><path d="M140 186c0-3.3 2.7-6 6-6h108c3.3 0 6 2.7 6 6v28c0 3.3-2.7 6-6 6H146c-3.3 0-6-2.7-6-6z" stroke="#000" stroke-opacity="0" stroke-width="3" fill="#fff" fill-opacity="0"/><g><use xlink:href="#r" transform="matrix(1,0,0,1,145,185) translate(49.043209876543216 19.65277777777777)"/></g><defs><path fill="#333" d="M194-70c0 46-34 64-81 66v29H91V-4C42-5 12-27 4-67l30-6c5 28 25 41 57 43v-87c-38-9-76-20-76-67 1-42 33-58 76-59v-23h22v23c45 0 67 20 76 56l-31 6c-5-23-18-35-45-37v78c41 10 81 20 81 70zm-81 41c51 7 71-66 19-77-6-2-12-4-19-6v83zM91-219c-47-6-63 57-18 69 6 2 12 3 18 5v-74" id="s"/><path fill="#333" d="M134-131c28 9 52 24 51 62-1 50-34 73-85 73S17-19 16-69c0-36 21-54 49-61-75-25-45-126 34-121 46 3 78 18 79 63 0 33-17 51-44 57zm-34-11c31 1 46-15 46-44 0-28-17-43-47-42-29 0-46 13-45 42 1 28 16 44 46 44zm1 122c35 0 51-18 51-52 0-30-18-46-53-46-33 0-51 17-51 47 0 34 19 51 53 51" id="t"/><path fill="#333" d="M54-142c48-35 137-8 131 61C196 18 31 33 14-55l32-4c7 23 22 37 52 37 35-1 51-22 54-58 4-55-73-65-99-34H22l8-134h141v27H59" id="u"/><path fill="#333" d="M101-251c68 0 85 55 85 127S166 4 100 4C33 4 14-52 14-124c0-73 17-127 87-127zm-1 229c47 0 54-49 54-102s-4-102-53-102c-51 0-55 48-55 102 0 53 5 102 54 102" id="v"/><path fill="#333" d="M47-170H22l-4-78h33" id="w"/><path fill="#333" d="M33 0v-38h34V0H33" id="x"/><g id="a"><use transform="matrix(0.06172839506172839,0,0,0.06172839506172839,0,0)" xlink:href="#s"/><use transform="matrix(0.06172839506172839,0,0,0.06172839506172839,12.345679012345679,0)" xlink:href="#t"/><use transform="matrix(0.06172839506172839,0,0,0.06172839506172839,24.691358024691358,0)" xlink:href="#u"/><use transform="matrix(0.06172839506172839,0,0,0.06172839506172839,37.03703703703704,0)" xlink:href="#v"/><use transform="matrix(0.06172839506172839,0,0,0.06172839506172839,49.382716049382715,0)" xlink:href="#w"/><use transform="matrix(0.06172839506172839,0,0,0.06172839506172839,53.58024691358025,0)" xlink:href="#v"/><use transform="matrix(0.06172839506172839,0,0,0.06172839506172839,65.92592592592592,0)" xlink:href="#v"/><use transform="matrix(0.06172839506172839,0,0,0.06172839506172839,78.27160493827161,0)" xlink:href="#v"/><use transform="matrix(0.06172839506172839,0,0,0.06172839506172839,90.61728395061729,0)" xlink:href="#x"/><use transform="matrix(0.06172839506172839,0,0,0.06172839506172839,96.79012345679013,0)" xlink:href="#v"/><use transform="matrix(0.06172839506172839,0,0,0.06172839506172839,109.13580246913581,0)" xlink:href="#v"/><use transform="matrix(0.06172839506172839,0,0,0.06172839506172839,121.4814814814815,0)" xlink:href="#v"/></g><path fill="#333" d="M115-194c55 1 70 41 70 98S169 2 115 4C84 4 66-9 55-30l1 105H24l-1-265h31l2 30c10-21 28-34 59-34zm-8 174c40 0 45-34 45-75s-6-73-45-74c-42 0-51 32-51 76 0 43 10 73 51 73" id="y"/><path fill="#333" d="M141-36C126-15 110 5 73 4 37 3 15-17 15-53c-1-64 63-63 125-63 3-35-9-54-41-54-24 1-41 7-42 31l-33-3c5-37 33-52 76-52 45 0 72 20 72 64v82c-1 20 7 32 28 27v20c-31 9-61-2-59-35zM48-53c0 20 12 33 32 33 41-3 63-29 60-74-43 2-92-5-92 41" id="z"/><path fill="#333" d="M108 0H70L1-190h34L89-25l56-165h34" id="A"/><g id="b"><use transform="matrix(0.06172839506172839,0,0,0.06172839506172839,0,0)" xlink:href="#y"/><use transform="matrix(0.06172839506172839,0,0,0.06172839506172839,12.345679012345679,0)" xlink:href="#z"/><use transform="matrix(0.06172839506172839,0,0,0.06172839506172839,24.691358024691358,0)" xlink:href="#A"/></g><use transform="matrix(0.049382716049382706,0,0,0.049382716049382706,0,0)" xlink:href="#v" id="c"/><path fill="#333" d="M27 0v-27h64v-190l-56 39v-29l58-41h29v221h61V0H27" id="B"/><use transform="matrix(0.049382716049382706,0,0,0.049382716049382706,0,0)" xlink:href="#B" id="d"/><path fill="#333" d="M101-251c82-7 93 87 43 132L82-64C71-53 59-42 53-27h129V0H18c2-99 128-94 128-182 0-28-16-43-45-43s-46 15-49 41l-32-3c6-41 34-60 81-64" id="C"/><use transform="matrix(0.049382716049382706,0,0,0.049382716049382706,0,0)" xlink:href="#C" id="e"/><path fill="#333" d="M126-127c33 6 58 20 58 59 0 88-139 92-164 29-3-8-5-16-6-25l32-3c6 27 21 44 54 44 32 0 52-15 52-46 0-38-36-46-79-43v-28c39 1 72-4 72-42 0-27-17-43-46-43-28 0-47 15-49 41l-32-3c6-42 35-63 81-64 48-1 79 21 79 65 0 36-21 52-52 59" id="D"/><use transform="matrix(0.049382716049382706,0,0,0.049382716049382706,0,0)" xlink:href="#D" id="f"/><path fill="#333" d="M155-56V0h-30v-56H8v-25l114-167h33v167h35v25h-35zm-30-156c-27 46-58 90-88 131h88v-131" id="E"/><use transform="matrix(0.049382716049382706,0,0,0.049382716049382706,0,0)" xlink:href="#E" id="g"/><use transform="matrix(0.049382716049382706,0,0,0.049382716049382706,0,0)" xlink:href="#u" id="h"/><g id="i"><use transform="matrix(0.049382716049382706,0,0,0.049382716049382706,0,0)" xlink:href="#s"/><use transform="matrix(0.049382716049382706,0,0,0.049382716049382706,9.87654320987654,0)" xlink:href="#D"/><use transform="matrix(0.049382716049382706,0,0,0.049382716049382706,19.75308641975308,0)" xlink:href="#w"/><use transform="matrix(0.049382716049382706,0,0,0.049382716049382706,23.111111111111107,0)" xlink:href="#v"/><use transform="matrix(0.049382716049382706,0,0,0.049382716049382706,32.987654320987644,0)" xlink:href="#v"/><use transform="matrix(0.049382716049382706,0,0,0.049382716049382706,42.86419753086419,0)" xlink:href="#v"/><use transform="matrix(0.049382716049382706,0,0,0.049382716049382706,52.74074074074073,0)" xlink:href="#x"/><use transform="matrix(0.049382716049382706,0,0,0.049382716049382706,57.679012345679,0)" xlink:href="#v"/><use transform="matrix(0.049382716049382706,0,0,0.049382716049382706,67.55555555555554,0)" xlink:href="#v"/><use transform="matrix(0.049382716049382706,0,0,0.049382716049382706,77.43209876543209,0)" xlink:href="#v"/></g><g id="j"><use transform="matrix(0.049382716049382706,0,0,0.049382716049382706,0,0)" xlink:href="#s"/><use transform="matrix(0.049382716049382706,0,0,0.049382716049382706,9.87654320987654,0)" xlink:href="#u"/><use transform="matrix(0.049382716049382706,0,0,0.049382716049382706,19.75308641975308,0)" xlink:href="#w"/><use transform="matrix(0.049382716049382706,0,0,0.049382716049382706,23.111111111111107,0)" xlink:href="#v"/><use transform="matrix(0.049382716049382706,0,0,0.049382716049382706,32.987654320987644,0)" xlink:href="#v"/><use transform="matrix(0.049382716049382706,0,0,0.049382716049382706,42.86419753086419,0)" xlink:href="#v"/><use transform="matrix(0.049382716049382706,0,0,0.049382716049382706,52.74074074074073,0)" xlink:href="#x"/><use transform="matrix(0.049382716049382706,0,0,0.049382716049382706,57.679012345679,0)" xlink:href="#v"/><use transform="matrix(0.049382716049382706,0,0,0.049382716049382706,67.55555555555554,0)" xlink:href="#v"/><use transform="matrix(0.049382716049382706,0,0,0.049382716049382706,77.43209876543209,0)" xlink:href="#v"/></g><path fill="#333" d="M64 0c3-98 48-159 88-221H18v-27h164v26C143-157 98-101 97 0H64" id="F"/><g id="k"><use transform="matrix(0.049382716049382706,0,0,0.049382716049382706,0,0)" xlink:href="#s"/><use transform="matrix(0.049382716049382706,0,0,0.049382716049382706,9.87654320987654,0)" xlink:href="#F"/><use transform="matrix(0.049382716049382706,0,0,0.049382716049382706,19.75308641975308,0)" xlink:href="#w"/><use transform="matrix(0.049382716049382706,0,0,0.049382716049382706,23.111111111111107,0)" xlink:href="#v"/><use transform="matrix(0.049382716049382706,0,0,0.049382716049382706,32.987654320987644,0)" xlink:href="#v"/><use transform="matrix(0.049382716049382706,0,0,0.049382716049382706,42.86419753086419,0)" xlink:href="#v"/><use transform="matrix(0.049382716049382706,0,0,0.049382716049382706,52.74074074074073,0)" xlink:href="#x"/><use transform="matrix(0.049382716049382706,0,0,0.049382716049382706,57.679012345679,0)" xlink:href="#v"/><use transform="matrix(0.049382716049382706,0,0,0.049382716049382706,67.55555555555554,0)" xlink:href="#v"/><use transform="matrix(0.049382716049382706,0,0,0.049382716049382706,77.43209876543209,0)" xlink:href="#v"/></g><path fill="#333" d="M99-251c64 0 84 50 84 122C183-37 130 33 47-8c-14-7-20-23-25-40l30-5c6 39 69 39 84 7 9-19 16-44 16-74-10 22-31 35-62 35-49 0-73-33-73-83 0-54 28-83 82-83zm-1 141c31-1 51-18 51-49 0-36-14-67-51-67-34 0-49 23-49 58 0 34 15 58 49 58" id="G"/><g id="l"><use transform="matrix(0.049382716049382706,0,0,0.049382716049382706,0,0)" xlink:href="#s"/><use transform="matrix(0.049382716049382706,0,0,0.049382716049382706,9.87654320987654,0)" xlink:href="#G"/><use transform="matrix(0.049382716049382706,0,0,0.049382716049382706,19.75308641975308,0)" xlink:href="#w"/><use transform="matrix(0.049382716049382706,0,0,0.049382716049382706,23.111111111111107,0)" xlink:href="#v"/><use transform="matrix(0.049382716049382706,0,0,0.049382716049382706,32.987654320987644,0)" xlink:href="#v"/><use transform="matrix(0.049382716049382706,0,0,0.049382716049382706,42.86419753086419,0)" xlink:href="#v"/><use transform="matrix(0.049382716049382706,0,0,0.049382716049382706,52.74074074074073,0)" xlink:href="#x"/><use transform="matrix(0.049382716049382706,0,0,0.049382716049382706,57.679012345679,0)" xlink:href="#v"/><use transform="matrix(0.049382716049382706,0,0,0.049382716049382706,67.55555555555554,0)" xlink:href="#v"/><use transform="matrix(0.049382716049382706,0,0,0.049382716049382706,77.43209876543209,0)" xlink:href="#v"/></g><g id="m"><use transform="matrix(0.049382716049382706,0,0,0.049382716049382706,0,0)" xlink:href="#s"/><use transform="matrix(0.049382716049382706,0,0,0.049382716049382706,9.87654320987654,0)" xlink:href="#B"/><use transform="matrix(0.049382716049382706,0,0,0.049382716049382706,18.41975308641975,0)" xlink:href="#B"/><use transform="matrix(0.049382716049382706,0,0,0.049382716049382706,28.29629629629629,0)" xlink:href="#w"/><use transform="matrix(0.049382716049382706,0,0,0.049382716049382706,31.654320987654316,0)" xlink:href="#v"/><use transform="matrix(0.049382716049382706,0,0,0.049382716049382706,41.53086419753086,0)" xlink:href="#v"/><use transform="matrix(0.049382716049382706,0,0,0.049382716049382706,51.40740740740741,0)" xlink:href="#v"/><use transform="matrix(0.049382716049382706,0,0,0.049382716049382706,61.28395061728395,0)" xlink:href="#x"/><use transform="matrix(0.049382716049382706,0,0,0.049382716049382706,66.22222222222221,0)" xlink:href="#v"/><use transform="matrix(0.049382716049382706,0,0,0.049382716049382706,76.09876543209876,0)" xlink:href="#v"/><use transform="matrix(0.049382716049382706,0,0,0.049382716049382706,85.9753086419753,0)" xlink:href="#v"/></g><g id="n"><use transform="matrix(0.049382716049382706,0,0,0.049382716049382706,0,0)" xlink:href="#s"/><use transform="matrix(0.049382716049382706,0,0,0.049382716049382706,9.87654320987654,0)" xlink:href="#B"/><use transform="matrix(0.049382716049382706,0,0,0.049382716049382706,19.75308641975308,0)" xlink:href="#v"/><use transform="matrix(0.049382716049382706,0,0,0.049382716049382706,29.629629629629623,0)" xlink:href="#v"/><use transform="matrix(0.049382716049382706,0,0,0.049382716049382706,39.50617283950616,0)" xlink:href="#w"/><use transform="matrix(0.049382716049382706,0,0,0.049382716049382706,42.86419753086419,0)" xlink:href="#v"/><use transform="matrix(0.049382716049382706,0,0,0.049382716049382706,52.74074074074073,0)" xlink:href="#v"/><use transform="matrix(0.049382716049382706,0,0,0.049382716049382706,62.617283950617285,0)" xlink:href="#v"/><use transform="matrix(0.049382716049382706,0,0,0.049382716049382706,72.49382716049382,0)" xlink:href="#x"/><use transform="matrix(0.049382716049382706,0,0,0.049382716049382706,77.43209876543209,0)" xlink:href="#v"/><use transform="matrix(0.049382716049382706,0,0,0.049382716049382706,87.30864197530863,0)" xlink:href="#v"/><use transform="matrix(0.049382716049382706,0,0,0.049382716049382706,97.18518518518518,0)" xlink:href="#v"/></g><path fill="#333" d="M24-231v-30h32v30H24zM24 0v-190h32V0H24" id="H"/><path fill="#333" d="M18-150v-26h174v26H18zm0 90v-26h174v26H18" id="I"/><g id="o"><use transform="matrix(0.06790123456790122,0,0,0.06790123456790122,0,0)" xlink:href="#H"/><use transform="matrix(0.04753086419753085,0,0,0.04753086419753085,5.364197530864196,3.422222222222221)" xlink:href="#B"/><use transform="matrix(0.06790123456790122,0,0,0.06790123456790122,14.870370370370367,0)" xlink:href="#I"/></g><path fill="#333" d="M252-156c43 0 55 33 55 80 0 46-13 78-56 78-42 0-55-33-55-78 0-48 12-80 56-80zM93 0H65l162-248h28zM13-171c-1-47 13-79 56-79s55 33 55 79-13 79-55 79c-43 0-56-33-56-79zM251-17c28 0 30-29 30-59 0-31-1-60-29-60-29 0-31 29-31 60 0 29 2 59 30 59zM69-112c27 0 28-30 29-59 0-31-1-60-29-60-29 0-30 30-30 60s2 59 30 59" id="J"/><g id="p"><use transform="matrix(0.06790123456790122,0,0,0.06790123456790122,0,0)" xlink:href="#C"/><use transform="matrix(0.06790123456790122,0,0,0.06790123456790122,13.580246913580243,0)" xlink:href="#u"/><use transform="matrix(0.06790123456790122,0,0,0.06790123456790122,27.160493827160487,0)" xlink:href="#J"/></g><g id="q"><use transform="matrix(0.06790123456790122,0,0,0.06790123456790122,0,0)" xlink:href="#y"/><use transform="matrix(0.06790123456790122,0,0,0.06790123456790122,13.580246913580243,0)" xlink:href="#z"/><use transform="matrix(0.06790123456790122,0,0,0.06790123456790122,27.160493827160487,0)" xlink:href="#A"/></g><path fill="#333" d="M101-234c-31-9-42 10-38 44h38v23H63V0H32v-167H5v-23h27c-7-52 17-82 69-68v24" id="K"/><g id="r"><use transform="matrix(0.06172839506172837,0,0,0.06172839506172837,0,0)" xlink:href="#K"/><use transform="matrix(0.06172839506172837,0,0,0.06172839506172837,5.740740740740738,0)" xlink:href="#K"/></g></defs></g></svg>