<svg xmlns="http://www.w3.org/2000/svg" xmlns:xlink="http://www.w3.org/1999/xlink" xmlns:lucid="lucid" width="1325.33" height="632.77"><g transform="translate(-60 -160)" lucid:page-tab-id="0_0"><path d="M201 400h998M201.03 400H200M1198.97 400h1.03" stroke="#000" stroke-width="2" fill="none"/><path d="M1125.33 379.33c0-3.3 2.7-6 6-6h228c3.32 0 6 2.7 6 6v48c0 3.32-2.68 6-6 6h-228c-3.3 0-6-2.68-6-6z" stroke="#000" stroke-opacity="0" stroke-width="3" fill="#fff" fill-opacity="0"/><use xlink:href="#a" transform="matrix(1,0,0,1,1130.3333333333333,378.3333333333333) translate(93.51851851851852 30.708333333333332)"/><path d="M200 401v180.5M200 401.03V400" stroke="#000" stroke-width="2" fill="none"/><path d="M200 596.76l-4.64-14.26h9.28z" stroke="#000" stroke-width="2"/><path d="M80 606c0-3.3 2.7-6 6-6h228c3.3 0 6 2.7 6 6v28c0 3.3-2.7 6-6 6H86c-3.3 0-6-2.7-6-6z" stroke="#000" stroke-opacity="0" stroke-width="3" fill="#fff" fill-opacity="0"/><use xlink:href="#b" transform="matrix(1,0,0,1,85,605) translate(49.51851851851853 23.208333333333332)"/><path d="M200 406c0-3.3 2.7-6 6-6h28c3.3 0 6 2.7 6 6v28c0 3.3-2.7 6-6 6h-28c-3.3 0-6-2.7-6-6z" stroke="#000" stroke-opacity="0" stroke-width="3" fill="#fff" fill-opacity="0"/><use xlink:href="#c" transform="matrix(1,0,0,1,205,405) translate(10.061728395061731 17.972222222222218)"/><path d="M380 406c0-3.3 2.7-6 6-6h28c3.3 0 6 2.7 6 6v28c0 3.3-2.7 6-6 6h-28c-3.3 0-6-2.7-6-6z" stroke="#000" stroke-opacity="0" stroke-width="3" fill="#fff" fill-opacity="0"/><use xlink:href="#d" transform="matrix(1,0,0,1,385,405) translate(10.061728395061731 17.972222222222218)"/><path d="M580 406c0-3.3 2.7-6 6-6h28c3.3 0 6 2.7 6 6v28c0 3.3-2.7 6-6 6h-28c-3.3 0-6-2.7-6-6z" stroke="#000" stroke-opacity="0" stroke-width="3" fill="#fff" fill-opacity="0"/><use xlink:href="#e" transform="matrix(1,0,0,1,585,405) translate(10.061728395061731 17.972222222222218)"/><path d="M780 406c0-3.3 2.7-6 6-6h28c3.3 0 6 2.7 6 6v28c0 3.3-2.7 6-6 6h-28c-3.3 0-6-2.7-6-6z" stroke="#000" stroke-opacity="0" stroke-width="3" fill="#fff" fill-opacity="0"/><use xlink:href="#f" transform="matrix(1,0,0,1,785,405) translate(10.061728395061731 17.972222222222218)"/><path d="M980 406c0-3.3 2.7-6 6-6h28c3.3 0 6 2.7 6 6v28c0 3.3-2.7 6-6 6h-28c-3.3 0-6-2.7-6-6z" stroke="#000" stroke-opacity="0" stroke-width="3" fill="#fff" fill-opacity="0"/><use xlink:href="#g" transform="matrix(1,0,0,1,985,405) translate(10.061728395061731 17.972222222222218)"/><path d="M1180 406c0-3.3 2.7-6 6-6h28c3.3 0 6 2.7 6 6v28c0 3.3-2.7 6-6 6h-28c-3.3 0-6-2.7-6-6z" stroke="#000" stroke-opacity="0" stroke-width="3" fill="#fff" fill-opacity="0"/><use xlink:href="#h" transform="matrix(1,0,0,1,1185,405) translate(10.061728395061731 17.972222222222218)"/><path d="M400 399v-80.5" stroke="#000" stroke-width="2" fill="none"/><path d="M401 400h-2v-1.03h2z"/><path d="M400 303.24l4.64 14.26h-9.28z" stroke="#000" stroke-width="2"/><path d="M280 266c0-3.3 2.7-6 6-6h228c3.3 0 6 2.7 6 6v28c0 3.3-2.7 6-6 6H286c-3.3 0-6-2.7-6-6z" stroke="#000" stroke-opacity="0" stroke-width="3" fill="#fff" fill-opacity="0"/><use xlink:href="#i" transform="matrix(1,0,0,1,285,265) translate(60.43209876543213 19.65277777777777)"/><path d="M600.67 399V298.5M600.67 398.97V400" stroke="#000" stroke-width="2" fill="none"/><path d="M600.67 283.24l4.63 14.26h-9.27z" stroke="#000" stroke-width="2"/><path d="M480.67 246c0-3.3 2.68-6 6-6h228c3.3 0 6 2.7 6 6v28c0 3.3-2.7 6-6 6h-228c-3.32 0-6-2.7-6-6z" stroke="#000" stroke-opacity="0" stroke-width="3" fill="#fff" fill-opacity="0"/><use xlink:href="#j" transform="matrix(1,0,0,1,485.66666666666663,245) translate(60.43209876543213 19.65277777777777)"/><path d="M800 399V278.5" stroke="#000" stroke-width="2" fill="none"/><path d="M801 400h-2v-1.03h2z"/><path d="M800 263.24l4.64 14.26h-9.28z" stroke="#000" stroke-width="2"/><path d="M680 226c0-3.3 2.7-6 6-6h228c3.3 0 6 2.7 6 6v28c0 3.3-2.7 6-6 6H686c-3.3 0-6-2.7-6-6z" stroke="#000" stroke-opacity="0" stroke-width="3" fill="#fff" fill-opacity="0"/><use xlink:href="#k" transform="matrix(1,0,0,1,685,225) translate(60.43209876543213 19.65277777777777)"/><path d="M1002.67 399V258.5M1002.67 398.97V400" stroke="#000" stroke-width="2" fill="none"/><path d="M1002.67 243.24l4.63 14.26h-9.27z" stroke="#000" stroke-width="2"/><path d="M882.67 206c0-3.3 2.68-6 6-6h228c3.3 0 6 2.7 6 6v28c0 3.3-2.7 6-6 6h-228c-3.32 0-6-2.7-6-6z" stroke="#000" stroke-opacity="0" stroke-width="3" fill="#fff" fill-opacity="0"/><use xlink:href="#l" transform="matrix(1,0,0,1,887.6666666666666,205) translate(60.43209876543213 19.65277777777777)"/><path d="M1200 399V238.5" stroke="#000" stroke-width="2" fill="none"/><path d="M1201 400h-2v-1.03h2z"/><path d="M1200 223.24l4.64 14.26h-9.28z" stroke="#000" stroke-width="2"/><path d="M1080 186c0-3.3 2.7-6 6-6h228c3.3 0 6 2.7 6 6v28c0 3.3-2.7 6-6 6h-228c-3.3 0-6-2.7-6-6z" stroke="#000" stroke-opacity="0" stroke-width="3" fill="#fff" fill-opacity="0"/><use xlink:href="#m" transform="matrix(1,0,0,1,1085,185) translate(60.43209876543213 19.65277777777777)"/><path d="M400 441v20.5" stroke="#000" stroke-width="2" fill="none"/><path d="M401 441.03h-2V440h2z"/><path d="M400 476.76l-4.64-14.26h9.28z" stroke="#000" stroke-width="2"/><path d="M280 486c0-3.3 2.7-6 6-6h228c3.3 0 6 2.7 6 6v28c0 3.3-2.7 6-6 6H286c-3.3 0-6-2.7-6-6z" stroke="#000" stroke-opacity="0" stroke-width="3" fill="#fff" fill-opacity="0"/><use xlink:href="#n" transform="matrix(1,0,0,1,285,485) translate(68.70370370370372 19.65277777777777)"/><path d="M600 441v40.5" stroke="#000" stroke-width="2" fill="none"/><path d="M601 441.03h-2V440h2z"/><path d="M600 496.76l-4.64-14.26h9.28z" stroke="#000" stroke-width="2"/><path d="M480 506c0-3.3 2.7-6 6-6h228c3.3 0 6 2.7 6 6v28c0 3.3-2.7 6-6 6H486c-3.3 0-6-2.7-6-6z" stroke="#000" stroke-opacity="0" stroke-width="3" fill="#fff" fill-opacity="0"/><use xlink:href="#o" transform="matrix(1,0,0,1,485,505) translate(60.43209876543213 19.65277777777777)"/><path d="M800 441v60.5" stroke="#000" stroke-width="2" fill="none"/><path d="M801 441.03h-2V440h2z"/><path d="M800 516.76l-4.64-14.26h9.28z" stroke="#000" stroke-width="2"/><path d="M680 526c0-3.3 2.7-6 6-6h228c3.3 0 6 2.7 6 6v28c0 3.3-2.7 6-6 6H686c-3.3 0-6-2.7-6-6z" stroke="#000" stroke-opacity="0" stroke-width="3" fill="#fff" fill-opacity="0"/><use xlink:href="#p" transform="matrix(1,0,0,1,685,525) translate(60.43209876543213 19.65277777777777)"/><path d="M1000 441v80.5" stroke="#000" stroke-width="2" fill="none"/><path d="M1001 441.03h-2V440h2z"/><path d="M1000 536.76l-4.64-14.26h9.28z" stroke="#000" stroke-width="2"/><path d="M880 546c0-3.3 2.7-6 6-6h228c3.3 0 6 2.7 6 6v28c0 3.3-2.7 6-6 6H886c-3.3 0-6-2.7-6-6z" stroke="#000" stroke-opacity="0" stroke-width="3" fill="#fff" fill-opacity="0"/><use xlink:href="#q" transform="matrix(1,0,0,1,885,545) translate(60.43209876543213 19.65277777777777)"/><path d="M1200 441v100.5" stroke="#000" stroke-width="2" fill="none"/><path d="M1201 441.03h-2V440h2z"/><path d="M1200 556.76l-4.64-14.26h9.28z" stroke="#000" stroke-width="2"/><path d="M1080 566c0-3.3 2.7-6 6-6h228c3.3 0 6 2.7 6 6v28c0 3.3-2.7 6-6 6h-228c-3.3 0-6-2.7-6-6z" stroke="#000" stroke-opacity="0" stroke-width="3" fill="#fff" fill-opacity="0"/><use xlink:href="#r" transform="matrix(1,0,0,1,1085,565) translate(60.43209876543213 19.65277777777777)"/><path d="M200.02 641l.08 4m.35 8l.2 3.43.5 4.56m1.06 7.93l.1.55 1.06 5.6.4 1.7m2 7.77l.12.4 1.42 4.38 1.05 2.8m3.14 7.37l.63 1.35 1.8 3.42 1.32 2.3m4.36 6.72l.25.33 2.18 2.87 2.3 2.8.26.27m5.53 5.8l1.98 1.85 2.96 2.54 1.1.87m6.44 4.76l2.74 1.8 4.04 2.46m7.08 3.75l2.4 1.2 4.87 2.17m7.45 2.97l7.22 2.5.35.1m7.67 2.32l.92.28 6.83 1.75m7.8 1.83l7.84 1.65m7.9 1.46l7.9 1.32m7.9 1.33l1.23.2 6.7.88m7.95 1.04l7.94 1.05m7.96.92l7.98.77m7.98.78l7.97.77m8 .78l7.96.78m7.98.78l7.97.78m8 .78l6.98.68 1 .06m8 .45l8 .46m8 .44l8 .45m8 .45l8 .45m8 .45l8 .44m8 .45l8 .44m8 .45l1.34.06 6.67.1m8 .12l8 .1m8.02.13l8.02.12m8 .12l8.02.1m8 .13l8.03.1m8 .13l8 .12m8.02.1l2.33.05 5.7-.14m8-.18l8-.2m8.02-.17l8-.2m8.02-.17l8-.18m8-.18l8.03-.2m8-.22l8-.44m8-.45l8-.45m8-.45l8-.45m8-.45l8-.45m8-.45l8-.45m8-.45l8-.45m8-.45l8-.45m8.02-.45l8-.45m8-.45l8-.45m8-.45l8-.45m8-.45l8-.45m8-.45l5.65-.32 2.34-.23m7.98-.8l7.97-.8m7.96-.82l7.97-.8m7.98-.82l7.98-.8m7.97-.8l7.97-.82m7.98-.8l4.3-.44 3.65-.52m7.93-1.15l7.93-1.15m7.94-1.15l7.93-1.14m7.94-1.15l7.2-1.03.73-.13m7.9-1.44l7.87-1.45m7.88-1.44l3.72-.67 4.13-.9m7.83-1.73l7.83-1.72m7.8-1.8l7.74-2.04m7.75-2.06l.64-.17 7-2.17m7.65-2.42l7.53-2.68m7.47-2.9l4.3-1.76 3.07-1.4m7.24-3.4l4.6-2.34 2.5-1.4m6.9-4.05l2.26-1.4 4.45-3m6.42-4.8l2.8-2.25 3.32-2.93m5.74-5.6l1.6-1.66 3.08-3.48.67-.82m4.9-6.33l.03-.02 2.55-3.74 1.83-2.93m3.9-7l1.07-2.08 2-4.35.33-.8m2.9-7.48l.4-1.12 1.6-5.1.4-1.44m1.92-7.77l.47-2.1 1.05-5.77m1.1-7.94l.38-3.98" stroke="#000" stroke-width="2" fill="none"/><path d="M201.02 641l-2 .05L199 640h2z"/><path d="M1199.85 603.23l3.98 14.47-9.27-.43z" stroke="#000" stroke-width="2"/><path d="M520 706c0-3.3 2.7-6 6-6h228c3.3 0 6 2.7 6 6v48c0 3.3-2.7 6-6 6H526c-3.3 0-6-2.7-6-6z" stroke="#000" stroke-opacity="0" stroke-width="3" fill="#fff" fill-opacity="0"/><use xlink:href="#s" transform="matrix(1,0,0,1,525,705) translate(59.78395061728398 30.27777777777777)"/><use xlink:href="#t" transform="matrix(1,0,0,1,525,705) translate(83.7962962962963 30.27777777777777)"/><use xlink:href="#u" transform="matrix(1,0,0,1,525,705) translate(134.41358024691357 30.27777777777777)"/><path d="M200 399v-2.96m0-3.95v-5.94m0-3.95v-5.9m0-3.96v-5.93m0-3.94v-5.92m0-3.95v-5.94m0-3.95v-5.9m0-3.96v-5.93m0-3.94v-5.92m0-3.95v-5.94m0-3.95v-5.9m0-3.96v-5.93m0-3.94v-5.92m0-3.95v-5.94m0-3.95v-5.9m0-3.96v-5.93m0-3.94V241M200 398.97V400" stroke="#000" stroke-width="2" fill="none"/><path d="M201 241.03h-2V240h2z"/><path d="M80 206c0-3.3 2.7-6 6-6h228c3.3 0 6 2.7 6 6v28c0 3.3-2.7 6-6 6H86c-3.3 0-6-2.7-6-6z" stroke="#000" stroke-opacity="0" stroke-width="3" fill="#fff" fill-opacity="0"/><g><use xlink:href="#v" transform="matrix(1,0,0,1,85,205) translate(108.82716049382717 19.65277777777777)"/></g><defs><path d="M115-194c55 1 70 41 70 98S169 2 115 4C84 4 66-9 55-30l1 105H24l-1-265h31l2 30c10-21 28-34 59-34zm-8 174c40 0 45-34 45-75s-6-73-45-74c-42 0-51 32-51 76 0 43 10 73 51 73" id="w"/><path d="M141-36C126-15 110 5 73 4 37 3 15-17 15-53c-1-64 63-63 125-63 3-35-9-54-41-54-24 1-41 7-42 31l-33-3c5-37 33-52 76-52 45 0 72 20 72 64v82c-1 20 7 32 28 27v20c-31 9-61-2-59-35zM48-53c0 20 12 33 32 33 41-3 63-29 60-74-43 2-92-5-92 41" id="x"/><path d="M108 0H70L1-190h34L89-25l56-165h34" id="y"/><g id="a"><use transform="matrix(0.07407407407407407,0,0,0.07407407407407407,0,0)" xlink:href="#w"/><use transform="matrix(0.07407407407407407,0,0,0.07407407407407407,14.814814814814813,0)" xlink:href="#x"/><use transform="matrix(0.07407407407407407,0,0,0.07407407407407407,29.629629629629626,0)" xlink:href="#y"/></g><path d="M194-70c0 46-34 64-81 66v29H91V-4C42-5 12-27 4-67l30-6c5 28 25 41 57 43v-87c-38-9-76-20-76-67 1-42 33-58 76-59v-23h22v23c45 0 67 20 76 56l-31 6c-5-23-18-35-45-37v78c41 10 81 20 81 70zm-81 41c51 7 71-66 19-77-6-2-12-4-19-6v83zM91-219c-47-6-63 57-18 69 6 2 12 3 18 5v-74" id="z"/><path d="M110-160c48 1 74 30 74 79 0 53-28 85-80 85-65 0-83-55-86-122-5-90 50-162 133-122 14 7 22 21 27 39l-31 6c-5-40-67-38-82-6-9 19-15 44-15 74 11-20 30-34 60-33zm-7 138c34 0 49-23 49-58s-16-56-50-56c-29 0-50 16-49 49 1 36 15 65 50 65" id="A"/><path d="M47-170H22l-4-78h33" id="B"/><path d="M101-251c68 0 85 55 85 127S166 4 100 4C33 4 14-52 14-124c0-73 17-127 87-127zm-1 229c47 0 54-49 54-102s-4-102-53-102c-51 0-55 48-55 102 0 53 5 102 54 102" id="C"/><path d="M33 0v-38h34V0H33" id="D"/><g id="b"><use transform="matrix(0.07407407407407407,0,0,0.07407407407407407,0,0)" xlink:href="#z"/><use transform="matrix(0.07407407407407407,0,0,0.07407407407407407,14.814814814814813,0)" xlink:href="#A"/><use transform="matrix(0.07407407407407407,0,0,0.07407407407407407,29.629629629629626,0)" xlink:href="#B"/><use transform="matrix(0.07407407407407407,0,0,0.07407407407407407,34.666666666666664,0)" xlink:href="#C"/><use transform="matrix(0.07407407407407407,0,0,0.07407407407407407,49.48148148148148,0)" xlink:href="#C"/><use transform="matrix(0.07407407407407407,0,0,0.07407407407407407,64.29629629629629,0)" xlink:href="#C"/><use transform="matrix(0.07407407407407407,0,0,0.07407407407407407,79.1111111111111,0)" xlink:href="#D"/><use transform="matrix(0.07407407407407407,0,0,0.07407407407407407,86.51851851851849,0)" xlink:href="#C"/><use transform="matrix(0.07407407407407407,0,0,0.07407407407407407,101.33333333333331,0)" xlink:href="#C"/><use transform="matrix(0.07407407407407407,0,0,0.07407407407407407,116.14814814814812,0)" xlink:href="#C"/></g><use transform="matrix(0.0493827160493827,0,0,0.0493827160493827,0,0)" xlink:href="#C" id="c"/><path d="M27 0v-27h64v-190l-56 39v-29l58-41h29v221h61V0H27" id="E"/><use transform="matrix(0.0493827160493827,0,0,0.0493827160493827,0,0)" xlink:href="#E" id="d"/><path d="M101-251c82-7 93 87 43 132L82-64C71-53 59-42 53-27h129V0H18c2-99 128-94 128-182 0-28-16-43-45-43s-46 15-49 41l-32-3c6-41 34-60 81-64" id="F"/><use transform="matrix(0.0493827160493827,0,0,0.0493827160493827,0,0)" xlink:href="#F" id="e"/><path d="M126-127c33 6 58 20 58 59 0 88-139 92-164 29-3-8-5-16-6-25l32-3c6 27 21 44 54 44 32 0 52-15 52-46 0-38-36-46-79-43v-28c39 1 72-4 72-42 0-27-17-43-46-43-28 0-47 15-49 41l-32-3c6-42 35-63 81-64 48-1 79 21 79 65 0 36-21 52-52 59" id="G"/><use transform="matrix(0.0493827160493827,0,0,0.0493827160493827,0,0)" xlink:href="#G" id="f"/><path d="M155-56V0h-30v-56H8v-25l114-167h33v167h35v25h-35zm-30-156c-27 46-58 90-88 131h88v-131" id="H"/><use transform="matrix(0.0493827160493827,0,0,0.0493827160493827,0,0)" xlink:href="#H" id="g"/><path d="M54-142c48-35 137-8 131 61C196 18 31 33 14-55l32-4c7 23 22 37 52 37 35-1 51-22 54-58 4-55-73-65-99-34H22l8-134h141v27H59" id="I"/><use transform="matrix(0.0493827160493827,0,0,0.0493827160493827,0,0)" xlink:href="#I" id="h"/><g id="i"><use transform="matrix(0.06172839506172837,0,0,0.06172839506172837,0,0)" xlink:href="#z"/><use transform="matrix(0.06172839506172837,0,0,0.06172839506172837,12.345679012345673,0)" xlink:href="#G"/><use transform="matrix(0.06172839506172837,0,0,0.06172839506172837,24.691358024691347,0)" xlink:href="#B"/><use transform="matrix(0.06172839506172837,0,0,0.06172839506172837,28.888888888888875,0)" xlink:href="#C"/><use transform="matrix(0.06172839506172837,0,0,0.06172839506172837,41.23456790123455,0)" xlink:href="#C"/><use transform="matrix(0.06172839506172837,0,0,0.06172839506172837,53.580246913580226,0)" xlink:href="#C"/><use transform="matrix(0.06172839506172837,0,0,0.06172839506172837,65.9259259259259,0)" xlink:href="#D"/><use transform="matrix(0.06172839506172837,0,0,0.06172839506172837,72.09876543209873,0)" xlink:href="#C"/><use transform="matrix(0.06172839506172837,0,0,0.06172839506172837,84.4444444444444,0)" xlink:href="#C"/><use transform="matrix(0.06172839506172837,0,0,0.06172839506172837,96.79012345679007,0)" xlink:href="#C"/></g><path d="M99-251c64 0 84 50 84 122C183-37 130 33 47-8c-14-7-20-23-25-40l30-5c6 39 69 39 84 7 9-19 16-44 16-74-10 22-31 35-62 35-49 0-73-33-73-83 0-54 28-83 82-83zm-1 141c31-1 51-18 51-49 0-36-14-67-51-67-34 0-49 23-49 58 0 34 15 58 49 58" id="J"/><g id="j"><use transform="matrix(0.06172839506172837,0,0,0.06172839506172837,0,0)" xlink:href="#z"/><use transform="matrix(0.06172839506172837,0,0,0.06172839506172837,12.345679012345673,0)" xlink:href="#G"/><use transform="matrix(0.06172839506172837,0,0,0.06172839506172837,24.691358024691347,0)" xlink:href="#B"/><use transform="matrix(0.06172839506172837,0,0,0.06172839506172837,28.888888888888875,0)" xlink:href="#J"/><use transform="matrix(0.06172839506172837,0,0,0.06172839506172837,41.23456790123455,0)" xlink:href="#C"/><use transform="matrix(0.06172839506172837,0,0,0.06172839506172837,53.580246913580226,0)" xlink:href="#C"/><use transform="matrix(0.06172839506172837,0,0,0.06172839506172837,65.9259259259259,0)" xlink:href="#D"/><use transform="matrix(0.06172839506172837,0,0,0.06172839506172837,72.09876543209873,0)" xlink:href="#C"/><use transform="matrix(0.06172839506172837,0,0,0.06172839506172837,84.4444444444444,0)" xlink:href="#C"/><use transform="matrix(0.06172839506172837,0,0,0.06172839506172837,96.79012345679007,0)" xlink:href="#C"/></g><path d="M64 0c3-98 48-159 88-221H18v-27h164v26C143-157 98-101 97 0H64" id="K"/><g id="k"><use transform="matrix(0.06172839506172837,0,0,0.06172839506172837,0,0)" xlink:href="#z"/><use transform="matrix(0.06172839506172837,0,0,0.06172839506172837,12.345679012345673,0)" xlink:href="#I"/><use transform="matrix(0.06172839506172837,0,0,0.06172839506172837,24.691358024691347,0)" xlink:href="#B"/><use transform="matrix(0.06172839506172837,0,0,0.06172839506172837,28.888888888888875,0)" xlink:href="#C"/><use transform="matrix(0.06172839506172837,0,0,0.06172839506172837,41.23456790123455,0)" xlink:href="#K"/><use transform="matrix(0.06172839506172837,0,0,0.06172839506172837,53.580246913580226,0)" xlink:href="#C"/><use transform="matrix(0.06172839506172837,0,0,0.06172839506172837,65.9259259259259,0)" xlink:href="#D"/><use transform="matrix(0.06172839506172837,0,0,0.06172839506172837,72.09876543209873,0)" xlink:href="#C"/><use transform="matrix(0.06172839506172837,0,0,0.06172839506172837,84.4444444444444,0)" xlink:href="#C"/><use transform="matrix(0.06172839506172837,0,0,0.06172839506172837,96.79012345679007,0)" xlink:href="#C"/></g><g id="l"><use transform="matrix(0.06172839506172837,0,0,0.06172839506172837,0,0)" xlink:href="#z"/><use transform="matrix(0.06172839506172837,0,0,0.06172839506172837,12.345679012345673,0)" xlink:href="#A"/><use transform="matrix(0.06172839506172837,0,0,0.06172839506172837,24.691358024691347,0)" xlink:href="#B"/><use transform="matrix(0.06172839506172837,0,0,0.06172839506172837,28.888888888888875,0)" xlink:href="#I"/><use transform="matrix(0.06172839506172837,0,0,0.06172839506172837,41.23456790123455,0)" xlink:href="#J"/><use transform="matrix(0.06172839506172837,0,0,0.06172839506172837,53.580246913580226,0)" xlink:href="#E"/><use transform="matrix(0.06172839506172837,0,0,0.06172839506172837,65.9259259259259,0)" xlink:href="#D"/><use transform="matrix(0.06172839506172837,0,0,0.06172839506172837,72.09876543209873,0)" xlink:href="#C"/><use transform="matrix(0.06172839506172837,0,0,0.06172839506172837,84.4444444444444,0)" xlink:href="#C"/><use transform="matrix(0.06172839506172837,0,0,0.06172839506172837,96.79012345679007,0)" xlink:href="#C"/></g><path d="M134-131c28 9 52 24 51 62-1 50-34 73-85 73S17-19 16-69c0-36 21-54 49-61-75-25-45-126 34-121 46 3 78 18 79 63 0 33-17 51-44 57zm-34-11c31 1 46-15 46-44 0-28-17-43-47-42-29 0-46 13-45 42 1 28 16 44 46 44zm1 122c35 0 51-18 51-52 0-30-18-46-53-46-33 0-51 17-51 47 0 34 19 51 53 51" id="L"/><g id="m"><use transform="matrix(0.06172839506172837,0,0,0.06172839506172837,0,0)" xlink:href="#z"/><use transform="matrix(0.06172839506172837,0,0,0.06172839506172837,12.345679012345673,0)" xlink:href="#L"/><use transform="matrix(0.06172839506172837,0,0,0.06172839506172837,24.691358024691347,0)" xlink:href="#B"/><use transform="matrix(0.06172839506172837,0,0,0.06172839506172837,28.888888888888875,0)" xlink:href="#I"/><use transform="matrix(0.06172839506172837,0,0,0.06172839506172837,41.23456790123455,0)" xlink:href="#A"/><use transform="matrix(0.06172839506172837,0,0,0.06172839506172837,53.580246913580226,0)" xlink:href="#L"/><use transform="matrix(0.06172839506172837,0,0,0.06172839506172837,65.9259259259259,0)" xlink:href="#D"/><use transform="matrix(0.06172839506172837,0,0,0.06172839506172837,72.09876543209873,0)" xlink:href="#G"/><use transform="matrix(0.06172839506172837,0,0,0.06172839506172837,84.4444444444444,0)" xlink:href="#C"/><use transform="matrix(0.06172839506172837,0,0,0.06172839506172837,96.79012345679007,0)" xlink:href="#C"/></g><g id="n"><use transform="matrix(0.06172839506172837,0,0,0.06172839506172837,0,0)" xlink:href="#z"/><use transform="matrix(0.06172839506172837,0,0,0.06172839506172837,12.345679012345673,0)" xlink:href="#L"/><use transform="matrix(0.06172839506172837,0,0,0.06172839506172837,24.691358024691347,0)" xlink:href="#C"/><use transform="matrix(0.06172839506172837,0,0,0.06172839506172837,37.037037037037024,0)" xlink:href="#C"/><use transform="matrix(0.06172839506172837,0,0,0.06172839506172837,49.382716049382694,0)" xlink:href="#D"/><use transform="matrix(0.06172839506172837,0,0,0.06172839506172837,55.55555555555553,0)" xlink:href="#C"/><use transform="matrix(0.06172839506172837,0,0,0.06172839506172837,67.9012345679012,0)" xlink:href="#C"/><use transform="matrix(0.06172839506172837,0,0,0.06172839506172837,80.24691358024687,0)" xlink:href="#C"/></g><g id="o"><use transform="matrix(0.06172839506172837,0,0,0.06172839506172837,0,0)" xlink:href="#z"/><use transform="matrix(0.06172839506172837,0,0,0.06172839506172837,12.345679012345673,0)" xlink:href="#E"/><use transform="matrix(0.06172839506172837,0,0,0.06172839506172837,24.691358024691347,0)" xlink:href="#B"/><use transform="matrix(0.06172839506172837,0,0,0.06172839506172837,28.888888888888875,0)" xlink:href="#C"/><use transform="matrix(0.06172839506172837,0,0,0.06172839506172837,41.23456790123455,0)" xlink:href="#C"/><use transform="matrix(0.06172839506172837,0,0,0.06172839506172837,53.580246913580226,0)" xlink:href="#C"/><use transform="matrix(0.06172839506172837,0,0,0.06172839506172837,65.9259259259259,0)" xlink:href="#D"/><use transform="matrix(0.06172839506172837,0,0,0.06172839506172837,72.09876543209873,0)" xlink:href="#C"/><use transform="matrix(0.06172839506172837,0,0,0.06172839506172837,84.4444444444444,0)" xlink:href="#C"/><use transform="matrix(0.06172839506172837,0,0,0.06172839506172837,96.79012345679007,0)" xlink:href="#C"/></g><g id="p"><use transform="matrix(0.06172839506172837,0,0,0.06172839506172837,0,0)" xlink:href="#z"/><use transform="matrix(0.06172839506172837,0,0,0.06172839506172837,12.345679012345673,0)" xlink:href="#E"/><use transform="matrix(0.06172839506172837,0,0,0.06172839506172837,24.691358024691347,0)" xlink:href="#B"/><use transform="matrix(0.06172839506172837,0,0,0.06172839506172837,28.888888888888875,0)" xlink:href="#F"/><use transform="matrix(0.06172839506172837,0,0,0.06172839506172837,41.23456790123455,0)" xlink:href="#C"/><use transform="matrix(0.06172839506172837,0,0,0.06172839506172837,53.580246913580226,0)" xlink:href="#C"/><use transform="matrix(0.06172839506172837,0,0,0.06172839506172837,65.9259259259259,0)" xlink:href="#D"/><use transform="matrix(0.06172839506172837,0,0,0.06172839506172837,72.09876543209873,0)" xlink:href="#C"/><use transform="matrix(0.06172839506172837,0,0,0.06172839506172837,84.4444444444444,0)" xlink:href="#C"/><use transform="matrix(0.06172839506172837,0,0,0.06172839506172837,96.79012345679007,0)" xlink:href="#C"/></g><g id="q"><use transform="matrix(0.06172839506172837,0,0,0.06172839506172837,0,0)" xlink:href="#z"/><use transform="matrix(0.06172839506172837,0,0,0.06172839506172837,12.345679012345673,0)" xlink:href="#E"/><use transform="matrix(0.06172839506172837,0,0,0.06172839506172837,24.691358024691347,0)" xlink:href="#B"/><use transform="matrix(0.06172839506172837,0,0,0.06172839506172837,28.888888888888875,0)" xlink:href="#H"/><use transform="matrix(0.06172839506172837,0,0,0.06172839506172837,41.23456790123455,0)" xlink:href="#C"/><use transform="matrix(0.06172839506172837,0,0,0.06172839506172837,53.580246913580226,0)" xlink:href="#C"/><use transform="matrix(0.06172839506172837,0,0,0.06172839506172837,65.9259259259259,0)" xlink:href="#D"/><use transform="matrix(0.06172839506172837,0,0,0.06172839506172837,72.09876543209873,0)" xlink:href="#C"/><use transform="matrix(0.06172839506172837,0,0,0.06172839506172837,84.4444444444444,0)" xlink:href="#C"/><use transform="matrix(0.06172839506172837,0,0,0.06172839506172837,96.79012345679007,0)" xlink:href="#C"/></g><g id="r"><use transform="matrix(0.06172839506172837,0,0,0.06172839506172837,0,0)" xlink:href="#z"/><use transform="matrix(0.06172839506172837,0,0,0.06172839506172837,12.345679012345673,0)" xlink:href="#E"/><use transform="matrix(0.06172839506172837,0,0,0.06172839506172837,24.691358024691347,0)" xlink:href="#B"/><use transform="matrix(0.06172839506172837,0,0,0.06172839506172837,28.888888888888875,0)" xlink:href="#A"/><use transform="matrix(0.06172839506172837,0,0,0.06172839506172837,41.23456790123455,0)" xlink:href="#C"/><use transform="matrix(0.06172839506172837,0,0,0.06172839506172837,53.580246913580226,0)" xlink:href="#C"/><use transform="matrix(0.06172839506172837,0,0,0.06172839506172837,65.9259259259259,0)" xlink:href="#D"/><use transform="matrix(0.06172839506172837,0,0,0.06172839506172837,72.09876543209873,0)" xlink:href="#C"/><use transform="matrix(0.06172839506172837,0,0,0.06172839506172837,84.4444444444444,0)" xlink:href="#C"/><use transform="matrix(0.06172839506172837,0,0,0.06172839506172837,96.79012345679007,0)" xlink:href="#C"/></g><path d="M24-231v-30h32v30H24zM24 0v-190h32V0H24" id="M"/><path d="M18-150v-26h174v26H18zm0 90v-26h174v26H18" id="N"/><g id="s"><use transform="matrix(0.06172839506172837,0,0,0.06172839506172837,0,0)" xlink:href="#M"/><use transform="matrix(0.06172839506172837,0,0,0.06172839506172837,4.876543209876541,0)" xlink:href="#N"/></g><path d="M252-156c43 0 55 33 55 80 0 46-13 78-56 78-42 0-55-33-55-78 0-48 12-80 56-80zM93 0H65l162-248h28zM13-171c-1-47 13-79 56-79s55 33 55 79-13 79-55 79c-43 0-56-33-56-79zM251-17c28 0 30-29 30-59 0-31-1-60-29-60-29 0-31 29-31 60 0 29 2 59 30 59zM69-112c27 0 28-30 29-59 0-31-1-60-29-60-29 0-30 30-30 60s2 59 30 59" id="O"/><g id="t"><use transform="matrix(0.06172839506172837,0,0,0.06172839506172837,0,0)" xlink:href="#G"/><use transform="matrix(0.06172839506172837,0,0,0.06172839506172837,12.345679012345673,0)" xlink:href="#C"/><use transform="matrix(0.06172839506172837,0,0,0.06172839506172837,24.691358024691347,0)" xlink:href="#O"/></g><g id="u"><use transform="matrix(0.06172839506172837,0,0,0.06172839506172837,0,0)" xlink:href="#w"/><use transform="matrix(0.06172839506172837,0,0,0.06172839506172837,12.345679012345673,0)" xlink:href="#x"/><use transform="matrix(0.06172839506172837,0,0,0.06172839506172837,24.691358024691347,0)" xlink:href="#y"/></g><path d="M76-167L44 0H12l33-167H18l4-23h27c3-47 25-81 82-69l-4 24c-35-8-44 15-46 45h37l-5 23H76" id="P"/><g id="v"><use transform="matrix(0.06172839506172837,0,0,0.06172839506172837,0,0)" xlink:href="#P"/><use transform="matrix(0.06172839506172837,0,0,0.06172839506172837,6.172839506172837,0)" xlink:href="#P"/></g></defs></g></svg>