<svg xmlns="http://www.w3.org/2000/svg" xmlns:xlink="http://www.w3.org/1999/xlink" xmlns:lucid="lucid" width="840" height="460"><g transform="translate(-100 -80)" lucid:page-tab-id="0_0"><path d="M240 306c0-3.3 2.7-6 6-6h8c3.3 0 6 2.7 6 6v28c0 3.3-2.7 6-6 6h-8c-3.3 0-6-2.7-6-6z" stroke="#000" stroke-opacity="0" stroke-width="3" fill="#fff" fill-opacity="0"/><use xlink:href="#a" transform="matrix(1,0,0,1,245,305) translate(0.6790123456790136 18.069444444444443)"/><path d="M240 301v160.5M240 301.03V300" stroke="#000" stroke-width="2" fill="none"/><path d="M240 476.76l-4.64-14.26h9.28z" stroke="#000" stroke-width="2"/><path d="M240 299v-4.16m0-8.3v-8.33m0-8.3v-8.32m0-8.32v-8.32m0-8.3v-8.33m0-8.3v-8.32m0-8.32v-8.32m0-8.3v-8.33m0-8.3v-8.32m0-8.32v-8.32m0-8.3v-4.17M240 300" stroke="#000" stroke-width="2" fill="none"/><path d="M241 132.7h-2v-1.03h2z"/><path d="M241 300h558M798.97 300H800M510 299v-68.83M510 298.97V300" stroke="#000" stroke-width="2" fill="none"/><path d="M510 214.9l4.63 14.27h-9.27z" stroke="#000" stroke-width="2"/><path d="M120 486c0-3.3 2.7-6 6-6h228c3.3 0 6 2.7 6 6v28c0 3.3-2.7 6-6 6H126c-3.3 0-6-2.7-6-6z" stroke="#000" stroke-opacity="0" stroke-width="3" fill="#fff" fill-opacity="0"/><use xlink:href="#b" transform="matrix(1,0,0,1,125,485) translate(68.7037037037037 19.65277777777778)"/><path d="M390 186c0-3.3 2.7-6 6-6h228c3.3 0 6 2.7 6 6v19.67c0 3.3-2.7 6-6 6H396c-3.3 0-6-2.7-6-6z" stroke="#000" stroke-opacity="0" stroke-width="3" fill="#fff" fill-opacity="0"/><use xlink:href="#c" transform="matrix(1,0,0,1,394.9990000000001,185) translate(74.87654320987653 17.77777777777778)"/><path d="M120 106c0-3.3 2.7-6 6-6h228c3.3 0 6 2.7 6 6v19.67c0 3.3-2.7 6-6 6H126c-3.3 0-6-2.7-6-6z" stroke="#000" stroke-opacity="0" stroke-width="3" fill="#fff" fill-opacity="0"/><use xlink:href="#d" transform="matrix(1,0,0,1,125,105) translate(109.04320987654322 17.77777777777778)"/><path d="M800 299V170.17M800 298.97V300" stroke="#000" stroke-width="2" fill="none"/><path d="M800 154.9l4.64 14.27h-9.28z" stroke="#000" stroke-width="2"/><path d="M680 126c0-3.3 2.7-6 6-6h228c3.3 0 6 2.7 6 6v19.67c0 3.3-2.7 6-6 6H686c-3.3 0-6-2.7-6-6z" stroke="#000" stroke-opacity="0" stroke-width="3" fill="#fff" fill-opacity="0"/><use xlink:href="#e" transform="matrix(1,0,0,1,685,125) translate(74.87654320987653 17.77777777777778)"/><path d="M510.67 306c0-3.3 2.68-6 6-6h8c3.3 0 6 2.7 6 6v28c0 3.3-2.7 6-6 6h-8c-3.32 0-6-2.7-6-6z" stroke="#000" stroke-opacity="0" stroke-width="3" fill="#fff" fill-opacity="0"/><use xlink:href="#f" transform="matrix(1,0,0,1,515.6666666666666,305) translate(0.6790123456790136 18.069444444444443)"/><path d="M800 306c0-3.3 2.7-6 6-6h8c3.3 0 6 2.7 6 6v28c0 3.3-2.7 6-6 6h-8c-3.3 0-6-2.7-6-6z" stroke="#000" stroke-opacity="0" stroke-width="3" fill="#fff" fill-opacity="0"/><use xlink:href="#g" transform="matrix(1,0,0,1,805,305) translate(0.6790123456790136 18.069444444444443)"/><path d="M840 286c0-3.3 2.7-6 6-6h48c3.3 0 6 2.7 6 6v28c0 3.3-2.7 6-6 6h-48c-3.3 0-6-2.7-6-6z" stroke="#000" stroke-opacity="0" stroke-width="3" fill="#fff" fill-opacity="0"/><use xlink:href="#h" transform="matrix(1,0,0,1,845,285) translate(10.679012345679018 17.972222222222218)"/><path d="M243.35 301v.16l.1 1.3.14 1.48.15 1.02m1.83 7.75l.82 2.53 1.26 3.4.66 1.55m3.32 7.24l2.35 4.5 1.44 2.5m4.15 6.8l1.34 2.12 3.1 4.48m4.76 6.4l1.3 1.7 3.7 4.5m5.26 5.98l1.73 1.92 3.76 3.85m5.73 5.53l1.78 1.7 4.17 3.58m6.2 5.02l.74.6 5.34 3.88.33.22m6.68 4.33l3.13 1.9 3.78 2.07m7.14 3.53l2.88 1.28 4.24 1.7.24.07m7.58 2.47l.2.06 3.82.98 3.68.8h.05m7.87 1.1l2.52.22 3.3.13h2.13m7.95-.43l3.53-.45 3.75-.64.6-.12m7.74-1.86l4.1-1.25 3.47-1.2m7.4-2.96l4-1.78 3.2-1.6m7.04-3.74l1.42-.78 5.43-3.3m6.66-4.37l1.17-.77 5.3-3.88m6.3-4.87l3.2-2.53 2.95-2.54m5.98-5.26l5.8-5.46m5.6-5.65l3.1-3.16 2.37-2.65m5.3-5.94l5.08-6.14m4.86-6.3l1.5-1.96 3.14-4.53m4.34-6.68l.23-.38 1.78-3.07M243.35 301.03l-.02-1.03" stroke="#c92d39" stroke-width="2" fill="none"/><path d="M508.1 303l-1.08 14.96-8.6-3.5z" stroke="#c92d39" stroke-width="2" fill="#c92d39"/><path d="M241.33 319c0-3.3 2.7-6 6-6h228c3.32 0 6 2.7 6 6v62c0 3.3-2.68 6-6 6h-228c-3.3 0-6-2.7-6-6z" stroke="#000" stroke-opacity="0" stroke-width="3" fill="#fff" fill-opacity="0"/><use xlink:href="#i" transform="matrix(1,0,0,1,246.33333333337214,318) translate(79.63271604938272 16.444444444444443)"/><use xlink:href="#j" transform="matrix(1,0,0,1,246.33333333337214,318) translate(125.30555555555556 16.444444444444443)"/><use xlink:href="#k" transform="matrix(1,0,0,1,246.33333333337214,318) translate(79.63271604938272 35.11111111111111)"/><use xlink:href="#j" transform="matrix(1,0,0,1,246.33333333337214,318) translate(125.30555555555556 35.11111111111111)"/><use xlink:href="#l" transform="matrix(1,0,0,1,246.33333333337214,318) translate(84.10493827160495 53.77777777777777)"/><use xlink:href="#m" transform="matrix(1,0,0,1,246.33333333337214,318) translate(120.83333333333334 53.77777777777777)"/><path d="M240.02 301l.06 3m.18 3.98l.22 3.58.25 2.4m.45 3.96l.7 4.75.23 1.16m.75 3.92l.07.35 1.26 5.37.03.1m1.08 3.86l.38 1.35 1.42 4.36m1.35 3.75l.9 2.4 1.32 3.15m1.62 3.65l1.7 3.64.92 1.74m1.84 3.54l2.98 5.15.02.03m2.14 3.37l1.16 1.83 2.18 3.14m2.33 3.24l3.16 4.16.5.6m2.54 3.07l1.36 1.66 2.58 2.85m2.7 2.96l4.18 4.28m2.88 2.76l3.53 3.3.87.76m3.02 2.6l2.43 2.1 2.17 1.73m3.13 2.47l1.6 1.27 3.2 2.3m3.22 2.36l1.14.82 3.8 2.54m3.34 2.2l1.1.75 4 2.42m3.4 2.06l1.63.98 3.58 1.97m3.5 1.93l2.76 1.5 2.55 1.27m3.6 1.78l4.56 2.27.8.36m3.66 1.63l5.47 2.43m3.67 1.53l5.57 2.2m3.7 1.47l1.33.53 4.3 1.5m3.78 1.3l5.5 1.92.16.05m3.83 1.15l5.73 1.73m3.82 1.15l1.07.33 4.72 1.2m3.87 1l5.8 1.5m3.9.87l5.85 1.24m3.9.83l4.1.87 1.76.3m3.94.66l5.9 1m3.94.67l1.9.32 4.03.5m3.96.5l5.94.76m3.96.5l.37.04 5.6.47m3.97.32l5.97.5m3.97.3l6 .26m3.98.17l6 .25m3.98.13l5.98.03m4 .02l3.96.02 2.02-.06m4-.13l5.98-.18m3.98-.16l5.97-.44m4-.3l4.37-.32 1.58-.18m3.96-.46l5.95-.7m3.98-.46l5.9-.94m3.95-.63l5.07-.8.84-.17m3.9-.8l5.88-1.18m3.9-.8l.54-.1 5.3-1.3m3.87-.95l5.72-1.4.1-.03m3.82-1.12l5.75-1.67m3.84-1.1l1.12-.33 4.57-1.54m3.78-1.27l5.67-1.9m3.73-1.43l5.6-2.15m3.72-1.43l1.03-.4 4.48-1.94m3.66-1.57l5.17-2.24.3-.17m3.6-1.73l5.4-2.6m3.58-1.76l5.28-2.83m3.52-1.88l3-1.6 2.22-1.32m3.44-2.03l5.15-3.05m3.35-2.16l5.02-3.26m3.32-2.2l4.87-3.47m3.26-2.32l.78-.54 3.98-3.08m3.16-2.45l1.74-1.36 2.9-2.43m3.04-2.58l2.14-1.82 2.34-2.15m2.94-2.7l2.04-1.88 2.27-2.28m2.82-2.82l1.5-1.48 2.62-2.87m2.7-2.94l.55-.6 3.33-3.95m2.55-3.07l3.67-4.72m2.33-3.24l2.15-3.03 1.24-1.9m2.17-3.34l.2-.34 2.85-4.8m1.9-3.5l1.2-2.25 1.5-3.1m1.68-3.63l1.3-3.05.97-2.5m1.36-3.75l.96-2.84.83-2.86m1-3.86l.45-1.76.23-1.16M240.02 301.03L240 300" stroke="#0c7cba" stroke-width="2" fill="none"/><path d="M798.3 303.22l3.04 14.7-9.2-1.04z" stroke="#0c7cba" stroke-width="2" fill="#0c7cba"/><path d="M510.67 363c0-3.3 2.68-6 6-6h228c3.3 0 6 2.7 6 6v54c0 3.3-2.7 6-6 6h-228c-3.32 0-6-2.7-6-6z" stroke="#000" stroke-opacity="0" stroke-width="3" fill="#fff" fill-opacity="0"/><g><use xlink:href="#n" transform="matrix(1,0,0,1,515.6666666666279,362) translate(77.47222222222223 12.444444444444443)"/><use xlink:href="#o" transform="matrix(1,0,0,1,515.6666666666279,362) translate(101.54012345679013 12.444444444444443)"/><use xlink:href="#p" transform="matrix(1,0,0,1,515.6666666666279,362) translate(127.46604938271605 12.444444444444443)"/><use xlink:href="#q" transform="matrix(1,0,0,1,515.6666666666279,362) translate(77.47222222222223 31.111111111111107)"/><use xlink:href="#r" transform="matrix(1,0,0,1,515.6666666666279,362) translate(101.54012345679013 31.111111111111107)"/><use xlink:href="#p" transform="matrix(1,0,0,1,515.6666666666279,362) translate(127.46604938271605 31.111111111111107)"/><use xlink:href="#s" transform="matrix(1,0,0,1,515.6666666666279,362) translate(81.94444444444446 49.77777777777777)"/><use xlink:href="#t" transform="matrix(1,0,0,1,515.6666666666279,362) translate(110.03086419753087 49.77777777777777)"/><use xlink:href="#u" transform="matrix(1,0,0,1,515.6666666666279,362) translate(122.99382716049382 49.77777777777777)"/></g><defs><path fill="#333" d="M101-251c68 0 85 55 85 127S166 4 100 4C33 4 14-52 14-124c0-73 17-127 87-127zm-1 229c47 0 54-49 54-102s-4-102-53-102c-51 0-55 48-55 102 0 53 5 102 54 102" id="v"/><use transform="matrix(0.04320987654320986,0,0,0.04320987654320986,0,0)" xlink:href="#v" id="a"/><path fill="#333" d="M194-70c0 46-34 64-81 66v29H91V-4C42-5 12-27 4-67l30-6c5 28 25 41 57 43v-87c-38-9-76-20-76-67 1-42 33-58 76-59v-23h22v23c45 0 67 20 76 56l-31 6c-5-23-18-35-45-37v78c41 10 81 20 81 70zm-81 41c51 7 71-66 19-77-6-2-12-4-19-6v83zM91-219c-47-6-63 57-18 69 6 2 12 3 18 5v-74" id="w"/><path fill="#333" d="M27 0v-27h64v-190l-56 39v-29l58-41h29v221h61V0H27" id="x"/><path fill="#333" d="M33 0v-38h34V0H33" id="y"/><g id="b"><use transform="matrix(0.06172839506172839,0,0,0.06172839506172839,0,0)" xlink:href="#w"/><use transform="matrix(0.06172839506172839,0,0,0.06172839506172839,12.345679012345679,0)" xlink:href="#x"/><use transform="matrix(0.06172839506172839,0,0,0.06172839506172839,24.691358024691358,0)" xlink:href="#v"/><use transform="matrix(0.06172839506172839,0,0,0.06172839506172839,37.03703703703704,0)" xlink:href="#v"/><use transform="matrix(0.06172839506172839,0,0,0.06172839506172839,49.382716049382715,0)" xlink:href="#y"/><use transform="matrix(0.06172839506172839,0,0,0.06172839506172839,55.55555555555556,0)" xlink:href="#v"/><use transform="matrix(0.06172839506172839,0,0,0.06172839506172839,67.90123456790124,0)" xlink:href="#v"/><use transform="matrix(0.06172839506172839,0,0,0.06172839506172839,80.24691358024693,0)" xlink:href="#v"/></g><path fill="#333" d="M110-160c48 1 74 30 74 79 0 53-28 85-80 85-65 0-83-55-86-122-5-90 50-162 133-122 14 7 22 21 27 39l-31 6c-5-40-67-38-82-6-9 19-15 44-15 74 11-20 30-34 60-33zm-7 138c34 0 49-23 49-58s-16-56-50-56c-29 0-50 16-49 49 1 36 15 65 50 65" id="z"/><path fill="#333" d="M54-142c48-35 137-8 131 61C196 18 31 33 14-55l32-4c7 23 22 37 52 37 35-1 51-22 54-58 4-55-73-65-99-34H22l8-134h141v27H59" id="A"/><g id="c"><use transform="matrix(0.06172839506172839,0,0,0.06172839506172839,0,0)" xlink:href="#w"/><use transform="matrix(0.06172839506172839,0,0,0.06172839506172839,12.345679012345679,0)" xlink:href="#z"/><use transform="matrix(0.06172839506172839,0,0,0.06172839506172839,24.691358024691358,0)" xlink:href="#A"/><use transform="matrix(0.06172839506172839,0,0,0.06172839506172839,37.03703703703704,0)" xlink:href="#y"/><use transform="matrix(0.06172839506172839,0,0,0.06172839506172839,43.20987654320988,0)" xlink:href="#v"/><use transform="matrix(0.06172839506172839,0,0,0.06172839506172839,55.55555555555556,0)" xlink:href="#v"/><use transform="matrix(0.06172839506172839,0,0,0.06172839506172839,67.90123456790124,0)" xlink:href="#v"/></g><path fill="#333" d="M101-234c-31-9-42 10-38 44h38v23H63V0H32v-167H5v-23h27c-7-52 17-82 69-68v24" id="B"/><g id="d"><use transform="matrix(0.06172839506172839,0,0,0.06172839506172839,0,0)" xlink:href="#B"/><use transform="matrix(0.06172839506172839,0,0,0.06172839506172839,5.7407407407407405,0)" xlink:href="#B"/></g><path fill="#333" d="M64 0c3-98 48-159 88-221H18v-27h164v26C143-157 98-101 97 0H64" id="C"/><g id="e"><use transform="matrix(0.06172839506172839,0,0,0.06172839506172839,0,0)" xlink:href="#w"/><use transform="matrix(0.06172839506172839,0,0,0.06172839506172839,12.345679012345679,0)" xlink:href="#C"/><use transform="matrix(0.06172839506172839,0,0,0.06172839506172839,24.691358024691358,0)" xlink:href="#A"/><use transform="matrix(0.06172839506172839,0,0,0.06172839506172839,37.03703703703704,0)" xlink:href="#y"/><use transform="matrix(0.06172839506172839,0,0,0.06172839506172839,43.20987654320988,0)" xlink:href="#v"/><use transform="matrix(0.06172839506172839,0,0,0.06172839506172839,55.55555555555556,0)" xlink:href="#v"/><use transform="matrix(0.06172839506172839,0,0,0.06172839506172839,67.90123456790124,0)" xlink:href="#v"/></g><use transform="matrix(0.04320987654320986,0,0,0.04320987654320986,0,0)" xlink:href="#x" id="f"/><path fill="#333" d="M101-251c82-7 93 87 43 132L82-64C71-53 59-42 53-27h129V0H18c2-99 128-94 128-182 0-28-16-43-45-43s-46 15-49 41l-32-3c6-41 34-60 81-64" id="D"/><use transform="matrix(0.04320987654320986,0,0,0.04320987654320986,0,0)" xlink:href="#D" id="g"/><path fill="#333" d="M115-194c55 1 70 41 70 98S169 2 115 4C84 4 66-9 55-30l1 105H24l-1-265h31l2 30c10-21 28-34 59-34zm-8 174c40 0 45-34 45-75s-6-73-45-74c-42 0-51 32-51 76 0 43 10 73 51 73" id="E"/><path fill="#333" d="M141-36C126-15 110 5 73 4 37 3 15-17 15-53c-1-64 63-63 125-63 3-35-9-54-41-54-24 1-41 7-42 31l-33-3c5-37 33-52 76-52 45 0 72 20 72 64v82c-1 20 7 32 28 27v20c-31 9-61-2-59-35zM48-53c0 20 12 33 32 33 41-3 63-29 60-74-43 2-92-5-92 41" id="F"/><path fill="#333" d="M108 0H70L1-190h34L89-25l56-165h34" id="G"/><g id="h"><use transform="matrix(0.0493827160493827,0,0,0.0493827160493827,0,0)" xlink:href="#E"/><use transform="matrix(0.0493827160493827,0,0,0.0493827160493827,9.876543209876539,0)" xlink:href="#F"/><use transform="matrix(0.0493827160493827,0,0,0.0493827160493827,19.753086419753078,0)" xlink:href="#G"/></g><path fill="#c92d39" d="M24-231v-30h32v30H24zM24 0v-190h32V0H24" id="H"/><path fill="#c92d39" d="M205 0l-28-72H64L36 0H1l101-248h38L239 0h-34zm-38-99l-47-123c-12 45-31 82-46 123h93" id="I"/><path fill="#c92d39" d="M18-150v-26h174v26H18zm0 90v-26h174v26H18" id="J"/><path fill="#c92d39" d="M101-251c68 0 85 55 85 127S166 4 100 4C33 4 14-52 14-124c0-73 17-127 87-127zm-1 229c47 0 54-49 54-102s-4-102-53-102c-51 0-55 48-55 102 0 53 5 102 54 102" id="K"/><path fill="#c92d39" d="M68-38c1 34 0 65-14 84H32c9-13 17-26 17-46H33v-38h35" id="L"/><path fill="#c92d39" d="M101-251c82-7 93 87 43 132L82-64C71-53 59-42 53-27h129V0H18c2-99 128-94 128-182 0-28-16-43-45-43s-46 15-49 41l-32-3c6-41 34-60 81-64" id="M"/><g id="i"><use transform="matrix(0.04320987654320987,0,0,0.04320987654320987,0,0)" xlink:href="#H"/><use transform="matrix(0.030246913580246906,0,0,0.030246913580246906,3.4135802469135794,2.177777777777777)" xlink:href="#I"/><use transform="matrix(0.04320987654320987,0,0,0.04320987654320987,10.672839506172837,0)" xlink:href="#J"/><use transform="matrix(0.04320987654320987,0,0,0.04320987654320987,19.74691358024691,0)" xlink:href="#K"/><use transform="matrix(0.04320987654320987,0,0,0.04320987654320987,28.38888888888889,0)" xlink:href="#L"/><use transform="matrix(0.04320987654320987,0,0,0.04320987654320987,32.70987654320987,0)" xlink:href="#M"/></g><path fill="#c92d39" d="M115-194c55 1 70 41 70 98S169 2 115 4C84 4 66-9 55-30l1 105H24l-1-265h31l2 30c10-21 28-34 59-34zm-8 174c40 0 45-34 45-75s-6-73-45-74c-42 0-51 32-51 76 0 43 10 73 51 73" id="N"/><path fill="#c92d39" d="M141-36C126-15 110 5 73 4 37 3 15-17 15-53c-1-64 63-63 125-63 3-35-9-54-41-54-24 1-41 7-42 31l-33-3c5-37 33-52 76-52 45 0 72 20 72 64v82c-1 20 7 32 28 27v20c-31 9-61-2-59-35zM48-53c0 20 12 33 32 33 41-3 63-29 60-74-43 2-92-5-92 41" id="O"/><path fill="#c92d39" d="M108 0H70L1-190h34L89-25l56-165h34" id="P"/><g id="j"><use transform="matrix(0.04320987654320987,0,0,0.04320987654320987,0,0)" xlink:href="#N"/><use transform="matrix(0.04320987654320987,0,0,0.04320987654320987,8.641975308641973,0)" xlink:href="#O"/><use transform="matrix(0.04320987654320987,0,0,0.04320987654320987,17.283950617283946,0)" xlink:href="#P"/></g><path fill="#c92d39" d="M160-131c35 5 61 23 61 61C221 17 115-2 30 0v-248c76 3 177-17 177 60 0 33-19 50-47 57zm-97-11c50-1 110 9 110-42 0-47-63-36-110-37v79zm0 115c55-2 124 14 124-45 0-56-70-42-124-44v89" id="Q"/><path fill="#c92d39" d="M155-56V0h-30v-56H8v-25l114-167h33v167h35v25h-35zm-30-156c-27 46-58 90-88 131h88v-131" id="R"/><g id="k"><use transform="matrix(0.04320987654320987,0,0,0.04320987654320987,0,0)" xlink:href="#H"/><use transform="matrix(0.030246913580246906,0,0,0.030246913580246906,3.4135802469135794,2.177777777777777)" xlink:href="#Q"/><use transform="matrix(0.04320987654320987,0,0,0.04320987654320987,10.672839506172837,0)" xlink:href="#J"/><use transform="matrix(0.04320987654320987,0,0,0.04320987654320987,19.74691358024691,0)" xlink:href="#K"/><use transform="matrix(0.04320987654320987,0,0,0.04320987654320987,28.38888888888889,0)" xlink:href="#L"/><use transform="matrix(0.04320987654320987,0,0,0.04320987654320987,32.70987654320987,0)" xlink:href="#R"/></g><path fill="#c92d39" d="M117-194c89-4 53 116 60 194h-32v-121c0-31-8-49-39-48C34-167 62-67 57 0H25l-1-190h30c1 10-1 24 2 32 11-22 29-35 61-36" id="S"/><path fill="#c92d39" d="M27 0v-27h64v-190l-56 39v-29l58-41h29v221h61V0H27" id="T"/><g id="l"><use transform="matrix(0.04320987654320987,0,0,0.04320987654320987,0,0)" xlink:href="#S"/><use transform="matrix(0.030246913580246906,0,0,0.030246913580246906,8.641975308641973,2.177777777777777)" xlink:href="#T"/><use transform="matrix(0.04320987654320987,0,0,0.04320987654320987,14.691358024691354,0)" xlink:href="#J"/><use transform="matrix(0.04320987654320987,0,0,0.04320987654320987,23.765432098765427,0)" xlink:href="#T"/></g><g id="m"><use transform="matrix(0.04320987654320987,0,0,0.04320987654320987,0,0)" xlink:href="#N"/><use transform="matrix(0.04320987654320987,0,0,0.04320987654320987,8.641975308641973,0)" xlink:href="#O"/><use transform="matrix(0.04320987654320987,0,0,0.04320987654320987,17.283950617283946,0)" xlink:href="#P"/></g><path fill="#0c7cba" d="M24-231v-30h32v30H24zM24 0v-190h32V0H24" id="U"/><path fill="#0c7cba" d="M205 0l-28-72H64L36 0H1l101-248h38L239 0h-34zm-38-99l-47-123c-12 45-31 82-46 123h93" id="V"/><path fill="#0c7cba" d="M18-150v-26h174v26H18zm0 90v-26h174v26H18" id="W"/><g id="n"><use transform="matrix(0.04320987654320987,0,0,0.04320987654320987,0,0)" xlink:href="#U"/><use transform="matrix(0.030246913580246906,0,0,0.030246913580246906,3.4135802469135794,2.177777777777777)" xlink:href="#V"/><use transform="matrix(0.04320987654320987,0,0,0.04320987654320987,10.672839506172837,0)" xlink:href="#W"/></g><path fill="#0c7cba" d="M101-251c68 0 85 55 85 127S166 4 100 4C33 4 14-52 14-124c0-73 17-127 87-127zm-1 229c47 0 54-49 54-102s-4-102-53-102c-51 0-55 48-55 102 0 53 5 102 54 102" id="X"/><path fill="#0c7cba" d="M68-38c1 34 0 65-14 84H32c9-13 17-26 17-46H33v-38h35" id="Y"/><path fill="#0c7cba" d="M101-251c82-7 93 87 43 132L82-64C71-53 59-42 53-27h129V0H18c2-99 128-94 128-182 0-28-16-43-45-43s-46 15-49 41l-32-3c6-41 34-60 81-64" id="Z"/><g id="o"><use transform="matrix(0.04320987654320987,0,0,0.04320987654320987,0,0)" xlink:href="#X"/><use transform="matrix(0.04320987654320987,0,0,0.04320987654320987,8.641975308641973,0)" xlink:href="#Y"/><use transform="matrix(0.04320987654320987,0,0,0.04320987654320987,12.962962962962958,0)" xlink:href="#Z"/></g><path fill="#0c7cba" d="M115-194c55 1 70 41 70 98S169 2 115 4C84 4 66-9 55-30l1 105H24l-1-265h31l2 30c10-21 28-34 59-34zm-8 174c40 0 45-34 45-75s-6-73-45-74c-42 0-51 32-51 76 0 43 10 73 51 73" id="aa"/><path fill="#0c7cba" d="M141-36C126-15 110 5 73 4 37 3 15-17 15-53c-1-64 63-63 125-63 3-35-9-54-41-54-24 1-41 7-42 31l-33-3c5-37 33-52 76-52 45 0 72 20 72 64v82c-1 20 7 32 28 27v20c-31 9-61-2-59-35zM48-53c0 20 12 33 32 33 41-3 63-29 60-74-43 2-92-5-92 41" id="ab"/><path fill="#0c7cba" d="M108 0H70L1-190h34L89-25l56-165h34" id="ac"/><g id="p"><use transform="matrix(0.04320987654320987,0,0,0.04320987654320987,0,0)" xlink:href="#aa"/><use transform="matrix(0.04320987654320987,0,0,0.04320987654320987,8.641975308641973,0)" xlink:href="#ab"/><use transform="matrix(0.04320987654320987,0,0,0.04320987654320987,17.283950617283946,0)" xlink:href="#ac"/></g><path fill="#0c7cba" d="M160-131c35 5 61 23 61 61C221 17 115-2 30 0v-248c76 3 177-17 177 60 0 33-19 50-47 57zm-97-11c50-1 110 9 110-42 0-47-63-36-110-37v79zm0 115c55-2 124 14 124-45 0-56-70-42-124-44v89" id="ad"/><g id="q"><use transform="matrix(0.04320987654320987,0,0,0.04320987654320987,0,0)" xlink:href="#U"/><use transform="matrix(0.030246913580246906,0,0,0.030246913580246906,3.4135802469135794,2.177777777777777)" xlink:href="#ad"/><use transform="matrix(0.04320987654320987,0,0,0.04320987654320987,10.672839506172837,0)" xlink:href="#W"/></g><path fill="#0c7cba" d="M155-56V0h-30v-56H8v-25l114-167h33v167h35v25h-35zm-30-156c-27 46-58 90-88 131h88v-131" id="ae"/><g id="r"><use transform="matrix(0.04320987654320987,0,0,0.04320987654320987,0,0)" xlink:href="#X"/><use transform="matrix(0.04320987654320987,0,0,0.04320987654320987,8.641975308641973,0)" xlink:href="#Y"/><use transform="matrix(0.04320987654320987,0,0,0.04320987654320987,12.962962962962958,0)" xlink:href="#ae"/></g><path fill="#0c7cba" d="M117-194c89-4 53 116 60 194h-32v-121c0-31-8-49-39-48C34-167 62-67 57 0H25l-1-190h30c1 10-1 24 2 32 11-22 29-35 61-36" id="af"/><g id="s"><use transform="matrix(0.04320987654320987,0,0,0.04320987654320987,0,0)" xlink:href="#af"/><use transform="matrix(0.030246913580246906,0,0,0.030246913580246906,8.641975308641973,2.177777777777777)" xlink:href="#Z"/><use transform="matrix(0.04320987654320987,0,0,0.04320987654320987,14.691358024691354,0)" xlink:href="#W"/></g><use transform="matrix(0.04320987654320987,0,0,0.04320987654320987,0,0)" xlink:href="#Z" id="t"/><g id="u"><use transform="matrix(0.04320987654320987,0,0,0.04320987654320987,0,0)" xlink:href="#aa"/><use transform="matrix(0.04320987654320987,0,0,0.04320987654320987,8.641975308641973,0)" xlink:href="#ab"/><use transform="matrix(0.04320987654320987,0,0,0.04320987654320987,17.283950617283946,0)" xlink:href="#ac"/></g></defs></g></svg>