<svg xmlns="http://www.w3.org/2000/svg" xmlns:xlink="http://www.w3.org/1999/xlink" xmlns:lucid="lucid" width="940" height="728.43"><g transform="translate(-60 -220)" lucid:page-tab-id="0_0"><path d="M201 400h638M201.03 400H200M838.97 400H840M200 401v340.5M200 401.03V400" stroke="#000" stroke-width="2" fill="none"/><path d="M200 756.76l-4.64-14.26h9.28z" stroke="#000" stroke-width="2"/><path d="M80 766c0-3.3 2.7-6 6-6h228c3.3 0 6 2.7 6 6v28c0 3.3-2.7 6-6 6H86c-3.3 0-6-2.7-6-6z" stroke="#000" stroke-opacity="0" stroke-width="3" fill="#fff" fill-opacity="0"/><use xlink:href="#a" transform="matrix(1,0,0,1,85,765) translate(48.08641975308642 19.65277777777778)"/><path d="M861.33 376.67c0-3.32 2.7-6 6-6h65.34c3.3 0 6 2.68 6 6v48c0 3.3-2.7 6-6 6h-65.34c-3.3 0-6-2.7-6-6z" stroke="#000" stroke-opacity="0" stroke-width="3" fill="#fff" fill-opacity="0"/><use xlink:href="#b" transform="matrix(1,0,0,1,866.3333333333333,375.6666666666667) translate(16.098765432098766 30.27777777777778)"/><path d="M200 406c0-3.3 2.7-6 6-6h28c3.3 0 6 2.7 6 6v28c0 3.3-2.7 6-6 6h-28c-3.3 0-6-2.7-6-6z" stroke="#000" stroke-opacity="0" stroke-width="3" fill="#fff" fill-opacity="0"/><use xlink:href="#c" transform="matrix(1,0,0,1,205,405) translate(10.06172839506173 17.97222222222222)"/><path d="M380 406c0-3.3 2.7-6 6-6h28c3.3 0 6 2.7 6 6v28c0 3.3-2.7 6-6 6h-28c-3.3 0-6-2.7-6-6z" stroke="#000" stroke-opacity="0" stroke-width="3" fill="#fff" fill-opacity="0"/><use xlink:href="#d" transform="matrix(1,0,0,1,385,405) translate(10.06172839506173 17.97222222222222)"/><path d="M580 406c0-3.3 2.7-6 6-6h28c3.3 0 6 2.7 6 6v28c0 3.3-2.7 6-6 6h-28c-3.3 0-6-2.7-6-6z" stroke="#000" stroke-opacity="0" stroke-width="3" fill="#fff" fill-opacity="0"/><use xlink:href="#e" transform="matrix(1,0,0,1,585,405) translate(10.06172839506173 17.97222222222222)"/><path d="M780 406c0-3.3 2.7-6 6-6h28c3.3 0 6 2.7 6 6v28c0 3.3-2.7 6-6 6h-28c-3.3 0-6-2.7-6-6z" stroke="#000" stroke-opacity="0" stroke-width="3" fill="#fff" fill-opacity="0"/><use xlink:href="#f" transform="matrix(1,0,0,1,785,405) translate(10.06172839506173 17.97222222222222)"/><path d="M400 441v40.5" stroke="#000" stroke-width="2" fill="none"/><path d="M401 441.03h-2V440h2z"/><path d="M400 496.76l-4.64-14.26h9.28z" stroke="#000" stroke-width="2"/><path d="M280 506c0-3.3 2.7-6 6-6h228c3.3 0 6 2.7 6 6v28c0 3.3-2.7 6-6 6H286c-3.3 0-6-2.7-6-6z" stroke="#000" stroke-opacity="0" stroke-width="3" fill="#fff" fill-opacity="0"/><use xlink:href="#g" transform="matrix(1,0,0,1,285,505) translate(71.34567901234568 17.97222222222222)"/><path d="M600 441v40.5M600 441.03V440" stroke="#000" stroke-width="2" fill="none"/><path d="M600 496.76l-4.64-14.26h9.28z" stroke="#000" stroke-width="2"/><path d="M480 506c0-3.3 2.7-6 6-6h228c3.3 0 6 2.7 6 6v28c0 3.3-2.7 6-6 6H486c-3.3 0-6-2.7-6-6z" stroke="#000" stroke-opacity="0" stroke-width="3" fill="#fff" fill-opacity="0"/><use xlink:href="#g" transform="matrix(1,0,0,1,485,505) translate(71.34567901234568 17.97222222222222)"/><path d="M800 441v40.5M800 441.03V440" stroke="#000" stroke-width="2" fill="none"/><path d="M800 496.76l-4.64-14.26h9.28z" stroke="#000" stroke-width="2"/><path d="M680 506c0-3.3 2.7-6 6-6h228c3.3 0 6 2.7 6 6v28c0 3.3-2.7 6-6 6H686c-3.3 0-6-2.7-6-6z" stroke="#000" stroke-opacity="0" stroke-width="3" fill="#fff" fill-opacity="0"/><use xlink:href="#g" transform="matrix(1,0,0,1,685,505) translate(71.34567901234568 17.97222222222222)"/><path d="M800.95 441.63l58.1 18.07M800.98 441.64l-.98-.3M859.02 459.7l.98.3M860 461v120.5M860 461.03V460" stroke="#000" stroke-width="2" fill="none"/><path d="M860 596.76l-4.64-14.26h9.28z" stroke="#000" stroke-width="2"/><path d="M740 606c0-3.3 2.7-6 6-6h228c3.3 0 6 2.7 6 6v48c0 3.3-2.7 6-6 6H746c-3.3 0-6-2.7-6-6z" stroke="#000" stroke-opacity="0" stroke-width="3" fill="#fff" fill-opacity="0"/><use xlink:href="#h" transform="matrix(1,0,0,1,745,605) translate(66.40740740740742 29.84722222222222)"/><path d="M320 806c0-3.3 2.7-6 6-6h228c3.3 0 6 2.7 6 6v48c0 3.3-2.7 6-6 6H326c-3.3 0-6-2.7-6-6z" stroke="#000" stroke-opacity="0" stroke-width="3" fill="#fff" fill-opacity="0"/><use xlink:href="#i" transform="matrix(1,0,0,1,325,805) translate(49.50925925925928 28.930555555555554)"/><use xlink:href="#j" transform="matrix(1,0,0,1,325,805) translate(85.42901234567903 28.930555555555554)"/><use xlink:href="#k" transform="matrix(1,0,0,1,325,805) translate(141.10802469135803 28.930555555555554)"/><path d="M200.02 801l.03 1.25.14 2.25.04.53m1.35 7.96l.13.57.65 2.32.77 2.36.9 2.4m3.43 7.32l.18.34 1.57 2.7 1.8 2.83.68 1m4.88 6.44l1.5 1.8 3.07 3.42.8.8m5.77 5.65l1.06 1 4.75 4.1.27.2m6.37 4.98l5.38 3.9 1.2.8m6.73 4.44l6.9 4.17m7.04 3.97l5.47 3 1.64.82m7.23 3.58l3.78 1.88 3.53 1.56m7.38 3.3l4.06 1.8 3.38 1.33m7.5 2.98l6.6 2.6.93.33m7.63 2.66l7.63 2.65m7.67 2.5l7.73 2.34m7.73 2.33l2.52.76 5.27 1.35m7.83 2l7.82 2.02m7.87 1.83l7.9 1.6m7.93 1.6l7.9 1.6m7.97 1.37l7.98 1.26m7.97 1.27l1.7.27 6.3.73m8.03.92l6.28.73 1.76.13m8.05.6l8.07.6m8.07.3l8.07.24m8.08.04l8.08-.1m8.07-.24l8.07-.43m8.05-.54l8.04-.76m8.02-.84l8-1.1m8-1.1h.04l7.9-1.43m7.96-1.44l2.92-.53 5-1.12m7.87-1.77l7.48-1.67.4-.1m7.8-2.06l7.74-2.33m7.68-2.47l7.54-2.9m7.53-2.92l.3-.1 7-3.34m7.3-3.47l1.46-.7 5.6-3.2m7-4.03l.43-.24 4.08-2.64 2.2-1.6m6.55-4.75l6.53-4.75m6.27-5.08l6.13-5.25m6.14-5.24l.23-.2 5.5-5.5m5.7-5.73l4.1-4.12 1.46-1.72m5.24-6.15l5.23-6.13m4.96-6.38l3.1-4.15 1.65-2.38m4.58-6.65l.43-.62 3.9-6.2m4.18-6.9l4-7.02m3.77-7.14l2.83-5.43.82-1.77m3.4-7.32l1.3-2.72 1.93-4.68m3.1-7.45l2.8-7.6m2.65-7.6l2.46-7.7m2.2-7.77l1.6-5.78.46-2.03m1.8-7.86l.46-1.93 1.12-6m1.38-7.94l1.15-8m.84-8.03l.36-3.36.03-.66" stroke="#000" stroke-width="2" fill="none"/><path d="M201.02 801l-2 .05L199 800h2z"/><path d="M801.2 663.23l4.07 14.44-9.27-.37z" stroke="#000" stroke-width="2"/><path d="M202.97 399v-2.95m0-3.93v-5.9m0-3.94v-5.9m0-3.93v-5.9m0-3.93v-5.9m0-3.94v-5.9m0-3.93v-5.9m0-3.93v-5.9m0-3.94v-5.9m0-3.93v-5.9m0-3.93v-5.9m0-3.94v-5.9m0-3.93V281M202.97 398.97V400" stroke="#000" stroke-width="2" fill="none"/><path d="M203.97 281.03h-2V280h2z"/><path d="M142.97 246c0-3.3 2.7-6 6-6h108c3.32 0 6 2.7 6 6v28c0 3.3-2.68 6-6 6h-108c-3.3 0-6-2.7-6-6z" stroke="#000" stroke-opacity="0" stroke-width="3" fill="#fff" fill-opacity="0"/><g><use xlink:href="#l" transform="matrix(1,0,0,1,147.97168500000006,245) translate(50.06172839506173 17.97222222222222)"/></g><defs><path fill="#333" d="M194-70c0 46-34 64-81 66v29H91V-4C42-5 12-27 4-67l30-6c5 28 25 41 57 43v-87c-38-9-76-20-76-67 1-42 33-58 76-59v-23h22v23c45 0 67 20 76 56l-31 6c-5-23-18-35-45-37v78c41 10 81 20 81 70zm-81 41c51 7 71-66 19-77-6-2-12-4-19-6v83zM91-219c-47-6-63 57-18 69 6 2 12 3 18 5v-74" id="m"/><path fill="#333" d="M99-251c64 0 84 50 84 122C183-37 130 33 47-8c-14-7-20-23-25-40l30-5c6 39 69 39 84 7 9-19 16-44 16-74-10 22-31 35-62 35-49 0-73-33-73-83 0-54 28-83 82-83zm-1 141c31-1 51-18 51-49 0-36-14-67-51-67-34 0-49 23-49 58 0 34 15 58 49 58" id="n"/><path fill="#333" d="M101-251c68 0 85 55 85 127S166 4 100 4C33 4 14-52 14-124c0-73 17-127 87-127zm-1 229c47 0 54-49 54-102s-4-102-53-102c-51 0-55 48-55 102 0 53 5 102 54 102" id="o"/><path fill="#333" d="M47-170H22l-4-78h33" id="p"/><path fill="#333" d="M33 0v-38h34V0H33" id="q"/><g id="a"><use transform="matrix(0.06172839506172839,0,0,0.06172839506172839,0,0)" xlink:href="#m"/><use transform="matrix(0.06172839506172839,0,0,0.06172839506172839,12.345679012345679,0)" xlink:href="#n"/><use transform="matrix(0.06172839506172839,0,0,0.06172839506172839,24.691358024691358,0)" xlink:href="#o"/><use transform="matrix(0.06172839506172839,0,0,0.06172839506172839,37.03703703703704,0)" xlink:href="#o"/><use transform="matrix(0.06172839506172839,0,0,0.06172839506172839,49.382716049382715,0)" xlink:href="#p"/><use transform="matrix(0.06172839506172839,0,0,0.06172839506172839,53.58024691358025,0)" xlink:href="#o"/><use transform="matrix(0.06172839506172839,0,0,0.06172839506172839,65.92592592592592,0)" xlink:href="#o"/><use transform="matrix(0.06172839506172839,0,0,0.06172839506172839,78.27160493827161,0)" xlink:href="#o"/><use transform="matrix(0.06172839506172839,0,0,0.06172839506172839,90.61728395061729,0)" xlink:href="#q"/><use transform="matrix(0.06172839506172839,0,0,0.06172839506172839,96.79012345679013,0)" xlink:href="#o"/><use transform="matrix(0.06172839506172839,0,0,0.06172839506172839,109.13580246913581,0)" xlink:href="#o"/><use transform="matrix(0.06172839506172839,0,0,0.06172839506172839,121.4814814814815,0)" xlink:href="#o"/></g><path fill="#333" d="M115-194c55 1 70 41 70 98S169 2 115 4C84 4 66-9 55-30l1 105H24l-1-265h31l2 30c10-21 28-34 59-34zm-8 174c40 0 45-34 45-75s-6-73-45-74c-42 0-51 32-51 76 0 43 10 73 51 73" id="r"/><path fill="#333" d="M141-36C126-15 110 5 73 4 37 3 15-17 15-53c-1-64 63-63 125-63 3-35-9-54-41-54-24 1-41 7-42 31l-33-3c5-37 33-52 76-52 45 0 72 20 72 64v82c-1 20 7 32 28 27v20c-31 9-61-2-59-35zM48-53c0 20 12 33 32 33 41-3 63-29 60-74-43 2-92-5-92 41" id="s"/><path fill="#333" d="M108 0H70L1-190h34L89-25l56-165h34" id="t"/><g id="b"><use transform="matrix(0.06172839506172839,0,0,0.06172839506172839,0,0)" xlink:href="#r"/><use transform="matrix(0.06172839506172839,0,0,0.06172839506172839,12.345679012345679,0)" xlink:href="#s"/><use transform="matrix(0.06172839506172839,0,0,0.06172839506172839,24.691358024691358,0)" xlink:href="#t"/></g><use transform="matrix(0.049382716049382706,0,0,0.049382716049382706,0,0)" xlink:href="#o" id="c"/><path fill="#333" d="M27 0v-27h64v-190l-56 39v-29l58-41h29v221h61V0H27" id="u"/><use transform="matrix(0.049382716049382706,0,0,0.049382716049382706,0,0)" xlink:href="#u" id="d"/><path fill="#333" d="M101-251c82-7 93 87 43 132L82-64C71-53 59-42 53-27h129V0H18c2-99 128-94 128-182 0-28-16-43-45-43s-46 15-49 41l-32-3c6-41 34-60 81-64" id="v"/><use transform="matrix(0.049382716049382706,0,0,0.049382716049382706,0,0)" xlink:href="#v" id="e"/><path fill="#333" d="M126-127c33 6 58 20 58 59 0 88-139 92-164 29-3-8-5-16-6-25l32-3c6 27 21 44 54 44 32 0 52-15 52-46 0-38-36-46-79-43v-28c39 1 72-4 72-42 0-27-17-43-46-43-28 0-47 15-49 41l-32-3c6-42 35-63 81-64 48-1 79 21 79 65 0 36-21 52-52 59" id="w"/><use transform="matrix(0.049382716049382706,0,0,0.049382716049382706,0,0)" xlink:href="#w" id="f"/><path fill="#333" d="M54-142c48-35 137-8 131 61C196 18 31 33 14-55l32-4c7 23 22 37 52 37 35-1 51-22 54-58 4-55-73-65-99-34H22l8-134h141v27H59" id="x"/><g id="g"><use transform="matrix(0.049382716049382706,0,0,0.049382716049382706,0,0)" xlink:href="#m"/><use transform="matrix(0.049382716049382706,0,0,0.049382716049382706,9.87654320987654,0)" xlink:href="#x"/><use transform="matrix(0.049382716049382706,0,0,0.049382716049382706,19.75308641975308,0)" xlink:href="#p"/><use transform="matrix(0.049382716049382706,0,0,0.049382716049382706,23.111111111111107,0)" xlink:href="#o"/><use transform="matrix(0.049382716049382706,0,0,0.049382716049382706,32.987654320987644,0)" xlink:href="#o"/><use transform="matrix(0.049382716049382706,0,0,0.049382716049382706,42.86419753086419,0)" xlink:href="#o"/><use transform="matrix(0.049382716049382706,0,0,0.049382716049382706,52.74074074074073,0)" xlink:href="#q"/><use transform="matrix(0.049382716049382706,0,0,0.049382716049382706,57.679012345679,0)" xlink:href="#o"/><use transform="matrix(0.049382716049382706,0,0,0.049382716049382706,67.55555555555554,0)" xlink:href="#o"/><use transform="matrix(0.049382716049382706,0,0,0.049382716049382706,77.43209876543209,0)" xlink:href="#o"/></g><g id="h"><use transform="matrix(0.049382716049382706,0,0,0.049382716049382706,0,0)" xlink:href="#m"/><use transform="matrix(0.049382716049382706,0,0,0.049382716049382706,9.87654320987654,0)" xlink:href="#v"/><use transform="matrix(0.049382716049382706,0,0,0.049382716049382706,19.75308641975308,0)" xlink:href="#x"/><use transform="matrix(0.049382716049382706,0,0,0.049382716049382706,29.629629629629623,0)" xlink:href="#p"/><use transform="matrix(0.049382716049382706,0,0,0.049382716049382706,32.987654320987644,0)" xlink:href="#o"/><use transform="matrix(0.049382716049382706,0,0,0.049382716049382706,42.86419753086419,0)" xlink:href="#o"/><use transform="matrix(0.049382716049382706,0,0,0.049382716049382706,52.74074074074073,0)" xlink:href="#o"/><use transform="matrix(0.049382716049382706,0,0,0.049382716049382706,62.617283950617285,0)" xlink:href="#q"/><use transform="matrix(0.049382716049382706,0,0,0.049382716049382706,67.55555555555554,0)" xlink:href="#o"/><use transform="matrix(0.049382716049382706,0,0,0.049382716049382706,77.43209876543209,0)" xlink:href="#o"/><use transform="matrix(0.049382716049382706,0,0,0.049382716049382706,87.30864197530863,0)" xlink:href="#o"/></g><path fill="#333" d="M24-231v-30h32v30H24zM24 0v-190h32V0H24" id="y"/><path fill="#333" d="M18-150v-26h174v26H18zm0 90v-26h174v26H18" id="z"/><g id="i"><use transform="matrix(0.06790123456790122,0,0,0.06790123456790122,0,0)" xlink:href="#y"/><use transform="matrix(0.04753086419753085,0,0,0.04753086419753085,5.364197530864196,3.422222222222221)" xlink:href="#u"/><use transform="matrix(0.06790123456790122,0,0,0.06790123456790122,14.870370370370367,0)" xlink:href="#z"/></g><path fill="#333" d="M252-156c43 0 55 33 55 80 0 46-13 78-56 78-42 0-55-33-55-78 0-48 12-80 56-80zM93 0H65l162-248h28zM13-171c-1-47 13-79 56-79s55 33 55 79-13 79-55 79c-43 0-56-33-56-79zM251-17c28 0 30-29 30-59 0-31-1-60-29-60-29 0-31 29-31 60 0 29 2 59 30 59zM69-112c27 0 28-30 29-59 0-31-1-60-29-60-29 0-30 30-30 60s2 59 30 59" id="A"/><g id="j"><use transform="matrix(0.06790123456790122,0,0,0.06790123456790122,0,0)" xlink:href="#v"/><use transform="matrix(0.06790123456790122,0,0,0.06790123456790122,13.580246913580243,0)" xlink:href="#x"/><use transform="matrix(0.06790123456790122,0,0,0.06790123456790122,27.160493827160487,0)" xlink:href="#A"/></g><g id="k"><use transform="matrix(0.06790123456790122,0,0,0.06790123456790122,0,0)" xlink:href="#r"/><use transform="matrix(0.06790123456790122,0,0,0.06790123456790122,13.580246913580243,0)" xlink:href="#s"/><use transform="matrix(0.06790123456790122,0,0,0.06790123456790122,27.160493827160487,0)" xlink:href="#t"/></g><path fill="#333" d="M76-167L44 0H12l33-167H18l4-23h27c3-47 25-81 82-69l-4 24c-35-8-44 15-46 45h37l-5 23H76" id="B"/><g id="l"><use transform="matrix(0.049382716049382706,0,0,0.049382716049382706,0,0)" xlink:href="#B"/><use transform="matrix(0.049382716049382706,0,0,0.049382716049382706,4.93827160493827,0)" xlink:href="#B"/></g></defs></g></svg>