<svg xmlns="http://www.w3.org/2000/svg" xmlns:xlink="http://www.w3.org/1999/xlink" xmlns:lucid="lucid" width="1500" height="636.33"><g transform="translate(40 -140)" lucid:page-tab-id="0_0"><path d="M101 400h1198M101.03 400H100M1298.97 400h1.03" stroke="#000" stroke-width="2" fill="none"/><path d="M80 406c0-3.3 2.7-6 6-6h28c3.3 0 6 2.7 6 6v28c0 3.3-2.7 6-6 6H86c-3.3 0-6-2.7-6-6z" stroke="#000" stroke-opacity="0" stroke-width="3" fill="#fff" fill-opacity="0"/><use xlink:href="#a" transform="matrix(1,0,0,1,85,405) translate(8.827160493827162 19.652777777777775)"/><path d="M280 406c0-3.3 2.7-6 6-6h28c3.3 0 6 2.7 6 6v28c0 3.3-2.7 6-6 6h-28c-3.3 0-6-2.7-6-6z" stroke="#000" stroke-opacity="0" stroke-width="3" fill="#fff" fill-opacity="0"/><use xlink:href="#b" transform="matrix(1,0,0,1,285,405) translate(8.827160493827162 19.652777777777775)"/><path d="M480 406c0-3.3 2.7-6 6-6h28c3.3 0 6 2.7 6 6v28c0 3.3-2.7 6-6 6h-28c-3.3 0-6-2.7-6-6z" stroke="#000" stroke-opacity="0" stroke-width="3" fill="#fff" fill-opacity="0"/><use xlink:href="#c" transform="matrix(1,0,0,1,485,405) translate(8.827160493827162 19.652777777777775)"/><path d="M680 406c0-3.3 2.7-6 6-6h28c3.3 0 6 2.7 6 6v28c0 3.3-2.7 6-6 6h-28c-3.3 0-6-2.7-6-6z" stroke="#000" stroke-opacity="0" stroke-width="3" fill="#fff" fill-opacity="0"/><use xlink:href="#d" transform="matrix(1,0,0,1,685,405) translate(8.827160493827162 19.652777777777775)"/><path d="M880 406c0-3.3 2.7-6 6-6h28c3.3 0 6 2.7 6 6v28c0 3.3-2.7 6-6 6h-28c-3.3 0-6-2.7-6-6z" stroke="#000" stroke-opacity="0" stroke-width="3" fill="#fff" fill-opacity="0"/><use xlink:href="#e" transform="matrix(1,0,0,1,885,405) translate(8.827160493827162 19.652777777777775)"/><path d="M1080 406c0-3.3 2.7-6 6-6h28c3.3 0 6 2.7 6 6v28c0 3.3-2.7 6-6 6h-28c-3.3 0-6-2.7-6-6z" stroke="#000" stroke-opacity="0" stroke-width="3" fill="#fff" fill-opacity="0"/><use xlink:href="#f" transform="matrix(1,0,0,1,1085,405) translate(8.827160493827162 19.652777777777775)"/><path d="M1280 406c0-3.3 2.7-6 6-6h28c3.3 0 6 2.7 6 6v28c0 3.3-2.7 6-6 6h-28c-3.3 0-6-2.7-6-6z" stroke="#000" stroke-opacity="0" stroke-width="3" fill="#fff" fill-opacity="0"/><use xlink:href="#g" transform="matrix(1,0,0,1,1285,405) translate(8.827160493827162 19.652777777777775)"/><path d="M500 399V218.5" stroke="#000" stroke-width="2" fill="none"/><path d="M501 400h-2v-1.03h2z"/><path d="M500 203.24l4.64 14.26h-9.28z" stroke="#000" stroke-width="2"/><path d="M380 166c0-3.3 2.7-6 6-6h228c3.3 0 6 2.7 6 6v28c0 3.3-2.7 6-6 6H386c-3.3 0-6-2.7-6-6z" stroke="#000" stroke-opacity="0" stroke-width="3" fill="#fff" fill-opacity="0"/><use xlink:href="#h" transform="matrix(1,0,0,1,385,165) translate(90.30864197530865 19.652777777777775)"/><path d="M1300 399V218.5M1300 398.97V400" stroke="#000" stroke-width="2" fill="none"/><path d="M1300 203.24l4.64 14.26h-9.28z" stroke="#000" stroke-width="2"/><path d="M1180 166c0-3.3 2.7-6 6-6h228c3.3 0 6 2.7 6 6v28c0 3.3-2.7 6-6 6h-228c-3.3 0-6-2.7-6-6z" stroke="#000" stroke-opacity="0" stroke-width="3" fill="#fff" fill-opacity="0"/><use xlink:href="#h" transform="matrix(1,0,0,1,1185,165) translate(90.30864197530865 19.652777777777775)"/><path d="M100 441v140.5" stroke="#000" stroke-width="2" fill="none"/><path d="M101 441.03h-2V440h2z"/><path d="M100 596.76l-4.64-14.26h9.28z" stroke="#000" stroke-width="2"/><path d="M-20 606c0-3.3 2.7-6 6-6h228c3.3 0 6 2.7 6 6v28c0 3.3-2.7 6-6 6H-14c-3.3 0-6-2.7-6-6z" stroke="#000" stroke-opacity="0" stroke-width="3" fill="#fff" fill-opacity="0"/><use xlink:href="#i" transform="matrix(1,0,0,1,-15,605) translate(73.33333333333334 19.652777777777775)"/><use xlink:href="#j" transform="matrix(1,0,0,1,-15,605) translate(107.28395061728395 19.652777777777775)"/><path d="M300 441v40.5" stroke="#000" stroke-width="2" fill="none"/><path d="M301 441.03h-2V440h2z"/><path d="M300 496.76l-4.64-14.26h9.28z" stroke="#000" stroke-width="2"/><path d="M270 506c0-3.3 2.7-6 6-6h48c3.3 0 6 2.7 6 6v28c0 3.3-2.7 6-6 6h-48c-3.3 0-6-2.7-6-6z" stroke="#000" stroke-opacity="0" stroke-width="3" fill="#fff" fill-opacity="0"/><use xlink:href="#k" transform="matrix(1,0,0,1,275,505) translate(6.4814814814814845 19.652777777777775)"/><path d="M500 441v40.5M500 441.03V440" stroke="#000" stroke-width="2" fill="none"/><path d="M500 496.76l-4.64-14.26h9.28z" stroke="#000" stroke-width="2"/><path d="M470 506c0-3.3 2.7-6 6-6h48c3.3 0 6 2.7 6 6v28c0 3.3-2.7 6-6 6h-48c-3.3 0-6-2.7-6-6z" stroke="#000" stroke-opacity="0" stroke-width="3" fill="#fff" fill-opacity="0"/><use xlink:href="#k" transform="matrix(1,0,0,1,475,505) translate(6.4814814814814845 19.652777777777775)"/><path d="M700 441v40.5M700 441.03V440" stroke="#000" stroke-width="2" fill="none"/><path d="M700 496.76l-4.64-14.26h9.28z" stroke="#000" stroke-width="2"/><path d="M670 506c0-3.3 2.7-6 6-6h48c3.3 0 6 2.7 6 6v28c0 3.3-2.7 6-6 6h-48c-3.3 0-6-2.7-6-6z" stroke="#000" stroke-opacity="0" stroke-width="3" fill="#fff" fill-opacity="0"/><use xlink:href="#k" transform="matrix(1,0,0,1,675,505) translate(6.4814814814814845 19.652777777777775)"/><path d="M900 441v40.5M900 441.03V440" stroke="#000" stroke-width="2" fill="none"/><path d="M900 496.76l-4.64-14.26h9.28z" stroke="#000" stroke-width="2"/><path d="M870 506c0-3.3 2.7-6 6-6h48c3.3 0 6 2.7 6 6v28c0 3.3-2.7 6-6 6h-48c-3.3 0-6-2.7-6-6z" stroke="#000" stroke-opacity="0" stroke-width="3" fill="#fff" fill-opacity="0"/><use xlink:href="#k" transform="matrix(1,0,0,1,875,505) translate(6.4814814814814845 19.652777777777775)"/><path d="M1100 441v40.5M1100 441.03V440" stroke="#000" stroke-width="2" fill="none"/><path d="M1100 496.76l-4.64-14.26h9.28z" stroke="#000" stroke-width="2"/><path d="M1070 506c0-3.3 2.7-6 6-6h48c3.3 0 6 2.7 6 6v28c0 3.3-2.7 6-6 6h-48c-3.3 0-6-2.7-6-6z" stroke="#000" stroke-opacity="0" stroke-width="3" fill="#fff" fill-opacity="0"/><use xlink:href="#k" transform="matrix(1,0,0,1,1075,505) translate(6.4814814814814845 19.652777777777775)"/><path d="M1300 441v40.5M1300 441.03V440" stroke="#000" stroke-width="2" fill="none"/><path d="M1300 496.76l-4.64-14.26h9.28z" stroke="#000" stroke-width="2"/><path d="M1270 506c0-3.3 2.7-6 6-6h48c3.3 0 6 2.7 6 6v28c0 3.3-2.7 6-6 6h-48c-3.3 0-6-2.7-6-6z" stroke="#000" stroke-opacity="0" stroke-width="3" fill="#fff" fill-opacity="0"/><use xlink:href="#k" transform="matrix(1,0,0,1,1275,505) translate(6.4814814814814845 19.652777777777775)"/><path d="M500.95 440.32l58.1 19.36" stroke="#000" stroke-width="2" fill="none"/><path d="M500.66 441.27l-3.82-1.27h4.24z"/><path d="M559.03 459.68l.97.32M560 461v120.5M560 461.03V460" stroke="#000" stroke-width="2" fill="none"/><path d="M560 596.76l-4.64-14.26h9.28z" stroke="#000" stroke-width="2"/><path d="M440 606c0-3.3 2.7-6 6-6h228c3.3 0 6 2.7 6 6v28c0 3.3-2.7 6-6 6H446c-3.3 0-6-2.7-6-6z" stroke="#000" stroke-opacity="0" stroke-width="3" fill="#fff" fill-opacity="0"/><use xlink:href="#l" transform="matrix(1,0,0,1,445,605) translate(90.30864197530865 19.652777777777775)"/><path d="M1270 366c0-3.3 2.7-6 6-6h158c3.3 0 6 2.7 6 6v48c0 3.3-2.7 6-6 6h-158c-3.3 0-6-2.7-6-6z" stroke="#000" stroke-opacity="0" stroke-width="3" fill="#fff" fill-opacity="0"/><use xlink:href="#m" transform="matrix(1,0,0,1,1275,365) translate(62.09876543209877 30.277777777777775)"/><path d="M102.3 641l.07 4.02m.27 8.03l.4 6.28.17 1.74m.94 7.98l.65 4.42.66 3.5m1.75 7.85l1.18 4.2 1.14 3.5m2.9 7.5l.2.47 1.52 3.22 1.57 3 .3.48m4.27 6.8l.48.68 1.8 2.37 1.86 2.26.88.97m5.7 5.67l1.8 1.55 2.37 1.87 2.13 1.55m6.8 4.27l2.35 1.3 3.45 1.7 1.37.6m7.45 3.03l4 1.4 3.64 1.1m7.76 2.07l.6.15 7.26 1.54m7.92 1.35l2.8.47 5.16.64m7.97 1l1.05.13 6.97.55m8 .65l8.02.64m8.02.55l8.02.44m8.02.46l8.03.46m8.02.45l8.03.47m8.02.45l8.02.46m8.03.37l8.03.36m8.03.37l8.04.36m8.03.36l8.03.35m8.02.36l8.03.37m8.03.36l8.03.36m8.04.35l8.03.35m8.03.36l8.03.36m8.03.36l8.02.36m8.03.36l7.97.36h.07m8.04.05l8.04.05m8.03.05l8.04.05m8.03.04l8.03.04m8.04.05l8.04.04m8.03.04l8.04.05m8.05.05l8.03.04m8.04.05l8.04.05m8.03.05l8.03.04m8.04.06l8.03.05m8.04.05l8.04.05m8.03.05l8.05.05m8.04.04l8.02.05m8.04.04l8.04.04m8.03.05l8.04.05m8.04.05l8.05.04m8.03.05l8.04.05m8.04.04l3.18.03 4.85-.07m8.03-.12l8.03-.13m8.04-.1l8.04-.13m8.03-.13l8.04-.12m8.04-.12l8.04-.13m8.04-.12l8.03-.13m8.04-.12l8.02-.12m8.04-.13l8.04-.12m8.03-.12l8.04-.12m8.03-.12l8.04-.12m8.03-.13l8.04-.1m8.05-.13l8.03-.13m8.04-.12l8.03-.12m8.04-.13l8.03-.12m8.03-.12l8.04-.13m8.03-.12l8.04-.12m8.03-.36l8-.56m8.03-.57l8.02-.56m8-.56l8.03-.56m8.02-.56l5.64-.4 2.37-.27m8-.9l7.98-.9m7.98-.9l8-.9m7.96-1l7.95-1.24m7.94-1.23l7.95-1.24m7.9-1.37l7.9-1.57m7.88-1.6l5.57-1.1 2.3-.55m7.8-1.9l7.8-1.9m7.76-2.13l7.72-2.23m7.67-2.38l7.63-2.55m7.56-2.7l7.5-2.87m7.42-3.1l5.64-2.44 1.7-.82m7.25-3.5l1.25-.6 5.87-3.12m7-3.94l4.6-2.72 2.26-1.46m6.7-4.42l5.54-3.92 1-.77m6.33-4.97l4.94-4.16 1.16-1.06m5.86-5.5l3.53-3.5 2.06-2.25m5.32-6.02l1.8-2.13 3.23-4.14m4.73-6.5l.13-.2 3.67-5.63.55-.93m4.02-6.96l2.1-3.93 1.57-3.2m3.33-7.32l.96-2.2 2.03-5.26m2.63-7.6l.37-1.1 1.93-6.6m1.97-7.78l.28-1.15 1.36-6.72m1.35-7.93l.46-2.97.6-5m.8-8l.3-4" stroke="#000" stroke-width="2" fill="none"/><path d="M103.3 641l-2 .05-.03-1.05h2z"/><path d="M1299.9 543.23l4.1 14.42-9.25-.32z" stroke="#000" stroke-width="2"/><path d="M300 664.33c0-3.3 2.7-6 6-6h228c3.3 0 6 2.7 6 6v51.34c0 3.3-2.7 6-6 6H306c-3.3 0-6-2.7-6-6z" stroke="#000" stroke-opacity="0" stroke-width="3" fill="#fff" fill-opacity="0"/><use xlink:href="#n" transform="matrix(1,0,0,1,305,663.3333333333334) translate(72.09876543209877 17.777777777777775)"/><use xlink:href="#o" transform="matrix(1,0,0,1,305,663.3333333333334) translate(103.58024691358025 17.777777777777775)"/><use xlink:href="#p" transform="matrix(1,0,0,1,305,663.3333333333334) translate(122.09876543209876 17.777777777777775)"/><use xlink:href="#q" transform="matrix(1,0,0,1,305,663.3333333333334) translate(59.78395061728396 44.44444444444444)"/><use xlink:href="#r" transform="matrix(1,0,0,1,305,663.3333333333334) translate(83.7962962962963 44.44444444444444)"/><use xlink:href="#s" transform="matrix(1,0,0,1,305,663.3333333333334) translate(134.41358024691357 44.44444444444444)"/><path d="M900 399V218.5" stroke="#000" stroke-width="2" fill="none"/><path d="M901 400h-2v-1.03h2z"/><path d="M900 203.24l4.64 14.26h-9.28z" stroke="#000" stroke-width="2"/><path d="M780 166c0-3.3 2.7-6 6-6h228c3.3 0 6 2.7 6 6v28c0 3.3-2.7 6-6 6H786c-3.3 0-6-2.7-6-6z" stroke="#000" stroke-opacity="0" stroke-width="3" fill="#fff" fill-opacity="0"/><use xlink:href="#h" transform="matrix(1,0,0,1,785,165) translate(90.30864197530865 19.652777777777775)"/><path d="M900.95 440.32l58.1 19.36M900.97 440.32L900 440M959.03 459.68l.97.32M960 461v120.5M960 461.03V460" stroke="#000" stroke-width="2" fill="none"/><path d="M960 596.76l-4.64-14.26h9.28z" stroke="#000" stroke-width="2"/><path d="M840 606c0-3.3 2.7-6 6-6h228c3.3 0 6 2.7 6 6v28c0 3.3-2.7 6-6 6H846c-3.3 0-6-2.7-6-6z" stroke="#000" stroke-opacity="0" stroke-width="3" fill="#fff" fill-opacity="0"/><use xlink:href="#l" transform="matrix(1,0,0,1,845,605) translate(90.30864197530865 19.652777777777775)"/><path d="M100.36 399v-4.12m0-8.23v-8.24m0-8.22v-8.24m0-8.23v-8.23m0-8.23V329m0-8.23v-8.24m0-8.23v-4.12l-.06-.13-.12-.05-.13-.05-.05-.13v-4.12m0-8.23v-8.24m0-8.23v-8.24m0-8.23v-8.24m0-8.24v-8.24m0-8.23v-8.25m0-8.23V201M100.36 398.97V400" stroke="#000" stroke-width="2" fill="none"/><path d="M101 201.03h-2V200h2z"/><path d="M-20 166c0-3.3 2.7-6 6-6h228c3.3 0 6 2.7 6 6v28c0 3.3-2.7 6-6 6H-14c-3.3 0-6-2.7-6-6z" stroke="#000" stroke-opacity="0" stroke-width="3" fill="#fff" fill-opacity="0"/><g><use xlink:href="#t" transform="matrix(1,0,0,1,-15,165) translate(108.82716049382717 19.652777777777775)"/></g><defs><path d="M101-251c68 0 85 55 85 127S166 4 100 4C33 4 14-52 14-124c0-73 17-127 87-127zm-1 229c47 0 54-49 54-102s-4-102-53-102c-51 0-55 48-55 102 0 53 5 102 54 102" id="u"/><use transform="matrix(0.061728395061728385,0,0,0.061728395061728385,0,0)" xlink:href="#u" id="a"/><path d="M27 0v-27h64v-190l-56 39v-29l58-41h29v221h61V0H27" id="v"/><use transform="matrix(0.061728395061728385,0,0,0.061728395061728385,0,0)" xlink:href="#v" id="b"/><path d="M101-251c82-7 93 87 43 132L82-64C71-53 59-42 53-27h129V0H18c2-99 128-94 128-182 0-28-16-43-45-43s-46 15-49 41l-32-3c6-41 34-60 81-64" id="w"/><use transform="matrix(0.061728395061728385,0,0,0.061728395061728385,0,0)" xlink:href="#w" id="c"/><path d="M126-127c33 6 58 20 58 59 0 88-139 92-164 29-3-8-5-16-6-25l32-3c6 27 21 44 54 44 32 0 52-15 52-46 0-38-36-46-79-43v-28c39 1 72-4 72-42 0-27-17-43-46-43-28 0-47 15-49 41l-32-3c6-42 35-63 81-64 48-1 79 21 79 65 0 36-21 52-52 59" id="x"/><use transform="matrix(0.061728395061728385,0,0,0.061728395061728385,0,0)" xlink:href="#x" id="d"/><path d="M155-56V0h-30v-56H8v-25l114-167h33v167h35v25h-35zm-30-156c-27 46-58 90-88 131h88v-131" id="y"/><use transform="matrix(0.061728395061728385,0,0,0.061728395061728385,0,0)" xlink:href="#y" id="e"/><path d="M54-142c48-35 137-8 131 61C196 18 31 33 14-55l32-4c7 23 22 37 52 37 35-1 51-22 54-58 4-55-73-65-99-34H22l8-134h141v27H59" id="z"/><use transform="matrix(0.061728395061728385,0,0,0.061728395061728385,0,0)" xlink:href="#z" id="f"/><path d="M110-160c48 1 74 30 74 79 0 53-28 85-80 85-65 0-83-55-86-122-5-90 50-162 133-122 14 7 22 21 27 39l-31 6c-5-40-67-38-82-6-9 19-15 44-15 74 11-20 30-34 60-33zm-7 138c34 0 49-23 49-58s-16-56-50-56c-29 0-50 16-49 49 1 36 15 65 50 65" id="A"/><use transform="matrix(0.061728395061728385,0,0,0.061728395061728385,0,0)" xlink:href="#A" id="g"/><path d="M194-70c0 46-34 64-81 66v29H91V-4C42-5 12-27 4-67l30-6c5 28 25 41 57 43v-87c-38-9-76-20-76-67 1-42 33-58 76-59v-23h22v23c45 0 67 20 76 56l-31 6c-5-23-18-35-45-37v78c41 10 81 20 81 70zm-81 41c51 7 71-66 19-77-6-2-12-4-19-6v83zM91-219c-47-6-63 57-18 69 6 2 12 3 18 5v-74" id="B"/><g id="h"><use transform="matrix(0.061728395061728385,0,0,0.061728395061728385,0,0)" xlink:href="#B"/><use transform="matrix(0.061728395061728385,0,0,0.061728395061728385,12.345679012345677,0)" xlink:href="#v"/><use transform="matrix(0.061728395061728385,0,0,0.061728395061728385,24.691358024691354,0)" xlink:href="#z"/><use transform="matrix(0.061728395061728385,0,0,0.061728395061728385,37.03703703703703,0)" xlink:href="#u"/></g><path d="M30-248c87 1 191-15 191 75 0 78-77 80-158 76V0H30v-248zm33 125c57 0 124 11 124-50 0-59-68-47-124-48v98" id="C"/><path d="M18-150v-26h174v26H18zm0 90v-26h174v26H18" id="D"/><g id="i"><use transform="matrix(0.061728395061728385,0,0,0.061728395061728385,0,0)" xlink:href="#C"/><use transform="matrix(0.061728395061728385,0,0,0.061728395061728385,14.814814814814813,0)" xlink:href="#D"/></g><g id="j"><use transform="matrix(0.061728395061728385,0,0,0.061728395061728385,0,0)" xlink:href="#B"/><use transform="matrix(0.061728395061728385,0,0,0.061728395061728385,12.345679012345677,0)" xlink:href="#A"/><use transform="matrix(0.061728395061728385,0,0,0.061728395061728385,24.691358024691354,0)" xlink:href="#u"/><use transform="matrix(0.061728395061728385,0,0,0.061728395061728385,37.03703703703703,0)" xlink:href="#u"/></g><g id="k"><use transform="matrix(0.061728395061728385,0,0,0.061728395061728385,0,0)" xlink:href="#B"/><use transform="matrix(0.061728395061728385,0,0,0.061728395061728385,12.345679012345677,0)" xlink:href="#x"/><use transform="matrix(0.061728395061728385,0,0,0.061728395061728385,24.691358024691354,0)" xlink:href="#u"/></g><g id="l"><use transform="matrix(0.061728395061728385,0,0,0.061728395061728385,0,0)" xlink:href="#B"/><use transform="matrix(0.061728395061728385,0,0,0.061728395061728385,12.345679012345677,0)" xlink:href="#A"/><use transform="matrix(0.061728395061728385,0,0,0.061728395061728385,24.691358024691354,0)" xlink:href="#u"/><use transform="matrix(0.061728395061728385,0,0,0.061728395061728385,37.03703703703703,0)" xlink:href="#u"/></g><path d="M115-194c55 1 70 41 70 98S169 2 115 4C84 4 66-9 55-30l1 105H24l-1-265h31l2 30c10-21 28-34 59-34zm-8 174c40 0 45-34 45-75s-6-73-45-74c-42 0-51 32-51 76 0 43 10 73 51 73" id="E"/><path d="M141-36C126-15 110 5 73 4 37 3 15-17 15-53c-1-64 63-63 125-63 3-35-9-54-41-54-24 1-41 7-42 31l-33-3c5-37 33-52 76-52 45 0 72 20 72 64v82c-1 20 7 32 28 27v20c-31 9-61-2-59-35zM48-53c0 20 12 33 32 33 41-3 63-29 60-74-43 2-92-5-92 41" id="F"/><path d="M108 0H70L1-190h34L89-25l56-165h34" id="G"/><g id="m"><use transform="matrix(0.061728395061728385,0,0,0.061728395061728385,0,0)" xlink:href="#E"/><use transform="matrix(0.061728395061728385,0,0,0.061728395061728385,12.345679012345677,0)" xlink:href="#F"/><use transform="matrix(0.061728395061728385,0,0,0.061728395061728385,24.691358024691354,0)" xlink:href="#G"/></g><path d="M117-194c89-4 53 116 60 194h-32v-121c0-31-8-49-39-48C34-167 62-67 57 0H25l-1-190h30c1 10-1 24 2 32 11-22 29-35 61-36" id="H"/><g id="n"><use transform="matrix(0.061728395061728385,0,0,0.061728395061728385,0,0)" xlink:href="#H"/><use transform="matrix(0.061728395061728385,0,0,0.061728395061728385,12.345679012345677,0)" xlink:href="#D"/></g><use transform="matrix(0.061728395061728385,0,0,0.061728395061728385,0,0)" xlink:href="#A" id="o"/><g id="p"><use transform="matrix(0.061728395061728385,0,0,0.061728395061728385,0,0)" xlink:href="#E"/><use transform="matrix(0.061728395061728385,0,0,0.061728395061728385,12.345679012345677,0)" xlink:href="#F"/><use transform="matrix(0.061728395061728385,0,0,0.061728395061728385,24.691358024691354,0)" xlink:href="#G"/></g><path d="M24-231v-30h32v30H24zM24 0v-190h32V0H24" id="I"/><g id="q"><use transform="matrix(0.061728395061728385,0,0,0.061728395061728385,0,0)" xlink:href="#I"/><use transform="matrix(0.061728395061728385,0,0,0.061728395061728385,4.876543209876543,0)" xlink:href="#D"/></g><path d="M252-156c43 0 55 33 55 80 0 46-13 78-56 78-42 0-55-33-55-78 0-48 12-80 56-80zM93 0H65l162-248h28zM13-171c-1-47 13-79 56-79s55 33 55 79-13 79-55 79c-43 0-56-33-56-79zM251-17c28 0 30-29 30-59 0-31-1-60-29-60-29 0-31 29-31 60 0 29 2 59 30 59zM69-112c27 0 28-30 29-59 0-31-1-60-29-60-29 0-30 30-30 60s2 59 30 59" id="J"/><g id="r"><use transform="matrix(0.061728395061728385,0,0,0.061728395061728385,0,0)" xlink:href="#x"/><use transform="matrix(0.061728395061728385,0,0,0.061728395061728385,12.345679012345677,0)" xlink:href="#A"/><use transform="matrix(0.061728395061728385,0,0,0.061728395061728385,24.691358024691354,0)" xlink:href="#J"/></g><g id="s"><use transform="matrix(0.061728395061728385,0,0,0.061728395061728385,0,0)" xlink:href="#E"/><use transform="matrix(0.061728395061728385,0,0,0.061728395061728385,12.345679012345677,0)" xlink:href="#F"/><use transform="matrix(0.061728395061728385,0,0,0.061728395061728385,24.691358024691354,0)" xlink:href="#G"/></g><path d="M76-167L44 0H12l33-167H18l4-23h27c3-47 25-81 82-69l-4 24c-35-8-44 15-46 45h37l-5 23H76" id="K"/><g id="t"><use transform="matrix(0.061728395061728385,0,0,0.061728395061728385,0,0)" xlink:href="#K"/><use transform="matrix(0.061728395061728385,0,0,0.061728395061728385,6.1728395061728385,0)" xlink:href="#K"/></g></defs></g></svg>