<svg xmlns="http://www.w3.org/2000/svg" xmlns:xlink="http://www.w3.org/1999/xlink" xmlns:lucid="lucid" width="1500" height="636.33"><g transform="translate(424 10.833293095790282)" lucid:page-tab-id="0_0"><path d="M-283 249.17H915M-282.97 249.17H-284M914.97 249.17H916" stroke="#000" stroke-width="2" fill="none"/><path d="M-304 255.17c0-3.32 2.7-6 6-6h28c3.3 0 6 2.68 6 6v28c0 3.3-2.7 6-6 6h-28c-3.3 0-6-2.7-6-6z" stroke="#000" stroke-opacity="0" stroke-width="3" fill="#fff" fill-opacity="0"/><use xlink:href="#a" transform="matrix(1,0,0,1,-299,254.16670690420972) translate(8.827160493827162 19.652777777777775)"/><path d="M-104 255.17c0-3.32 2.7-6 6-6h28c3.3 0 6 2.68 6 6v28c0 3.3-2.7 6-6 6h-28c-3.3 0-6-2.7-6-6z" stroke="#000" stroke-opacity="0" stroke-width="3" fill="#fff" fill-opacity="0"/><use xlink:href="#b" transform="matrix(1,0,0,1,-99,254.16670690420972) translate(8.827160493827162 19.652777777777775)"/><path d="M96 255.17c0-3.32 2.7-6 6-6h28c3.3 0 6 2.68 6 6v28c0 3.3-2.7 6-6 6h-28c-3.3 0-6-2.7-6-6z" stroke="#000" stroke-opacity="0" stroke-width="3" fill="#fff" fill-opacity="0"/><use xlink:href="#c" transform="matrix(1,0,0,1,101,254.16670690420972) translate(8.827160493827162 19.652777777777775)"/><path d="M296 255.17c0-3.32 2.7-6 6-6h28c3.3 0 6 2.68 6 6v28c0 3.3-2.7 6-6 6h-28c-3.3 0-6-2.7-6-6z" stroke="#000" stroke-opacity="0" stroke-width="3" fill="#fff" fill-opacity="0"/><use xlink:href="#d" transform="matrix(1,0,0,1,301,254.16670690420972) translate(8.827160493827162 19.652777777777775)"/><path d="M496 255.17c0-3.32 2.7-6 6-6h28c3.3 0 6 2.68 6 6v28c0 3.3-2.7 6-6 6h-28c-3.3 0-6-2.7-6-6z" stroke="#000" stroke-opacity="0" stroke-width="3" fill="#fff" fill-opacity="0"/><use xlink:href="#e" transform="matrix(1,0,0,1,501,254.16670690420972) translate(8.827160493827162 19.652777777777775)"/><path d="M696 255.17c0-3.32 2.7-6 6-6h28c3.3 0 6 2.68 6 6v28c0 3.3-2.7 6-6 6h-28c-3.3 0-6-2.7-6-6z" stroke="#000" stroke-opacity="0" stroke-width="3" fill="#fff" fill-opacity="0"/><use xlink:href="#f" transform="matrix(1,0,0,1,701,254.16670690420972) translate(8.827160493827162 19.652777777777775)"/><path d="M896 255.17c0-3.32 2.7-6 6-6h28c3.3 0 6 2.68 6 6v28c0 3.3-2.7 6-6 6h-28c-3.3 0-6-2.7-6-6z" stroke="#000" stroke-opacity="0" stroke-width="3" fill="#fff" fill-opacity="0"/><use xlink:href="#g" transform="matrix(1,0,0,1,901,254.16670690420972) translate(8.827160493827162 19.652777777777775)"/><path d="M316 248.17V78.5" stroke="#000" stroke-width="2" fill="none"/><path d="M317 249.17h-2v-1.03h2z"/><path d="M316 63.24l4.64 14.26h-9.28z" stroke="#000" stroke-width="2"/><path d="M196 26c0-3.3 2.7-6 6-6h228c3.3 0 6 2.7 6 6v28c0 3.3-2.7 6-6 6H202c-3.3 0-6-2.7-6-6z" stroke="#000" stroke-opacity="0" stroke-width="3" fill="#fff" fill-opacity="0"/><use xlink:href="#h" transform="matrix(1,0,0,1,201.00000000000006,25) translate(90.30864197530865 19.652777777777775)"/><path d="M916 248.17V67.67M916 248.14v1.03" stroke="#000" stroke-width="2" fill="none"/><path d="M916 52.4l4.64 14.27h-9.28z" stroke="#000" stroke-width="2"/><path d="M796 15.17c0-3.32 2.7-6 6-6h228c3.3 0 6 2.68 6 6v28c0 3.3-2.7 6-6 6H802c-3.3 0-6-2.7-6-6z" stroke="#000" stroke-opacity="0" stroke-width="3" fill="#fff" fill-opacity="0"/><use xlink:href="#h" transform="matrix(1,0,0,1,801,14.166706904209718) translate(90.30864197530865 19.652777777777775)"/><path d="M-284 290.17v140.5" stroke="#000" stroke-width="2" fill="none"/><path d="M-283 290.2h-2v-1.03h2z"/><path d="M-284 445.93l-4.64-14.27h9.28z" stroke="#000" stroke-width="2"/><path d="M-404 455.17c0-3.32 2.7-6 6-6h228c3.3 0 6 2.68 6 6v28c0 3.3-2.7 6-6 6h-228c-3.3 0-6-2.7-6-6z" stroke="#000" stroke-opacity="0" stroke-width="3" fill="#fff" fill-opacity="0"/><use xlink:href="#i" transform="matrix(1,0,0,1,-399,454.1667069042097) translate(73.33333333333334 19.652777777777775)"/><use xlink:href="#j" transform="matrix(1,0,0,1,-399,454.1667069042097) translate(107.28395061728395 19.652777777777775)"/><path d="M-84 290.17v40.5" stroke="#000" stroke-width="2" fill="none"/><path d="M-83 290.2h-2v-1.03h2z"/><path d="M-84 345.93l-4.64-14.27h9.28z" stroke="#000" stroke-width="2"/><path d="M-114 355.17c0-3.32 2.7-6 6-6h48c3.3 0 6 2.68 6 6v28c0 3.3-2.7 6-6 6h-48c-3.3 0-6-2.7-6-6z" stroke="#000" stroke-opacity="0" stroke-width="3" fill="#fff" fill-opacity="0"/><use xlink:href="#k" transform="matrix(1,0,0,1,-109,354.1667069042097) translate(6.4814814814814845 19.652777777777775)"/><path d="M116 290.17v40.5M116 290.2v-1.03" stroke="#000" stroke-width="2" fill="none"/><path d="M116 345.93l-4.64-14.27h9.28z" stroke="#000" stroke-width="2"/><path d="M86 355.17c0-3.32 2.7-6 6-6h48c3.3 0 6 2.68 6 6v28c0 3.3-2.7 6-6 6H92c-3.3 0-6-2.7-6-6z" stroke="#000" stroke-opacity="0" stroke-width="3" fill="#fff" fill-opacity="0"/><use xlink:href="#k" transform="matrix(1,0,0,1,91,354.1667069042097) translate(6.4814814814814845 19.652777777777775)"/><path d="M316 290.17v40.5M316 290.2v-1.03" stroke="#000" stroke-width="2" fill="none"/><path d="M316 345.93l-4.64-14.27h9.28z" stroke="#000" stroke-width="2"/><path d="M286 355.17c0-3.32 2.7-6 6-6h48c3.3 0 6 2.68 6 6v28c0 3.3-2.7 6-6 6h-48c-3.3 0-6-2.7-6-6z" stroke="#000" stroke-opacity="0" stroke-width="3" fill="#fff" fill-opacity="0"/><use xlink:href="#k" transform="matrix(1,0,0,1,291,354.1667069042097) translate(6.4814814814814845 19.652777777777775)"/><path d="M516 290.17v40.5M516 290.2v-1.03" stroke="#000" stroke-width="2" fill="none"/><path d="M516 345.93l-4.64-14.27h9.28z" stroke="#000" stroke-width="2"/><path d="M486 355.17c0-3.32 2.7-6 6-6h48c3.3 0 6 2.68 6 6v28c0 3.3-2.7 6-6 6h-48c-3.3 0-6-2.7-6-6z" stroke="#000" stroke-opacity="0" stroke-width="3" fill="#fff" fill-opacity="0"/><use xlink:href="#k" transform="matrix(1,0,0,1,491,354.1667069042097) translate(6.4814814814814845 19.652777777777775)"/><path d="M716 290.17v40.5M716 290.2v-1.03" stroke="#000" stroke-width="2" fill="none"/><path d="M716 345.93l-4.64-14.27h9.28z" stroke="#000" stroke-width="2"/><path d="M686 355.17c0-3.32 2.7-6 6-6h48c3.3 0 6 2.68 6 6v28c0 3.3-2.7 6-6 6h-48c-3.3 0-6-2.7-6-6z" stroke="#000" stroke-opacity="0" stroke-width="3" fill="#fff" fill-opacity="0"/><use xlink:href="#k" transform="matrix(1,0,0,1,691,354.1667069042097) translate(6.4814814814814845 19.652777777777775)"/><path d="M916 290.17v40.5M916 290.2v-1.03" stroke="#000" stroke-width="2" fill="none"/><path d="M916 345.93l-4.64-14.27h9.28z" stroke="#000" stroke-width="2"/><path d="M886 355.17c0-3.32 2.7-6 6-6h48c3.3 0 6 2.68 6 6v28c0 3.3-2.7 6-6 6h-48c-3.3 0-6-2.7-6-6z" stroke="#000" stroke-opacity="0" stroke-width="3" fill="#fff" fill-opacity="0"/><use xlink:href="#k" transform="matrix(1,0,0,1,891,354.1667069042097) translate(6.4814814814814845 19.652777777777775)"/><path d="M316.95 289.46l62.1 19.4" stroke="#000" stroke-width="2" fill="none"/><path d="M316.68 290.43l-3.84-1.2.02-.06h4.2z"/><path d="M379.02 308.86l.98.3M380 310.17v120.5M380 310.2v-1.03" stroke="#000" stroke-width="2" fill="none"/><path d="M380 445.93l-4.64-14.27h9.28z" stroke="#000" stroke-width="2"/><path d="M260 455.17c0-3.32 2.7-6 6-6h228c3.3 0 6 2.68 6 6v28c0 3.3-2.7 6-6 6H266c-3.3 0-6-2.7-6-6z" stroke="#000" stroke-opacity="0" stroke-width="3" fill="#fff" fill-opacity="0"/><use xlink:href="#l" transform="matrix(1,0,0,1,265,454.1667069042097) translate(90.30864197530865 19.652777777777775)"/><path d="M886 215.17c0-3.32 2.7-6 6-6h158c3.3 0 6 2.68 6 6v48c0 3.3-2.7 6-6 6H892c-3.3 0-6-2.7-6-6z" stroke="#000" stroke-opacity="0" stroke-width="3" fill="#fff" fill-opacity="0"/><use xlink:href="#m" transform="matrix(1,0,0,1,891,214.16670690420972) translate(62.09876543209877 30.277777777777775)"/><path d="M-281.7 490.17l.07 4.02m.27 8.02l.4 6.27.17 1.73m.94 8l.65 4.4.66 3.5m1.75 7.85l1.18 4.2 1.14 3.5m2.9 7.5l.2.48 1.52 3.23 1.57 3 .3.47m4.27 6.8l.48.68 1.8 2.36 1.86 2.27.88.97m5.7 5.66l1.8 1.55 2.37 1.9 2.13 1.53m6.8 4.28l2.35 1.3 3.45 1.7 1.37.62m7.45 3.02l4 1.4 3.64 1.1m7.76 2.06l.6.16 7.26 1.53m7.92 1.36l2.8.48 5.16.65m7.97 1l1.05.12 6.97.57m8 .64l8.02.65m8.02.55l8.02.46m8.02.47l8.03.45m8.02.46l8.03.46m8.02.45l8.02.45m8.03.37l8.03.36m8.03.36l8.04.36m8.03.36l8.03.36m8.02.35l8.03.36m8.03.36l8.03.35m8.04.36l8.03.37m8.03.36l8.03.36m8.03.35l8.02.36m8.03.37l7.97.35h.07m8.04.05l8.04.05m8.03.05l8.04.04m8.03.06l8.03.05m8.04.05l8.04.05m8.03.05l8.04.05m8.05.04l8.03.05m8.04.04l8.04.05m8.03.03l8.03.05m8.04.05l8.03.04m8.04.05l8.04.05m8.03.05l8.05.04m8.04.05l8.02.06m8.04.04l8.04.05m8.03.05l8.04.05m8.04.04l8.05.04m8.03.05l8.04.03m8.04.05l3.18.02 4.85-.07m8.03-.13l8.03-.12m8.04-.12l8.04-.13m8.03-.12l8.04-.1m8.04-.14l8.04-.12m8.04-.12l8.03-.13m8.04-.13l8.02-.13m8.04-.12l8.04-.12m8.03-.13l8.04-.12m8.03-.12l8.04-.13m8.03-.12l8.04-.12m8.05-.13l8.03-.12m8.04-.1l8.03-.14m8.04-.12l8.03-.12m8.03-.13l8.04-.13m8.03-.12l8.04-.13m8.03-.35l8-.57m8.03-.56l8.02-.56m8-.57l8.03-.55m8.02-.57l5.64-.4 2.37-.26m8-.9l7.98-.9m7.98-.9l8-.9m7.96-1l7.95-1.24m7.94-1.24l7.95-1.24m7.9-1.38l7.9-1.57m7.88-1.57l5.57-1.1 2.3-.57m7.8-1.9l7.8-1.9m7.76-2.1l7.72-2.24m7.67-2.37l7.63-2.56m7.56-2.7l7.5-2.88m7.42-3.1l5.64-2.44 1.7-.82m7.25-3.48l1.25-.6 5.87-3.14m7-3.94l4.6-2.7 2.26-1.47m6.7-4.43l5.54-3.9 1-.78m6.33-4.96l4.94-4.16 1.16-1.07m5.86-5.5l3.53-3.5 2.06-2.25m5.32-6.03l1.8-2.13 3.23-4.14m4.73-6.5l.13-.2 3.67-5.63.55-.93m4.02-6.96l2.1-3.92 1.57-3.22m3.33-7.3l.96-2.22 2.03-5.25m2.63-7.6l.37-1.1 1.93-6.6m1.97-7.8l.28-1.14 1.36-6.72m1.35-7.92l.46-2.98.6-4.98m.8-8l.3-4" stroke="#000" stroke-width="2" fill="none"/><path d="M-280.7 490.18l-2 .04-.03-1.05h2z"/><path d="M915.9 392.4l4.1 14.42-9.25-.33z" stroke="#000" stroke-width="2"/><path d="M-84 513.5c0-3.3 2.7-6 6-6h228c3.3 0 6 2.7 6 6v51.33c0 3.32-2.7 6-6 6H-78c-3.3 0-6-2.68-6-6z" stroke="#000" stroke-opacity="0" stroke-width="3" fill="#fff" fill-opacity="0"/><use xlink:href="#n" transform="matrix(1,0,0,1,-79,512.5000402375431) translate(72.09876543209877 17.777777777777775)"/><use xlink:href="#o" transform="matrix(1,0,0,1,-79,512.5000402375431) translate(103.58024691358025 17.777777777777775)"/><use xlink:href="#p" transform="matrix(1,0,0,1,-79,512.5000402375431) translate(122.09876543209876 17.777777777777775)"/><use xlink:href="#q" transform="matrix(1,0,0,1,-79,512.5000402375431) translate(59.78395061728396 44.44444444444444)"/><use xlink:href="#r" transform="matrix(1,0,0,1,-79,512.5000402375431) translate(83.7962962962963 44.44444444444444)"/><use xlink:href="#s" transform="matrix(1,0,0,1,-79,512.5000402375431) translate(134.41358024691357 44.44444444444444)"/><path d="M-283.64 248.17v-4.12m0-8.24v-8.22m0-8.24v-8.23m0-8.23v-8.23m0-8.24v-8.23m0-8.24v-8.23m0-8.24v-4.1l-.06-.14-.12-.05-.13-.06-.05-.1v-4.13m0-8.23v-8.24m0-8.23v-8.24m0-8.23v-8.24m0-8.24V79m0-8.25v-8.23m0-8.24v-4.1M-283.64 248.14v1.03" stroke="#000" stroke-width="2" fill="none"/><path d="M-283 50.2h-2v-1.03h2z"/><path d="M-404 15.17c0-3.32 2.7-6 6-6h228c3.3 0 6 2.68 6 6v28c0 3.3-2.7 6-6 6h-228c-3.3 0-6-2.7-6-6z" stroke="#000" stroke-opacity="0" stroke-width="3" fill="#fff" fill-opacity="0"/><g><use xlink:href="#t" transform="matrix(1,0,0,1,-399,14.166706904209718) translate(108.82716049382717 19.652777777777775)"/></g><defs><path d="M101-251c68 0 85 55 85 127S166 4 100 4C33 4 14-52 14-124c0-73 17-127 87-127zm-1 229c47 0 54-49 54-102s-4-102-53-102c-51 0-55 48-55 102 0 53 5 102 54 102" id="u"/><use transform="matrix(0.061728395061728385,0,0,0.061728395061728385,0,0)" xlink:href="#u" id="a"/><path d="M27 0v-27h64v-190l-56 39v-29l58-41h29v221h61V0H27" id="v"/><use transform="matrix(0.061728395061728385,0,0,0.061728395061728385,0,0)" xlink:href="#v" id="b"/><path d="M101-251c82-7 93 87 43 132L82-64C71-53 59-42 53-27h129V0H18c2-99 128-94 128-182 0-28-16-43-45-43s-46 15-49 41l-32-3c6-41 34-60 81-64" id="w"/><use transform="matrix(0.061728395061728385,0,0,0.061728395061728385,0,0)" xlink:href="#w" id="c"/><path d="M126-127c33 6 58 20 58 59 0 88-139 92-164 29-3-8-5-16-6-25l32-3c6 27 21 44 54 44 32 0 52-15 52-46 0-38-36-46-79-43v-28c39 1 72-4 72-42 0-27-17-43-46-43-28 0-47 15-49 41l-32-3c6-42 35-63 81-64 48-1 79 21 79 65 0 36-21 52-52 59" id="x"/><use transform="matrix(0.061728395061728385,0,0,0.061728395061728385,0,0)" xlink:href="#x" id="d"/><path d="M155-56V0h-30v-56H8v-25l114-167h33v167h35v25h-35zm-30-156c-27 46-58 90-88 131h88v-131" id="y"/><use transform="matrix(0.061728395061728385,0,0,0.061728395061728385,0,0)" xlink:href="#y" id="e"/><path d="M54-142c48-35 137-8 131 61C196 18 31 33 14-55l32-4c7 23 22 37 52 37 35-1 51-22 54-58 4-55-73-65-99-34H22l8-134h141v27H59" id="z"/><use transform="matrix(0.061728395061728385,0,0,0.061728395061728385,0,0)" xlink:href="#z" id="f"/><path d="M110-160c48 1 74 30 74 79 0 53-28 85-80 85-65 0-83-55-86-122-5-90 50-162 133-122 14 7 22 21 27 39l-31 6c-5-40-67-38-82-6-9 19-15 44-15 74 11-20 30-34 60-33zm-7 138c34 0 49-23 49-58s-16-56-50-56c-29 0-50 16-49 49 1 36 15 65 50 65" id="A"/><use transform="matrix(0.061728395061728385,0,0,0.061728395061728385,0,0)" xlink:href="#A" id="g"/><path d="M194-70c0 46-34 64-81 66v29H91V-4C42-5 12-27 4-67l30-6c5 28 25 41 57 43v-87c-38-9-76-20-76-67 1-42 33-58 76-59v-23h22v23c45 0 67 20 76 56l-31 6c-5-23-18-35-45-37v78c41 10 81 20 81 70zm-81 41c51 7 71-66 19-77-6-2-12-4-19-6v83zM91-219c-47-6-63 57-18 69 6 2 12 3 18 5v-74" id="B"/><g id="h"><use transform="matrix(0.061728395061728385,0,0,0.061728395061728385,0,0)" xlink:href="#B"/><use transform="matrix(0.061728395061728385,0,0,0.061728395061728385,12.345679012345677,0)" xlink:href="#w"/><use transform="matrix(0.061728395061728385,0,0,0.061728395061728385,24.691358024691354,0)" xlink:href="#u"/><use transform="matrix(0.061728395061728385,0,0,0.061728395061728385,37.03703703703703,0)" xlink:href="#u"/></g><path d="M30-248c87 1 191-15 191 75 0 78-77 80-158 76V0H30v-248zm33 125c57 0 124 11 124-50 0-59-68-47-124-48v98" id="C"/><path d="M18-150v-26h174v26H18zm0 90v-26h174v26H18" id="D"/><g id="i"><use transform="matrix(0.061728395061728385,0,0,0.061728395061728385,0,0)" xlink:href="#C"/><use transform="matrix(0.061728395061728385,0,0,0.061728395061728385,14.814814814814813,0)" xlink:href="#D"/></g><path d="M134-131c28 9 52 24 51 62-1 50-34 73-85 73S17-19 16-69c0-36 21-54 49-61-75-25-45-126 34-121 46 3 78 18 79 63 0 33-17 51-44 57zm-34-11c31 1 46-15 46-44 0-28-17-43-47-42-29 0-46 13-45 42 1 28 16 44 46 44zm1 122c35 0 51-18 51-52 0-30-18-46-53-46-33 0-51 17-51 47 0 34 19 51 53 51" id="E"/><g id="j"><use transform="matrix(0.061728395061728385,0,0,0.061728395061728385,0,0)" xlink:href="#B"/><use transform="matrix(0.061728395061728385,0,0,0.061728395061728385,12.345679012345677,0)" xlink:href="#E"/><use transform="matrix(0.061728395061728385,0,0,0.061728395061728385,24.691358024691354,0)" xlink:href="#u"/><use transform="matrix(0.061728395061728385,0,0,0.061728395061728385,37.03703703703703,0)" xlink:href="#u"/></g><g id="k"><use transform="matrix(0.061728395061728385,0,0,0.061728395061728385,0,0)" xlink:href="#B"/><use transform="matrix(0.061728395061728385,0,0,0.061728395061728385,12.345679012345677,0)" xlink:href="#w"/><use transform="matrix(0.061728395061728385,0,0,0.061728395061728385,24.691358024691354,0)" xlink:href="#z"/></g><g id="l"><use transform="matrix(0.061728395061728385,0,0,0.061728395061728385,0,0)" xlink:href="#B"/><use transform="matrix(0.061728395061728385,0,0,0.061728395061728385,12.345679012345677,0)" xlink:href="#E"/><use transform="matrix(0.061728395061728385,0,0,0.061728395061728385,24.691358024691354,0)" xlink:href="#u"/><use transform="matrix(0.061728395061728385,0,0,0.061728395061728385,37.03703703703703,0)" xlink:href="#u"/></g><path d="M115-194c55 1 70 41 70 98S169 2 115 4C84 4 66-9 55-30l1 105H24l-1-265h31l2 30c10-21 28-34 59-34zm-8 174c40 0 45-34 45-75s-6-73-45-74c-42 0-51 32-51 76 0 43 10 73 51 73" id="F"/><path d="M141-36C126-15 110 5 73 4 37 3 15-17 15-53c-1-64 63-63 125-63 3-35-9-54-41-54-24 1-41 7-42 31l-33-3c5-37 33-52 76-52 45 0 72 20 72 64v82c-1 20 7 32 28 27v20c-31 9-61-2-59-35zM48-53c0 20 12 33 32 33 41-3 63-29 60-74-43 2-92-5-92 41" id="G"/><path d="M108 0H70L1-190h34L89-25l56-165h34" id="H"/><g id="m"><use transform="matrix(0.061728395061728385,0,0,0.061728395061728385,0,0)" xlink:href="#F"/><use transform="matrix(0.061728395061728385,0,0,0.061728395061728385,12.345679012345677,0)" xlink:href="#G"/><use transform="matrix(0.061728395061728385,0,0,0.061728395061728385,24.691358024691354,0)" xlink:href="#H"/></g><path d="M117-194c89-4 53 116 60 194h-32v-121c0-31-8-49-39-48C34-167 62-67 57 0H25l-1-190h30c1 10-1 24 2 32 11-22 29-35 61-36" id="I"/><g id="n"><use transform="matrix(0.061728395061728385,0,0,0.061728395061728385,0,0)" xlink:href="#I"/><use transform="matrix(0.061728395061728385,0,0,0.061728395061728385,12.345679012345677,0)" xlink:href="#D"/></g><use transform="matrix(0.061728395061728385,0,0,0.061728395061728385,0,0)" xlink:href="#A" id="o"/><g id="p"><use transform="matrix(0.061728395061728385,0,0,0.061728395061728385,0,0)" xlink:href="#F"/><use transform="matrix(0.061728395061728385,0,0,0.061728395061728385,12.345679012345677,0)" xlink:href="#G"/><use transform="matrix(0.061728395061728385,0,0,0.061728395061728385,24.691358024691354,0)" xlink:href="#H"/></g><path d="M24-231v-30h32v30H24zM24 0v-190h32V0H24" id="J"/><g id="q"><use transform="matrix(0.061728395061728385,0,0,0.061728395061728385,0,0)" xlink:href="#J"/><use transform="matrix(0.061728395061728385,0,0,0.061728395061728385,4.876543209876543,0)" xlink:href="#D"/></g><path d="M252-156c43 0 55 33 55 80 0 46-13 78-56 78-42 0-55-33-55-78 0-48 12-80 56-80zM93 0H65l162-248h28zM13-171c-1-47 13-79 56-79s55 33 55 79-13 79-55 79c-43 0-56-33-56-79zM251-17c28 0 30-29 30-59 0-31-1-60-29-60-29 0-31 29-31 60 0 29 2 59 30 59zM69-112c27 0 28-30 29-59 0-31-1-60-29-60-29 0-30 30-30 60s2 59 30 59" id="K"/><g id="r"><use transform="matrix(0.061728395061728385,0,0,0.061728395061728385,0,0)" xlink:href="#x"/><use transform="matrix(0.061728395061728385,0,0,0.061728395061728385,12.345679012345677,0)" xlink:href="#A"/><use transform="matrix(0.061728395061728385,0,0,0.061728395061728385,24.691358024691354,0)" xlink:href="#K"/></g><g id="s"><use transform="matrix(0.061728395061728385,0,0,0.061728395061728385,0,0)" xlink:href="#F"/><use transform="matrix(0.061728395061728385,0,0,0.061728395061728385,12.345679012345677,0)" xlink:href="#G"/><use transform="matrix(0.061728395061728385,0,0,0.061728395061728385,24.691358024691354,0)" xlink:href="#H"/></g><path d="M76-167L44 0H12l33-167H18l4-23h27c3-47 25-81 82-69l-4 24c-35-8-44 15-46 45h37l-5 23H76" id="L"/><g id="t"><use transform="matrix(0.061728395061728385,0,0,0.061728395061728385,0,0)" xlink:href="#L"/><use transform="matrix(0.061728395061728385,0,0,0.061728395061728385,6.1728395061728385,0)" xlink:href="#L"/></g></defs></g></svg>