<svg xmlns="http://www.w3.org/2000/svg" xmlns:xlink="http://www.w3.org/1999/xlink" xmlns:lucid="lucid" width="1265.2" height="1334.62"><g transform="translate(-160 -20)" lucid:page-tab-id="0_0"><path d="M300 101v3m0 4v5.97m0 4v5.98m0 4v5.98m0 4v5.98m0 4v6m0 4v5.97m0 4v5.98m0 4v5.98m0 4v5.98m0 4v6m0 4v5.97m0 4v5.98m0 4v5.98m0 4v5.98m0 4v6m0 4v5.97m0 4v5.98m0 4v5.98m0 4v5.98m0 4v6m0 4v5.97m0 4v5.98m0 4v5.98m0 4v5.98m0 4v6m0 4v5.97m0 4v5.98m0 4v5.98m0 4v5.98m0 4v6m0 4v5.97m0 4v5.98m0 4v5.98m0 4v5.98m0 4v6m0 4v5.97m0 4v5.98m0 4v5.98m0 4v5.98m0 4v6m0 4v5.97m0 4v5.98m0 4v5.98m0 4v5.98m0 4v6m0 4v5.97m0 4v5.98m0 4v5.98m0 4V593m0 4v6m0 4v5.97m0 4v5.98m0 4v5.98m0 4v5.98m0 4v6m0 4v5.97m0 4v5.98m0 4v5.98m0 4v5.98m0 4v6m0 4v5.97m0 4v5.98m0 4v5.98m0 4v5.98m0 4v6m0 4v5.97m0 4v5.98m0 4v5.98m0 4v5.98m0 4v6m0 4v5.97m0 4v5.98m0 4v5.98m0 4v5.98m0 4v6m0 4v5.97m0 4v5.98m0 4v5.98m0 4v5.98m0 4v6m0 4v5.97m0 4v5.98m0 4v5.98m0 4v5.98m0 4v6m0 4v5.97m0 4v5.98m0 4v5.98m0 4v5.98m0 4v6m0 4v5.97m0 4v5.98m0 4v5.98m0 4v5.98m0 4v6m0 4v5.97m0 4v5.98m0 4v5.98m0 4v5.98m0 4v3" stroke="#000" stroke-width="2" fill="none"/><path d="M301 101.03h-2V100h2z"/><path d="M300 1098.97v1.03" stroke="#000" stroke-width="2" fill="none"/><path d="M180 66c0-3.3 2.7-6 6-6h228c3.3 0 6 2.7 6 6v28c0 3.3-2.7 6-6 6H186c-3.3 0-6-2.7-6-6z" stroke="#000" stroke-opacity="0" stroke-width="3" fill="#fff" fill-opacity="0"/><use xlink:href="#a" transform="matrix(1,0,0,1,185,65) translate(108.44753086419753 21.430555555555557)"/><path d="M301 600h1003.2M301.03 600H300" stroke="#000" stroke-width="2" fill="none"/><path d="M1305.2 601h-1.03v-2h1.03z"/><path d="M1305.2 576c0-3.3 2.7-6 6-6h88c3.3 0 6 2.7 6 6v48c0 3.3-2.7 6-6 6h-88c-3.3 0-6-2.7-6-6z" stroke="#000" stroke-opacity="0" stroke-width="3" fill="#fff" fill-opacity="0"/><use xlink:href="#b" transform="matrix(1,0,0,1,1310.1999999999998,575) translate(25.308641975308642 28.930555555555557)"/><path d="M500 681.5v-163" stroke="#000" stroke-width="2" fill="none"/><path d="M500 696.76l-4.64-14.26h9.28zM500 503.24l4.64 14.26h-9.28z" stroke="#000" stroke-width="2"/><path d="M700 781.5v-363" stroke="#000" stroke-width="2" fill="none"/><path d="M700 796.76l-4.64-14.26h9.28zM700 403.24l4.64 14.26h-9.28z" stroke="#000" stroke-width="2"/><path d="M900 318.5v563" stroke="#000" stroke-width="2" fill="none"/><path d="M900 303.24l4.64 14.26h-9.28zM900 896.76l-4.64-14.26h9.28z" stroke="#000" stroke-width="2"/><path d="M1100 218.5v763" stroke="#000" stroke-width="2" fill="none"/><path d="M1100 203.24l4.64 14.26h-9.28zM1100 996.76l-4.64-14.26h9.28z" stroke="#000" stroke-width="2"/><path d="M1300 118.5v963" stroke="#000" stroke-width="2" fill="none"/><path d="M1300 103.24l4.64 14.26h-9.28zM1300 1096.76l-4.64-14.26h9.28z" stroke="#000" stroke-width="2"/><path d="M500.9 499.55l798.2-399.1M500.92 499.54l-.92.46M1299.08 100.46l.92-.46M500.9 700.44l798.2 393.12M500.92 700.45L500 700M1299.08 1093.55l.92.45" stroke="#000" stroke-width="2" fill="none"/><path d="M300 606c0-3.3 2.7-6 6-6h28c3.3 0 6 2.7 6 6v28c0 3.3-2.7 6-6 6h-28c-3.3 0-6-2.7-6-6z" stroke="#000" stroke-opacity="0" stroke-width="3" fill="#fff" fill-opacity="0"/><use xlink:href="#c" transform="matrix(1,0,0,1,305,605) translate(8.827160493827162 19.65277777777778)"/><path d="M500 606c0-3.3 2.7-6 6-6h28c3.3 0 6 2.7 6 6v28c0 3.3-2.7 6-6 6h-28c-3.3 0-6-2.7-6-6z" stroke="#000" stroke-opacity="0" stroke-width="3" fill="#fff" fill-opacity="0"/><use xlink:href="#d" transform="matrix(1,0,0,1,505,605) translate(8.827160493827162 19.65277777777778)"/><path d="M700 606c0-3.3 2.7-6 6-6h28c3.3 0 6 2.7 6 6v28c0 3.3-2.7 6-6 6h-28c-3.3 0-6-2.7-6-6z" stroke="#000" stroke-opacity="0" stroke-width="3" fill="#fff" fill-opacity="0"/><use xlink:href="#e" transform="matrix(1,0,0,1,705,605) translate(8.827160493827162 19.65277777777778)"/><path d="M900 606c0-3.3 2.7-6 6-6h28c3.3 0 6 2.7 6 6v28c0 3.3-2.7 6-6 6h-28c-3.3 0-6-2.7-6-6z" stroke="#000" stroke-opacity="0" stroke-width="3" fill="#fff" fill-opacity="0"/><use xlink:href="#f" transform="matrix(1,0,0,1,905,605) translate(8.827160493827162 19.65277777777778)"/><path d="M1102.6 606c0-3.3 2.7-6 6-6h28c3.3 0 6 2.7 6 6v28c0 3.3-2.7 6-6 6h-28c-3.3 0-6-2.7-6-6z" stroke="#000" stroke-opacity="0" stroke-width="3" fill="#fff" fill-opacity="0"/><use xlink:href="#g" transform="matrix(1,0,0,1,1107.6,605) translate(8.827160493827162 19.65277777777778)"/><path d="M1300 606c0-3.3 2.7-6 6-6h28c3.3 0 6 2.7 6 6v28c0 3.3-2.7 6-6 6h-28c-3.3 0-6-2.7-6-6z" stroke="#000" stroke-opacity="0" stroke-width="3" fill="#fff" fill-opacity="0"/><use xlink:href="#h" transform="matrix(1,0,0,1,1305,605) translate(8.827160493827162 19.65277777777778)"/><path d="M440 446c0-3.3 2.7-6 6-6h88c3.3 0 6 2.7 6 6v48c0 3.3-2.7 6-6 6h-88c-3.3 0-6-2.7-6-6z" stroke="#000" stroke-opacity="0" stroke-width="3" fill="#fff" fill-opacity="0"/><use xlink:href="#i" transform="matrix(1,0,0,1,445,445) translate(28.950617283950617 29.36111111111111)"/><path d="M620 346c0-3.3 2.7-6 6-6h148c3.3 0 6 2.7 6 6v48c0 3.3-2.7 6-6 6H626c-3.3 0-6-2.7-6-6z" stroke="#000" stroke-opacity="0" stroke-width="3" fill="#fff" fill-opacity="0"/><use xlink:href="#j" transform="matrix(1,0,0,1,625,345) translate(30.864197530864196 29.36111111111111)"/><path d="M820 246c0-3.3 2.7-6 6-6h148c3.3 0 6 2.7 6 6v48c0 3.3-2.7 6-6 6H826c-3.3 0-6-2.7-6-6z" stroke="#000" stroke-opacity="0" stroke-width="3" fill="#fff" fill-opacity="0"/><use xlink:href="#k" transform="matrix(1,0,0,1,825,245) translate(30.864197530864196 29.36111111111111)"/><path d="M1020 146c0-3.3 2.7-6 6-6h148c3.3 0 6 2.7 6 6v48c0 3.3-2.7 6-6 6h-148c-3.3 0-6-2.7-6-6z" stroke="#000" stroke-opacity="0" stroke-width="3" fill="#fff" fill-opacity="0"/><use xlink:href="#l" transform="matrix(1,0,0,1,1025,145) translate(30.864197530864196 29.36111111111111)"/><path d="M1220 46c0-3.3 2.7-6 6-6h148c3.3 0 6 2.7 6 6v48c0 3.3-2.7 6-6 6h-148c-3.3 0-6-2.7-6-6z" stroke="#000" stroke-opacity="0" stroke-width="3" fill="#fff" fill-opacity="0"/><use xlink:href="#m" transform="matrix(1,0,0,1,1225,45) translate(30.864197530864196 29.36111111111111)"/><path d="M420 706c0-3.3 2.7-6 6-6h148c3.3 0 6 2.7 6 6v48c0 3.3-2.7 6-6 6H426c-3.3 0-6-2.7-6-6z" stroke="#000" stroke-opacity="0" stroke-width="3" fill="#fff" fill-opacity="0"/><use xlink:href="#n" transform="matrix(1,0,0,1,425,705) translate(46.91358024691358 29.36111111111111)"/><path d="M620 806c0-3.3 2.7-6 6-6h148c3.3 0 6 2.7 6 6v48c0 3.3-2.7 6-6 6H626c-3.3 0-6-2.7-6-6z" stroke="#000" stroke-opacity="0" stroke-width="3" fill="#fff" fill-opacity="0"/><use xlink:href="#o" transform="matrix(1,0,0,1,625,805) translate(30.864197530864196 29.36111111111111)"/><path d="M820 906c0-3.3 2.7-6 6-6h148c3.3 0 6 2.7 6 6v48c0 3.3-2.7 6-6 6H826c-3.3 0-6-2.7-6-6z" stroke="#000" stroke-opacity="0" stroke-width="3" fill="#fff" fill-opacity="0"/><use xlink:href="#p" transform="matrix(1,0,0,1,825,905) translate(30.864197530864196 29.36111111111111)"/><path d="M1020 1006c0-3.3 2.7-6 6-6h148c3.3 0 6 2.7 6 6v48c0 3.3-2.7 6-6 6h-148c-3.3 0-6-2.7-6-6z" stroke="#000" stroke-opacity="0" stroke-width="3" fill="#fff" fill-opacity="0"/><use xlink:href="#q" transform="matrix(1,0,0,1,1025,1005) translate(30.864197530864196 29.36111111111111)"/><path d="M1220 1106c0-3.3 2.7-6 6-6h148c3.3 0 6 2.7 6 6v48c0 3.3-2.7 6-6 6h-148c-3.3 0-6-2.7-6-6z" stroke="#000" stroke-opacity="0" stroke-width="3" fill="#fff" fill-opacity="0"/><use xlink:href="#r" transform="matrix(1,0,0,1,1225,1105) translate(30.864197530864196 29.36111111111111)"/><path d="M300.46 600.88l.05.18.07.26.07.34.07.47.1.68.06 1.1.02.92m-.13 7.96l-.23 7.96m-.23 7.96l-.24 7.95m-.23 7.96l-.23 7.97m-.23 7.96l-.08 2.6.13 5.35m.2 7.96l.2 7.96m.34 7.95l.54 7.94m.55 7.93l.5 7.2.07.74m.87 7.92l.87 7.9m.87 7.9l.23 2.08.88 5.8m1.2 7.88l1.2 7.87m1.3 7.85l1.54 7.8m1.52 7.83l1.53 7.82m1.78 7.76l1.86 7.74m1.84 7.74l1.62 6.73.28 1m2.18 7.64l2.18 7.66m2.18 7.66l1.35 4.75.95 2.88m2.5 7.55l2.5 7.56m2.5 7.55l1.24 3.77 1.4 3.73m2.82 7.45l2.8 7.45m2.83 7.45l1.45 3.85 1.5 3.53m3.13 7.32l3.12 7.33m3.12 7.32l2.16 5.08 1.05 2.2m3.43 7.2l3.43 7.17m3.43 7.2l3.4 7.17m3.72 7.05l3.72 7.03m3.73 7.04l3.72 7.02m3.83 6.98l4 6.87m4.03 6.87l4.02 6.88m4 6.87l1.6 2.7 2.55 4.1m4.2 6.74l1.9 3 2.44 3.68m4.66 6.46l.3.42 4.64 5.82m5.14 6.08l4.98 5.74.25.26m5.47 5.8l5.46 5.78m5.65 5.6l5.7 5.56m5.7 5.56l1.4 1.35 4.48 4.02m5.93 5.32l5.94 5.3m5.92 5.32l1 .88 5.1 4.22m6.15 5.07l6.15 5.05m6.15 5.06l5.8 4.8.35.26m6.35 4.8l6.35 4.8m6.35 4.8l6.34 4.8m6.35 4.82l2 1.5 4.47 3.12m6.55 4.53l6.54 4.54m6.54 4.53l6.54 4.53m6.57 4.5l6.73 4.27m6.73 4.25l6.72 4.26m6.73 4.27l6.74 4.26m6.84 4.06l6.9 3.96m6.9 3.97l6.9 3.98m6.9 3.98l2.05 1.18 4.95 2.6m7.06 3.67l7.06 3.68m7.06 3.7l5.66 2.95 1.42.67m7.2 3.38l7.22 3.4m7.2 3.37l5.72 2.68 1.5.64m7.36 3.07l7.34 3.08m7.34 3.08l2.24.94 5.18 1.93m7.46 2.78l7.46 2.77m7.54 2.54l7.57 2.47m7.56 2.48l7.57 2.48m7.56 2.48l7.57 2.48m7.66 2.17l7.65 2.16m7.66 2.16l7.68 2.16m7.7 2.04l7.73 1.84m7.76 1.83l7.75 1.84m7.8 1.65l7.8 1.5m7.82 1.52l6.07 1.17 1.75.27m7.88 1.18l7.87 1.18m7.88 1.1l7.92.84m7.9.84l4.04.44 3.9.26m7.95.5l7.93.52m7.96.25l7.94.17m7.96.18h.02l7.94-.16m7.96-.16l7.96-.16m7.95-.44l7.94-.52m7.94-.53l7.96-.52m7.94-.53l7.94-.53m7.94-.6l7.93-.67m7.94-.76l7.92-.8m7.92-.78l7.92-.8m7.9-.84l7.9-1.15m7.85-1.27l6.24-1.2 1.55-.36m7.72-1.94l3.02-.85 4.57-1.5m7.4-2.9l1.62-.7 4.34-2.07 1.23-.65m6.94-3.9l1.87-1.08 4.87-3.16m6.57-4.5l6.03-4.26.5-.33m6.53-4.53l6.54-4.53m6.54-4.54l6.54-4.54m6.55-4.53l6.54-4.54m6.62-4.42l6.72-4.25m6.73-4.25l2.4-1.52 3.8-2.96.23-.2m5.93-5.3l2.1-1.87 3.73-3.57m5.3-5.92l3-3.73 1.25-2.9m3.8-6.44l.9-.22 2.1.13.02-.07-2.03-3.5-.26-.75m1.68-6.7l-.05-.12-.26-.84-.4-1.8-.63-4.98v-.1m-.3-7.96l-.28-7.96m-.17-7.95l.17-7.96m.2-7.97l.08-3.98M300.72 600.73L300 600" stroke="#c92d39" stroke-width="2" fill="none"/><path d="M1299.64 1163.22l3.02 14.7-9.22-1.04z" stroke="#c92d39" stroke-width="2" fill="#c92d39"/><path d="M840 1266c0-3.3 2.7-6 6-6h228c3.3 0 6 2.7 6 6v62c0 3.3-2.7 6-6 6H846c-3.3 0-6-2.7-6-6z" stroke="#000" stroke-opacity="0" stroke-width="3" fill="#fff" fill-opacity="0"/><use xlink:href="#s" transform="matrix(1,0,0,1,845,1265) translate(39.814814814814824 21.333333333333332)"/><use xlink:href="#t" transform="matrix(1,0,0,1,845,1265) translate(87.96296296296296 21.333333333333332)"/><use xlink:href="#u" transform="matrix(1,0,0,1,845,1265) translate(147.22222222222223 21.333333333333332)"/><use xlink:href="#v" transform="matrix(1,0,0,1,845,1265) translate(63.51851851851852 53.33333333333333)"/><use xlink:href="#w" transform="matrix(1,0,0,1,845,1265) translate(101.29629629629629 53.33333333333333)"/><use xlink:href="#x" transform="matrix(1,0,0,1,845,1265) translate(123.5185185185185 53.33333333333333)"/><path d="M300.02 601l.08 4.02m.17 8.03l.04 1.93.4 6.1m.5 8l.04.7.77 7.3m.88 8l1.17 7.94m1.26 7.93l1.5 7.9m1.65 7.86l1.83 7.83m2 7.78l2.17 7.74m2.36 7.68l2.5 7.64m2.7 7.57l2.8 7.53m3 7.44l3.1 7.4m3.3 7.33l3.42 7.27m3.55 7.2l3.72 7.13m3.75 7.1l4.02 6.95m4.02 6.96l1.1 1.9 3.12 4.93m4.3 6.78l3.6 5.66.76 1.1m4.58 6.6l4.6 6.6m4.7 6.5l4.85 6.4m4.87 6.4l2.67 3.52 2.3 2.78m5.13 6.2l5.12 6.18m5.17 6.14l5.38 5.97m5.37 5.96l5.38 5.97m5.54 5.82l5.62 5.73m5.62 5.74l5.63 5.74m5.78 5.58l5.86 5.5m5.86 5.5l5.86 5.5m5.9 5.44l6.08 5.24m6.1 5.25l6.07 5.25m6.1 5.24l5.88 5.08.2.16m6.3 5l6.3 4.97m6.3 5l6.3 4.98m6.3 4.98l6.1 4.84.2.14m6.5 4.73l6.5 4.7m6.5 4.73l6.52 4.72m6.5 4.72l6.5 4.7m6.5 4.73l.98.7 5.7 3.78m6.68 4.45l6.7 4.44m6.7 4.43l6.7 4.44m6.68 4.44l6.7 4.45m6.7 4.44l6.7 4.43m6.86 4.17l6.87 4.16m6.88 4.15l6.87 4.16m6.88 4.16l6.88 4.15m6.87 4.15l6.88 4.16m6.88 4.15l6.88 4.16m6.88 4.14l5.54 3.35 1.36.76m6.98 3.97l6.98 3.97m7 3.97l6.97 3.97m7.03 3.87l7.08 3.82m7.08 3.8l7.08 3.8m7.08 3.8l7.07 3.8m7.1 3.8l7.07 3.8m7.08 3.8l1.38.75 5.82 2.8m7.24 3.5l7.22 3.48m7.24 3.5l4.22 2.03 3.08 1.32m7.37 3.18l7.38 3.18m7.44 3.06l7.5 2.86m7.5 2.87l.66.24 6.96 2.32m7.62 2.54l2.02.67 5.67 1.64m7.72 2.22l2.8.8 4.97 1.2m7.8 1.9l4.34 1.04 3.52.7m7.88 1.56l7.88 1.56m7.93 1.26l7.95 1.22m7.94 1.22l5.62.87 2.32.28m7.98.95l7.98.95m7.97.95l7.98.94m8 .82l8 .8m7.98.8l8 .8m8 .8l7.98.8m8 .8l8 .8m8 .8l7.98.8m8.02.48l8.03.36m8.02.36l1.22.06h6.8m8.05.03l4.16.02 3.87-.15m8.03-.32l5.26-.2 2.76-.2m8-.62l8-.87m7.97-.92l7.94-1.23m7.9-1.43l5.45-1.1 2.42-.6m7.77-2l5.7-1.67 1.98-.7m7.54-2.75l2.3-.9 4.84-2.18.23-.12m7.1-3.75l.8-.44 3.42-2.13 2.55-1.74m6.32-4.97l1.9-1.73 2.14-2.1 1.67-1.8m4.97-6.32l.3-.45 1.43-2.2 1.3-2.26 1.04-2m3.08-7.42l.07-.18.8-2.6.28-1.06M300.02 601.03L300 600" stroke="#0c7cba" stroke-width="2" fill="none"/><path d="M1299.6 1163.2l2.82 14.74-9.2-1.15z" stroke="#0c7cba" stroke-width="2" fill="#0c7cba"/><path d="M720 1046c0-3.3 2.7-6 6-6h228c3.3 0 6 2.7 6 6v62c0 3.3-2.7 6-6 6H726c-3.3 0-6-2.7-6-6z" stroke="#000" stroke-opacity="0" stroke-width="3" fill="#fff" fill-opacity="0"/><g><use xlink:href="#y" transform="matrix(1,0,0,1,725,1045) translate(39.814814814814824 21.333333333333332)"/><use xlink:href="#z" transform="matrix(1,0,0,1,725,1045) translate(87.96296296296296 21.333333333333332)"/><use xlink:href="#A" transform="matrix(1,0,0,1,725,1045) translate(147.22222222222223 21.333333333333332)"/><use xlink:href="#B" transform="matrix(1,0,0,1,725,1045) translate(63.51851851851852 53.33333333333333)"/><use xlink:href="#C" transform="matrix(1,0,0,1,725,1045) translate(101.29629629629629 53.33333333333333)"/><use xlink:href="#D" transform="matrix(1,0,0,1,725,1045) translate(123.5185185185185 53.33333333333333)"/></g><defs><path d="M101-234c-31-9-42 10-38 44h38v23H63V0H32v-167H5v-23h27c-7-52 17-82 69-68v24" id="E"/><g id="a"><use transform="matrix(0.06790123456790123,0,0,0.06790123456790123,0,0)" xlink:href="#E"/><use transform="matrix(0.06790123456790123,0,0,0.06790123456790123,6.314814814814815,0)" xlink:href="#E"/></g><path fill="#333" d="M115-194c55 1 70 41 70 98S169 2 115 4C84 4 66-9 55-30l1 105H24l-1-265h31l2 30c10-21 28-34 59-34zm-8 174c40 0 45-34 45-75s-6-73-45-74c-42 0-51 32-51 76 0 43 10 73 51 73" id="F"/><path fill="#333" d="M141-36C126-15 110 5 73 4 37 3 15-17 15-53c-1-64 63-63 125-63 3-35-9-54-41-54-24 1-41 7-42 31l-33-3c5-37 33-52 76-52 45 0 72 20 72 64v82c-1 20 7 32 28 27v20c-31 9-61-2-59-35zM48-53c0 20 12 33 32 33 41-3 63-29 60-74-43 2-92-5-92 41" id="G"/><path fill="#333" d="M108 0H70L1-190h34L89-25l56-165h34" id="H"/><g id="b"><use transform="matrix(0.06790123456790123,0,0,0.06790123456790123,0,0)" xlink:href="#F"/><use transform="matrix(0.06790123456790123,0,0,0.06790123456790123,13.580246913580247,0)" xlink:href="#G"/><use transform="matrix(0.06790123456790123,0,0,0.06790123456790123,27.160493827160494,0)" xlink:href="#H"/></g><path fill="#333" d="M101-251c68 0 85 55 85 127S166 4 100 4C33 4 14-52 14-124c0-73 17-127 87-127zm-1 229c47 0 54-49 54-102s-4-102-53-102c-51 0-55 48-55 102 0 53 5 102 54 102" id="I"/><use transform="matrix(0.06172839506172839,0,0,0.06172839506172839,0,0)" xlink:href="#I" id="c"/><path fill="#333" d="M27 0v-27h64v-190l-56 39v-29l58-41h29v221h61V0H27" id="J"/><use transform="matrix(0.06172839506172839,0,0,0.06172839506172839,0,0)" xlink:href="#J" id="d"/><path fill="#333" d="M101-251c82-7 93 87 43 132L82-64C71-53 59-42 53-27h129V0H18c2-99 128-94 128-182 0-28-16-43-45-43s-46 15-49 41l-32-3c6-41 34-60 81-64" id="K"/><use transform="matrix(0.06172839506172839,0,0,0.06172839506172839,0,0)" xlink:href="#K" id="e"/><path fill="#333" d="M126-127c33 6 58 20 58 59 0 88-139 92-164 29-3-8-5-16-6-25l32-3c6 27 21 44 54 44 32 0 52-15 52-46 0-38-36-46-79-43v-28c39 1 72-4 72-42 0-27-17-43-46-43-28 0-47 15-49 41l-32-3c6-42 35-63 81-64 48-1 79 21 79 65 0 36-21 52-52 59" id="L"/><use transform="matrix(0.06172839506172839,0,0,0.06172839506172839,0,0)" xlink:href="#L" id="f"/><path fill="#333" d="M155-56V0h-30v-56H8v-25l114-167h33v167h35v25h-35zm-30-156c-27 46-58 90-88 131h88v-131" id="M"/><use transform="matrix(0.06172839506172839,0,0,0.06172839506172839,0,0)" xlink:href="#M" id="g"/><path fill="#333" d="M54-142c48-35 137-8 131 61C196 18 31 33 14-55l32-4c7 23 22 37 52 37 35-1 51-22 54-58 4-55-73-65-99-34H22l8-134h141v27H59" id="N"/><use transform="matrix(0.06172839506172839,0,0,0.06172839506172839,0,0)" xlink:href="#N" id="h"/><path fill="#333" d="M194-70c0 46-34 64-81 66v29H91V-4C42-5 12-27 4-67l30-6c5 28 25 41 57 43v-87c-38-9-76-20-76-67 1-42 33-58 76-59v-23h22v23c45 0 67 20 76 56l-31 6c-5-23-18-35-45-37v78c41 10 81 20 81 70zm-81 41c51 7 71-66 19-77-6-2-12-4-19-6v83zM91-219c-47-6-63 57-18 69 6 2 12 3 18 5v-74" id="O"/><path fill="#333" d="M99-251c64 0 84 50 84 122C183-37 130 33 47-8c-14-7-20-23-25-40l30-5c6 39 69 39 84 7 9-19 16-44 16-74-10 22-31 35-62 35-49 0-73-33-73-83 0-54 28-83 82-83zm-1 141c31-1 51-18 51-49 0-36-14-67-51-67-34 0-49 23-49 58 0 34 15 58 49 58" id="P"/><g id="i"><use transform="matrix(0.08024691358024691,0,0,0.08024691358024691,0,0)" xlink:href="#O"/><use transform="matrix(0.08024691358024691,0,0,0.08024691358024691,16.049382716049383,0)" xlink:href="#P"/></g><path fill="#333" d="M68-38c1 34 0 65-14 84H32c9-13 17-26 17-46H33v-38h35" id="Q"/><path fill="#333" d="M134-131c28 9 52 24 51 62-1 50-34 73-85 73S17-19 16-69c0-36 21-54 49-61-75-25-45-126 34-121 46 3 78 18 79 63 0 33-17 51-44 57zm-34-11c31 1 46-15 46-44 0-28-17-43-47-42-29 0-46 13-45 42 1 28 16 44 46 44zm1 122c35 0 51-18 51-52 0-30-18-46-53-46-33 0-51 17-51 47 0 34 19 51 53 51" id="R"/><g id="j"><use transform="matrix(0.08024691358024691,0,0,0.08024691358024691,0,0)" xlink:href="#O"/><use transform="matrix(0.08024691358024691,0,0,0.08024691358024691,16.049382716049383,0)" xlink:href="#J"/><use transform="matrix(0.08024691358024691,0,0,0.08024691358024691,32.098765432098766,0)" xlink:href="#I"/><use transform="matrix(0.08024691358024691,0,0,0.08024691358024691,48.14814814814815,0)" xlink:href="#Q"/><use transform="matrix(0.08024691358024691,0,0,0.08024691358024691,56.17283950617284,0)" xlink:href="#R"/><use transform="matrix(0.08024691358024691,0,0,0.08024691358024691,72.22222222222223,0)" xlink:href="#P"/></g><g id="k"><use transform="matrix(0.08024691358024691,0,0,0.08024691358024691,0,0)" xlink:href="#O"/><use transform="matrix(0.08024691358024691,0,0,0.08024691358024691,16.049382716049383,0)" xlink:href="#J"/><use transform="matrix(0.08024691358024691,0,0,0.08024691358024691,32.098765432098766,0)" xlink:href="#L"/><use transform="matrix(0.08024691358024691,0,0,0.08024691358024691,48.14814814814815,0)" xlink:href="#Q"/><use transform="matrix(0.08024691358024691,0,0,0.08024691358024691,56.17283950617284,0)" xlink:href="#J"/><use transform="matrix(0.08024691358024691,0,0,0.08024691358024691,72.22222222222223,0)" xlink:href="#R"/></g><g id="l"><use transform="matrix(0.08024691358024691,0,0,0.08024691358024691,0,0)" xlink:href="#O"/><use transform="matrix(0.08024691358024691,0,0,0.08024691358024691,16.049382716049383,0)" xlink:href="#J"/><use transform="matrix(0.08024691358024691,0,0,0.08024691358024691,32.098765432098766,0)" xlink:href="#N"/><use transform="matrix(0.08024691358024691,0,0,0.08024691358024691,48.14814814814815,0)" xlink:href="#Q"/><use transform="matrix(0.08024691358024691,0,0,0.08024691358024691,56.17283950617284,0)" xlink:href="#P"/><use transform="matrix(0.08024691358024691,0,0,0.08024691358024691,72.22222222222223,0)" xlink:href="#M"/></g><g id="m"><use transform="matrix(0.08024691358024691,0,0,0.08024691358024691,0,0)" xlink:href="#O"/><use transform="matrix(0.08024691358024691,0,0,0.08024691358024691,16.049382716049383,0)" xlink:href="#J"/><use transform="matrix(0.08024691358024691,0,0,0.08024691358024691,32.098765432098766,0)" xlink:href="#P"/><use transform="matrix(0.08024691358024691,0,0,0.08024691358024691,48.14814814814815,0)" xlink:href="#Q"/><use transform="matrix(0.08024691358024691,0,0,0.08024691358024691,56.17283950617284,0)" xlink:href="#K"/><use transform="matrix(0.08024691358024691,0,0,0.08024691358024691,72.22222222222223,0)" xlink:href="#P"/></g><g id="n"><use transform="matrix(0.08024691358024691,0,0,0.08024691358024691,0,0)" xlink:href="#O"/><use transform="matrix(0.08024691358024691,0,0,0.08024691358024691,16.049382716049383,0)" xlink:href="#R"/><use transform="matrix(0.08024691358024691,0,0,0.08024691358024691,32.098765432098766,0)" xlink:href="#Q"/><use transform="matrix(0.08024691358024691,0,0,0.08024691358024691,40.123456790123456,0)" xlink:href="#M"/></g><g id="o"><use transform="matrix(0.08024691358024691,0,0,0.08024691358024691,0,0)" xlink:href="#O"/><use transform="matrix(0.08024691358024691,0,0,0.08024691358024691,16.049382716049383,0)" xlink:href="#J"/><use transform="matrix(0.08024691358024691,0,0,0.08024691358024691,32.098765432098766,0)" xlink:href="#I"/><use transform="matrix(0.08024691358024691,0,0,0.08024691358024691,48.14814814814815,0)" xlink:href="#Q"/><use transform="matrix(0.08024691358024691,0,0,0.08024691358024691,56.17283950617284,0)" xlink:href="#I"/><use transform="matrix(0.08024691358024691,0,0,0.08024691358024691,72.22222222222223,0)" xlink:href="#R"/></g><g id="p"><use transform="matrix(0.08024691358024691,0,0,0.08024691358024691,0,0)" xlink:href="#O"/><use transform="matrix(0.08024691358024691,0,0,0.08024691358024691,16.049382716049383,0)" xlink:href="#J"/><use transform="matrix(0.08024691358024691,0,0,0.08024691358024691,32.098765432098766,0)" xlink:href="#K"/><use transform="matrix(0.08024691358024691,0,0,0.08024691358024691,48.14814814814815,0)" xlink:href="#Q"/><use transform="matrix(0.08024691358024691,0,0,0.08024691358024691,56.17283950617284,0)" xlink:href="#J"/><use transform="matrix(0.08024691358024691,0,0,0.08024691358024691,72.22222222222223,0)" xlink:href="#I"/></g><g id="q"><use transform="matrix(0.08024691358024691,0,0,0.08024691358024691,0,0)" xlink:href="#O"/><use transform="matrix(0.08024691358024691,0,0,0.08024691358024691,16.049382716049383,0)" xlink:href="#J"/><use transform="matrix(0.08024691358024691,0,0,0.08024691358024691,32.098765432098766,0)" xlink:href="#M"/><use transform="matrix(0.08024691358024691,0,0,0.08024691358024691,48.14814814814815,0)" xlink:href="#Q"/><use transform="matrix(0.08024691358024691,0,0,0.08024691358024691,56.17283950617284,0)" xlink:href="#N"/><use transform="matrix(0.08024691358024691,0,0,0.08024691358024691,72.22222222222223,0)" xlink:href="#K"/></g><path fill="#333" d="M64 0c3-98 48-159 88-221H18v-27h164v26C143-157 98-101 97 0H64" id="S"/><g id="r"><use transform="matrix(0.08024691358024691,0,0,0.08024691358024691,0,0)" xlink:href="#O"/><use transform="matrix(0.08024691358024691,0,0,0.08024691358024691,16.049382716049383,0)" xlink:href="#J"/><use transform="matrix(0.08024691358024691,0,0,0.08024691358024691,32.098765432098766,0)" xlink:href="#S"/><use transform="matrix(0.08024691358024691,0,0,0.08024691358024691,48.14814814814815,0)" xlink:href="#Q"/><use transform="matrix(0.08024691358024691,0,0,0.08024691358024691,56.17283950617284,0)" xlink:href="#M"/><use transform="matrix(0.08024691358024691,0,0,0.08024691358024691,72.22222222222223,0)" xlink:href="#K"/></g><path fill="#c92d39" d="M177-190C167-65 218 103 67 71c-23-6-38-20-44-43l32-5c15 47 100 32 89-28v-30C133-14 115 1 83 1 29 1 15-40 15-95c0-56 16-97 71-98 29-1 48 16 59 35 1-10 0-23 2-32h30zM94-22c36 0 50-32 50-73 0-42-14-75-50-75-39 0-46 34-46 75s6 73 46 73" id="T"/><path fill="#c92d39" d="M27 0v-27h64v-190l-56 39v-29l58-41h29v221h61V0H27" id="U"/><path fill="#c92d39" d="M18-150v-26h174v26H18zm0 90v-26h174v26H18" id="V"/><g id="s"><use transform="matrix(0.07407407407407407,0,0,0.07407407407407407,0,0)" xlink:href="#T"/><use transform="matrix(0.05185185185185184,0,0,0.05185185185185184,14.814814814814813,3.7333333333333325)" xlink:href="#U"/><use transform="matrix(0.07407407407407407,0,0,0.07407407407407407,25.185185185185183,0)" xlink:href="#V"/></g><path fill="#c92d39" d="M101-251c68 0 85 55 85 127S166 4 100 4C33 4 14-52 14-124c0-73 17-127 87-127zm-1 229c47 0 54-49 54-102s-4-102-53-102c-51 0-55 48-55 102 0 53 5 102 54 102" id="W"/><path fill="#c92d39" d="M68-38c1 34 0 65-14 84H32c9-13 17-26 17-46H33v-38h35" id="X"/><path fill="#c92d39" d="M101-251c82-7 93 87 43 132L82-64C71-53 59-42 53-27h129V0H18c2-99 128-94 128-182 0-28-16-43-45-43s-46 15-49 41l-32-3c6-41 34-60 81-64" id="Y"/><g id="t"><use transform="matrix(0.07407407407407407,0,0,0.07407407407407407,0,0)" xlink:href="#W"/><use transform="matrix(0.07407407407407407,0,0,0.07407407407407407,14.814814814814813,0)" xlink:href="#X"/><use transform="matrix(0.07407407407407407,0,0,0.07407407407407407,22.22222222222222,0)" xlink:href="#Y"/><use transform="matrix(0.07407407407407407,0,0,0.07407407407407407,37.03703703703704,0)" xlink:href="#U"/></g><path fill="#c92d39" d="M115-194c55 1 70 41 70 98S169 2 115 4C84 4 66-9 55-30l1 105H24l-1-265h31l2 30c10-21 28-34 59-34zm-8 174c40 0 45-34 45-75s-6-73-45-74c-42 0-51 32-51 76 0 43 10 73 51 73" id="Z"/><path fill="#c92d39" d="M141-36C126-15 110 5 73 4 37 3 15-17 15-53c-1-64 63-63 125-63 3-35-9-54-41-54-24 1-41 7-42 31l-33-3c5-37 33-52 76-52 45 0 72 20 72 64v82c-1 20 7 32 28 27v20c-31 9-61-2-59-35zM48-53c0 20 12 33 32 33 41-3 63-29 60-74-43 2-92-5-92 41" id="aa"/><path fill="#c92d39" d="M108 0H70L1-190h34L89-25l56-165h34" id="ab"/><g id="u"><use transform="matrix(0.07407407407407407,0,0,0.07407407407407407,0,0)" xlink:href="#Z"/><use transform="matrix(0.07407407407407407,0,0,0.07407407407407407,14.814814814814813,0)" xlink:href="#aa"/><use transform="matrix(0.07407407407407407,0,0,0.07407407407407407,29.629629629629626,0)" xlink:href="#ab"/></g><path fill="#c92d39" d="M117-194c89-4 53 116 60 194h-32v-121c0-31-8-49-39-48C34-167 62-67 57 0H25l-1-190h30c1 10-1 24 2 32 11-22 29-35 61-36" id="ac"/><g id="v"><use transform="matrix(0.07407407407407407,0,0,0.07407407407407407,0,0)" xlink:href="#ac"/><use transform="matrix(0.07407407407407407,0,0,0.07407407407407407,14.814814814814813,0)" xlink:href="#V"/></g><path fill="#c92d39" d="M54-142c48-35 137-8 131 61C196 18 31 33 14-55l32-4c7 23 22 37 52 37 35-1 51-22 54-58 4-55-73-65-99-34H22l8-134h141v27H59" id="ad"/><use transform="matrix(0.07407407407407407,0,0,0.07407407407407407,0,0)" xlink:href="#ad" id="w"/><g id="x"><use transform="matrix(0.07407407407407407,0,0,0.07407407407407407,0,0)" xlink:href="#Z"/><use transform="matrix(0.07407407407407407,0,0,0.07407407407407407,14.814814814814813,0)" xlink:href="#aa"/><use transform="matrix(0.07407407407407407,0,0,0.07407407407407407,29.629629629629626,0)" xlink:href="#ab"/></g><path fill="#0c7cba" d="M177-190C167-65 218 103 67 71c-23-6-38-20-44-43l32-5c15 47 100 32 89-28v-30C133-14 115 1 83 1 29 1 15-40 15-95c0-56 16-97 71-98 29-1 48 16 59 35 1-10 0-23 2-32h30zM94-22c36 0 50-32 50-73 0-42-14-75-50-75-39 0-46 34-46 75s6 73 46 73" id="ae"/><path fill="#0c7cba" d="M27 0v-27h64v-190l-56 39v-29l58-41h29v221h61V0H27" id="af"/><path fill="#0c7cba" d="M18-150v-26h174v26H18zm0 90v-26h174v26H18" id="ag"/><g id="y"><use transform="matrix(0.07407407407407407,0,0,0.07407407407407407,0,0)" xlink:href="#ae"/><use transform="matrix(0.05185185185185184,0,0,0.05185185185185184,14.814814814814813,3.7333333333333325)" xlink:href="#af"/><use transform="matrix(0.07407407407407407,0,0,0.07407407407407407,25.185185185185183,0)" xlink:href="#ag"/></g><path fill="#0c7cba" d="M101-251c68 0 85 55 85 127S166 4 100 4C33 4 14-52 14-124c0-73 17-127 87-127zm-1 229c47 0 54-49 54-102s-4-102-53-102c-51 0-55 48-55 102 0 53 5 102 54 102" id="ah"/><path fill="#0c7cba" d="M68-38c1 34 0 65-14 84H32c9-13 17-26 17-46H33v-38h35" id="ai"/><path fill="#0c7cba" d="M101-251c82-7 93 87 43 132L82-64C71-53 59-42 53-27h129V0H18c2-99 128-94 128-182 0-28-16-43-45-43s-46 15-49 41l-32-3c6-41 34-60 81-64" id="aj"/><g id="z"><use transform="matrix(0.07407407407407407,0,0,0.07407407407407407,0,0)" xlink:href="#ah"/><use transform="matrix(0.07407407407407407,0,0,0.07407407407407407,14.814814814814813,0)" xlink:href="#ai"/><use transform="matrix(0.07407407407407407,0,0,0.07407407407407407,22.22222222222222,0)" xlink:href="#aj"/><use transform="matrix(0.07407407407407407,0,0,0.07407407407407407,37.03703703703704,0)" xlink:href="#ah"/></g><path fill="#0c7cba" d="M115-194c55 1 70 41 70 98S169 2 115 4C84 4 66-9 55-30l1 105H24l-1-265h31l2 30c10-21 28-34 59-34zm-8 174c40 0 45-34 45-75s-6-73-45-74c-42 0-51 32-51 76 0 43 10 73 51 73" id="ak"/><path fill="#0c7cba" d="M141-36C126-15 110 5 73 4 37 3 15-17 15-53c-1-64 63-63 125-63 3-35-9-54-41-54-24 1-41 7-42 31l-33-3c5-37 33-52 76-52 45 0 72 20 72 64v82c-1 20 7 32 28 27v20c-31 9-61-2-59-35zM48-53c0 20 12 33 32 33 41-3 63-29 60-74-43 2-92-5-92 41" id="al"/><path fill="#0c7cba" d="M108 0H70L1-190h34L89-25l56-165h34" id="am"/><g id="A"><use transform="matrix(0.07407407407407407,0,0,0.07407407407407407,0,0)" xlink:href="#ak"/><use transform="matrix(0.07407407407407407,0,0,0.07407407407407407,14.814814814814813,0)" xlink:href="#al"/><use transform="matrix(0.07407407407407407,0,0,0.07407407407407407,29.629629629629626,0)" xlink:href="#am"/></g><path fill="#0c7cba" d="M117-194c89-4 53 116 60 194h-32v-121c0-31-8-49-39-48C34-167 62-67 57 0H25l-1-190h30c1 10-1 24 2 32 11-22 29-35 61-36" id="an"/><g id="B"><use transform="matrix(0.07407407407407407,0,0,0.07407407407407407,0,0)" xlink:href="#an"/><use transform="matrix(0.07407407407407407,0,0,0.07407407407407407,14.814814814814813,0)" xlink:href="#ag"/></g><path fill="#0c7cba" d="M54-142c48-35 137-8 131 61C196 18 31 33 14-55l32-4c7 23 22 37 52 37 35-1 51-22 54-58 4-55-73-65-99-34H22l8-134h141v27H59" id="ao"/><use transform="matrix(0.07407407407407407,0,0,0.07407407407407407,0,0)" xlink:href="#ao" id="C"/><g id="D"><use transform="matrix(0.07407407407407407,0,0,0.07407407407407407,0,0)" xlink:href="#ak"/><use transform="matrix(0.07407407407407407,0,0,0.07407407407407407,14.814814814814813,0)" xlink:href="#al"/><use transform="matrix(0.07407407407407407,0,0,0.07407407407407407,29.629629629629626,0)" xlink:href="#am"/></g></defs></g></svg>