<svg xmlns="http://www.w3.org/2000/svg" xmlns:xlink="http://www.w3.org/1999/xlink" xmlns:lucid="lucid" width="420" height="376"><g transform="translate(-2.842170943040401e-14 -69)" lucid:page-tab-id="0_0"><path d="M61 240h280.5M61.03 240H60" stroke="#5e5e5e" stroke-width="2" fill="none"/><path d="M356.76 240l-14.26 4.64v-9.28z" stroke="#5e5e5e" stroke-width="2" fill="#5e5e5e"/><path d="M160 241v40.5M160 241.03V240" stroke="#000" stroke-width="2" fill="none"/><path d="M160 296.76l-4.64-14.26h9.28z" stroke="#000" stroke-width="2"/><path d="M220 241v40.5M220 241.03V240" stroke="#000" stroke-width="2" fill="none"/><path d="M220 296.76l-4.64-14.26h9.28z" stroke="#000" stroke-width="2"/><path d="M280 241v40.5M280 241.03V240" stroke="#000" stroke-width="2" fill="none"/><path d="M280 296.76l-4.64-14.26h9.28z" stroke="#000" stroke-width="2"/><path d="M220 306c0-3.3 2.7-6 6-6h68c3.3 0 6 2.7 6 6v8c0 3.3-2.7 6-6 6h-68c-3.3 0-6-2.7-6-6z" stroke="#000" stroke-opacity="0" stroke-width="3" fill="#fff" fill-opacity="0"/><use xlink:href="#a" transform="matrix(1,0,0,1,225,304.9999999999999) translate(11.904320987654327 12.444444444444443)"/><use xlink:href="#b" transform="matrix(1,0,0,1,225,304.9999999999999) translate(27.416666666666668 12.444444444444443)"/><use xlink:href="#c" transform="matrix(1,0,0,1,225,304.9999999999999) translate(40.81172839506173 12.444444444444443)"/><path d="M140 326c0-3.3 2.7-6 6-6h88c3.3 0 6 2.7 6 6v8c0 3.3-2.7 6-6 6h-88c-3.3 0-6-2.7-6-6z" stroke="#000" stroke-opacity="0" stroke-width="3" fill="#fff" fill-opacity="0"/><use xlink:href="#d" transform="matrix(1,0,0,1,145,325) translate(2.5277777777777857 12.444444444444443)"/><use xlink:href="#b" transform="matrix(1,0,0,1,145,325) translate(10.262345679012352 12.444444444444443)"/><use xlink:href="#e" transform="matrix(1,0,0,1,145,325) translate(23.657407407407412 12.444444444444443)"/><use xlink:href="#f" transform="matrix(1,0,0,1,145,325) translate(59.0895061728395 12.444444444444443)"/><use xlink:href="#g" transform="matrix(1,0,0,1,145,325) translate(15.469135802469147 31.111111111111107)"/><use xlink:href="#b" transform="matrix(1,0,0,1,145,325) translate(28.432098765432105 31.111111111111107)"/><use xlink:href="#h" transform="matrix(1,0,0,1,145,325) translate(41.827160493827165 31.111111111111107)"/><use xlink:href="#i" transform="matrix(1,0,0,1,145,325) translate(54.79012345679012 31.111111111111107)"/><path d="M141 300h198M141.03 300H140M338.97 300H340" stroke="#000" stroke-width="2" fill="none"/><path d="M60 226c0-3.3 2.7-6 6-6h8c3.3 0 6 2.7 6 6v8c0 3.3-2.7 6-6 6h-8c-3.3 0-6-2.7-6-6z" stroke="#000" stroke-opacity="0" stroke-width="3" fill="#fff" fill-opacity="0"/><use xlink:href="#j" transform="matrix(1,0,0,1,65,225) translate(0.6790123456790136 12.444444444444443)"/><path d="M140 226c0-3.3 2.7-6 6-6h28c3.3 0 6 2.7 6 6v8c0 3.3-2.7 6-6 6h-28c-3.3 0-6-2.7-6-6z" stroke="#000" stroke-opacity="0" stroke-width="3" fill="#fff" fill-opacity="0"/><use xlink:href="#k" transform="matrix(1,0,0,1,145,225) translate(10.679012345679013 12.444444444444443)"/><path d="M200 226c0-3.3 2.7-6 6-6h28c3.3 0 6 2.7 6 6v8c0 3.3-2.7 6-6 6h-28c-3.3 0-6-2.7-6-6z" stroke="#000" stroke-opacity="0" stroke-width="3" fill="#fff" fill-opacity="0"/><use xlink:href="#l" transform="matrix(1,0,0,1,205,224.99999999999994) translate(10.679012345679013 12.444444444444443)"/><path d="M260 226c0-3.3 2.7-6 6-6h28c3.3 0 6 2.7 6 6v8c0 3.3-2.7 6-6 6h-28c-3.3 0-6-2.7-6-6z" stroke="#000" stroke-opacity="0" stroke-width="3" fill="#fff" fill-opacity="0"/><use xlink:href="#m" transform="matrix(1,0,0,1,265,225) translate(10.679012345679013 12.444444444444443)"/><path d="M60 81v2.98m0 3.98v5.96m0 3.97v5.96m0 3.97v5.96m0 3.97v5.96m0 3.98v5.97m0 3.97v5.97m0 3.98v5.96m0 3.98v5.96m0 3.98v5.96m0 3.97v5.96m0 3.97v5.96m0 3.97v5.96m0 3.98v5.97m0 3.97v5.97m0 3.98v5.96m0 3.98v5.96m0 3.98v5.96m0 3.97v5.96m0 3.97v5.96m0 3.97v5.96m0 3.98v5.97m0 3.97v5.97m0 3.98v5.96m0 3.98v5.96m0 3.98v5.96m0 3.97v5.96m0 3.97v5.96m0 3.97v5.96m0 3.98v5.97m0 3.97v5.97m0 3.98v5.96m0 3.98V399M60 81.03V80M60 398.97V400" stroke="#000" stroke-width="2" fill="none"/><path d="M60.65 321.7l.14.35.48 1.05.55 1.07.15.26m2.2 3.42l.72.97 1.04 1.28 1.2 1.34 1 1.03m2.95 2.77l.77.7 2.1 1.68 1.9 1.4m3.35 2.28l.1.08 3.45 2.1 1.67.95m3.57 1.93l3.9 1.96 1.58.72m3.7 1.67l.83.4 4.8 1.92m3.8 1.48l5.73 2.04m3.84 1.3l5.82 1.8m3.87 1.2l1.16.36 4.7 1.24m3.94 1.04l5.9 1.55m3.95.9l5.94 1.3m3.97.87l5.65 1.24.3.05m4 .7l6 1.05m4 .7l6 1.06m4 .62l6.04.8m4.02.55l6.04.8m4.02.52l6.07.55m4.04.38l3.3.3 2.78.15m4.05.2l1.3.02 4.8-.2m4.04-.2l.85-.02 5.2-.66m4.03-.5l1.3-.17 4.67-1m3.98-.83l1.35-.28 4.5-1.35m3.9-1.18l.7-.2 4.98-1.97m3.76-1.54l5.45-2.68m3.54-1.97l2.86-1.7 2.27-1.57m3.33-2.32l1.05-.73 3.72-3.06m3.13-2.58l.78-.65 3.65-3.54m2.9-2.82l2.15-2.07 2.05-2.33m2.67-3.06l4-4.57m2.5-3.2l3.64-4.9m2.4-3.25l1.92-2.58 1.52-2.44m2.15-3.44l3.22-5.16m2.05-3.5l1.45-2.68" stroke="#c92d39" stroke-width="2" fill="none"/><path d="M79 330.5l-17.93-8.85.87 19.98M339.5 300.9l.5-.9" stroke="#c92d39" stroke-width="2" fill="none"/><path d="M320 226c0-3.3 2.7-6 6-6h28c3.3 0 6 2.7 6 6v8c0 3.3-2.7 6-6 6h-28c-3.3 0-6-2.7-6-6z" stroke="#000" stroke-opacity="0" stroke-width="3" fill="#fff" fill-opacity="0"/><use xlink:href="#n" transform="matrix(1,0,0,1,325,224.99999999999994) translate(10.679012345679013 12.444444444444443)"/><path d="M30 406c0-3.3 2.7-6 6-6h38c3.3 0 6 2.7 6 6v8c0 3.3-2.7 6-6 6H36c-3.3 0-6-2.7-6-6z" stroke="#000" stroke-opacity="0" stroke-width="3" fill="#fff" fill-opacity="0"/><use xlink:href="#o" transform="matrix(1,0,0,1,35,405) translate(15.75412326388889 13.595920138888886)"/><path d="M20 126c0-3.3 2.7-6 6-6h188c3.3 0 6 2.7 6 6v8c0 3.3-2.7 6-6 6H26c-3.3 0-6-2.7-6-6z" stroke="#000" stroke-opacity="0" stroke-width="3" fill="#fff" fill-opacity="0"/><use xlink:href="#p" transform="matrix(1,0,0,1,25.00000000000003,125) translate(0 12.444444444444443)"/><use xlink:href="#q" transform="matrix(1,0,0,1,25.00000000000003,125) translate(24.759259259259256 12.444444444444443)"/><use xlink:href="#r" transform="matrix(1,0,0,1,25.00000000000003,125) translate(38.154320987654316 12.444444444444443)"/><path d="M60 219v-60.5M60 218.97V220" stroke="#5e5e5e" stroke-width="2" fill="none"/><path d="M60 143.24l4.64 14.26h-9.28z" stroke="#5e5e5e" stroke-width="2" fill="#5e5e5e"/><path d="M340 241v40.5M340 241.03V240" stroke="#000" stroke-width="2" fill="none"/><path d="M340 296.76l-4.64-14.26h9.28z" stroke="#000" stroke-width="2"/><path d="M360 226c0-3.3 2.7-6 6-6h28c3.3 0 6 2.7 6 6v8c0 3.3-2.7 6-6 6h-28c-3.3 0-6-2.7-6-6z" stroke="#000" stroke-opacity="0" stroke-width="3" fill="#fff" fill-opacity="0"/><g><use xlink:href="#s" transform="matrix(1,0,0,1,365,225) translate(5.129629629629633 12.444444444444443)"/></g><defs><path d="M233-177c-1 41-23 64-60 70L243 0h-38l-65-103H63V0H30v-248c88 3 205-21 203 71zM63-129c60-2 137 13 137-47 0-61-80-42-137-45v92" id="t"/><use transform="matrix(0.04320987654320987,0,0,0.04320987654320987,0,0)" xlink:href="#t" id="a"/><path d="M18-150v-26h174v26H18zm0 90v-26h174v26H18" id="u"/><use transform="matrix(0.04320987654320987,0,0,0.04320987654320987,0,0)" xlink:href="#u" id="b"/><path d="M194-70c0 46-34 64-81 66v29H91V-4C42-5 12-27 4-67l30-6c5 28 25 41 57 43v-87c-38-9-76-20-76-67 1-42 33-58 76-59v-23h22v23c45 0 67 20 76 56l-31 6c-5-23-18-35-45-37v78c41 10 81 20 81 70zm-81 41c51 7 71-66 19-77-6-2-12-4-19-6v83zM91-219c-47-6-63 57-18 69 6 2 12 3 18 5v-74" id="v"/><path d="M103-251c84 0 111 97 45 133-19 10-37 24-39 52H78c0-63 77-55 77-114 0-30-21-42-52-43-32 0-53 17-56 46l-32-2c7-45 34-72 88-72zM77 0v-35h34V0H77" id="w"/><g id="c"><use transform="matrix(0.04320987654320987,0,0,0.04320987654320987,0,0)" xlink:href="#v"/><use transform="matrix(0.04320987654320987,0,0,0.04320987654320987,8.641975308641973,0)" xlink:href="#w"/></g><path d="M24-231v-30h32v30H24zM-9 49c24 4 33-6 33-30v-209h32V24c2 40-23 58-65 49V49" id="x"/><use transform="matrix(0.04320987654320987,0,0,0.04320987654320987,0,0)" xlink:href="#x" id="d"/><path d="M126-127c33 6 58 20 58 59 0 88-139 92-164 29-3-8-5-16-6-25l32-3c6 27 21 44 54 44 32 0 52-15 52-46 0-38-36-46-79-43v-28c39 1 72-4 72-42 0-27-17-43-46-43-28 0-47 15-49 41l-32-3c6-42 35-63 81-64 48-1 79 21 79 65 0 36-21 52-52 59" id="y"/><path d="M101-251c82-7 93 87 43 132L82-64C71-53 59-42 53-27h129V0H18c2-99 128-94 128-182 0-28-16-43-45-43s-46 15-49 41l-32-3c6-41 34-60 81-64" id="z"/><path d="M252-156c43 0 55 33 55 80 0 46-13 78-56 78-42 0-55-33-55-78 0-48 12-80 56-80zM93 0H65l162-248h28zM13-171c-1-47 13-79 56-79s55 33 55 79-13 79-55 79c-43 0-56-33-56-79zM251-17c28 0 30-29 30-59 0-31-1-60-29-60-29 0-31 29-31 60 0 29 2 59 30 59zM69-112c27 0 28-30 29-59 0-31-1-60-29-60-29 0-30 30-30 60s2 59 30 59" id="A"/><g id="e"><use transform="matrix(0.04320987654320987,0,0,0.04320987654320987,0,0)" xlink:href="#y"/><use transform="matrix(0.04320987654320987,0,0,0.04320987654320987,8.641975308641973,0)" xlink:href="#z"/><use transform="matrix(0.04320987654320987,0,0,0.04320987654320987,17.283950617283946,0)" xlink:href="#A"/></g><path d="M117-194c89-4 53 116 60 194h-32v-121c0-31-8-49-39-48C34-167 62-67 57 0H25l-1-190h30c1 10-1 24 2 32 11-22 29-35 61-36" id="B"/><path d="M141-36C126-15 110 5 73 4 37 3 15-17 15-53c-1-64 63-63 125-63 3-35-9-54-41-54-24 1-41 7-42 31l-33-3c5-37 33-52 76-52 45 0 72 20 72 64v82c-1 20 7 32 28 27v20c-31 9-61-2-59-35zM48-53c0 20 12 33 32 33 41-3 63-29 60-74-43 2-92-5-92 41" id="C"/><path d="M59-47c-2 24 18 29 38 22v24C64 9 27 4 27-40v-127H5v-23h24l9-43h21v43h35v23H59v120" id="D"/><path d="M108 0H70L1-190h34L89-25l56-165h34" id="E"/><g id="f"><use transform="matrix(0.04320987654320987,0,0,0.04320987654320987,0,0)" xlink:href="#B"/><use transform="matrix(0.04320987654320987,0,0,0.04320987654320987,8.641975308641973,0)" xlink:href="#C"/><use transform="matrix(0.04320987654320987,0,0,0.04320987654320987,17.283950617283946,0)" xlink:href="#D"/><use transform="matrix(0.04320987654320987,0,0,0.04320987654320987,21.604938271604933,0)" xlink:href="#E"/></g><use transform="matrix(0.04320987654320987,0,0,0.04320987654320987,0,0)" xlink:href="#B" id="g"/><path d="M155-56V0h-30v-56H8v-25l114-167h33v167h35v25h-35zm-30-156c-27 46-58 90-88 131h88v-131" id="F"/><use transform="matrix(0.04320987654320987,0,0,0.04320987654320987,0,0)" xlink:href="#F" id="h"/><path d="M115-194c55 1 70 41 70 98S169 2 115 4C84 4 66-9 55-30l1 105H24l-1-265h31l2 30c10-21 28-34 59-34zm-8 174c40 0 45-34 45-75s-6-73-45-74c-42 0-51 32-51 76 0 43 10 73 51 73" id="G"/><g id="i"><use transform="matrix(0.04320987654320987,0,0,0.04320987654320987,0,0)" xlink:href="#G"/><use transform="matrix(0.04320987654320987,0,0,0.04320987654320987,8.641975308641973,0)" xlink:href="#D"/><use transform="matrix(0.04320987654320987,0,0,0.04320987654320987,12.962962962962958,0)" xlink:href="#E"/></g><path fill="#333" d="M101-251c68 0 85 55 85 127S166 4 100 4C33 4 14-52 14-124c0-73 17-127 87-127zm-1 229c47 0 54-49 54-102s-4-102-53-102c-51 0-55 48-55 102 0 53 5 102 54 102" id="H"/><use transform="matrix(0.04320987654320987,0,0,0.04320987654320987,0,0)" xlink:href="#H" id="j"/><path fill="#333" d="M27 0v-27h64v-190l-56 39v-29l58-41h29v221h61V0H27" id="I"/><use transform="matrix(0.04320987654320987,0,0,0.04320987654320987,0,0)" xlink:href="#I" id="k"/><path fill="#333" d="M101-251c82-7 93 87 43 132L82-64C71-53 59-42 53-27h129V0H18c2-99 128-94 128-182 0-28-16-43-45-43s-46 15-49 41l-32-3c6-41 34-60 81-64" id="J"/><use transform="matrix(0.04320987654320987,0,0,0.04320987654320987,0,0)" xlink:href="#J" id="l"/><path fill="#333" d="M126-127c33 6 58 20 58 59 0 88-139 92-164 29-3-8-5-16-6-25l32-3c6 27 21 44 54 44 32 0 52-15 52-46 0-38-36-46-79-43v-28c39 1 72-4 72-42 0-27-17-43-46-43-28 0-47 15-49 41l-32-3c6-42 35-63 81-64 48-1 79 21 79 65 0 36-21 52-52 59" id="K"/><use transform="matrix(0.04320987654320987,0,0,0.04320987654320987,0,0)" xlink:href="#K" id="m"/><path fill="#333" d="M155-56V0h-30v-56H8v-25l114-167h33v167h35v25h-35zm-30-156c-27 46-58 90-88 131h88v-131" id="L"/><use transform="matrix(0.04320987654320987,0,0,0.04320987654320987,0,0)" xlink:href="#L" id="n"/><path fill="#333" d="M526-770c-19-49-90-43-159-45l-72 622C254 110 134 350-74 485l-26-63C53 318 115 88 141-139l78-676H68l-15-31 101-59h75c24-228 81-415 230-522 71-51 177-125 295-77 59 24 99 73 149 101-51 33-100 82-166 98-54-24-64-112-141-112-130 0-153 152-183 269-20 77-25 163-36 243h256l20 28c-32 41-82 79-127 107" id="M"/><g id="o"><use transform="matrix(0.007595486111111109,0,0,0.007595486111111109,0,0)" xlink:href="#M"/><use transform="matrix(0.007595486111111109,0,0,0.007595486111111109,4.24587673611111,0)" xlink:href="#M"/></g><path fill="#333" d="M137 0h-34L2-248h35l83 218 83-218h36" id="N"/><path fill="#333" d="M30-248c87 1 191-15 191 75 0 78-77 80-158 76V0H30v-248zm33 125c57 0 124 11 124-50 0-59-68-47-124-48v98" id="O"/><g id="p"><use transform="matrix(0.04320987654320987,0,0,0.04320987654320987,0,0)" xlink:href="#N"/><use transform="matrix(0.04320987654320987,0,0,0.04320987654320987,10.370370370370368,0)" xlink:href="#O"/></g><path fill="#333" d="M18-150v-26h174v26H18zm0 90v-26h174v26H18" id="P"/><use transform="matrix(0.04320987654320987,0,0,0.04320987654320987,0,0)" xlink:href="#P" id="q"/><path fill="#333" d="M194-70c0 46-34 64-81 66v29H91V-4C42-5 12-27 4-67l30-6c5 28 25 41 57 43v-87c-38-9-76-20-76-67 1-42 33-58 76-59v-23h22v23c45 0 67 20 76 56l-31 6c-5-23-18-35-45-37v78c41 10 81 20 81 70zm-81 41c51 7 71-66 19-77-6-2-12-4-19-6v83zM91-219c-47-6-63 57-18 69 6 2 12 3 18 5v-74" id="Q"/><path fill="#333" d="M33 0v-38h34V0H33" id="R"/><g id="r"><use transform="matrix(0.04320987654320987,0,0,0.04320987654320987,0,0)" xlink:href="#Q"/><use transform="matrix(0.04320987654320987,0,0,0.04320987654320987,8.641975308641973,0)" xlink:href="#J"/><use transform="matrix(0.04320987654320987,0,0,0.04320987654320987,17.283950617283946,0)" xlink:href="#H"/><use transform="matrix(0.04320987654320987,0,0,0.04320987654320987,25.925925925925917,0)" xlink:href="#H"/><use transform="matrix(0.04320987654320987,0,0,0.04320987654320987,34.56790123456789,0)" xlink:href="#R"/><use transform="matrix(0.04320987654320987,0,0,0.04320987654320987,38.88888888888888,0)" xlink:href="#H"/><use transform="matrix(0.04320987654320987,0,0,0.04320987654320987,47.53086419753085,0)" xlink:href="#H"/><use transform="matrix(0.04320987654320987,0,0,0.04320987654320987,56.17283950617283,0)" xlink:href="#H"/></g><g id="s"><use transform="matrix(0.04320987654320987,0,0,0.04320987654320987,0,0)" xlink:href="#G"/><use transform="matrix(0.04320987654320987,0,0,0.04320987654320987,8.641975308641973,0)" xlink:href="#D"/><use transform="matrix(0.04320987654320987,0,0,0.04320987654320987,12.962962962962958,0)" xlink:href="#E"/></g></defs></g></svg>