<svg xmlns="http://www.w3.org/2000/svg" xmlns:xlink="http://www.w3.org/1999/xlink" xmlns:lucid="lucid" width="471" height="453.18"><g transform="translate(-40 0)" lucid:page-tab-id="0_0"><path d="M101 120h360.5M101.03 120H100" stroke="#5e5e5e" stroke-width="2" fill="none"/><path d="M476.76 120l-14.26 4.64v-9.28z" stroke="#5e5e5e" stroke-width="2" fill="#5e5e5e"/><path d="M100 121v40.5M100 121.03V120" stroke="#5e5e5e" stroke-width="2" fill="none"/><path d="M100 176.76l-4.64-14.26h9.28z" stroke="#5e5e5e" stroke-width="2" fill="#5e5e5e"/><path d="M160 121v100.5M160 121.03V120" stroke="#5e5e5e" stroke-width="2" fill="none"/><path d="M160 236.76l-4.64-14.26h9.28z" stroke="#5e5e5e" stroke-width="2" fill="#5e5e5e"/><path d="M240 121v80.5M240 121.03V120" stroke="#5e5e5e" stroke-width="2" fill="none"/><path d="M240 216.76l-4.64-14.26h9.28z" stroke="#5e5e5e" stroke-width="2" fill="#5e5e5e"/><path d="M320 121v60.5M320 121.03V120" stroke="#5e5e5e" stroke-width="2" fill="none"/><path d="M320 196.76l-4.64-14.26h9.28z" stroke="#5e5e5e" stroke-width="2" fill="#5e5e5e"/><path d="M420 121v40.5M420 121.03V120" stroke="#5e5e5e" stroke-width="2" fill="none"/><path d="M420 176.76l-4.64-14.26h9.28z" stroke="#5e5e5e" stroke-width="2" fill="#5e5e5e"/><path d="M140 266c0-3.3 2.7-6 6-6h28c3.3 0 6 2.7 6 6v8c0 3.3-2.7 6-6 6h-28c-3.3 0-6-2.7-6-6z" stroke="#000" stroke-opacity="0" stroke-width="3" fill="#fff" fill-opacity="0"/><use xlink:href="#a" transform="matrix(1,0,0,1,145,265) translate(-2.2839506172839457 12.444444444444443)"/><path d="M200 246c0-3.3 2.7-6 6-6h68c3.3 0 6 2.7 6 6v8c0 3.3-2.7 6-6 6h-68c-3.3 0-6-2.7-6-6z" stroke="#000" stroke-opacity="0" stroke-width="3" fill="#fff" fill-opacity="0"/><use xlink:href="#b" transform="matrix(1,0,0,1,205,245.00000000000003) translate(6.913580246913586 12.444444444444443)"/><path d="M280 226c0-3.3 2.7-6 6-6h68c3.3 0 6 2.7 6 6v8c0 3.3-2.7 6-6 6h-68c-3.3 0-6-2.7-6-6z" stroke="#000" stroke-opacity="0" stroke-width="3" fill="#fff" fill-opacity="0"/><use xlink:href="#c" transform="matrix(1,0,0,1,285,225.00000000000003) translate(6.913580246913586 12.444444444444443)"/><path d="M380 206c0-3.3 2.7-6 6-6h68c3.3 0 6 2.7 6 6v8c0 3.3-2.7 6-6 6h-68c-3.3 0-6-2.7-6-6z" stroke="#000" stroke-opacity="0" stroke-width="3" fill="#fff" fill-opacity="0"/><use xlink:href="#d" transform="matrix(1,0,0,1,385,205.00000000000003) translate(6.913580246913586 12.444444444444443)"/><path d="M140.97 259.74l298.06-79.48M141 259.74l-1 .26M439 180.26l1-.26" stroke="#0c7cba" stroke-width="2" fill="none"/><path d="M100.08 301.82l.1 1.97m.33 7.9l.18 3.95m0 7.9l-.08 3.96m.26 7.9l.35 1.77.6 2.07m2.66 7.44l1.4 3.7m2.93 7.35l1.5 3.65m3.2 7.24l.5 1.1 1.3 2.42m4 6.83l.72 1.2 1.47 2.08m4.75 6.32l1.67 2.08.87.95m5.4 5.77l2.83 2.76m5.94 5.23l1.4 1.2 1.68 1.28m6.35 4.7l3.3 2.2m6.7 4.2l3.42 1.98m7 3.66l3.55 1.77m7.27 3.1l1.37.6 2.33.83m7.5 2.5l.96.3 2.86.68m7.74 1.66l3.88.77m7.8 1.23l3.92.6m7.85 1l3.93.44m7.87.8l3.94.28m7.88.58l.37.02 3.6.1m7.9.26l2.2.08 1.75-.02m7.9-.1h2.48l1.48-.1m7.9-.4l1.18-.07 2.77-.27m7.87-.8l3.92-.55m7.8-1.3l1.63-.3 2.24-.5m7.68-1.9l1.42-.37 2.37-.73m7.46-2.63l2.72-1.1.92-.44m7.04-3.6l.57-.34 1.5-1 1.2-.88m5.96-5.2l1.7-1.7 1.03-1.17m5-6.12l.9-1.2 1.4-2.02m4.3-6.63l.04-.07 1.93-3.36m3.75-6.96l1.4-2.7.4-.83m3.34-7.16l.48-1.06 1.07-2.57m3.05-7.3l.7-1.7.74-1.98m2.74-7.42l1.36-3.7m2.5-7.5l1.22-3.78m2.43-7.53l1.1-3.45.08-.33m2.1-7.63l1.06-3.82m2.1-7.63l1.05-3.8m1.97-7.67l.87-3.86m1.74-7.7l.87-3.87m1.75-7.72l.87-3.86m1.74-7.7l.88-3.87m1.75-7.72l.87-3.86m1.74-7.72l.44-1.92M111 318.72l-10.9-16.76-9.43 17.65M419.77 241l.23-1" stroke="#c92d39" stroke-width="2" fill="none"/><path d="M220 306c0-3.3 2.7-6 6-6h88c3.3 0 6 2.7 6 6v100.67c0 3.3-2.7 6-6 6h-88c-3.3 0-6-2.7-6-6z" stroke="#000" stroke-opacity="0" stroke-width="3" fill="#fff" fill-opacity="0"/><use xlink:href="#e" transform="matrix(1,0,0,1,225,305) translate(8.509259259259267 34.97569444444444)"/><use xlink:href="#f" transform="matrix(1,0,0,1,225,305) translate(16.243827160493833 34.97569444444444)"/><use xlink:href="#g" transform="matrix(1,0,0,1,225,305) translate(29.638888888888893 34.97569444444444)"/><use xlink:href="#h" transform="matrix(1,0,0,1,225,305) translate(56.42901234567901 34.97569444444444)"/><use xlink:href="#i" transform="matrix(1,0,0,1,225,305) translate(10.64814814814816 53.64236111111111)"/><use xlink:href="#j" transform="matrix(1,0,0,1,225,305) translate(23.611111111111118 53.64236111111111)"/><use xlink:href="#h" transform="matrix(1,0,0,1,225,305) translate(54.29012345679012 53.64236111111111)"/><use xlink:href="#k" transform="matrix(1,0,0,1,225,305) translate(5.765432098765444 72.30902777777777)"/><use xlink:href="#f" transform="matrix(1,0,0,1,225,305) translate(18.166666666666675 72.30902777777777)"/><use xlink:href="#l" transform="matrix(1,0,0,1,225,305) translate(31.561728395061735 72.30902777777777)"/><path d="M80 26c0-3.3 2.7-6 6-6h28c3.3 0 6 2.7 6 6v8c0 3.3-2.7 6-6 6H86c-3.3 0-6-2.7-6-6z" stroke="#000" stroke-opacity="0" stroke-width="3" fill="#fff" fill-opacity="0"/><use xlink:href="#m" transform="matrix(1,0,0,1,85,25) translate(-4.012345679012341 12.444444444444443)"/><path d="M100 41v2.92m0 3.9v5.85m0 3.9v5.85m0 3.9v5.86m0 3.9v5.84m0 3.9v5.86m0 3.9v5.84m0 3.9v5.86m0 3.9V119M100 41.03V40M100 118.97V120" stroke="#0c7cba" stroke-width="2" fill="none"/><path d="M60 46c0-3.3 2.7-6 6-6h28c3.3 0 6 2.7 6 6v8c0 3.3-2.7 6-6 6H66c-3.3 0-6-2.7-6-6z" stroke="#000" stroke-opacity="0" stroke-width="3" fill="#fff" fill-opacity="0"/><g><use xlink:href="#n" transform="matrix(1,0,0,1,65,45) translate(10.556640625 13.117404513888886)"/></g><path d="M60 126c0-3.3 2.7-6 6-6h28c3.3 0 6 2.7 6 6v8c0 3.3-2.7 6-6 6H66c-3.3 0-6-2.7-6-6z" stroke="#000" stroke-opacity="0" stroke-width="3" fill="#fff" fill-opacity="0"/><g><use xlink:href="#o" transform="matrix(1,0,0,1,65,125) translate(10.679012345679013 12.444444444444443)"/></g><path d="M80 286c0-3.3 2.7-6 6-6h28c3.3 0 6 2.7 6 6v8c0 3.3-2.7 6-6 6H86c-3.3 0-6-2.7-6-6z" stroke="#000" stroke-opacity="0" stroke-width="3" fill="#fff" fill-opacity="0"/><g><use xlink:href="#p" transform="matrix(1,0,0,1,85,285) translate(13.29320987654321 12.444444444444443)"/></g><defs><path fill="#333" d="M194-70c0 46-34 64-81 66v29H91V-4C42-5 12-27 4-67l30-6c5 28 25 41 57 43v-87c-38-9-76-20-76-67 1-42 33-58 76-59v-23h22v23c45 0 67 20 76 56l-31 6c-5-23-18-35-45-37v78c41 10 81 20 81 70zm-81 41c51 7 71-66 19-77-6-2-12-4-19-6v83zM91-219c-47-6-63 57-18 69 6 2 12 3 18 5v-74" id="q"/><path fill="#333" d="M110-160c48 1 74 30 74 79 0 53-28 85-80 85-65 0-83-55-86-122-5-90 50-162 133-122 14 7 22 21 27 39l-31 6c-5-40-67-38-82-6-9 19-15 44-15 74 11-20 30-34 60-33zm-7 138c34 0 49-23 49-58s-16-56-50-56c-29 0-50 16-49 49 1 36 15 65 50 65" id="r"/><path fill="#333" d="M101-251c68 0 85 55 85 127S166 4 100 4C33 4 14-52 14-124c0-73 17-127 87-127zm-1 229c47 0 54-49 54-102s-4-102-53-102c-51 0-55 48-55 102 0 53 5 102 54 102" id="s"/><g id="a"><use transform="matrix(0.04320987654320987,0,0,0.04320987654320987,0,0)" xlink:href="#q"/><use transform="matrix(0.04320987654320987,0,0,0.04320987654320987,8.641975308641973,0)" xlink:href="#r"/><use transform="matrix(0.04320987654320987,0,0,0.04320987654320987,17.283950617283946,0)" xlink:href="#s"/><use transform="matrix(0.04320987654320987,0,0,0.04320987654320987,25.925925925925917,0)" xlink:href="#s"/></g><path fill="#333" d="M54-142c48-35 137-8 131 61C196 18 31 33 14-55l32-4c7 23 22 37 52 37 35-1 51-22 54-58 4-55-73-65-99-34H22l8-134h141v27H59" id="t"/><path fill="#333" d="M126-127c33 6 58 20 58 59 0 88-139 92-164 29-3-8-5-16-6-25l32-3c6 27 21 44 54 44 32 0 52-15 52-46 0-38-36-46-79-43v-28c39 1 72-4 72-42 0-27-17-43-46-43-28 0-47 15-49 41l-32-3c6-42 35-63 81-64 48-1 79 21 79 65 0 36-21 52-52 59" id="u"/><path fill="#333" d="M33 0v-38h34V0H33" id="v"/><path fill="#333" d="M155-56V0h-30v-56H8v-25l114-167h33v167h35v25h-35zm-30-156c-27 46-58 90-88 131h88v-131" id="w"/><path fill="#333" d="M101-251c82-7 93 87 43 132L82-64C71-53 59-42 53-27h129V0H18c2-99 128-94 128-182 0-28-16-43-45-43s-46 15-49 41l-32-3c6-41 34-60 81-64" id="x"/><g id="b"><use transform="matrix(0.04320987654320987,0,0,0.04320987654320987,0,0)" xlink:href="#q"/><use transform="matrix(0.04320987654320987,0,0,0.04320987654320987,8.641975308641973,0)" xlink:href="#t"/><use transform="matrix(0.04320987654320987,0,0,0.04320987654320987,17.283950617283946,0)" xlink:href="#u"/><use transform="matrix(0.04320987654320987,0,0,0.04320987654320987,25.925925925925917,0)" xlink:href="#t"/><use transform="matrix(0.04320987654320987,0,0,0.04320987654320987,34.56790123456789,0)" xlink:href="#v"/><use transform="matrix(0.04320987654320987,0,0,0.04320987654320987,38.88888888888888,0)" xlink:href="#w"/><use transform="matrix(0.04320987654320987,0,0,0.04320987654320987,47.53086419753085,0)" xlink:href="#x"/></g><path fill="#333" d="M64 0c3-98 48-159 88-221H18v-27h164v26C143-157 98-101 97 0H64" id="y"/><path fill="#333" d="M134-131c28 9 52 24 51 62-1 50-34 73-85 73S17-19 16-69c0-36 21-54 49-61-75-25-45-126 34-121 46 3 78 18 79 63 0 33-17 51-44 57zm-34-11c31 1 46-15 46-44 0-28-17-43-47-42-29 0-46 13-45 42 1 28 16 44 46 44zm1 122c35 0 51-18 51-52 0-30-18-46-53-46-33 0-51 17-51 47 0 34 19 51 53 51" id="z"/><g id="c"><use transform="matrix(0.04320987654320987,0,0,0.04320987654320987,0,0)" xlink:href="#q"/><use transform="matrix(0.04320987654320987,0,0,0.04320987654320987,8.641975308641973,0)" xlink:href="#w"/><use transform="matrix(0.04320987654320987,0,0,0.04320987654320987,17.283950617283946,0)" xlink:href="#y"/><use transform="matrix(0.04320987654320987,0,0,0.04320987654320987,25.925925925925917,0)" xlink:href="#s"/><use transform="matrix(0.04320987654320987,0,0,0.04320987654320987,34.56790123456789,0)" xlink:href="#v"/><use transform="matrix(0.04320987654320987,0,0,0.04320987654320987,38.88888888888888,0)" xlink:href="#z"/><use transform="matrix(0.04320987654320987,0,0,0.04320987654320987,47.53086419753085,0)" xlink:href="#w"/></g><path fill="#333" d="M27 0v-27h64v-190l-56 39v-29l58-41h29v221h61V0H27" id="A"/><path fill="#333" d="M99-251c64 0 84 50 84 122C183-37 130 33 47-8c-14-7-20-23-25-40l30-5c6 39 69 39 84 7 9-19 16-44 16-74-10 22-31 35-62 35-49 0-73-33-73-83 0-54 28-83 82-83zm-1 141c31-1 51-18 51-49 0-36-14-67-51-67-34 0-49 23-49 58 0 34 15 58 49 58" id="B"/><g id="d"><use transform="matrix(0.04320987654320987,0,0,0.04320987654320987,0,0)" xlink:href="#q"/><use transform="matrix(0.04320987654320987,0,0,0.04320987654320987,8.641975308641973,0)" xlink:href="#A"/><use transform="matrix(0.04320987654320987,0,0,0.04320987654320987,17.283950617283946,0)" xlink:href="#w"/><use transform="matrix(0.04320987654320987,0,0,0.04320987654320987,25.925925925925917,0)" xlink:href="#y"/><use transform="matrix(0.04320987654320987,0,0,0.04320987654320987,34.56790123456789,0)" xlink:href="#v"/><use transform="matrix(0.04320987654320987,0,0,0.04320987654320987,38.88888888888888,0)" xlink:href="#B"/><use transform="matrix(0.04320987654320987,0,0,0.04320987654320987,47.53086419753085,0)" xlink:href="#w"/></g><path fill="#333" d="M24-231v-30h32v30H24zM24 0v-190h32V0H24" id="C"/><use transform="matrix(0.04320987654320987,0,0,0.04320987654320987,0,0)" xlink:href="#C" id="e"/><path fill="#333" d="M18-150v-26h174v26H18zm0 90v-26h174v26H18" id="D"/><use transform="matrix(0.04320987654320987,0,0,0.04320987654320987,0,0)" xlink:href="#D" id="f"/><path fill="#333" d="M252-156c43 0 55 33 55 80 0 46-13 78-56 78-42 0-55-33-55-78 0-48 12-80 56-80zM93 0H65l162-248h28zM13-171c-1-47 13-79 56-79s55 33 55 79-13 79-55 79c-43 0-56-33-56-79zM251-17c28 0 30-29 30-59 0-31-1-60-29-60-29 0-31 29-31 60 0 29 2 59 30 59zM69-112c27 0 28-30 29-59 0-31-1-60-29-60-29 0-30 30-30 60s2 59 30 59" id="E"/><g id="g"><use transform="matrix(0.04320987654320987,0,0,0.04320987654320987,0,0)" xlink:href="#u"/><use transform="matrix(0.04320987654320987,0,0,0.04320987654320987,8.641975308641973,0)" xlink:href="#E"/></g><path fill="#333" d="M115-194c55 1 70 41 70 98S169 2 115 4C84 4 66-9 55-30l1 105H24l-1-265h31l2 30c10-21 28-34 59-34zm-8 174c40 0 45-34 45-75s-6-73-45-74c-42 0-51 32-51 76 0 43 10 73 51 73" id="F"/><path fill="#333" d="M141-36C126-15 110 5 73 4 37 3 15-17 15-53c-1-64 63-63 125-63 3-35-9-54-41-54-24 1-41 7-42 31l-33-3c5-37 33-52 76-52 45 0 72 20 72 64v82c-1 20 7 32 28 27v20c-31 9-61-2-59-35zM48-53c0 20 12 33 32 33 41-3 63-29 60-74-43 2-92-5-92 41" id="G"/><path fill="#333" d="M108 0H70L1-190h34L89-25l56-165h34" id="H"/><g id="h"><use transform="matrix(0.04320987654320987,0,0,0.04320987654320987,0,0)" xlink:href="#F"/><use transform="matrix(0.04320987654320987,0,0,0.04320987654320987,8.641975308641973,0)" xlink:href="#G"/><use transform="matrix(0.04320987654320987,0,0,0.04320987654320987,17.283950617283946,0)" xlink:href="#H"/></g><path fill="#333" d="M117-194c89-4 53 116 60 194h-32v-121c0-31-8-49-39-48C34-167 62-67 57 0H25l-1-190h30c1 10-1 24 2 32 11-22 29-35 61-36" id="I"/><use transform="matrix(0.04320987654320987,0,0,0.04320987654320987,0,0)" xlink:href="#I" id="i"/><g id="j"><use transform="matrix(0.04320987654320987,0,0,0.04320987654320987,0,0)" xlink:href="#D"/><use transform="matrix(0.04320987654320987,0,0,0.04320987654320987,9.074074074074073,0)" xlink:href="#A"/><use transform="matrix(0.04320987654320987,0,0,0.04320987654320987,17.716049382716044,0)" xlink:href="#s"/></g><path fill="#333" d="M30 0v-248h33v221h125V0H30" id="J"/><use transform="matrix(0.04320987654320987,0,0,0.04320987654320987,0,0)" xlink:href="#J" id="k"/><path fill="#333" d="M16-82v-28h88v28H16" id="K"/><g id="l"><use transform="matrix(0.04320987654320987,0,0,0.04320987654320987,0,0)" xlink:href="#K"/><use transform="matrix(0.04320987654320987,0,0,0.04320987654320987,5.141975308641975,0)" xlink:href="#q"/><use transform="matrix(0.04320987654320987,0,0,0.04320987654320987,13.783950617283947,0)" xlink:href="#r"/><use transform="matrix(0.04320987654320987,0,0,0.04320987654320987,22.42592592592592,0)" xlink:href="#w"/><use transform="matrix(0.04320987654320987,0,0,0.04320987654320987,31.06790123456789,0)" xlink:href="#v"/><use transform="matrix(0.04320987654320987,0,0,0.04320987654320987,35.38888888888888,0)" xlink:href="#t"/><use transform="matrix(0.04320987654320987,0,0,0.04320987654320987,44.03086419753085,0)" xlink:href="#z"/></g><path fill="#333" d="M137 0h-34L2-248h35l83 218 83-218h36" id="L"/><path fill="#333" d="M30-248c87 1 191-15 191 75 0 78-77 80-158 76V0H30v-248zm33 125c57 0 124 11 124-50 0-59-68-47-124-48v98" id="M"/><path fill="#333" d="M103-251c84 0 111 97 45 133-19 10-37 24-39 52H78c0-63 77-55 77-114 0-30-21-42-52-43-32 0-53 17-56 46l-32-2c7-45 34-72 88-72zM77 0v-35h34V0H77" id="N"/><g id="m"><use transform="matrix(0.04320987654320987,0,0,0.04320987654320987,0,0)" xlink:href="#L"/><use transform="matrix(0.04320987654320987,0,0,0.04320987654320987,10.370370370370368,0)" xlink:href="#M"/><use transform="matrix(0.04320987654320987,0,0,0.04320987654320987,20.740740740740737,0)" xlink:href="#q"/><use transform="matrix(0.04320987654320987,0,0,0.04320987654320987,29.382716049382708,0)" xlink:href="#N"/></g><path fill="#333" d="M162-956h172c27-126 45-202 56-228 43-96 120-168 248-168 93 0 156 41 187 124l-120 48c-9-29-32-43-71-43-58 0-100 34-127 101-7 17-21 72-40 166h195l-27 130H440L230 182c-17 98-104 218-210 216l5-129c42-28 69-69 80-122l202-973H135" id="O"/><g id="n"><use transform="matrix(0.007595486111111109,0,0,0.007595486111111109,0,0)" xlink:href="#O"/><use transform="matrix(0.007595486111111109,0,0,0.007595486111111109,4.443359374999999,0)" xlink:href="#O"/></g><use transform="matrix(0.04320987654320987,0,0,0.04320987654320987,0,0)" xlink:href="#s" id="o"/><use transform="matrix(0.04320987654320987,0,0,0.04320987654320987,0,0)" xlink:href="#C" id="p"/></defs></g></svg>