<svg xmlns="http://www.w3.org/2000/svg" xmlns:xlink="http://www.w3.org/1999/xlink" xmlns:lucid="lucid" width="471" height="433.18"><g transform="translate(-40 0)" lucid:page-tab-id="0_0"><path d="M101 100h360.5M101.03 100H100" stroke="#5e5e5e" stroke-width="2" fill="none"/><path d="M476.76 100l-14.26 4.64v-9.28z" stroke="#5e5e5e" stroke-width="2" fill="#5e5e5e"/><path d="M100 101v40.5M100 101.03V100" stroke="#5e5e5e" stroke-width="2" fill="none"/><path d="M100 156.76l-4.64-14.26h9.28z" stroke="#5e5e5e" stroke-width="2" fill="#5e5e5e"/><path d="M160 121v40.5M160 121.03V120" stroke="#5e5e5e" stroke-width="2" fill="none"/><path d="M160 176.76l-4.64-14.26h9.28z" stroke="#5e5e5e" stroke-width="2" fill="#5e5e5e"/><path d="M240 121v60.5M240 121.03V120" stroke="#5e5e5e" stroke-width="2" fill="none"/><path d="M240 196.76l-4.64-14.26h9.28z" stroke="#5e5e5e" stroke-width="2" fill="#5e5e5e"/><path d="M320 121v80.5M320 121.03V120" stroke="#5e5e5e" stroke-width="2" fill="none"/><path d="M320 216.76l-4.64-14.26h9.28z" stroke="#5e5e5e" stroke-width="2" fill="#5e5e5e"/><path d="M420 121v100.5M420 121.03V120" stroke="#5e5e5e" stroke-width="2" fill="none"/><path d="M420 236.76l-4.64-14.26h9.28z" stroke="#5e5e5e" stroke-width="2" fill="#5e5e5e"/><path d="M140 206c0-3.3 2.7-6 6-6h28c3.3 0 6 2.7 6 6v8c0 3.3-2.7 6-6 6h-28c-3.3 0-6-2.7-6-6z" stroke="#000" stroke-opacity="0" stroke-width="3" fill="#fff" fill-opacity="0"/><use xlink:href="#a" transform="matrix(1,0,0,1,145,205) translate(-2.2839506172839457 12.444444444444443)"/><path d="M200 226c0-3.3 2.7-6 6-6h68c3.3 0 6 2.7 6 6v8c0 3.3-2.7 6-6 6h-68c-3.3 0-6-2.7-6-6z" stroke="#000" stroke-opacity="0" stroke-width="3" fill="#fff" fill-opacity="0"/><use xlink:href="#b" transform="matrix(1,0,0,1,205,225) translate(6.697530864197539 12.444444444444443)"/><use xlink:href="#c" transform="matrix(1,0,0,1,205,225) translate(45.58641975308642 12.444444444444443)"/><path d="M280 246c0-3.3 2.7-6 6-6h68c3.3 0 6 2.7 6 6v8c0 3.3-2.7 6-6 6h-68c-3.3 0-6-2.7-6-6z" stroke="#000" stroke-opacity="0" stroke-width="3" fill="#fff" fill-opacity="0"/><use xlink:href="#b" transform="matrix(1,0,0,1,285,245) translate(2.3765432098765515 12.444444444444443)"/><use xlink:href="#d" transform="matrix(1,0,0,1,285,245) translate(41.26543209876543 12.444444444444443)"/><path d="M380 266c0-3.3 2.7-6 6-6h68c3.3 0 6 2.7 6 6v8c0 3.3-2.7 6-6 6h-68c-3.3 0-6-2.7-6-6z" stroke="#000" stroke-opacity="0" stroke-width="3" fill="#fff" fill-opacity="0"/><use xlink:href="#b" transform="matrix(1,0,0,1,385,265) translate(2.3765432098765515 12.444444444444443)"/><use xlink:href="#e" transform="matrix(1,0,0,1,385,265) translate(41.26543209876543 12.444444444444443)"/><path d="M140.97 180.26l298.06 79.48M141 180.26l-1-.26M439 259.74l1 .26" stroke="#0c7cba" stroke-width="2" fill="none"/><path d="M100.1 201.82l.1 2m.36 8.02l.04 4.02m.1 8.03l.03 4m.02 8.03v4.02m0 8.03V252m0 8.03l-.02 4m0 8.04v4.02m.05 8.02l.22 4m.45 8.02l.04.78.3 3.22m.83 8l.56 3.97m1.3 7.93l.42 2.3.37 1.63m1.93 7.8l.43 1.6.7 2.24m2.7 7.56l.53 1.3 1.1 2.38m3.6 7.17l.5.95 1.55 2.5m4.47 6.68l.9 1.27 1.53 1.92m5.2 6.1l2.27 2.5.46.46m5.8 5.55l3.04 2.62m6.28 5l3.05 2.3.16.1m6.7 4.46l.93.64 2.5 1.45m6.98 3.96l3.6 1.8m7.26 3.42l3.7 1.58m7.5 2.8l1.46.53.75.23 1.62.46m7.8 1.9l3.93.78m7.9 1.43l3.97.63m7.95 1.16l3.98.45m7.98.9l.93.12 3.08.22m8.02.57l3.83.28h.18m8.03.26l4 .13m8.04-.02l4-.04m8.03-.35l4-.2m8-.76l1.26-.12 2.72-.37m7.94-1.2l3.95-.72m7.84-1.82l3.73-1 .14-.03m7.63-2.54l1.08-.4 2.66-1.07m7.26-3.43l3.5-1.95m6.8-4.3l2.15-1.5 1.1-.83m6.32-4.97l1.4-1.17 1.6-1.46m5.82-5.54l1.63-1.62 1.16-1.27m5.33-6l2.57-3.1m4.86-6.38l.05-.07 2.24-3.24m4.4-6.7l2.12-3.4m3.97-7l1.18-2.1.72-1.43m3.6-7.18l.02-.05 1.6-3.63m3.17-7.38l1.47-3.74m2.72-7.55l1.27-3.8m2.2-7.73l.5-1.95M110.93 218.76l-10.85-16.8-9.5 17.6M419.75 301l.25-1" stroke="#c92d39" stroke-width="2" fill="none"/><path d="M220 286c0-3.3 2.7-6 6-6h68c3.3 0 6 2.7 6 6v72.67c0 3.3-2.7 6-6 6h-68c-3.3 0-6-2.7-6-6z" stroke="#000" stroke-opacity="0" stroke-width="3" fill="#fff" fill-opacity="0"/><use xlink:href="#f" transform="matrix(1,0,0,1,225,285) translate(0.6697530864197603 12.444444444444443)"/><use xlink:href="#g" transform="matrix(1,0,0,1,225,285) translate(8.404320987654327 12.444444444444443)"/><use xlink:href="#h" transform="matrix(1,0,0,1,225,285) translate(21.799382716049386 12.444444444444443)"/><use xlink:href="#i" transform="matrix(1,0,0,1,225,285) translate(4.969135802469143 31.111111111111107)"/><use xlink:href="#g" transform="matrix(1,0,0,1,225,285) translate(17.9320987654321 31.111111111111107)"/><use xlink:href="#j" transform="matrix(1,0,0,1,225,285) translate(31.32716049382716 31.111111111111107)"/><use xlink:href="#k" transform="matrix(1,0,0,1,225,285) translate(0.2376543209876587 49.77777777777777)"/><use xlink:href="#g" transform="matrix(1,0,0,1,225,285) translate(21.799382716049383 49.77777777777777)"/><use xlink:href="#l" transform="matrix(1,0,0,1,225,285) translate(35.19444444444444 49.77777777777777)"/><use xlink:href="#m" transform="matrix(1,0,0,1,225,285) translate(13.45987654320988 68.44444444444443)"/><use xlink:href="#g" transform="matrix(1,0,0,1,225,285) translate(25.86111111111111 68.44444444444443)"/><use xlink:href="#n" transform="matrix(1,0,0,1,225,285) translate(39.25617283950617 68.44444444444443)"/><path d="M120 86c0-3.3 2.7-6 6-6h28c3.3 0 6 2.7 6 6v8c0 3.3-2.7 6-6 6h-28c-3.3 0-6-2.7-6-6z" stroke="#000" stroke-opacity="0" stroke-width="3" fill="#fff" fill-opacity="0"/><g><use xlink:href="#o" transform="matrix(1,0,0,1,125,85) translate(-4.012345679012341 12.444444444444443)"/></g><path d="M100 21v2.92m0 3.9v5.85m0 3.9v5.85m0 3.9v5.85m0 3.9v5.85m0 3.9v5.86m0 3.9v5.84m0 3.9v5.86m0 3.9V99M100 21.03V20M100 98.97V100" stroke="#0c7cba" stroke-width="2" fill="none"/><path d="M60 26c0-3.3 2.7-6 6-6h28c3.3 0 6 2.7 6 6v8c0 3.3-2.7 6-6 6H66c-3.3 0-6-2.7-6-6z" stroke="#000" stroke-opacity="0" stroke-width="3" fill="#fff" fill-opacity="0"/><g><use xlink:href="#p" transform="matrix(1,0,0,1,65,25) translate(10.556640625 13.117404513888886)"/></g><defs><path fill="#333" d="M194-70c0 46-34 64-81 66v29H91V-4C42-5 12-27 4-67l30-6c5 28 25 41 57 43v-87c-38-9-76-20-76-67 1-42 33-58 76-59v-23h22v23c45 0 67 20 76 56l-31 6c-5-23-18-35-45-37v78c41 10 81 20 81 70zm-81 41c51 7 71-66 19-77-6-2-12-4-19-6v83zM91-219c-47-6-63 57-18 69 6 2 12 3 18 5v-74" id="q"/><path fill="#333" d="M110-160c48 1 74 30 74 79 0 53-28 85-80 85-65 0-83-55-86-122-5-90 50-162 133-122 14 7 22 21 27 39l-31 6c-5-40-67-38-82-6-9 19-15 44-15 74 11-20 30-34 60-33zm-7 138c34 0 49-23 49-58s-16-56-50-56c-29 0-50 16-49 49 1 36 15 65 50 65" id="r"/><path fill="#333" d="M101-251c68 0 85 55 85 127S166 4 100 4C33 4 14-52 14-124c0-73 17-127 87-127zm-1 229c47 0 54-49 54-102s-4-102-53-102c-51 0-55 48-55 102 0 53 5 102 54 102" id="s"/><g id="a"><use transform="matrix(0.04320987654320987,0,0,0.04320987654320987,0,0)" xlink:href="#q"/><use transform="matrix(0.04320987654320987,0,0,0.04320987654320987,8.641975308641973,0)" xlink:href="#r"/><use transform="matrix(0.04320987654320987,0,0,0.04320987654320987,17.283950617283946,0)" xlink:href="#s"/><use transform="matrix(0.04320987654320987,0,0,0.04320987654320987,25.925925925925917,0)" xlink:href="#s"/></g><g id="b"><use transform="matrix(0.04320987654320987,0,0,0.04320987654320987,0,0)" xlink:href="#q"/><use transform="matrix(0.04320987654320987,0,0,0.04320987654320987,8.641975308641973,0)" xlink:href="#r"/><use transform="matrix(0.04320987654320987,0,0,0.04320987654320987,17.283950617283946,0)" xlink:href="#s"/><use transform="matrix(0.04320987654320987,0,0,0.04320987654320987,25.925925925925917,0)" xlink:href="#s"/></g><path fill="#333" d="M118-107v75H92v-75H18v-26h74v-75h26v75h74v26h-74" id="t"/><path fill="#333" d="M30 0v-248h33v221h125V0H30" id="u"/><g id="c"><use transform="matrix(0.04320987654320987,0,0,0.04320987654320987,0,0)" xlink:href="#t"/><use transform="matrix(0.04320987654320987,0,0,0.04320987654320987,9.074074074074073,0)" xlink:href="#u"/></g><path fill="#333" d="M101-251c82-7 93 87 43 132L82-64C71-53 59-42 53-27h129V0H18c2-99 128-94 128-182 0-28-16-43-45-43s-46 15-49 41l-32-3c6-41 34-60 81-64" id="v"/><g id="d"><use transform="matrix(0.04320987654320987,0,0,0.04320987654320987,0,0)" xlink:href="#t"/><use transform="matrix(0.04320987654320987,0,0,0.04320987654320987,9.074074074074073,0)" xlink:href="#v"/><use transform="matrix(0.04320987654320987,0,0,0.04320987654320987,17.716049382716044,0)" xlink:href="#u"/></g><path fill="#333" d="M64 0c3-98 48-159 88-221H18v-27h164v26C143-157 98-101 97 0H64" id="w"/><g id="e"><use transform="matrix(0.04320987654320987,0,0,0.04320987654320987,0,0)" xlink:href="#t"/><use transform="matrix(0.04320987654320987,0,0,0.04320987654320987,9.074074074074073,0)" xlink:href="#w"/><use transform="matrix(0.04320987654320987,0,0,0.04320987654320987,17.716049382716044,0)" xlink:href="#u"/></g><path fill="#333" d="M24-231v-30h32v30H24zM24 0v-190h32V0H24" id="x"/><use transform="matrix(0.04320987654320987,0,0,0.04320987654320987,0,0)" xlink:href="#x" id="f"/><path fill="#333" d="M18-150v-26h174v26H18zm0 90v-26h174v26H18" id="y"/><use transform="matrix(0.04320987654320987,0,0,0.04320987654320987,0,0)" xlink:href="#y" id="g"/><path fill="#333" d="M126-127c33 6 58 20 58 59 0 88-139 92-164 29-3-8-5-16-6-25l32-3c6 27 21 44 54 44 32 0 52-15 52-46 0-38-36-46-79-43v-28c39 1 72-4 72-42 0-27-17-43-46-43-28 0-47 15-49 41l-32-3c6-42 35-63 81-64 48-1 79 21 79 65 0 36-21 52-52 59" id="z"/><path fill="#333" d="M252-156c43 0 55 33 55 80 0 46-13 78-56 78-42 0-55-33-55-78 0-48 12-80 56-80zM93 0H65l162-248h28zM13-171c-1-47 13-79 56-79s55 33 55 79-13 79-55 79c-43 0-56-33-56-79zM251-17c28 0 30-29 30-59 0-31-1-60-29-60-29 0-31 29-31 60 0 29 2 59 30 59zM69-112c27 0 28-30 29-59 0-31-1-60-29-60-29 0-30 30-30 60s2 59 30 59" id="A"/><path fill="#333" d="M115-194c55 1 70 41 70 98S169 2 115 4C84 4 66-9 55-30l1 105H24l-1-265h31l2 30c10-21 28-34 59-34zm-8 174c40 0 45-34 45-75s-6-73-45-74c-42 0-51 32-51 76 0 43 10 73 51 73" id="B"/><path fill="#333" d="M141-36C126-15 110 5 73 4 37 3 15-17 15-53c-1-64 63-63 125-63 3-35-9-54-41-54-24 1-41 7-42 31l-33-3c5-37 33-52 76-52 45 0 72 20 72 64v82c-1 20 7 32 28 27v20c-31 9-61-2-59-35zM48-53c0 20 12 33 32 33 41-3 63-29 60-74-43 2-92-5-92 41" id="C"/><path fill="#333" d="M108 0H70L1-190h34L89-25l56-165h34" id="D"/><g id="h"><use transform="matrix(0.04320987654320987,0,0,0.04320987654320987,0,0)" xlink:href="#z"/><use transform="matrix(0.04320987654320987,0,0,0.04320987654320987,8.641975308641973,0)" xlink:href="#A"/><use transform="matrix(0.04320987654320987,0,0,0.04320987654320987,22.469135802469133,0)" xlink:href="#B"/><use transform="matrix(0.04320987654320987,0,0,0.04320987654320987,31.11111111111111,0)" xlink:href="#C"/><use transform="matrix(0.04320987654320987,0,0,0.04320987654320987,39.75308641975308,0)" xlink:href="#D"/></g><path fill="#333" d="M117-194c89-4 53 116 60 194h-32v-121c0-31-8-49-39-48C34-167 62-67 57 0H25l-1-190h30c1 10-1 24 2 32 11-22 29-35 61-36" id="E"/><use transform="matrix(0.04320987654320987,0,0,0.04320987654320987,0,0)" xlink:href="#E" id="i"/><path fill="#333" d="M134-131c28 9 52 24 51 62-1 50-34 73-85 73S17-19 16-69c0-36 21-54 49-61-75-25-45-126 34-121 46 3 78 18 79 63 0 33-17 51-44 57zm-34-11c31 1 46-15 46-44 0-28-17-43-47-42-29 0-46 13-45 42 1 28 16 44 46 44zm1 122c35 0 51-18 51-52 0-30-18-46-53-46-33 0-51 17-51 47 0 34 19 51 53 51" id="F"/><g id="j"><use transform="matrix(0.04320987654320987,0,0,0.04320987654320987,0,0)" xlink:href="#F"/><use transform="matrix(0.04320987654320987,0,0,0.04320987654320987,8.641975308641973,0)" xlink:href="#B"/><use transform="matrix(0.04320987654320987,0,0,0.04320987654320987,17.283950617283946,0)" xlink:href="#C"/><use transform="matrix(0.04320987654320987,0,0,0.04320987654320987,25.925925925925917,0)" xlink:href="#D"/></g><path fill="#333" d="M233-177c-1 41-23 64-60 70L243 0h-38l-65-103H63V0H30v-248c88 3 205-21 203 71zM63-129c60-2 137 13 137-47 0-61-80-42-137-45v92" id="G"/><path fill="#333" d="M27 0v-27h64v-190l-56 39v-29l58-41h29v221h61V0H27" id="H"/><g id="k"><use transform="matrix(0.04320987654320987,0,0,0.04320987654320987,0,0)" xlink:href="#G"/><use transform="matrix(0.030246913580246906,0,0,0.030246913580246906,11.191358024691356,2.177777777777777)" xlink:href="#H"/></g><g id="l"><use transform="matrix(0.04320987654320987,0,0,0.04320987654320987,0,0)" xlink:href="#q"/><use transform="matrix(0.04320987654320987,0,0,0.04320987654320987,8.641975308641973,0)" xlink:href="#r"/><use transform="matrix(0.04320987654320987,0,0,0.04320987654320987,17.283950617283946,0)" xlink:href="#s"/><use transform="matrix(0.04320987654320987,0,0,0.04320987654320987,25.925925925925917,0)" xlink:href="#s"/></g><use transform="matrix(0.04320987654320987,0,0,0.04320987654320987,0,0)" xlink:href="#u" id="m"/><path fill="#333" d="M103-251c84 0 111 97 45 133-19 10-37 24-39 52H78c0-63 77-55 77-114 0-30-21-42-52-43-32 0-53 17-56 46l-32-2c7-45 34-72 88-72zM77 0v-35h34V0H77" id="I"/><g id="n"><use transform="matrix(0.04320987654320987,0,0,0.04320987654320987,0,0)" xlink:href="#q"/><use transform="matrix(0.04320987654320987,0,0,0.04320987654320987,8.641975308641973,0)" xlink:href="#I"/></g><path fill="#333" d="M137 0h-34L2-248h35l83 218 83-218h36" id="J"/><path fill="#333" d="M30-248c87 1 191-15 191 75 0 78-77 80-158 76V0H30v-248zm33 125c57 0 124 11 124-50 0-59-68-47-124-48v98" id="K"/><g id="o"><use transform="matrix(0.04320987654320987,0,0,0.04320987654320987,0,0)" xlink:href="#J"/><use transform="matrix(0.04320987654320987,0,0,0.04320987654320987,10.370370370370368,0)" xlink:href="#K"/><use transform="matrix(0.04320987654320987,0,0,0.04320987654320987,20.740740740740737,0)" xlink:href="#q"/><use transform="matrix(0.04320987654320987,0,0,0.04320987654320987,29.382716049382708,0)" xlink:href="#I"/></g><path fill="#333" d="M162-956h172c27-126 45-202 56-228 43-96 120-168 248-168 93 0 156 41 187 124l-120 48c-9-29-32-43-71-43-58 0-100 34-127 101-7 17-21 72-40 166h195l-27 130H440L230 182c-17 98-104 218-210 216l5-129c42-28 69-69 80-122l202-973H135" id="L"/><g id="p"><use transform="matrix(0.007595486111111109,0,0,0.007595486111111109,0,0)" xlink:href="#L"/><use transform="matrix(0.007595486111111109,0,0,0.007595486111111109,4.443359374999999,0)" xlink:href="#L"/></g></defs></g></svg>