<svg xmlns="http://www.w3.org/2000/svg" xmlns:xlink="http://www.w3.org/1999/xlink" xmlns:lucid="lucid" width="826.83" height="456.73"><g transform="translate(-385.10644293504265 -102.19821214100557)" lucid:page-tab-id="0_0"><path d="M0 0h1870.4v1323.2H0z" fill="#fff"/><path d="M542.56 277.2h586.36M542.58 277.2h-1.02" stroke="#5e5e5e" stroke-width="2" fill="none"/><path d="M1144.2 277.2l-14.28 4.63v-9.27z" stroke="#5e5e5e" stroke-width="2" fill="#5e5e5e"/><path d="M570.83 277.73V403.7M570.28 277.2h1.02" stroke="#5e5e5e" stroke-width="2" fill="none"/><path d="M570.83 418.96l-4.63-14.26h9.27z" stroke="#5e5e5e" stroke-width="2" fill="#5e5e5e"/><path d="M571.24 203.2v12.15m0 12.16v12.19h.05v12.19m0 12.14v12.16M571.24 203.22v-1.02M571.3 276.17v1.03" stroke="#5e5e5e" stroke-width="2" fill="none"/><path d="M543 188.2c0-3.32 2.7-6 6-6h6.56c3.3 0 6 2.68 6 6v28c0 3.3-2.7 6-6 6H549c-3.3 0-6-2.7-6-6z" stroke="#000" stroke-opacity="0" stroke-width="3" fill="#fff" fill-opacity="0"/><use xlink:href="#a" transform="matrix(1,0,0,1,548.0049936596806,187.19821214100557) translate(-2.629629629629626 19.444444444444443)"/><path d="M611.56 248.2c0-3.32 2.68-6 6-6h6.55c3.32 0 6 2.68 6 6v28c0 3.3-2.68 6-6 6h-6.54c-3.32 0-6-2.7-6-6z" stroke="#000" stroke-opacity="0" stroke-width="3" fill="#fff" fill-opacity="0"/><use xlink:href="#b" transform="matrix(1,0,0,1,616.5557182973625,247.19821214100557) translate(-1.6728395061728367 19.444444444444443)"/><path d="M688.54 288.2c0-3.32 2.68-6 6-6h6.55c3.3 0 6 2.68 6 6v28c0 3.3-2.7 6-6 6h-6.56c-3.32 0-6-2.7-6-6z" stroke="#000" stroke-opacity="0" stroke-width="3" fill="#fff" fill-opacity="0"/><use xlink:href="#c" transform="matrix(1,0,0,1,693.5353444263255,287.19821214100557) translate(-1.6728395061728367 19.444444444444443)"/><path d="M791.5 288.2c0-3.32 2.7-6 6-6h6.56c3.3 0 6 2.68 6 6v28c0 3.3-2.7 6-6 6h-6.55c-3.3 0-6-2.7-6-6z" stroke="#000" stroke-opacity="0" stroke-width="3" fill="#fff" fill-opacity="0"/><use xlink:href="#d" transform="matrix(1,0,0,1,796.507029426326,287.19821214100557) translate(-1.6728395061728367 19.444444444444443)"/><path d="M892.28 288.2c0-3.32 2.7-6 6-6h6.55c3.3 0 6 2.68 6 6v28c0 3.3-2.7 6-6 6h-6.55c-3.3 0-6-2.7-6-6z" stroke="#000" stroke-opacity="0" stroke-width="3" fill="#fff" fill-opacity="0"/><use xlink:href="#e" transform="matrix(1,0,0,1,897.2803559785225,287.19821214100557) translate(-1.6728395061728367 19.444444444444443)"/><path d="M1147.42 254.2h26.6v46h-26.6z" fill="#fff" fill-opacity="0"/><use xlink:href="#f" transform="matrix(1,0,0,1,1152.4236732087957,259.19821214100557) translate(-2.166666666666666 24)"/><path d="M405.1 448.2c0-3.32 2.7-6 6-6h159.46c3.3 0 6 2.68 6 6v28c0 3.3-2.7 6-6 6H411.1c-3.3 0-6-2.7-6-6z" stroke="#000" stroke-opacity="0" stroke-width="3" fill="#fff" fill-opacity="0"/><use xlink:href="#g" transform="matrix(1,0,0,1,410.10644293504265,447.19821214100557) translate(2.327160493827165 19.65277777777778)"/><use xlink:href="#h" transform="matrix(1,0,0,1,410.10644293504265,447.19821214100557) translate(67.08024691358024 19.65277777777778)"/><path d="M1020.5 128.2c0-3.32 2.68-6 6-6h159.44c3.3 0 6 2.68 6 6v28c0 3.3-2.7 6-6 6H1026.5c-3.32 0-6-2.7-6-6z" stroke="#000" stroke-opacity="0" stroke-width="3" fill="#fff" fill-opacity="0"/><use xlink:href="#i" transform="matrix(1,0,0,1,1025.4895263933122,127.19821214100557) translate(2.975308641975303 19.65277777777778)"/><use xlink:href="#h" transform="matrix(1,0,0,1,1025.4895263933122,127.19821214100557) translate(66.43209876543209 19.65277777777778)"/><path d="M1001.94 288.2c0-3.32 2.7-6 6-6h6.55c3.3 0 6 2.68 6 6v28c0 3.3-2.7 6-6 6h-6.56c-3.3 0-6-2.7-6-6z" stroke="#000" stroke-opacity="0" stroke-width="3" fill="#fff" fill-opacity="0"/><use xlink:href="#j" transform="matrix(1,0,0,1,1006.9388017556312,287.19821214100557) translate(-1.6728395061728367 19.444444444444443)"/><path d="M1090.83 276.2v-95.5M1090.83 276.17v1.03" stroke="#5e5e5e" stroke-width="2" fill="none"/><path d="M1090.83 165.43l4.64 14.27h-9.27z" stroke="#5e5e5e" stroke-width="2" fill="#5e5e5e"/><path d="M610.25 447.56l.07.14 1.92 3.2.05.06m4.5 6.53l1.08 1.48 3.8 4.76m5.18 5.98l.06.07 5.4 5.67m5.7 5.53l2.33 2.26 3.5 3.1m6 5.18l6.17 4.98m6.32 4.8l5.38 3.95 1.03.7m6.58 4.4l2.5 1.68 4.2 2.57m6.8 4.08l6.94 3.83m7.06 3.6l4.65 2.3 2.5 1.1m7.27 3.2l.93.37 6.47 2.46m7.53 2.5h.05l7.58 2.14m7.73 1.84l2.35.55 5.42 1m7.8 1.33l7.86 1.12m7.9.77l3.9.38 4 .2m7.9.42h.2l7.74.07m7.93-.1l7.92-.28m7.9-.6l4.4-.35 3.5-.46m7.85-1.03l5.3-.7 2.54-.5m7.78-1.48l7.8-1.5m7.7-1.86l7.7-1.94m7.65-2l7.57-2.37m7.57-2.36l.3-.1 7.14-2.67m7.16-3.38l6.77-4.1m6.78-4.13l3.9-2.4 2.73-1.94m6.45-4.6l6.45-4.62m6.26-4.86l6.05-5.12m5.74-5.46l2.23-2.23 3.1-3.63m4.6-6.45l3.28-4.72 1.36-1.72m4.92-6.22l2.55-3.24 1.82-3.35m3.78-6.96l3.78-6.98m3.8-6.96l1.88-3.48" stroke="#0c7cba" stroke-width="2" fill="none"/><path d="M605.48 433.27l8.9 12.06-8.78 2.94z" stroke="#0c7cba" stroke-width="2" fill="#0c7cba"/><path d="M1006.53 431.1l.5-.9" stroke="#0c7cba" stroke-width="2" fill="none"/><path d="M707.1 408.2c0-3.32 2.67-6 6-6h159.44c3.3 0 6 2.68 6 6v28c0 3.3-2.7 6-6 6H713.1c-3.33 0-6-2.7-6-6z" stroke="#000" stroke-opacity="0" stroke-width="3" fill="#fff" fill-opacity="0"/><use xlink:href="#k" transform="matrix(1,0,0,1,712.0860690640066,407.19821214100557) translate(20.845679012345684 19.65277777777778)"/><use xlink:href="#l" transform="matrix(1,0,0,1,712.0860690640066,407.19821214100557) translate(90.59876543209876 19.65277777777778)"/><path d="M707.1 456.2c0-3.32 2.67-6 6-6h159.44c3.3 0 6 2.68 6 6v28c0 3.3-2.7 6-6 6H713.1c-3.33 0-6-2.7-6-6z" stroke="#000" stroke-opacity="0" stroke-width="3" fill="#fff" fill-opacity="0"/><g><use xlink:href="#m" transform="matrix(1,0,0,1,712.0860690640066,455.19821214100557) translate(35.074074074074076 19.65277777777778)"/><use xlink:href="#n" transform="matrix(1,0,0,1,712.0860690640066,455.19821214100557) translate(70.19753086419753 19.65277777777778)"/><use xlink:href="#o" transform="matrix(1,0,0,1,712.0860690640066,455.19821214100557) translate(88.71604938271605 19.65277777777778)"/></g><defs><path fill="#333" d="M93-157L62 0H13l31-157H16l6-33h28c2-54 40-81 100-68l-6 32c-29-8-44 9-45 36h38l-7 33H93" id="p"/><g id="a"><use transform="matrix(0.06172839506172837,0,0,0.06172839506172837,0,0)" xlink:href="#p"/><use transform="matrix(0.06172839506172837,0,0,0.06172839506172837,6.913580246913577,0)" xlink:href="#p"/></g><path fill="#333" d="M101-251c68 0 85 55 85 127S166 4 100 4C33 4 14-52 14-124c0-73 17-127 87-127zm-1 229c47 0 54-49 54-102s-4-102-53-102c-51 0-55 48-55 102 0 53 5 102 54 102" id="q"/><use transform="matrix(0.06172839506172837,0,0,0.06172839506172837,0,0)" xlink:href="#q" id="b"/><path fill="#333" d="M27 0v-27h64v-190l-56 39v-29l58-41h29v221h61V0H27" id="r"/><use transform="matrix(0.06172839506172837,0,0,0.06172839506172837,0,0)" xlink:href="#r" id="c"/><path fill="#333" d="M101-251c82-7 93 87 43 132L82-64C71-53 59-42 53-27h129V0H18c2-99 128-94 128-182 0-28-16-43-45-43s-46 15-49 41l-32-3c6-41 34-60 81-64" id="s"/><use transform="matrix(0.06172839506172837,0,0,0.06172839506172837,0,0)" xlink:href="#s" id="d"/><path fill="#333" d="M126-127c33 6 58 20 58 59 0 88-139 92-164 29-3-8-5-16-6-25l32-3c6 27 21 44 54 44 32 0 52-15 52-46 0-38-36-46-79-43v-28c39 1 72-4 72-42 0-27-17-43-46-43-28 0-47 15-49 41l-32-3c6-42 35-63 81-64 48-1 79 21 79 65 0 36-21 52-52 59" id="t"/><use transform="matrix(0.06172839506172837,0,0,0.06172839506172837,0,0)" xlink:href="#t" id="e"/><path fill="#202122" d="M187-172c37 0 54 29 54 68 0 37-17 68-54 68-31 0-46-22-59-49-13 23-26 48-58 48-37 0-55-29-55-68 0-38 18-68 55-68 31 0 46 23 58 50 13-23 27-49 59-49zm-4 113c46 0 45-90 0-90-24 0-32 22-43 45 10 23 18 45 43 45zM73-150c-44 0-45 92 0 90 24-1 33-22 44-45-10-23-19-45-44-45" id="u"/><use transform="matrix(0.08333333333333333,0,0,0.08333333333333333,0,0)" xlink:href="#u" id="f"/><path fill="#333" d="M147 0H94L2-248h55l64 206c17-72 42-137 63-206h54" id="v"/><path fill="#333" d="M24-248c93 1 206-16 204 79-1 75-69 88-152 82V0H24v-248zm52 121c47 0 100 7 100-41 0-47-54-39-100-39v80" id="w"/><path fill="#333" d="M67-125c0 53 21 87 73 88 37 1 54-22 65-47l45 17C233-25 199 4 140 4 58 4 20-42 15-125 8-235 124-281 211-232c18 10 29 29 36 50l-46 12c-8-25-30-41-62-41-52 0-71 34-72 86" id="x"/><path fill="#333" d="M15-148v-39h180v39H15zm0 97v-39h180v39H15" id="y"/><g id="g"><use transform="matrix(0.06172839506172839,0,0,0.06172839506172839,0,0)" xlink:href="#v"/><use transform="matrix(0.06172839506172839,0,0,0.06172839506172839,14.814814814814813,0)" xlink:href="#w"/><use transform="matrix(0.06172839506172839,0,0,0.06172839506172839,29.629629629629626,0)" xlink:href="#x"/><use transform="matrix(0.06172839506172839,0,0,0.06172839506172839,45.61728395061728,0)" xlink:href="#y"/></g><path fill="#333" d="M111-147c44 9 85 22 84 75-1 49-35 65-84 68v31H91V-4C40-5 12-27 5-72l45-8c4 24 15 38 41 40-2-22 4-51-2-69-39-10-76-22-76-72 0-47 35-60 78-63v-23h20v23c47 1 70 23 78 62l-46 7c-4-18-12-32-32-34v62zm-20-63c-33-4-45 46-13 54 4 1 8 2 13 4v-58zm20 170c39 5 53-51 15-60-7-2-7-2-15-4v64" id="z"/><path fill="#333" d="M182-182c0 78-84 86-111 141h115V0H12c-6-101 99-100 120-180 1-22-12-31-33-32-23 0-32 14-35 34l-49-3c5-45 32-70 84-70 51 0 83 22 83 69" id="A"/><path fill="#333" d="M101-251c68 0 84 54 84 127C185-50 166 4 99 4S15-52 14-124c-1-75 17-127 87-127zm-1 216c37-5 36-46 36-89s4-89-36-89c-39 0-36 45-36 89 0 43-3 85 36 89" id="B"/><path fill="#333" d="M24 0v-54h51V0H24" id="C"/><g id="h"><use transform="matrix(0.06172839506172839,0,0,0.06172839506172839,0,0)" xlink:href="#z"/><use transform="matrix(0.06172839506172839,0,0,0.06172839506172839,12.345679012345679,0)" xlink:href="#A"/><use transform="matrix(0.06172839506172839,0,0,0.06172839506172839,24.691358024691358,0)" xlink:href="#B"/><use transform="matrix(0.06172839506172839,0,0,0.06172839506172839,37.03703703703704,0)" xlink:href="#B"/><use transform="matrix(0.06172839506172839,0,0,0.06172839506172839,49.382716049382715,0)" xlink:href="#C"/><use transform="matrix(0.06172839506172839,0,0,0.06172839506172839,55.55555555555556,0)" xlink:href="#B"/><use transform="matrix(0.06172839506172839,0,0,0.06172839506172839,67.90123456790124,0)" xlink:href="#B"/><use transform="matrix(0.06172839506172839,0,0,0.06172839506172839,80.24691358024693,0)" xlink:href="#B"/></g><path fill="#333" d="M76-208v77h127v40H76V0H24v-248h183v40H76" id="D"/><g id="i"><use transform="matrix(0.06172839506172839,0,0,0.06172839506172839,0,0)" xlink:href="#v"/><use transform="matrix(0.06172839506172839,0,0,0.06172839506172839,14.814814814814813,0)" xlink:href="#D"/><use transform="matrix(0.06172839506172839,0,0,0.06172839506172839,28.33333333333333,0)" xlink:href="#x"/><use transform="matrix(0.06172839506172839,0,0,0.06172839506172839,44.32098765432098,0)" xlink:href="#y"/></g><path fill="#333" d="M155-56V0h-30v-56H8v-25l114-167h33v167h35v25h-35zm-30-156c-27 46-58 90-88 131h88v-131" id="E"/><use transform="matrix(0.06172839506172837,0,0,0.06172839506172837,0,0)" xlink:href="#E" id="j"/><path fill="#333" d="M25-224v-37h50v37H25zM75 22c2 45-34 59-81 51V38c22 5 31-5 31-27v-201h50V22" id="F"/><path fill="#333" d="M23 0v-37h61v-169l-59 37v-38l62-41h46v211h57V0H23" id="G"/><path fill="#333" d="M139-81c0-46-55-55-73-27H18l9-140h149v37H72l-4 63c44-38 133-4 122 66C201 21 21 35 11-62l49-4c5 18 15 30 39 30 26 0 40-18 40-45" id="H"/><path fill="#333" d="M249-155c45 1 62 31 62 79-1 48-18 79-63 79s-61-32-62-79c0-48 16-79 63-79zM97 0H61l162-248h36zM9-172c0-48 16-79 63-78 46 0 62 31 62 78 0 48-18 79-63 79S9-124 9-172zM249-25c24 0 24-26 24-51 0-26-1-52-24-52-24 0-25 26-25 52 0 25 0 51 25 51zM71-120c23 0 24-25 24-52 0-26 0-51-23-51-25 0-25 25-25 51 0 27 1 52 24 52" id="I"/><g id="k"><use transform="matrix(0.06172839506172839,0,0,0.06172839506172839,0,0)" xlink:href="#F"/><use transform="matrix(0.06172839506172839,0,0,0.06172839506172839,6.172839506172839,0)" xlink:href="#y"/><use transform="matrix(0.06172839506172839,0,0,0.06172839506172839,19.1358024691358,0)" xlink:href="#G"/><use transform="matrix(0.06172839506172839,0,0,0.06172839506172839,31.48148148148148,0)" xlink:href="#H"/><use transform="matrix(0.06172839506172839,0,0,0.06172839506172839,43.82716049382716,0)" xlink:href="#I"/></g><path fill="#333" d="M135-194c87-1 58 113 63 194h-50c-7-57 23-157-34-157-59 0-34 97-39 157H25l-1-190h47c2 12-1 28 3 38 12-26 28-41 61-42" id="J"/><path fill="#333" d="M133-34C117-15 103 5 69 4 32 3 11-16 11-54c-1-60 55-63 116-61 1-26-3-47-28-47-18 1-26 9-28 27l-52-2c7-38 36-58 82-57s74 22 75 68l1 82c-1 14 12 18 25 15v27c-30 8-71 5-69-32zm-48 3c29 0 43-24 42-57-32 0-66-3-65 30 0 17 8 27 23 27" id="K"/><path fill="#333" d="M128 0H69L1-190h53L99-40l48-150h52" id="L"/><g id="l"><use transform="matrix(0.06172839506172839,0,0,0.06172839506172839,0,0)" xlink:href="#J"/><use transform="matrix(0.06172839506172839,0,0,0.06172839506172839,13.518518518518517,0)" xlink:href="#K"/><use transform="matrix(0.06172839506172839,0,0,0.06172839506172839,25.864197530864196,0)" xlink:href="#K"/><use transform="matrix(0.06172839506172839,0,0,0.06172839506172839,38.20987654320987,0)" xlink:href="#L"/></g><path fill="#333" d="M175 0L67-191c6 58 2 128 3 191H24v-248h59L193-55c-6-58-2-129-3-193h46V0h-61" id="M"/><g id="m"><use transform="matrix(0.06172839506172839,0,0,0.06172839506172839,0,0)" xlink:href="#M"/><use transform="matrix(0.06172839506172839,0,0,0.06172839506172839,15.987654320987653,0)" xlink:href="#y"/></g><path fill="#333" d="M165-50V0h-47v-50H5v-38l105-160h55v161h33v37h-33zm-47-37l2-116L46-87h72" id="N"/><use transform="matrix(0.06172839506172839,0,0,0.06172839506172839,0,0)" xlink:href="#N" id="n"/><path fill="#333" d="M135-194c53 0 70 44 70 98 0 56-19 98-73 100-31 1-45-17-59-34 3 33 2 69 2 105H25l-1-265h48c2 10 0 23 3 31 11-24 29-35 60-35zM114-30c33 0 39-31 40-66 0-38-9-64-40-64-56 0-55 130 0 130" id="O"/><g id="o"><use transform="matrix(0.06172839506172839,0,0,0.06172839506172839,0,0)" xlink:href="#O"/><use transform="matrix(0.06172839506172839,0,0,0.06172839506172839,13.518518518518517,0)" xlink:href="#K"/><use transform="matrix(0.06172839506172839,0,0,0.06172839506172839,25.864197530864196,0)" xlink:href="#L"/></g></defs></g></svg>