<svg xmlns="http://www.w3.org/2000/svg" xmlns:xlink="http://www.w3.org/1999/xlink" xmlns:lucid="lucid" width="698.55" height="368.73"><g transform="translate(-417.83574879227035 -75.6343012049997)" lucid:page-tab-id="0_0"><path d="M0 0h1870.4v1323.2H0z" fill="#fff"/><path d="M437.4 190.63h585M437.4 190.63h-1" stroke="#5e5e5e" stroke-width="2" fill="none"/><path d="M1037.68 190.63l-14.27 4.64V186z" stroke="#5e5e5e" stroke-width="2" fill="#5e5e5e"/><path d="M480.66 191.3v125.9M481.34 190.63h-1.02" stroke="#5e5e5e" stroke-width="2" fill="none"/><path d="M480.66 332.47l-4.63-14.26h9.27z" stroke="#5e5e5e" stroke-width="2" fill="#5e5e5e"/><path d="M480.66 116.63v12.1m0 12.12v12.1l-.05.13-.1.05-.13.05-.05.13v12.12m0 12.1v12.1M480.66 116.66v-1.03M480.32 189.6v1.03" stroke="#5e5e5e" stroke-width="2" fill="none"/><path d="M437.84 101.63c0-3.3 2.68-6 6-6h6.55c3.3 0 6 2.7 6 6v28c0 3.32-2.7 6-6 6h-6.56c-3.32 0-6-2.68-6-6z" stroke="#000" stroke-opacity="0" stroke-width="3" fill="#fff" fill-opacity="0"/><use xlink:href="#a" transform="matrix(1,0,0,1,442.83574879227035,100.6343012049997) translate(-2.629629629629626 19.444444444444443)"/><path d="M506.4 161.63c0-3.3 2.67-6 6-6h6.54c3.3 0 6 2.7 6 6v28c0 3.32-2.7 6-6 6h-6.55c-3.33 0-6-2.68-6-6z" stroke="#000" stroke-opacity="0" stroke-width="3" fill="#fff" fill-opacity="0"/><use xlink:href="#b" transform="matrix(1,0,0,1,511.3864734299532,160.6343012049997) translate(-1.6728395061728367 19.444444444444443)"/><path d="M474.94 341.63c0-3.3 2.68-6 6-6h6.55c3.3 0 6 2.7 6 6v28c0 3.32-2.7 6-6 6h-6.56c-3.32 0-6-2.68-6-6z" stroke="#000" stroke-opacity="0" stroke-width="3" fill="#fff" fill-opacity="0"/><use xlink:href="#c" transform="matrix(1,0,0,1,479.9371980676342,340.6343012049997) translate(-12.166666666666657 19)"/><path d="M592.64 194.63V155.9c0-.15-.1-.27-.26-.27-.14 0-.25-.1-.25-.25v-21.24" stroke="#5e5e5e" stroke-width="2" fill="none"/><path d="M593.64 195.63h-2v-1.02h2z" fill="#5e5e5e"/><path d="M592.13 118.87l4.63 14.27h-9.27z" stroke="#5e5e5e" stroke-width="2" fill="#5e5e5e"/><path d="M695.6 194.63v-60.5" stroke="#5e5e5e" stroke-width="2" fill="none"/><path d="M696.6 195.63h-2v-1.02h2z" fill="#5e5e5e"/><path d="M695.6 118.87l4.65 14.27h-9.27z" stroke="#5e5e5e" stroke-width="2" fill="#5e5e5e"/><path d="M796.4 194.63v-60.5" stroke="#5e5e5e" stroke-width="2" fill="none"/><path d="M797.4 195.63h-2v-1.02h2z" fill="#5e5e5e"/><path d="M796.4 118.87l4.62 14.27h-9.27z" stroke="#5e5e5e" stroke-width="2" fill="#5e5e5e"/><path d="M583.37 201.63c0-3.3 2.68-6 6-6h6.55c3.3 0 6 2.7 6 6v28c0 3.32-2.7 6-6 6h-6.55c-3.32 0-6-2.68-6-6z" stroke="#000" stroke-opacity="0" stroke-width="3" fill="#fff" fill-opacity="0"/><use xlink:href="#d" transform="matrix(1,0,0,1,588.3660995589162,200.6343012049997) translate(-1.6728395061728367 19.444444444444443)"/><path d="M686.34 201.63c0-3.3 2.68-6 6-6h6.55c3.3 0 6 2.7 6 6v28c0 3.32-2.7 6-6 6h-6.56c-3.32 0-6-2.68-6-6z" stroke="#000" stroke-opacity="0" stroke-width="3" fill="#fff" fill-opacity="0"/><use xlink:href="#e" transform="matrix(1,0,0,1,691.3377845589166,200.6343012049997) translate(-1.6728395061728367 19.444444444444443)"/><path d="M787.1 201.63c0-3.3 2.7-6 6-6h6.56c3.32 0 6 2.7 6 6v28c0 3.32-2.68 6-6 6h-6.55c-3.3 0-6-2.68-6-6z" stroke="#000" stroke-opacity="0" stroke-width="3" fill="#fff" fill-opacity="0"/><use xlink:href="#f" transform="matrix(1,0,0,1,792.1111111111131,200.6343012049997) translate(-1.6728395061728367 19.444444444444443)"/><path d="M1034.2 101.63c0-3.3 2.7-6 6-6h50.2c3.3 0 6 2.7 6 6v28c0 3.32-2.7 6-6 6h-50.2c-3.3 0-6-2.68-6-6z" stroke="#000" stroke-opacity="0" stroke-width="3" fill="#fff" fill-opacity="0"/><use xlink:href="#g" transform="matrix(1,0,0,1,1039.2125603864752,100.6343012049997) translate(3.728395061728399 20.541666666666668)"/><path d="M1015.66 215.63h26.6v46h-26.6z" fill="#fff" fill-opacity="0"/><use xlink:href="#h" transform="matrix(1,0,0,1,1020.6618357487941,220.6343012049997) translate(-2.166666666666666 24)"/><path d="M854.94 201.63c0-3.3 2.68-6 6-6h108c3.3 0 6 2.7 6 6v8c0 3.32-2.7 6-6 6h-108c-3.32 0-6-2.68-6-6z" stroke="#000" stroke-opacity="0" stroke-width="3" fill="#fff" fill-opacity="0"/><use xlink:href="#i" transform="matrix(1,0,0,1,859.9371980676324,200.6343012049997) translate(8.70370370370373 17.77777777777777)"/><path d="M542.18 333l.08.14 1.92 3.2.04.06m4.5 6.52l1.1 1.5 3.78 4.75m5.2 6l.06.06 5.4 5.68m5.68 5.54l2.34 2.25 3.5 3.1m6 5.18l6.17 4.98m6.32 4.78l5.4 3.97 1.02.7m6.57 4.42l2.5 1.67 4.2 2.55m6.8 4.1l6.94 3.8m7.07 3.62l4.64 2.3 2.53 1.1m7.26 3.2l.92.37 6.47 2.46m7.52 2.5h.05l7.58 2.14m7.7 1.84l2.37.55 5.4 1m7.83 1.34l7.85 1.1m7.9.8l3.9.36 4 .2m7.9.43h.2l7.74.07m7.92-.1l7.93-.28m7.9-.6l4.4-.35 3.48-.46m7.86-1.04l5.3-.7 2.53-.48m7.8-1.5l7.78-1.5m7.7-1.85l7.7-1.93m7.66-2l7.58-2.37m7.57-2.37l.3-.1 7.13-2.66m7.15-3.38l6.78-4.12m6.78-4.12l3.9-2.37 2.74-1.95m6.45-4.6l6.45-4.62m6.25-4.87l6.06-5.1m5.74-5.46l2.24-2.23 3.1-3.63m4.6-6.44l3.3-4.7 1.35-1.73m4.9-6.23l2.55-3.23 1.82-3.35m3.8-6.97l3.78-6.97m3.8-6.96l1.88-3.5" stroke="#0c7cba" stroke-width="2" fill="none"/><path d="M537.4 318.7l8.93 12.07-8.8 2.93z" stroke="#0c7cba" stroke-width="2" fill="#0c7cba"/><path d="M938.47 316.54l.5-.9M542.18 333l.08.14 1.92 3.2.04.06m4.5 6.52l1.1 1.5 3.78 4.75m5.2 6l.06.06 5.4 5.68m5.68 5.54l2.34 2.25 3.5 3.1m6 5.18l6.17 4.98m6.32 4.78l5.4 3.97 1.02.7m6.57 4.42l2.5 1.67 4.2 2.55m6.8 4.1l6.94 3.8m7.07 3.62l4.64 2.3 2.53 1.1m7.26 3.2l.92.37 6.47 2.46m7.52 2.5h.05l7.58 2.14m7.7 1.84l2.37.55 5.4 1m7.83 1.34l7.85 1.1m7.9.8l3.9.36 4 .2m7.9.43h.2l7.74.07m7.92-.1l7.93-.28m7.9-.6l4.4-.35 3.48-.46m7.86-1.04l5.3-.7 2.53-.48m7.8-1.5l7.78-1.5m7.7-1.85l7.7-1.93m7.66-2l7.58-2.37m7.57-2.37l.3-.1 7.13-2.66m7.15-3.38l6.78-4.12m6.78-4.12l3.9-2.37 2.74-1.95m6.45-4.6l6.45-4.62m6.25-4.87l6.06-5.1m5.74-5.46l2.24-2.23 3.1-3.63m4.6-6.44l3.3-4.7 1.35-1.73m4.9-6.23l2.55-3.23 1.82-3.35m3.8-6.97l3.78-6.97m3.8-6.96l1.88-3.5" stroke="#0c7cba" stroke-width="2" fill="none"/><path d="M537.4 318.7l8.93 12.07-8.8 2.93z" stroke="#0c7cba" stroke-width="2" fill="#0c7cba"/><path d="M938.47 316.54l.5-.9" stroke="#0c7cba" stroke-width="2" fill="none"/><defs><path fill="#333" d="M93-157L62 0H13l31-157H16l6-33h28c2-54 40-81 100-68l-6 32c-29-8-44 9-45 36h38l-7 33H93" id="j"/><g id="a"><use transform="matrix(0.06172839506172837,0,0,0.06172839506172837,0,0)" xlink:href="#j"/><use transform="matrix(0.06172839506172837,0,0,0.06172839506172837,6.913580246913577,0)" xlink:href="#j"/></g><path fill="#333" d="M101-251c68 0 85 55 85 127S166 4 100 4C33 4 14-52 14-124c0-73 17-127 87-127zm-1 229c47 0 54-49 54-102s-4-102-53-102c-51 0-55 48-55 102 0 53 5 102 54 102" id="k"/><use transform="matrix(0.06172839506172837,0,0,0.06172839506172837,0,0)" xlink:href="#k" id="b"/><path fill="#333" d="M27 0v-27h64v-190l-56 39v-29l58-41h29v221h61V0H27" id="l"/><g id="c"><use transform="matrix(0.055555555555555525,0,0,0.055555555555555525,0,0)" xlink:href="#l"/><use transform="matrix(0.055555555555555525,0,0,0.055555555555555525,11.111111111111105,0)" xlink:href="#k"/><use transform="matrix(0.055555555555555525,0,0,0.055555555555555525,22.22222222222221,0)" xlink:href="#k"/></g><use transform="matrix(0.06172839506172837,0,0,0.06172839506172837,0,0)" xlink:href="#l" id="d"/><path fill="#333" d="M101-251c82-7 93 87 43 132L82-64C71-53 59-42 53-27h129V0H18c2-99 128-94 128-182 0-28-16-43-45-43s-46 15-49 41l-32-3c6-41 34-60 81-64" id="m"/><use transform="matrix(0.06172839506172837,0,0,0.06172839506172837,0,0)" xlink:href="#m" id="e"/><path fill="#333" d="M126-127c33 6 58 20 58 59 0 88-139 92-164 29-3-8-5-16-6-25l32-3c6 27 21 44 54 44 32 0 52-15 52-46 0-38-36-46-79-43v-28c39 1 72-4 72-42 0-27-17-43-46-43-28 0-47 15-49 41l-32-3c6-42 35-63 81-64 48-1 79 21 79 65 0 36-21 52-52 59" id="n"/><use transform="matrix(0.06172839506172837,0,0,0.06172839506172837,0,0)" xlink:href="#n" id="f"/><path fill="#333" d="M155 0L90-199 52 0H6l48-248h62l66 201 38-201h46L218 0h-63" id="o"/><path fill="#333" d="M22-148v-39h180v39H22zm0 97v-39h180v39H22" id="p"/><path fill="#202122" d="M187-172c37 0 54 29 54 68 0 37-17 68-54 68-31 0-46-22-59-49-13 23-26 48-58 48-37 0-55-29-55-68 0-38 18-68 55-68 31 0 46 23 58 50 13-23 27-49 59-49zm-4 113c46 0 45-90 0-90-24 0-32 22-43 45 10 23 18 45 43 45zM73-150c-44 0-45 92 0 90 24-1 33-22 44-45-10-23-19-45-44-45" id="q"/><g id="g"><use transform="matrix(0.06172839506172837,0,0,0.06172839506172837,0,0)" xlink:href="#o"/><use transform="matrix(0.06172839506172837,0,0,0.06172839506172837,15.987654320987648,0)" xlink:href="#p"/><use transform="matrix(0.06481481481481481,0,0,0.06481481481481481,28.950617283950606,0)" xlink:href="#q"/></g><use transform="matrix(0.08333333333333333,0,0,0.08333333333333333,0,0)" xlink:href="#q" id="h"/><path fill="#333" d="M33 0v-38h34V0H33" id="r"/><g id="i"><use transform="matrix(0.06172839506172837,0,0,0.06172839506172837,0,0)" xlink:href="#r"/><use transform="matrix(0.06172839506172837,0,0,0.06172839506172837,6.172839506172837,0)" xlink:href="#r"/><use transform="matrix(0.06172839506172837,0,0,0.06172839506172837,12.345679012345673,0)" xlink:href="#r"/><use transform="matrix(0.06172839506172837,0,0,0.06172839506172837,18.518518518518512,0)" xlink:href="#r"/><use transform="matrix(0.06172839506172837,0,0,0.06172839506172837,24.691358024691347,0)" xlink:href="#r"/><use transform="matrix(0.06172839506172837,0,0,0.06172839506172837,30.864197530864182,0)" xlink:href="#r"/><use transform="matrix(0.06172839506172837,0,0,0.06172839506172837,37.03703703703702,0)" xlink:href="#r"/><use transform="matrix(0.06172839506172837,0,0,0.06172839506172837,43.20987654320985,0)" xlink:href="#r"/><use transform="matrix(0.06172839506172837,0,0,0.06172839506172837,49.38271604938269,0)" xlink:href="#r"/><use transform="matrix(0.06172839506172837,0,0,0.06172839506172837,55.55555555555552,0)" xlink:href="#r"/><use transform="matrix(0.06172839506172837,0,0,0.06172839506172837,61.72839506172836,0)" xlink:href="#r"/><use transform="matrix(0.06172839506172837,0,0,0.06172839506172837,67.9012345679012,0)" xlink:href="#r"/><use transform="matrix(0.06172839506172837,0,0,0.06172839506172837,74.07407407407403,0)" xlink:href="#r"/><use transform="matrix(0.06172839506172837,0,0,0.06172839506172837,80.24691358024687,0)" xlink:href="#r"/><use transform="matrix(0.06172839506172837,0,0,0.06172839506172837,86.4197530864197,0)" xlink:href="#r"/></g></defs></g></svg>