<svg xmlns="http://www.w3.org/2000/svg" xmlns:xlink="http://www.w3.org/1999/xlink" xmlns:lucid="lucid" width="851" height="527.93"><g transform="translate(-40 -100)" lucid:page-tab-id="0_0"><path d="M61 240h780.5M61.03 240H60" stroke="#5e5e5e" stroke-width="2" fill="none"/><path d="M856.76 240l-14.26 4.64v-9.28z" stroke="#5e5e5e" stroke-width="2" fill="#5e5e5e"/><path d="M160 241v40.5M160 241.03V240" stroke="#0c7cba" stroke-width="2" fill="none"/><path d="M160 296.76l-4.64-14.26h9.28z" stroke="#0c7cba" stroke-width="2" fill="#0c7cba"/><path d="M200 241v40.5M200 241.03V240" stroke="#0c7cba" stroke-width="2" fill="none"/><path d="M200 296.76l-4.64-14.26h9.28z" stroke="#0c7cba" stroke-width="2" fill="#0c7cba"/><path d="M300 241v40.5M300 241.03V240" stroke="#0c7cba" stroke-width="2" fill="none"/><path d="M300 296.76l-4.64-14.26h9.28z" stroke="#0c7cba" stroke-width="2" fill="#0c7cba"/><path d="M140 306c0-3.3 2.7-6 6-6h68c3.3 0 6 2.7 6 6v8c0 3.3-2.7 6-6 6h-68c-3.3 0-6-2.7-6-6z" stroke="#000" stroke-opacity="0" stroke-width="3" fill="#fff" fill-opacity="0"/><use xlink:href="#a" transform="matrix(1,0,0,1,145,305) translate(8.879629629629633 12.444444444444443)"/><use xlink:href="#b" transform="matrix(1,0,0,1,145,305) translate(30.441358024691358 12.444444444444443)"/><use xlink:href="#c" transform="matrix(1,0,0,1,145,305) translate(43.83641975308642 12.444444444444443)"/><path d="M160 386c0-3.3 2.7-6 6-6h88c3.3 0 6 2.7 6 6v8c0 3.3-2.7 6-6 6h-88c-3.3 0-6-2.7-6-6z" stroke="#000" stroke-opacity="0" stroke-width="3" fill="#fff" fill-opacity="0"/><use xlink:href="#d" transform="matrix(1,0,0,1,165,385) translate(3.8240740740740833 12.444444444444443)"/><use xlink:href="#b" transform="matrix(1,0,0,1,165,385) translate(22.836419753086425 12.444444444444443)"/><use xlink:href="#e" transform="matrix(1,0,0,1,165,385) translate(36.23148148148149 12.444444444444443)"/><use xlink:href="#f" transform="matrix(1,0,0,1,165,385) translate(57.836419753086425 12.444444444444443)"/><path d="M141 300h178M141.03 300H140M318.97 300H320" stroke="#0c7cba" stroke-width="2" fill="none"/><path d="M60 226c0-3.3 2.7-6 6-6h8c3.3 0 6 2.7 6 6v8c0 3.3-2.7 6-6 6h-8c-3.3 0-6-2.7-6-6z" stroke="#000" stroke-opacity="0" stroke-width="3" fill="#fff" fill-opacity="0"/><use xlink:href="#g" transform="matrix(1,0,0,1,65,225) translate(0.6790123456790136 12.444444444444443)"/><path d="M140 226c0-3.3 2.7-6 6-6h28c3.3 0 6 2.7 6 6v8c0 3.3-2.7 6-6 6h-28c-3.3 0-6-2.7-6-6z" stroke="#000" stroke-opacity="0" stroke-width="3" fill="#fff" fill-opacity="0"/><use xlink:href="#h" transform="matrix(1,0,0,1,145,225) translate(10.679012345679013 12.444444444444443)"/><path d="M180 226c0-3.3 2.7-6 6-6h28c3.3 0 6 2.7 6 6v8c0 3.3-2.7 6-6 6h-28c-3.3 0-6-2.7-6-6z" stroke="#000" stroke-opacity="0" stroke-width="3" fill="#fff" fill-opacity="0"/><use xlink:href="#i" transform="matrix(1,0,0,1,185,225.00000000000006) translate(10.679012345679013 12.444444444444443)"/><path d="M280 226c0-3.3 2.7-6 6-6h28c3.3 0 6 2.7 6 6v8c0 3.3-2.7 6-6 6h-28c-3.3 0-6-2.7-6-6z" stroke="#000" stroke-opacity="0" stroke-width="3" fill="#fff" fill-opacity="0"/><use xlink:href="#j" transform="matrix(1,0,0,1,285,225) translate(6.358024691358027 12.444444444444443)"/><path d="M780 181v2.98m0 3.97v5.95m0 3.97v5.95m0 3.97v5.95m0 3.97v5.95m0 3.97v5.95m0 3.96v5.96m0 3.96v5.96m0 3.97v5.96m0 3.97v5.95m0 3.97v5.96m0 3.98v5.95m0 3.97v5.95m0 3.97v5.96m0 3.97v5.95m0 3.97v5.95m0 3.97v5.95m0 3.97v5.95m0 3.97v5.95m0 3.96v5.96m0 3.96v5.96m0 3.97v5.96m0 3.97v5.95m0 3.97v5.96m0 3.98v5.95m0 3.97v5.95m0 3.97V439M780 181.03V180M780 438.97V440" stroke="#000" stroke-width="2" fill="none"/><path d="M140.35 320.94l1.06 2.83m1.63 3.7l1.85 3.62 1 1.7m2.12 3.4l1.27 1.92 2.25 3m2.58 3.1l.63.75 3.2 3.38.3.28m2.94 2.76l.33.3 3.95 3.3.36.27m3.24 2.4l.78.58 4.24 2.8m3.47 2.04l2.43 1.4 2.9 1.46m3.6 1.77l5.4 2.34.16.06m3.8 1.4l2.47.9 3.24 1m3.87 1.12l5.54 1.35.35.06m3.95.72l1.28.24 4.7.58m4.03.26l1.78.04 2.5-.07 1.76-.15m4-.47l1.36-.17 4.6-.88m3.9-.96l1.94-.5 3.88-1.17m3.83-1.25l5.3-1.94.38-.16m3.7-1.58l2.77-1.18 2.73-1.34m3.62-1.78l.36-.18 4.92-2.76m3.45-2.08l3.94-2.5 1.13-.8m3.28-2.33l1.04-.74 3.74-2.96m3.06-2.6l2.62-2.33 1.8-1.78m2.84-2.87l2.97-3.27 1.03-1.26m2.52-3.15l2.53-3.47.96-1.47m2.13-3.4l1.5-2.63M140.36 320.96L140 320" stroke="#0c7cba" stroke-width="2" fill="none"/><path d="M318.3 341.65l.65-20-17.84 9.06" stroke="#0c7cba" stroke-width="2" fill="none"/><path d="M360 241v100.5M360 241.03V240" stroke="#7ab648" stroke-width="2" fill="none"/><path d="M360 356.76l-4.64-14.26h9.28z" stroke="#7ab648" stroke-width="2" fill="#7ab648"/><path d="M400 241v100.5M400 241.03V240" stroke="#7ab648" stroke-width="2" fill="none"/><path d="M400 356.76l-4.64-14.26h9.28z" stroke="#7ab648" stroke-width="2" fill="#7ab648"/><path d="M500 241v100.5M500 241.03V240" stroke="#7ab648" stroke-width="2" fill="none"/><path d="M500 356.76l-4.64-14.26h9.28z" stroke="#7ab648" stroke-width="2" fill="#7ab648"/><path d="M340 366c0-3.3 2.7-6 6-6h68c3.3 0 6 2.7 6 6v8c0 3.3-2.7 6-6 6h-68c-3.3 0-6-2.7-6-6z" stroke="#000" stroke-opacity="0" stroke-width="3" fill="#fff" fill-opacity="0"/><use xlink:href="#k" transform="matrix(1,0,0,1,345,365) translate(8.879629629629633 12.444444444444443)"/><use xlink:href="#l" transform="matrix(1,0,0,1,345,365) translate(30.441358024691358 12.444444444444443)"/><use xlink:href="#m" transform="matrix(1,0,0,1,345,365) translate(43.83641975308642 12.444444444444443)"/><path d="M360 446c0-3.3 2.7-6 6-6h88c3.3 0 6 2.7 6 6v8c0 3.3-2.7 6-6 6h-88c-3.3 0-6-2.7-6-6z" stroke="#000" stroke-opacity="0" stroke-width="3" fill="#fff" fill-opacity="0"/><use xlink:href="#n" transform="matrix(1,0,0,1,365,445) translate(5.98456790123457 12.444444444444443)"/><use xlink:href="#l" transform="matrix(1,0,0,1,365,445) translate(24.99691358024691 12.444444444444443)"/><use xlink:href="#o" transform="matrix(1,0,0,1,365,445) translate(38.391975308641975 12.444444444444443)"/><path d="M341 360h178M341.03 360H340M518.97 360H520M340.35 380.94l1.06 2.83m1.63 3.7l1.85 3.62 1 1.7m2.12 3.4l1.27 1.92 2.25 3m2.58 3.1l.63.75 3.2 3.38.3.28m2.94 2.76l.33.3 3.95 3.3.36.27m3.24 2.4l.78.58 4.24 2.8m3.47 2.04l2.43 1.4 2.9 1.46m3.6 1.77l5.4 2.34.16.06m3.8 1.4l2.47.9 3.24 1m3.87 1.12l5.54 1.35.35.06m3.95.72l1.28.24 4.7.58m4.03.26l1.78.04 2.5-.07 1.76-.15m4-.47l1.36-.17 4.6-.88m3.9-.96l1.94-.5 3.88-1.17m3.83-1.25l5.3-1.94.38-.16m3.7-1.58l2.77-1.18 2.73-1.34m3.62-1.78l.36-.18 4.92-2.76m3.45-2.08l3.94-2.5 1.13-.8m3.28-2.33l1.04-.74 3.74-2.96m3.06-2.6l2.62-2.33 1.8-1.78m2.84-2.87l2.97-3.27 1.03-1.26m2.52-3.15l2.53-3.47.96-1.47m2.13-3.4l1.5-2.63M340.36 380.96L340 380" stroke="#7ab648" stroke-width="2" fill="none"/><path d="M518.3 401.65l.65-20-17.84 9.06" stroke="#7ab648" stroke-width="2" fill="none"/><path d="M640 241v140.5M640 241.03V240" stroke="#c92d39" stroke-width="2" fill="none"/><path d="M640 396.76l-4.64-14.26h9.28z" stroke="#c92d39" stroke-width="2" fill="#c92d39"/><path d="M680 241v140.5M680 241.03V240" stroke="#c92d39" stroke-width="2" fill="none"/><path d="M680 396.76l-4.64-14.26h9.28z" stroke="#c92d39" stroke-width="2" fill="#c92d39"/><path d="M780 241v140.5M780 241.03V240" stroke="#c92d39" stroke-width="2" fill="none"/><path d="M780 396.76l-4.64-14.26h9.28z" stroke="#c92d39" stroke-width="2" fill="#c92d39"/><path d="M620 406c0-3.3 2.7-6 6-6h68c3.3 0 6 2.7 6 6v8c0 3.3-2.7 6-6 6h-68c-3.3 0-6-2.7-6-6z" stroke="#000" stroke-opacity="0" stroke-width="3" fill="#fff" fill-opacity="0"/><use xlink:href="#p" transform="matrix(1,0,0,1,625,405) translate(8.879629629629633 12.444444444444443)"/><use xlink:href="#q" transform="matrix(1,0,0,1,625,405) translate(30.441358024691358 12.444444444444443)"/><use xlink:href="#r" transform="matrix(1,0,0,1,625,405) translate(43.83641975308642 12.444444444444443)"/><path d="M640 486c0-3.3 2.7-6 6-6h88c3.3 0 6 2.7 6 6v8c0 3.3-2.7 6-6 6h-88c-3.3 0-6-2.7-6-6z" stroke="#000" stroke-opacity="0" stroke-width="3" fill="#fff" fill-opacity="0"/><use xlink:href="#s" transform="matrix(1,0,0,1,645,485) translate(5.98456790123457 12.444444444444443)"/><use xlink:href="#q" transform="matrix(1,0,0,1,645,485) translate(24.99691358024691 12.444444444444443)"/><use xlink:href="#t" transform="matrix(1,0,0,1,645,485) translate(38.391975308641975 12.444444444444443)"/><path d="M621 400h178M621.03 400H620M798.97 400H800M620.35 420.94l1.06 2.83m1.63 3.7l1.85 3.62 1 1.7m2.12 3.4l1.27 1.92 2.25 3m2.58 3.1l.63.75 3.2 3.38.3.28m2.94 2.76l.33.3 3.95 3.3.36.27m3.24 2.4l.78.58 4.24 2.8m3.47 2.04l2.43 1.4 2.9 1.46m3.6 1.77l5.4 2.34.16.06m3.8 1.4l2.47.9 3.24 1m3.87 1.12l5.54 1.35.35.06m3.95.72l1.28.24 4.7.58m4.03.26l1.78.04 2.5-.07 1.76-.15m4-.47l1.36-.17 4.6-.88m3.9-.96l1.94-.5 3.88-1.17m3.83-1.25l5.3-1.94.38-.16m3.7-1.58l2.77-1.18 2.73-1.34m3.62-1.78l.36-.18 4.92-2.76m3.45-2.08l3.94-2.5 1.13-.8m3.28-2.33l1.04-.74 3.74-2.96m3.06-2.6l2.62-2.33 1.8-1.78m2.84-2.87l2.97-3.27 1.03-1.26m2.52-3.15l2.53-3.47.96-1.47m2.13-3.4l1.5-2.63M620.36 420.96L620 420" stroke="#c92d39" stroke-width="2" fill="none"/><path d="M798.3 441.65l.65-20-17.84 9.06" stroke="#c92d39" stroke-width="2" fill="none"/><path d="M230 226c0-3.3 2.7-6 6-6h28c3.3 0 6 2.7 6 6v8c0 3.3-2.7 6-6 6h-28c-3.3 0-6-2.7-6-6z" stroke="#000" stroke-opacity="0" stroke-width="3" fill="#fff" fill-opacity="0"/><use xlink:href="#u" transform="matrix(1,0,0,1,235,225.00000000000006) translate(8.395061728395067 3.7777777777777786)"/><path d="M340 226c0-3.3 2.7-6 6-6h28c3.3 0 6 2.7 6 6v8c0 3.3-2.7 6-6 6h-28c-3.3 0-6-2.7-6-6z" stroke="#000" stroke-opacity="0" stroke-width="3" fill="#fff" fill-opacity="0"/><use xlink:href="#v" transform="matrix(1,0,0,1,345,224.99999999999994) translate(6.358024691358027 12.444444444444443)"/><path d="M380 226c0-3.3 2.7-6 6-6h28c3.3 0 6 2.7 6 6v8c0 3.3-2.7 6-6 6h-28c-3.3 0-6-2.7-6-6z" stroke="#000" stroke-opacity="0" stroke-width="3" fill="#fff" fill-opacity="0"/><use xlink:href="#w" transform="matrix(1,0,0,1,385,225) translate(6.358024691358027 12.444444444444443)"/><path d="M480 226c0-3.3 2.7-6 6-6h28c3.3 0 6 2.7 6 6v8c0 3.3-2.7 6-6 6h-28c-3.3 0-6-2.7-6-6z" stroke="#000" stroke-opacity="0" stroke-width="3" fill="#fff" fill-opacity="0"/><use xlink:href="#x" transform="matrix(1,0,0,1,485.00000000000006,224.99999999999994) translate(6.358024691358027 12.444444444444443)"/><path d="M430 226c0-3.3 2.7-6 6-6h28c3.3 0 6 2.7 6 6v8c0 3.3-2.7 6-6 6h-28c-3.3 0-6-2.7-6-6z" stroke="#000" stroke-opacity="0" stroke-width="3" fill="#fff" fill-opacity="0"/><use xlink:href="#u" transform="matrix(1,0,0,1,435,225) translate(8.395061728395067 3.7777777777777786)"/><path d="M620 226c0-3.3 2.7-6 6-6h28c3.3 0 6 2.7 6 6v8c0 3.3-2.7 6-6 6h-28c-3.3 0-6-2.7-6-6z" stroke="#000" stroke-opacity="0" stroke-width="3" fill="#fff" fill-opacity="0"/><use xlink:href="#y" transform="matrix(1,0,0,1,625,224.9999999999999) translate(6.358024691358027 12.444444444444443)"/><path d="M660 226c0-3.3 2.7-6 6-6h28c3.3 0 6 2.7 6 6v8c0 3.3-2.7 6-6 6h-28c-3.3 0-6-2.7-6-6z" stroke="#000" stroke-opacity="0" stroke-width="3" fill="#fff" fill-opacity="0"/><use xlink:href="#z" transform="matrix(1,0,0,1,665,224.99999999999994) translate(6.358024691358027 12.444444444444443)"/><path d="M760 226c0-3.3 2.7-6 6-6h68c3.3 0 6 2.7 6 6v8c0 3.3-2.7 6-6 6h-68c-3.3 0-6-2.7-6-6z" stroke="#000" stroke-opacity="0" stroke-width="3" fill="#fff" fill-opacity="0"/><use xlink:href="#A" transform="matrix(1,0,0,1,765,224.9999999999999) translate(9.527777777777786 12.444444444444443)"/><use xlink:href="#B" transform="matrix(1,0,0,1,765,224.9999999999999) translate(31.13271604938272 12.444444444444443)"/><path d="M710 226c0-3.3 2.7-6 6-6h28c3.3 0 6 2.7 6 6v8c0 3.3-2.7 6-6 6h-28c-3.3 0-6-2.7-6-6z" stroke="#000" stroke-opacity="0" stroke-width="3" fill="#fff" fill-opacity="0"/><use xlink:href="#u" transform="matrix(1,0,0,1,715,224.99999999999994) translate(8.395061728395067 3.7777777777777786)"/><path d="M550 226c0-3.3 2.7-6 6-6h28c3.3 0 6 2.7 6 6v8c0 3.3-2.7 6-6 6h-28c-3.3 0-6-2.7-6-6z" stroke="#000" stroke-opacity="0" stroke-width="3" fill="#fff" fill-opacity="0"/><use xlink:href="#u" transform="matrix(1,0,0,1,555,225.00000000000006) translate(8.395061728395067 3.7777777777777786)"/><path d="M780 346c0-3.3 2.7-6 6-6h28c3.3 0 6 2.7 6 6v8c0 3.3-2.7 6-6 6h-28c-3.3 0-6-2.7-6-6z" stroke="#000" stroke-opacity="0" stroke-width="3" fill="#fff" fill-opacity="0"/><use xlink:href="#C" transform="matrix(1,0,0,1,785,345) translate(10.556640625 13.117404513888886)"/><path d="M319.64 320.93l-1.08 2.8m-1.34 3.8l-1 2.93-.8 2.8m-1.1 3.85l-1.18 4.8-.2 1.06m-.8 3.93l-.24 1.1-.77 4.82m-.53 3.97l-.5 4.3-.13 1.67m-.3 4l-.1 1.35-.15 4.66m-.08 4l.06 6.02m.2 4l.2 4.24.17 1.77m.37 4l.23 2.5.48 3.47m.53 3.97l.15 1.1.86 4.83m.7 3.95v.06l1.3 5.8m.9 3.92l1.55 5.8m1.07 3.87l1.8 5.74m1.24 3.82l2.03 5.66m1.4 3.75l2.26 5.58m1.55 3.7l2.5 5.47m1.7 3.64l2.72 5.37m1.83 3.57l2.95 5.24m1.96 3.5l3.16 5.1m2.1 3.42l.18.28 3.2 4.7m2.24 3.33l.32.48 1.94 2.7 1.28 1.7m2.43 3.18l2.66 3.47 1.05 1.27m2.57 3.08l3.54 4.26.33.35m2.7 2.97l4.02 4.46m2.77 2.9l4.22 4.3m2.8 2.85l.05.04 4.34 4.07m2.92 2.73l2.47 2.3 2 1.72m3.04 2.62l4.56 3.92m3.1 2.5l4.73 3.74m3.15 2.5l1.15.88 3.7 2.68m3.24 2.35l4.55 3.3.32.22m3.35 2.2l5 3.33m3.37 2.2l5.14 3.1m3.43 2.07l1.7 1.02 3.53 1.93m3.52 1.93l2.82 1.55 2.5 1.25m3.6 1.77l2.48 1.23 2.97 1.32m3.65 1.63l.55.24 5.03 2m3.78 1.34l1.7.6 3.73 1.1.32.1m3.9.94l.14.03 3.42.64 2.35.32m3.98.5l4.64.46 1.34.08m4 .23l2.93.16 3.08.05m4 .08l3.36.05 2.67-.06m4-.1l5.77-.15.25-.02m4-.27l6-.4m4-.3l5.97-.64m3.98-.45l4.4-.48 1.57-.24m3.97-.6l5.93-.9m3.96-.63l5.9-1.15m3.93-.77l4-.77 1.9-.44m3.9-.94l5.84-1.4m3.88-1l5.78-1.64m3.86-1.1l1.48-.4 4.24-1.4m3.8-1.26l3.92-1.3 1.78-.66m3.75-1.4l5.5-2.07.13-.07m3.7-1.57l5.52-2.35m3.64-1.68l5.43-2.58m3.57-1.8l.7-.35 4.6-2.53m3.5-1.93l.5-.27 4.66-2.82m3.43-2.07l.52-.3 4.5-3m3.35-2.22l.7-.47 4.2-3.04m3.24-2.35l1.07-.77 3.68-2.9m3.14-2.5l1.58-1.24 3.04-2.62m3.03-2.62l2.2-1.87 2.28-2.16m2.93-2.74l2.85-2.66 1.48-1.52m2.8-2.86l3.54-3.6.66-.72m2.68-2.97l4.04-4.47m2.57-3.08l3.85-4.63m2.48-3.16l3.64-4.8m2.38-3.2l3.44-4.94m2.28-3.3l3.23-5.07m2.16-3.38l.47-.75 2.57-4.44m2-3.47l.88-1.5 2-3.8m1.85-3.55l1.1-2.08 1.56-3.3m1.7-3.64l1.15-2.44 1.3-3.06m1.55-3.7l1.07-2.54 1.14-3.05m1.4-3.75l.9-2.35 1.08-3.34m1.24-3.8l.6-1.82 1.1-3.94m1.1-3.86l.25-.95.5-1.97M319.63 320.96l.37-.96" stroke="#0c7cba" stroke-width="2" fill="none"/><path d="M804.66 441.2l-5.2-19.3-14.4 13.84" stroke="#0c7cba" stroke-width="2" fill="none"/><path d="M310 586c0-3.3 2.7-6 6-6h88c3.3 0 6 2.7 6 6v8c0 3.3-2.7 6-6 6h-88c-3.3 0-6-2.7-6-6z" stroke="#000" stroke-opacity="0" stroke-width="3" fill="#fff" fill-opacity="0"/><g><use xlink:href="#D" transform="matrix(1,0,0,1,315,585) translate(3.8240740740740833 12.444444444444443)"/><use xlink:href="#b" transform="matrix(1,0,0,1,315,585) translate(22.836419753086425 12.444444444444443)"/><use xlink:href="#E" transform="matrix(1,0,0,1,315,585) translate(36.23148148148149 12.444444444444443)"/><use xlink:href="#f" transform="matrix(1,0,0,1,315,585) translate(57.836419753086425 12.444444444444443)"/></g><path d="M519.9 381l-.35 2.94m-.46 3.93l-.08.64-.38 5.3m-.23 3.93l-.18 5.93m.04 3.96l.04 3.03.15 2.9m.23 3.94l.55 5.76v.14m.55 3.92l.24 1.74.75 4.1m.8 3.88l.64 2.8.8 2.95m1.1 3.8l1 3.15.88 2.47m1.4 3.7l1.24 3 1.1 2.44m1.73 3.56l1.34 2.63 1.46 2.6m2.02 3.4l1.34 2.15 1.9 2.8m2.32 3.2l1.33 1.8 2.34 2.87m2.6 3l1.4 1.6 2.64 2.73m2.82 2.78l1.76 1.68 2.62 2.3m3.03 2.55l2.58 2.1 2.1 1.55m3.2 2.33l4.1 2.78.83.5m3.36 2.1l.98.6 4.17 2.34m3.5 1.85l3.67 1.87 1.64.75m3.6 1.64l.93.44 4.55 1.85m3.7 1.4l4.84 1.74.75.24m3.77 1.18l2.2.68 3.5.94m3.84 1l5.34 1.18.45.08m3.9.7l.98.18 1.58.24 1.43.17 1.64.13h.24m3.96.05l2.43-.1 3-.27.48-.07m3.93-.55l3.2-.55 2.62-.57m3.85-.92l3.86-1 1.85-.58m3.8-1.16l.72-.23 4.87-1.73m3.7-1.38l5.5-2.22m3.63-1.6l5.4-2.43m3.54-1.76l5.3-2.67m3.47-1.9l5.18-2.9m3.4-2.02l5.06-3.1m3.3-2.14l4.94-3.3m3.23-2.28l4.8-3.5m3.13-2.4l4.64-3.7m3.04-2.54l4.47-3.9m2.93-2.65l4.3-4.1m2.8-2.8l3.96-4.1.15-.16m2.63-2.96l2.67-2.98 1.22-1.5m2.5-3.05l1.2-1.45 2.43-3.25m2.35-3.17l3.36-4.9m2.12-3.33l1.7-2.72 1.36-2.36m1.95-3.44l2.7-5.24.03-.04m1.66-3.6l.83-1.76.4-.93M519.88 381.02L520 380" stroke="#7ab648" stroke-width="2" fill="none"/><path d="M800.9 441.7l-1.75-19.93-16.62 11.13" stroke="#7ab648" stroke-width="2" fill="none"/><path d="M360 446c0-3.3 2.7-6 6-6h88c3.3 0 6 2.7 6 6v8c0 3.3-2.7 6-6 6h-88c-3.3 0-6-2.7-6-6z" stroke="#000" stroke-opacity="0" stroke-width="3" fill="#fff" fill-opacity="0"/><g><use xlink:href="#n" transform="matrix(1,0,0,1,365,445) translate(5.98456790123457 12.444444444444443)"/><use xlink:href="#l" transform="matrix(1,0,0,1,365,445) translate(24.99691358024691 12.444444444444443)"/><use xlink:href="#o" transform="matrix(1,0,0,1,365,445) translate(38.391975308641975 12.444444444444443)"/></g><path d="M470 526c0-3.3 2.7-6 6-6h88c3.3 0 6 2.7 6 6v8c0 3.3-2.7 6-6 6h-88c-3.3 0-6-2.7-6-6z" stroke="#000" stroke-opacity="0" stroke-width="3" fill="#fff" fill-opacity="0"/><g><use xlink:href="#F" transform="matrix(1,0,0,1,475,525) translate(3.8240740740740833 12.444444444444443)"/><use xlink:href="#l" transform="matrix(1,0,0,1,475,525) translate(22.836419753086425 12.444444444444443)"/><use xlink:href="#G" transform="matrix(1,0,0,1,475,525) translate(36.23148148148149 12.444444444444443)"/><use xlink:href="#H" transform="matrix(1,0,0,1,475,525) translate(57.836419753086425 12.444444444444443)"/></g><path d="M720 166c0-3.3 2.7-6 6-6h108c3.3 0 6 2.7 6 6v8c0 3.3-2.7 6-6 6H726c-3.3 0-6-2.7-6-6z" stroke="#000" stroke-opacity="0" stroke-width="3" fill="#fff" fill-opacity="0"/><g><use xlink:href="#I" transform="matrix(1,0,0,1,725,165) translate(3.8179012345679126 12.444444444444443)"/><use xlink:href="#J" transform="matrix(1,0,0,1,725,165) translate(27.97222222222223 12.444444444444443)"/><use xlink:href="#K" transform="matrix(1,0,0,1,725,165) translate(41.36728395061729 12.444444444444443)"/></g><path d="M180 126c0-3.3 2.7-6 6-6h188c3.3 0 6 2.7 6 6v8c0 3.3-2.7 6-6 6H186c-3.3 0-6-2.7-6-6z" stroke="#000" stroke-opacity="0" stroke-width="3" fill="#fff" fill-opacity="0"/><g><use xlink:href="#L" transform="matrix(1,0,0,1,185,125) translate(0 12.444444444444443)"/><use xlink:href="#J" transform="matrix(1,0,0,1,185,125) translate(12.962962962962958 12.444444444444443)"/><use xlink:href="#M" transform="matrix(1,0,0,1,185,125) translate(26.35802469135802 12.444444444444443)"/><use xlink:href="#N" transform="matrix(1,0,0,1,185,125) translate(61.790123456790106 12.444444444444443)"/><use xlink:href="#O" transform="matrix(1,0,0,1,185,125) translate(142.89506172839504 12.444444444444443)"/><use xlink:href="#P" transform="matrix(1,0,0,1,185,125) translate(0 31.111111111111107)"/><use xlink:href="#J" transform="matrix(1,0,0,1,185,125) translate(17.240740740740737 31.111111111111107)"/><use xlink:href="#Q" transform="matrix(1,0,0,1,185,125) translate(30.635802469135797 31.111111111111107)"/><use xlink:href="#R" transform="matrix(1,0,0,1,185,125) translate(52.24074074074073 31.111111111111107)"/><use xlink:href="#S" transform="matrix(1,0,0,1,185,125) translate(86.7222222222222 31.111111111111107)"/><use xlink:href="#T" transform="matrix(1,0,0,1,185,125) translate(150.58641975308637 31.111111111111107)"/><use xlink:href="#U" transform="matrix(1,0,0,1,185,125) translate(0 49.77777777777777)"/><use xlink:href="#J" transform="matrix(1,0,0,1,185,125) translate(13.783950617283946 49.77777777777777)"/><use xlink:href="#V" transform="matrix(1,0,0,1,185,125) translate(27.179012345679006 49.77777777777777)"/><use xlink:href="#W" transform="matrix(1,0,0,1,185,125) translate(48.783950617283935 49.77777777777777)"/><use xlink:href="#X" transform="matrix(1,0,0,1,185,125) translate(0 68.44444444444443)"/><use xlink:href="#J" transform="matrix(1,0,0,1,185,125) translate(12.962962962962958 68.44444444444443)"/><use xlink:href="#Y" transform="matrix(1,0,0,1,185,125) translate(26.35802469135802 68.44444444444443)"/></g><defs><path fill="#0c7cba" d="M233-177c-1 41-23 64-60 70L243 0h-38l-65-103H63V0H30v-248c88 3 205-21 203 71zM63-129c60-2 137 13 137-47 0-61-80-42-137-45v92" id="Z"/><path fill="#0c7cba" d="M27 0v-27h64v-190l-56 39v-29l58-41h29v221h61V0H27" id="aa"/><g id="a"><use transform="matrix(0.04320987654320987,0,0,0.04320987654320987,0,0)" xlink:href="#Z"/><use transform="matrix(0.030246913580246906,0,0,0.030246913580246906,11.191358024691356,2.177777777777777)" xlink:href="#aa"/></g><path fill="#0c7cba" d="M18-150v-26h174v26H18zm0 90v-26h174v26H18" id="ab"/><use transform="matrix(0.04320987654320987,0,0,0.04320987654320987,0,0)" xlink:href="#ab" id="b"/><path fill="#0c7cba" d="M194-70c0 46-34 64-81 66v29H91V-4C42-5 12-27 4-67l30-6c5 28 25 41 57 43v-87c-38-9-76-20-76-67 1-42 33-58 76-59v-23h22v23c45 0 67 20 76 56l-31 6c-5-23-18-35-45-37v78c41 10 81 20 81 70zm-81 41c51 7 71-66 19-77-6-2-12-4-19-6v83zM91-219c-47-6-63 57-18 69 6 2 12 3 18 5v-74" id="ac"/><path fill="#0c7cba" d="M103-251c84 0 111 97 45 133-19 10-37 24-39 52H78c0-63 77-55 77-114 0-30-21-42-52-43-32 0-53 17-56 46l-32-2c7-45 34-72 88-72zM77 0v-35h34V0H77" id="ad"/><g id="c"><use transform="matrix(0.04320987654320987,0,0,0.04320987654320987,0,0)" xlink:href="#ac"/><use transform="matrix(0.04320987654320987,0,0,0.04320987654320987,8.641975308641973,0)" xlink:href="#ad"/></g><path fill="#0c7cba" d="M117-194c89-4 53 116 60 194h-32v-121c0-31-8-49-39-48C34-167 62-67 57 0H25l-1-190h30c1 10-1 24 2 32 11-22 29-35 61-36" id="ae"/><g id="d"><use transform="matrix(0.04320987654320987,0,0,0.04320987654320987,0,0)" xlink:href="#ae"/><use transform="matrix(0.030246913580246906,0,0,0.030246913580246906,8.641975308641973,2.177777777777777)" xlink:href="#aa"/></g><path fill="#0c7cba" d="M101-251c82-7 93 87 43 132L82-64C71-53 59-42 53-27h129V0H18c2-99 128-94 128-182 0-28-16-43-45-43s-46 15-49 41l-32-3c6-41 34-60 81-64" id="af"/><g id="e"><use transform="matrix(0.04320987654320987,0,0,0.04320987654320987,0,0)" xlink:href="#aa"/><use transform="matrix(0.04320987654320987,0,0,0.04320987654320987,8.641975308641973,0)" xlink:href="#af"/></g><path fill="#0c7cba" d="M115-194c55 1 70 41 70 98S169 2 115 4C84 4 66-9 55-30l1 105H24l-1-265h31l2 30c10-21 28-34 59-34zm-8 174c40 0 45-34 45-75s-6-73-45-74c-42 0-51 32-51 76 0 43 10 73 51 73" id="ag"/><path fill="#0c7cba" d="M210-169c-67 3-38 105-44 169h-31v-121c0-29-5-50-35-48C34-165 62-65 56 0H25l-1-190h30c1 10-1 24 2 32 10-44 99-50 107 0 11-21 27-35 58-36 85-2 47 119 55 194h-31v-121c0-29-5-49-35-48" id="ah"/><path fill="#0c7cba" d="M108 0H70L1-190h34L89-25l56-165h34" id="ai"/><g id="f"><use transform="matrix(0.04320987654320987,0,0,0.04320987654320987,0,0)" xlink:href="#ag"/><use transform="matrix(0.04320987654320987,0,0,0.04320987654320987,8.641975308641973,0)" xlink:href="#ah"/><use transform="matrix(0.04320987654320987,0,0,0.04320987654320987,21.56172839506172,0)" xlink:href="#ai"/></g><path fill="#333" d="M101-251c68 0 85 55 85 127S166 4 100 4C33 4 14-52 14-124c0-73 17-127 87-127zm-1 229c47 0 54-49 54-102s-4-102-53-102c-51 0-55 48-55 102 0 53 5 102 54 102" id="aj"/><use transform="matrix(0.04320987654320987,0,0,0.04320987654320987,0,0)" xlink:href="#aj" id="g"/><path fill="#333" d="M27 0v-27h64v-190l-56 39v-29l58-41h29v221h61V0H27" id="ak"/><use transform="matrix(0.04320987654320987,0,0,0.04320987654320987,0,0)" xlink:href="#ak" id="h"/><path fill="#333" d="M101-251c82-7 93 87 43 132L82-64C71-53 59-42 53-27h129V0H18c2-99 128-94 128-182 0-28-16-43-45-43s-46 15-49 41l-32-3c6-41 34-60 81-64" id="al"/><use transform="matrix(0.04320987654320987,0,0,0.04320987654320987,0,0)" xlink:href="#al" id="i"/><g id="j"><use transform="matrix(0.04320987654320987,0,0,0.04320987654320987,0,0)" xlink:href="#ak"/><use transform="matrix(0.04320987654320987,0,0,0.04320987654320987,8.641975308641973,0)" xlink:href="#al"/></g><path fill="#7ab648" d="M233-177c-1 41-23 64-60 70L243 0h-38l-65-103H63V0H30v-248c88 3 205-21 203 71zM63-129c60-2 137 13 137-47 0-61-80-42-137-45v92" id="am"/><path fill="#7ab648" d="M101-251c82-7 93 87 43 132L82-64C71-53 59-42 53-27h129V0H18c2-99 128-94 128-182 0-28-16-43-45-43s-46 15-49 41l-32-3c6-41 34-60 81-64" id="an"/><g id="k"><use transform="matrix(0.04320987654320987,0,0,0.04320987654320987,0,0)" xlink:href="#am"/><use transform="matrix(0.030246913580246906,0,0,0.030246913580246906,11.191358024691356,2.177777777777777)" xlink:href="#an"/></g><path fill="#7ab648" d="M18-150v-26h174v26H18zm0 90v-26h174v26H18" id="ao"/><use transform="matrix(0.04320987654320987,0,0,0.04320987654320987,0,0)" xlink:href="#ao" id="l"/><path fill="#7ab648" d="M194-70c0 46-34 64-81 66v29H91V-4C42-5 12-27 4-67l30-6c5 28 25 41 57 43v-87c-38-9-76-20-76-67 1-42 33-58 76-59v-23h22v23c45 0 67 20 76 56l-31 6c-5-23-18-35-45-37v78c41 10 81 20 81 70zm-81 41c51 7 71-66 19-77-6-2-12-4-19-6v83zM91-219c-47-6-63 57-18 69 6 2 12 3 18 5v-74" id="ap"/><path fill="#7ab648" d="M103-251c84 0 111 97 45 133-19 10-37 24-39 52H78c0-63 77-55 77-114 0-30-21-42-52-43-32 0-53 17-56 46l-32-2c7-45 34-72 88-72zM77 0v-35h34V0H77" id="aq"/><g id="m"><use transform="matrix(0.04320987654320987,0,0,0.04320987654320987,0,0)" xlink:href="#ap"/><use transform="matrix(0.04320987654320987,0,0,0.04320987654320987,8.641975308641973,0)" xlink:href="#aq"/></g><path fill="#7ab648" d="M117-194c89-4 53 116 60 194h-32v-121c0-31-8-49-39-48C34-167 62-67 57 0H25l-1-190h30c1 10-1 24 2 32 11-22 29-35 61-36" id="ar"/><path fill="#7ab648" d="M126-127c33 6 58 20 58 59 0 88-139 92-164 29-3-8-5-16-6-25l32-3c6 27 21 44 54 44 32 0 52-15 52-46 0-38-36-46-79-43v-28c39 1 72-4 72-42 0-27-17-43-46-43-28 0-47 15-49 41l-32-3c6-42 35-63 81-64 48-1 79 21 79 65 0 36-21 52-52 59" id="as"/><g id="n"><use transform="matrix(0.04320987654320987,0,0,0.04320987654320987,0,0)" xlink:href="#ar"/><use transform="matrix(0.030246913580246906,0,0,0.030246913580246906,8.641975308641973,2.177777777777777)" xlink:href="#as"/></g><path fill="#7ab648" d="M27 0v-27h64v-190l-56 39v-29l58-41h29v221h61V0H27" id="at"/><path fill="#7ab648" d="M115-194c55 1 70 41 70 98S169 2 115 4C84 4 66-9 55-30l1 105H24l-1-265h31l2 30c10-21 28-34 59-34zm-8 174c40 0 45-34 45-75s-6-73-45-74c-42 0-51 32-51 76 0 43 10 73 51 73" id="au"/><path fill="#7ab648" d="M210-169c-67 3-38 105-44 169h-31v-121c0-29-5-50-35-48C34-165 62-65 56 0H25l-1-190h30c1 10-1 24 2 32 10-44 99-50 107 0 11-21 27-35 58-36 85-2 47 119 55 194h-31v-121c0-29-5-49-35-48" id="av"/><path fill="#7ab648" d="M108 0H70L1-190h34L89-25l56-165h34" id="aw"/><g id="o"><use transform="matrix(0.04320987654320987,0,0,0.04320987654320987,0,0)" xlink:href="#at"/><use transform="matrix(0.04320987654320987,0,0,0.04320987654320987,8.641975308641973,0)" xlink:href="#an"/><use transform="matrix(0.04320987654320987,0,0,0.04320987654320987,17.283950617283946,0)" xlink:href="#au"/><use transform="matrix(0.04320987654320987,0,0,0.04320987654320987,25.925925925925917,0)" xlink:href="#av"/><use transform="matrix(0.04320987654320987,0,0,0.04320987654320987,38.84567901234567,0)" xlink:href="#aw"/></g><path fill="#c92d39" d="M233-177c-1 41-23 64-60 70L243 0h-38l-65-103H63V0H30v-248c88 3 205-21 203 71zM63-129c60-2 137 13 137-47 0-61-80-42-137-45v92" id="ax"/><path fill="#c92d39" d="M54-142c48-35 137-8 131 61C196 18 31 33 14-55l32-4c7 23 22 37 52 37 35-1 51-22 54-58 4-55-73-65-99-34H22l8-134h141v27H59" id="ay"/><g id="p"><use transform="matrix(0.04320987654320987,0,0,0.04320987654320987,0,0)" xlink:href="#ax"/><use transform="matrix(0.030246913580246906,0,0,0.030246913580246906,11.191358024691356,2.177777777777777)" xlink:href="#ay"/></g><path fill="#c92d39" d="M18-150v-26h174v26H18zm0 90v-26h174v26H18" id="az"/><use transform="matrix(0.04320987654320987,0,0,0.04320987654320987,0,0)" xlink:href="#az" id="q"/><path fill="#c92d39" d="M194-70c0 46-34 64-81 66v29H91V-4C42-5 12-27 4-67l30-6c5 28 25 41 57 43v-87c-38-9-76-20-76-67 1-42 33-58 76-59v-23h22v23c45 0 67 20 76 56l-31 6c-5-23-18-35-45-37v78c41 10 81 20 81 70zm-81 41c51 7 71-66 19-77-6-2-12-4-19-6v83zM91-219c-47-6-63 57-18 69 6 2 12 3 18 5v-74" id="aA"/><path fill="#c92d39" d="M103-251c84 0 111 97 45 133-19 10-37 24-39 52H78c0-63 77-55 77-114 0-30-21-42-52-43-32 0-53 17-56 46l-32-2c7-45 34-72 88-72zM77 0v-35h34V0H77" id="aB"/><g id="r"><use transform="matrix(0.04320987654320987,0,0,0.04320987654320987,0,0)" xlink:href="#aA"/><use transform="matrix(0.04320987654320987,0,0,0.04320987654320987,8.641975308641973,0)" xlink:href="#aB"/></g><path fill="#c92d39" d="M117-194c89-4 53 116 60 194h-32v-121c0-31-8-49-39-48C34-167 62-67 57 0H25l-1-190h30c1 10-1 24 2 32 11-22 29-35 61-36" id="aC"/><g id="s"><use transform="matrix(0.04320987654320987,0,0,0.04320987654320987,0,0)" xlink:href="#aC"/><use transform="matrix(0.030246913580246906,0,0,0.030246913580246906,8.641975308641973,2.177777777777777)" xlink:href="#ay"/></g><path fill="#c92d39" d="M27 0v-27h64v-190l-56 39v-29l58-41h29v221h61V0H27" id="aD"/><path fill="#c92d39" d="M101-251c82-7 93 87 43 132L82-64C71-53 59-42 53-27h129V0H18c2-99 128-94 128-182 0-28-16-43-45-43s-46 15-49 41l-32-3c6-41 34-60 81-64" id="aE"/><path fill="#c92d39" d="M115-194c55 1 70 41 70 98S169 2 115 4C84 4 66-9 55-30l1 105H24l-1-265h31l2 30c10-21 28-34 59-34zm-8 174c40 0 45-34 45-75s-6-73-45-74c-42 0-51 32-51 76 0 43 10 73 51 73" id="aF"/><path fill="#c92d39" d="M210-169c-67 3-38 105-44 169h-31v-121c0-29-5-50-35-48C34-165 62-65 56 0H25l-1-190h30c1 10-1 24 2 32 10-44 99-50 107 0 11-21 27-35 58-36 85-2 47 119 55 194h-31v-121c0-29-5-49-35-48" id="aG"/><path fill="#c92d39" d="M108 0H70L1-190h34L89-25l56-165h34" id="aH"/><g id="t"><use transform="matrix(0.04320987654320987,0,0,0.04320987654320987,0,0)" xlink:href="#aD"/><use transform="matrix(0.04320987654320987,0,0,0.04320987654320987,8.641975308641973,0)" xlink:href="#aE"/><use transform="matrix(0.04320987654320987,0,0,0.04320987654320987,17.283950617283946,0)" xlink:href="#aF"/><use transform="matrix(0.04320987654320987,0,0,0.04320987654320987,25.925925925925917,0)" xlink:href="#aG"/><use transform="matrix(0.04320987654320987,0,0,0.04320987654320987,38.84567901234567,0)" xlink:href="#aH"/></g><path fill="#333" d="M33 0v-38h34V0H33" id="aI"/><g id="u"><use transform="matrix(0.04320987654320987,0,0,0.04320987654320987,0,0)" xlink:href="#aI"/><use transform="matrix(0.04320987654320987,0,0,0.04320987654320987,4.320987654320986,0)" xlink:href="#aI"/><use transform="matrix(0.04320987654320987,0,0,0.04320987654320987,8.641975308641973,0)" xlink:href="#aI"/><use transform="matrix(0.04320987654320987,0,0,0.04320987654320987,12.962962962962958,0)" xlink:href="#aI"/><use transform="matrix(0.04320987654320987,0,0,0.04320987654320987,17.283950617283946,0)" xlink:href="#aI"/></g><path fill="#333" d="M126-127c33 6 58 20 58 59 0 88-139 92-164 29-3-8-5-16-6-25l32-3c6 27 21 44 54 44 32 0 52-15 52-46 0-38-36-46-79-43v-28c39 1 72-4 72-42 0-27-17-43-46-43-28 0-47 15-49 41l-32-3c6-42 35-63 81-64 48-1 79 21 79 65 0 36-21 52-52 59" id="aJ"/><g id="v"><use transform="matrix(0.04320987654320987,0,0,0.04320987654320987,0,0)" xlink:href="#ak"/><use transform="matrix(0.04320987654320987,0,0,0.04320987654320987,8.641975308641973,0)" xlink:href="#aJ"/></g><path fill="#333" d="M155-56V0h-30v-56H8v-25l114-167h33v167h35v25h-35zm-30-156c-27 46-58 90-88 131h88v-131" id="aK"/><g id="w"><use transform="matrix(0.04320987654320987,0,0,0.04320987654320987,0,0)" xlink:href="#ak"/><use transform="matrix(0.04320987654320987,0,0,0.04320987654320987,8.641975308641973,0)" xlink:href="#aK"/></g><g id="x"><use transform="matrix(0.04320987654320987,0,0,0.04320987654320987,0,0)" xlink:href="#al"/><use transform="matrix(0.04320987654320987,0,0,0.04320987654320987,8.641975308641973,0)" xlink:href="#aK"/></g><path fill="#333" d="M99-251c64 0 84 50 84 122C183-37 130 33 47-8c-14-7-20-23-25-40l30-5c6 39 69 39 84 7 9-19 16-44 16-74-10 22-31 35-62 35-49 0-73-33-73-83 0-54 28-83 82-83zm-1 141c31-1 51-18 51-49 0-36-14-67-51-67-34 0-49 23-49 58 0 34 15 58 49 58" id="aL"/><g id="y"><use transform="matrix(0.04320987654320987,0,0,0.04320987654320987,0,0)" xlink:href="#aK"/><use transform="matrix(0.04320987654320987,0,0,0.04320987654320987,8.641975308641973,0)" xlink:href="#aL"/></g><path fill="#333" d="M54-142c48-35 137-8 131 61C196 18 31 33 14-55l32-4c7 23 22 37 52 37 35-1 51-22 54-58 4-55-73-65-99-34H22l8-134h141v27H59" id="aM"/><g id="z"><use transform="matrix(0.04320987654320987,0,0,0.04320987654320987,0,0)" xlink:href="#aM"/><use transform="matrix(0.04320987654320987,0,0,0.04320987654320987,8.641975308641973,0)" xlink:href="#aj"/></g><path fill="#333" d="M110-160c48 1 74 30 74 79 0 53-28 85-80 85-65 0-83-55-86-122-5-90 50-162 133-122 14 7 22 21 27 39l-31 6c-5-40-67-38-82-6-9 19-15 44-15 74 11-20 30-34 60-33zm-7 138c34 0 49-23 49-58s-16-56-50-56c-29 0-50 16-49 49 1 36 15 65 50 65" id="aN"/><g id="A"><use transform="matrix(0.04320987654320987,0,0,0.04320987654320987,0,0)" xlink:href="#aN"/><use transform="matrix(0.04320987654320987,0,0,0.04320987654320987,8.641975308641973,0)" xlink:href="#aj"/></g><path fill="#333" d="M115-194c55 1 70 41 70 98S169 2 115 4C84 4 66-9 55-30l1 105H24l-1-265h31l2 30c10-21 28-34 59-34zm-8 174c40 0 45-34 45-75s-6-73-45-74c-42 0-51 32-51 76 0 43 10 73 51 73" id="aO"/><path fill="#333" d="M210-169c-67 3-38 105-44 169h-31v-121c0-29-5-50-35-48C34-165 62-65 56 0H25l-1-190h30c1 10-1 24 2 32 10-44 99-50 107 0 11-21 27-35 58-36 85-2 47 119 55 194h-31v-121c0-29-5-49-35-48" id="aP"/><path fill="#333" d="M108 0H70L1-190h34L89-25l56-165h34" id="aQ"/><g id="B"><use transform="matrix(0.04320987654320987,0,0,0.04320987654320987,0,0)" xlink:href="#aO"/><use transform="matrix(0.04320987654320987,0,0,0.04320987654320987,8.641975308641973,0)" xlink:href="#aP"/><use transform="matrix(0.04320987654320987,0,0,0.04320987654320987,21.56172839506172,0)" xlink:href="#aQ"/></g><path fill="#333" d="M162-956h172c27-126 45-202 56-228 43-96 120-168 248-168 93 0 156 41 187 124l-120 48c-9-29-32-43-71-43-58 0-100 34-127 101-7 17-21 72-40 166h195l-27 130H440L230 182c-17 98-104 218-210 216l5-129c42-28 69-69 80-122l202-973H135" id="aR"/><g id="C"><use transform="matrix(0.007595486111111109,0,0,0.007595486111111109,0,0)" xlink:href="#aR"/><use transform="matrix(0.007595486111111109,0,0,0.007595486111111109,4.443359374999999,0)" xlink:href="#aR"/></g><g id="D"><use transform="matrix(0.04320987654320987,0,0,0.04320987654320987,0,0)" xlink:href="#ae"/><use transform="matrix(0.030246913580246906,0,0,0.030246913580246906,8.641975308641973,2.177777777777777)" xlink:href="#af"/></g><path fill="#0c7cba" d="M155-56V0h-30v-56H8v-25l114-167h33v167h35v25h-35zm-30-156c-27 46-58 90-88 131h88v-131" id="aS"/><path fill="#0c7cba" d="M134-131c28 9 52 24 51 62-1 50-34 73-85 73S17-19 16-69c0-36 21-54 49-61-75-25-45-126 34-121 46 3 78 18 79 63 0 33-17 51-44 57zm-34-11c31 1 46-15 46-44 0-28-17-43-47-42-29 0-46 13-45 42 1 28 16 44 46 44zm1 122c35 0 51-18 51-52 0-30-18-46-53-46-33 0-51 17-51 47 0 34 19 51 53 51" id="aT"/><g id="E"><use transform="matrix(0.04320987654320987,0,0,0.04320987654320987,0,0)" xlink:href="#aS"/><use transform="matrix(0.04320987654320987,0,0,0.04320987654320987,8.641975308641973,0)" xlink:href="#aT"/></g><path fill="#7ab648" d="M155-56V0h-30v-56H8v-25l114-167h33v167h35v25h-35zm-30-156c-27 46-58 90-88 131h88v-131" id="aU"/><g id="F"><use transform="matrix(0.04320987654320987,0,0,0.04320987654320987,0,0)" xlink:href="#ar"/><use transform="matrix(0.030246913580246906,0,0,0.030246913580246906,8.641975308641973,2.177777777777777)" xlink:href="#aU"/></g><path fill="#7ab648" d="M110-160c48 1 74 30 74 79 0 53-28 85-80 85-65 0-83-55-86-122-5-90 50-162 133-122 14 7 22 21 27 39l-31 6c-5-40-67-38-82-6-9 19-15 44-15 74 11-20 30-34 60-33zm-7 138c34 0 49-23 49-58s-16-56-50-56c-29 0-50 16-49 49 1 36 15 65 50 65" id="aV"/><g id="G"><use transform="matrix(0.04320987654320987,0,0,0.04320987654320987,0,0)" xlink:href="#as"/><use transform="matrix(0.04320987654320987,0,0,0.04320987654320987,8.641975308641973,0)" xlink:href="#aV"/></g><g id="H"><use transform="matrix(0.04320987654320987,0,0,0.04320987654320987,0,0)" xlink:href="#au"/><use transform="matrix(0.04320987654320987,0,0,0.04320987654320987,8.641975308641973,0)" xlink:href="#av"/><use transform="matrix(0.04320987654320987,0,0,0.04320987654320987,21.56172839506172,0)" xlink:href="#aw"/></g><path fill="#333" d="M137 0h-34L2-248h35l83 218 83-218h36" id="aW"/><path fill="#333" d="M63-220v92h138v28H63V0H30v-248h175v28H63" id="aX"/><g id="I"><use transform="matrix(0.04320987654320987,0,0,0.04320987654320987,0,0)" xlink:href="#aW"/><use transform="matrix(0.04320987654320987,0,0,0.04320987654320987,10.370370370370368,0)" xlink:href="#aX"/></g><path fill="#333" d="M18-150v-26h174v26H18zm0 90v-26h174v26H18" id="aY"/><use transform="matrix(0.04320987654320987,0,0,0.04320987654320987,0,0)" xlink:href="#aY" id="J"/><path fill="#333" d="M194-70c0 46-34 64-81 66v29H91V-4C42-5 12-27 4-67l30-6c5 28 25 41 57 43v-87c-38-9-76-20-76-67 1-42 33-58 76-59v-23h22v23c45 0 67 20 76 56l-31 6c-5-23-18-35-45-37v78c41 10 81 20 81 70zm-81 41c51 7 71-66 19-77-6-2-12-4-19-6v83zM91-219c-47-6-63 57-18 69 6 2 12 3 18 5v-74" id="aZ"/><path fill="#333" d="M134-131c28 9 52 24 51 62-1 50-34 73-85 73S17-19 16-69c0-36 21-54 49-61-75-25-45-126 34-121 46 3 78 18 79 63 0 33-17 51-44 57zm-34-11c31 1 46-15 46-44 0-28-17-43-47-42-29 0-46 13-45 42 1 28 16 44 46 44zm1 122c35 0 51-18 51-52 0-30-18-46-53-46-33 0-51 17-51 47 0 34 19 51 53 51" id="ba"/><g id="K"><use transform="matrix(0.04320987654320987,0,0,0.04320987654320987,0,0)" xlink:href="#aZ"/><use transform="matrix(0.04320987654320987,0,0,0.04320987654320987,8.641975308641973,0)" xlink:href="#ba"/><use transform="matrix(0.04320987654320987,0,0,0.04320987654320987,17.283950617283946,0)" xlink:href="#aj"/><use transform="matrix(0.04320987654320987,0,0,0.04320987654320987,25.925925925925917,0)" xlink:href="#aj"/><use transform="matrix(0.04320987654320987,0,0,0.04320987654320987,34.56790123456789,0)" xlink:href="#aI"/><use transform="matrix(0.04320987654320987,0,0,0.04320987654320987,38.88888888888888,0)" xlink:href="#aj"/><use transform="matrix(0.04320987654320987,0,0,0.04320987654320987,47.53086419753085,0)" xlink:href="#aj"/><use transform="matrix(0.04320987654320987,0,0,0.04320987654320987,56.17283950617283,0)" xlink:href="#aj"/></g><path fill="#333" d="M177-190C167-65 218 103 67 71c-23-6-38-20-44-43l32-5c15 47 100 32 89-28v-30C133-14 115 1 83 1 29 1 15-40 15-95c0-56 16-97 71-98 29-1 48 16 59 35 1-10 0-23 2-32h30zM94-22c36 0 50-32 50-73 0-42-14-75-50-75-39 0-46 34-46 75s6 73 46 73" id="bb"/><use transform="matrix(0.04320987654320987,0,0,0.04320987654320987,0,0)" xlink:href="#bb" id="L"/><path fill="#333" d="M252-156c43 0 55 33 55 80 0 46-13 78-56 78-42 0-55-33-55-78 0-48 12-80 56-80zM93 0H65l162-248h28zM13-171c-1-47 13-79 56-79s55 33 55 79-13 79-55 79c-43 0-56-33-56-79zM251-17c28 0 30-29 30-59 0-31-1-60-29-60-29 0-31 29-31 60 0 29 2 59 30 59zM69-112c27 0 28-30 29-59 0-31-1-60-29-60-29 0-30 30-30 60s2 59 30 59" id="bc"/><g id="M"><use transform="matrix(0.04320987654320987,0,0,0.04320987654320987,0,0)" xlink:href="#ak"/><use transform="matrix(0.04320987654320987,0,0,0.04320987654320987,8.641975308641973,0)" xlink:href="#aM"/><use transform="matrix(0.04320987654320987,0,0,0.04320987654320987,17.283950617283946,0)" xlink:href="#bc"/></g><path fill="#333" d="M24-231v-30h32v30H24zM24 0v-190h32V0H24" id="bd"/><path fill="#333" d="M117-194c89-4 53 116 60 194h-32v-121c0-31-8-49-39-48C34-167 62-67 57 0H25l-1-190h30c1 10-1 24 2 32 11-22 29-35 61-36" id="be"/><path fill="#333" d="M96-169c-40 0-48 33-48 73s9 75 48 75c24 0 41-14 43-38l32 2c-6 37-31 61-74 61-59 0-76-41-82-99-10-93 101-131 147-64 4 7 5 14 7 22l-32 3c-4-21-16-35-41-35" id="bf"/><path fill="#333" d="M114-163C36-179 61-72 57 0H25l-1-190h30c1 12-1 29 2 39 6-27 23-49 58-41v29" id="bg"/><path fill="#333" d="M100-194c63 0 86 42 84 106H49c0 40 14 67 53 68 26 1 43-12 49-29l28 8c-11 28-37 45-77 45C44 4 14-33 15-96c1-61 26-98 85-98zm52 81c6-60-76-77-97-28-3 7-6 17-6 28h103" id="bh"/><path fill="#333" d="M59-47c-2 24 18 29 38 22v24C64 9 27 4 27-40v-127H5v-23h24l9-43h21v43h35v23H59v120" id="bi"/><path fill="#333" d="M100-194c62-1 85 37 85 99 1 63-27 99-86 99S16-35 15-95c0-66 28-99 85-99zM99-20c44 1 53-31 53-75 0-43-8-75-51-75s-53 32-53 75 10 74 51 75" id="bj"/><g id="N"><use transform="matrix(0.04320987654320987,0,0,0.04320987654320987,0,0)" xlink:href="#bd"/><use transform="matrix(0.04320987654320987,0,0,0.04320987654320987,3.4135802469135794,0)" xlink:href="#be"/><use transform="matrix(0.04320987654320987,0,0,0.04320987654320987,12.055555555555554,0)" xlink:href="#bf"/><use transform="matrix(0.04320987654320987,0,0,0.04320987654320987,19.83333333333333,0)" xlink:href="#bg"/><use transform="matrix(0.04320987654320987,0,0,0.04320987654320987,24.975308641975303,0)" xlink:href="#bh"/><use transform="matrix(0.04320987654320987,0,0,0.04320987654320987,33.61728395061728,0)" xlink:href="#aP"/><use transform="matrix(0.04320987654320987,0,0,0.04320987654320987,46.537037037037024,0)" xlink:href="#bh"/><use transform="matrix(0.04320987654320987,0,0,0.04320987654320987,55.179012345679,0)" xlink:href="#be"/><use transform="matrix(0.04320987654320987,0,0,0.04320987654320987,63.82098765432097,0)" xlink:href="#bi"/><use transform="matrix(0.04320987654320987,0,0,0.04320987654320987,68.14197530864196,0)" xlink:href="#bj"/></g><path fill="#333" d="M141-36C126-15 110 5 73 4 37 3 15-17 15-53c-1-64 63-63 125-63 3-35-9-54-41-54-24 1-41 7-42 31l-33-3c5-37 33-52 76-52 45 0 72 20 72 64v82c-1 20 7 32 28 27v20c-31 9-61-2-59-35zM48-53c0 20 12 33 32 33 41-3 63-29 60-74-43 2-92-5-92 41" id="bk"/><path fill="#333" d="M84 4C-5 8 30-112 23-190h32v120c0 31 7 50 39 49 72-2 45-101 50-169h31l1 190h-30c-1-10 1-25-2-33-11 22-28 36-60 37" id="bl"/><path fill="#333" d="M24 0v-261h32V0H24" id="bm"/><g id="O"><use transform="matrix(0.04320987654320987,0,0,0.04320987654320987,0,0)" xlink:href="#bk"/><use transform="matrix(0.04320987654320987,0,0,0.04320987654320987,8.641975308641973,0)" xlink:href="#be"/><use transform="matrix(0.04320987654320987,0,0,0.04320987654320987,17.283950617283946,0)" xlink:href="#bl"/><use transform="matrix(0.04320987654320987,0,0,0.04320987654320987,25.925925925925917,0)" xlink:href="#bk"/><use transform="matrix(0.04320987654320987,0,0,0.04320987654320987,34.56790123456789,0)" xlink:href="#bm"/></g><use transform="matrix(0.04320987654320987,0,0,0.04320987654320987,0,0)" xlink:href="#aP" id="P"/><g id="Q"><use transform="matrix(0.04320987654320987,0,0,0.04320987654320987,0,0)" xlink:href="#ak"/><use transform="matrix(0.04320987654320987,0,0,0.04320987654320987,8.641975308641973,0)" xlink:href="#al"/></g><g id="R"><use transform="matrix(0.04320987654320987,0,0,0.04320987654320987,0,0)" xlink:href="#bd"/><use transform="matrix(0.04320987654320987,0,0,0.04320987654320987,3.4135802469135794,0)" xlink:href="#be"/><use transform="matrix(0.04320987654320987,0,0,0.04320987654320987,12.055555555555554,0)" xlink:href="#bi"/><use transform="matrix(0.04320987654320987,0,0,0.04320987654320987,16.376543209876537,0)" xlink:href="#bh"/><use transform="matrix(0.04320987654320987,0,0,0.04320987654320987,25.018518518518512,0)" xlink:href="#bg"/></g><path fill="#333" d="M85-194c31 0 48 13 60 33l-1-100h32l1 261h-30c-2-10 0-23-3-31C134-8 116 4 85 4 32 4 16-35 15-94c0-66 23-100 70-100zm9 24c-40 0-46 34-46 75 0 40 6 74 45 74 42 0 51-32 51-76 0-42-9-74-50-73" id="bn"/><path fill="#333" d="M135-143c-3-34-86-38-87 0 15 53 115 12 119 90S17 21 10-45l28-5c4 36 97 45 98 0-10-56-113-15-118-90-4-57 82-63 122-42 12 7 21 19 24 35" id="bo"/><g id="S"><use transform="matrix(0.04320987654320987,0,0,0.04320987654320987,0,0)" xlink:href="#aO"/><use transform="matrix(0.04320987654320987,0,0,0.04320987654320987,8.641975308641973,0)" xlink:href="#bh"/><use transform="matrix(0.04320987654320987,0,0,0.04320987654320987,17.283950617283946,0)" xlink:href="#bg"/><use transform="matrix(0.04320987654320987,0,0,0.04320987654320987,22.42592592592592,0)" xlink:href="#bd"/><use transform="matrix(0.04320987654320987,0,0,0.04320987654320987,25.8395061728395,0)" xlink:href="#bj"/><use transform="matrix(0.04320987654320987,0,0,0.04320987654320987,34.481481481481474,0)" xlink:href="#bn"/><use transform="matrix(0.04320987654320987,0,0,0.04320987654320987,43.12345679012345,0)" xlink:href="#bj"/><use transform="matrix(0.04320987654320987,0,0,0.04320987654320987,51.76543209876542,0)" xlink:href="#bo"/></g><g id="T"><use transform="matrix(0.04320987654320987,0,0,0.04320987654320987,0,0)" xlink:href="#aP"/><use transform="matrix(0.04320987654320987,0,0,0.04320987654320987,12.91975308641975,0)" xlink:href="#aQ"/></g><g id="U"><use transform="matrix(0.04320987654320987,0,0,0.04320987654320987,0,0)" xlink:href="#bd"/><use transform="matrix(0.030246913580246906,0,0,0.030246913580246906,3.4135802469135794,2.177777777777777)" xlink:href="#ak"/></g><path fill="#333" d="M64 0c3-98 48-159 88-221H18v-27h164v26C143-157 98-101 97 0H64" id="bp"/><g id="V"><use transform="matrix(0.04320987654320987,0,0,0.04320987654320987,0,0)" xlink:href="#al"/><use transform="matrix(0.04320987654320987,0,0,0.04320987654320987,8.641975308641973,0)" xlink:href="#bp"/></g><g id="W"><use transform="matrix(0.04320987654320987,0,0,0.04320987654320987,0,0)" xlink:href="#aO"/><use transform="matrix(0.04320987654320987,0,0,0.04320987654320987,8.641975308641973,0)" xlink:href="#bk"/><use transform="matrix(0.04320987654320987,0,0,0.04320987654320987,17.283950617283946,0)" xlink:href="#aQ"/></g><use transform="matrix(0.04320987654320987,0,0,0.04320987654320987,0,0)" xlink:href="#be" id="X"/><g id="Y"><use transform="matrix(0.04320987654320987,0,0,0.04320987654320987,0,0)" xlink:href="#aM"/><use transform="matrix(0.04320987654320987,0,0,0.04320987654320987,8.641975308641973,0)" xlink:href="#aO"/><use transform="matrix(0.04320987654320987,0,0,0.04320987654320987,17.283950617283946,0)" xlink:href="#bk"/><use transform="matrix(0.04320987654320987,0,0,0.04320987654320987,25.925925925925917,0)" xlink:href="#aQ"/></g></defs></g></svg>