<svg xmlns="http://www.w3.org/2000/svg" xmlns:xlink="http://www.w3.org/1999/xlink" xmlns:lucid="lucid" width="643.43" height="349.26"><g transform="translate(-36.574074074074076 -40.000000000000085)" lucid:page-tab-id="0_0"><path d="M61 120h540.5M61.03 120H60" stroke="#5e5e5e" stroke-width="2" fill="none"/><path d="M616.76 120l-14.26 4.64v-9.28z" stroke="#5e5e5e" stroke-width="2" fill="#5e5e5e"/><path d="M160 121v40.5M160 121.03V120" stroke="#5e5e5e" stroke-width="2" fill="none"/><path d="M160 176.76l-4.64-14.26h9.28z" stroke="#5e5e5e" stroke-width="2" fill="#5e5e5e"/><path d="M240 121v60.5M240 121.03V120" stroke="#5e5e5e" stroke-width="2" fill="none"/><path d="M240 196.76l-4.64-14.26h9.28z" stroke="#5e5e5e" stroke-width="2" fill="#5e5e5e"/><path d="M400 121v100.5M400 121.03V120" stroke="#5e5e5e" stroke-width="2" fill="none"/><path d="M400 236.76l-4.64-14.26h9.28z" stroke="#5e5e5e" stroke-width="2" fill="#5e5e5e"/><path d="M140 186c0-3.3 2.7-6 6-6h28c3.3 0 6 2.7 6 6v8c0 3.3-2.7 6-6 6h-28c-3.3 0-6-2.7-6-6z" stroke="#000" stroke-opacity="0" stroke-width="3" fill="#fff" fill-opacity="0"/><use xlink:href="#a" transform="matrix(1,0,0,1,145,185.00000000000003) translate(2.058641975308646 12.444444444444443)"/><path d="M200 206c0-3.3 2.7-6 6-6h68c3.3 0 6 2.7 6 6v8c0 3.3-2.7 6-6 6h-68c-3.3 0-6-2.7-6-6z" stroke="#000" stroke-opacity="0" stroke-width="3" fill="#fff" fill-opacity="0"/><use xlink:href="#b" transform="matrix(1,0,0,1,205,205.00000000000003) translate(22.058641975308646 12.444444444444443)"/><path d="M360 246c0-3.3 2.7-6 6-6h68c3.3 0 6 2.7 6 6v8c0 3.3-2.7 6-6 6h-68c-3.3 0-6-2.7-6-6z" stroke="#000" stroke-opacity="0" stroke-width="3" fill="#fff" fill-opacity="0"/><use xlink:href="#c" transform="matrix(1,0,0,1,365,245) translate(19.033950617283956 12.444444444444443)"/><path d="M140.97 180.22l258.06 59.56M141 180.23l-1-.23M399 239.77l1 .23" stroke="#0c7cba" stroke-width="2" fill="none"/><path d="M160 266c0-3.3 2.7-6 6-6h208c3.3 0 6 2.7 6 6v8c0 3.3-2.7 6-6 6H166c-3.3 0-6-2.7-6-6z" stroke="#000" stroke-opacity="0" stroke-width="3" fill="#fff" fill-opacity="0"/><use xlink:href="#d" transform="matrix(1,0,0,1,165,265) translate(4.234567901234584 12.444444444444443)"/><use xlink:href="#e" transform="matrix(1,0,0,1,165,265) translate(17.197530864197542 12.444444444444443)"/><use xlink:href="#f" transform="matrix(1,0,0,1,165,265) translate(30.592592592592602 12.444444444444443)"/><use xlink:href="#g" transform="matrix(1,0,0,1,165,265) translate(57.38271604938272 12.444444444444443)"/><use xlink:href="#h" transform="matrix(1,0,0,1,165,265) translate(123.79629629629629 12.444444444444443)"/><use xlink:href="#i" transform="matrix(1,0,0,1,165,265) translate(145.4012345679012 12.444444444444443)"/><use xlink:href="#j" transform="matrix(1,0,0,1,165,265) translate(169.55555555555554 12.444444444444443)"/><use xlink:href="#k" transform="matrix(1,0,0,1,165,265) translate(59.86728395061729 31.111111111111107)"/><use xlink:href="#e" transform="matrix(1,0,0,1,165,265) translate(67.60185185185186 31.111111111111107)"/><use xlink:href="#l" transform="matrix(1,0,0,1,165,265) translate(80.99691358024691 31.111111111111107)"/><use xlink:href="#m" transform="matrix(1,0,0,1,165,265) translate(129.39197530864197 31.111111111111107)"/><use xlink:href="#n" transform="matrix(1,0,0,1,165,265) translate(66.11111111111111 49.77777777777777)"/><use xlink:href="#o" transform="matrix(1,0,0,1,165,265) translate(83.82716049382717 49.77777777777777)"/><use xlink:href="#p" transform="matrix(1,0,0,1,165,265) translate(97.22222222222221 49.77777777777777)"/><use xlink:href="#q" transform="matrix(1,0,0,1,165,265) translate(118.82716049382715 49.77777777777777)"/><use xlink:href="#r" transform="matrix(1,0,0,1,165,265) translate(83.20061728395062 68.44444444444443)"/><use xlink:href="#e" transform="matrix(1,0,0,1,165,265) translate(104.76234567901234 68.44444444444443)"/><use xlink:href="#s" transform="matrix(1,0,0,1,165,265) translate(118.1574074074074 68.44444444444443)"/><path d="M520 61v2.97m0 3.95v5.94m0 3.95v5.94m0 3.96v5.93m0 3.96v5.92m0 3.96v5.93m0 3.97v5.93m0 3.96v5.93m0 3.94v5.94m0 3.95v5.94m0 3.95v5.94m0 3.95v5.94m0 3.96v5.93m0 3.96v5.92m0 3.96v5.93m0 3.97v5.93m0 3.96v5.93m0 3.94v5.94m0 3.95V239M520 61.03V60M520 238.97V240" stroke="#0c7cba" stroke-width="2" fill="none"/><path d="M520 206c0-3.3 2.7-6 6-6h28c3.3 0 6 2.7 6 6v8c0 3.3-2.7 6-6 6h-28c-3.3 0-6-2.7-6-6z" stroke="#000" stroke-opacity="0" stroke-width="3" fill="#fff" fill-opacity="0"/><use xlink:href="#t" transform="matrix(1,0,0,1,525,205.00000000000003) translate(10.556640625 13.117404513888886)"/><path d="M70 106c0-3.3 2.7-6 6-6h8c3.3 0 6 2.7 6 6v8c0 3.3-2.7 6-6 6h-8c-3.3 0-6-2.7-6-6z" stroke="#000" stroke-opacity="0" stroke-width="3" fill="#fff" fill-opacity="0"/><use xlink:href="#u" transform="matrix(1,0,0,1,75,105.00000000000006) translate(0.6790123456790136 12.444444444444443)"/><path d="M140 106c0-3.3 2.7-6 6-6h28c3.3 0 6 2.7 6 6v8c0 3.3-2.7 6-6 6h-28c-3.3 0-6-2.7-6-6z" stroke="#000" stroke-opacity="0" stroke-width="3" fill="#fff" fill-opacity="0"/><use xlink:href="#v" transform="matrix(1,0,0,1,145,105) translate(10.679012345679013 12.444444444444443)"/><path d="M220 106c0-3.3 2.7-6 6-6h28c3.3 0 6 2.7 6 6v8c0 3.3-2.7 6-6 6h-28c-3.3 0-6-2.7-6-6z" stroke="#000" stroke-opacity="0" stroke-width="3" fill="#fff" fill-opacity="0"/><use xlink:href="#w" transform="matrix(1,0,0,1,225,105.00000000000006) translate(10.679012345679013 12.444444444444443)"/><path d="M380 106c0-3.3 2.7-6 6-6h28c3.3 0 6 2.7 6 6v8c0 3.3-2.7 6-6 6h-28c-3.3 0-6-2.7-6-6z" stroke="#000" stroke-opacity="0" stroke-width="3" fill="#fff" fill-opacity="0"/><use xlink:href="#x" transform="matrix(1,0,0,1,385,105.00000000000006) translate(6.358024691358027 12.444444444444443)"/><path d="M460 106c0-3.3 2.7-6 6-6h28c3.3 0 6 2.7 6 6v8c0 3.3-2.7 6-6 6h-28c-3.3 0-6-2.7-6-6z" stroke="#000" stroke-opacity="0" stroke-width="3" fill="#fff" fill-opacity="0"/><use xlink:href="#y" transform="matrix(1,0,0,1,465,105.00000000000006) translate(6.941358024691361 12.444444444444443)"/><path d="M520 106c0-3.3 2.7-6 6-6h48c3.3 0 6 2.7 6 6v8c0 3.3-2.7 6-6 6h-48c-3.3 0-6-2.7-6-6z" stroke="#000" stroke-opacity="0" stroke-width="3" fill="#fff" fill-opacity="0"/><use xlink:href="#z" transform="matrix(1,0,0,1,525,105.00000000000006) translate(3.827160493827165 12.444444444444443)"/><use xlink:href="#A" transform="matrix(1,0,0,1,525,105.00000000000006) translate(25.432098765432098 12.444444444444443)"/><path d="M159.73 200.96l-.8 2.86m-1.05 3.8l-.66 2.43-.78 3.34m-.9 3.84l-.4 1.82-.75 4m-.74 3.9l-.07.4-.8 5.46m-.47 3.92l-.57 5.83v.08m-.22 3.95l-.17 3.16-.04 2.76m-.04 3.96v.33l.17 5.6m.23 3.95l.34 4.46.17 1.46m.48 3.93l.2 1.72.68 4.14m.66 3.9l1.2 5.8m.93 3.85l1.3 5.1.2.65m1.12 3.8l1.2 3.98.57 1.67m1.27 3.75l.5 1.42.83 2.15.86 1.94m1.82 3.5l.64 1.13 1.44 2.26 1.13 1.6m2.4 3.14l2.1 2.44 1.87 1.96m2.84 2.75l.55.52 3.23 2.8.7.54m3.13 2.44l4.34 3.05.53.33m3.34 2.12l1.3.82 3.83 2.16m3.47 1.9l5.3 2.66m3.6 1.63l5.42 2.4m3.67 1.46l5.53 2.13m3.72 1.34l5.64 1.86m3.75 1.24l1.8.58 3.9 1.08m3.82 1.06l5.7 1.57m3.83 1.03l5.76 1.42m3.9.73l3.07.32 2.84.13m3.96.04l2.85-.03 3.1-.2m3.93-.28l5.9-.72m3.9-.67l3.3-.6 2.5-.6m3.85-.9l.27-.07 5.42-1.6m3.73-1.3l2.62-.95 2.9-1.22m3.6-1.62l3.16-1.56 2.1-1.2m3.4-2l2.33-1.5 2.57-1.86m3.1-2.45l.7-.58 2.73-2.5.94-.95m2.7-2.9l1.08-1.23 2.05-2.62.56-.78m2.2-3.28l3.3-4.92m2.22-3.3l3.3-4.9m2.2-3.3l3.32-4.92m2.2-3.3l3.3-4.9m2.02-3.4l2.98-5.14m2-3.42l2.18-3.75.7-1.4m1.8-3.54l2.68-5.3m1.65-3.58l2.35-5.44m1.5-3.66l2.03-5.58m1.3-3.73l.88-2.83M159.73 201l.27-1M403.4 281.45l-4.04-19.6-15.2 13" stroke="#c92d39" stroke-width="2" fill="none"/><path d="M540 66c0-3.3 2.7-6 6-6h108c3.3 0 6 2.7 6 6v8c0 3.3-2.7 6-6 6H546c-3.3 0-6-2.7-6-6z" stroke="#000" stroke-opacity="0" stroke-width="3" fill="#fff" fill-opacity="0"/><g><use xlink:href="#B" transform="matrix(1,0,0,1,545,65.00000000000009) translate(3.8179012345679126 12.444444444444443)"/><use xlink:href="#C" transform="matrix(1,0,0,1,545,65.00000000000009) translate(27.97222222222223 12.444444444444443)"/><use xlink:href="#D" transform="matrix(1,0,0,1,545,65.00000000000009) translate(41.36728395061729 12.444444444444443)"/></g><path d="M60 86c0-3.3 2.7-6 6-6h28c3.3 0 6 2.7 6 6v8c0 3.3-2.7 6-6 6H66c-3.3 0-6-2.7-6-6z" stroke="#000" stroke-opacity="0" stroke-width="3" fill="#fff" fill-opacity="0"/><g><use xlink:href="#E" transform="matrix(1,0,0,1,65,85.00000000000006) translate(-7.42592592592592 12.444444444444443)"/></g><path d="M140 86c0-3.3 2.7-6 6-6h28c3.3 0 6 2.7 6 6v8c0 3.3-2.7 6-6 6h-28c-3.3 0-6-2.7-6-6z" stroke="#000" stroke-opacity="0" stroke-width="3" fill="#fff" fill-opacity="0"/><g><use xlink:href="#F" transform="matrix(1,0,0,1,145,85) translate(-7.42592592592592 12.444444444444443)"/></g><path d="M220 86c0-3.3 2.7-6 6-6h28c3.3 0 6 2.7 6 6v8c0 3.3-2.7 6-6 6h-28c-3.3 0-6-2.7-6-6z" stroke="#000" stroke-opacity="0" stroke-width="3" fill="#fff" fill-opacity="0"/><g><use xlink:href="#G" transform="matrix(1,0,0,1,225,85.00000000000006) translate(-7.42592592592592 12.444444444444443)"/></g><path d="M380 86c0-3.3 2.7-6 6-6h28c3.3 0 6 2.7 6 6v8c0 3.3-2.7 6-6 6h-28c-3.3 0-6-2.7-6-6z" stroke="#000" stroke-opacity="0" stroke-width="3" fill="#fff" fill-opacity="0"/><g><use xlink:href="#H" transform="matrix(1,0,0,1,385,85.00000000000006) translate(-7.42592592592592 12.444444444444443)"/></g><path d="M400 166c0-3.3 2.7-6 6-6h108c3.3 0 6 2.7 6 6v8c0 3.3-2.7 6-6 6H406c-3.3 0-6-2.7-6-6z" stroke="#000" stroke-opacity="0" stroke-width="3" fill="#fff" fill-opacity="0"/><g><use xlink:href="#k" transform="matrix(1,0,0,1,405,165.00000000000003) translate(0 12.444444444444443)"/><use xlink:href="#e" transform="matrix(1,0,0,1,405,165.00000000000003) translate(7.734567901234566 12.444444444444443)"/><use xlink:href="#l" transform="matrix(1,0,0,1,405,165.00000000000003) translate(21.129629629629626 12.444444444444443)"/><use xlink:href="#m" transform="matrix(1,0,0,1,405,165.00000000000003) translate(69.52469135802468 12.444444444444443)"/><use xlink:href="#I" transform="matrix(1,0,0,1,405,165.00000000000003) translate(0 31.111111111111107)"/><use xlink:href="#e" transform="matrix(1,0,0,1,405,165.00000000000003) translate(19.01234567901234 31.111111111111107)"/><use xlink:href="#J" transform="matrix(1,0,0,1,405,165.00000000000003) translate(32.407407407407405 31.111111111111107)"/><use xlink:href="#A" transform="matrix(1,0,0,1,405,165.00000000000003) translate(45.37037037037037 31.111111111111107)"/></g><path d="M500 86c0-3.3 2.7-6 6-6h28c3.3 0 6 2.7 6 6v8c0 3.3-2.7 6-6 6h-28c-3.3 0-6-2.7-6-6z" stroke="#000" stroke-opacity="0" stroke-width="3" fill="#fff" fill-opacity="0"/><g><use xlink:href="#K" transform="matrix(1,0,0,1,505,85.00000000000006) translate(-7.42592592592592 12.444444444444443)"/></g><path d="M400.08 261l.2 2.4.1.66m.78 4.02l.4 1.66 1.02 3 .5 1.18m1.8 3.7l.53 1 1.88 2.9.95 1.24m2.62 3.16l1.34 1.48 3.02 2.84m3.2 2.57l.8.65 4.26 2.85m3.57 2.03l2.2 1.22 3.3 1.5m3.77 1.64l5.8 2.08m3.95 1.1l3.33.9 2.66.5m4.04.67l3.1.32 1.9.06 1.14-.05m4.1-.24l4.1-.53 1.97-.42m4-.94l4-1.23 1.83-.72m3.77-1.6l3.55-1.8 1.86-1.14m3.44-2.25l2.85-2.12 1.95-1.72m2.97-2.82l2.34-2.44 1.75-2.16m2.48-3.27l2.3-3.4 1-1.8m2-3.58l2.52-5.62m1.4-3.85l1.03-2.9M400.08 261.02L400 260M522.48 281.57l-3.2-19.74-15.76 12.3" stroke="#c92d39" stroke-width="2" fill="none"/><defs><path fill="#333" d="M194-70c0 46-34 64-81 66v29H91V-4C42-5 12-27 4-67l30-6c5 28 25 41 57 43v-87c-38-9-76-20-76-67 1-42 33-58 76-59v-23h22v23c45 0 67 20 76 56l-31 6c-5-23-18-35-45-37v78c41 10 81 20 81 70zm-81 41c51 7 71-66 19-77-6-2-12-4-19-6v83zM91-219c-47-6-63 57-18 69 6 2 12 3 18 5v-74" id="L"/><path fill="#333" d="M233-177c-1 41-23 64-60 70L243 0h-38l-65-103H63V0H30v-248c88 3 205-21 203 71zM63-129c60-2 137 13 137-47 0-61-80-42-137-45v92" id="M"/><path fill="#333" d="M27 0v-27h64v-190l-56 39v-29l58-41h29v221h61V0H27" id="N"/><g id="a"><use transform="matrix(0.04320987654320987,0,0,0.04320987654320987,0,0)" xlink:href="#L"/><use transform="matrix(0.04320987654320987,0,0,0.04320987654320987,8.641975308641973,0)" xlink:href="#M"/><use transform="matrix(0.030246913580246906,0,0,0.030246913580246906,19.83333333333333,2.177777777777777)" xlink:href="#N"/></g><path fill="#333" d="M101-251c82-7 93 87 43 132L82-64C71-53 59-42 53-27h129V0H18c2-99 128-94 128-182 0-28-16-43-45-43s-46 15-49 41l-32-3c6-41 34-60 81-64" id="O"/><g id="b"><use transform="matrix(0.04320987654320987,0,0,0.04320987654320987,0,0)" xlink:href="#L"/><use transform="matrix(0.04320987654320987,0,0,0.04320987654320987,8.641975308641973,0)" xlink:href="#M"/><use transform="matrix(0.030246913580246906,0,0,0.030246913580246906,19.83333333333333,2.177777777777777)" xlink:href="#O"/></g><path fill="#333" d="M101-251c68 0 85 55 85 127S166 4 100 4C33 4 14-52 14-124c0-73 17-127 87-127zm-1 229c47 0 54-49 54-102s-4-102-53-102c-51 0-55 48-55 102 0 53 5 102 54 102" id="P"/><g id="c"><use transform="matrix(0.04320987654320987,0,0,0.04320987654320987,0,0)" xlink:href="#L"/><use transform="matrix(0.04320987654320987,0,0,0.04320987654320987,8.641975308641973,0)" xlink:href="#M"/><use transform="matrix(0.030246913580246906,0,0,0.030246913580246906,19.83333333333333,2.177777777777777)" xlink:href="#N"/><use transform="matrix(0.030246913580246906,0,0,0.030246913580246906,25.882716049382708,2.177777777777777)" xlink:href="#P"/></g><path fill="#333" d="M177-190C167-65 218 103 67 71c-23-6-38-20-44-43l32-5c15 47 100 32 89-28v-30C133-14 115 1 83 1 29 1 15-40 15-95c0-56 16-97 71-98 29-1 48 16 59 35 1-10 0-23 2-32h30zM94-22c36 0 50-32 50-73 0-42-14-75-50-75-39 0-46 34-46 75s6 73 46 73" id="Q"/><use transform="matrix(0.04320987654320987,0,0,0.04320987654320987,0,0)" xlink:href="#Q" id="d"/><path fill="#333" d="M18-150v-26h174v26H18zm0 90v-26h174v26H18" id="R"/><use transform="matrix(0.04320987654320987,0,0,0.04320987654320987,0,0)" xlink:href="#R" id="e"/><path fill="#333" d="M54-142c48-35 137-8 131 61C196 18 31 33 14-55l32-4c7 23 22 37 52 37 35-1 51-22 54-58 4-55-73-65-99-34H22l8-134h141v27H59" id="S"/><path fill="#333" d="M252-156c43 0 55 33 55 80 0 46-13 78-56 78-42 0-55-33-55-78 0-48 12-80 56-80zM93 0H65l162-248h28zM13-171c-1-47 13-79 56-79s55 33 55 79-13 79-55 79c-43 0-56-33-56-79zM251-17c28 0 30-29 30-59 0-31-1-60-29-60-29 0-31 29-31 60 0 29 2 59 30 59zM69-112c27 0 28-30 29-59 0-31-1-60-29-60-29 0-30 30-30 60s2 59 30 59" id="T"/><g id="f"><use transform="matrix(0.04320987654320987,0,0,0.04320987654320987,0,0)" xlink:href="#S"/><use transform="matrix(0.04320987654320987,0,0,0.04320987654320987,8.641975308641973,0)" xlink:href="#T"/></g><path fill="#333" d="M108 0H70L1-190h34L89-25l56-165h34" id="U"/><path fill="#333" d="M141-36C126-15 110 5 73 4 37 3 15-17 15-53c-1-64 63-63 125-63 3-35-9-54-41-54-24 1-41 7-42 31l-33-3c5-37 33-52 76-52 45 0 72 20 72 64v82c-1 20 7 32 28 27v20c-31 9-61-2-59-35zM48-53c0 20 12 33 32 33 41-3 63-29 60-74-43 2-92-5-92 41" id="V"/><path fill="#333" d="M114-163C36-179 61-72 57 0H25l-1-190h30c1 12-1 29 2 39 6-27 23-49 58-41v29" id="W"/><path fill="#333" d="M24-231v-30h32v30H24zM24 0v-190h32V0H24" id="X"/><path fill="#333" d="M96-169c-40 0-48 33-48 73s9 75 48 75c24 0 41-14 43-38l32 2c-6 37-31 61-74 61-59 0-76-41-82-99-10-93 101-131 147-64 4 7 5 14 7 22l-32 3c-4-21-16-35-41-35" id="Y"/><path fill="#333" d="M100-194c62-1 85 37 85 99 1 63-27 99-86 99S16-35 15-95c0-66 28-99 85-99zM99-20c44 1 53-31 53-75 0-43-8-75-51-75s-53 32-53 75 10 74 51 75" id="Z"/><path fill="#333" d="M117-194c89-4 53 116 60 194h-32v-121c0-31-8-49-39-48C34-167 62-67 57 0H25l-1-190h30c1 10-1 24 2 32 11-22 29-35 61-36" id="aa"/><g id="g"><use transform="matrix(0.04320987654320987,0,0,0.04320987654320987,0,0)" xlink:href="#U"/><use transform="matrix(0.04320987654320987,0,0,0.04320987654320987,7.777777777777776,0)" xlink:href="#V"/><use transform="matrix(0.04320987654320987,0,0,0.04320987654320987,16.41975308641975,0)" xlink:href="#W"/><use transform="matrix(0.04320987654320987,0,0,0.04320987654320987,21.561728395061724,0)" xlink:href="#X"/><use transform="matrix(0.04320987654320987,0,0,0.04320987654320987,24.975308641975303,0)" xlink:href="#V"/><use transform="matrix(0.04320987654320987,0,0,0.04320987654320987,33.61728395061728,0)" xlink:href="#Y"/><use transform="matrix(0.04320987654320987,0,0,0.04320987654320987,41.395061728395056,0)" xlink:href="#X"/><use transform="matrix(0.04320987654320987,0,0,0.04320987654320987,44.80864197530864,0)" xlink:href="#Z"/><use transform="matrix(0.04320987654320987,0,0,0.04320987654320987,53.45061728395061,0)" xlink:href="#aa"/></g><path fill="#333" d="M85-194c31 0 48 13 60 33l-1-100h32l1 261h-30c-2-10 0-23-3-31C134-8 116 4 85 4 32 4 16-35 15-94c0-66 23-100 70-100zm9 24c-40 0-46 34-46 75 0 40 6 74 45 74 42 0 51-32 51-76 0-42-9-74-50-73" id="ab"/><path fill="#333" d="M100-194c63 0 86 42 84 106H49c0 40 14 67 53 68 26 1 43-12 49-29l28 8c-11 28-37 45-77 45C44 4 14-33 15-96c1-61 26-98 85-98zm52 81c6-60-76-77-97-28-3 7-6 17-6 28h103" id="ac"/><g id="h"><use transform="matrix(0.04320987654320987,0,0,0.04320987654320987,0,0)" xlink:href="#ab"/><use transform="matrix(0.04320987654320987,0,0,0.04320987654320987,8.641975308641973,0)" xlink:href="#ac"/></g><path fill="#333" d="M24 0v-261h32V0H24" id="ad"/><path fill="#333" d="M135-143c-3-34-86-38-87 0 15 53 115 12 119 90S17 21 10-45l28-5c4 36 97 45 98 0-10-56-113-15-118-90-4-57 82-63 122-42 12 7 21 19 24 35" id="ae"/><g id="i"><use transform="matrix(0.04320987654320987,0,0,0.04320987654320987,0,0)" xlink:href="#ad"/><use transform="matrix(0.04320987654320987,0,0,0.04320987654320987,3.4135802469135794,0)" xlink:href="#Z"/><use transform="matrix(0.04320987654320987,0,0,0.04320987654320987,12.055555555555554,0)" xlink:href="#ae"/></g><path fill="#333" d="M101-234c-31-9-42 10-38 44h38v23H63V0H32v-167H5v-23h27c-7-52 17-82 69-68v24" id="af"/><path fill="#333" d="M84 4C-5 8 30-112 23-190h32v120c0 31 7 50 39 49 72-2 45-101 50-169h31l1 190h-30c-1-10 1-25-2-33-11 22-28 36-60 37" id="ag"/><path fill="#333" d="M24-231v-30h32v30H24zM-9 49c24 4 33-6 33-30v-209h32V24c2 40-23 58-65 49V49" id="ah"/><g id="j"><use transform="matrix(0.04320987654320987,0,0,0.04320987654320987,0,0)" xlink:href="#af"/><use transform="matrix(0.04320987654320987,0,0,0.04320987654320987,4.320987654320986,0)" xlink:href="#ad"/><use transform="matrix(0.04320987654320987,0,0,0.04320987654320987,7.734567901234566,0)" xlink:href="#ag"/><use transform="matrix(0.04320987654320987,0,0,0.04320987654320987,16.376543209876537,0)" xlink:href="#ah"/><use transform="matrix(0.04320987654320987,0,0,0.04320987654320987,19.790123456790116,0)" xlink:href="#Z"/><use transform="matrix(0.04320987654320987,0,0,0.04320987654320987,28.432098765432087,0)" xlink:href="#ae"/></g><use transform="matrix(0.04320987654320987,0,0,0.04320987654320987,0,0)" xlink:href="#X" id="k"/><path fill="#333" d="M68-38c1 34 0 65-14 84H32c9-13 17-26 17-46H33v-38h35" id="ai"/><g id="l"><use transform="matrix(0.04320987654320987,0,0,0.04320987654320987,0,0)" xlink:href="#S"/><use transform="matrix(0.04320987654320987,0,0,0.04320987654320987,8.641975308641973,0)" xlink:href="#ai"/><use transform="matrix(0.04320987654320987,0,0,0.04320987654320987,12.962962962962958,0)" xlink:href="#O"/><use transform="matrix(0.04320987654320987,0,0,0.04320987654320987,21.60493827160493,0)" xlink:href="#S"/><use transform="matrix(0.04320987654320987,0,0,0.04320987654320987,30.2469135802469,0)" xlink:href="#T"/></g><path fill="#333" d="M115-194c55 1 70 41 70 98S169 2 115 4C84 4 66-9 55-30l1 105H24l-1-265h31l2 30c10-21 28-34 59-34zm-8 174c40 0 45-34 45-75s-6-73-45-74c-42 0-51 32-51 76 0 43 10 73 51 73" id="aj"/><path fill="#333" d="M59-47c-2 24 18 29 38 22v24C64 9 27 4 27-40v-127H5v-23h24l9-43h21v43h35v23H59v120" id="ak"/><g id="m"><use transform="matrix(0.04320987654320987,0,0,0.04320987654320987,0,0)" xlink:href="#aj"/><use transform="matrix(0.04320987654320987,0,0,0.04320987654320987,8.641975308641973,0)" xlink:href="#ak"/><use transform="matrix(0.04320987654320987,0,0,0.04320987654320987,12.962962962962958,0)" xlink:href="#U"/></g><g id="n"><use transform="matrix(0.04320987654320987,0,0,0.04320987654320987,0,0)" xlink:href="#aa"/><use transform="matrix(0.030246913580246906,0,0,0.030246913580246906,8.641975308641973,2.177777777777777)" xlink:href="#N"/></g><use transform="matrix(0.04320987654320987,0,0,0.04320987654320987,0,0)" xlink:href="#R" id="o"/><g id="p"><use transform="matrix(0.04320987654320987,0,0,0.04320987654320987,0,0)" xlink:href="#N"/><use transform="matrix(0.04320987654320987,0,0,0.04320987654320987,8.641975308641973,0)" xlink:href="#P"/></g><g id="q"><use transform="matrix(0.04320987654320987,0,0,0.04320987654320987,0,0)" xlink:href="#aj"/><use transform="matrix(0.04320987654320987,0,0,0.04320987654320987,8.641975308641973,0)" xlink:href="#V"/><use transform="matrix(0.04320987654320987,0,0,0.04320987654320987,17.283950617283946,0)" xlink:href="#U"/></g><g id="r"><use transform="matrix(0.04320987654320987,0,0,0.04320987654320987,0,0)" xlink:href="#M"/><use transform="matrix(0.030246913580246906,0,0,0.030246913580246906,11.191358024691356,2.177777777777777)" xlink:href="#N"/></g><path fill="#333" d="M103-251c84 0 111 97 45 133-19 10-37 24-39 52H78c0-63 77-55 77-114 0-30-21-42-52-43-32 0-53 17-56 46l-32-2c7-45 34-72 88-72zM77 0v-35h34V0H77" id="al"/><use transform="matrix(0.04320987654320987,0,0,0.04320987654320987,0,0)" xlink:href="#al" id="s"/><path fill="#333" d="M162-956h172c27-126 45-202 56-228 43-96 120-168 248-168 93 0 156 41 187 124l-120 48c-9-29-32-43-71-43-58 0-100 34-127 101-7 17-21 72-40 166h195l-27 130H440L230 182c-17 98-104 218-210 216l5-129c42-28 69-69 80-122l202-973H135" id="am"/><g id="t"><use transform="matrix(0.007595486111111109,0,0,0.007595486111111109,0,0)" xlink:href="#am"/><use transform="matrix(0.007595486111111109,0,0,0.007595486111111109,4.443359374999999,0)" xlink:href="#am"/></g><use transform="matrix(0.04320987654320987,0,0,0.04320987654320987,0,0)" xlink:href="#P" id="u"/><use transform="matrix(0.04320987654320987,0,0,0.04320987654320987,0,0)" xlink:href="#N" id="v"/><use transform="matrix(0.04320987654320987,0,0,0.04320987654320987,0,0)" xlink:href="#O" id="w"/><g id="x"><use transform="matrix(0.04320987654320987,0,0,0.04320987654320987,0,0)" xlink:href="#N"/><use transform="matrix(0.04320987654320987,0,0,0.04320987654320987,8.641975308641973,0)" xlink:href="#P"/></g><g id="y"><use transform="matrix(0.04320987654320987,0,0,0.04320987654320987,0,0)" xlink:href="#N"/><use transform="matrix(0.04320987654320987,0,0,0.04320987654320987,7.475308641975307,0)" xlink:href="#N"/></g><g id="z"><use transform="matrix(0.04320987654320987,0,0,0.04320987654320987,0,0)" xlink:href="#N"/><use transform="matrix(0.04320987654320987,0,0,0.04320987654320987,8.641975308641973,0)" xlink:href="#O"/></g><g id="A"><use transform="matrix(0.04320987654320987,0,0,0.04320987654320987,0,0)" xlink:href="#aj"/><use transform="matrix(0.04320987654320987,0,0,0.04320987654320987,8.641975308641973,0)" xlink:href="#ak"/><use transform="matrix(0.04320987654320987,0,0,0.04320987654320987,12.962962962962958,0)" xlink:href="#U"/></g><path fill="#333" d="M147 0H94L2-248h55l64 206c17-72 42-137 63-206h54" id="an"/><path fill="#333" d="M76-208v77h127v40H76V0H24v-248h183v40H76" id="ao"/><g id="B"><use transform="matrix(0.04320987654320987,0,0,0.04320987654320987,0,0)" xlink:href="#an"/><use transform="matrix(0.04320987654320987,0,0,0.04320987654320987,10.370370370370368,0)" xlink:href="#ao"/></g><path fill="#333" d="M15-148v-39h180v39H15zm0 97v-39h180v39H15" id="ap"/><use transform="matrix(0.04320987654320987,0,0,0.04320987654320987,0,0)" xlink:href="#ap" id="C"/><path fill="#333" d="M111-147c44 9 85 22 84 75-1 49-35 65-84 68v31H91V-4C40-5 12-27 5-72l45-8c4 24 15 38 41 40-2-22 4-51-2-69-39-10-76-22-76-72 0-47 35-60 78-63v-23h20v23c47 1 70 23 78 62l-46 7c-4-18-12-32-32-34v62zm-20-63c-33-4-45 46-13 54 4 1 8 2 13 4v-58zm20 170c39 5 53-51 15-60-7-2-7-2-15-4v64" id="aq"/><path fill="#333" d="M139-81c0-46-55-55-73-27H18l9-140h149v37H72l-4 63c44-38 133-4 122 66C201 21 21 35 11-62l49-4c5 18 15 30 39 30 26 0 40-18 40-45" id="ar"/><path fill="#333" d="M101-251c68 0 84 54 84 127C185-50 166 4 99 4S15-52 14-124c-1-75 17-127 87-127zm-1 216c37-5 36-46 36-89s4-89-36-89c-39 0-36 45-36 89 0 43-3 85 36 89" id="as"/><path fill="#333" d="M24 0v-54h51V0H24" id="at"/><g id="D"><use transform="matrix(0.04320987654320987,0,0,0.04320987654320987,0,0)" xlink:href="#aq"/><use transform="matrix(0.04320987654320987,0,0,0.04320987654320987,8.641975308641973,0)" xlink:href="#ar"/><use transform="matrix(0.04320987654320987,0,0,0.04320987654320987,17.283950617283946,0)" xlink:href="#as"/><use transform="matrix(0.04320987654320987,0,0,0.04320987654320987,25.925925925925917,0)" xlink:href="#as"/><use transform="matrix(0.04320987654320987,0,0,0.04320987654320987,34.56790123456789,0)" xlink:href="#at"/><use transform="matrix(0.04320987654320987,0,0,0.04320987654320987,38.88888888888888,0)" xlink:href="#as"/><use transform="matrix(0.04320987654320987,0,0,0.04320987654320987,47.53086419753085,0)" xlink:href="#as"/><use transform="matrix(0.04320987654320987,0,0,0.04320987654320987,56.17283950617283,0)" xlink:href="#as"/></g><path fill="#333" d="M16-82v-28h88v28H16" id="au"/><path fill="#333" d="M134-131c28 9 52 24 51 62-1 50-34 73-85 73S17-19 16-69c0-36 21-54 49-61-75-25-45-126 34-121 46 3 78 18 79 63 0 33-17 51-44 57zm-34-11c31 1 46-15 46-44 0-28-17-43-47-42-29 0-46 13-45 42 1 28 16 44 46 44zm1 122c35 0 51-18 51-52 0-30-18-46-53-46-33 0-51 17-51 47 0 34 19 51 53 51" id="av"/><g id="E"><use transform="matrix(0.04320987654320987,0,0,0.04320987654320987,0,0)" xlink:href="#N"/><use transform="matrix(0.04320987654320987,0,0,0.04320987654320987,8.641975308641973,0)" xlink:href="#au"/><use transform="matrix(0.04320987654320987,0,0,0.04320987654320987,13.783950617283947,0)" xlink:href="#N"/><use transform="matrix(0.04320987654320987,0,0,0.04320987654320987,22.42592592592592,0)" xlink:href="#au"/><use transform="matrix(0.04320987654320987,0,0,0.04320987654320987,27.567901234567895,0)" xlink:href="#av"/><use transform="matrix(0.04320987654320987,0,0,0.04320987654320987,36.209876543209866,0)" xlink:href="#av"/></g><path fill="#333" d="M155-56V0h-30v-56H8v-25l114-167h33v167h35v25h-35zm-30-156c-27 46-58 90-88 131h88v-131" id="aw"/><g id="F"><use transform="matrix(0.04320987654320987,0,0,0.04320987654320987,0,0)" xlink:href="#N"/><use transform="matrix(0.04320987654320987,0,0,0.04320987654320987,8.641975308641973,0)" xlink:href="#au"/><use transform="matrix(0.04320987654320987,0,0,0.04320987654320987,13.783950617283947,0)" xlink:href="#aw"/><use transform="matrix(0.04320987654320987,0,0,0.04320987654320987,22.42592592592592,0)" xlink:href="#au"/><use transform="matrix(0.04320987654320987,0,0,0.04320987654320987,27.567901234567895,0)" xlink:href="#av"/><use transform="matrix(0.04320987654320987,0,0,0.04320987654320987,36.209876543209866,0)" xlink:href="#av"/></g><path fill="#333" d="M64 0c3-98 48-159 88-221H18v-27h164v26C143-157 98-101 97 0H64" id="ax"/><g id="G"><use transform="matrix(0.04320987654320987,0,0,0.04320987654320987,0,0)" xlink:href="#N"/><use transform="matrix(0.04320987654320987,0,0,0.04320987654320987,8.641975308641973,0)" xlink:href="#au"/><use transform="matrix(0.04320987654320987,0,0,0.04320987654320987,13.783950617283947,0)" xlink:href="#ax"/><use transform="matrix(0.04320987654320987,0,0,0.04320987654320987,22.42592592592592,0)" xlink:href="#au"/><use transform="matrix(0.04320987654320987,0,0,0.04320987654320987,27.567901234567895,0)" xlink:href="#av"/><use transform="matrix(0.04320987654320987,0,0,0.04320987654320987,36.209876543209866,0)" xlink:href="#av"/></g><path fill="#333" d="M99-251c64 0 84 50 84 122C183-37 130 33 47-8c-14-7-20-23-25-40l30-5c6 39 69 39 84 7 9-19 16-44 16-74-10 22-31 35-62 35-49 0-73-33-73-83 0-54 28-83 82-83zm-1 141c31-1 51-18 51-49 0-36-14-67-51-67-34 0-49 23-49 58 0 34 15 58 49 58" id="ay"/><g id="H"><use transform="matrix(0.04320987654320987,0,0,0.04320987654320987,0,0)" xlink:href="#N"/><use transform="matrix(0.04320987654320987,0,0,0.04320987654320987,8.641975308641973,0)" xlink:href="#au"/><use transform="matrix(0.04320987654320987,0,0,0.04320987654320987,13.783950617283947,0)" xlink:href="#ax"/><use transform="matrix(0.04320987654320987,0,0,0.04320987654320987,22.42592592592592,0)" xlink:href="#au"/><use transform="matrix(0.04320987654320987,0,0,0.04320987654320987,27.567901234567895,0)" xlink:href="#ay"/><use transform="matrix(0.04320987654320987,0,0,0.04320987654320987,36.209876543209866,0)" xlink:href="#P"/></g><g id="I"><use transform="matrix(0.04320987654320987,0,0,0.04320987654320987,0,0)" xlink:href="#aa"/><use transform="matrix(0.030246913580246906,0,0,0.030246913580246906,8.641975308641973,2.177777777777777)" xlink:href="#O"/></g><use transform="matrix(0.04320987654320987,0,0,0.04320987654320987,0,0)" xlink:href="#O" id="J"/><g id="K"><use transform="matrix(0.04320987654320987,0,0,0.04320987654320987,0,0)" xlink:href="#N"/><use transform="matrix(0.04320987654320987,0,0,0.04320987654320987,8.641975308641973,0)" xlink:href="#au"/><use transform="matrix(0.04320987654320987,0,0,0.04320987654320987,13.783950617283947,0)" xlink:href="#N"/><use transform="matrix(0.04320987654320987,0,0,0.04320987654320987,22.42592592592592,0)" xlink:href="#au"/><use transform="matrix(0.04320987654320987,0,0,0.04320987654320987,27.567901234567895,0)" xlink:href="#ay"/><use transform="matrix(0.04320987654320987,0,0,0.04320987654320987,36.209876543209866,0)" xlink:href="#N"/></g></defs></g></svg>