<?xml version="1.0" encoding="UTF-8" standalone="no"?>
<svg
   xmlns:lucid="lucid"
   xmlns:dc="http://purl.org/dc/elements/1.1/"
   xmlns:cc="http://creativecommons.org/ns#"
   xmlns:rdf="http://www.w3.org/1999/02/22-rdf-syntax-ns#"
   xmlns:svg="http://www.w3.org/2000/svg"
   xmlns="http://www.w3.org/2000/svg"
   xmlns:xlink="http://www.w3.org/1999/xlink"
   xmlns:sodipodi="http://sodipodi.sourceforge.net/DTD/sodipodi-0.dtd"
   xmlns:inkscape="http://www.inkscape.org/namespaces/inkscape"
   width="646.53241"
   height="626.06067"
   version="1.1"
   id="svg231"
   sodipodi:docname="capitulo6 ejercicico6.svg"
   inkscape:version="1.0.1 (3bc2e813f5, 2020-09-07)">
  <metadata
     id="metadata237">
    <rdf:RDF>
      <cc:Work
         rdf:about="">
        <dc:format>image/svg+xml</dc:format>
        <dc:type
           rdf:resource="http://purl.org/dc/dcmitype/StillImage" />
        <dc:title></dc:title>
      </cc:Work>
    </rdf:RDF>
  </metadata>
  <defs
     id="defs235">
    <clipPath
       clipPathUnits="userSpaceOnUse"
       id="clipPath1064">
      <rect
         style="fill:#0000ff;fill-rule:evenodd"
         id="rect1066"
         width="646.53241"
         height="626.06067"
         x="351.39725"
         y="126.91642" />
    </clipPath>
  </defs>
  <sodipodi:namedview
     pagecolor="#ffffff"
     bordercolor="#666666"
     borderopacity="1"
     objecttolerance="10"
     gridtolerance="10"
     guidetolerance="10"
     inkscape:pageopacity="0"
     inkscape:pageshadow="2"
     inkscape:window-width="1366"
     inkscape:window-height="768"
     id="namedview233"
     showgrid="false"
     inkscape:zoom="0.21329232"
     inkscape:cx="475.53879"
     inkscape:cy="56.277485"
     inkscape:window-x="0"
     inkscape:window-y="0"
     inkscape:window-maximized="1"
     inkscape:current-layer="g229" />
  <g
     transform="translate(-351.39725,-126.91642)"
     lucid:page-tab-id="0_0"
     id="g229">
    <path
       d="M 0,0 H 1870.4 V 1323.2 H 0 Z"
       fill="#ffffff"
       id="path2"
       clip-path="url(#clipPath1064)" />
    <path
       d="M 395,320 H 981.5"
       stroke="#000000"
       stroke-width="2"
       fill="none"
       id="path4" />
    <path
       id="path6"
       d="" />
    <path
       d="m 996.76,320 -14.26,4.64 v -9.28 z"
       stroke="#000000"
       stroke-width="2"
       id="path8" />
    <path
       d="m 400,319 v -60.5 m 0,60.47 V 320"
       stroke="#000000"
       stroke-width="2"
       fill="none"
       id="path10" />
    <path
       d="m 400,243.24 4.64,14.26 h -9.28 z"
       stroke="#000000"
       stroke-width="2"
       id="path12" />
    <path
       d="m 500.02,321 1.03,68.5"
       stroke="#000000"
       stroke-width="2"
       fill="none"
       id="path14" />
    <path
       d="m 501.02,321 -2,0.04 L 499,320 h 2 z"
       id="path16" />
    <path
       d="m 501.28,404.76 -4.85,-14.2 9.27,-0.13 z"
       stroke="#000000"
       stroke-width="2"
       id="path18" />
    <path
       d="M 602,321 V 421.5"
       stroke="#000000"
       stroke-width="2"
       fill="none"
       id="path20" />
    <path
       d="m 603,321.03 h -2 V 320 h 2 z"
       id="path22" />
    <path
       d="m 602,436.76 -4.64,-14.26 h 9.28 z"
       stroke="#000000"
       stroke-width="2"
       id="path24" />
    <path
       d="m 703.33,321 v 78.66 c 0,0.2 0.15,0.34 0.34,0.34 0.2,0 0.34,0.15 0.34,0.34 v 61.16"
       stroke="#000000"
       stroke-width="2"
       fill="none"
       id="path26" />
    <path
       d="m 704.33,321.03 h -2 V 320 h 2 z"
       id="path28" />
    <path
       d="m 704,476.76 -4.62,-14.26 h 9.27 z"
       stroke="#000000"
       stroke-width="2"
       id="path30" />
    <path
       d="m 583.33,286 c 0,-3.3 2.7,-6 6,-6 h 228 c 3.32,0 6,2.7 6,6 v 28 c 0,3.3 -2.68,6 -6,6 h -228 c -3.3,0 -6,-2.7 -6,-6 z M 450,266 c 0,-3.3 2.7,-6 6,-6 h 88 c 3.3,0 6,2.7 6,6 v 48 c 0,3.3 -2.7,6 -6,6 h -88 c -3.3,0 -6,-2.7 -6,-6 z"
       stroke="#000000"
       stroke-opacity="0"
       stroke-width="3"
       fill-opacity="0"
       id="path32" />
    <use
       xlink:href="#a"
       transform="translate(493.82716,295.27778)"
       id="use34"
       x="0"
       y="0"
       width="100%"
       height="100%" />
    <path
       d="m 543,266 c 0,-3.3 2.7,-6 6,-6 h 106 c 3.3,0 6,2.7 6,6 v 48 c 0,3.3 -2.7,6 -6,6 H 549 c -3.3,0 -6,-2.7 -6,-6 z"
       stroke="#000000"
       stroke-opacity="0"
       stroke-width="3"
       fill-opacity="0"
       id="path36" />
    <use
       xlink:href="#b"
       transform="translate(595.82716,295.27778)"
       id="use38"
       x="0"
       y="0"
       width="100%"
       height="100%" />
    <path
       d="m 876,254.68 c 0,-3.3 2.67,-6 6,-6 h 88 c 3.3,0 6,2.7 6,6 v 70.64 c 0,3.3 -2.7,6 -6,6 h -88 c -3.33,0 -6,-2.7 -6,-6 z"
       stroke="#000000"
       stroke-opacity="0"
       stroke-width="3"
       fill-opacity="0"
       id="path40" />
    <use
       xlink:href="#c"
       transform="translate(887.10672,303.00065)"
       id="use42"
       x="0"
       y="0"
       width="100%"
       height="100%" />
    <use
       xlink:href="#d"
       transform="translate(893.27956,303.00065)"
       id="use44"
       x="0"
       y="0"
       width="100%"
       height="100%" />
    <use
       xlink:href="#e"
       transform="translate(922.95501,303.00065)"
       id="use46"
       x="0"
       y="0"
       width="100%"
       height="100%" />
    <path
       d="m 666.67,266 c 0,-3.3 2.68,-6 6,-6 H 734 c 3.3,0 6,2.7 6,6 v 48 c 0,3.3 -2.7,6 -6,6 h -61.33 c -3.32,0 -6,-2.7 -6,-6 z"
       stroke="#000000"
       stroke-opacity="0"
       stroke-width="3"
       fill-opacity="0"
       id="path48" />
    <use
       xlink:href="#f"
       transform="translate(697.49333,295.27778)"
       id="use50"
       x="0"
       y="0"
       width="100%"
       height="100%" />
    <path
       d="m 280,386 c 0,-3.3 2.7,-6 6,-6 h 228 c 3.3,0 6,2.7 6,6 v 48 c 0,3.3 -2.7,6 -6,6 H 286 c -3.3,0 -6,-2.7 -6,-6 z m 240,163.97 c 0,-3.3 2.7,-6 6,-6 h 311.33 c 3.32,0 6,2.7 6,6 v 123.4 c 0,3.3 -2.68,6 -6,6 H 526 c -3.3,0 -6,-2.7 -6,-6 z"
       stroke="#000000"
       stroke-opacity="0"
       stroke-width="3"
       fill-opacity="0"
       id="path52" />
    <use
       xlink:href="#g"
       transform="translate(645.05556,570.685)"
       id="use54"
       x="0"
       y="0"
       width="100%"
       height="100%" />
    <use
       xlink:href="#h"
       transform="translate(662.7716,570.685)"
       id="use56"
       x="0"
       y="0"
       width="100%"
       height="100%" />
    <use
       xlink:href="#i"
       transform="translate(681.90741,570.685)"
       id="use58"
       x="0"
       y="0"
       width="100%"
       height="100%" />
    <use
       xlink:href="#j"
       transform="translate(626.81481,597.35167)"
       id="use60"
       x="0"
       y="0"
       width="100%"
       height="100%" />
    <use
       xlink:href="#h"
       transform="translate(637.8642,597.35167)"
       id="use62"
       x="0"
       y="0"
       width="100%"
       height="100%" />
    <use
       xlink:href="#k"
       transform="translate(657,597.35167)"
       id="use64"
       x="0"
       y="0"
       width="100%"
       height="100%" />
    <use
       xlink:href="#l"
       transform="translate(695.2716,597.35167)"
       id="use66"
       x="0"
       y="0"
       width="100%"
       height="100%" />
    <use
       xlink:href="#m"
       transform="translate(627.37833,641.86882)"
       id="use68"
       x="0"
       y="0"
       width="100%"
       height="100%" />
    <use
       xlink:href="#h"
       transform="translate(645.89685,641.86882)"
       id="use70"
       x="0"
       y="0"
       width="100%"
       height="100%" />
    <use
       xlink:href="#d"
       transform="translate(665.03265,641.86882)"
       id="use72"
       x="0"
       y="0"
       width="100%"
       height="100%" />
    <use
       xlink:href="#l"
       transform="translate(694.70809,641.86882)"
       id="use74"
       x="0"
       y="0"
       width="100%"
       height="100%" />
    <use
       xlink:href="#n"
       transform="translate(682,669.41222)"
       id="use76"
       x="0"
       y="0"
       width="100%"
       height="100%" />
    <path
       d="m 380,406 c 0,-3.3 2.7,-6 6,-6 h 228 c 3.3,0 6,2.7 6,6 v 48 c 0,3.3 -2.7,6 -6,6 H 386 c -3.3,0 -6,-2.7 -6,-6 z"
       stroke="#000000"
       stroke-opacity="0"
       stroke-width="3"
       fill-opacity="0"
       id="path78" />
    <use
       xlink:href="#o"
       transform="translate(475.30864,435.27778)"
       id="use80"
       x="0"
       y="0"
       width="100%"
       height="100%" />
    <path
       d="m 556,440 h 92 v 36.67 h -92 z"
       fill-opacity="0"
       id="path82" />
    <use
       xlink:href="#p"
       transform="translate(577.32099,462.77778)"
       id="use84"
       x="0"
       y="0"
       width="100%"
       height="100%" />
    <path
       d="M 658.02,480 H 750 v 36.67 h -91.98 z"
       fill-opacity="0"
       id="path86" />
    <use
       xlink:href="#q"
       transform="translate(679.33333,502.77778)"
       id="use88"
       x="0"
       y="0"
       width="100%"
       height="100%" />
    <path
       d="m 320,266 c 0,-3.3 2.7,-6 6,-6 h 68 c 3.3,0 6,2.7 6,6 v 48 c 0,3.3 -2.7,6 -6,6 h -68 c -3.3,0 -6,-2.7 -6,-6 z"
       stroke="#000000"
       stroke-opacity="0"
       stroke-width="3"
       fill="#ffffff"
       fill-opacity="0"
       id="path90" />
    <use
       xlink:href="#r"
       transform="translate(354.04321,295.27778)"
       id="use92"
       x="0"
       y="0"
       width="100%"
       height="100%" />
    <path
       d="m 400,459 v -3.9 m 0,-7.82 v -7.82 m 0,-7.8 v -7.83 m 0,-7.8 v -7.83 m 0,-7.8 v -7.83 m 0,-7.8 v -7.83 m 0,-7.8 v -7.83 m 0,-7.8 v -7.8 m 0,-7.83 v -7.8 m 0,-7.83 v -7.8 m 0,-7.83 v -7.8 m 0,-7.82 v -7.8 m 0,-7.83 v -7.8 m 0,-7.83 v -7.8 m 0,-7.83 v -7.82 m 0,-7.82 v -7.8 m 0,-7.83 v -7.8 m 0,-7.83 v -7.8 m 0,-7.83 v -3.9"
       stroke="#5e5e5e"
       stroke-width="2"
       fill="none"
       id="path94" />
    <path
       d="m 401,460 h -2 v -1.03 h 2 z m 0,-282.3 h -2 v -1.03 h 2 z"
       fill="#5e5e5e"
       id="path96" />
    <path
       d="m 925.94,554.33 -0.12,2.26 -0.18,1.72 m -1.05,7.93 -0.04,0.2 -1.4,7.04 -0.15,0.6 m -1.93,7.76 -0.02,0.1 -2.27,7.57 m -2.58,7.57 -1.45,4.1 -1.37,3.4 m -3.1,7.37 -3.36,7.26 m -3.7,7.1 -0.46,0.85 -3.56,6.06 m -4.36,6.7 -3.42,4.72 -1.36,1.7 m -5.18,6.1 -0.03,0.03 -3,3.08 -1.85,1.76 -0.83,0.73 m -6,5.3 -5.98,5.3 m -6,5.3 -0.8,0.72 -5.38,4.36 m -6.2,5.05 -1,0.82 -5.4,4 m -6.5,4.68 -4.35,2.96 -2.32,1.44 m -6.88,4.1 -1.8,1 -4.6,2.35 -0.7,0.33 m -7.35,3.17 -0.26,0.1 -4.04,1.47 -3.27,1.02 m -7.74,2 -3.2,0.73 -4.64,0.82 m -7.9,1.3 -7.9,1.2 m -7.9,1.22 -7.73,1.18 -0.2,0.03 m -7.9,1.18 -0.23,0.04 -7.74,0.75 m -7.98,0.65 -8,0.36 m -8,0.37 -7.98,0.35 m -8,0.08 -8,0.04 m -8,0.03 -8,0.04 m -8,0.05 -8,0.04 m -8,-0.26 -8,-0.4 m -7.96,-0.67 -5.67,-1.1 -2.16,-0.54 m -7.75,-1.93 -1.75,-0.43 -6,-1.55 m -7.7,-2.2 -7.36,-3.1 m -7.38,-3.1 -4.9,-2.05 -2.4,-1.22 m -7.05,-3.8 -2.25,-1.25 -4.6,-2.84 m -6.73,-4.34 -6.08,-4.1 -0.54,-0.4 m -6.44,-4.74 -4.17,-3.07 -2.2,-1.76 m -6.25,-5.02 -4.13,-3.32 -2.03,-1.78 m -6.04,-5.27 -5.5,-4.8 -0.5,-0.5 m -5.8,-5.5 -5.8,-5.52 m -5.63,-5.68 -5.56,-5.75 m -5.5,-5.8 -5.33,-6 m -5.3,-5.97 -0.97,-1.07 -4.15,-5.08 m -5.07,-6.2 -2.56,-3.14 -2.38,-3.16 m -4.8,-6.4 -3.36,-4.5 -1.36,-1.96 m -4.52,-6.6 -3.4,-4.94 -1.06,-1.7 m -4.25,-6.8 -2.73,-4.35 -1.4,-2.48 m -3.97,-6.96 -1.56,-2.74 -2.2,-4.32 m -3.68,-7.1 -0.02,-0.06 -3.34,-7.2 m -3.2,-7.34 -2.7,-6.48 -0.33,-0.93 m -2.74,-7.52 -0.44,-1.17 -2.05,-6.43 m -2.2,-7.7 -1,-3.6 -0.94,-4.15 m -1.62,-7.83 -0.75,-4.05 -0.55,-3.85 m -0.94,-7.94 -0.27,-2.84 -0.07,-1.15 m 525.67,95.89 0.06,-1.03"
       stroke="#3aa6dd"
       stroke-width="2"
       fill="none"
       id="path98" />
    <path
       d="m 400.05,443.24 4.83,14.2 -9.27,0.13 z"
       stroke="#3aa6dd"
       stroke-width="2"
       fill="#3aa6dd"
       id="path100" />
    <path
       d="m 400,266 c 0,-3.3 2.7,-6 6,-6 h 49 c 3.3,0 6,2.7 6,6 v 48 c 0,3.3 -2.7,6 -6,6 h -49 c -3.3,0 -6,-2.7 -6,-6 z"
       stroke="#000000"
       stroke-opacity="0"
       stroke-width="3"
       fill="#ffffff"
       fill-opacity="0"
       id="path102" />
    <g
       id="g106">
      <use
         xlink:href="#s"
         transform="translate(424.32716,295.27778)"
         id="use104"
         x="0"
         y="0"
         width="100%"
         height="100%" />
    </g>
    <path
       d="m 327.4,140 h 145.2 v 36.67 H 327.4 Z"
       fill="#ffffff"
       fill-opacity="0"
       id="path108" />
    <g
       id="g112">
      <use
         xlink:href="#t"
         transform="translate(366.76543,162.77778)"
         id="use110"
         x="0"
         y="0"
         width="100%"
         height="100%" />
    </g>
    <path
       d="m 502.3,408.25 422.72,108.17 m -422.69,-108.17 -3.9,-1 M 925,516.4 l 1,0.27"
       stroke="#3aa6dd"
       stroke-width="2"
       fill="none"
       id="path114" />
    <path
       d="m 783.33,266 c 0,-3.3 2.7,-6 6,-6 h 48 c 3.32,0 6,2.7 6,6 v 48 c 0,3.3 -2.68,6 -6,6 h -48 c -3.3,0 -6,-2.7 -6,-6 z"
       stroke="#000000"
       stroke-opacity="0"
       stroke-width="3"
       fill="#ffffff"
       fill-opacity="0"
       id="path116" />
    <g
       id="g124">
      <use
         xlink:href="#u"
         transform="translate(797.90173,295.27778)"
         id="use118"
         x="0"
         y="0"
         width="100%"
         height="100%" />
      <use
         xlink:href="#v"
         transform="translate(810.24741,295.27778)"
         id="use120"
         x="0"
         y="0"
         width="100%"
         height="100%" />
      <use
         xlink:href="#w"
         transform="translate(822.59309,295.27778)"
         id="use122"
         x="0"
         y="0"
         width="100%"
         height="100%" />
    </g>
    <defs
       id="defs227">
      <path
         d="m 27,0 v -27 h 64 v -190 l -56,39 v -29 l 58,-41 h 29 v 221 h 61 V 0 H 27"
         id="x" />
      <use
         transform="scale(0.0617284)"
         xlink:href="#x"
         id="a"
         x="0"
         y="0"
         width="100%"
         height="100%" />
      <path
         d="m 101,-251 c 82,-7 93,87 43,132 L 82,-64 C 71,-53 59,-42 53,-27 H 182 V 0 H 18 c 2,-99 128,-94 128,-182 0,-28 -16,-43 -45,-43 -29,0 -46,15 -49,41 l -32,-3 c 6,-41 34,-60 81,-64"
         id="y" />
      <use
         transform="scale(0.0617284)"
         xlink:href="#y"
         id="b"
         x="0"
         y="0"
         width="100%"
         height="100%" />
      <path
         fill="#3a3a3a"
         d="m 1030,-1032 c 177,0 295,135 295,313 0,168 -127,324 -295,316 -164,-7 -238,-96 -311,-222 -67,112 -151,212 -301,217 -176,5 -299,-134 -299,-315 0,-173 127,-313 299,-313 121,0 222,73 303,219 83,-143 186,-215 309,-215 z m -782,311 c 0,107 71,191 178,189 44,0 84,-16 120,-46 36,-30 73,-78 109,-145 -58,-103 -102,-184 -231,-190 -104,-5 -176,83 -176,192 z m 948,2 c 0,-161 -181,-249 -298,-144 -35,32 -73,79 -110,144 59,103 104,185 232,191 102,5 176,-85 176,-191"
         id="z" />
      <use
         transform="scale(0.01627604)"
         xlink:href="#z"
         id="d"
         x="0"
         y="0"
         width="100%"
         height="100%" />
      <path
         d="m 115,-194 c 55,1 70,41 70,98 C 185,-39 169,2 115,4 84,4 66,-9 55,-30 L 56,75 H 24 l -1,-265 h 31 l 2,30 c 10,-21 28,-34 59,-34 z m -8,174 c 40,0 45,-34 45,-75 0,-41 -6,-73 -45,-74 -42,0 -51,32 -51,76 0,43 10,73 51,73"
         id="A" />
      <path
         d="m 210,-169 c -67,3 -38,105 -44,169 h -31 v -121 c 0,-29 -5,-50 -35,-48 C 34,-165 62,-65 56,0 H 25 l -1,-190 h 30 c 1,10 -1,24 2,32 10,-44 99,-50 107,0 11,-21 27,-35 58,-36 85,-2 47,119 55,194 h -31 v -121 c 0,-29 -5,-49 -35,-48"
         id="B" />
      <path
         d="M 108,0 H 70 L 1,-190 h 34 l 54,165 56,-165 h 34"
         id="C" />
      <g
         id="e">
        <use
           transform="scale(0.0617284)"
           xlink:href="#A"
           id="use135"
           x="0"
           y="0"
           width="100%"
           height="100%" />
        <use
           transform="matrix(0.0617284,0,0,0.0617284,12.345679,0)"
           xlink:href="#B"
           id="use137"
           x="0"
           y="0"
           width="100%"
           height="100%" />
        <use
           transform="matrix(0.0617284,0,0,0.0617284,30.802469,0)"
           xlink:href="#C"
           id="use139"
           x="0"
           y="0"
           width="100%"
           height="100%" />
      </g>
      <path
         d="m 126,-127 c 33,6 58,20 58,59 0,88 -139,92 -164,29 -3,-8 -5,-16 -6,-25 l 32,-3 c 6,27 21,44 54,44 32,0 52,-15 52,-46 0,-38 -36,-46 -79,-43 v -28 c 39,1 72,-4 72,-42 0,-27 -17,-43 -46,-43 -28,0 -47,15 -49,41 l -32,-3 c 6,-42 35,-63 81,-64 48,-1 79,21 79,65 0,36 -21,52 -52,59"
         id="D" />
      <use
         transform="scale(0.0617284)"
         xlink:href="#D"
         id="f"
         x="0"
         y="0"
         width="100%"
         height="100%" />
      <path
         d="M 30,0 V -248 H 63 V -27 H 188 V 0 H 30"
         id="E" />
      <use
         transform="scale(0.0617284)"
         xlink:href="#E"
         id="g"
         x="0"
         y="0"
         width="100%"
         height="100%" />
      <path
         d="m 18,-150 v -26 h 174 v 26 z m 0,90 v -26 h 174 v 26 H 18"
         id="F" />
      <use
         transform="scale(0.0617284)"
         xlink:href="#F"
         id="h"
         x="0"
         y="0"
         width="100%"
         height="100%" />
      <path
         d="m 194,-70 c 0,46 -34,64 -81,66 V 25 H 91 V -4 C 42,-5 12,-27 4,-67 l 30,-6 c 5,28 25,41 57,43 v -87 c -38,-9 -76,-20 -76,-67 1,-42 33,-58 76,-59 v -23 h 22 v 23 c 45,0 67,20 76,56 l -31,6 c -5,-23 -18,-35 -45,-37 v 78 c 41,10 81,20 81,70 z m -81,41 c 51,7 71,-66 19,-77 -6,-2 -12,-4 -19,-6 z M 91,-219 c -47,-6 -63,57 -18,69 6,2 12,3 18,5 v -74"
         id="G" />
      <path
         d="m 101,-251 c 68,0 85,55 85,127 0,72 -20,128 -86,128 -67,0 -86,-56 -86,-128 0,-73 17,-127 87,-127 z m -1,229 c 47,0 54,-49 54,-102 0,-53 -4,-102 -53,-102 -51,0 -55,48 -55,102 0,53 5,102 54,102"
         id="H" />
      <g
         id="i">
        <use
           transform="scale(0.0617284)"
           xlink:href="#G"
           id="use150"
           x="0"
           y="0"
           width="100%"
           height="100%" />
        <use
           transform="matrix(0.0617284,0,0,0.0617284,12.345679,0)"
           xlink:href="#x"
           id="use152"
           x="0"
           y="0"
           width="100%"
           height="100%" />
        <use
           transform="matrix(0.0617284,0,0,0.0617284,24.691358,0)"
           xlink:href="#H"
           id="use154"
           x="0"
           y="0"
           width="100%"
           height="100%" />
      </g>
      <path
         d="m 24,-231 v -30 h 32 v 30 z M 24,0 V -190 H 56 V 0 H 24"
         id="I" />
      <use
         transform="scale(0.0617284)"
         xlink:href="#I"
         id="j"
         x="0"
         y="0"
         width="100%"
         height="100%" />
      <path
         d="m 252,-156 c 43,0 55,33 55,80 0,46 -13,78 -56,78 -42,0 -55,-33 -55,-78 0,-48 12,-80 56,-80 z M 93,0 H 65 l 162,-248 h 28 z M 13,-171 c -1,-47 13,-79 56,-79 43,0 55,33 55,79 0,46 -13,79 -55,79 -43,0 -56,-33 -56,-79 z m 238,154 c 28,0 30,-29 30,-59 0,-31 -1,-60 -29,-60 -29,0 -31,29 -31,60 0,29 2,59 30,59 z M 69,-112 c 27,0 28,-30 29,-59 0,-31 -1,-60 -29,-60 -29,0 -30,30 -30,60 0,30 2,59 30,59"
         id="J" />
      <g
         id="k">
        <use
           transform="scale(0.0617284)"
           xlink:href="#D"
           id="use160"
           x="0"
           y="0"
           width="100%"
           height="100%" />
        <use
           transform="matrix(0.0617284,0,0,0.0617284,12.345679,0)"
           xlink:href="#J"
           id="use162"
           x="0"
           y="0"
           width="100%"
           height="100%" />
      </g>
      <g
         id="l">
        <use
           transform="scale(0.0617284)"
           xlink:href="#A"
           id="use165"
           x="0"
           y="0"
           width="100%"
           height="100%" />
        <use
           transform="matrix(0.0617284,0,0,0.0617284,12.345679,0)"
           xlink:href="#B"
           id="use167"
           x="0"
           y="0"
           width="100%"
           height="100%" />
        <use
           transform="matrix(0.0617284,0,0,0.0617284,30.802469,0)"
           xlink:href="#C"
           id="use169"
           x="0"
           y="0"
           width="100%"
           height="100%" />
      </g>
      <path
         d="m 117,-194 c 89,-4 53,116 60,194 h -32 v -121 c 0,-31 -8,-49 -39,-48 C 34,-167 62,-67 57,0 H 25 l -1,-190 h 30 c 1,10 -1,24 2,32 11,-22 29,-35 61,-36"
         id="K" />
      <use
         transform="scale(0.0617284)"
         xlink:href="#K"
         id="m"
         x="0"
         y="0"
         width="100%"
         height="100%" />
      <g
         id="o">
        <use
           transform="scale(0.0617284)"
           xlink:href="#G"
           id="use174"
           x="0"
           y="0"
           width="100%"
           height="100%" />
        <use
           transform="matrix(0.0617284,0,0,0.0617284,12.345679,0)"
           xlink:href="#y"
           id="use176"
           x="0"
           y="0"
           width="100%"
           height="100%" />
        <use
           transform="matrix(0.0617284,0,0,0.0617284,24.691358,0)"
           xlink:href="#H"
           id="use178"
           x="0"
           y="0"
           width="100%"
           height="100%" />
        <use
           transform="matrix(0.0617284,0,0,0.0617284,37.037037,0)"
           xlink:href="#H"
           id="use180"
           x="0"
           y="0"
           width="100%"
           height="100%" />
      </g>
      <g
         id="p">
        <use
           transform="scale(0.0617284)"
           xlink:href="#G"
           id="use183"
           x="0"
           y="0"
           width="100%"
           height="100%" />
        <use
           transform="matrix(0.0617284,0,0,0.0617284,12.345679,0)"
           xlink:href="#y"
           id="use185"
           x="0"
           y="0"
           width="100%"
           height="100%" />
        <use
           transform="matrix(0.0617284,0,0,0.0617284,24.691358,0)"
           xlink:href="#x"
           id="use187"
           x="0"
           y="0"
           width="100%"
           height="100%" />
        <use
           transform="matrix(0.0617284,0,0,0.0617284,37.037037,0)"
           xlink:href="#H"
           id="use189"
           x="0"
           y="0"
           width="100%"
           height="100%" />
      </g>
      <g
         id="q">
        <use
           transform="scale(0.0617284)"
           xlink:href="#G"
           id="use192"
           x="0"
           y="0"
           width="100%"
           height="100%" />
        <use
           transform="matrix(0.0617284,0,0,0.0617284,12.345679,0)"
           xlink:href="#y"
           id="use194"
           x="0"
           y="0"
           width="100%"
           height="100%" />
        <use
           transform="matrix(0.0617284,0,0,0.0617284,24.691358,0)"
           xlink:href="#y"
           id="use196"
           x="0"
           y="0"
           width="100%"
           height="100%" />
        <use
           transform="matrix(0.0617284,0,0,0.0617284,37.037037,0)"
           xlink:href="#H"
           id="use198"
           x="0"
           y="0"
           width="100%"
           height="100%" />
      </g>
      <path
         fill="#333333"
         d="m 101,-234 c -31,-9 -42,10 -38,44 h 38 v 23 H 63 V 0 H 32 V -167 H 5 v -23 h 27 c -7,-52 17,-82 69,-68 v 24"
         id="L" />
      <g
         id="r">
        <use
           transform="scale(0.0617284)"
           xlink:href="#L"
           id="use202"
           x="0"
           y="0"
           width="100%"
           height="100%" />
        <use
           transform="matrix(0.0617284,0,0,0.0617284,5.7407407,0)"
           xlink:href="#L"
           id="use204"
           x="0"
           y="0"
           width="100%"
           height="100%" />
      </g>
      <path
         fill="#333333"
         d="m 101,-251 c 68,0 85,55 85,127 0,72 -20,128 -86,128 -67,0 -86,-56 -86,-128 0,-73 17,-127 87,-127 z m -1,229 c 47,0 54,-49 54,-102 0,-53 -4,-102 -53,-102 -51,0 -55,48 -55,102 0,53 5,102 54,102"
         id="M" />
      <use
         transform="scale(0.0617284)"
         xlink:href="#M"
         id="s"
         x="0"
         y="0"
         width="100%"
         height="100%" />
      <path
         d="M 137,0 H 103 L 2,-248 h 35 l 83,218 83,-218 h 36"
         id="N" />
      <path
         d="m 30,-248 c 87,1 191,-15 191,75 0,78 -77,80 -158,76 V 0 H 30 Z m 33,125 c 57,0 124,11 124,-50 0,-59 -68,-47 -124,-48 v 98"
         id="O" />
      <path
         d="m 103,-251 c 84,0 111,97 45,133 -19,10 -37,24 -39,52 H 78 c 0,-63 77,-55 77,-114 0,-30 -21,-42 -52,-43 -32,0 -53,17 -56,46 l -32,-2 c 7,-45 34,-72 88,-72 z M 77,0 v -35 h 34 V 0 H 77"
         id="P" />
      <g
         id="t">
        <use
           transform="scale(0.0617284)"
           xlink:href="#N"
           id="use212"
           x="0"
           y="0"
           width="100%"
           height="100%" />
        <use
           transform="matrix(0.0617284,0,0,0.0617284,14.814815,0)"
           xlink:href="#O"
           id="use214"
           x="0"
           y="0"
           width="100%"
           height="100%" />
        <use
           transform="matrix(0.0617284,0,0,0.0617284,29.62963,0)"
           xlink:href="#F"
           id="use216"
           x="0"
           y="0"
           width="100%"
           height="100%" />
        <use
           transform="matrix(0.0617284,0,0,0.0617284,42.592593,0)"
           xlink:href="#G"
           id="use218"
           x="0"
           y="0"
           width="100%"
           height="100%" />
        <use
           transform="matrix(0.0617284,0,0,0.0617284,54.938272,0)"
           xlink:href="#P"
           id="use220"
           x="0"
           y="0"
           width="100%"
           height="100%" />
      </g>
      <path
         d="M 24,0 V -54 H 75 V 0 H 24"
         id="Q" />
      <use
         transform="scale(0.0617284)"
         xlink:href="#Q"
         id="u"
         x="0"
         y="0"
         width="100%"
         height="100%" />
      <use
         transform="scale(0.0617284)"
         xlink:href="#Q"
         id="v"
         x="0"
         y="0"
         width="100%"
         height="100%" />
      <use
         transform="scale(0.0617284)"
         xlink:href="#Q"
         id="w"
         x="0"
         y="0"
         width="100%"
         height="100%" />
    </defs>
  </g>
</svg>
