<svg xmlns="http://www.w3.org/2000/svg" xmlns:xlink="http://www.w3.org/1999/xlink" xmlns:lucid="lucid" width="651" height="577.67"><g transform="translate(-260 -120)" lucid:page-tab-id="0_0"><path d="M0 0h1870.4v1323.2H0z" fill="#fff"/><path d="M395 320h466.5" stroke="#000" stroke-width="2" fill="none"/><path/><path d="M876.76 320l-14.26 4.64v-9.28z" stroke="#000" stroke-width="2"/><path d="M400 319v-60.5M400 318.97V320" stroke="#000" stroke-width="2" fill="none"/><path d="M400 243.24l4.64 14.26h-9.28z" stroke="#000" stroke-width="2"/><path d="M500.02 321l1.03 68.5" stroke="#000" stroke-width="2" fill="none"/><path d="M501.02 321l-2 .04L499 320h2z"/><path d="M501.28 404.76l-4.85-14.2 9.27-.13z" stroke="#000" stroke-width="2"/><path d="M602 321v100.5" stroke="#000" stroke-width="2" fill="none"/><path d="M603 321.03h-2V320h2z"/><path d="M602 436.76l-4.64-14.26h9.28z" stroke="#000" stroke-width="2"/><path d="M703.33 321v78.66c0 .2.15.34.34.34.2 0 .34.15.34.34v61.16" stroke="#000" stroke-width="2" fill="none"/><path d="M704.33 321.03h-2V320h2z"/><path d="M704 476.76l-4.62-14.26h9.27z" stroke="#000" stroke-width="2"/><path d="M800 321v177.16" stroke="#000" stroke-width="2" fill="none"/><path d="M801 321.03h-2V320h2z"/><path d="M800 513.43l-4.64-14.27h9.28z" stroke="#000" stroke-width="2"/><path d="M583.33 286c0-3.3 2.7-6 6-6h228c3.32 0 6 2.7 6 6v28c0 3.3-2.68 6-6 6h-228c-3.3 0-6-2.7-6-6zM450 266c0-3.3 2.7-6 6-6h88c3.3 0 6 2.7 6 6v48c0 3.3-2.7 6-6 6h-88c-3.3 0-6-2.7-6-6z" stroke="#000" stroke-opacity="0" stroke-width="3" fill-opacity="0"/><use xlink:href="#a" transform="matrix(1,0,0,1,455,265) translate(38.82716049382716 30.27777777777778)"/><path d="M543 266c0-3.3 2.7-6 6-6h106c3.3 0 6 2.7 6 6v48c0 3.3-2.7 6-6 6H549c-3.3 0-6-2.7-6-6z" stroke="#000" stroke-opacity="0" stroke-width="3" fill-opacity="0"/><use xlink:href="#b" transform="matrix(1,0,0,1,548,265) translate(47.82716049382716 30.27777777777778)"/><path d="M750 266c0-3.3 2.7-6 6-6h88c3.3 0 6 2.7 6 6v48c0 3.3-2.7 6-6 6h-88c-3.3 0-6-2.7-6-6z" stroke="#000" stroke-opacity="0" stroke-width="3" fill-opacity="0"/><use xlink:href="#c" transform="matrix(1,0,0,1,755,265) translate(20.925925925925924 30.27777777777778)"/><path d="M666.67 266c0-3.3 2.68-6 6-6H734c3.3 0 6 2.7 6 6v48c0 3.3-2.7 6-6 6h-61.33c-3.32 0-6-2.7-6-6z" stroke="#000" stroke-opacity="0" stroke-width="3" fill-opacity="0"/><use xlink:href="#d" transform="matrix(1,0,0,1,671.6661666666668,265) translate(25.82716049382716 30.27777777777778)"/><path d="M280 386c0-3.3 2.7-6 6-6h228c3.3 0 6 2.7 6 6v48c0 3.3-2.7 6-6 6H286c-3.3 0-6-2.7-6-6zM500 546c0-3.3 2.68-6 6-6h311.33c3.32 0 6 2.7 6 6v104.67c0 3.3-2.68 6-6 6H506c-3.32 0-6-2.7-6-6z" stroke="#000" stroke-opacity="0" stroke-width="3" fill-opacity="0"/><use xlink:href="#e" transform="matrix(1,0,0,1,504.99850000000026,545) translate(24.12962962962962 17.77777777777778)"/><use xlink:href="#f" transform="matrix(1,0,0,1,504.99850000000026,545) translate(42.64814814814814 17.77777777777778)"/><use xlink:href="#g" transform="matrix(1,0,0,1,504.99850000000026,545) translate(61.783950617283935 17.77777777777778)"/><use xlink:href="#h" transform="matrix(1,0,0,1,504.99850000000026,545) translate(112.40123456790121 17.77777777777778)"/><use xlink:href="#i" transform="matrix(1,0,0,1,504.99850000000026,545) translate(207.27777777777777 17.77777777777778)"/><use xlink:href="#j" transform="matrix(1,0,0,1,504.99850000000026,545) translate(238.14197530864197 17.77777777777778)"/><use xlink:href="#k" transform="matrix(1,0,0,1,504.99850000000026,545) translate(104.87037037037038 44.44444444444444)"/><use xlink:href="#f" transform="matrix(1,0,0,1,504.99850000000026,545) translate(115.91975308641976 44.44444444444444)"/><use xlink:href="#l" transform="matrix(1,0,0,1,504.99850000000026,545) translate(135.05555555555557 44.44444444444444)"/><use xlink:href="#m" transform="matrix(1,0,0,1,504.99850000000026,545) translate(173.32716049382717 44.44444444444444)"/><use xlink:href="#n" transform="matrix(1,0,0,1,504.99850000000026,545) translate(111.01234567901236 71.11111111111111)"/><use xlink:href="#o" transform="matrix(1,0,0,1,504.99850000000026,545) translate(129.5308641975309 71.11111111111111)"/><use xlink:href="#p" transform="matrix(1,0,0,1,504.99850000000026,545) translate(148.66666666666669 71.11111111111111)"/><use xlink:href="#q" transform="matrix(1,0,0,1,504.99850000000026,545) translate(167.1851851851852 71.11111111111111)"/><use xlink:href="#r" transform="matrix(1,0,0,1,504.99850000000026,545) translate(157 97.77777777777777)"/><path d="M380 406c0-3.3 2.7-6 6-6h228c3.3 0 6 2.7 6 6v48c0 3.3-2.7 6-6 6H386c-3.3 0-6-2.7-6-6z" stroke="#000" stroke-opacity="0" stroke-width="3" fill-opacity="0"/><use xlink:href="#s" transform="matrix(1,0,0,1,385,405) translate(90.3395061728395 30.27777777777778)"/><path d="M556 440h92v36.67h-92z" fill-opacity="0"/><use xlink:href="#t" transform="matrix(1,0,0,1,561.0123456790124,445) translate(13.253086419753089 17.77777777777778)"/><use xlink:href="#u" transform="matrix(1,0,0,1,561.0123456790124,445) translate(56.401234567901234 17.77777777777778)"/><path d="M658.02 480H750v36.67h-91.98z" fill-opacity="0"/><use xlink:href="#v" transform="matrix(1,0,0,1,663.0246913580247,484.99999999999994) translate(13.253086419753089 17.77777777777778)"/><use xlink:href="#u" transform="matrix(1,0,0,1,663.0246913580247,484.99999999999994) translate(56.401234567901234 17.77777777777778)"/><path d="M754 516.67h92v36.66h-92z" fill-opacity="0"/><use xlink:href="#w" transform="matrix(1,0,0,1,759.0123456790124,521.6666666666666) translate(13.253086419753089 17.77777777777778)"/><use xlink:href="#u" transform="matrix(1,0,0,1,759.0123456790124,521.6666666666666) translate(56.401234567901234 17.77777777777778)"/><path d="M320 266c0-3.3 2.7-6 6-6h68c3.3 0 6 2.7 6 6v48c0 3.3-2.7 6-6 6h-68c-3.3 0-6-2.7-6-6z" stroke="#000" stroke-opacity="0" stroke-width="3" fill="#fff" fill-opacity="0"/><g><use xlink:href="#x" transform="matrix(1,0,0,1,325,265) translate(29.04320987654321 30.27777777777778)"/></g><path d="M400 459v-3.9m0-7.82v-7.82m0-7.8v-7.83m0-7.8v-7.83m0-7.8v-7.83m0-7.8v-7.83m0-7.8v-7.83m0-7.8v-7.8m0-7.83v-7.8m0-7.83v-7.8m0-7.83v-7.8m0-7.82v-7.8m0-7.83v-7.8m0-7.83v-7.8m0-7.83v-7.82m0-7.82v-7.8m0-7.83v-7.8m0-7.83v-7.8m0-7.83v-3.9" stroke="#5e5e5e" stroke-width="2" fill="none"/><path d="M401 460h-2v-1.03h2zM401 177.7h-2v-1.03h2z" fill="#5e5e5e"/><path d="M799.9 554.33l-.33 3.95m-4.26 3.07l-1.37-.76-.95-.23-.82-.02-.8.16-.9.4-1.12.78-.95 1.02m-4 6.8l-2.9 7.4m-2.77 7.43l-1.33 3.55-1.73 3.77m-3.5 7.1l-2.73 4.92-1.28 1.93m-4.5 6.52l-3.3 4.27-1.7 1.87m-5.42 5.8l-5.76 5.46m-5.95 5.25l-6.05 5.13m-6.07 5.12l-3.57 2.9-2.67 1.98m-6.5 4.56l-1.32.9-5.37 3.34m-6.92 3.9l-5.92 3-1.17.55m-7.24 3.24l-5.76 2.34-1.6.58m-7.5 2.63l-7.02 2.2-.55.15m-7.67 2.06l-.67.18-7.07 1.58m-7.8 1.5l-4.63.84-3.2.43m-7.86 1.05l-7.9.75m-7.9.52l-5.88.3-2.05.05m-7.93.06l-1.75-.03-3.53-.23-2.64-.27m-7.84-1.24l-1.4-.27-4.5-1.06-1.82-.5m-7.6-2.34l-.46-.16-5.47-2.03-1.47-.6m-7.26-3.2l-3.4-1.6-3.7-1.95m-6.94-3.84l-3.23-1.86-3.55-2.25m-6.62-4.38l-5.46-3.8-1.02-.77m-6.32-4.8l-1.08-.82-5.07-4.2m-6.02-5.15l-5.9-5.3m-5.68-5.54l-4.05-3.96-1.55-1.66m-5.43-5.78l-2.03-2.14-3.26-3.78m-5.17-6l-.35-.42-4.6-5.8m-4.87-6.25l-4.65-6.42m-4.53-6.52l-4.4-6.6m-4.15-6.75l-3.34-5.53-.7-1.3m-3.84-6.94l-1.52-2.76-2.13-4.3m-3.5-7.1l-3.23-7.25m-3.03-7.33l-2.16-5.42-.7-2m-2.6-7.48l-.1-.28-2.2-7.3m-2.07-7.67l-.86-3.36-.92-4.38m-1.5-7.8l-.8-4.6-.4-3.23m-.85-7.88l-.34-3.96" stroke="#3aa6dd" stroke-width="2" fill="none"/><path d="M800.9 554.44l-2-.17.1-.94h2z" fill="#3aa6dd"/><path d="M400.03 443.24l4.8 14.2-9.28.1z" stroke="#3aa6dd" stroke-width="2" fill="#3aa6dd"/><path d="M400 266c0-3.3 2.7-6 6-6h49c3.3 0 6 2.7 6 6v48c0 3.3-2.7 6-6 6h-49c-3.3 0-6-2.7-6-6z" stroke="#000" stroke-opacity="0" stroke-width="3" fill="#fff" fill-opacity="0"/><g><use xlink:href="#y" transform="matrix(1,0,0,1,405,265) translate(19.32716049382716 30.27777777777778)"/></g><path d="M327.4 140h145.2v36.67H327.4z" fill="#fff" fill-opacity="0"/><g><use xlink:href="#z" transform="matrix(1,0,0,1,332.4074074074074,145) translate(0.4074074074074048 17.77777777777778)"/></g><path d="M502.27 408.34l296.8 107.98M502.3 408.35l-3.8-1.38" stroke="#3aa6dd" stroke-width="2" fill="none"/><path d="M802.92 516.67h-4l.46-1.3z" fill="#3aa6dd"/><defs><path d="M27 0v-27h64v-190l-56 39v-29l58-41h29v221h61V0H27" id="A"/><use transform="matrix(0.06172839506172839,0,0,0.06172839506172839,0,0)" xlink:href="#A" id="a"/><path d="M101-251c82-7 93 87 43 132L82-64C71-53 59-42 53-27h129V0H18c2-99 128-94 128-182 0-28-16-43-45-43s-46 15-49 41l-32-3c6-41 34-60 81-64" id="B"/><use transform="matrix(0.06172839506172839,0,0,0.06172839506172839,0,0)" xlink:href="#B" id="b"/><path d="M155-56V0h-30v-56H8v-25l114-167h33v167h35v25h-35zm-30-156c-27 46-58 90-88 131h88v-131" id="C"/><path d="M115-194c55 1 70 41 70 98S169 2 115 4C84 4 66-9 55-30l1 105H24l-1-265h31l2 30c10-21 28-34 59-34zm-8 174c40 0 45-34 45-75s-6-73-45-74c-42 0-51 32-51 76 0 43 10 73 51 73" id="D"/><path d="M141-36C126-15 110 5 73 4 37 3 15-17 15-53c-1-64 63-63 125-63 3-35-9-54-41-54-24 1-41 7-42 31l-33-3c5-37 33-52 76-52 45 0 72 20 72 64v82c-1 20 7 32 28 27v20c-31 9-61-2-59-35zM48-53c0 20 12 33 32 33 41-3 63-29 60-74-43 2-92-5-92 41" id="E"/><path d="M108 0H70L1-190h34L89-25l56-165h34" id="F"/><g id="c"><use transform="matrix(0.06172839506172839,0,0,0.06172839506172839,0,0)" xlink:href="#C"/><use transform="matrix(0.06172839506172839,0,0,0.06172839506172839,12.345679012345679,0)" xlink:href="#D"/><use transform="matrix(0.06172839506172839,0,0,0.06172839506172839,24.691358024691358,0)" xlink:href="#E"/><use transform="matrix(0.06172839506172839,0,0,0.06172839506172839,37.03703703703704,0)" xlink:href="#F"/></g><path d="M126-127c33 6 58 20 58 59 0 88-139 92-164 29-3-8-5-16-6-25l32-3c6 27 21 44 54 44 32 0 52-15 52-46 0-38-36-46-79-43v-28c39 1 72-4 72-42 0-27-17-43-46-43-28 0-47 15-49 41l-32-3c6-42 35-63 81-64 48-1 79 21 79 65 0 36-21 52-52 59" id="G"/><use transform="matrix(0.06172839506172839,0,0,0.06172839506172839,0,0)" xlink:href="#G" id="d"/><path d="M177-190C167-65 218 103 67 71c-23-6-38-20-44-43l32-5c15 47 100 32 89-28v-30C133-14 115 1 83 1 29 1 15-40 15-95c0-56 16-97 71-98 29-1 48 16 59 35 1-10 0-23 2-32h30zM94-22c36 0 50-32 50-73 0-42-14-75-50-75-39 0-46 34-46 75s6 73 46 73" id="H"/><use transform="matrix(0.06172839506172839,0,0,0.06172839506172839,0,0)" xlink:href="#H" id="e"/><path d="M18-150v-26h174v26H18zm0 90v-26h174v26H18" id="I"/><use transform="matrix(0.06172839506172839,0,0,0.06172839506172839,0,0)" xlink:href="#I" id="f"/><path d="M101-251c68 0 85 55 85 127S166 4 100 4C33 4 14-52 14-124c0-73 17-127 87-127zm-1 229c47 0 54-49 54-102s-4-102-53-102c-51 0-55 48-55 102 0 53 5 102 54 102" id="J"/><path d="M252-156c43 0 55 33 55 80 0 46-13 78-56 78-42 0-55-33-55-78 0-48 12-80 56-80zM93 0H65l162-248h28zM13-171c-1-47 13-79 56-79s55 33 55 79-13 79-55 79c-43 0-56-33-56-79zM251-17c28 0 30-29 30-59 0-31-1-60-29-60-29 0-31 29-31 60 0 29 2 59 30 59zM69-112c27 0 28-30 29-59 0-31-1-60-29-60-29 0-30 30-30 60s2 59 30 59" id="K"/><g id="g"><use transform="matrix(0.06172839506172839,0,0,0.06172839506172839,0,0)" xlink:href="#A"/><use transform="matrix(0.06172839506172839,0,0,0.06172839506172839,12.345679012345679,0)" xlink:href="#J"/><use transform="matrix(0.06172839506172839,0,0,0.06172839506172839,24.691358024691358,0)" xlink:href="#K"/></g><path d="M114-163C36-179 61-72 57 0H25l-1-190h30c1 12-1 29 2 39 6-27 23-49 58-41v29" id="L"/><path d="M24-231v-30h32v30H24zM24 0v-190h32V0H24" id="M"/><path d="M96-169c-40 0-48 33-48 73s9 75 48 75c24 0 41-14 43-38l32 2c-6 37-31 61-74 61-59 0-76-41-82-99-10-93 101-131 147-64 4 7 5 14 7 22l-32 3c-4-21-16-35-41-35" id="N"/><path d="M100-194c62-1 85 37 85 99 1 63-27 99-86 99S16-35 15-95c0-66 28-99 85-99zM99-20c44 1 53-31 53-75 0-43-8-75-51-75s-53 32-53 75 10 74 51 75zM76-211c8-23 27-35 38-54h36v5l-58 49H76" id="O"/><path d="M117-194c89-4 53 116 60 194h-32v-121c0-31-8-49-39-48C34-167 62-67 57 0H25l-1-190h30c1 10-1 24 2 32 11-22 29-35 61-36" id="P"/><g id="h"><use transform="matrix(0.06172839506172839,0,0,0.06172839506172839,0,0)" xlink:href="#F"/><use transform="matrix(0.06172839506172839,0,0,0.06172839506172839,11.11111111111111,0)" xlink:href="#E"/><use transform="matrix(0.06172839506172839,0,0,0.06172839506172839,23.45679012345679,0)" xlink:href="#L"/><use transform="matrix(0.06172839506172839,0,0,0.06172839506172839,30.80246913580247,0)" xlink:href="#M"/><use transform="matrix(0.06172839506172839,0,0,0.06172839506172839,35.67901234567901,0)" xlink:href="#E"/><use transform="matrix(0.06172839506172839,0,0,0.06172839506172839,48.02469135802469,0)" xlink:href="#N"/><use transform="matrix(0.06172839506172839,0,0,0.06172839506172839,59.1358024691358,0)" xlink:href="#M"/><use transform="matrix(0.06172839506172839,0,0,0.06172839506172839,64.01234567901234,0)" xlink:href="#O"/><use transform="matrix(0.06172839506172839,0,0,0.06172839506172839,76.35802469135803,0)" xlink:href="#P"/></g><path d="M85-194c31 0 48 13 60 33l-1-100h32l1 261h-30c-2-10 0-23-3-31C134-8 116 4 85 4 32 4 16-35 15-94c0-66 23-100 70-100zm9 24c-40 0-46 34-46 75 0 40 6 74 45 74 42 0 51-32 51-76 0-42-9-74-50-73" id="Q"/><path d="M100-194c63 0 86 42 84 106H49c0 40 14 67 53 68 26 1 43-12 49-29l28 8c-11 28-37 45-77 45C44 4 14-33 15-96c1-61 26-98 85-98zm52 81c6-60-76-77-97-28-3 7-6 17-6 28h103" id="R"/><g id="i"><use transform="matrix(0.06172839506172839,0,0,0.06172839506172839,0,0)" xlink:href="#Q"/><use transform="matrix(0.06172839506172839,0,0,0.06172839506172839,12.345679012345679,0)" xlink:href="#R"/></g><path d="M101-234c-31-9-42 10-38 44h38v23H63V0H32v-167H5v-23h27c-7-52 17-82 69-68v24" id="S"/><path d="M24 0v-261h32V0H24" id="T"/><path d="M84 4C-5 8 30-112 23-190h32v120c0 31 7 50 39 49 72-2 45-101 50-169h31l1 190h-30c-1-10 1-25-2-33-11 22-28 36-60 37" id="U"/><path d="M24-231v-30h32v30H24zM-9 49c24 4 33-6 33-30v-209h32V24c2 40-23 58-65 49V49" id="V"/><path d="M100-194c62-1 85 37 85 99 1 63-27 99-86 99S16-35 15-95c0-66 28-99 85-99zM99-20c44 1 53-31 53-75 0-43-8-75-51-75s-53 32-53 75 10 74 51 75" id="W"/><path d="M135-143c-3-34-86-38-87 0 15 53 115 12 119 90S17 21 10-45l28-5c4 36 97 45 98 0-10-56-113-15-118-90-4-57 82-63 122-42 12 7 21 19 24 35" id="X"/><g id="j"><use transform="matrix(0.06172839506172839,0,0,0.06172839506172839,0,0)" xlink:href="#S"/><use transform="matrix(0.06172839506172839,0,0,0.06172839506172839,6.172839506172839,0)" xlink:href="#T"/><use transform="matrix(0.06172839506172839,0,0,0.06172839506172839,11.049382716049383,0)" xlink:href="#U"/><use transform="matrix(0.06172839506172839,0,0,0.06172839506172839,23.395061728395063,0)" xlink:href="#V"/><use transform="matrix(0.06172839506172839,0,0,0.06172839506172839,28.271604938271608,0)" xlink:href="#W"/><use transform="matrix(0.06172839506172839,0,0,0.06172839506172839,40.617283950617285,0)" xlink:href="#X"/></g><use transform="matrix(0.06172839506172839,0,0,0.06172839506172839,0,0)" xlink:href="#M" id="k"/><path d="M134-131c28 9 52 24 51 62-1 50-34 73-85 73S17-19 16-69c0-36 21-54 49-61-75-25-45-126 34-121 46 3 78 18 79 63 0 33-17 51-44 57zm-34-11c31 1 46-15 46-44 0-28-17-43-47-42-29 0-46 13-45 42 1 28 16 44 46 44zm1 122c35 0 51-18 51-52 0-30-18-46-53-46-33 0-51 17-51 47 0 34 19 51 53 51" id="Y"/><g id="l"><use transform="matrix(0.06172839506172839,0,0,0.06172839506172839,0,0)" xlink:href="#Y"/><use transform="matrix(0.06172839506172839,0,0,0.06172839506172839,12.345679012345679,0)" xlink:href="#K"/></g><g id="m"><use transform="matrix(0.06172839506172839,0,0,0.06172839506172839,0,0)" xlink:href="#D"/><use transform="matrix(0.06172839506172839,0,0,0.06172839506172839,12.345679012345679,0)" xlink:href="#E"/><use transform="matrix(0.06172839506172839,0,0,0.06172839506172839,24.691358024691358,0)" xlink:href="#F"/></g><use transform="matrix(0.06172839506172839,0,0,0.06172839506172839,0,0)" xlink:href="#P" id="n"/><use transform="matrix(0.06172839506172839,0,0,0.06172839506172839,0,0)" xlink:href="#I" id="o"/><use transform="matrix(0.06172839506172839,0,0,0.06172839506172839,0,0)" xlink:href="#C" id="p"/><g id="q"><use transform="matrix(0.06172839506172839,0,0,0.06172839506172839,0,0)" xlink:href="#D"/><use transform="matrix(0.06172839506172839,0,0,0.06172839506172839,12.345679012345679,0)" xlink:href="#E"/><use transform="matrix(0.06172839506172839,0,0,0.06172839506172839,24.691358024691358,0)" xlink:href="#F"/></g><path d="M194-70c0 46-34 64-81 66v29H91V-4C42-5 12-27 4-67l30-6c5 28 25 41 57 43v-87c-38-9-76-20-76-67 1-42 33-58 76-59v-23h22v23c45 0 67 20 76 56l-31 6c-5-23-18-35-45-37v78c41 10 81 20 81 70zm-81 41c51 7 71-66 19-77-6-2-12-4-19-6v83zM91-219c-47-6-63 57-18 69 6 2 12 3 18 5v-74" id="Z"/><path d="M233-177c-1 41-23 64-60 70L243 0h-38l-65-103H63V0H30v-248c88 3 205-21 203 71zM63-129c60-2 137 13 137-47 0-61-80-42-137-45v92" id="aa"/><path d="M103-251c84 0 111 97 45 133-19 10-37 24-39 52H78c0-63 77-55 77-114 0-30-21-42-52-43-32 0-53 17-56 46l-32-2c7-45 34-72 88-72zM77 0v-35h34V0H77" id="ab"/><g id="s"><use transform="matrix(0.06172839506172839,0,0,0.06172839506172839,0,0)" xlink:href="#Z"/><use transform="matrix(0.06172839506172839,0,0,0.06172839506172839,12.345679012345679,0)" xlink:href="#aa"/><use transform="matrix(0.04320987654320987,0,0,0.04320987654320987,28.33333333333333,0)" xlink:href="#A"/><use transform="matrix(0.06172839506172839,0,0,0.06172839506172839,36.9753086419753,0)" xlink:href="#ab"/></g><g id="t"><use transform="matrix(0.06172839506172839,0,0,0.06172839506172839,0,0)" xlink:href="#Z"/><use transform="matrix(0.06172839506172839,0,0,0.06172839506172839,12.345679012345679,0)" xlink:href="#aa"/><use transform="matrix(0.04320987654320987,0,0,0.04320987654320987,28.33333333333333,0)" xlink:href="#B"/></g><use transform="matrix(0.06172839506172839,0,0,0.06172839506172839,0,0)" xlink:href="#ab" id="u"/><g id="v"><use transform="matrix(0.06172839506172839,0,0,0.06172839506172839,0,0)" xlink:href="#Z"/><use transform="matrix(0.06172839506172839,0,0,0.06172839506172839,12.345679012345679,0)" xlink:href="#aa"/><use transform="matrix(0.04320987654320987,0,0,0.04320987654320987,28.33333333333333,0)" xlink:href="#G"/></g><g id="w"><use transform="matrix(0.06172839506172839,0,0,0.06172839506172839,0,0)" xlink:href="#Z"/><use transform="matrix(0.06172839506172839,0,0,0.06172839506172839,12.345679012345679,0)" xlink:href="#aa"/><use transform="matrix(0.04320987654320987,0,0,0.04320987654320987,28.33333333333333,0)" xlink:href="#C"/></g><path fill="#333" d="M101-234c-31-9-42 10-38 44h38v23H63V0H32v-167H5v-23h27c-7-52 17-82 69-68v24" id="ac"/><g id="x"><use transform="matrix(0.06172839506172839,0,0,0.06172839506172839,0,0)" xlink:href="#ac"/><use transform="matrix(0.06172839506172839,0,0,0.06172839506172839,5.7407407407407405,0)" xlink:href="#ac"/></g><path fill="#333" d="M101-251c68 0 85 55 85 127S166 4 100 4C33 4 14-52 14-124c0-73 17-127 87-127zm-1 229c47 0 54-49 54-102s-4-102-53-102c-51 0-55 48-55 102 0 53 5 102 54 102" id="ad"/><use transform="matrix(0.06172839506172839,0,0,0.06172839506172839,0,0)" xlink:href="#ad" id="y"/><path d="M137 0h-34L2-248h35l83 218 83-218h36" id="ae"/><path d="M30-248c87 1 191-15 191 75 0 78-77 80-158 76V0H30v-248zm33 125c57 0 124 11 124-50 0-59-68-47-124-48v98" id="af"/><path d="M33 0v-38h34V0H33" id="ag"/><g id="z"><use transform="matrix(0.06172839506172839,0,0,0.06172839506172839,0,0)" xlink:href="#ae"/><use transform="matrix(0.06172839506172839,0,0,0.06172839506172839,14.814814814814813,0)" xlink:href="#af"/><use transform="matrix(0.06172839506172839,0,0,0.06172839506172839,29.629629629629626,0)" xlink:href="#I"/><use transform="matrix(0.06172839506172839,0,0,0.06172839506172839,42.59259259259259,0)" xlink:href="#Z"/><use transform="matrix(0.06172839506172839,0,0,0.06172839506172839,54.938271604938265,0)" xlink:href="#A"/><use transform="matrix(0.06172839506172839,0,0,0.06172839506172839,67.28395061728395,0)" xlink:href="#J"/><use transform="matrix(0.06172839506172839,0,0,0.06172839506172839,79.62962962962963,0)" xlink:href="#J"/><use transform="matrix(0.06172839506172839,0,0,0.06172839506172839,91.97530864197532,0)" xlink:href="#ag"/><use transform="matrix(0.06172839506172839,0,0,0.06172839506172839,98.14814814814815,0)" xlink:href="#J"/><use transform="matrix(0.06172839506172839,0,0,0.06172839506172839,110.49382716049384,0)" xlink:href="#J"/><use transform="matrix(0.06172839506172839,0,0,0.06172839506172839,122.83950617283952,0)" xlink:href="#J"/></g></defs></g></svg>