<svg xmlns="http://www.w3.org/2000/svg" xmlns:xlink="http://www.w3.org/1999/xlink" xmlns:lucid="lucid" width="651" height="508.67"><g transform="translate(-260 -189)" lucid:page-tab-id="0_0"><path d="M0 0h1870.4v1323.2H0z" fill="#fff"/><path d="M401 320h460.5" stroke="#000" stroke-width="2" fill="none"/><path/><path d="M876.76 320l-14.26 4.64v-9.28z" stroke="#000" stroke-width="2"/><path d="M400 321v80.5" stroke="#000" stroke-width="2" fill="none"/><path d="M401 321.03h-2V320h2z"/><path d="M400 416.76l-4.64-14.26h9.28z" stroke="#000" stroke-width="2"/><path d="M500 321v220.5" stroke="#000" stroke-width="2" fill="none"/><path d="M501 321.03h-2V320h2z"/><path d="M500 556.76l-4.64-14.26h9.28z" stroke="#000" stroke-width="2"/><path d="M602 321v200.5" stroke="#000" stroke-width="2" fill="none"/><path d="M603 321.03h-2V320h2z"/><path d="M602 536.76l-4.64-14.26h9.28z" stroke="#000" stroke-width="2"/><path d="M703.33 321v163.83" stroke="#000" stroke-width="2" fill="none"/><path d="M704.33 321.03h-2V320h2z"/><path d="M703.33 500.1l-4.63-14.27h9.27z" stroke="#000" stroke-width="2"/><path d="M800 321v122.16" stroke="#000" stroke-width="2" fill="none"/><path d="M801 321.03h-2V320h2z"/><path d="M800 458.43l-4.64-14.27h9.28z" stroke="#000" stroke-width="2"/><path d="M583.33 286c0-3.3 2.7-6 6-6h228c3.32 0 6 2.7 6 6v28c0 3.3-2.68 6-6 6h-228c-3.3 0-6-2.7-6-6zM360 266c0-3.3 2.7-6 6-6h68c3.3 0 6 2.7 6 6v48c0 3.3-2.7 6-6 6h-68c-3.3 0-6-2.7-6-6z" stroke="#000" stroke-opacity="0" stroke-width="3" fill-opacity="0"/><use xlink:href="#a" transform="matrix(1,0,0,1,365,265) translate(28.82716049382716 30.27777777777778)"/><path d="M450 266c0-3.3 2.7-6 6-6h88c3.3 0 6 2.7 6 6v48c0 3.3-2.7 6-6 6h-88c-3.3 0-6-2.7-6-6z" stroke="#000" stroke-opacity="0" stroke-width="3" fill-opacity="0"/><use xlink:href="#b" transform="matrix(1,0,0,1,455,265) translate(38.82716049382716 30.27777777777778)"/><path d="M543 266c0-3.3 2.7-6 6-6h106c3.3 0 6 2.7 6 6v48c0 3.3-2.7 6-6 6H549c-3.3 0-6-2.7-6-6z" stroke="#000" stroke-opacity="0" stroke-width="3" fill-opacity="0"/><use xlink:href="#c" transform="matrix(1,0,0,1,548,265) translate(47.82716049382716 30.27777777777778)"/><path d="M750 266c0-3.3 2.7-6 6-6h88c3.3 0 6 2.7 6 6v48c0 3.3-2.7 6-6 6h-88c-3.3 0-6-2.7-6-6z" stroke="#000" stroke-opacity="0" stroke-width="3" fill-opacity="0"/><use xlink:href="#d" transform="matrix(1,0,0,1,755,265) translate(20.925925925925924 30.27777777777778)"/><path d="M666.67 266c0-3.3 2.68-6 6-6H734c3.3 0 6 2.7 6 6v48c0 3.3-2.7 6-6 6h-61.33c-3.32 0-6-2.7-6-6z" stroke="#000" stroke-opacity="0" stroke-width="3" fill-opacity="0"/><use xlink:href="#e" transform="matrix(1,0,0,1,671.6661666666668,265) translate(25.82716049382716 30.27777777777778)"/><path d="M280 426c0-3.3 2.7-6 6-6h228c3.3 0 6 2.7 6 6v48c0 3.3-2.7 6-6 6H286c-3.3 0-6-2.7-6-6z" stroke="#000" stroke-opacity="0" stroke-width="3" fill-opacity="0"/><use xlink:href="#f" transform="matrix(1,0,0,1,285,425) translate(47.407407407407405 30.27777777777778)"/><path d="M500 582.67c0-3.32 2.68-6 6-6h228c3.3 0 6 2.68 6 6v78c0 3.3-2.7 6-6 6H506c-3.32 0-6-2.7-6-6z" stroke="#000" stroke-opacity="0" stroke-width="3" fill-opacity="0"/><use xlink:href="#g" transform="matrix(1,0,0,1,504.99850000000026,581.6666666666666) translate(58.54938271604938 17.77777777777778)"/><use xlink:href="#h" transform="matrix(1,0,0,1,504.99850000000026,581.6666666666666) translate(62.870370370370374 44.44444444444444)"/><use xlink:href="#i" transform="matrix(1,0,0,1,504.99850000000026,581.6666666666666) translate(73.91975308641976 44.44444444444444)"/><use xlink:href="#j" transform="matrix(1,0,0,1,504.99850000000026,581.6666666666666) translate(93.05555555555556 44.44444444444444)"/><use xlink:href="#k" transform="matrix(1,0,0,1,504.99850000000026,581.6666666666666) translate(131.32716049382717 44.44444444444444)"/><use xlink:href="#l" transform="matrix(1,0,0,1,504.99850000000026,581.6666666666666) translate(69.01234567901236 71.11111111111111)"/><use xlink:href="#i" transform="matrix(1,0,0,1,504.99850000000026,581.6666666666666) translate(87.53086419753087 71.11111111111111)"/><use xlink:href="#m" transform="matrix(1,0,0,1,504.99850000000026,581.6666666666666) translate(106.66666666666667 71.11111111111111)"/><use xlink:href="#n" transform="matrix(1,0,0,1,504.99850000000026,581.6666666666666) translate(125.18518518518519 71.11111111111111)"/><path d="M380 566c0-3.3 2.7-6 6-6h228c3.3 0 6 2.7 6 6v48c0 3.3-2.7 6-6 6H386c-3.3 0-6-2.7-6-6z" stroke="#000" stroke-opacity="0" stroke-width="3" fill-opacity="0"/><use xlink:href="#o" transform="matrix(1,0,0,1,385,565) translate(74.01234567901236 30.27777777777778)"/><use xlink:href="#i" transform="matrix(1,0,0,1,385,565) translate(104.81481481481482 30.27777777777778)"/><use xlink:href="#p" transform="matrix(1,0,0,1,385,565) translate(123.95061728395062 30.27777777777778)"/><path d="M556 540h92v36.67h-92z" fill-opacity="0"/><use xlink:href="#q" transform="matrix(1,0,0,1,561.0123456790124,545) translate(0.012345679012348398 17.77777777777778)"/><use xlink:href="#i" transform="matrix(1,0,0,1,561.0123456790124,545) translate(30.814814814814813 17.77777777777778)"/><use xlink:href="#p" transform="matrix(1,0,0,1,561.0123456790124,545) translate(49.95061728395061 17.77777777777778)"/><path d="M657.34 503.33h91.98V540h-91.98z" fill-opacity="0"/><g><use xlink:href="#r" transform="matrix(1,0,0,1,662.3446790123459,508.3333333333333) translate(0.012345679012348398 17.77777777777778)"/><use xlink:href="#i" transform="matrix(1,0,0,1,662.3446790123459,508.3333333333333) translate(30.814814814814813 17.77777777777778)"/><use xlink:href="#p" transform="matrix(1,0,0,1,662.3446790123459,508.3333333333333) translate(49.95061728395061 17.77777777777778)"/></g><path d="M754 461.67h92v36.66h-92z" fill-opacity="0"/><g><use xlink:href="#s" transform="matrix(1,0,0,1,759.0123456790124,466.66666666666663) translate(0.012345679012348398 17.77777777777778)"/><use xlink:href="#i" transform="matrix(1,0,0,1,759.0123456790124,466.66666666666663) translate(30.814814814814813 17.77777777777778)"/><use xlink:href="#p" transform="matrix(1,0,0,1,759.0123456790124,466.66666666666663) translate(49.95061728395061 17.77777777777778)"/></g><path d="M320 266c0-3.3 2.7-6 6-6h68c3.3 0 6 2.7 6 6v48c0 3.3-2.7 6-6 6h-68c-3.3 0-6-2.7-6-6z" stroke="#000" stroke-opacity="0" stroke-width="3" fill="#fff" fill-opacity="0"/><g><use xlink:href="#t" transform="matrix(1,0,0,1,325,265) translate(29.04320987654321 30.27777777777778)"/></g><path d="M400 619v-4.02m0-8.04v-8.04m0-8.03v-8.04m0-8.04v-8.05m0-8.04v-8.03m0-8.04v-8.03m0-8.04v-8.04m0-8.04v-8.04m0-8.04v-8.03m0-8.04v-8.04m0-8.05v-8.04m0-8.03v-8.04m0-8.03v-8.04m0-8.04v-8.04m0-8.04v-8.04m0-8.03v-8.04m0-8.04v-8.05m0-8.04v-8.03m0-8.04v-8.03m0-8.04v-8.04m0-8.04v-8.04m0-8.04v-8.03m0-8.04v-8.04m0-8.05v-8.04m0-8.03v-8.04m0-8.03v-8.04m0-8.04V201" stroke="#5e5e5e" stroke-width="2" fill="none"/><path d="M401 620h-2v-1.03h2z" fill="#5e5e5e"/><path d="M400 201.03V200" stroke="#5e5e5e" stroke-width="2" fill="none"/><path d="M799.95 499.33l-.2 3.96m-.64 7.9l-.02.33-.97 7.33-.03.2m-1.38 7.8l-1.7 7.74m-2 7.67l-.3 1.13-2 6.46m-2.56 7.5l-1.34 3.78-1.46 3.64m-3.05 7.3l-3.1 6.83-.2.4m-3.56 7.1l-.55 1.1-3.27 5.84m-4.05 6.8l-2.05 3.36-2.24 3.32m-4.54 6.5l-3.1 4.23-1.68 2.1m-5.05 6.1l-3.25 3.72-2.05 2.17m-5.58 5.64l-2.14 2.07-3.68 3.3m-6.1 5.04l-.3.22-5.1 3.78-1 .7m-6.6 4.35l-3.5 2.16-3.33 1.9m-7 3.7l-2.17 1.1-5 2.3m-7.3 3.08l-1.87.76-5.57 2m-7.54 2.47l-3.02.95-4.6 1.24m-7.7 1.9l-6.04 1.35-1.7.3m-7.8 1.4l-.53.1-7.33 1m-7.87.9l-6.35.6-1.55.08m-7.92.4l-1.73.1-6.2.1m-7.9-.12l-4.3-.26-3.6-.38m-7.87-1.1l-6.2-1.17-1.57-.38m-7.7-1.92l-4.47-1.25-3.1-1.02m-7.5-2.58l-4.64-1.73-2.74-1.15m-7.27-3.16l-6.46-3.03-.7-.36m-7.03-3.67l-.83-.43-6.06-3.5m-6.76-4.14l-4.46-2.83-2.17-1.5m-6.5-4.54l-6.33-4.8m-6.17-4.98l-3.8-3.14-2.22-2m-5.88-5.33l-5.66-5.54m-5.48-5.72l-2.67-2.84-2.65-3.05m-5.1-6.07l-4.6-5.78-.3-.45m-4.67-6.4l-.46-.63-3.96-5.96m-4.17-6.73l-1.34-2.2-2.58-4.7m-3.64-7.04l-1.45-2.92-1.9-4.25m-3.05-7.32l-1.1-2.8-1.63-4.64m-2.4-7.57l-.56-1.87-1.48-5.8m-1.7-7.73l-.06-.27-1.15-6.82-.1-.73m-.9-7.86l-.34-3.95" stroke="#3aa6dd" stroke-width="2" fill="none"/><path d="M800.95 499.4l-2-.1.05-.97h2z" fill="#3aa6dd"/><path d="M400.04 483.24l4.8 14.2-9.26.12z" stroke="#3aa6dd" stroke-width="2" fill="#3aa6dd"/><defs><path d="M101-251c68 0 85 55 85 127S166 4 100 4C33 4 14-52 14-124c0-73 17-127 87-127zm-1 229c47 0 54-49 54-102s-4-102-53-102c-51 0-55 48-55 102 0 53 5 102 54 102" id="u"/><use transform="matrix(0.06172839506172839,0,0,0.06172839506172839,0,0)" xlink:href="#u" id="a"/><path d="M27 0v-27h64v-190l-56 39v-29l58-41h29v221h61V0H27" id="v"/><use transform="matrix(0.06172839506172839,0,0,0.06172839506172839,0,0)" xlink:href="#v" id="b"/><path d="M101-251c82-7 93 87 43 132L82-64C71-53 59-42 53-27h129V0H18c2-99 128-94 128-182 0-28-16-43-45-43s-46 15-49 41l-32-3c6-41 34-60 81-64" id="w"/><use transform="matrix(0.06172839506172839,0,0,0.06172839506172839,0,0)" xlink:href="#w" id="c"/><path d="M155-56V0h-30v-56H8v-25l114-167h33v167h35v25h-35zm-30-156c-27 46-58 90-88 131h88v-131" id="x"/><path d="M115-194c55 1 70 41 70 98S169 2 115 4C84 4 66-9 55-30l1 105H24l-1-265h31l2 30c10-21 28-34 59-34zm-8 174c40 0 45-34 45-75s-6-73-45-74c-42 0-51 32-51 76 0 43 10 73 51 73" id="y"/><path d="M141-36C126-15 110 5 73 4 37 3 15-17 15-53c-1-64 63-63 125-63 3-35-9-54-41-54-24 1-41 7-42 31l-33-3c5-37 33-52 76-52 45 0 72 20 72 64v82c-1 20 7 32 28 27v20c-31 9-61-2-59-35zM48-53c0 20 12 33 32 33 41-3 63-29 60-74-43 2-92-5-92 41" id="z"/><path d="M108 0H70L1-190h34L89-25l56-165h34" id="A"/><g id="d"><use transform="matrix(0.06172839506172839,0,0,0.06172839506172839,0,0)" xlink:href="#x"/><use transform="matrix(0.06172839506172839,0,0,0.06172839506172839,12.345679012345679,0)" xlink:href="#y"/><use transform="matrix(0.06172839506172839,0,0,0.06172839506172839,24.691358024691358,0)" xlink:href="#z"/><use transform="matrix(0.06172839506172839,0,0,0.06172839506172839,37.03703703703704,0)" xlink:href="#A"/></g><path d="M126-127c33 6 58 20 58 59 0 88-139 92-164 29-3-8-5-16-6-25l32-3c6 27 21 44 54 44 32 0 52-15 52-46 0-38-36-46-79-43v-28c39 1 72-4 72-42 0-27-17-43-46-43-28 0-47 15-49 41l-32-3c6-42 35-63 81-64 48-1 79 21 79 65 0 36-21 52-52 59" id="B"/><use transform="matrix(0.06172839506172839,0,0,0.06172839506172839,0,0)" xlink:href="#B" id="e"/><path d="M137 0h-34L2-248h35l83 218 83-218h36" id="C"/><path d="M30-248c87 1 191-15 191 75 0 78-77 80-158 76V0H30v-248zm33 125c57 0 124 11 124-50 0-59-68-47-124-48v98" id="D"/><path d="M18-150v-26h174v26H18zm0 90v-26h174v26H18" id="E"/><path d="M194-70c0 46-34 64-81 66v29H91V-4C42-5 12-27 4-67l30-6c5 28 25 41 57 43v-87c-38-9-76-20-76-67 1-42 33-58 76-59v-23h22v23c45 0 67 20 76 56l-31 6c-5-23-18-35-45-37v78c41 10 81 20 81 70zm-81 41c51 7 71-66 19-77-6-2-12-4-19-6v83zM91-219c-47-6-63 57-18 69 6 2 12 3 18 5v-74" id="F"/><path d="M33 0v-38h34V0H33" id="G"/><g id="f"><use transform="matrix(0.06172839506172839,0,0,0.06172839506172839,0,0)" xlink:href="#C"/><use transform="matrix(0.06172839506172839,0,0,0.06172839506172839,14.814814814814813,0)" xlink:href="#D"/><use transform="matrix(0.06172839506172839,0,0,0.06172839506172839,29.629629629629626,0)" xlink:href="#E"/><use transform="matrix(0.06172839506172839,0,0,0.06172839506172839,42.59259259259259,0)" xlink:href="#F"/><use transform="matrix(0.06172839506172839,0,0,0.06172839506172839,54.938271604938265,0)" xlink:href="#v"/><use transform="matrix(0.06172839506172839,0,0,0.06172839506172839,67.28395061728395,0)" xlink:href="#u"/><use transform="matrix(0.06172839506172839,0,0,0.06172839506172839,79.62962962962963,0)" xlink:href="#u"/><use transform="matrix(0.06172839506172839,0,0,0.06172839506172839,91.97530864197532,0)" xlink:href="#G"/><use transform="matrix(0.06172839506172839,0,0,0.06172839506172839,98.14814814814815,0)" xlink:href="#u"/><use transform="matrix(0.06172839506172839,0,0,0.06172839506172839,110.49382716049384,0)" xlink:href="#u"/><use transform="matrix(0.06172839506172839,0,0,0.06172839506172839,122.83950617283952,0)" xlink:href="#u"/></g><path d="M30 0v-248h33v221h125V0H30" id="H"/><path d="M16-82v-28h88v28H16" id="I"/><g id="g"><use transform="matrix(0.06172839506172839,0,0,0.06172839506172839,0,0)" xlink:href="#H"/><use transform="matrix(0.06172839506172839,0,0,0.06172839506172839,12.345679012345679,0)" xlink:href="#E"/><use transform="matrix(0.06172839506172839,0,0,0.06172839506172839,25.30864197530864,0)" xlink:href="#I"/><use transform="matrix(0.06172839506172839,0,0,0.06172839506172839,32.654320987654316,0)" xlink:href="#F"/><use transform="matrix(0.06172839506172839,0,0,0.06172839506172839,44.99999999999999,0)" xlink:href="#v"/><use transform="matrix(0.06172839506172839,0,0,0.06172839506172839,57.34567901234567,0)" xlink:href="#w"/><use transform="matrix(0.06172839506172839,0,0,0.06172839506172839,69.69135802469135,0)" xlink:href="#G"/><use transform="matrix(0.06172839506172839,0,0,0.06172839506172839,75.86419753086419,0)" xlink:href="#u"/><use transform="matrix(0.06172839506172839,0,0,0.06172839506172839,88.20987654320987,0)" xlink:href="#u"/><use transform="matrix(0.06172839506172839,0,0,0.06172839506172839,100.55555555555556,0)" xlink:href="#u"/></g><path d="M24-231v-30h32v30H24zM24 0v-190h32V0H24" id="J"/><use transform="matrix(0.06172839506172839,0,0,0.06172839506172839,0,0)" xlink:href="#J" id="h"/><use transform="matrix(0.06172839506172839,0,0,0.06172839506172839,0,0)" xlink:href="#E" id="i"/><path d="M134-131c28 9 52 24 51 62-1 50-34 73-85 73S17-19 16-69c0-36 21-54 49-61-75-25-45-126 34-121 46 3 78 18 79 63 0 33-17 51-44 57zm-34-11c31 1 46-15 46-44 0-28-17-43-47-42-29 0-46 13-45 42 1 28 16 44 46 44zm1 122c35 0 51-18 51-52 0-30-18-46-53-46-33 0-51 17-51 47 0 34 19 51 53 51" id="K"/><path d="M252-156c43 0 55 33 55 80 0 46-13 78-56 78-42 0-55-33-55-78 0-48 12-80 56-80zM93 0H65l162-248h28zM13-171c-1-47 13-79 56-79s55 33 55 79-13 79-55 79c-43 0-56-33-56-79zM251-17c28 0 30-29 30-59 0-31-1-60-29-60-29 0-31 29-31 60 0 29 2 59 30 59zM69-112c27 0 28-30 29-59 0-31-1-60-29-60-29 0-30 30-30 60s2 59 30 59" id="L"/><g id="j"><use transform="matrix(0.06172839506172839,0,0,0.06172839506172839,0,0)" xlink:href="#K"/><use transform="matrix(0.06172839506172839,0,0,0.06172839506172839,12.345679012345679,0)" xlink:href="#L"/></g><g id="k"><use transform="matrix(0.06172839506172839,0,0,0.06172839506172839,0,0)" xlink:href="#y"/><use transform="matrix(0.06172839506172839,0,0,0.06172839506172839,12.345679012345679,0)" xlink:href="#z"/><use transform="matrix(0.06172839506172839,0,0,0.06172839506172839,24.691358024691358,0)" xlink:href="#A"/></g><path d="M117-194c89-4 53 116 60 194h-32v-121c0-31-8-49-39-48C34-167 62-67 57 0H25l-1-190h30c1 10-1 24 2 32 11-22 29-35 61-36" id="M"/><use transform="matrix(0.06172839506172839,0,0,0.06172839506172839,0,0)" xlink:href="#M" id="l"/><use transform="matrix(0.06172839506172839,0,0,0.06172839506172839,0,0)" xlink:href="#x" id="m"/><g id="n"><use transform="matrix(0.06172839506172839,0,0,0.06172839506172839,0,0)" xlink:href="#y"/><use transform="matrix(0.06172839506172839,0,0,0.06172839506172839,12.345679012345679,0)" xlink:href="#z"/><use transform="matrix(0.06172839506172839,0,0,0.06172839506172839,24.691358024691358,0)" xlink:href="#A"/></g><path d="M233-177c-1 41-23 64-60 70L243 0h-38l-65-103H63V0H30v-248c88 3 205-21 203 71zM63-129c60-2 137 13 137-47 0-61-80-42-137-45v92" id="N"/><g id="o"><use transform="matrix(0.06172839506172839,0,0,0.06172839506172839,0,0)" xlink:href="#N"/><use transform="matrix(0.04320987654320987,0,0,0.04320987654320987,15.987654320987653,0)" xlink:href="#v"/></g><path d="M103-251c84 0 111 97 45 133-19 10-37 24-39 52H78c0-63 77-55 77-114 0-30-21-42-52-43-32 0-53 17-56 46l-32-2c7-45 34-72 88-72zM77 0v-35h34V0H77" id="O"/><g id="p"><use transform="matrix(0.06172839506172839,0,0,0.06172839506172839,0,0)" xlink:href="#I"/><use transform="matrix(0.06172839506172839,0,0,0.06172839506172839,7.345679012345679,0)" xlink:href="#F"/><use transform="matrix(0.06172839506172839,0,0,0.06172839506172839,19.691358024691358,0)" xlink:href="#O"/></g><g id="q"><use transform="matrix(0.06172839506172839,0,0,0.06172839506172839,0,0)" xlink:href="#N"/><use transform="matrix(0.04320987654320987,0,0,0.04320987654320987,15.987654320987653,0)" xlink:href="#w"/></g><g id="r"><use transform="matrix(0.06172839506172839,0,0,0.06172839506172839,0,0)" xlink:href="#N"/><use transform="matrix(0.04320987654320987,0,0,0.04320987654320987,15.987654320987653,0)" xlink:href="#B"/></g><g id="s"><use transform="matrix(0.06172839506172839,0,0,0.06172839506172839,0,0)" xlink:href="#N"/><use transform="matrix(0.04320987654320987,0,0,0.04320987654320987,15.987654320987653,0)" xlink:href="#x"/></g><path fill="#333" d="M101-234c-31-9-42 10-38 44h38v23H63V0H32v-167H5v-23h27c-7-52 17-82 69-68v24" id="P"/><g id="t"><use transform="matrix(0.06172839506172839,0,0,0.06172839506172839,0,0)" xlink:href="#P"/><use transform="matrix(0.06172839506172839,0,0,0.06172839506172839,5.7407407407407405,0)" xlink:href="#P"/></g></defs></g></svg>