<svg xmlns="http://www.w3.org/2000/svg" xmlns:xlink="http://www.w3.org/1999/xlink" xmlns:lucid="lucid" width="771" height="615"><g transform="translate(-260 -120)" lucid:page-tab-id="0_0"><path d="M0 0h1870.4v1323.2H0z" fill="#fff"/><path d="M395 320h586.5" stroke="#000" stroke-width="2" fill="none"/><path/><path d="M996.76 320l-14.26 4.64v-9.28z" stroke="#000" stroke-width="2"/><path d="M400 319v-60.5M400 318.97V320" stroke="#000" stroke-width="2" fill="none"/><path d="M400 243.24l4.64 14.26h-9.28z" stroke="#000" stroke-width="2"/><path d="M500.02 321l1.03 68.5" stroke="#000" stroke-width="2" fill="none"/><path d="M501.02 321l-2 .04L499 320h2z"/><path d="M501.28 404.76l-4.85-14.2 9.27-.13z" stroke="#000" stroke-width="2"/><path d="M602 321v100.5" stroke="#000" stroke-width="2" fill="none"/><path d="M603 321.03h-2V320h2z"/><path d="M602 436.76l-4.64-14.26h9.28z" stroke="#000" stroke-width="2"/><path d="M703.33 321v78.66c0 .2.15.34.34.34.2 0 .34.15.34.34v61.16" stroke="#000" stroke-width="2" fill="none"/><path d="M704.33 321.03h-2V320h2z"/><path d="M704 476.76l-4.62-14.26h9.27z" stroke="#000" stroke-width="2"/><path d="M583.33 286c0-3.3 2.7-6 6-6h228c3.32 0 6 2.7 6 6v28c0 3.3-2.68 6-6 6h-228c-3.3 0-6-2.7-6-6zM450 266c0-3.3 2.7-6 6-6h88c3.3 0 6 2.7 6 6v48c0 3.3-2.7 6-6 6h-88c-3.3 0-6-2.7-6-6z" stroke="#000" stroke-opacity="0" stroke-width="3" fill-opacity="0"/><use xlink:href="#a" transform="matrix(1,0,0,1,455,265) translate(38.82716049382716 30.27777777777778)"/><path d="M543 266c0-3.3 2.7-6 6-6h106c3.3 0 6 2.7 6 6v48c0 3.3-2.7 6-6 6H549c-3.3 0-6-2.7-6-6z" stroke="#000" stroke-opacity="0" stroke-width="3" fill-opacity="0"/><use xlink:href="#b" transform="matrix(1,0,0,1,548,265) translate(47.82716049382716 30.27777777777778)"/><path d="M876 254.68c0-3.3 2.67-6 6-6h88c3.3 0 6 2.7 6 6v70.64c0 3.3-2.7 6-6 6h-88c-3.33 0-6-2.7-6-6z" stroke="#000" stroke-opacity="0" stroke-width="3" fill-opacity="0"/><use xlink:href="#c" transform="matrix(1,0,0,1,880.9876543209876,253.68489583333331) translate(6.119068287037038 49.31575520833332)"/><use xlink:href="#d" transform="matrix(1,0,0,1,880.9876543209876,253.68489583333331) translate(12.291907793209877 49.31575520833332)"/><use xlink:href="#e" transform="matrix(1,0,0,1,880.9876543209876,253.68489583333331) translate(41.96735146604937 49.31575520833332)"/><path d="M666.67 266c0-3.3 2.68-6 6-6H734c3.3 0 6 2.7 6 6v48c0 3.3-2.7 6-6 6h-61.33c-3.32 0-6-2.7-6-6z" stroke="#000" stroke-opacity="0" stroke-width="3" fill-opacity="0"/><use xlink:href="#f" transform="matrix(1,0,0,1,671.6661666666668,265) translate(25.82716049382716 30.27777777777778)"/><path d="M280 386c0-3.3 2.7-6 6-6h228c3.3 0 6 2.7 6 6v48c0 3.3-2.7 6-6 6H286c-3.3 0-6-2.7-6-6zM520 549.97c0-3.3 2.7-6 6-6h311.33c3.32 0 6 2.7 6 6v123.4c0 3.3-2.68 6-6 6H526c-3.3 0-6-2.7-6-6z" stroke="#000" stroke-opacity="0" stroke-width="3" fill-opacity="0"/><use xlink:href="#g" transform="matrix(1,0,0,1,525,548.9697265625) translate(120.05555555555556 21.71527777777778)"/><use xlink:href="#h" transform="matrix(1,0,0,1,525,548.9697265625) translate(137.7716049382716 21.71527777777778)"/><use xlink:href="#i" transform="matrix(1,0,0,1,525,548.9697265625) translate(156.9074074074074 21.71527777777778)"/><use xlink:href="#j" transform="matrix(1,0,0,1,525,548.9697265625) translate(101.81481481481481 48.38194444444444)"/><use xlink:href="#h" transform="matrix(1,0,0,1,525,548.9697265625) translate(112.86419753086419 48.38194444444444)"/><use xlink:href="#k" transform="matrix(1,0,0,1,525,548.9697265625) translate(132 48.38194444444444)"/><use xlink:href="#l" transform="matrix(1,0,0,1,525,548.9697265625) translate(170.2716049382716 48.38194444444444)"/><use xlink:href="#m" transform="matrix(1,0,0,1,525,548.9697265625) translate(102.3783275462963 92.89908854166666)"/><use xlink:href="#h" transform="matrix(1,0,0,1,525,548.9697265625) translate(120.89684606481482 92.89908854166666)"/><use xlink:href="#d" transform="matrix(1,0,0,1,525,548.9697265625) translate(140.03264853395063 92.89908854166666)"/><use xlink:href="#l" transform="matrix(1,0,0,1,525,548.9697265625) translate(169.70809220679013 92.89908854166666)"/><use xlink:href="#n" transform="matrix(1,0,0,1,525,548.9697265625) translate(157 120.44249131944443)"/><path d="M380 406c0-3.3 2.7-6 6-6h228c3.3 0 6 2.7 6 6v48c0 3.3-2.7 6-6 6H386c-3.3 0-6-2.7-6-6z" stroke="#000" stroke-opacity="0" stroke-width="3" fill-opacity="0"/><use xlink:href="#o" transform="matrix(1,0,0,1,385,405) translate(90.30864197530865 30.27777777777778)"/><path d="M556 440h92v36.67h-92z" fill-opacity="0"/><use xlink:href="#p" transform="matrix(1,0,0,1,561.0123456790124,445) translate(16.308641975308642 17.77777777777778)"/><path d="M658.02 480H750v36.67h-91.98z" fill-opacity="0"/><use xlink:href="#q" transform="matrix(1,0,0,1,663.0246913580247,484.99999999999994) translate(16.308641975308642 17.77777777777778)"/><path d="M320 266c0-3.3 2.7-6 6-6h68c3.3 0 6 2.7 6 6v48c0 3.3-2.7 6-6 6h-68c-3.3 0-6-2.7-6-6z" stroke="#000" stroke-opacity="0" stroke-width="3" fill="#fff" fill-opacity="0"/><use xlink:href="#r" transform="matrix(1,0,0,1,325,265) translate(29.04320987654321 30.27777777777778)"/><path d="M400 459v-3.9m0-7.82v-7.82m0-7.8v-7.83m0-7.8v-7.83m0-7.8v-7.83m0-7.8v-7.83m0-7.8v-7.83m0-7.8v-7.8m0-7.83v-7.8m0-7.83v-7.8m0-7.83v-7.8m0-7.82v-7.8m0-7.83v-7.8m0-7.83v-7.8m0-7.83v-7.82m0-7.82v-7.8m0-7.83v-7.8m0-7.83v-7.8m0-7.83v-3.9" stroke="#5e5e5e" stroke-width="2" fill="none"/><path d="M401 460h-2v-1.03h2zM401 177.7h-2v-1.03h2z" fill="#5e5e5e"/><path d="M925.94 554.33l-.12 2.26-.18 1.72m-1.05 7.93l-.04.2-1.4 7.04-.15.6m-1.93 7.76l-.02.1-2.27 7.57m-2.58 7.57l-1.45 4.1-1.37 3.4m-3.1 7.37l-3.36 7.26m-3.7 7.1l-.46.85-3.56 6.06m-4.36 6.7l-3.42 4.72-1.36 1.7m-5.18 6.1l-.03.03-3 3.08-1.85 1.76-.83.73m-6 5.3l-5.98 5.3m-6 5.3l-.8.72-5.38 4.36m-6.2 5.05l-1 .82-5.4 4m-6.5 4.68l-4.35 2.96-2.32 1.44m-6.88 4.1l-1.8 1-4.6 2.35-.7.33m-7.35 3.17l-.26.1-4.04 1.47-3.27 1.02m-7.74 2l-3.2.73-4.64.82m-7.9 1.3l-7.9 1.2m-7.9 1.22l-7.73 1.18-.2.03m-7.9 1.18l-.23.04-7.74.75m-7.98.65l-8 .36m-8 .37l-7.98.35m-8 .08l-8 .04m-8 .03l-8 .04m-8 .05l-8 .04m-8-.26l-8-.4m-7.96-.67l-5.67-1.1-2.16-.54m-7.75-1.93l-1.75-.43-6-1.55m-7.7-2.2l-7.36-3.1m-7.38-3.1l-4.9-2.05-2.4-1.22m-7.05-3.8l-2.25-1.25-4.6-2.84m-6.73-4.34l-6.08-4.1-.54-.4m-6.44-4.74l-4.17-3.07-2.2-1.76m-6.25-5.02l-4.13-3.32-2.03-1.78m-6.04-5.27l-5.5-4.8-.5-.5m-5.8-5.5l-5.8-5.52m-5.63-5.68l-5.56-5.75m-5.5-5.8l-5.33-6m-5.3-5.97l-.97-1.07-4.15-5.08m-5.07-6.2l-2.56-3.14-2.38-3.16m-4.8-6.4l-3.36-4.5-1.36-1.96m-4.52-6.6l-3.4-4.94-1.06-1.7m-4.25-6.8l-2.73-4.35-1.4-2.48m-3.97-6.96l-1.56-2.74-2.2-4.32m-3.68-7.1l-.02-.06-3.34-7.2m-3.2-7.34l-2.7-6.48-.33-.93m-2.74-7.52l-.44-1.17-2.05-6.43m-2.2-7.7l-1-3.6-.94-4.15m-1.62-7.83l-.75-4.05-.55-3.85m-.94-7.94l-.27-2.84-.07-1.15M925.93 554.36l.06-1.03" stroke="#3aa6dd" stroke-width="2" fill="none"/><path d="M400.05 443.24l4.83 14.2-9.27.13z" stroke="#3aa6dd" stroke-width="2" fill="#3aa6dd"/><path d="M400 266c0-3.3 2.7-6 6-6h49c3.3 0 6 2.7 6 6v48c0 3.3-2.7 6-6 6h-49c-3.3 0-6-2.7-6-6z" stroke="#000" stroke-opacity="0" stroke-width="3" fill="#fff" fill-opacity="0"/><g><use xlink:href="#s" transform="matrix(1,0,0,1,405,265) translate(19.32716049382716 30.27777777777778)"/></g><path d="M327.4 140h145.2v36.67H327.4z" fill="#fff" fill-opacity="0"/><g><use xlink:href="#t" transform="matrix(1,0,0,1,332.4074074074074,145) translate(34.358024691358025 17.77777777777778)"/></g><path d="M502.3 408.25l422.72 108.17M502.33 408.25l-3.9-1M925 516.4l1 .27" stroke="#3aa6dd" stroke-width="2" fill="none"/><path d="M783.33 266c0-3.3 2.7-6 6-6h48c3.32 0 6 2.7 6 6v48c0 3.3-2.68 6-6 6h-48c-3.3 0-6-2.7-6-6z" stroke="#000" stroke-opacity="0" stroke-width="3" fill="#fff" fill-opacity="0"/><g><use xlink:href="#u" transform="matrix(1,0,0,1,788.3338333333332,265) translate(9.567901234567902 30.27777777777778)"/><use xlink:href="#v" transform="matrix(1,0,0,1,788.3338333333332,265) translate(21.913580246913583 30.27777777777778)"/><use xlink:href="#w" transform="matrix(1,0,0,1,788.3338333333332,265) translate(34.25925925925926 30.27777777777778)"/></g><defs><path d="M27 0v-27h64v-190l-56 39v-29l58-41h29v221h61V0H27" id="x"/><use transform="matrix(0.06172839506172839,0,0,0.06172839506172839,0,0)" xlink:href="#x" id="a"/><path d="M101-251c82-7 93 87 43 132L82-64C71-53 59-42 53-27h129V0H18c2-99 128-94 128-182 0-28-16-43-45-43s-46 15-49 41l-32-3c6-41 34-60 81-64" id="y"/><use transform="matrix(0.06172839506172839,0,0,0.06172839506172839,0,0)" xlink:href="#y" id="b"/><path fill="#3a3a3a" d="M1030-1032c177 0 295 135 295 313 0 168-127 324-295 316-164-7-238-96-311-222-67 112-151 212-301 217-176 5-299-134-299-315 0-173 127-313 299-313 121 0 222 73 303 219 83-143 186-215 309-215zM248-721c0 107 71 191 178 189 44 0 84-16 120-46s73-78 109-145c-58-103-102-184-231-190-104-5-176 83-176 192zm948 2c0-161-181-249-298-144-35 32-73 79-110 144 59 103 104 185 232 191 102 5 176-85 176-191" id="z"/><use transform="matrix(0.01627604166666666,0,0,0.01627604166666666,0,0)" xlink:href="#z" id="d"/><path d="M115-194c55 1 70 41 70 98S169 2 115 4C84 4 66-9 55-30l1 105H24l-1-265h31l2 30c10-21 28-34 59-34zm-8 174c40 0 45-34 45-75s-6-73-45-74c-42 0-51 32-51 76 0 43 10 73 51 73" id="A"/><path d="M210-169c-67 3-38 105-44 169h-31v-121c0-29-5-50-35-48C34-165 62-65 56 0H25l-1-190h30c1 10-1 24 2 32 10-44 99-50 107 0 11-21 27-35 58-36 85-2 47 119 55 194h-31v-121c0-29-5-49-35-48" id="B"/><path d="M108 0H70L1-190h34L89-25l56-165h34" id="C"/><g id="e"><use transform="matrix(0.06172839506172839,0,0,0.06172839506172839,0,0)" xlink:href="#A"/><use transform="matrix(0.06172839506172839,0,0,0.06172839506172839,12.345679012345679,0)" xlink:href="#B"/><use transform="matrix(0.06172839506172839,0,0,0.06172839506172839,30.80246913580247,0)" xlink:href="#C"/></g><path d="M126-127c33 6 58 20 58 59 0 88-139 92-164 29-3-8-5-16-6-25l32-3c6 27 21 44 54 44 32 0 52-15 52-46 0-38-36-46-79-43v-28c39 1 72-4 72-42 0-27-17-43-46-43-28 0-47 15-49 41l-32-3c6-42 35-63 81-64 48-1 79 21 79 65 0 36-21 52-52 59" id="D"/><use transform="matrix(0.06172839506172839,0,0,0.06172839506172839,0,0)" xlink:href="#D" id="f"/><path d="M30 0v-248h33v221h125V0H30" id="E"/><use transform="matrix(0.06172839506172839,0,0,0.06172839506172839,0,0)" xlink:href="#E" id="g"/><path d="M18-150v-26h174v26H18zm0 90v-26h174v26H18" id="F"/><use transform="matrix(0.06172839506172839,0,0,0.06172839506172839,0,0)" xlink:href="#F" id="h"/><path d="M194-70c0 46-34 64-81 66v29H91V-4C42-5 12-27 4-67l30-6c5 28 25 41 57 43v-87c-38-9-76-20-76-67 1-42 33-58 76-59v-23h22v23c45 0 67 20 76 56l-31 6c-5-23-18-35-45-37v78c41 10 81 20 81 70zm-81 41c51 7 71-66 19-77-6-2-12-4-19-6v83zM91-219c-47-6-63 57-18 69 6 2 12 3 18 5v-74" id="G"/><path d="M101-251c68 0 85 55 85 127S166 4 100 4C33 4 14-52 14-124c0-73 17-127 87-127zm-1 229c47 0 54-49 54-102s-4-102-53-102c-51 0-55 48-55 102 0 53 5 102 54 102" id="H"/><g id="i"><use transform="matrix(0.06172839506172839,0,0,0.06172839506172839,0,0)" xlink:href="#G"/><use transform="matrix(0.06172839506172839,0,0,0.06172839506172839,12.345679012345679,0)" xlink:href="#x"/><use transform="matrix(0.06172839506172839,0,0,0.06172839506172839,24.691358024691358,0)" xlink:href="#H"/></g><path d="M24-231v-30h32v30H24zM24 0v-190h32V0H24" id="I"/><use transform="matrix(0.06172839506172839,0,0,0.06172839506172839,0,0)" xlink:href="#I" id="j"/><path d="M252-156c43 0 55 33 55 80 0 46-13 78-56 78-42 0-55-33-55-78 0-48 12-80 56-80zM93 0H65l162-248h28zM13-171c-1-47 13-79 56-79s55 33 55 79-13 79-55 79c-43 0-56-33-56-79zM251-17c28 0 30-29 30-59 0-31-1-60-29-60-29 0-31 29-31 60 0 29 2 59 30 59zM69-112c27 0 28-30 29-59 0-31-1-60-29-60-29 0-30 30-30 60s2 59 30 59" id="J"/><g id="k"><use transform="matrix(0.06172839506172839,0,0,0.06172839506172839,0,0)" xlink:href="#D"/><use transform="matrix(0.06172839506172839,0,0,0.06172839506172839,12.345679012345679,0)" xlink:href="#J"/></g><g id="l"><use transform="matrix(0.06172839506172839,0,0,0.06172839506172839,0,0)" xlink:href="#A"/><use transform="matrix(0.06172839506172839,0,0,0.06172839506172839,12.345679012345679,0)" xlink:href="#B"/><use transform="matrix(0.06172839506172839,0,0,0.06172839506172839,30.80246913580247,0)" xlink:href="#C"/></g><path d="M117-194c89-4 53 116 60 194h-32v-121c0-31-8-49-39-48C34-167 62-67 57 0H25l-1-190h30c1 10-1 24 2 32 11-22 29-35 61-36" id="K"/><use transform="matrix(0.06172839506172839,0,0,0.06172839506172839,0,0)" xlink:href="#K" id="m"/><g id="o"><use transform="matrix(0.06172839506172839,0,0,0.06172839506172839,0,0)" xlink:href="#G"/><use transform="matrix(0.06172839506172839,0,0,0.06172839506172839,12.345679012345679,0)" xlink:href="#y"/><use transform="matrix(0.06172839506172839,0,0,0.06172839506172839,24.691358024691358,0)" xlink:href="#H"/><use transform="matrix(0.06172839506172839,0,0,0.06172839506172839,37.03703703703704,0)" xlink:href="#H"/></g><g id="p"><use transform="matrix(0.06172839506172839,0,0,0.06172839506172839,0,0)" xlink:href="#G"/><use transform="matrix(0.06172839506172839,0,0,0.06172839506172839,12.345679012345679,0)" xlink:href="#y"/><use transform="matrix(0.06172839506172839,0,0,0.06172839506172839,24.691358024691358,0)" xlink:href="#x"/><use transform="matrix(0.06172839506172839,0,0,0.06172839506172839,37.03703703703704,0)" xlink:href="#H"/></g><g id="q"><use transform="matrix(0.06172839506172839,0,0,0.06172839506172839,0,0)" xlink:href="#G"/><use transform="matrix(0.06172839506172839,0,0,0.06172839506172839,12.345679012345679,0)" xlink:href="#y"/><use transform="matrix(0.06172839506172839,0,0,0.06172839506172839,24.691358024691358,0)" xlink:href="#y"/><use transform="matrix(0.06172839506172839,0,0,0.06172839506172839,37.03703703703704,0)" xlink:href="#H"/></g><path fill="#333" d="M101-234c-31-9-42 10-38 44h38v23H63V0H32v-167H5v-23h27c-7-52 17-82 69-68v24" id="L"/><g id="r"><use transform="matrix(0.06172839506172839,0,0,0.06172839506172839,0,0)" xlink:href="#L"/><use transform="matrix(0.06172839506172839,0,0,0.06172839506172839,5.7407407407407405,0)" xlink:href="#L"/></g><path fill="#333" d="M101-251c68 0 85 55 85 127S166 4 100 4C33 4 14-52 14-124c0-73 17-127 87-127zm-1 229c47 0 54-49 54-102s-4-102-53-102c-51 0-55 48-55 102 0 53 5 102 54 102" id="M"/><use transform="matrix(0.06172839506172839,0,0,0.06172839506172839,0,0)" xlink:href="#M" id="s"/><path d="M137 0h-34L2-248h35l83 218 83-218h36" id="N"/><path d="M30-248c87 1 191-15 191 75 0 78-77 80-158 76V0H30v-248zm33 125c57 0 124 11 124-50 0-59-68-47-124-48v98" id="O"/><path d="M103-251c84 0 111 97 45 133-19 10-37 24-39 52H78c0-63 77-55 77-114 0-30-21-42-52-43-32 0-53 17-56 46l-32-2c7-45 34-72 88-72zM77 0v-35h34V0H77" id="P"/><g id="t"><use transform="matrix(0.06172839506172839,0,0,0.06172839506172839,0,0)" xlink:href="#N"/><use transform="matrix(0.06172839506172839,0,0,0.06172839506172839,14.814814814814813,0)" xlink:href="#O"/><use transform="matrix(0.06172839506172839,0,0,0.06172839506172839,29.629629629629626,0)" xlink:href="#F"/><use transform="matrix(0.06172839506172839,0,0,0.06172839506172839,42.59259259259259,0)" xlink:href="#G"/><use transform="matrix(0.06172839506172839,0,0,0.06172839506172839,54.938271604938265,0)" xlink:href="#P"/></g><path d="M24 0v-54h51V0H24" id="Q"/><use transform="matrix(0.06172839506172839,0,0,0.06172839506172839,0,0)" xlink:href="#Q" id="u"/><use transform="matrix(0.06172839506172839,0,0,0.06172839506172839,0,0)" xlink:href="#Q" id="v"/><use transform="matrix(0.06172839506172839,0,0,0.06172839506172839,0,0)" xlink:href="#Q" id="w"/></defs></g></svg>