<svg xmlns="http://www.w3.org/2000/svg" xmlns:xlink="http://www.w3.org/1999/xlink" xmlns:lucid="lucid" width="651" height="577.67"><g transform="translate(-260 -120)" lucid:page-tab-id="0_0"><path d="M0 0h1870.4v1323.2H0z" fill="#fff"/><path d="M395 320h466.5" stroke="#000" stroke-width="2" fill="none"/><path/><path d="M876.76 320l-14.26 4.64v-9.28z" stroke="#000" stroke-width="2"/><path d="M400 319v-60.5M400 318.97V320" stroke="#000" stroke-width="2" fill="none"/><path d="M400 243.24l4.64 14.26h-9.28z" stroke="#000" stroke-width="2"/><path d="M500 321v177.16" stroke="#000" stroke-width="2" fill="none"/><path d="M501 321.03h-2V320h2z"/><path d="M500 513.43l-4.64-14.27h9.28z" stroke="#000" stroke-width="2"/><path d="M602 321v153.83" stroke="#000" stroke-width="2" fill="none"/><path d="M603 321.03h-2V320h2z"/><path d="M602 490.1l-4.64-14.27h9.28z" stroke="#000" stroke-width="2"/><path d="M703.33 321v117.16" stroke="#000" stroke-width="2" fill="none"/><path d="M704.33 321.03h-2V320h2z"/><path d="M703.33 453.43l-4.63-14.27h9.27z" stroke="#000" stroke-width="2"/><path d="M800 321v83.83" stroke="#000" stroke-width="2" fill="none"/><path d="M801 321.03h-2V320h2z"/><path d="M800 420.1l-4.64-14.27h9.28z" stroke="#000" stroke-width="2"/><path d="M583.33 286c0-3.3 2.7-6 6-6h228c3.32 0 6 2.7 6 6v28c0 3.3-2.68 6-6 6h-228c-3.3 0-6-2.7-6-6zM450 266c0-3.3 2.7-6 6-6h88c3.3 0 6 2.7 6 6v48c0 3.3-2.7 6-6 6h-88c-3.3 0-6-2.7-6-6z" stroke="#000" stroke-opacity="0" stroke-width="3" fill-opacity="0"/><use xlink:href="#a" transform="matrix(1,0,0,1,455,265) translate(38.82716049382716 30.27777777777778)"/><path d="M543 266c0-3.3 2.7-6 6-6h106c3.3 0 6 2.7 6 6v48c0 3.3-2.7 6-6 6H549c-3.3 0-6-2.7-6-6z" stroke="#000" stroke-opacity="0" stroke-width="3" fill-opacity="0"/><use xlink:href="#b" transform="matrix(1,0,0,1,548,265) translate(47.82716049382716 30.27777777777778)"/><path d="M750 266c0-3.3 2.7-6 6-6h88c3.3 0 6 2.7 6 6v48c0 3.3-2.7 6-6 6h-88c-3.3 0-6-2.7-6-6z" stroke="#000" stroke-opacity="0" stroke-width="3" fill-opacity="0"/><use xlink:href="#c" transform="matrix(1,0,0,1,755,265) translate(20.925925925925924 30.27777777777778)"/><path d="M666.67 266c0-3.3 2.68-6 6-6H734c3.3 0 6 2.7 6 6v48c0 3.3-2.7 6-6 6h-61.33c-3.32 0-6-2.7-6-6z" stroke="#000" stroke-opacity="0" stroke-width="3" fill-opacity="0"/><use xlink:href="#d" transform="matrix(1,0,0,1,671.6661666666668,265) translate(25.82716049382716 30.27777777777778)"/><path d="M280 386c0-3.3 2.7-6 6-6h228c3.3 0 6 2.7 6 6v48c0 3.3-2.7 6-6 6H286c-3.3 0-6-2.7-6-6zM500 546c0-3.3 2.68-6 6-6h311.33c3.32 0 6 2.7 6 6v104.67c0 3.3-2.68 6-6 6H506c-3.32 0-6-2.7-6-6z" stroke="#000" stroke-opacity="0" stroke-width="3" fill-opacity="0"/><use xlink:href="#e" transform="matrix(1,0,0,1,504.99850000000026,545) translate(104.87037037037038 31.15277777777778)"/><use xlink:href="#f" transform="matrix(1,0,0,1,504.99850000000026,545) translate(115.91975308641976 31.15277777777778)"/><use xlink:href="#g" transform="matrix(1,0,0,1,504.99850000000026,545) translate(135.05555555555557 31.15277777777778)"/><use xlink:href="#h" transform="matrix(1,0,0,1,504.99850000000026,545) translate(173.32716049382717 31.15277777777778)"/><use xlink:href="#i" transform="matrix(1,0,0,1,504.99850000000026,545) translate(111.01234567901236 57.81944444444445)"/><use xlink:href="#f" transform="matrix(1,0,0,1,504.99850000000026,545) translate(129.5308641975309 57.81944444444445)"/><use xlink:href="#j" transform="matrix(1,0,0,1,504.99850000000026,545) translate(148.66666666666669 57.81944444444445)"/><use xlink:href="#h" transform="matrix(1,0,0,1,504.99850000000026,545) translate(167.1851851851852 57.81944444444445)"/><use xlink:href="#k" transform="matrix(1,0,0,1,504.99850000000026,545) translate(20.456790123456784 84.48611111111111)"/><use xlink:href="#f" transform="matrix(1,0,0,1,504.99850000000026,545) translate(38.9753086419753 84.48611111111111)"/><use xlink:href="#l" transform="matrix(1,0,0,1,504.99850000000026,545) translate(58.1111111111111 84.48611111111111)"/><use xlink:href="#m" transform="matrix(1,0,0,1,504.99850000000026,545) translate(116.07407407407408 84.48611111111111)"/><use xlink:href="#n" transform="matrix(1,0,0,1,504.99850000000026,545) translate(210.9506172839506 84.48611111111111)"/><use xlink:href="#o" transform="matrix(1,0,0,1,504.99850000000026,545) translate(241.8148148148148 84.48611111111111)"/><path d="M380 522.67c0-3.32 2.7-6 6-6h228c3.3 0 6 2.68 6 6v48c0 3.3-2.7 6-6 6H386c-3.3 0-6-2.7-6-6z" stroke="#000" stroke-opacity="0" stroke-width="3" fill-opacity="0"/><use xlink:href="#p" transform="matrix(1,0,0,1,385,521.6666666666666) translate(90.3395061728395 30.27777777777778)"/><path d="M556 493.33h92V530h-92z" fill-opacity="0"/><use xlink:href="#q" transform="matrix(1,0,0,1,561.0123456790124,498.33333333333337) translate(13.253086419753089 17.77777777777778)"/><use xlink:href="#r" transform="matrix(1,0,0,1,561.0123456790124,498.33333333333337) translate(56.401234567901234 17.77777777777778)"/><path d="M657.34 456.67h91.98v36.66h-91.98z" fill-opacity="0"/><use xlink:href="#s" transform="matrix(1,0,0,1,662.3446790123459,461.6666666666667) translate(13.253086419753089 17.77777777777778)"/><use xlink:href="#r" transform="matrix(1,0,0,1,662.3446790123459,461.6666666666667) translate(56.401234567901234 17.77777777777778)"/><path d="M754 423.33h92V460h-92z" fill-opacity="0"/><use xlink:href="#t" transform="matrix(1,0,0,1,759.0123456790124,428.33333333333326) translate(13.253086419753089 17.77777777777778)"/><use xlink:href="#r" transform="matrix(1,0,0,1,759.0123456790124,428.33333333333326) translate(56.401234567901234 17.77777777777778)"/><path d="M320 266c0-3.3 2.7-6 6-6h68c3.3 0 6 2.7 6 6v48c0 3.3-2.7 6-6 6h-68c-3.3 0-6-2.7-6-6z" stroke="#000" stroke-opacity="0" stroke-width="3" fill="#fff" fill-opacity="0"/><g><use xlink:href="#u" transform="matrix(1,0,0,1,325,265) translate(29.04320987654321 30.27777777777778)"/></g><path d="M400 575.67v-3.98m0-7.97v-7.96m0-7.96v-7.95m0-7.96v-7.97m0-7.96V508m0-7.95v-7.96m0-7.97v-7.96m0-7.96v-7.95m0-7.96v-7.97m0-7.96v-7.96m0-7.95v-7.96m0-7.97v-7.96m0-7.96v-7.95m0-7.96v-7.97m0-7.96v-7.96m0-7.95v-7.96m0-7.97v-7.96m0-7.96v-7.95m0-7.96v-7.97m0-7.96v-7.96m0-7.95v-7.96m0-7.97v-7.96m0-7.96v-7.95m0-7.96v-7.97m0-7.96v-7.96m0-7.95v-3.98" stroke="#5e5e5e" stroke-width="2" fill="none"/><path d="M401 576.67h-2v-1.03h2zM401 177.7h-2v-1.03h2z" fill="#5e5e5e"/><path d="M799.95 461l-.2 3.98m-.4 7.95l-.04.6-.66 7.33m-.74 7.94l-.73 7.93m-1.05 7.9l-1.06 7.9M794 520.4l-.24 1.85-1.06 6.02m-1.4 7.84l-1.23 7.03-.18.82m-1.73 7.77l-1.52 6.88-.24.9m-2.04 7.7l-.7 2.66-1.55 4.97m-2.63 7.5l-2.07 5.55-.85 1.86m-3.38 7.2l-3.73 6.73-.16.24m-4.4 6.64l-4.53 5.85-.38.4m-5.34 5.92l-.12.15-5.63 5.35m-5.9 5.34l-6.08 5.15m-6.08 5.17l-.15.13-4.84 3.92-1.24.92m-6.48 4.64l-2.78 1.9-3.9 2.4m-6.9 4l-.97.55-6.1 3.1m-7.24 3.34l-7.27 2.97-.1.04m-7.5 2.7l-.2.07-7.4 2.3m-7.68 2.12l-2.12.57-5.63 1.25m-7.8 1.57l-6.06 1.1-1.8.23m-7.9 1.08l-.86.12-7.04.67m-7.95.58l-7.18.38-.76.02m-7.96.1l-3-.05-3.53-.23-1.42-.15m-7.88-1.13l-2.58-.5-4.5-1.06-.7-.2m-7.63-2.3l-1.55-.5-5.47-2.03-.46-.2m-7.3-3.16l-4.38-2.05-2.78-1.47m-7-3.82l-4.1-2.36-2.7-1.73m-6.7-4.34l-6.22-4.33-.3-.23m-6.34-4.8l-1.78-1.37-4.4-3.65m-6.08-5.15l-5.92-5.33m-5.74-5.52l-4.6-4.5-1.04-1.12m-5.46-5.8l-2.5-2.66-2.8-3.28m-5.22-6.03l-.76-.9-4.22-5.32m-4.9-6.27l-4.7-6.43m-4.55-6.53l-4.4-6.64m-4.2-6.77l-3.57-5.9-.5-.93m-3.85-6.98l-1.7-3.1-1.97-3.97m-3.52-7.14l-3.24-7.26m-3.06-7.36l-2.24-5.66-.62-1.77m-2.62-7.52l-.16-.47-2.16-7.15m-2.08-7.68l-.9-3.48-.9-4.27m-1.5-7.82l-.8-4.7-.4-3.17m-.87-7.92l-.34-3.97" stroke="#3aa6dd" stroke-width="2" fill="none"/><path d="M800.95 461.08l-2-.1.05-.98h2z" fill="#3aa6dd"/><path d="M400.03 443.24l4.8 14.2-9.28.1z" stroke="#3aa6dd" stroke-width="2" fill="#3aa6dd"/><path d="M400 266c0-3.3 2.7-6 6-6h49c3.3 0 6 2.7 6 6v48c0 3.3-2.7 6-6 6h-49c-3.3 0-6-2.7-6-6z" stroke="#000" stroke-opacity="0" stroke-width="3" fill="#fff" fill-opacity="0"/><g><use xlink:href="#v" transform="matrix(1,0,0,1,405,265) translate(19.32716049382716 30.27777777777778)"/></g><path d="M327.4 140h145.2v36.67H327.4z" fill="#fff" fill-opacity="0"/><g><use xlink:href="#w" transform="matrix(1,0,0,1,332.4074074074074,145) translate(0.4074074074074048 17.77777777777778)"/></g><path d="M475.62 529.03L879.05 400.3M475.64 529.02l-3.83 1.23M879.02 400.3l.98-.3" stroke="#3aa6dd" stroke-width="2" fill="none"/><defs><path d="M27 0v-27h64v-190l-56 39v-29l58-41h29v221h61V0H27" id="x"/><use transform="matrix(0.06172839506172839,0,0,0.06172839506172839,0,0)" xlink:href="#x" id="a"/><path d="M101-251c82-7 93 87 43 132L82-64C71-53 59-42 53-27h129V0H18c2-99 128-94 128-182 0-28-16-43-45-43s-46 15-49 41l-32-3c6-41 34-60 81-64" id="y"/><use transform="matrix(0.06172839506172839,0,0,0.06172839506172839,0,0)" xlink:href="#y" id="b"/><path d="M155-56V0h-30v-56H8v-25l114-167h33v167h35v25h-35zm-30-156c-27 46-58 90-88 131h88v-131" id="z"/><path d="M115-194c55 1 70 41 70 98S169 2 115 4C84 4 66-9 55-30l1 105H24l-1-265h31l2 30c10-21 28-34 59-34zm-8 174c40 0 45-34 45-75s-6-73-45-74c-42 0-51 32-51 76 0 43 10 73 51 73" id="A"/><path d="M141-36C126-15 110 5 73 4 37 3 15-17 15-53c-1-64 63-63 125-63 3-35-9-54-41-54-24 1-41 7-42 31l-33-3c5-37 33-52 76-52 45 0 72 20 72 64v82c-1 20 7 32 28 27v20c-31 9-61-2-59-35zM48-53c0 20 12 33 32 33 41-3 63-29 60-74-43 2-92-5-92 41" id="B"/><path d="M108 0H70L1-190h34L89-25l56-165h34" id="C"/><g id="c"><use transform="matrix(0.06172839506172839,0,0,0.06172839506172839,0,0)" xlink:href="#z"/><use transform="matrix(0.06172839506172839,0,0,0.06172839506172839,12.345679012345679,0)" xlink:href="#A"/><use transform="matrix(0.06172839506172839,0,0,0.06172839506172839,24.691358024691358,0)" xlink:href="#B"/><use transform="matrix(0.06172839506172839,0,0,0.06172839506172839,37.03703703703704,0)" xlink:href="#C"/></g><path d="M126-127c33 6 58 20 58 59 0 88-139 92-164 29-3-8-5-16-6-25l32-3c6 27 21 44 54 44 32 0 52-15 52-46 0-38-36-46-79-43v-28c39 1 72-4 72-42 0-27-17-43-46-43-28 0-47 15-49 41l-32-3c6-42 35-63 81-64 48-1 79 21 79 65 0 36-21 52-52 59" id="D"/><use transform="matrix(0.06172839506172839,0,0,0.06172839506172839,0,0)" xlink:href="#D" id="d"/><path d="M24-231v-30h32v30H24zM24 0v-190h32V0H24" id="E"/><use transform="matrix(0.06172839506172839,0,0,0.06172839506172839,0,0)" xlink:href="#E" id="e"/><path d="M18-150v-26h174v26H18zm0 90v-26h174v26H18" id="F"/><use transform="matrix(0.06172839506172839,0,0,0.06172839506172839,0,0)" xlink:href="#F" id="f"/><path d="M134-131c28 9 52 24 51 62-1 50-34 73-85 73S17-19 16-69c0-36 21-54 49-61-75-25-45-126 34-121 46 3 78 18 79 63 0 33-17 51-44 57zm-34-11c31 1 46-15 46-44 0-28-17-43-47-42-29 0-46 13-45 42 1 28 16 44 46 44zm1 122c35 0 51-18 51-52 0-30-18-46-53-46-33 0-51 17-51 47 0 34 19 51 53 51" id="G"/><path d="M252-156c43 0 55 33 55 80 0 46-13 78-56 78-42 0-55-33-55-78 0-48 12-80 56-80zM93 0H65l162-248h28zM13-171c-1-47 13-79 56-79s55 33 55 79-13 79-55 79c-43 0-56-33-56-79zM251-17c28 0 30-29 30-59 0-31-1-60-29-60-29 0-31 29-31 60 0 29 2 59 30 59zM69-112c27 0 28-30 29-59 0-31-1-60-29-60-29 0-30 30-30 60s2 59 30 59" id="H"/><g id="g"><use transform="matrix(0.06172839506172839,0,0,0.06172839506172839,0,0)" xlink:href="#G"/><use transform="matrix(0.06172839506172839,0,0,0.06172839506172839,12.345679012345679,0)" xlink:href="#H"/></g><g id="h"><use transform="matrix(0.06172839506172839,0,0,0.06172839506172839,0,0)" xlink:href="#A"/><use transform="matrix(0.06172839506172839,0,0,0.06172839506172839,12.345679012345679,0)" xlink:href="#B"/><use transform="matrix(0.06172839506172839,0,0,0.06172839506172839,24.691358024691358,0)" xlink:href="#C"/></g><path d="M117-194c89-4 53 116 60 194h-32v-121c0-31-8-49-39-48C34-167 62-67 57 0H25l-1-190h30c1 10-1 24 2 32 11-22 29-35 61-36" id="I"/><use transform="matrix(0.06172839506172839,0,0,0.06172839506172839,0,0)" xlink:href="#I" id="i"/><use transform="matrix(0.06172839506172839,0,0,0.06172839506172839,0,0)" xlink:href="#z" id="j"/><path d="M177-190C167-65 218 103 67 71c-23-6-38-20-44-43l32-5c15 47 100 32 89-28v-30C133-14 115 1 83 1 29 1 15-40 15-95c0-56 16-97 71-98 29-1 48 16 59 35 1-10 0-23 2-32h30zM94-22c36 0 50-32 50-73 0-42-14-75-50-75-39 0-46 34-46 75s6 73 46 73" id="J"/><use transform="matrix(0.06172839506172839,0,0,0.06172839506172839,0,0)" xlink:href="#J" id="k"/><path d="M16-82v-28h88v28H16" id="K"/><path d="M101-251c68 0 85 55 85 127S166 4 100 4C33 4 14-52 14-124c0-73 17-127 87-127zm-1 229c47 0 54-49 54-102s-4-102-53-102c-51 0-55 48-55 102 0 53 5 102 54 102" id="L"/><g id="l"><use transform="matrix(0.06172839506172839,0,0,0.06172839506172839,0,0)" xlink:href="#K"/><use transform="matrix(0.06172839506172839,0,0,0.06172839506172839,7.345679012345679,0)" xlink:href="#x"/><use transform="matrix(0.06172839506172839,0,0,0.06172839506172839,19.691358024691358,0)" xlink:href="#L"/><use transform="matrix(0.06172839506172839,0,0,0.06172839506172839,32.03703703703704,0)" xlink:href="#H"/></g><path d="M114-163C36-179 61-72 57 0H25l-1-190h30c1 12-1 29 2 39 6-27 23-49 58-41v29" id="M"/><path d="M96-169c-40 0-48 33-48 73s9 75 48 75c24 0 41-14 43-38l32 2c-6 37-31 61-74 61-59 0-76-41-82-99-10-93 101-131 147-64 4 7 5 14 7 22l-32 3c-4-21-16-35-41-35" id="N"/><path d="M100-194c62-1 85 37 85 99 1 63-27 99-86 99S16-35 15-95c0-66 28-99 85-99zM99-20c44 1 53-31 53-75 0-43-8-75-51-75s-53 32-53 75 10 74 51 75zM76-211c8-23 27-35 38-54h36v5l-58 49H76" id="O"/><g id="m"><use transform="matrix(0.06172839506172839,0,0,0.06172839506172839,0,0)" xlink:href="#C"/><use transform="matrix(0.06172839506172839,0,0,0.06172839506172839,11.11111111111111,0)" xlink:href="#B"/><use transform="matrix(0.06172839506172839,0,0,0.06172839506172839,23.45679012345679,0)" xlink:href="#M"/><use transform="matrix(0.06172839506172839,0,0,0.06172839506172839,30.80246913580247,0)" xlink:href="#E"/><use transform="matrix(0.06172839506172839,0,0,0.06172839506172839,35.67901234567901,0)" xlink:href="#B"/><use transform="matrix(0.06172839506172839,0,0,0.06172839506172839,48.02469135802469,0)" xlink:href="#N"/><use transform="matrix(0.06172839506172839,0,0,0.06172839506172839,59.1358024691358,0)" xlink:href="#E"/><use transform="matrix(0.06172839506172839,0,0,0.06172839506172839,64.01234567901234,0)" xlink:href="#O"/><use transform="matrix(0.06172839506172839,0,0,0.06172839506172839,76.35802469135803,0)" xlink:href="#I"/></g><path d="M85-194c31 0 48 13 60 33l-1-100h32l1 261h-30c-2-10 0-23-3-31C134-8 116 4 85 4 32 4 16-35 15-94c0-66 23-100 70-100zm9 24c-40 0-46 34-46 75 0 40 6 74 45 74 42 0 51-32 51-76 0-42-9-74-50-73" id="P"/><path d="M100-194c63 0 86 42 84 106H49c0 40 14 67 53 68 26 1 43-12 49-29l28 8c-11 28-37 45-77 45C44 4 14-33 15-96c1-61 26-98 85-98zm52 81c6-60-76-77-97-28-3 7-6 17-6 28h103" id="Q"/><g id="n"><use transform="matrix(0.06172839506172839,0,0,0.06172839506172839,0,0)" xlink:href="#P"/><use transform="matrix(0.06172839506172839,0,0,0.06172839506172839,12.345679012345679,0)" xlink:href="#Q"/></g><path d="M101-234c-31-9-42 10-38 44h38v23H63V0H32v-167H5v-23h27c-7-52 17-82 69-68v24" id="R"/><path d="M24 0v-261h32V0H24" id="S"/><path d="M84 4C-5 8 30-112 23-190h32v120c0 31 7 50 39 49 72-2 45-101 50-169h31l1 190h-30c-1-10 1-25-2-33-11 22-28 36-60 37" id="T"/><path d="M24-231v-30h32v30H24zM-9 49c24 4 33-6 33-30v-209h32V24c2 40-23 58-65 49V49" id="U"/><path d="M100-194c62-1 85 37 85 99 1 63-27 99-86 99S16-35 15-95c0-66 28-99 85-99zM99-20c44 1 53-31 53-75 0-43-8-75-51-75s-53 32-53 75 10 74 51 75" id="V"/><path d="M135-143c-3-34-86-38-87 0 15 53 115 12 119 90S17 21 10-45l28-5c4 36 97 45 98 0-10-56-113-15-118-90-4-57 82-63 122-42 12 7 21 19 24 35" id="W"/><g id="o"><use transform="matrix(0.06172839506172839,0,0,0.06172839506172839,0,0)" xlink:href="#R"/><use transform="matrix(0.06172839506172839,0,0,0.06172839506172839,6.172839506172839,0)" xlink:href="#S"/><use transform="matrix(0.06172839506172839,0,0,0.06172839506172839,11.049382716049383,0)" xlink:href="#T"/><use transform="matrix(0.06172839506172839,0,0,0.06172839506172839,23.395061728395063,0)" xlink:href="#U"/><use transform="matrix(0.06172839506172839,0,0,0.06172839506172839,28.271604938271608,0)" xlink:href="#V"/><use transform="matrix(0.06172839506172839,0,0,0.06172839506172839,40.617283950617285,0)" xlink:href="#W"/></g><path d="M194-70c0 46-34 64-81 66v29H91V-4C42-5 12-27 4-67l30-6c5 28 25 41 57 43v-87c-38-9-76-20-76-67 1-42 33-58 76-59v-23h22v23c45 0 67 20 76 56l-31 6c-5-23-18-35-45-37v78c41 10 81 20 81 70zm-81 41c51 7 71-66 19-77-6-2-12-4-19-6v83zM91-219c-47-6-63 57-18 69 6 2 12 3 18 5v-74" id="X"/><path d="M233-177c-1 41-23 64-60 70L243 0h-38l-65-103H63V0H30v-248c88 3 205-21 203 71zM63-129c60-2 137 13 137-47 0-61-80-42-137-45v92" id="Y"/><path d="M103-251c84 0 111 97 45 133-19 10-37 24-39 52H78c0-63 77-55 77-114 0-30-21-42-52-43-32 0-53 17-56 46l-32-2c7-45 34-72 88-72zM77 0v-35h34V0H77" id="Z"/><g id="p"><use transform="matrix(0.06172839506172839,0,0,0.06172839506172839,0,0)" xlink:href="#X"/><use transform="matrix(0.06172839506172839,0,0,0.06172839506172839,12.345679012345679,0)" xlink:href="#Y"/><use transform="matrix(0.04320987654320987,0,0,0.04320987654320987,28.33333333333333,0)" xlink:href="#x"/><use transform="matrix(0.06172839506172839,0,0,0.06172839506172839,36.9753086419753,0)" xlink:href="#Z"/></g><g id="q"><use transform="matrix(0.06172839506172839,0,0,0.06172839506172839,0,0)" xlink:href="#X"/><use transform="matrix(0.06172839506172839,0,0,0.06172839506172839,12.345679012345679,0)" xlink:href="#Y"/><use transform="matrix(0.04320987654320987,0,0,0.04320987654320987,28.33333333333333,0)" xlink:href="#y"/></g><use transform="matrix(0.06172839506172839,0,0,0.06172839506172839,0,0)" xlink:href="#Z" id="r"/><g id="s"><use transform="matrix(0.06172839506172839,0,0,0.06172839506172839,0,0)" xlink:href="#X"/><use transform="matrix(0.06172839506172839,0,0,0.06172839506172839,12.345679012345679,0)" xlink:href="#Y"/><use transform="matrix(0.04320987654320987,0,0,0.04320987654320987,28.33333333333333,0)" xlink:href="#D"/></g><g id="t"><use transform="matrix(0.06172839506172839,0,0,0.06172839506172839,0,0)" xlink:href="#X"/><use transform="matrix(0.06172839506172839,0,0,0.06172839506172839,12.345679012345679,0)" xlink:href="#Y"/><use transform="matrix(0.04320987654320987,0,0,0.04320987654320987,28.33333333333333,0)" xlink:href="#z"/></g><path fill="#333" d="M101-234c-31-9-42 10-38 44h38v23H63V0H32v-167H5v-23h27c-7-52 17-82 69-68v24" id="aa"/><g id="u"><use transform="matrix(0.06172839506172839,0,0,0.06172839506172839,0,0)" xlink:href="#aa"/><use transform="matrix(0.06172839506172839,0,0,0.06172839506172839,5.7407407407407405,0)" xlink:href="#aa"/></g><path fill="#333" d="M101-251c68 0 85 55 85 127S166 4 100 4C33 4 14-52 14-124c0-73 17-127 87-127zm-1 229c47 0 54-49 54-102s-4-102-53-102c-51 0-55 48-55 102 0 53 5 102 54 102" id="ab"/><use transform="matrix(0.06172839506172839,0,0,0.06172839506172839,0,0)" xlink:href="#ab" id="v"/><path d="M137 0h-34L2-248h35l83 218 83-218h36" id="ac"/><path d="M30-248c87 1 191-15 191 75 0 78-77 80-158 76V0H30v-248zm33 125c57 0 124 11 124-50 0-59-68-47-124-48v98" id="ad"/><path d="M33 0v-38h34V0H33" id="ae"/><g id="w"><use transform="matrix(0.06172839506172839,0,0,0.06172839506172839,0,0)" xlink:href="#ac"/><use transform="matrix(0.06172839506172839,0,0,0.06172839506172839,14.814814814814813,0)" xlink:href="#ad"/><use transform="matrix(0.06172839506172839,0,0,0.06172839506172839,29.629629629629626,0)" xlink:href="#F"/><use transform="matrix(0.06172839506172839,0,0,0.06172839506172839,42.59259259259259,0)" xlink:href="#X"/><use transform="matrix(0.06172839506172839,0,0,0.06172839506172839,54.938271604938265,0)" xlink:href="#x"/><use transform="matrix(0.06172839506172839,0,0,0.06172839506172839,67.28395061728395,0)" xlink:href="#L"/><use transform="matrix(0.06172839506172839,0,0,0.06172839506172839,79.62962962962963,0)" xlink:href="#L"/><use transform="matrix(0.06172839506172839,0,0,0.06172839506172839,91.97530864197532,0)" xlink:href="#ae"/><use transform="matrix(0.06172839506172839,0,0,0.06172839506172839,98.14814814814815,0)" xlink:href="#L"/><use transform="matrix(0.06172839506172839,0,0,0.06172839506172839,110.49382716049384,0)" xlink:href="#L"/><use transform="matrix(0.06172839506172839,0,0,0.06172839506172839,122.83950617283952,0)" xlink:href="#L"/></g></defs></g></svg>